# Blender v2.77 (sub 0) OBJ File: 'still_blendswap1.blend'
# www.blender.org
o Torus.000
v -5.138282 4.412215 2.085780
v -5.114400 4.365075 2.130893
v -5.074229 4.332808 2.075912
v -5.098111 4.379949 2.030799
v -5.464956 3.957473 2.113974
v -5.410087 3.953469 2.156413
v -5.369916 3.921202 2.101431
v -5.424785 3.925207 2.058992
v -5.452786 3.478001 2.404249
v -5.399072 3.519478 2.419153
v -5.358901 3.487211 2.364172
v -5.412615 3.445735 2.349267
v -5.108902 3.254668 2.786566
v -5.087807 3.317329 2.765205
v -5.047636 3.285062 2.710224
v -5.068731 3.222401 2.731584
v -4.634746 3.418298 3.036969
v -4.658628 3.465438 2.991856
v -4.618457 3.433171 2.936874
v -4.594575 3.386031 2.981987
v -4.308072 3.873040 3.008775
v -4.362941 3.877044 2.966336
v -4.322770 3.844778 2.911355
v -4.267901 3.840773 2.953794
v -4.320241 4.352511 2.718501
v -4.373956 4.311035 2.703596
v -4.333785 4.278769 2.648615
v -4.280070 4.320245 2.663519
v -4.664125 4.575845 2.336183
v -4.685221 4.513184 2.357544
v -4.645050 4.480917 2.302563
v -4.623955 4.543579 2.281202
v -4.872077 3.346442 2.905738
v -4.418184 4.479002 2.469441
v -4.359219 4.338235 2.724217
v -5.448207 3.449895 2.372455
v -4.478552 3.650308 3.014931
v -4.272147 3.855750 2.993536
v -5.135460 4.394888 2.123827
v -5.047325 3.248089 2.706332
v -4.669593 4.483809 2.334568
v -5.274501 3.286978 2.543345
v -4.685532 4.550158 2.361435
v -4.597397 3.403358 2.943941
v -5.337229 4.207971 2.060287
v -4.395627 3.590275 3.007481
v -4.365222 4.286137 2.672956
v -5.507972 3.700793 2.233181
v -5.294476 4.180205 2.107818
v -4.324005 4.109377 2.858437
v -4.287415 3.834864 2.917188
v -5.063264 3.314437 2.733200
v -5.233888 3.343514 2.539840
v -5.107581 3.296489 2.788805
v -5.373638 3.460011 2.343551
v -5.125091 4.409690 2.045266
v -4.354450 3.861757 2.929878
v -4.298963 4.289836 2.641745
v -5.254305 4.147939 2.052837
v -4.224885 4.097454 2.834587
v -5.367635 3.512110 2.394812
v -4.347672 3.883263 2.999660
v -4.870564 3.286832 2.941826
v -4.637950 4.577801 2.302526
v -4.284649 4.348351 2.695312
v -4.862293 4.511415 2.125942
v -4.860780 4.451804 2.162030
v -5.433894 3.508410 2.426023
v -4.643589 3.459266 2.954832
v -4.831906 3.314176 2.850757
v -4.435798 3.622542 3.062462
v -5.089268 4.338980 2.112936
v -4.625276 4.501758 2.278963
v -4.830393 3.254565 2.886845
v -5.445442 3.963383 2.150580
v -5.075204 4.346488 2.041355
v -4.458798 4.422466 2.472946
v -4.900951 4.484071 2.217011
v -5.460710 3.942496 2.074232
v -5.408852 3.688870 2.209331
v -4.265056 4.129720 2.889568
v -4.607766 3.388556 3.022501
v -4.657653 3.451758 3.026412
v -4.458355 4.511268 2.524422
v -4.902464 4.543681 2.180923
v -4.283834 4.077110 2.803455
v -5.449022 3.721136 2.264312
v -5.385186 3.914983 2.068108
v -4.498969 4.454732 2.527928
v -5.297059 4.175704 2.005305
v -5.378407 3.936489 2.137890
v -4.438381 3.618041 2.959949
v -5.314672 3.319244 2.598327
v -5.467801 3.668526 2.178200
v -5.274058 3.375780 2.594822
v -5.094906 3.220445 2.765242
v -4.882815 4.544756 2.143014
v -4.911692 4.519637 2.214108
v -4.880546 4.455341 2.197147
v -4.851436 4.471237 2.131636
v -5.329486 4.199853 2.019074
v -5.324242 4.201081 2.099636
v -5.265356 4.158205 2.090372
v -5.263986 4.152681 2.017164
v -5.504904 3.678787 2.196703
v -5.486259 3.719818 2.263696
v -5.416480 3.709302 2.243400
v -5.426003 3.671418 2.181224
v -5.306311 3.286791 2.571848
v -5.302837 3.357766 2.610184
v -5.245391 3.371594 2.566590
v -5.242581 3.309366 2.527712
v -4.850041 3.253490 2.924754
v -4.881421 3.327009 2.936131
v -4.852311 3.342906 2.870621
v -4.821165 3.278610 2.853660
v -4.403371 3.598393 3.048693
v -4.468872 3.645565 3.050603
v -4.467501 3.640042 2.977396
v -4.408615 3.597166 2.968131
v -4.227953 4.119460 2.871064
v -4.306853 4.126828 2.886544
v -4.316377 4.088944 2.824367
v -4.246597 4.078428 2.804071
v -4.426545 4.511456 2.495920
v -4.490275 4.488880 2.540056
v -4.487466 4.426652 2.501178
v -4.430019 4.440481 2.457584
vt 0.0809 0.5652
vt 0.1604 0.6862
vt 0.1460 0.7006
vt 0.0622 0.5729
vt 0.0312 0.4233
vt 0.0515 0.4233
vt 0.0719 0.4233
vt 0.0997 0.5574
vt 0.1748 0.6718
vt 0.6890 0.3967
vt 0.6890 0.2683
vt 0.6700 0.2683
vt 0.6700 0.4024
vt 0.6700 0.5365
vt 0.6890 0.5251
vt 0.7081 0.5194
vt 0.7081 0.3939
vt 0.7081 0.2683
vt 0.7272 0.3967
vt 0.7272 0.2683
vt 0.7272 0.5251
vt 0.7462 0.5365
vt 0.7462 0.4024
vt 0.7462 0.2683
vt 0.0809 0.5652
vt 0.1604 0.6862
vt 0.1748 0.6718
vt 0.0997 0.5574
vt 0.0719 0.4233
vt 0.0515 0.4233
vt 0.0809 0.2815
vt 0.0622 0.2737
vt 0.1460 0.1460
vt 0.1604 0.1604
vt 0.1748 0.1748
vt 0.0997 0.2893
vt 0.1400 0.9426
vt 0.0116 0.9426
vt 0.0002 0.9235
vt 0.1343 0.9235
vt 0.2683 0.9235
vt 0.2683 0.9426
vt 0.2683 0.9617
vt 0.1428 0.9617
vt 0.0173 0.9617
vt 0.1400 0.9807
vt 0.0116 0.9807
vt 0.2683 0.9807
vt 0.2683 0.9998
vt 0.1343 0.9998
vt 0.0002 0.9998
vt 0.0809 0.2815
vt 0.0997 0.2893
vt 0.1748 0.1748
vt 0.1604 0.1604
vt 0.2815 0.0809
vt 0.2737 0.0622
vt 0.4233 0.0002
vt 0.4233 0.0222
vt 0.4233 0.0441
vt 0.2893 0.0997
vt 0.3967 0.9426
vt 0.4024 0.9235
vt 0.5365 0.9235
vt 0.5251 0.9426
vt 0.5194 0.9617
vt 0.3939 0.9617
vt 0.3967 0.9807
vt 0.5251 0.9807
vt 0.5365 0.9998
vt 0.4024 0.9998
vt 0.2815 0.0809
vt 0.2893 0.0997
vt 0.4233 0.0441
vt 0.4233 0.0222
vt 0.5407 0.1291
vt 0.4322 0.0205
vt 0.4406 0.0002
vt 0.5551 0.1147
vt 0.6409 0.2411
vt 0.6221 0.2489
vt 0.6033 0.2566
vt 0.5264 0.1434
vt 0.4237 0.0408
vt 0.1400 0.8659
vt 0.0116 0.8659
vt 0.0002 0.8469
vt 0.1343 0.8469
vt 0.2683 0.8469
vt 0.2683 0.8659
vt 0.2683 0.8850
vt 0.1428 0.8850
vt 0.0173 0.8850
vt 0.1400 0.9041
vt 0.0116 0.9041
vt 0.2683 0.9041
vt 0.2683 0.9231
vt 0.1343 0.9231
vt 0.0002 0.9231
vt 0.5407 0.1291
vt 0.4322 0.0205
vt 0.4237 0.0408
vt 0.5264 0.1434
vt 0.6033 0.2566
vt 0.6221 0.2489
vt 0.6493 0.3911
vt 0.6696 0.3911
vt 0.6409 0.5412
vt 0.6221 0.5334
vt 0.6033 0.5256
vt 0.6290 0.3911
vt 0.3967 0.8659
vt 0.4024 0.8469
vt 0.5365 0.8469
vt 0.5251 0.8659
vt 0.5194 0.8850
vt 0.3939 0.8850
vt 0.3967 0.9041
vt 0.5251 0.9041
vt 0.5365 0.9231
vt 0.4024 0.9231
vt 0.6493 0.3911
vt 0.6290 0.3911
vt 0.6033 0.5256
vt 0.6221 0.5334
vt 0.5407 0.6532
vt 0.5551 0.6676
vt 0.4406 0.7821
vt 0.4322 0.7618
vt 0.4237 0.7415
vt 0.5264 0.6388
vt 0.6653 0.8659
vt 0.7936 0.8659
vt 0.8050 0.8469
vt 0.6709 0.8469
vt 0.5369 0.8469
vt 0.5369 0.8659
vt 0.5369 0.8850
vt 0.6624 0.8850
vt 0.7879 0.8850
vt 0.6653 0.9041
vt 0.7936 0.9041
vt 0.5369 0.9041
vt 0.5369 0.9231
vt 0.6709 0.9231
vt 0.8050 0.9231
vt 0.5407 0.6532
vt 0.5264 0.6388
vt 0.4237 0.7415
vt 0.4322 0.7618
vt 0.7669 0.1621
vt 0.7669 0.0086
vt 0.7872 0.0002
vt 0.7872 0.1621
vt 0.7872 0.3241
vt 0.7669 0.3156
vt 0.7466 0.3072
vt 0.7466 0.1621
vt 0.7466 0.0170
vt 0.8097 0.5559
vt 0.9381 0.5559
vt 0.9381 0.5369
vt 0.8040 0.5369
vt 0.6700 0.5369
vt 0.6813 0.5559
vt 0.6870 0.5750
vt 0.8126 0.5750
vt 0.9381 0.5750
vt 0.8097 0.5941
vt 0.9381 0.5941
vt 0.6813 0.5941
vt 0.6700 0.6131
vt 0.8040 0.6131
vt 0.9381 0.6131
vt 0.7669 0.1621
vt 0.7669 0.0086
vt 0.7466 0.0170
vt 0.7466 0.1621
vt 0.7466 0.3072
vt 0.7669 0.3156
vt 0.2815 0.7658
vt 0.4233 0.8245
vt 0.4233 0.8465
vt 0.2737 0.7845
vt 0.2893 0.7470
vt 0.4233 0.8025
vt 0.6890 0.1400
vt 0.6890 0.0116
vt 0.6700 0.0002
vt 0.6700 0.1343
vt 0.7081 0.1428
vt 0.7081 0.0173
vt 0.7272 0.1400
vt 0.7272 0.0116
vt 0.7462 0.1343
vt 0.7462 0.0002
vt 0.2815 0.7658
vt 0.4233 0.8245
vt 0.4233 0.8025
vt 0.2893 0.7470
vn -0.6181 0.7848 0.0437
vn -0.3871 0.9117 0.1372
vn -0.0217 0.8552 -0.5177
vn -0.3437 0.6784 -0.6493
vn -0.6134 0.3984 -0.6819
vn -0.8114 0.5841 0.0195
vn -0.5510 0.4398 0.7092
vn -0.5415 0.4449 0.7133
vn -0.5335 0.4533 0.7140
vn -0.1007 -0.2184 0.9706
vn -0.3417 -0.3467 0.8735
vn 0.0970 -0.0079 0.9952
vn 0.6134 -0.3984 0.6819
vn 0.3437 -0.6784 0.6493
vn 0.0217 -0.8552 0.5177
vn 0.6120 -0.7908 -0.0048
vn 0.3739 -0.9214 -0.1058
vn 0.8125 -0.5827 0.0159
vn 0.5148 -0.4162 -0.7495
vn 0.5244 -0.4112 -0.7456
vn 0.5322 -0.4028 -0.7446
vn 0.1255 0.1875 -0.9742
vn 0.3560 0.3148 -0.8798
vn -0.0683 -0.0128 -0.9976
vn -0.9377 0.3400 0.0712
vn -0.7897 0.0576 -0.6108
vn -0.8458 -0.2918 -0.4466
vn -0.9781 0.0891 0.1882
vn -0.5578 0.4194 0.7161
vn -0.5526 0.4295 0.7143
vn 0.2310 0.2434 0.9420
vn 0.2692 0.5037 0.8208
vn 0.8458 0.2918 0.4466
vn 0.7897 -0.0576 0.6108
vn 0.9437 -0.3291 -0.0334
vn 0.9848 -0.0710 -0.1585
vn 0.5079 -0.4366 -0.7425
vn 0.5133 -0.4266 -0.7446
vn -0.1940 -0.2574 -0.9466
vn -0.2349 -0.5077 -0.8288
vn -0.9258 -0.1291 0.3552
vn -0.7731 -0.5969 -0.2145
vn -0.5827 -0.8111 0.0503
vn -0.7894 -0.2832 0.5446
vn -0.5501 0.4040 0.7308
vn -0.5521 0.4132 0.7241
vn 0.2186 0.7302 0.6473
vn 0.0742 0.8887 0.4524
vn 0.5827 0.8111 -0.0503
vn 0.7731 0.5969 0.2145
vn 0.9313 0.1577 -0.3282
vn 0.7898 0.3140 -0.5269
vn 0.5156 -0.4520 -0.7279
vn 0.5137 -0.4429 -0.7348
vn -0.1821 -0.7264 -0.6626
vn -0.0463 -0.8801 -0.4725
vn -0.5894 -0.3475 0.7292
vn -0.3036 -0.9018 0.3074
vn -0.3560 -0.3148 0.8798
vn -0.5322 0.4028 0.7446
vn -0.5405 0.4057 0.7371
vn -0.1305 0.9570 0.2591
vn -0.3739 0.9214 0.1058
vn 0.3036 0.9018 -0.3074
vn 0.5821 0.3845 -0.7164
vn 0.3417 0.3467 -0.8735
vn 0.5335 -0.4533 -0.7140
vn 0.5254 -0.4505 -0.7218
vn 0.1543 -0.9449 -0.2886
vn 0.3871 -0.9117 -0.1372
vn -0.1255 -0.1875 0.9742
vn 0.0683 0.0128 0.9976
vn -0.5148 0.4162 0.7495
vn -0.5244 0.4112 0.7456
vn -0.6120 0.7908 0.0048
vn -0.8125 0.5827 -0.0159
vn 0.1007 0.2184 -0.9706
vn -0.0970 0.0079 -0.9952
vn 0.5510 -0.4398 -0.7092
vn 0.5415 -0.4449 -0.7133
vn 0.6181 -0.7848 -0.0437
vn 0.8114 -0.5841 -0.0195
vn 0.1940 0.2574 0.9466
vn 0.2349 0.5077 0.8288
vn -0.5079 0.4366 0.7425
vn -0.5133 0.4266 0.7446
vn -0.9437 0.3291 0.0334
vn -0.9848 0.0710 0.1585
vn -0.2310 -0.2434 -0.9420
vn -0.2692 -0.5037 -0.8208
vn 0.5578 -0.4194 -0.7161
vn 0.5526 -0.4295 -0.7143
vn 0.9377 -0.3400 -0.0712
vn 0.9781 -0.0891 -0.1882
vn 0.1821 0.7264 0.6626
vn 0.0463 0.8801 0.4725
vn -0.5156 0.4520 0.7278
vn -0.5137 0.4429 0.7348
vn -0.9313 -0.1577 0.3282
vn -0.7898 -0.3140 0.5269
vn -0.2186 -0.7302 -0.6473
vn -0.0742 -0.8887 -0.4524
vn 0.5501 -0.4040 -0.7308
vn 0.5522 -0.4132 -0.7241
vn 0.9258 0.1291 -0.3552
vn 0.7894 0.2832 -0.5446
vn -0.1543 0.9449 0.2886
vn -0.5254 0.4505 0.7218
vn -0.5821 -0.3845 0.7164
vn 0.1305 -0.9570 -0.2591
vn 0.5405 -0.4057 -0.7371
vn 0.5894 0.3475 -0.7292
s 1
f 1/1/1 85/2/2 97/3/3 56/4/4
f 1/1/1 56/4/4 101/5/5 45/6/6
f 1/1/1 45/6/6 102/7/7 39/8/8
f 1/1/1 39/8/8 98/9/9 85/2/2
f 2/10/10 78/11/11 98/12/9 39/13/8
f 2/10/10 39/13/8 102/14/7 49/15/12
f 2/10/10 49/15/12 103/16/13 72/17/14
f 2/10/10 72/17/14 99/18/15 78/11/11
f 3/19/16 67/20/17 99/18/15 72/17/14
f 3/19/16 72/17/14 103/16/13 59/21/18
f 3/19/16 59/21/18 104/22/19 76/23/20
f 3/19/16 76/23/20 100/24/21 67/20/17
f 4/25/22 56/4/4 97/3/3 66/26/23
f 4/25/22 66/26/23 100/27/21 76/28/20
f 4/25/22 76/28/20 104/29/19 90/30/24
f 4/25/22 90/30/24 101/5/5 56/4/4
f 5/31/25 45/6/6 101/5/5 79/32/26
f 5/31/25 79/32/26 105/33/27 48/34/28
f 5/31/25 48/34/28 106/35/29 75/36/30
f 5/31/25 75/36/30 102/7/7 45/6/6
f 6/37/31 49/38/12 102/39/7 75/40/30
f 6/37/31 75/40/30 106/41/29 87/42/32
f 6/37/31 87/42/32 107/43/33 91/44/34
f 6/37/31 91/44/34 103/45/13 49/38/12
f 7/46/35 59/47/18 103/45/13 91/44/34
f 7/46/35 91/44/34 107/43/33 80/48/36
f 7/46/35 80/48/36 108/49/37 88/50/38
f 7/46/35 88/50/38 104/51/19 59/47/18
f 8/52/39 90/30/24 104/29/19 88/53/38
f 8/52/39 88/53/38 108/54/37 94/55/40
f 8/52/39 94/55/40 105/33/27 79/32/26
f 8/52/39 79/32/26 101/5/5 90/30/24
f 9/56/41 48/34/28 105/33/27 36/57/42
f 9/56/41 36/57/42 109/58/43 93/59/44
f 9/56/41 93/59/44 110/60/45 68/61/46
f 9/56/41 68/61/46 106/35/29 48/34/28
f 10/62/47 87/42/32 106/41/29 68/63/46
f 10/62/47 68/63/46 110/64/45 95/65/48
f 10/62/47 95/65/48 111/66/49 61/67/50
f 10/62/47 61/67/50 107/43/33 87/42/32
f 11/68/51 80/48/36 107/43/33 61/67/50
f 11/68/51 61/67/50 111/66/49 53/69/52
f 11/68/51 53/69/52 112/70/53 55/71/54
f 11/68/51 55/71/54 108/49/37 80/48/36
f 12/72/55 94/55/40 108/54/37 55/73/54
f 12/72/55 55/73/54 112/74/53 42/75/56
f 12/72/55 42/75/56 109/58/43 36/57/42
f 12/72/55 36/57/42 105/33/27 94/55/40
f 13/76/57 93/77/44 109/78/43 96/79/58
f 13/76/57 96/79/58 113/80/15 63/81/59
f 13/76/57 63/81/59 114/82/60 54/83/61
f 13/76/57 54/83/61 110/84/45 93/77/44
f 14/85/62 95/86/48 110/87/45 54/88/61
f 14/85/62 54/88/61 114/89/60 33/90/63
f 14/85/62 33/90/63 115/91/3 52/92/64
f 14/85/62 52/92/64 111/93/49 95/86/48
f 15/94/65 53/95/52 111/93/49 52/92/64
f 15/94/65 52/92/64 115/91/3 70/96/66
f 15/94/65 70/96/66 116/97/67 40/98/68
f 15/94/65 40/98/68 112/99/53 53/95/52
f 16/100/69 42/101/56 112/102/53 40/103/68
f 16/100/69 40/103/68 116/104/67 74/105/70
f 16/100/69 74/105/70 113/80/15 96/79/58
f 16/100/69 96/79/58 109/78/43 42/101/56
f 17/106/71 63/81/59 113/80/15 82/107/14
f 17/106/71 82/107/14 117/108/13 71/109/72
f 17/106/71 71/109/72 118/110/73 83/111/74
f 17/106/71 83/111/74 114/82/60 63/81/59
f 18/112/75 33/90/63 114/89/60 83/113/74
f 18/112/75 83/113/74 118/114/73 37/115/76
f 18/112/75 37/115/76 119/116/5 69/117/4
f 18/112/75 69/117/4 115/91/3 33/90/63
f 19/118/77 70/96/66 115/91/3 69/117/4
f 19/118/77 69/117/4 119/116/5 92/119/78
f 19/118/77 92/119/78 120/120/79 44/121/80
f 19/118/77 44/121/80 116/97/67 70/96/66
f 20/122/81 74/105/70 116/104/67 44/123/80
f 20/122/81 44/123/80 120/124/79 46/125/82
f 20/122/81 46/125/82 117/108/13 82/107/14
f 20/122/81 82/107/14 113/80/15 74/105/70
f 21/126/83 71/109/72 117/108/13 38/127/34
f 21/126/83 38/127/34 121/128/33 81/129/84
f 21/126/83 81/129/84 122/130/85 62/131/86
f 21/126/83 62/131/86 118/110/73 71/109/72
f 22/132/87 37/133/76 118/134/73 62/135/86
f 22/132/87 62/135/86 122/136/85 50/137/88
f 22/132/87 50/137/88 123/138/27 57/139/26
f 22/132/87 57/139/26 119/140/5 37/133/76
f 23/141/89 92/142/78 119/140/5 57/139/26
f 23/141/89 57/139/26 123/138/27 86/143/90
f 23/141/89 86/143/90 124/144/91 51/145/92
f 23/141/89 51/145/92 120/146/79 92/142/78
f 24/147/93 46/125/82 120/124/79 51/148/92
f 24/147/93 51/148/92 124/149/91 60/150/94
f 24/147/93 60/150/94 121/128/33 38/127/34
f 24/147/93 38/127/34 117/108/13 46/125/82
f 25/151/95 81/152/84 121/153/33 65/154/50
f 25/151/95 65/154/50 125/155/49 84/156/96
f 25/151/95 84/156/96 126/157/97 35/158/98
f 25/151/95 35/158/98 122/159/85 81/152/84
f 26/160/99 50/161/88 122/162/85 35/163/98
f 26/160/99 35/163/98 126/164/97 89/165/100
f 26/160/99 89/165/100 127/166/43 47/167/42
f 26/160/99 47/167/42 123/168/27 50/161/88
f 27/169/101 86/170/90 123/168/27 47/167/42
f 27/169/101 47/167/42 127/166/43 77/171/102
f 27/169/101 77/171/102 128/172/103 58/173/104
f 27/169/101 58/173/104 124/174/91 86/170/90
f 28/175/105 60/176/94 124/177/91 58/178/104
f 28/175/105 58/178/104 128/179/103 34/180/106
f 28/175/105 34/180/106 125/155/49 65/154/50
f 28/175/105 65/154/50 121/153/33 60/176/94
f 29/181/107 84/182/96 125/183/49 64/184/64
f 29/181/107 64/184/64 97/3/3 85/2/2
f 29/181/107 85/2/2 98/9/9 43/185/108
f 29/181/107 43/185/108 126/186/97 84/182/96
f 30/187/109 89/188/100 126/189/97 43/190/108
f 30/187/109 43/190/108 98/12/9 78/11/11
f 30/187/109 78/11/11 99/18/15 41/191/58
f 30/187/109 41/191/58 127/192/43 89/188/100
f 31/193/110 77/194/102 127/192/43 41/191/58
f 31/193/110 41/191/58 99/18/15 67/20/17
f 31/193/110 67/20/17 100/24/21 73/195/111
f 31/193/110 73/195/111 128/196/103 77/194/102
f 32/197/112 34/198/106 128/199/103 73/200/111
f 32/197/112 73/200/111 100/27/21 66/26/23
f 32/197/112 66/26/23 97/3/3 64/184/64
f 32/197/112 64/184/64 125/183/49 34/198/106
