# Blender v2.77 (sub 0) OBJ File: 'still_blendswap1.blend'
# www.blender.org
o Torus.001
v 1.976623 0.446617 1.960620
v 1.939160 0.420027 2.012748
v 1.877972 0.420027 1.968773
v 1.915434 0.446617 1.916646
v 1.745271 0.843039 2.282532
v 1.729754 0.778846 2.304124
v 1.668566 0.778846 2.260149
v 1.684083 0.843039 2.238557
v 1.418091 0.843039 2.737783
v 1.433609 0.778846 2.716192
v 1.372421 0.778846 2.672217
v 1.356903 0.843039 2.693809
v 1.186740 0.446617 3.059695
v 1.224203 0.420027 3.007568
v 1.163014 0.420027 2.963593
v 1.125552 0.446617 3.015720
v 1.186740 -0.114009 3.059695
v 1.224203 -0.087419 3.007567
v 1.163014 -0.087419 2.963593
v 1.125552 -0.114009 3.015720
v 1.418091 -0.510431 2.737783
v 1.433609 -0.446238 2.716192
v 1.372421 -0.446238 2.672217
v 1.356903 -0.510431 2.693809
v 1.745271 -0.510431 2.282532
v 1.729754 -0.446238 2.304124
v 1.668566 -0.446238 2.260149
v 1.684083 -0.510431 2.238557
v 1.976623 -0.114009 1.960620
v 1.939160 -0.087419 2.012748
v 1.877972 -0.087419 1.968773
v 1.915434 -0.114009 1.916646
v 1.193536 0.166304 3.050239
v 1.823716 -0.353271 2.044266
v 1.752209 -0.475852 2.305156
v 1.383017 0.861570 2.722029
v 1.307221 -0.303985 2.892052
v 1.383018 -0.528962 2.722029
v 1.971739 0.432294 1.999694
v 1.130435 0.432293 2.976646
v 1.900649 -0.081800 2.001776
v 1.217270 0.685878 2.888099
v 1.971739 -0.099686 1.999694
v 1.130435 -0.099685 2.976646
v 1.884904 0.685879 2.088241
v 1.217270 -0.353270 2.888099
v 1.695880 -0.432673 2.286699
v 1.581681 0.901093 2.510158
v 1.856141 0.636594 2.128263
v 1.581681 -0.498786 2.510158
v 1.349965 -0.475851 2.671184
v 1.201525 0.414408 2.974565
v 1.246033 0.636593 2.848078
v 1.222217 0.432293 3.042608
v 1.349965 0.808459 2.671184
v 1.956843 0.454293 1.923585
v 1.406294 -0.432673 2.689641
v 1.660427 -0.475852 2.239194
v 1.794953 0.636594 2.084288
v 1.520493 -0.568485 2.466183
v 1.406294 0.765281 2.689641
v 1.441747 -0.475851 2.737146
v 1.152859 0.166304 3.106838
v 1.956843 -0.121685 1.923585
v 1.719157 -0.528962 2.254311
v 1.949315 0.166304 1.869503
v 1.908638 0.166304 1.926102
v 1.441747 0.808459 2.737146
v 1.201525 -0.081800 2.974565
v 1.132348 0.166304 3.006264
v 1.278458 -0.353270 2.932074
v 1.900649 0.414408 2.001776
v 1.879957 -0.099685 1.933732
v 1.091671 0.166304 3.062863
v 1.752209 0.808459 2.305156
v 1.879957 0.432294 1.933732
v 1.794953 -0.303986 2.084288
v 1.969827 0.166304 1.970077
v 1.719157 0.861570 2.254311
v 1.520493 0.831394 2.466183
v 1.581681 -0.568485 2.510157
v 1.145331 -0.121684 3.052755
v 1.222217 -0.099685 3.042608
v 1.884904 -0.353271 2.088241
v 2.010503 0.166304 1.913478
v 1.520493 -0.498786 2.466183
v 1.581681 0.831394 2.510158
v 1.660427 0.808459 2.239194
v 1.856141 -0.303986 2.128263
v 1.823716 0.685879 2.044266
v 1.695880 0.765281 2.286699
v 1.246033 -0.303985 2.848078
v 1.278458 0.685878 2.932074
v 1.520493 0.901093 2.466183
v 1.307221 0.636593 2.892053
v 1.145331 0.454292 3.052755
v 1.991652 0.166304 1.875151
v 2.003889 0.166304 1.954960
v 1.930637 0.166304 1.960050
v 1.912106 0.166304 1.888998
v 1.862613 0.700106 2.054700
v 1.884707 0.659330 2.120794
v 1.819469 0.626179 2.114733
v 1.792925 0.659330 2.054832
v 1.551087 0.921214 2.488170
v 1.596978 0.863548 2.521151
v 1.551087 0.816665 2.488170
v 1.505196 0.863548 2.455189
v 1.239561 0.700106 2.921640
v 1.309249 0.659330 2.921509
v 1.282705 0.626178 2.861608
v 1.217467 0.659330 2.855547
v 1.110523 0.166304 3.101189
v 1.190068 0.166304 3.087343
v 1.171537 0.166304 3.016291
v 1.098286 0.166304 3.021380
v 1.239561 -0.367498 2.921640
v 1.309249 -0.326722 2.921509
v 1.282705 -0.293571 2.861608
v 1.217467 -0.326722 2.855547
v 1.551087 -0.588606 2.488170
v 1.596978 -0.530940 2.521151
v 1.551087 -0.484057 2.488170
v 1.505196 -0.530940 2.455189
v 1.862613 -0.367498 2.054700
v 1.884707 -0.326722 2.120794
v 1.819469 -0.293571 2.114733
v 1.792925 -0.326722 2.054832
vt 0.3426 0.5652
vt 0.3720 0.4233
vt 0.3924 0.4233
vt 0.3614 0.5729
vt 0.2775 0.7006
vt 0.2631 0.6862
vt 0.2487 0.6718
vt 0.3239 0.5574
vt 0.3516 0.4233
vt 0.6890 0.3967
vt 0.6890 0.2683
vt 0.6700 0.2683
vt 0.6700 0.4024
vt 0.6700 0.5365
vt 0.6890 0.5251
vt 0.7081 0.5194
vt 0.7081 0.3939
vt 0.7081 0.2683
vt 0.7272 0.3967
vt 0.7272 0.2683
vt 0.7272 0.5251
vt 0.7462 0.5365
vt 0.7462 0.4024
vt 0.7462 0.2683
vt 0.3426 0.5652
vt 0.3720 0.4233
vt 0.3516 0.4233
vt 0.3239 0.5574
vt 0.2487 0.6718
vt 0.2631 0.6862
vt 0.1420 0.7658
vt 0.1498 0.7845
vt 0.0002 0.8465
vt 0.0002 0.8245
vt 0.0002 0.8025
vt 0.1343 0.7470
vt 0.1400 0.8659
vt 0.0116 0.8659
vt 0.0002 0.8469
vt 0.1343 0.8469
vt 0.2683 0.8469
vt 0.2683 0.8659
vt 0.2683 0.8850
vt 0.1428 0.8850
vt 0.0173 0.8850
vt 0.1400 0.9041
vt 0.0116 0.9041
vt 0.2683 0.9041
vt 0.2683 0.9231
vt 0.1343 0.9231
vt 0.0002 0.9231
vt 0.1420 0.7658
vt 0.1343 0.7470
vt 0.0002 0.8025
vt 0.0002 0.8245
vt 0.7669 0.4307
vt 0.7669 0.2772
vt 0.7872 0.2687
vt 0.7872 0.4307
vt 0.7872 0.5926
vt 0.7669 0.5842
vt 0.7466 0.5758
vt 0.7466 0.4307
vt 0.7466 0.2856
vt 0.3967 0.8659
vt 0.4024 0.8469
vt 0.5365 0.8469
vt 0.5251 0.8659
vt 0.5194 0.8850
vt 0.3939 0.8850
vt 0.3967 0.9041
vt 0.5251 0.9041
vt 0.5365 0.9231
vt 0.4024 0.9231
vt 0.7669 0.4307
vt 0.7669 0.2772
vt 0.7466 0.2856
vt 0.7466 0.4307
vt 0.7466 0.5758
vt 0.7669 0.5842
vt 0.5407 0.1291
vt 0.4322 0.0205
vt 0.4406 0.0002
vt 0.5551 0.1147
vt 0.6409 0.2411
vt 0.6221 0.2489
vt 0.6033 0.2566
vt 0.5264 0.1434
vt 0.4237 0.0408
vt 0.1400 0.9426
vt 0.0116 0.9426
vt 0.0002 0.9235
vt 0.1343 0.9235
vt 0.2683 0.9235
vt 0.2683 0.9426
vt 0.2683 0.9617
vt 0.1428 0.9617
vt 0.0173 0.9617
vt 0.1400 0.9807
vt 0.0116 0.9807
vt 0.2683 0.9807
vt 0.2683 0.9998
vt 0.1343 0.9998
vt 0.0002 0.9998
vt 0.5407 0.1291
vt 0.4322 0.0205
vt 0.4237 0.0408
vt 0.5264 0.1434
vt 0.6033 0.2566
vt 0.6221 0.2489
vt 0.6493 0.3911
vt 0.6696 0.3911
vt 0.6409 0.5412
vt 0.6221 0.5334
vt 0.6033 0.5256
vt 0.6290 0.3911
vt 0.3967 0.9426
vt 0.4024 0.9235
vt 0.5365 0.9235
vt 0.5251 0.9426
vt 0.5194 0.9617
vt 0.3939 0.9617
vt 0.3967 0.9807
vt 0.5251 0.9807
vt 0.5365 0.9998
vt 0.4024 0.9998
vt 0.6493 0.3911
vt 0.6290 0.3911
vt 0.6033 0.5256
vt 0.6221 0.5334
vt 0.5407 0.6532
vt 0.5551 0.6676
vt 0.4406 0.7821
vt 0.4322 0.7618
vt 0.4237 0.7415
vt 0.5264 0.6388
vt 0.6890 0.6766
vt 0.6890 0.5482
vt 0.6700 0.5369
vt 0.6700 0.6709
vt 0.6700 0.8050
vt 0.6890 0.8050
vt 0.7081 0.8050
vt 0.7081 0.6795
vt 0.7081 0.5539
vt 0.7272 0.6766
vt 0.7272 0.5482
vt 0.7272 0.8050
vt 0.7462 0.8050
vt 0.7462 0.6709
vt 0.7462 0.5369
vt 0.5407 0.6532
vt 0.5264 0.6388
vt 0.4237 0.7415
vt 0.4322 0.7618
vt 0.1420 0.0809
vt 0.0002 0.0222
vt 0.0002 0.0002
vt 0.1498 0.0622
vt 0.2775 0.1460
vt 0.2631 0.1604
vt 0.2487 0.1748
vt 0.1343 0.0997
vt 0.0002 0.0441
vt 0.7657 0.1286
vt 0.7657 0.0002
vt 0.7466 0.0002
vt 0.7466 0.1343
vt 0.7466 0.2683
vt 0.7657 0.2570
vt 0.7848 0.2513
vt 0.7848 0.1257
vt 0.7848 0.0002
vt 0.8038 0.1286
vt 0.8038 0.0002
vt 0.8038 0.2570
vt 0.8229 0.2683
vt 0.8229 0.1343
vt 0.8229 0.0002
vt 0.1420 0.0809
vt 0.0002 0.0222
vt 0.0002 0.0441
vt 0.1343 0.0997
vt 0.2487 0.1748
vt 0.2631 0.1604
vt 0.3426 0.2815
vt 0.3614 0.2737
vt 0.3239 0.2893
vt 0.6890 0.1400
vt 0.6890 0.0116
vt 0.6700 0.0002
vt 0.6700 0.1343
vt 0.7081 0.1428
vt 0.7081 0.0173
vt 0.7272 0.1400
vt 0.7272 0.0116
vt 0.7462 0.1343
vt 0.7462 0.0002
vt 0.3426 0.2815
vt 0.3239 0.2893
vn 0.9528 0.2742 -0.1305
vn 0.9845 0.0000 -0.1756
vn 0.5836 0.0000 -0.8120
vn 0.5392 0.3827 -0.7502
vn 0.4126 0.7071 -0.5742
vn 0.8619 0.5071 -0.0050
vn 0.8239 0.0209 0.5664
vn 0.8252 0.0095 0.5647
vn 0.8289 0.0000 0.5593
vn 0.1418 -0.2846 0.9481
vn 0.1123 0.0000 0.9937
vn 0.2390 -0.5242 0.8173
vn -0.4126 -0.7071 0.5742
vn -0.5392 -0.3827 0.7502
vn -0.5836 0.0000 0.8120
vn -0.9438 -0.2846 0.1679
vn -0.9776 0.0000 0.2104
vn -0.8509 -0.5242 0.0340
vn -0.7995 0.0209 -0.6003
vn -0.7984 0.0095 -0.6021
vn -0.7944 0.0000 -0.6073
vn -0.1800 0.2742 -0.9446
vn -0.1474 0.0000 -0.9890
vn -0.2700 0.5071 -0.8185
vn 0.7264 0.6620 0.1844
vn 0.2233 0.9239 -0.3107
vn 0.0000 1.0000 0.0000
vn 0.5659 0.7171 0.4067
vn 0.8117 0.0295 0.5833
vn 0.8173 0.0229 0.5757
vn 0.3767 -0.6871 0.6212
vn 0.5449 -0.7414 0.3916
vn 0.0000 -1.0000 0.0000
vn -0.2233 -0.9239 0.3107
vn -0.7089 -0.6871 -0.1590
vn -0.5449 -0.7414 -0.3916
vn -0.8117 0.0295 -0.5833
vn -0.8062 0.0229 -0.5911
vn -0.4064 0.6620 -0.6297
vn -0.5659 0.7171 -0.4067
vn 0.4064 0.6620 0.6297
vn -0.2233 0.9239 0.3107
vn -0.4126 0.7071 0.5742
vn 0.2700 0.5071 0.8185
vn 0.7995 0.0209 0.6003
vn 0.8062 0.0229 0.5911
vn 0.7089 -0.6871 0.1590
vn 0.8509 -0.5242 -0.0340
vn 0.4126 -0.7071 -0.5742
vn 0.2233 -0.9239 -0.3107
vn -0.3767 -0.6871 -0.6212
vn -0.2390 -0.5242 -0.8173
vn -0.8239 0.0209 -0.5664
vn -0.8173 0.0229 -0.5757
vn -0.7264 0.6620 -0.1844
vn -0.8619 0.5071 0.0050
vn 0.1800 0.2742 0.9446
vn -0.5392 0.3827 0.7502
vn 0.1474 0.0000 0.9890
vn 0.7944 0.0000 0.6073
vn 0.7984 0.0095 0.6021
vn 0.9438 -0.2846 -0.1679
vn 0.9776 0.0000 -0.2104
vn 0.5392 -0.3827 -0.7502
vn -0.1418 -0.2846 -0.9481
vn -0.1123 0.0000 -0.9937
vn -0.8289 0.0000 -0.5593
vn -0.8252 0.0095 -0.5647
vn -0.9528 0.2742 0.1305
vn -0.9844 0.0000 0.1756
vn 0.1800 -0.2742 0.9446
vn 0.2700 -0.5071 0.8185
vn 0.7995 -0.0209 0.6003
vn 0.7984 -0.0095 0.6021
vn 0.9438 0.2846 -0.1679
vn 0.8509 0.5242 -0.0340
vn -0.1418 0.2846 -0.9481
vn -0.2390 0.5242 -0.8173
vn -0.8239 -0.0209 -0.5664
vn -0.8252 -0.0095 -0.5647
vn -0.9528 -0.2742 0.1305
vn -0.8619 -0.5071 0.0050
vn 0.4064 -0.6620 0.6297
vn 0.5659 -0.7171 0.4067
vn 0.8117 -0.0295 0.5833
vn 0.8062 -0.0229 0.5911
vn 0.7089 0.6871 0.1590
vn 0.5449 0.7414 0.3916
vn -0.3767 0.6871 -0.6212
vn -0.5449 0.7414 -0.3916
vn -0.8117 -0.0295 -0.5833
vn -0.8173 -0.0229 -0.5757
vn -0.7264 -0.6620 -0.1844
vn -0.5659 -0.7171 -0.4067
vn 0.7264 -0.6620 0.1844
vn 0.8619 -0.5071 -0.0050
vn 0.8239 -0.0209 0.5664
vn 0.8173 -0.0229 0.5757
vn 0.3767 0.6871 0.6212
vn 0.2390 0.5242 0.8173
vn -0.7089 0.6871 -0.1590
vn -0.8509 0.5242 0.0340
vn -0.7995 -0.0209 -0.6003
vn -0.8062 -0.0229 -0.5911
vn -0.4064 -0.6620 -0.6297
vn -0.2700 -0.5071 -0.8185
vn 0.9528 -0.2742 -0.1305
vn 0.8252 -0.0095 0.5647
vn 0.1418 0.2846 0.9481
vn -0.9438 0.2846 0.1679
vn -0.7984 -0.0095 -0.6021
vn -0.1800 -0.2742 -0.9446
s 1
f 1/1/1 85/2/2 97/3/3 56/4/4
f 1/1/1 56/4/4 101/5/5 45/6/6
f 1/1/1 45/6/6 102/7/7 39/8/8
f 1/1/1 39/8/8 98/9/9 85/2/2
f 2/10/10 78/11/11 98/12/9 39/13/8
f 2/10/10 39/13/8 102/14/7 49/15/12
f 2/10/10 49/15/12 103/16/13 72/17/14
f 2/10/10 72/17/14 99/18/15 78/11/11
f 3/19/16 67/20/17 99/18/15 72/17/14
f 3/19/16 72/17/14 103/16/13 59/21/18
f 3/19/16 59/21/18 104/22/19 76/23/20
f 3/19/16 76/23/20 100/24/21 67/20/17
f 4/25/22 56/4/4 97/3/3 66/26/23
f 4/25/22 66/26/23 100/27/21 76/28/20
f 4/25/22 76/28/20 104/29/19 90/30/24
f 4/25/22 90/30/24 101/5/5 56/4/4
f 5/31/25 45/6/6 101/5/5 79/32/26
f 5/31/25 79/32/26 105/33/27 48/34/28
f 5/31/25 48/34/28 106/35/29 75/36/30
f 5/31/25 75/36/30 102/7/7 45/6/6
f 6/37/31 49/38/12 102/39/7 75/40/30
f 6/37/31 75/40/30 106/41/29 87/42/32
f 6/37/31 87/42/32 107/43/33 91/44/34
f 6/37/31 91/44/34 103/45/13 49/38/12
f 7/46/35 59/47/18 103/45/13 91/44/34
f 7/46/35 91/44/34 107/43/33 80/48/36
f 7/46/35 80/48/36 108/49/37 88/50/38
f 7/46/35 88/50/38 104/51/19 59/47/18
f 8/52/39 90/30/24 104/29/19 88/53/38
f 8/52/39 88/53/38 108/54/37 94/55/40
f 8/52/39 94/55/40 105/33/27 79/32/26
f 8/52/39 79/32/26 101/5/5 90/30/24
f 9/56/41 48/57/28 105/58/27 36/59/42
f 9/56/41 36/59/42 109/60/43 93/61/44
f 9/56/41 93/61/44 110/62/45 68/63/46
f 9/56/41 68/63/46 106/64/29 48/57/28
f 10/65/47 87/42/32 106/41/29 68/66/46
f 10/65/47 68/66/46 110/67/45 95/68/48
f 10/65/47 95/68/48 111/69/49 61/70/50
f 10/65/47 61/70/50 107/43/33 87/42/32
f 11/71/51 80/48/36 107/43/33 61/70/50
f 11/71/51 61/70/50 111/69/49 53/72/52
f 11/71/51 53/72/52 112/73/53 55/74/54
f 11/71/51 55/74/54 108/49/37 80/48/36
f 12/75/55 94/76/40 108/77/37 55/78/54
f 12/75/55 55/78/54 112/79/53 42/80/56
f 12/75/55 42/80/56 109/60/43 36/59/42
f 12/75/55 36/59/42 105/58/27 94/76/40
f 13/81/57 93/82/44 109/83/43 96/84/58
f 13/81/57 96/84/58 113/85/15 63/86/59
f 13/81/57 63/86/59 114/87/60 54/88/61
f 13/81/57 54/88/61 110/89/45 93/82/44
f 14/90/62 95/91/48 110/92/45 54/93/61
f 14/90/62 54/93/61 114/94/60 33/95/63
f 14/90/62 33/95/63 115/96/3 52/97/64
f 14/90/62 52/97/64 111/98/49 95/91/48
f 15/99/65 53/100/52 111/98/49 52/97/64
f 15/99/65 52/97/64 115/96/3 70/101/66
f 15/99/65 70/101/66 116/102/67 40/103/68
f 15/99/65 40/103/68 112/104/53 53/100/52
f 16/105/69 42/106/56 112/107/53 40/108/68
f 16/105/69 40/108/68 116/109/67 74/110/70
f 16/105/69 74/110/70 113/85/15 96/84/58
f 16/105/69 96/84/58 109/83/43 42/106/56
f 17/111/71 63/86/59 113/85/15 82/112/14
f 17/111/71 82/112/14 117/113/13 71/114/72
f 17/111/71 71/114/72 118/115/73 83/116/74
f 17/111/71 83/116/74 114/87/60 63/86/59
f 18/117/75 33/95/63 114/94/60 83/118/74
f 18/117/75 83/118/74 118/119/73 37/120/76
f 18/117/75 37/120/76 119/121/5 69/122/4
f 18/117/75 69/122/4 115/96/3 33/95/63
f 19/123/77 70/101/66 115/96/3 69/122/4
f 19/123/77 69/122/4 119/121/5 92/124/78
f 19/123/77 92/124/78 120/125/79 44/126/80
f 19/123/77 44/126/80 116/102/67 70/101/66
f 20/127/81 74/110/70 116/109/67 44/128/80
f 20/127/81 44/128/80 120/129/79 46/130/82
f 20/127/81 46/130/82 117/113/13 82/112/14
f 20/127/81 82/112/14 113/85/15 74/110/70
f 21/131/83 71/114/72 117/113/13 38/132/34
f 21/131/83 38/132/34 121/133/33 81/134/84
f 21/131/83 81/134/84 122/135/85 62/136/86
f 21/131/83 62/136/86 118/115/73 71/114/72
f 22/137/87 37/138/76 118/139/73 62/140/86
f 22/137/87 62/140/86 122/141/85 50/142/88
f 22/137/87 50/142/88 123/143/27 57/144/26
f 22/137/87 57/144/26 119/145/5 37/138/76
f 23/146/89 92/147/78 119/145/5 57/144/26
f 23/146/89 57/144/26 123/143/27 86/148/90
f 23/146/89 86/148/90 124/149/91 51/150/92
f 23/146/89 51/150/92 120/151/79 92/147/78
f 24/152/93 46/130/82 120/129/79 51/153/92
f 24/152/93 51/153/92 124/154/91 60/155/94
f 24/152/93 60/155/94 121/133/33 38/132/34
f 24/152/93 38/132/34 117/113/13 46/130/82
f 25/156/95 81/157/84 121/158/33 65/159/50
f 25/156/95 65/159/50 125/160/49 84/161/96
f 25/156/95 84/161/96 126/162/97 35/163/98
f 25/156/95 35/163/98 122/164/85 81/157/84
f 26/165/99 50/166/88 122/167/85 35/168/98
f 26/165/99 35/168/98 126/169/97 89/170/100
f 26/165/99 89/170/100 127/171/43 47/172/42
f 26/165/99 47/172/42 123/173/27 50/166/88
f 27/174/101 86/175/90 123/173/27 47/172/42
f 27/174/101 47/172/42 127/171/43 77/176/102
f 27/174/101 77/176/102 128/177/103 58/178/104
f 27/174/101 58/178/104 124/179/91 86/175/90
f 28/180/105 60/181/94 124/182/91 58/183/104
f 28/180/105 58/183/104 128/184/103 34/185/106
f 28/180/105 34/185/106 125/160/49 65/159/50
f 28/180/105 65/159/50 121/158/33 60/181/94
f 29/186/107 84/161/96 125/160/49 64/187/64
f 29/186/107 64/187/64 97/3/3 85/2/2
f 29/186/107 85/2/2 98/9/9 43/188/108
f 29/186/107 43/188/108 126/162/97 84/161/96
f 30/189/109 89/190/100 126/191/97 43/192/108
f 30/189/109 43/192/108 98/12/9 78/11/11
f 30/189/109 78/11/11 99/18/15 41/193/58
f 30/189/109 41/193/58 127/194/43 89/190/100
f 31/195/110 77/196/102 127/194/43 41/193/58
f 31/195/110 41/193/58 99/18/15 67/20/17
f 31/195/110 67/20/17 100/24/21 73/197/111
f 31/195/110 73/197/111 128/198/103 77/196/102
f 32/199/112 34/185/106 128/184/103 73/200/111
f 32/199/112 73/200/111 100/27/21 66/26/23
f 32/199/112 66/26/23 97/3/3 64/187/64
f 32/199/112 64/187/64 125/160/49 34/185/106
