# Blender v2.77 (sub 0) OBJ File: 'still_blendswap1.blend'
# www.blender.org
o Cylinder.019
v -0.108761 5.350094 4.710462
v -0.118949 5.385138 4.720387
v -0.101556 5.419263 4.722625
v -0.066772 5.432481 4.715863
v -0.034975 5.417048 4.704063
v -0.024790 5.382006 4.694139
v -0.076964 5.334661 4.698662
v -0.042183 5.347880 4.691901
v -0.040902 5.337415 4.905439
v -0.026885 5.364915 4.907242
v -0.032370 5.309072 4.896500
v 0.001467 5.375465 4.900853
v 0.027548 5.362883 4.890014
v 0.036079 5.334540 4.881075
v 0.022063 5.307039 4.879272
v -0.006290 5.296490 4.885661
v 0.006488 5.329549 4.922133
v -0.312433 5.555826 3.386592
v -0.298135 5.522694 3.723096
v -0.268743 5.482039 4.057003
v -0.207569 5.425407 4.387533
v -0.313386 5.577769 3.389322
v -0.301545 5.548045 3.726757
v -0.274619 5.510790 4.061784
v -0.215832 5.457454 4.394403
v -0.301048 5.601977 3.390909
v -0.287943 5.574732 3.728507
v -0.259754 5.539957 4.063696
v -0.199703 5.489100 4.396477
v -0.282647 5.614268 3.390423
v -0.265299 5.587122 3.727319
v -0.232856 5.552454 4.061620
v -0.168630 5.501808 4.392541
v -0.268953 5.607438 3.388147
v -0.246866 5.577952 3.723889
v -0.209678 5.540958 4.056770
v -0.140820 5.488135 4.384901
v -0.267984 5.585485 3.385414
v -0.243443 5.552595 3.720225
v -0.203789 5.512201 4.051987
v -0.132553 5.456086 4.378030
v -0.298739 5.548995 3.384316
v -0.279703 5.513524 3.719665
v -0.245566 5.470544 4.052154
v -0.179759 5.411735 4.379892
v -0.280322 5.561278 3.383827
v -0.257045 5.525908 3.718476
v -0.218654 5.483034 4.050075
v -0.148682 5.424440 4.375955
v -0.318630 5.571908 3.218306
v -0.060202 5.318695 4.836016
v -0.094663 5.338844 4.704330
v -0.314816 5.565525 3.388008
v -0.318349 5.592143 3.220622
v -0.070367 5.352766 4.846480
v -0.308634 5.590580 3.390351
v -0.306643 5.615110 3.222127
v -0.053502 5.385855 4.848649
v -0.291947 5.610395 3.390949
v -0.290370 5.627357 3.221941
v -0.019487 5.398580 4.841253
v -0.274524 5.613360 3.389450
v -0.279055 5.621707 3.220172
v 0.011752 5.383486 4.828625
v -0.266563 5.597734 3.386730
v -0.279321 5.601466 3.217854
v 0.021916 5.349415 4.818161
v -0.272732 5.572673 3.384384
v -0.291027 5.578498 3.216349
v 0.005052 5.316326 4.815992
v -0.289432 5.552864 3.383789
v -0.307315 5.566257 3.216537
v -0.028962 5.303601 4.823387
v -0.013922 5.314824 4.916883
v -0.019101 5.332028 4.922309
v -0.010593 5.348722 4.923403
v 0.006617 5.355125 4.919525
v 0.022449 5.347488 4.912946
v 0.027627 5.330284 4.907520
v 0.019119 5.313591 4.906425
v 0.001909 5.307187 4.910304
v -0.039572 5.322151 4.901631
v -0.036594 5.352468 4.907463
v -0.013592 5.373125 4.904973
v -0.020781 5.299933 4.890894
v 0.015959 5.372022 4.895620
v 0.034750 5.349804 4.884883
v 0.031772 5.319487 4.879051
v 0.008770 5.298830 4.881541
v -0.306865 5.549904 3.385290
v -0.290329 5.515346 3.721200
v -0.258695 5.473272 4.054381
v -0.195334 5.415294 4.383498
v -0.117457 5.366247 4.716125
v -0.214917 5.440114 4.391375
v -0.274466 5.495120 4.059608
v -0.302186 5.534086 3.725049
v -0.113546 5.403799 4.722728
v -0.210648 5.474694 4.396231
v -0.269587 5.526564 4.063242
v -0.296651 5.562337 3.727987
v -0.085219 5.429501 4.720272
v -0.185021 5.498772 4.395221
v -0.246913 5.549182 4.063153
v -0.276975 5.583552 3.728292
v -0.049072 5.428298 4.710195
v -0.153055 5.498249 4.388937
v -0.219728 5.549727 4.059393
v -0.254676 5.585302 3.725786
v -0.026281 5.400896 4.698401
v -0.133471 5.473428 4.381058
v -0.203949 5.527874 4.054164
v -0.242809 5.566556 3.721934
v -0.030194 5.363346 4.691798
v -0.137734 5.438846 4.376200
v -0.208816 5.496425 4.050528
v -0.248333 5.538301 3.718995
v -0.058519 5.337642 4.694254
v -0.163367 5.414770 4.377213
v -0.231503 5.473813 4.050620
v -0.268020 5.517090 3.718691
v -0.305760 5.539501 3.554861
v -0.286737 5.504005 3.890682
v -0.242804 5.456078 4.222480
v -0.162925 5.390066 4.550685
v -0.307945 5.563152 3.558031
v -0.291374 5.531055 3.894881
v -0.249899 5.486505 4.228085
v -0.172240 5.423658 4.559062
v -0.294975 5.588599 3.559700
v -0.277140 5.558982 3.896712
v -0.234402 5.516911 4.230079
v -0.155479 5.456544 4.561218
v -0.274449 5.600936 3.558888
v -0.252375 5.571427 3.895102
v -0.205391 5.529486 4.227293
v -0.122461 5.469460 4.555890
v -0.258380 5.592931 3.556070
v -0.231577 5.561096 3.890993
v -0.179862 5.516863 4.221361
v -0.092532 5.454841 4.546200
v -0.256180 5.569273 3.552896
v -0.226928 5.534041 3.886791
v -0.172754 5.486431 4.215753
v -0.083220 5.421250 4.537823
v -0.289691 5.531496 3.552042
v -0.265939 5.493675 3.886573
v -0.217275 5.443456 4.216548
v -0.132996 5.375447 4.540995
v -0.269150 5.543826 3.551228
v -0.241161 5.506114 3.884961
v -0.188251 5.456024 4.213759
v -0.099981 5.388364 4.535667
v -0.314186 5.566705 3.217266
v -0.046328 5.307721 4.829477
v -0.320175 5.580758 3.219483
v -0.068807 5.334413 4.842014
v -0.313666 5.604211 3.221558
v -0.065170 5.370873 4.848872
v -0.298478 5.623330 3.222274
v -0.037547 5.395745 4.846035
v -0.283501 5.626911 3.221213
v -0.002121 5.394459 4.835164
v -0.277504 5.612855 3.218994
v 0.020356 5.367768 4.822627
v -0.283999 5.589395 3.216918
v 0.016719 5.331308 4.815769
v -0.299201 5.570283 3.216203
v -0.010903 5.306436 4.818606
v -0.011001 5.305852 4.907558
v -0.024844 5.322220 4.915469
v -0.022650 5.344555 4.919765
v -0.005705 5.359773 4.917931
v 0.016066 5.358960 4.911040
v 0.029910 5.342592 4.903131
v 0.027716 5.320257 4.898834
v 0.010770 5.305039 4.900668
v -0.299071 5.532865 3.553279
v -0.277813 5.495949 3.888438
v -0.231645 5.446619 4.219308
v -0.149696 5.379351 4.545616
v -0.171001 5.405525 4.555425
v -0.249355 5.469989 4.225571
v -0.291620 5.516242 3.892948
v -0.308979 5.550049 3.556530
v -0.166960 5.441616 4.561143
v -0.244796 5.503016 4.229696
v -0.286410 5.546088 3.896221
v -0.303122 5.576704 3.559157
v -0.139934 5.466480 4.559421
v -0.220630 5.526349 4.229266
v -0.265238 5.568006 3.896342
v -0.284939 5.597218 3.559623
v -0.105760 5.465556 4.551268
v -0.191022 5.526323 4.224534
v -0.240503 5.569154 3.893237
v -0.265073 5.599570 3.557652
v -0.084458 5.439384 4.541460
v -0.173307 5.502951 4.218269
v -0.226688 5.548857 3.888726
v -0.255154 5.582379 3.554399
v -0.088501 5.403294 4.535742
v -0.177853 5.469917 4.214140
v -0.231888 5.519006 3.885450
v -0.260999 5.555719 3.551770
v -0.115525 5.378428 4.537463
v -0.202031 5.446590 4.214574
v -0.253070 5.497093 3.885332
v -0.279194 5.535212 3.551307
vt 0.5919 0.5625
vt 0.5592 0.5625
vt 0.5592 0.5000
vt 0.5919 0.5000
vt 0.6163 0.5000
vt 0.6163 0.5625
vt 0.6163 0.6250
vt 0.5919 0.6250
vt 0.5592 0.6250
vt 0.5919 0.6875
vt 0.5592 0.6875
vt 0.6163 0.6875
vt 0.6163 0.7500
vt 0.5919 0.7500
vt 0.5592 0.7500
vt 0.5919 0.8125
vt 0.5592 0.8125
vt 0.6163 0.8125
vt 0.6163 0.8750
vt 0.5919 0.8750
vt 0.5592 0.8750
vt 0.5919 0.9375
vt 0.5592 0.9375
vt 0.6163 0.9375
vt 0.6163 0.9999
vt 0.5919 0.9999
vt 0.5592 0.9999
vt 0.5919 0.0626
vt 0.5592 0.0626
vt 0.5592 0.0001
vt 0.5919 0.0001
vt 0.6163 0.0001
vt 0.6163 0.0626
vt 0.6163 0.1250
vt 0.5919 0.1250
vt 0.5592 0.1250
vt 0.5919 0.1875
vt 0.5592 0.1875
vt 0.6163 0.1875
vt 0.6163 0.2500
vt 0.5919 0.2500
vt 0.5592 0.2500
vt 0.5919 0.4375
vt 0.5592 0.4375
vt 0.5592 0.3750
vt 0.5919 0.3750
vt 0.6163 0.3750
vt 0.6163 0.4375
vt 0.5919 0.3125
vt 0.5592 0.3125
vt 0.6163 0.3125
vt 0.6245 0.6875
vt 0.6245 0.7500
vt 0.6245 0.6250
vt 0.6245 0.6250
vt 0.6245 0.6875
vt 0.6245 0.7500
vt 0.6245 0.8125
vt 0.6245 0.8750
vt 0.6245 0.8125
vt 0.6245 0.8750
vt 0.6245 0.5625
vt 0.6245 0.5000
vt 0.6245 0.5000
vt 0.6245 0.5625
vt 0.6245 0.9375
vt 0.6245 0.9999
vt 0.6245 0.9375
vt 0.6245 0.9999
vt 0.6245 0.0626
vt 0.6245 0.1250
vt 0.6245 0.0001
vt 0.6245 0.0001
vt 0.6245 0.0626
vt 0.6245 0.1250
vt 0.6245 0.1875
vt 0.6245 0.2500
vt 0.6245 0.1875
vt 0.6245 0.2500
vt 0.6245 0.3125
vt 0.6245 0.3750
vt 0.6245 0.3125
vt 0.6245 0.3750
vt 0.6245 0.4375
vt 0.6245 0.4375
vt 0.6245 0.4375
vt 0.6245 0.6875
vt 0.6245 0.6250
vt 0.6245 0.5625
vt 0.6245 0.5000
vt 0.6245 0.4375
vt 0.6245 0.3750
vt 0.6245 0.3125
vt 0.6245 0.2500
vt 0.6245 0.1875
vt 0.6245 0.1250
vt 0.6245 0.0626
vt 0.6245 0.0001
vt 0.6245 0.4375
vt 0.6245 0.8750
vt 0.6245 0.8125
vt 0.6245 0.7500
vt 0.3306 0.5625
vt 0.2979 0.5625
vt 0.2979 0.5000
vt 0.3306 0.5000
vt 0.3632 0.5000
vt 0.3632 0.5625
vt 0.3632 0.6250
vt 0.3306 0.6250
vt 0.2979 0.6250
vt 0.3959 0.5625
vt 0.3959 0.5000
vt 0.4286 0.5000
vt 0.4286 0.5625
vt 0.4286 0.6250
vt 0.3959 0.6250
vt 0.4612 0.5625
vt 0.4612 0.5000
vt 0.4939 0.5000
vt 0.4939 0.5625
vt 0.4939 0.6250
vt 0.4612 0.6250
vt 0.5265 0.5625
vt 0.5265 0.5000
vt 0.5265 0.6250
vt 0.3306 0.6875
vt 0.2979 0.6875
vt 0.3632 0.6875
vt 0.3632 0.7500
vt 0.3306 0.7500
vt 0.2979 0.7500
vt 0.3959 0.6875
vt 0.4286 0.6875
vt 0.4286 0.7500
vt 0.3959 0.7500
vt 0.4612 0.6875
vt 0.4939 0.6875
vt 0.4939 0.7500
vt 0.4612 0.7500
vt 0.5265 0.6875
vt 0.5265 0.7500
vt 0.3306 0.8125
vt 0.2979 0.8125
vt 0.3632 0.8125
vt 0.3632 0.8750
vt 0.3306 0.8750
vt 0.2979 0.8750
vt 0.3959 0.8125
vt 0.4285 0.8125
vt 0.4285 0.8750
vt 0.3959 0.8750
vt 0.4612 0.8125
vt 0.4939 0.8125
vt 0.4939 0.8750
vt 0.4612 0.8750
vt 0.5265 0.8125
vt 0.5265 0.8750
vt 0.3306 0.9375
vt 0.2979 0.9375
vt 0.3632 0.9375
vt 0.3632 0.9999
vt 0.3306 0.9999
vt 0.2979 0.9999
vt 0.3959 0.9375
vt 0.4286 0.9375
vt 0.4286 0.9999
vt 0.3959 0.9999
vt 0.4612 0.9375
vt 0.4939 0.9375
vt 0.4939 0.9999
vt 0.4612 0.9999
vt 0.5265 0.9375
vt 0.5265 0.9999
vt 0.3306 0.0626
vt 0.2979 0.0625
vt 0.2979 0.0001
vt 0.3306 0.0001
vt 0.3632 0.0001
vt 0.3632 0.0626
vt 0.3632 0.1250
vt 0.3306 0.1250
vt 0.2979 0.1250
vt 0.3959 0.0626
vt 0.3959 0.0001
vt 0.4286 0.0001
vt 0.4286 0.0626
vt 0.4286 0.1250
vt 0.3959 0.1250
vt 0.4612 0.0626
vt 0.4612 0.0001
vt 0.4939 0.0001
vt 0.4939 0.0626
vt 0.4939 0.1250
vt 0.4612 0.1250
vt 0.5265 0.0626
vt 0.5265 0.0001
vt 0.5265 0.1250
vt 0.3306 0.1875
vt 0.2979 0.1875
vt 0.3632 0.1875
vt 0.3632 0.2500
vt 0.3306 0.2500
vt 0.2979 0.2500
vt 0.3959 0.1875
vt 0.4286 0.1875
vt 0.4286 0.2500
vt 0.3959 0.2500
vt 0.4612 0.1875
vt 0.4939 0.1875
vt 0.4939 0.2500
vt 0.4612 0.2500
vt 0.5265 0.1875
vt 0.5265 0.2500
vt 0.3306 0.4375
vt 0.2979 0.4375
vt 0.2979 0.3750
vt 0.3306 0.3750
vt 0.3632 0.3750
vt 0.3632 0.4375
vt 0.3959 0.4375
vt 0.3959 0.3750
vt 0.4286 0.3750
vt 0.4286 0.4375
vt 0.4612 0.4375
vt 0.4612 0.3750
vt 0.4939 0.3750
vt 0.4939 0.4375
vt 0.5265 0.4375
vt 0.5265 0.3750
vt 0.3306 0.3125
vt 0.2979 0.3125
vt 0.3632 0.3125
vt 0.3959 0.3125
vt 0.4286 0.3125
vt 0.4612 0.3125
vt 0.4939 0.3125
vt 0.5265 0.3125
vn -0.7432 -0.6608 0.1040
vn -0.7594 -0.6455 0.0815
vn -0.4592 -0.8858 -0.0671
vn -0.4545 -0.8889 -0.0576
vn -0.4321 -0.9018 0.0033
vn -0.7154 -0.6794 0.1628
vn -0.8834 -0.3565 0.3040
vn -0.9108 -0.3326 0.2446
vn -0.9282 -0.3082 0.2082
vn -0.9379 0.0380 0.3447
vn -0.9531 0.0602 0.2966
vn -0.9135 0.0153 0.4066
vn -0.8039 0.3797 0.4576
vn -0.8291 0.3967 0.3940
vn -0.8465 0.4091 0.3407
vn -0.6013 0.6984 0.3880
vn -0.6256 0.7027 0.3387
vn -0.5719 0.6855 0.4505
vn -0.2489 0.8884 0.3856
vn -0.2812 0.9027 0.3256
vn -0.3092 0.9064 0.2879
vn 0.0896 0.9733 0.2112
vn 0.0689 0.9797 0.1881
vn 0.1179 0.9556 0.2700
vn 0.4725 0.8732 0.1197
vn 0.4521 0.8900 0.0589
vn 0.4473 0.8930 0.0495
vn 0.7410 0.6631 -0.1054
vn 0.7491 0.6545 -0.1025
vn 0.7564 0.6528 -0.0419
vn 0.9249 0.3305 -0.1879
vn 0.9073 0.3363 -0.2522
vn 0.9178 0.3187 -0.2369
vn 0.9330 -0.0338 -0.3584
vn 0.9417 -0.0502 -0.3326
vn 0.9544 -0.0414 -0.2957
vn 0.8441 -0.4074 -0.3486
vn 0.8231 -0.3926 -0.4101
vn 0.8340 -0.4002 -0.3798
vn -0.0927 -0.9727 -0.2127
vn -0.0811 -0.9745 -0.2093
vn 0.2961 -0.9011 -0.3169
vn 0.2766 -0.9013 -0.3334
vn 0.2882 -0.9188 -0.2698
vn -0.0786 -0.9856 -0.1493
vn 0.5957 -0.6955 -0.4018
vn 0.6128 -0.6956 -0.3750
vn 0.6112 -0.7148 -0.3398
vn -0.7895 -0.0404 0.6124
vn -0.6845 0.3055 0.6619
vn -0.7562 -0.3934 0.5229
vn -0.4928 -0.3931 0.7762
vn -0.3070 -0.1506 0.9397
vn -0.4379 0.1653 0.8837
vn -0.4648 0.5966 0.6542
vn -0.1557 0.7846 0.6001
vn -0.1090 0.2377 0.9652
vn -0.0143 0.5458 0.8378
vn -0.5966 -0.6981 0.3957
vn -0.3265 -0.9086 0.2603
vn -0.1467 -0.8024 0.5784
vn -0.1865 -0.5509 0.8135
vn 0.1906 0.8465 0.4970
vn 0.5266 0.7653 0.3701
vn 0.2913 0.3867 0.8749
vn 0.5300 0.5254 0.6655
vn 0.7971 0.5592 0.2279
vn 0.9619 0.2531 0.1036
vn 0.6597 0.2091 0.7219
vn 0.8762 0.1162 0.4678
vn 0.9949 -0.1007 0.0052
vn 0.8913 -0.4516 -0.0399
vn 0.7801 -0.1912 0.5956
vn 0.8213 -0.4422 0.3603
vn 0.6670 -0.7442 -0.0370
vn 0.3570 -0.9337 0.0258
vn 0.5822 -0.5795 0.5702
vn 0.3976 -0.8227 0.4062
vn 0.0065 -0.9920 0.1262
vn 0.1818 -0.7285 0.6604
vn 0.2880 -0.2081 0.9347
vn -0.8804 -0.4740 -0.0125
vn -0.8888 -0.4582 -0.0114
vn -0.4432 -0.8936 -0.0711
vn -0.4555 -0.8875 -0.0699
vn -0.4557 -0.8874 -0.0698
vn -0.8583 -0.5129 -0.0145
vn -0.9935 -0.1108 0.0270
vn -0.9975 -0.0645 0.0274
vn -0.9987 -0.0418 0.0282
vn -0.8396 -0.5431 -0.0104
vn -0.4571 -0.8867 -0.0696
vn -0.4583 -0.8861 -0.0692
vn -0.8225 -0.5687 0.0024
vn -0.9806 -0.1867 0.0594
vn -0.9879 -0.1506 0.0358
vn -0.8061 -0.5914 0.0206
vn -0.4586 -0.8860 -0.0687
vn -0.4589 -0.8859 -0.0681
vn -0.7902 -0.6115 0.0409
vn -0.9590 -0.2517 0.1300
vn -0.9710 -0.2204 0.0925
vn -0.7745 -0.6296 0.0614
vn -0.4590 -0.8859 -0.0676
vn -0.9446 -0.2812 0.1691
vn -0.9720 0.2293 0.0501
vn -0.9690 0.2419 0.0496
vn -0.9775 0.2040 0.0527
vn -0.8906 0.4493 0.0698
vn -0.8908 0.4497 0.0650
vn -0.8908 0.4498 0.0635
vn -0.9814 0.1804 0.0659
vn -0.9828 0.1569 0.0968
vn -0.8877 0.4446 0.1197
vn -0.8900 0.4480 0.0854
vn -0.9811 0.1330 0.1401
vn -0.9757 0.1088 0.1899
vn -0.8745 0.4311 0.2221
vn -0.8828 0.4389 0.1673
vn -0.9664 0.0844 0.2428
vn -0.8624 0.4211 0.2807
vn -0.7601 0.6452 0.0774
vn -0.7684 0.6354 0.0754
vn -0.7431 0.6641 0.0829
vn -0.4972 0.8628 0.0908
vn -0.5370 0.8391 0.0866
vn -0.5560 0.8267 0.0851
vn -0.7270 0.6795 0.0986
vn -0.7105 0.6912 0.1319
vn -0.4301 0.8933 0.1302
vn -0.4624 0.8806 0.1035
vn -0.6926 0.6992 0.1773
vn -0.6725 0.7038 0.2289
vn -0.3688 0.9064 0.2060
vn -0.3991 0.9017 0.1661
vn -0.6501 0.7050 0.2835
vn -0.3385 0.9079 0.2471
vn -0.1357 0.9872 0.0833
vn -0.1534 0.9846 0.0831
vn -0.0912 0.9922 0.0841
vn 0.4509 0.8913 0.0468
vn 0.4511 0.8913 0.0467
vn 0.4633 0.8850 0.0454
vn -0.0560 0.9943 0.0903
vn -0.0260 0.9941 0.1049
vn 0.4483 0.8926 0.0474
vn 0.4494 0.8921 0.0470
vn 0.0010 0.9922 0.1245
vn 0.0255 0.9890 0.1458
vn 0.4476 0.8929 0.0485
vn 0.4480 0.8928 0.0479
vn 0.0483 0.9847 0.1672
vn 0.4476 0.8929 0.0490
vn 0.8781 0.4782 -0.0135
vn 0.8932 0.4493 -0.0160
vn 0.8556 0.5176 -0.0112
vn 0.9915 0.1155 -0.0593
vn 0.9958 0.0687 -0.0599
vn 0.9973 0.0407 -0.0612
vn 0.8351 0.5498 -0.0148
vn 0.8162 0.5771 -0.0272
vn 0.9766 0.1946 -0.0913
vn 0.9853 0.1568 -0.0679
vn 0.7986 0.6001 -0.0447
vn 0.7815 0.6205 -0.0640
vn 0.9516 0.2615 -0.1612
vn 0.9654 0.2293 -0.1241
vn 0.7650 0.6385 -0.0836
vn 0.9355 0.2914 -0.1996
vn 0.9704 -0.2249 -0.0882
vn 0.9670 -0.2390 -0.0877
vn 0.9757 -0.1994 -0.0906
vn 0.8884 -0.4456 -0.1100
vn 0.8888 -0.4461 -0.1053
vn 0.8889 -0.4462 -0.1037
vn 0.9790 -0.1752 -0.1038
vn 0.9793 -0.1505 -0.1349
vn 0.8836 -0.4398 -0.1603
vn 0.8872 -0.4439 -0.1256
vn 0.9759 -0.1256 -0.1784
vn 0.9684 -0.1003 -0.2284
vn 0.8663 -0.4242 -0.2636
vn 0.8769 -0.4332 -0.2083
vn 0.9568 -0.0750 -0.2808
vn 0.8519 -0.4131 -0.3219
vn 0.1323 -0.9851 -0.1094
vn 0.1646 -0.9802 -0.1097
vn 0.5578 -0.8216 -0.1177
vn 0.5343 -0.8368 -0.1193
vn 0.4940 -0.8607 -0.1233
vn 0.0871 -0.9901 -0.1100
vn 0.0493 -0.9920 -0.1159
vn 0.4575 -0.8787 -0.1358
vn 0.4231 -0.8914 -0.1625
vn 0.0168 -0.9913 -0.1300
vn -0.0112 -0.9888 -0.1489
vn 0.3903 -0.8991 -0.1981
vn 0.3581 -0.9029 -0.2376
vn -0.0366 -0.9849 -0.1693
vn -0.0599 -0.9800 -0.1897
vn 0.3265 -0.9034 -0.2779
vn 0.7576 -0.6424 -0.1155
vn 0.7669 -0.6316 -0.1135
vn 0.7403 -0.6612 -0.1209
vn 0.7234 -0.6767 -0.1367
vn 0.7054 -0.6881 -0.1701
vn 0.6855 -0.6953 -0.2158
vn 0.6633 -0.6988 -0.2676
vn 0.6389 -0.6988 -0.3217
s 1
f 1/1/1 125/2/2 181/3/3 52/4/4
f 1/1/1 52/4/4 155/5/5 51/6/6
f 1/1/1 51/6/6 157/7/7 94/8/8
f 1/1/1 94/8/8 182/9/9 125/2/2
f 2/10/10 129/11/11 182/9/9 94/8/8
f 2/10/10 94/8/8 157/7/7 55/12/12
f 2/10/10 55/12/12 159/13/13 98/14/14
f 2/10/10 98/14/14 186/15/15 129/11/11
f 3/16/16 133/17/17 186/15/15 98/14/14
f 3/16/16 98/14/14 159/13/13 58/18/18
f 3/16/16 58/18/18 161/19/19 102/20/20
f 3/16/16 102/20/20 190/21/21 133/17/17
f 4/22/22 137/23/23 190/21/21 102/20/20
f 4/22/22 102/20/20 161/19/19 61/24/24
f 4/22/22 61/24/24 163/25/25 106/26/26
f 4/22/22 106/26/26 194/27/27 137/23/23
f 5/28/28 141/29/29 194/30/27 106/31/26
f 5/28/28 106/31/26 163/32/25 64/33/30
f 5/28/28 64/33/30 165/34/31 110/35/32
f 5/28/28 110/35/32 198/36/33 141/29/29
f 6/37/34 145/38/35 198/36/33 110/35/32
f 6/37/34 110/35/32 165/34/31 67/39/36
f 6/37/34 67/39/36 167/40/37 114/41/38
f 6/37/34 114/41/38 202/42/39 145/38/35
f 7/43/40 149/44/41 206/45/42 118/46/43
f 7/43/40 118/46/43 169/47/44 73/48/45
f 7/43/40 73/48/45 155/5/5 52/4/4
f 7/43/40 52/4/4 181/3/3 149/44/41
f 8/49/46 153/50/47 202/42/39 114/41/38
f 8/49/46 114/41/38 167/40/37 70/51/48
f 8/49/46 70/51/48 169/47/44 118/46/43
f 8/49/46 118/46/43 206/45/42 153/50/47
f 9/52/49 83/53/50 159/13/13 55/12/12
f 9/52/49 55/12/12 157/7/7 82/54/51
f 9/52/49 82/54/51 171/55/52 75/56/53
f 9/52/49 75/56/53 172/57/54 83/53/50
f 10/58/55 84/59/56 161/19/19 58/18/18
f 10/58/55 58/18/18 159/13/13 83/53/50
f 10/58/55 83/53/50 172/57/54 76/60/57
f 10/58/55 76/60/57 173/61/58 84/59/56
f 11/62/59 82/54/51 157/7/7 51/6/6
f 11/62/59 51/6/6 155/5/5 85/63/60
f 11/62/59 85/63/60 170/64/61 74/65/62
f 11/62/59 74/65/62 171/55/52 82/54/51
f 12/66/63 86/67/64 163/25/25 61/24/24
f 12/66/63 61/24/24 161/19/19 84/59/56
f 12/66/63 84/59/56 173/61/58 77/68/65
f 12/66/63 77/68/65 174/69/66 86/67/64
f 13/70/67 87/71/68 165/34/31 64/33/30
f 13/70/67 64/33/30 163/32/25 86/72/64
f 13/70/67 86/72/64 174/73/66 78/74/69
f 13/70/67 78/74/69 175/75/70 87/71/68
f 14/76/71 88/77/72 167/40/37 67/39/36
f 14/76/71 67/39/36 165/34/31 87/71/68
f 14/76/71 87/71/68 175/75/70 79/78/73
f 14/76/71 79/78/73 176/79/74 88/77/72
f 15/80/75 89/81/76 169/47/44 70/51/48
f 15/80/75 70/51/48 167/40/37 88/77/72
f 15/80/75 88/77/72 176/79/74 80/82/77
f 15/80/75 80/82/77 177/83/78 89/81/76
f 16/84/79 85/63/60 155/5/5 73/48/45
f 16/84/79 73/48/45 169/47/44 89/81/76
f 16/84/79 89/81/76 177/83/78 81/85/80
f 16/84/79 81/85/80 170/64/61 85/63/60
f 17/86/81 76/87/57 172/88/54 75/89/53
f 17/86/81 75/89/53 171/90/52 74/91/62
f 17/86/81 74/91/62 170/92/61 81/93/80
f 17/86/81 81/93/80 177/94/78 80/95/77
f 17/86/81 80/95/77 176/96/74 79/97/73
f 17/86/81 79/97/73 175/98/70 78/99/69
f 17/86/81 78/99/69 174/100/66 77/101/65
f 17/86/81 77/101/65 173/102/58 76/87/57
f 18/103/82 50/104/83 154/105/84 90/106/85
f 18/103/82 90/106/85 178/107/86 122/108/87
f 18/103/82 122/108/87 185/109/88 53/110/89
f 18/103/82 53/110/89 156/111/90 50/104/83
f 19/112/91 122/108/87 178/107/86 91/113/92
f 19/112/91 91/113/92 179/114/93 123/115/94
f 19/112/91 123/115/94 184/116/95 97/117/96
f 19/112/91 97/117/96 185/109/88 122/108/87
f 20/118/97 123/115/94 179/114/93 92/119/98
f 20/118/97 92/119/98 180/120/99 124/121/100
f 20/118/97 124/121/100 183/122/101 96/123/102
f 20/118/97 96/123/102 184/116/95 123/115/94
f 21/124/103 124/121/100 180/120/99 93/125/104
f 21/124/103 93/125/104 181/3/3 125/2/2
f 21/124/103 125/2/2 182/9/9 95/126/105
f 21/124/103 95/126/105 183/122/101 124/121/100
f 22/127/106 54/128/107 156/111/90 53/110/89
f 22/127/106 53/110/89 185/109/88 126/129/108
f 22/127/106 126/129/108 189/130/109 56/131/110
f 22/127/106 56/131/110 158/132/111 54/128/107
f 23/133/112 126/129/108 185/109/88 97/117/96
f 23/133/112 97/117/96 184/116/95 127/134/113
f 23/133/112 127/134/113 188/135/114 101/136/115
f 23/133/112 101/136/115 189/130/109 126/129/108
f 24/137/116 127/134/113 184/116/95 96/123/102
f 24/137/116 96/123/102 183/122/101 128/138/117
f 24/137/116 128/138/117 187/139/118 100/140/119
f 24/137/116 100/140/119 188/135/114 127/134/113
f 25/141/120 128/138/117 183/122/101 95/126/105
f 25/141/120 95/126/105 182/9/9 129/11/11
f 25/141/120 129/11/11 186/15/15 99/142/121
f 25/141/120 99/142/121 187/139/118 128/138/117
f 26/143/122 57/144/123 158/132/111 56/131/110
f 26/143/122 56/131/110 189/130/109 130/145/124
f 26/143/122 130/145/124 193/146/125 59/147/126
f 26/143/122 59/147/126 160/148/127 57/144/123
f 27/149/128 130/145/124 189/130/109 101/136/115
f 27/149/128 101/136/115 188/135/114 131/150/129
f 27/149/128 131/150/129 192/151/130 105/152/131
f 27/149/128 105/152/131 193/146/125 130/145/124
f 28/153/132 131/150/129 188/135/114 100/140/119
f 28/153/132 100/140/119 187/139/118 132/154/133
f 28/153/132 132/154/133 191/155/134 104/156/135
f 28/153/132 104/156/135 192/151/130 131/150/129
f 29/157/136 132/154/133 187/139/118 99/142/121
f 29/157/136 99/142/121 186/15/15 133/17/17
f 29/157/136 133/17/17 190/21/21 103/158/137
f 29/157/136 103/158/137 191/155/134 132/154/133
f 30/159/138 60/160/139 160/148/127 59/147/126
f 30/159/138 59/147/126 193/146/125 134/161/140
f 30/159/138 134/161/140 197/162/141 62/163/142
f 30/159/138 62/163/142 162/164/143 60/160/139
f 31/165/144 134/161/140 193/146/125 105/152/131
f 31/165/144 105/152/131 192/151/130 135/166/145
f 31/165/144 135/166/145 196/167/146 109/168/147
f 31/165/144 109/168/147 197/162/141 134/161/140
f 32/169/148 135/166/145 192/151/130 104/156/135
f 32/169/148 104/156/135 191/155/134 136/170/149
f 32/169/148 136/170/149 195/171/150 108/172/151
f 32/169/148 108/172/151 196/167/146 135/166/145
f 33/173/152 136/170/149 191/155/134 103/158/137
f 33/173/152 103/158/137 190/21/21 137/23/23
f 33/173/152 137/23/23 194/27/27 107/174/153
f 33/173/152 107/174/153 195/171/150 136/170/149
f 34/175/154 63/176/155 162/177/143 62/178/142
f 34/175/154 62/178/142 197/179/141 138/180/156
f 34/175/154 138/180/156 201/181/157 65/182/158
f 34/175/154 65/182/158 164/183/159 63/176/155
f 35/184/160 138/180/156 197/179/141 109/185/147
f 35/184/160 109/185/147 196/186/146 139/187/161
f 35/184/160 139/187/161 200/188/162 113/189/163
f 35/184/160 113/189/163 201/181/157 138/180/156
f 36/190/164 139/187/161 196/186/146 108/191/151
f 36/190/164 108/191/151 195/192/150 140/193/165
f 36/190/164 140/193/165 199/194/166 112/195/167
f 36/190/164 112/195/167 200/188/162 139/187/161
f 37/196/168 140/193/165 195/192/150 107/197/153
f 37/196/168 107/197/153 194/30/27 141/29/29
f 37/196/168 141/29/29 198/36/33 111/198/169
f 37/196/168 111/198/169 199/194/166 140/193/165
f 38/199/170 66/200/171 164/183/159 65/182/158
f 38/199/170 65/182/158 201/181/157 142/201/172
f 38/199/170 142/201/172 205/202/173 68/203/174
f 38/199/170 68/203/174 166/204/175 66/200/171
f 39/205/176 142/201/172 201/181/157 113/189/163
f 39/205/176 113/189/163 200/188/162 143/206/177
f 39/205/176 143/206/177 204/207/178 117/208/179
f 39/205/176 117/208/179 205/202/173 142/201/172
f 40/209/180 143/206/177 200/188/162 112/195/167
f 40/209/180 112/195/167 199/194/166 144/210/181
f 40/209/180 144/210/181 203/211/182 116/212/183
f 40/209/180 116/212/183 204/207/178 143/206/177
f 41/213/184 144/210/181 199/194/166 111/198/169
f 41/213/184 111/198/169 198/36/33 145/38/35
f 41/213/184 145/38/35 202/42/39 115/214/185
f 41/213/184 115/214/185 203/211/182 144/210/181
f 42/215/186 72/216/187 168/217/188 71/218/189
f 42/215/186 71/218/189 209/219/190 146/220/191
f 42/215/186 146/220/191 178/107/86 90/106/85
f 42/215/186 90/106/85 154/105/84 72/216/187
f 43/221/192 146/220/191 209/219/190 121/222/193
f 43/221/192 121/222/193 208/223/194 147/224/195
f 43/221/192 147/224/195 179/114/93 91/113/92
f 43/221/192 91/113/92 178/107/86 146/220/191
f 44/225/196 147/224/195 208/223/194 120/226/197
f 44/225/196 120/226/197 207/227/198 148/228/199
f 44/225/196 148/228/199 180/120/99 92/119/98
f 44/225/196 92/119/98 179/114/93 147/224/195
f 45/229/200 148/228/199 207/227/198 119/230/201
f 45/229/200 119/230/201 206/45/42 149/44/41
f 45/229/200 149/44/41 181/3/3 93/125/104
f 45/229/200 93/125/104 180/120/99 148/228/199
f 46/231/202 69/232/203 166/204/175 68/203/174
f 46/231/202 68/203/174 205/202/173 150/233/204
f 46/231/202 150/233/204 209/219/190 71/218/189
f 46/231/202 71/218/189 168/217/188 69/232/203
f 47/234/205 150/233/204 205/202/173 117/208/179
f 47/234/205 117/208/179 204/207/178 151/235/206
f 47/234/205 151/235/206 208/223/194 121/222/193
f 47/234/205 121/222/193 209/219/190 150/233/204
f 48/236/207 151/235/206 204/207/178 116/212/183
f 48/236/207 116/212/183 203/211/182 152/237/208
f 48/236/207 152/237/208 207/227/198 120/226/197
f 48/236/207 120/226/197 208/223/194 151/235/206
f 49/238/209 152/237/208 203/211/182 115/214/185
f 49/238/209 115/214/185 202/42/39 153/50/47
f 49/238/209 153/50/47 206/45/42 119/230/201
f 49/238/209 119/230/201 207/227/198 152/237/208
