# Blender v2.77 (sub 0) OBJ File: 'still_blendswap1.blend'
# www.blender.org
o Cylinder.048
v -1.538706 7.037662 6.894531
v -1.572738 7.021065 6.901604
v -1.609411 7.028924 6.892500
v -1.627240 7.056636 6.872554
v -1.615784 7.087965 6.853450
v -1.581752 7.104558 6.846378
v -1.527249 7.068991 6.875427
v -1.545080 7.096699 6.855482
v -1.604232 7.170828 7.141887
v -1.633784 7.177162 7.134551
v -1.576477 7.184236 7.134890
v -1.647823 7.199527 7.117179
v -1.638125 7.224822 7.099946
v -1.610370 7.238229 7.092948
v -1.580817 7.231896 7.100285
v -1.566778 7.209531 7.117657
v -1.612464 7.224432 7.155402
v -1.262363 6.348404 5.128830
v -1.342548 6.481852 5.581414
v -1.418077 6.631211 6.028976
v -1.484343 6.814796 6.468774
v -1.283729 6.342126 5.127409
v -1.366894 6.472529 5.580962
v -1.445454 6.618897 6.029748
v -1.514983 6.799916 6.472069
v -1.309743 6.347701 5.120951
v -1.395572 6.478675 5.573843
v -1.476797 6.625614 6.021968
v -1.548991 6.807204 6.463627
v -1.325166 6.361864 5.113240
v -1.411784 6.496690 5.564228
v -1.493746 6.647428 6.010192
v -1.566445 6.832391 6.448393
v -1.320962 6.376328 5.108790
v -1.406030 6.516030 5.557744
v -1.486371 6.671562 6.001318
v -1.557122 6.860719 6.435292
v -1.299592 6.382622 5.110207
v -1.381680 6.525368 5.558191
v -1.458989 6.683889 6.000541
v -1.526480 6.875603 6.431995
v -1.258159 6.362868 5.124380
v -1.336794 6.501192 5.574931
v -1.410702 6.655345 6.020102
v -1.475020 6.843123 6.455673
v -1.273578 6.377047 5.116665
v -1.353002 6.519222 5.565310
v -1.427646 6.677172 6.008321
v -1.492473 6.868315 6.440437
v -1.222011 6.282729 4.902397
v -1.560045 7.134739 7.058306
v -1.529180 7.052513 6.885922
v -1.271449 6.343798 5.128918
v -1.241898 6.277997 4.900558
v -1.593338 7.118617 7.066323
v -1.297170 6.343418 5.124640
v -1.266579 6.283287 4.894431
v -1.628896 7.126237 7.057497
v -1.319667 6.354131 5.116949
v -1.281597 6.295499 4.887606
v -1.645890 7.153137 7.036996
v -1.325758 6.369671 5.110347
v -1.278152 6.307488 4.884079
v -1.634365 7.183558 7.016832
v -1.311874 6.380941 5.108700
v -1.258261 6.312236 4.885914
v -1.601073 7.199679 7.008815
v -1.286148 6.381336 5.112974
v -1.233579 6.306946 4.892040
v -1.565514 7.192059 7.017642
v -1.263656 6.370608 5.120670
v -1.218566 6.294718 4.898870
v -1.548520 7.165160 7.038142
v -1.592463 7.207139 7.156511
v -1.609310 7.199000 7.160759
v -1.627249 7.202845 7.156306
v -1.635771 7.216420 7.145761
v -1.629884 7.231774 7.135300
v -1.613036 7.239913 7.131052
v -1.595097 7.236068 7.135506
v -1.586576 7.222493 7.146051
v -1.588900 7.175216 7.140187
v -1.620012 7.171376 7.140004
v -1.643678 7.186956 7.126590
v -1.568567 7.196228 7.127033
v -1.646034 7.212830 7.107803
v -1.625701 7.233841 7.094648
v -1.594589 7.237682 7.094832
v -1.570923 7.222102 7.108246
v -1.257568 6.355057 5.127275
v -1.336702 6.490884 5.578910
v -1.411144 6.642581 6.025345
v -1.476160 6.828205 6.463098
v -1.553876 7.026494 6.900133
v -1.497856 6.804749 6.471998
v -1.430010 6.622796 6.030581
v -1.353043 6.475324 5.582184
v -1.592261 7.021749 6.899030
v -1.532953 6.800625 6.469205
v -1.461889 6.619756 6.026777
v -1.381828 6.473601 5.578074
v -1.621850 7.041061 6.883260
v -1.560890 6.818258 6.456351
v -1.488106 6.635246 6.016160
v -1.406200 6.486716 5.568989
v -1.625309 7.073114 6.862059
v -1.565305 6.847310 6.440969
v -1.493304 6.660189 6.004950
v -1.411878 6.506995 5.560249
v -1.600614 7.099131 6.847848
v -1.543609 6.870767 6.432067
v -1.474435 6.679983 5.999711
v -1.395534 6.522565 5.556972
v -1.562230 7.103873 6.848952
v -1.508510 6.874896 6.434858
v -1.442552 6.683035 6.003510
v -1.366745 6.524299 5.561079
v -1.532641 7.084563 6.864722
v -1.480574 6.857258 6.447714
v -1.416340 6.667532 6.014132
v -1.342377 6.511173 5.570167
v -1.302586 6.414604 5.355193
v -1.381347 6.553078 5.806380
v -1.452491 6.717900 6.249631
v -1.513219 6.921512 6.684406
v -1.325436 6.406791 5.354223
v -1.407201 6.542258 5.806510
v -1.481449 6.704198 6.251370
v -1.545574 6.905666 6.689571
v -1.352782 6.412652 5.347435
v -1.437212 6.548690 5.799060
v -1.514125 6.711201 6.243259
v -1.580914 6.913240 6.680799
v -1.368605 6.428752 5.338805
v -1.453799 6.568605 5.788394
v -1.531377 6.734807 6.230049
v -1.598537 6.939796 6.663228
v -1.363634 6.445673 5.333385
v -1.447245 6.590345 5.780758
v -1.523099 6.761185 6.219478
v -1.588122 6.969775 6.647152
v -1.340779 6.453502 5.334350
v -1.421387 6.601178 5.780624
v -1.494137 6.774899 6.217734
v -1.555768 6.985617 6.641988
v -1.297614 6.431524 5.349773
v -1.374792 6.574818 5.798743
v -1.444214 6.744279 6.239060
v -1.502804 6.951490 6.668331
v -1.313433 6.447641 5.341138
v -1.391376 6.594746 5.788074
v -1.461462 6.767897 6.225845
v -1.520428 6.978043 6.650761
v -1.217733 6.288175 4.901268
v -1.550600 7.149160 7.049138
v -1.230399 6.279098 4.902184
v -1.574931 7.123893 7.064438
v -1.254595 6.279403 4.897859
v -1.612311 7.119277 7.063998
v -1.276148 6.288903 4.890828
v -1.640841 7.138018 7.048077
v -1.282431 6.302041 4.885208
v -1.643810 7.169137 7.026000
v -1.269762 6.311126 4.884290
v -1.619479 7.194404 7.010701
v -1.245562 6.310836 4.888611
v -1.582100 7.199018 7.011141
v -1.224013 6.301321 4.895646
v -1.553569 7.180278 7.027062
v -1.581634 7.209471 7.145604
v -1.596613 7.193991 7.155294
v -1.619534 7.191162 7.155159
v -1.636969 7.202640 7.145277
v -1.638705 7.221702 7.131436
v -1.623725 7.237181 7.121746
v -1.600804 7.240011 7.121881
v -1.583370 7.228533 7.131763
v -1.297269 6.422455 5.353187
v -1.374962 6.563280 5.803334
v -1.444969 6.730364 6.245186
v -1.504352 6.935717 6.677277
v -1.527571 6.910840 6.688808
v -1.465184 6.708606 6.251868
v -1.392556 6.545605 5.807549
v -1.312372 6.409029 5.355602
v -1.564322 6.906348 6.686850
v -1.498645 6.704967 6.248409
v -1.422885 6.543224 5.803576
v -1.339623 6.407971 5.351389
v -1.593076 6.924878 6.672548
v -1.525749 6.721586 6.236834
v -1.448183 6.557527 5.793741
v -1.363060 6.419892 5.343019
v -1.596989 6.955570 6.654281
v -1.530622 6.748720 6.223924
v -1.453630 6.580140 5.783805
v -1.368952 6.437818 5.335392
v -1.573770 6.980445 6.642751
v -1.510406 6.770483 6.217239
v -1.436033 6.597824 5.779586
v -1.353845 6.451255 5.332973
v -1.537020 6.984935 6.644710
v -1.476941 6.774136 6.220692
v -1.405702 6.600215 5.783557
v -1.326590 6.452326 5.337182
v -1.508266 6.966407 6.659011
v -1.449840 6.757504 6.232274
v -1.380407 6.585902 5.793395
v -1.303157 6.440392 5.345556
vt 0.5919 0.5625
vt 0.5592 0.5625
vt 0.5592 0.5000
vt 0.5919 0.5000
vt 0.6163 0.5000
vt 0.6163 0.5625
vt 0.6163 0.6250
vt 0.5919 0.6250
vt 0.5592 0.6250
vt 0.5919 0.6875
vt 0.5592 0.6875
vt 0.6163 0.6875
vt 0.6163 0.7500
vt 0.5919 0.7500
vt 0.5592 0.7500
vt 0.5919 0.8125
vt 0.5592 0.8125
vt 0.6163 0.8125
vt 0.6163 0.8750
vt 0.5919 0.8750
vt 0.5592 0.8750
vt 0.5919 0.9375
vt 0.5592 0.9375
vt 0.6163 0.9375
vt 0.6163 0.9999
vt 0.5919 0.9999
vt 0.5592 0.9999
vt 0.5919 0.0626
vt 0.5592 0.0626
vt 0.5592 0.0001
vt 0.5919 0.0001
vt 0.6163 0.0001
vt 0.6163 0.0626
vt 0.6163 0.1250
vt 0.5919 0.1250
vt 0.5592 0.1250
vt 0.5919 0.1875
vt 0.5592 0.1875
vt 0.6163 0.1875
vt 0.6163 0.2500
vt 0.5919 0.2500
vt 0.5592 0.2500
vt 0.5919 0.4375
vt 0.5592 0.4375
vt 0.5592 0.3750
vt 0.5919 0.3750
vt 0.6163 0.3750
vt 0.6163 0.4375
vt 0.5919 0.3125
vt 0.5592 0.3125
vt 0.6163 0.3125
vt 0.6245 0.6875
vt 0.6245 0.7500
vt 0.6245 0.6250
vt 0.6245 0.6250
vt 0.6245 0.6875
vt 0.6245 0.7500
vt 0.6245 0.8125
vt 0.6245 0.8750
vt 0.6245 0.8125
vt 0.6245 0.8750
vt 0.6245 0.5625
vt 0.6245 0.5000
vt 0.6245 0.5000
vt 0.6245 0.5625
vt 0.6245 0.9375
vt 0.6245 0.9999
vt 0.6245 0.9375
vt 0.6245 0.9999
vt 0.6245 0.0626
vt 0.6245 0.1250
vt 0.6245 0.0001
vt 0.6245 0.0001
vt 0.6245 0.0626
vt 0.6245 0.1250
vt 0.6245 0.1875
vt 0.6245 0.2500
vt 0.6245 0.1875
vt 0.6245 0.2500
vt 0.6245 0.3125
vt 0.6245 0.3750
vt 0.6245 0.3125
vt 0.6245 0.3750
vt 0.6245 0.4375
vt 0.6245 0.4375
vt 0.6245 0.4375
vt 0.6245 0.6875
vt 0.6245 0.6250
vt 0.6245 0.5625
vt 0.6245 0.5000
vt 0.6245 0.4375
vt 0.6245 0.3750
vt 0.6245 0.3125
vt 0.6245 0.2500
vt 0.6245 0.1875
vt 0.6245 0.1250
vt 0.6245 0.0626
vt 0.6245 0.0001
vt 0.6245 0.4375
vt 0.6245 0.8750
vt 0.6245 0.8125
vt 0.6245 0.7500
vt 0.3306 0.5625
vt 0.2979 0.5625
vt 0.2979 0.5000
vt 0.3306 0.5000
vt 0.3632 0.5000
vt 0.3632 0.5625
vt 0.3632 0.6250
vt 0.3306 0.6250
vt 0.2979 0.6250
vt 0.3959 0.5625
vt 0.3959 0.5000
vt 0.4286 0.5000
vt 0.4286 0.5625
vt 0.4286 0.6250
vt 0.3959 0.6250
vt 0.4612 0.5625
vt 0.4612 0.5000
vt 0.4939 0.5000
vt 0.4939 0.5625
vt 0.4939 0.6250
vt 0.4612 0.6250
vt 0.5265 0.5625
vt 0.5265 0.5000
vt 0.5265 0.6250
vt 0.3306 0.6875
vt 0.2979 0.6875
vt 0.3632 0.6875
vt 0.3632 0.7500
vt 0.3306 0.7500
vt 0.2979 0.7500
vt 0.3959 0.6875
vt 0.4286 0.6875
vt 0.4286 0.7500
vt 0.3959 0.7500
vt 0.4612 0.6875
vt 0.4939 0.6875
vt 0.4939 0.7500
vt 0.4612 0.7500
vt 0.5265 0.6875
vt 0.5265 0.7500
vt 0.3306 0.8125
vt 0.2979 0.8125
vt 0.3632 0.8125
vt 0.3632 0.8750
vt 0.3306 0.8750
vt 0.2979 0.8750
vt 0.3959 0.8125
vt 0.4285 0.8125
vt 0.4285 0.8750
vt 0.3959 0.8750
vt 0.4612 0.8125
vt 0.4939 0.8125
vt 0.4939 0.8750
vt 0.4612 0.8750
vt 0.5265 0.8125
vt 0.5265 0.8750
vt 0.3306 0.9375
vt 0.2979 0.9375
vt 0.3632 0.9375
vt 0.3632 0.9999
vt 0.3306 0.9999
vt 0.2979 0.9999
vt 0.3959 0.9375
vt 0.4286 0.9375
vt 0.4286 0.9999
vt 0.3959 0.9999
vt 0.4612 0.9375
vt 0.4939 0.9375
vt 0.4939 0.9999
vt 0.4612 0.9999
vt 0.5265 0.9375
vt 0.5265 0.9999
vt 0.3306 0.0626
vt 0.2979 0.0625
vt 0.2979 0.0001
vt 0.3306 0.0001
vt 0.3632 0.0001
vt 0.3632 0.0626
vt 0.3632 0.1250
vt 0.3306 0.1250
vt 0.2979 0.1250
vt 0.3959 0.0626
vt 0.3959 0.0001
vt 0.4286 0.0001
vt 0.4286 0.0626
vt 0.4286 0.1250
vt 0.3959 0.1250
vt 0.4612 0.0626
vt 0.4612 0.0001
vt 0.4939 0.0001
vt 0.4939 0.0626
vt 0.4939 0.1250
vt 0.4612 0.1250
vt 0.5265 0.0626
vt 0.5265 0.0001
vt 0.5265 0.1250
vt 0.3306 0.1875
vt 0.2979 0.1875
vt 0.3632 0.1875
vt 0.3632 0.2500
vt 0.3306 0.2500
vt 0.2979 0.2500
vt 0.3959 0.1875
vt 0.4286 0.1875
vt 0.4286 0.2500
vt 0.3959 0.2500
vt 0.4612 0.1875
vt 0.4939 0.1875
vt 0.4939 0.2500
vt 0.4612 0.2500
vt 0.5265 0.1875
vt 0.5265 0.2500
vt 0.3306 0.4375
vt 0.2979 0.4375
vt 0.2979 0.3750
vt 0.3306 0.3750
vt 0.3632 0.3750
vt 0.3632 0.4375
vt 0.3959 0.4375
vt 0.3959 0.3750
vt 0.4286 0.3750
vt 0.4286 0.4375
vt 0.4612 0.4375
vt 0.4612 0.3750
vt 0.4939 0.3750
vt 0.4939 0.4375
vt 0.5265 0.4375
vt 0.5265 0.3750
vt 0.3306 0.3125
vt 0.2979 0.3125
vt 0.3632 0.3125
vt 0.3959 0.3125
vt 0.4286 0.3125
vt 0.4612 0.3125
vt 0.4939 0.3125
vt 0.5265 0.3125
vn 0.7635 -0.5145 0.3903
vn 0.7566 -0.5349 0.3761
vn 0.9501 -0.2105 0.2303
vn 0.9498 -0.2048 0.2363
vn 0.9454 -0.1749 0.2749
vn 0.7657 -0.4797 0.4284
vn 0.4682 -0.7113 0.5242
vn 0.4611 -0.7447 0.4825
vn 0.4482 -0.7685 0.4566
vn 0.0907 -0.8608 0.5007
vn 0.0825 -0.8813 0.4652
vn 0.0948 -0.8323 0.5462
vn -0.2972 -0.8196 0.4897
vn -0.2918 -0.8471 0.4441
vn -0.2869 -0.8672 0.4071
vn -0.6307 -0.7062 0.3216
vn -0.6161 -0.7316 0.2918
vn -0.6433 -0.6741 0.3629
vn -0.8875 -0.4207 0.1876
vn -0.8760 -0.4581 0.1506
vn -0.8632 -0.4875 0.1310
vn -0.9893 -0.1388 -0.0448
vn -0.9852 -0.1616 -0.0562
vn -0.9947 -0.1024 -0.0086
vn -0.9527 0.2319 -0.1963
vn -0.9506 0.2025 -0.2354
vn -0.9502 0.1968 -0.2414
vn -0.7646 0.5120 -0.3914
vn -0.7583 0.5222 -0.3903
vn -0.7699 0.5340 -0.3494
vn -0.4716 0.7610 -0.4455
vn -0.4619 0.7407 -0.4879
vn -0.4495 0.7555 -0.4765
vn -0.0904 0.8553 -0.5101
vn -0.0814 0.8679 -0.4900
vn -0.1003 0.8776 -0.4688
vn 0.2877 0.8639 -0.4133
vn 0.2931 0.8408 -0.4550
vn 0.2904 0.8530 -0.4336
vn 0.9897 0.1360 0.0441
vn 0.9880 0.1479 0.0432
vn 0.8682 0.4732 -0.1493
vn 0.8775 0.4536 -0.1554
vn 0.8742 0.4725 -0.1114
vn 0.9837 0.1581 0.0858
vn 0.6325 0.7004 -0.3307
vn 0.6211 0.7173 -0.3156
vn 0.6306 0.7209 -0.2873
vn 0.0801 -0.7020 0.7076
vn -0.3103 -0.6888 0.6551
vn 0.4477 -0.5751 0.6847
vn 0.3666 -0.3190 0.8739
vn 0.0079 -0.1446 0.9894
vn -0.3023 -0.4196 0.8558
vn -0.6534 -0.5448 0.5255
vn -0.8902 -0.2883 0.3526
vn -0.5058 -0.0345 0.8619
vn -0.8106 -0.0667 0.5817
vn 0.7321 -0.3465 0.5865
vn 0.8973 -0.0441 0.4393
vn 0.7508 0.1420 0.6451
vn 0.4595 0.0972 0.8828
vn -0.9869 0.0218 0.1598
vn -0.9370 0.3489 -0.0161
vn -0.7284 0.3518 0.5879
vn -0.8392 0.4827 0.2504
vn -0.7575 0.6336 -0.1572
vn -0.4680 0.8506 -0.2396
vn -0.5516 0.7526 0.3596
vn -0.4266 0.9026 0.0567
vn -0.1163 0.9590 -0.2583
vn 0.2528 0.9463 -0.2015
vn -0.1199 0.9479 0.2951
vn 0.1871 0.9781 0.0906
vn 0.5806 0.8097 -0.0853
vn 0.8137 0.5759 0.0786
vn 0.3311 0.8512 0.4071
vn 0.6677 0.6681 0.3284
vn 0.9261 0.2728 0.2607
vn 0.5745 0.5112 0.6392
vn -0.0872 0.5528 0.8287
vn 0.6379 -0.7017 0.3175
vn 0.6232 -0.7145 0.3180
vn 0.9540 -0.1973 0.2257
vn 0.9513 -0.2073 0.2282
vn 0.9512 -0.2074 0.2283
vn 0.6705 -0.6711 0.3163
vn 0.3092 -0.8969 0.3160
vn 0.2658 -0.9129 0.3098
vn 0.2437 -0.9200 0.3068
vn 0.6944 -0.6451 0.3187
vn 0.9509 -0.2085 0.2286
vn 0.9506 -0.2094 0.2290
vn 0.7125 -0.6208 0.3269
vn 0.3721 -0.8609 0.3469
vn 0.3441 -0.8801 0.3270
vn 0.7268 -0.5976 0.3383
vn 0.9505 -0.2096 0.2293
vn 0.9503 -0.2099 0.2296
vn 0.7385 -0.5757 0.3510
vn 0.4153 -0.8169 0.4003
vn 0.3954 -0.8396 0.3725
vn 0.7484 -0.5546 0.3637
vn 0.9502 -0.2101 0.2299
vn 0.4330 -0.7930 0.4286
vn -0.0248 -0.9628 0.2691
vn -0.0375 -0.9633 0.2657
vn 0.0000 -0.9610 0.2766
vn -0.2568 -0.9405 0.2225
vn -0.2562 -0.9414 0.2193
vn -0.2560 -0.9417 0.2182
vn 0.0207 -0.9566 0.2906
vn 0.0372 -0.9480 0.3160
vn -0.2630 -0.9301 0.2565
vn -0.2587 -0.9373 0.2332
vn 0.0507 -0.9356 0.3493
vn 0.0624 -0.9201 0.3865
vn -0.2748 -0.9045 0.3260
vn -0.2686 -0.9189 0.2888
vn 0.0731 -0.9019 0.4256
vn -0.2810 -0.8872 0.3659
vn -0.4733 -0.8667 0.1578
vn -0.4617 -0.8724 0.1604
vn -0.4959 -0.8547 0.1535
vn -0.7379 -0.6725 0.0561
vn -0.7063 -0.7046 0.0685
vn -0.6900 -0.7199 0.0750
vn -0.5172 -0.8413 0.1570
vn -0.5385 -0.8246 0.1731
vn -0.7885 -0.6121 0.0588
vn -0.7645 -0.6425 0.0518
vn -0.5596 -0.8048 0.1978
vn -0.5797 -0.7825 0.2271
vn -0.8302 -0.5499 0.0911
vn -0.8105 -0.5811 0.0731
vn -0.5987 -0.7580 0.2588
vn -0.8479 -0.5184 0.1107
vn -0.9278 -0.3661 -0.0711
vn -0.9212 -0.3835 -0.0654
vn -0.9418 -0.3256 -0.0839
vn -0.9491 0.1998 -0.2434
vn -0.9490 0.2000 -0.2435
vn -0.9463 0.2099 -0.2460
vn -0.9521 -0.2922 -0.0900
vn -0.9609 -0.2622 -0.0885
vn -0.9497 0.1978 -0.2427
vn -0.9494 0.1987 -0.2430
vn -0.9686 -0.2343 -0.0825
vn -0.9752 -0.2084 -0.0744
vn -0.9500 0.1973 -0.2421
vn -0.9498 0.1976 -0.2424
vn -0.9807 -0.1840 -0.0655
vn -0.9501 0.1971 -0.2418
vn -0.6357 0.6954 -0.3351
vn -0.6123 0.7156 -0.3362
vn -0.6687 0.6644 -0.3337
vn -0.3063 0.8898 -0.3381
vn -0.2626 0.9060 -0.3320
vn -0.2366 0.9143 -0.3287
vn -0.6939 0.6370 -0.3359
vn -0.7130 0.6112 -0.3436
vn -0.3713 0.8520 -0.3689
vn -0.3422 0.8724 -0.3491
vn -0.7276 0.5872 -0.3546
vn -0.7396 0.5644 -0.3666
vn -0.4157 0.8057 -0.4218
vn -0.3952 0.8297 -0.3942
vn -0.7497 0.5426 -0.3788
vn -0.4337 0.7808 -0.4496
vn 0.0288 0.9550 -0.2952
vn 0.0427 0.9556 -0.2916
vn 0.0039 0.9531 -0.3026
vn 0.2618 0.9322 -0.2499
vn 0.2612 0.9332 -0.2467
vn 0.2610 0.9335 -0.2456
vn -0.0172 0.9484 -0.3165
vn -0.0342 0.9390 -0.3421
vn 0.2678 0.9207 -0.2839
vn 0.2637 0.9287 -0.2605
vn -0.0482 0.9256 -0.3755
vn -0.0604 0.9088 -0.4128
vn 0.2791 0.8926 -0.3539
vn 0.2732 0.9084 -0.3164
vn -0.0714 0.8893 -0.4517
vn 0.2850 0.8740 -0.3936
vn 0.9316 0.3595 0.0539
vn 0.9210 0.3869 0.0444
vn 0.6919 0.7153 -0.0982
vn 0.7110 0.6973 -0.0903
vn 0.7427 0.6650 -0.0777
vn 0.9455 0.3185 0.0670
vn 0.9562 0.2833 0.0737
vn 0.7698 0.6340 -0.0730
vn 0.7943 0.6022 -0.0795
vn 0.9651 0.2516 0.0729
vn 0.9725 0.2229 0.0674
vn 0.8162 0.5700 -0.0935
vn 0.8359 0.5375 -0.1111
vn 0.9787 0.1961 0.0599
vn 0.9839 0.1711 0.0516
vn 0.8532 0.5050 -0.1302
vn 0.4787 0.8586 -0.1835
vn 0.4661 0.8648 -0.1865
vn 0.5013 0.8465 -0.1791
vn 0.5228 0.8327 -0.1825
vn 0.5443 0.8151 -0.1985
vn 0.5654 0.7941 -0.2232
vn 0.5854 0.7703 -0.2525
vn 0.6042 0.7445 -0.2840
s 1
f 1/1/1 125/2/2 181/3/3 52/4/4
f 1/1/1 52/4/4 155/5/5 51/6/6
f 1/1/1 51/6/6 157/7/7 94/8/8
f 1/1/1 94/8/8 182/9/9 125/2/2
f 2/10/10 129/11/11 182/9/9 94/8/8
f 2/10/10 94/8/8 157/7/7 55/12/12
f 2/10/10 55/12/12 159/13/13 98/14/14
f 2/10/10 98/14/14 186/15/15 129/11/11
f 3/16/16 133/17/17 186/15/15 98/14/14
f 3/16/16 98/14/14 159/13/13 58/18/18
f 3/16/16 58/18/18 161/19/19 102/20/20
f 3/16/16 102/20/20 190/21/21 133/17/17
f 4/22/22 137/23/23 190/21/21 102/20/20
f 4/22/22 102/20/20 161/19/19 61/24/24
f 4/22/22 61/24/24 163/25/25 106/26/26
f 4/22/22 106/26/26 194/27/27 137/23/23
f 5/28/28 141/29/29 194/30/27 106/31/26
f 5/28/28 106/31/26 163/32/25 64/33/30
f 5/28/28 64/33/30 165/34/31 110/35/32
f 5/28/28 110/35/32 198/36/33 141/29/29
f 6/37/34 145/38/35 198/36/33 110/35/32
f 6/37/34 110/35/32 165/34/31 67/39/36
f 6/37/34 67/39/36 167/40/37 114/41/38
f 6/37/34 114/41/38 202/42/39 145/38/35
f 7/43/40 149/44/41 206/45/42 118/46/43
f 7/43/40 118/46/43 169/47/44 73/48/45
f 7/43/40 73/48/45 155/5/5 52/4/4
f 7/43/40 52/4/4 181/3/3 149/44/41
f 8/49/46 153/50/47 202/42/39 114/41/38
f 8/49/46 114/41/38 167/40/37 70/51/48
f 8/49/46 70/51/48 169/47/44 118/46/43
f 8/49/46 118/46/43 206/45/42 153/50/47
f 9/52/49 83/53/50 159/13/13 55/12/12
f 9/52/49 55/12/12 157/7/7 82/54/51
f 9/52/49 82/54/51 171/55/52 75/56/53
f 9/52/49 75/56/53 172/57/54 83/53/50
f 10/58/55 84/59/56 161/19/19 58/18/18
f 10/58/55 58/18/18 159/13/13 83/53/50
f 10/58/55 83/53/50 172/57/54 76/60/57
f 10/58/55 76/60/57 173/61/58 84/59/56
f 11/62/59 82/54/51 157/7/7 51/6/6
f 11/62/59 51/6/6 155/5/5 85/63/60
f 11/62/59 85/63/60 170/64/61 74/65/62
f 11/62/59 74/65/62 171/55/52 82/54/51
f 12/66/63 86/67/64 163/25/25 61/24/24
f 12/66/63 61/24/24 161/19/19 84/59/56
f 12/66/63 84/59/56 173/61/58 77/68/65
f 12/66/63 77/68/65 174/69/66 86/67/64
f 13/70/67 87/71/68 165/34/31 64/33/30
f 13/70/67 64/33/30 163/32/25 86/72/64
f 13/70/67 86/72/64 174/73/66 78/74/69
f 13/70/67 78/74/69 175/75/70 87/71/68
f 14/76/71 88/77/72 167/40/37 67/39/36
f 14/76/71 67/39/36 165/34/31 87/71/68
f 14/76/71 87/71/68 175/75/70 79/78/73
f 14/76/71 79/78/73 176/79/74 88/77/72
f 15/80/75 89/81/76 169/47/44 70/51/48
f 15/80/75 70/51/48 167/40/37 88/77/72
f 15/80/75 88/77/72 176/79/74 80/82/77
f 15/80/75 80/82/77 177/83/78 89/81/76
f 16/84/79 85/63/60 155/5/5 73/48/45
f 16/84/79 73/48/45 169/47/44 89/81/76
f 16/84/79 89/81/76 177/83/78 81/85/80
f 16/84/79 81/85/80 170/64/61 85/63/60
f 17/86/81 76/87/57 172/88/54 75/89/53
f 17/86/81 75/89/53 171/90/52 74/91/62
f 17/86/81 74/91/62 170/92/61 81/93/80
f 17/86/81 81/93/80 177/94/78 80/95/77
f 17/86/81 80/95/77 176/96/74 79/97/73
f 17/86/81 79/97/73 175/98/70 78/99/69
f 17/86/81 78/99/69 174/100/66 77/101/65
f 17/86/81 77/101/65 173/102/58 76/87/57
f 18/103/82 50/104/83 154/105/84 90/106/85
f 18/103/82 90/106/85 178/107/86 122/108/87
f 18/103/82 122/108/87 185/109/88 53/110/89
f 18/103/82 53/110/89 156/111/90 50/104/83
f 19/112/91 122/108/87 178/107/86 91/113/92
f 19/112/91 91/113/92 179/114/93 123/115/94
f 19/112/91 123/115/94 184/116/95 97/117/96
f 19/112/91 97/117/96 185/109/88 122/108/87
f 20/118/97 123/115/94 179/114/93 92/119/98
f 20/118/97 92/119/98 180/120/99 124/121/100
f 20/118/97 124/121/100 183/122/101 96/123/102
f 20/118/97 96/123/102 184/116/95 123/115/94
f 21/124/103 124/121/100 180/120/99 93/125/104
f 21/124/103 93/125/104 181/3/3 125/2/2
f 21/124/103 125/2/2 182/9/9 95/126/105
f 21/124/103 95/126/105 183/122/101 124/121/100
f 22/127/106 54/128/107 156/111/90 53/110/89
f 22/127/106 53/110/89 185/109/88 126/129/108
f 22/127/106 126/129/108 189/130/109 56/131/110
f 22/127/106 56/131/110 158/132/111 54/128/107
f 23/133/112 126/129/108 185/109/88 97/117/96
f 23/133/112 97/117/96 184/116/95 127/134/113
f 23/133/112 127/134/113 188/135/114 101/136/115
f 23/133/112 101/136/115 189/130/109 126/129/108
f 24/137/116 127/134/113 184/116/95 96/123/102
f 24/137/116 96/123/102 183/122/101 128/138/117
f 24/137/116 128/138/117 187/139/118 100/140/119
f 24/137/116 100/140/119 188/135/114 127/134/113
f 25/141/120 128/138/117 183/122/101 95/126/105
f 25/141/120 95/126/105 182/9/9 129/11/11
f 25/141/120 129/11/11 186/15/15 99/142/121
f 25/141/120 99/142/121 187/139/118 128/138/117
f 26/143/122 57/144/123 158/132/111 56/131/110
f 26/143/122 56/131/110 189/130/109 130/145/124
f 26/143/122 130/145/124 193/146/125 59/147/126
f 26/143/122 59/147/126 160/148/127 57/144/123
f 27/149/128 130/145/124 189/130/109 101/136/115
f 27/149/128 101/136/115 188/135/114 131/150/129
f 27/149/128 131/150/129 192/151/130 105/152/131
f 27/149/128 105/152/131 193/146/125 130/145/124
f 28/153/132 131/150/129 188/135/114 100/140/119
f 28/153/132 100/140/119 187/139/118 132/154/133
f 28/153/132 132/154/133 191/155/134 104/156/135
f 28/153/132 104/156/135 192/151/130 131/150/129
f 29/157/136 132/154/133 187/139/118 99/142/121
f 29/157/136 99/142/121 186/15/15 133/17/17
f 29/157/136 133/17/17 190/21/21 103/158/137
f 29/157/136 103/158/137 191/155/134 132/154/133
f 30/159/138 60/160/139 160/148/127 59/147/126
f 30/159/138 59/147/126 193/146/125 134/161/140
f 30/159/138 134/161/140 197/162/141 62/163/142
f 30/159/138 62/163/142 162/164/143 60/160/139
f 31/165/144 134/161/140 193/146/125 105/152/131
f 31/165/144 105/152/131 192/151/130 135/166/145
f 31/165/144 135/166/145 196/167/146 109/168/147
f 31/165/144 109/168/147 197/162/141 134/161/140
f 32/169/148 135/166/145 192/151/130 104/156/135
f 32/169/148 104/156/135 191/155/134 136/170/149
f 32/169/148 136/170/149 195/171/150 108/172/151
f 32/169/148 108/172/151 196/167/146 135/166/145
f 33/173/152 136/170/149 191/155/134 103/158/137
f 33/173/152 103/158/137 190/21/21 137/23/23
f 33/173/152 137/23/23 194/27/27 107/174/153
f 33/173/152 107/174/153 195/171/150 136/170/149
f 34/175/154 63/176/155 162/177/143 62/178/142
f 34/175/154 62/178/142 197/179/141 138/180/156
f 34/175/154 138/180/156 201/181/157 65/182/158
f 34/175/154 65/182/158 164/183/159 63/176/155
f 35/184/160 138/180/156 197/179/141 109/185/147
f 35/184/160 109/185/147 196/186/146 139/187/161
f 35/184/160 139/187/161 200/188/162 113/189/163
f 35/184/160 113/189/163 201/181/157 138/180/156
f 36/190/164 139/187/161 196/186/146 108/191/151
f 36/190/164 108/191/151 195/192/150 140/193/165
f 36/190/164 140/193/165 199/194/166 112/195/167
f 36/190/164 112/195/167 200/188/162 139/187/161
f 37/196/168 140/193/165 195/192/150 107/197/153
f 37/196/168 107/197/153 194/30/27 141/29/29
f 37/196/168 141/29/29 198/36/33 111/198/169
f 37/196/168 111/198/169 199/194/166 140/193/165
f 38/199/170 66/200/171 164/183/159 65/182/158
f 38/199/170 65/182/158 201/181/157 142/201/172
f 38/199/170 142/201/172 205/202/173 68/203/174
f 38/199/170 68/203/174 166/204/175 66/200/171
f 39/205/176 142/201/172 201/181/157 113/189/163
f 39/205/176 113/189/163 200/188/162 143/206/177
f 39/205/176 143/206/177 204/207/178 117/208/179
f 39/205/176 117/208/179 205/202/173 142/201/172
f 40/209/180 143/206/177 200/188/162 112/195/167
f 40/209/180 112/195/167 199/194/166 144/210/181
f 40/209/180 144/210/181 203/211/182 116/212/183
f 40/209/180 116/212/183 204/207/178 143/206/177
f 41/213/184 144/210/181 199/194/166 111/198/169
f 41/213/184 111/198/169 198/36/33 145/38/35
f 41/213/184 145/38/35 202/42/39 115/214/185
f 41/213/184 115/214/185 203/211/182 144/210/181
f 42/215/186 72/216/187 168/217/188 71/218/189
f 42/215/186 71/218/189 209/219/190 146/220/191
f 42/215/186 146/220/191 178/107/86 90/106/85
f 42/215/186 90/106/85 154/105/84 72/216/187
f 43/221/192 146/220/191 209/219/190 121/222/193
f 43/221/192 121/222/193 208/223/194 147/224/195
f 43/221/192 147/224/195 179/114/93 91/113/92
f 43/221/192 91/113/92 178/107/86 146/220/191
f 44/225/196 147/224/195 208/223/194 120/226/197
f 44/225/196 120/226/197 207/227/198 148/228/199
f 44/225/196 148/228/199 180/120/99 92/119/98
f 44/225/196 92/119/98 179/114/93 147/224/195
f 45/229/200 148/228/199 207/227/198 119/230/201
f 45/229/200 119/230/201 206/45/42 149/44/41
f 45/229/200 149/44/41 181/3/3 93/125/104
f 45/229/200 93/125/104 180/120/99 148/228/199
f 46/231/202 69/232/203 166/204/175 68/203/174
f 46/231/202 68/203/174 205/202/173 150/233/204
f 46/231/202 150/233/204 209/219/190 71/218/189
f 46/231/202 71/218/189 168/217/188 69/232/203
f 47/234/205 150/233/204 205/202/173 117/208/179
f 47/234/205 117/208/179 204/207/178 151/235/206
f 47/234/205 151/235/206 208/223/194 121/222/193
f 47/234/205 121/222/193 209/219/190 150/233/204
f 48/236/207 151/235/206 204/207/178 116/212/183
f 48/236/207 116/212/183 203/211/182 152/237/208
f 48/236/207 152/237/208 207/227/198 120/226/197
f 48/236/207 120/226/197 208/223/194 151/235/206
f 49/238/209 152/237/208 203/211/182 115/214/185
f 49/238/209 115/214/185 202/42/39 153/50/47
f 49/238/209 153/50/47 206/45/42 119/230/201
f 49/238/209 119/230/201 207/227/198 152/237/208
