# Blender v2.77 (sub 0) OBJ File: 'still_blendswap1.blend'
# www.blender.org
o Cylinder.043
v -1.523036 6.230122 5.698528
v -1.496922 6.256171 5.710377
v -1.458371 6.255964 5.718425
v -1.429967 6.229621 5.717957
v -1.428349 6.192578 5.709249
v -1.454463 6.166533 5.697400
v -1.521417 6.193079 5.689820
v -1.493014 6.166740 5.689353
v -1.553656 6.202825 5.999473
v -1.522589 6.202658 6.005959
v -1.574436 6.181322 5.988646
v -1.499435 6.180918 6.004303
v -1.497757 6.150340 5.995477
v -1.518538 6.128836 5.984650
v -1.549604 6.129004 5.978164
v -1.572758 6.150743 5.979819
v -1.545360 6.160842 6.036303
v -1.096729 6.240005 3.724313
v -1.202738 6.278850 4.216215
v -1.308887 6.300613 4.708343
v -1.415959 6.286757 5.203973
v -1.077286 6.250843 3.728124
v -1.181356 6.293509 4.220737
v -1.285622 6.319136 4.713846
v -1.391109 6.309216 5.211887
v -1.049940 6.250695 3.733833
v -1.151209 6.293346 4.227031
v -1.252674 6.318958 4.720725
v -1.355360 6.309024 5.219350
v -1.030709 6.239649 3.738095
v -1.129956 6.278458 4.231409
v -1.229343 6.300185 4.724948
v -1.329652 6.286293 5.221990
v -1.030859 6.224164 3.738414
v -1.130047 6.257555 4.231307
v -1.229295 6.273810 4.724042
v -1.329045 6.254342 5.218260
v -1.050302 6.213308 3.734604
v -1.151429 6.242880 4.226784
v -1.252560 6.255273 4.718537
v -1.353895 6.231877 5.210345
v -1.096879 6.224519 3.724632
v -1.202829 6.257946 4.216113
v -1.308840 6.274239 4.707437
v -1.415352 6.254806 5.200243
v -1.077648 6.213455 3.728895
v -1.181576 6.243042 4.220490
v -1.285508 6.255450 4.711659
v -1.389644 6.232069 5.202882
v -1.043772 6.219526 3.478565
v -1.562437 6.198231 5.893507
v -1.526219 6.211621 5.693341
v -1.088999 6.246568 3.725777
v -1.025314 6.228455 3.482095
v -1.537351 6.223946 5.906138
v -1.063597 6.252370 3.730945
v -0.999368 6.228316 3.487511
v -1.499972 6.223745 5.913941
v -1.038311 6.246295 3.736359
v -0.981133 6.219189 3.491642
v -1.472195 6.197745 5.912346
v -1.027952 6.231893 3.738846
v -0.981291 6.206413 3.492066
v -1.470292 6.161179 5.902287
v -1.038589 6.217592 3.736950
v -0.999748 6.197467 3.488537
v -1.495377 6.135465 5.889657
v -1.063990 6.211775 3.731782
v -1.025694 6.197607 3.483120
v -1.532757 6.135666 5.881853
v -1.089277 6.217865 3.726369
v -1.043929 6.206750 3.478990
v -1.560534 6.161664 5.883448
v -1.566316 6.171492 6.023170
v -1.553702 6.184545 6.029742
v -1.534845 6.184443 6.033679
v -1.520790 6.171247 6.032674
v -1.519772 6.152686 6.027316
v -1.532386 6.139633 6.020743
v -1.551243 6.139735 6.016807
v -1.565298 6.152931 6.017812
v -1.566444 6.194324 5.994231
v -1.538296 6.205908 6.003630
v -1.508860 6.194015 6.006252
v -1.576814 6.166050 5.983561
v -1.495379 6.165612 6.000562
v -1.505750 6.137337 5.989892
v -1.533898 6.125753 5.980493
v -1.563333 6.137647 5.977870
v -1.099635 6.232279 3.723881
v -1.205906 6.268417 4.215512
v -1.312275 6.287446 4.707178
v -1.419357 6.270802 5.201335
v -1.512920 6.245874 5.704501
v -1.406196 6.300340 5.207656
v -1.299671 6.311818 4.710657
v -1.194248 6.287722 4.218023
v -1.477814 6.259904 5.715302
v -1.373297 6.312430 5.216004
v -1.269153 6.321778 4.717380
v -1.166273 6.295590 4.223895
v -1.441465 6.245490 5.719419
v -1.339933 6.299983 5.221489
v -1.238599 6.311489 4.723406
v -1.138369 6.287421 4.229689
v -1.425166 6.211078 5.714437
v -1.325647 6.270297 5.220898
v -1.225907 6.286981 4.725208
v -1.126880 6.267992 4.232009
v -1.438465 6.176827 5.703276
v -1.338808 6.240758 5.214576
v -1.238512 6.262599 4.721727
v -1.138537 6.248675 4.229498
v -1.473571 6.162801 5.692474
v -1.371707 6.228661 5.206227
v -1.269029 6.252625 4.715004
v -1.166512 6.240795 4.223627
v -1.509920 6.177212 5.688359
v -1.405071 6.241115 5.200742
v -1.299583 6.262928 4.708978
v -1.194417 6.248976 4.217833
v -1.149709 6.259955 3.970162
v -1.255802 6.293474 4.462324
v -1.362203 6.298847 4.955237
v -1.469716 6.263972 5.452440
v -1.129289 6.272703 3.974292
v -1.233472 6.310055 4.467307
v -1.338077 6.319330 4.961619
v -1.444222 6.288321 5.462267
v -1.100543 6.272548 3.980293
v -1.201925 6.309885 4.473893
v -1.303728 6.319145 4.968790
v -1.407072 6.288122 5.470023
v -1.080308 6.259582 3.984651
v -1.179639 6.293064 4.478224
v -1.279277 6.298401 4.972548
v -1.380028 6.263489 5.471163
v -1.080440 6.241387 3.984812
v -1.179670 6.269438 4.477763
v -1.279047 6.269251 4.970693
v -1.378932 6.228858 5.465020
v -1.100860 6.228621 3.980682
v -1.201999 6.252844 4.472779
v -1.303172 6.248755 4.964309
v -1.404426 6.204512 5.455193
v -1.149841 6.241761 3.970323
v -1.255833 6.269848 4.461863
v -1.361972 6.269698 4.953381
v -1.468620 6.229341 5.446297
v -1.129607 6.228776 3.974681
v -1.233547 6.253014 4.466193
v -1.337521 6.248940 4.957138
v -1.441576 6.204712 5.447437
v -1.046537 6.213154 3.478216
v -1.565356 6.179968 5.887670
v -1.036431 6.224936 3.479902
v -1.552771 6.213781 5.899988
v -1.012325 6.229707 3.484759
v -1.518859 6.227632 5.911081
v -0.988339 6.224678 3.489942
v -1.483486 6.213408 5.914452
v -0.978525 6.212788 3.492415
v -1.467372 6.179441 5.908125
v -0.988631 6.200996 3.490729
v -1.479958 6.145629 5.895807
v -1.012738 6.196209 3.485873
v -1.513870 6.131779 5.884713
v -1.036723 6.201255 3.480690
v -1.549243 6.146002 5.881343
v -1.571240 6.163221 6.010378
v -1.563600 6.184051 6.018239
v -1.542863 6.192585 6.025163
v -1.521177 6.183823 6.027095
v -1.511246 6.162898 6.022902
v -1.518886 6.142067 6.015042
v -1.539623 6.133534 6.008118
v -1.561308 6.142296 6.006186
v -1.152752 6.250876 3.969621
v -1.259084 6.281681 4.461411
v -1.365644 6.284292 4.953567
v -1.473015 6.246676 5.448565
v -1.459769 6.278697 5.457236
v -1.352672 6.311235 4.958038
v -1.246945 6.303507 4.464367
v -1.141595 6.267673 3.971776
v -1.425761 6.291809 5.466781
v -1.320927 6.322258 4.965396
v -1.217695 6.312415 4.470647
v -1.114902 6.274507 3.977276
v -1.390910 6.278327 5.471611
v -1.289005 6.310893 4.971330
v -1.188469 6.303192 4.476574
v -1.088311 6.267386 3.982900
v -1.375633 6.246152 5.468895
v -1.275605 6.283808 4.972363
v -1.176387 6.281235 4.478675
v -1.077397 6.250471 3.985353
v -1.388879 6.214136 5.460224
v -1.288577 6.256858 4.967890
v -1.188527 6.259399 4.475719
v -1.088555 6.233661 3.983198
v -1.422888 6.201025 5.450679
v -1.320323 6.245822 4.960531
v -1.217776 6.250480 4.469439
v -1.115247 6.226812 3.977698
v -1.457738 6.214506 5.445849
v -1.352245 6.257201 4.954598
v -1.247002 6.259714 4.463512
v -1.141838 6.233948 3.972075
vt 0.5919 0.5625
vt 0.5592 0.5625
vt 0.5592 0.5000
vt 0.5919 0.5000
vt 0.6163 0.5000
vt 0.6163 0.5625
vt 0.6163 0.6250
vt 0.5919 0.6250
vt 0.5592 0.6250
vt 0.5919 0.6875
vt 0.5592 0.6875
vt 0.6163 0.6875
vt 0.6163 0.7500
vt 0.5919 0.7500
vt 0.5592 0.7500
vt 0.5919 0.8125
vt 0.5592 0.8125
vt 0.6163 0.8125
vt 0.6163 0.8750
vt 0.5919 0.8750
vt 0.5592 0.8750
vt 0.5919 0.9375
vt 0.5592 0.9375
vt 0.6163 0.9375
vt 0.6163 0.9999
vt 0.5919 0.9999
vt 0.5592 0.9999
vt 0.5919 0.0626
vt 0.5592 0.0626
vt 0.5592 0.0001
vt 0.5919 0.0001
vt 0.6163 0.0001
vt 0.6163 0.0626
vt 0.6163 0.1250
vt 0.5919 0.1250
vt 0.5592 0.1250
vt 0.5919 0.1875
vt 0.5592 0.1875
vt 0.6163 0.1875
vt 0.6163 0.2500
vt 0.5919 0.2500
vt 0.5592 0.2500
vt 0.5919 0.4375
vt 0.5592 0.4375
vt 0.5592 0.3750
vt 0.5919 0.3750
vt 0.6163 0.3750
vt 0.6163 0.4375
vt 0.5919 0.3125
vt 0.5592 0.3125
vt 0.6163 0.3125
vt 0.6245 0.6875
vt 0.6245 0.7500
vt 0.6245 0.6250
vt 0.6245 0.6250
vt 0.6245 0.6875
vt 0.6245 0.7500
vt 0.6245 0.8125
vt 0.6245 0.8750
vt 0.6245 0.8125
vt 0.6245 0.8750
vt 0.6245 0.5625
vt 0.6245 0.5000
vt 0.6245 0.5000
vt 0.6245 0.5625
vt 0.6245 0.9375
vt 0.6245 0.9999
vt 0.6245 0.9375
vt 0.6245 0.9999
vt 0.6245 0.0626
vt 0.6245 0.1250
vt 0.6245 0.0001
vt 0.6245 0.0001
vt 0.6245 0.0626
vt 0.6245 0.1250
vt 0.6245 0.1875
vt 0.6245 0.2500
vt 0.6245 0.1875
vt 0.6245 0.2500
vt 0.6245 0.3125
vt 0.6245 0.3750
vt 0.6245 0.3125
vt 0.6245 0.3750
vt 0.6245 0.4375
vt 0.6245 0.4375
vt 0.6245 0.4375
vt 0.6245 0.6875
vt 0.6245 0.6250
vt 0.6245 0.5625
vt 0.6245 0.5000
vt 0.6245 0.4375
vt 0.6245 0.3750
vt 0.6245 0.3125
vt 0.6245 0.2500
vt 0.6245 0.1875
vt 0.6245 0.1250
vt 0.6245 0.0626
vt 0.6245 0.0001
vt 0.6245 0.4375
vt 0.6245 0.8750
vt 0.6245 0.8125
vt 0.6245 0.7500
vt 0.3306 0.5625
vt 0.2979 0.5625
vt 0.2979 0.5000
vt 0.3306 0.5000
vt 0.3632 0.5000
vt 0.3632 0.5625
vt 0.3632 0.6250
vt 0.3306 0.6250
vt 0.2979 0.6250
vt 0.3959 0.5625
vt 0.3959 0.5000
vt 0.4286 0.5000
vt 0.4286 0.5625
vt 0.4286 0.6250
vt 0.3959 0.6250
vt 0.4612 0.5625
vt 0.4612 0.5000
vt 0.4939 0.5000
vt 0.4939 0.5625
vt 0.4939 0.6250
vt 0.4612 0.6250
vt 0.5265 0.5625
vt 0.5265 0.5000
vt 0.5265 0.6250
vt 0.3306 0.6875
vt 0.2979 0.6875
vt 0.3632 0.6875
vt 0.3632 0.7500
vt 0.3306 0.7500
vt 0.2979 0.7500
vt 0.3959 0.6875
vt 0.4286 0.6875
vt 0.4286 0.7500
vt 0.3959 0.7500
vt 0.4612 0.6875
vt 0.4939 0.6875
vt 0.4939 0.7500
vt 0.4612 0.7500
vt 0.5265 0.6875
vt 0.5265 0.7500
vt 0.3306 0.8125
vt 0.2979 0.8125
vt 0.3632 0.8125
vt 0.3632 0.8750
vt 0.3306 0.8750
vt 0.2979 0.8750
vt 0.3959 0.8125
vt 0.4285 0.8125
vt 0.4285 0.8750
vt 0.3959 0.8750
vt 0.4612 0.8125
vt 0.4939 0.8125
vt 0.4939 0.8750
vt 0.4612 0.8750
vt 0.5265 0.8125
vt 0.5265 0.8750
vt 0.3306 0.9375
vt 0.2979 0.9375
vt 0.3632 0.9375
vt 0.3632 0.9999
vt 0.3306 0.9999
vt 0.2979 0.9999
vt 0.3959 0.9375
vt 0.4286 0.9375
vt 0.4286 0.9999
vt 0.3959 0.9999
vt 0.4612 0.9375
vt 0.4939 0.9375
vt 0.4939 0.9999
vt 0.4612 0.9999
vt 0.5265 0.9375
vt 0.5265 0.9999
vt 0.3306 0.0626
vt 0.2979 0.0625
vt 0.2979 0.0001
vt 0.3306 0.0001
vt 0.3632 0.0001
vt 0.3632 0.0626
vt 0.3632 0.1250
vt 0.3306 0.1250
vt 0.2979 0.1250
vt 0.3959 0.0626
vt 0.3959 0.0001
vt 0.4286 0.0001
vt 0.4286 0.0626
vt 0.4286 0.1250
vt 0.3959 0.1250
vt 0.4612 0.0626
vt 0.4612 0.0001
vt 0.4939 0.0001
vt 0.4939 0.0626
vt 0.4939 0.1250
vt 0.4612 0.1250
vt 0.5265 0.0626
vt 0.5265 0.0001
vt 0.5265 0.1250
vt 0.3306 0.1875
vt 0.2979 0.1875
vt 0.3632 0.1875
vt 0.3632 0.2500
vt 0.3306 0.2500
vt 0.2979 0.2500
vt 0.3959 0.1875
vt 0.4286 0.1875
vt 0.4286 0.2500
vt 0.3959 0.2500
vt 0.4612 0.1875
vt 0.4939 0.1875
vt 0.4939 0.2500
vt 0.4612 0.2500
vt 0.5265 0.1875
vt 0.5265 0.2500
vt 0.3306 0.4375
vt 0.2979 0.4375
vt 0.2979 0.3750
vt 0.3306 0.3750
vt 0.3632 0.3750
vt 0.3632 0.4375
vt 0.3959 0.4375
vt 0.3959 0.3750
vt 0.4286 0.3750
vt 0.4286 0.4375
vt 0.4612 0.4375
vt 0.4612 0.3750
vt 0.4939 0.3750
vt 0.4939 0.4375
vt 0.5265 0.4375
vt 0.5265 0.3750
vt 0.3306 0.3125
vt 0.2979 0.3125
vt 0.3632 0.3125
vt 0.3959 0.3125
vt 0.4286 0.3125
vt 0.4612 0.3125
vt 0.4939 0.3125
vt 0.5265 0.3125
vn -0.9086 0.3966 -0.1308
vn -0.8987 0.4129 -0.1477
vn -0.9773 0.0099 -0.2116
vn -0.9789 0.0066 -0.2043
vn -0.9871 -0.0082 -0.1596
vn -0.9227 0.3756 -0.0871
vn -0.7164 0.6977 0.0046
vn -0.6962 0.7168 -0.0393
vn -0.6764 0.7336 -0.0649
vn -0.3847 0.9214 0.0552
vn -0.3654 0.9306 0.0218
vn -0.4037 0.9093 0.1011
vn -0.0342 0.9813 0.1892
vn -0.0240 0.9898 0.1405
vn -0.0159 0.9947 0.1018
vn 0.3400 0.9174 0.2065
vn 0.3357 0.9268 0.1682
vn 0.3389 0.9053 0.2561
vn 0.6619 0.6902 0.2923
vn 0.6611 0.7095 0.2440
vn 0.6534 0.7265 0.2127
vn 0.8891 0.3870 0.2445
vn 0.8869 0.4033 0.2250
vn 0.8843 0.3659 0.2901
vn 0.9684 -0.0187 0.2486
vn 0.9789 -0.0039 0.2044
vn 0.9804 -0.0007 0.1971
vn 0.9098 -0.3945 0.1292
vn 0.9046 -0.4053 0.1317
vn 0.8998 -0.4002 0.1737
vn 0.6923 -0.7172 0.0789
vn 0.6985 -0.7148 0.0338
vn 0.6842 -0.7280 0.0444
vn 0.3875 -0.9196 -0.0649
vn 0.3727 -0.9267 -0.0470
vn 0.3822 -0.9238 -0.0203
vn 0.0173 -0.9939 -0.1084
vn 0.0264 -0.9880 -0.1520
vn 0.0216 -0.9914 -0.1293
vn -0.8895 -0.3847 -0.2463
vn -0.8859 -0.3957 -0.2420
vn -0.6522 -0.7208 -0.2346
vn -0.6610 -0.7074 -0.2500
vn -0.6734 -0.7099 -0.2062
vn -0.8982 -0.3905 -0.2016
vn -0.3386 -0.9156 -0.2165
vn -0.3323 -0.9229 -0.1942
vn -0.3517 -0.9199 -0.1735
vn -0.4436 0.8486 0.2882
vn -0.0743 0.9222 0.3795
vn -0.7524 0.6290 0.1956
vn -0.7348 0.4782 0.4811
vn -0.4404 0.4484 0.7778
vn -0.1325 0.7451 0.6537
vn 0.2999 0.8446 0.4434
vn 0.6177 0.6216 0.4817
vn 0.0971 0.4455 0.8900
vn 0.4858 0.4716 0.7359
vn -0.9447 0.3104 0.1060
vn -0.9968 -0.0670 0.0422
vn -0.9331 -0.1375 0.3322
vn -0.7772 0.0570 0.6266
vn 0.8265 0.3009 0.4757
vn 0.8959 -0.0772 0.4374
vn 0.4622 0.0504 0.8853
vn 0.7208 -0.1463 0.6774
vn 0.8223 -0.4366 0.3649
vn 0.6164 -0.7367 0.2780
vn 0.4410 -0.4477 0.7779
vn 0.4693 -0.7093 0.5259
vn 0.3215 -0.9289 0.1839
vn -0.0268 -0.9943 0.1027
vn 0.1016 -0.7604 0.6414
vn -0.0826 -0.9245 0.3721
vn -0.3778 -0.9251 0.0379
vn -0.6838 -0.7297 0.0066
vn -0.3576 -0.7579 0.5456
vn -0.6478 -0.7033 0.2927
vn -0.9040 -0.4273 0.0045
vn -0.7199 -0.4415 0.5355
vn -0.1998 -0.2365 0.9509
vn -0.7851 0.5801 -0.2172
vn -0.7731 0.5961 -0.2166
vn -0.9773 -0.0044 -0.2117
vn -0.9771 0.0060 -0.2124
vn -0.9772 0.0062 -0.2123
vn -0.8108 0.5431 -0.2180
vn -0.5086 0.8422 -0.1791
vn -0.4690 0.8656 -0.1754
vn -0.4488 0.8767 -0.1729
vn -0.8308 0.5136 -0.2145
vn -0.9771 0.0073 -0.2123
vn -0.9771 0.0083 -0.2123
vn -0.8479 0.4889 -0.2050
vn -0.5735 0.8030 -0.1621
vn -0.5424 0.8215 -0.1758
vn -0.8630 0.4672 -0.1919
vn -0.9772 0.0086 -0.2122
vn -0.9772 0.0091 -0.2120
vn -0.8764 0.4478 -0.1773
vn -0.6291 0.7684 -0.1173
vn -0.6024 0.7855 -0.1414
vn -0.8883 0.4295 -0.1624
vn -0.9773 0.0094 -0.2118
vn -0.6539 0.7510 -0.0915
vn -0.2014 0.9709 -0.1295
vn -0.1888 0.9736 -0.1281
vn -0.2260 0.9652 -0.1310
vn 0.0225 0.9963 -0.0822
vn 0.0232 0.9961 -0.0854
vn 0.0234 0.9960 -0.0864
vn -0.2493 0.9603 -0.1251
vn -0.2730 0.9560 -0.1071
vn 0.0157 0.9987 -0.0493
vn 0.0204 0.9972 -0.0719
vn -0.2968 0.9515 -0.0804
vn -0.3203 0.9460 -0.0488
vn 0.0013 0.9998 0.0193
vn 0.0090 0.9998 -0.0176
vn -0.3434 0.9391 -0.0144
vn -0.0070 0.9982 0.0595
vn 0.2464 0.9685 -0.0360
vn 0.2344 0.9713 -0.0398
vn 0.2695 0.9626 -0.0276
vn 0.5464 0.8365 0.0411
vn 0.5089 0.8603 0.0288
vn 0.4895 0.8717 0.0229
vn 0.2884 0.9574 -0.0129
vn 0.3028 0.9529 0.0131
vn 0.5987 0.7967 0.0826
vn 0.5759 0.8155 0.0577
vn 0.3140 0.9482 0.0471
vn 0.3228 0.9426 0.0854
vn 0.6313 0.7617 0.1458
vn 0.6167 0.7790 0.1131
vn 0.3301 0.9355 0.1262
vn 0.6436 0.7440 0.1794
vn 0.8123 0.5715 0.1162
vn 0.8013 0.5876 0.1121
vn 0.8359 0.5343 0.1258
vn 0.9805 -0.0043 0.1964
vn 0.9805 -0.0045 0.1963
vn 0.9803 -0.0150 0.1970
vn 0.8524 0.5045 0.1369
vn 0.8641 0.4797 0.1524
vn 0.9805 -0.0022 0.1963
vn 0.9805 -0.0032 0.1963
vn 0.8725 0.4579 0.1704
vn 0.8787 0.4383 0.1891
vn 0.9804 -0.0014 0.1967
vn 0.9805 -0.0019 0.1965
vn 0.8835 0.4200 0.2074
vn 0.9804 -0.0011 0.1969
vn 0.7895 -0.5803 0.1998
vn 0.7711 -0.6050 0.1984
vn 0.8155 -0.5429 0.2006
vn 0.5140 -0.8431 0.1576
vn 0.4743 -0.8668 0.1539
vn 0.4508 -0.8797 0.1509
vn 0.8362 -0.5116 0.1972
vn 0.8539 -0.4853 0.1878
vn 0.5805 -0.8020 0.1408
vn 0.5486 -0.8216 0.1545
vn 0.8691 -0.4627 0.1749
vn 0.8824 -0.4421 0.1606
vn 0.6367 -0.7651 0.0959
vn 0.6097 -0.7835 0.1201
vn 0.8943 -0.4230 0.1460
vn 0.6616 -0.7465 0.0702
vn 0.2073 -0.9727 0.1045
vn 0.1938 -0.9756 0.1029
vn 0.2319 -0.9669 0.1061
vn -0.0170 -0.9983 0.0557
vn -0.0176 -0.9981 0.0588
vn -0.0179 -0.9980 0.0598
vn 0.2555 -0.9616 0.1002
vn 0.2796 -0.9566 0.0819
vn -0.0100 -0.9997 0.0224
vn -0.0148 -0.9988 0.0454
vn 0.3038 -0.9511 0.0550
vn 0.3276 -0.9445 0.0229
vn 0.0045 -0.9988 -0.0473
vn -0.0033 -0.9999 -0.0098
vn 0.3507 -0.9364 -0.0117
vn 0.0130 -0.9960 -0.0879
vn -0.8094 -0.5717 -0.1340
vn -0.7923 -0.5966 -0.1279
vn -0.4826 -0.8747 -0.0439
vn -0.5051 -0.8615 -0.0506
vn -0.5428 -0.8375 -0.0630
vn -0.8332 -0.5340 -0.1436
vn -0.8505 -0.5025 -0.1549
vn -0.5730 -0.8156 -0.0797
vn -0.5965 -0.7957 -0.1049
vn -0.8627 -0.4761 -0.1705
vn -0.8712 -0.4533 -0.1884
vn -0.6149 -0.7769 -0.1355
vn -0.6297 -0.7583 -0.1685
vn -0.8775 -0.4327 -0.2068
vn -0.8823 -0.4135 -0.2249
vn -0.6421 -0.7395 -0.2019
vn -0.2418 -0.9702 0.0107
vn -0.2289 -0.9733 0.0147
vn -0.2650 -0.9642 0.0023
vn -0.2841 -0.9587 -0.0125
vn -0.2989 -0.9535 -0.0388
vn -0.3102 -0.9478 -0.0732
vn -0.3191 -0.9410 -0.1121
vn -0.3264 -0.9327 -0.1531
s 1
f 1/1/1 125/2/2 181/3/3 52/4/4
f 1/1/1 52/4/4 155/5/5 51/6/6
f 1/1/1 51/6/6 157/7/7 94/8/8
f 1/1/1 94/8/8 182/9/9 125/2/2
f 2/10/10 129/11/11 182/9/9 94/8/8
f 2/10/10 94/8/8 157/7/7 55/12/12
f 2/10/10 55/12/12 159/13/13 98/14/14
f 2/10/10 98/14/14 186/15/15 129/11/11
f 3/16/16 133/17/17 186/15/15 98/14/14
f 3/16/16 98/14/14 159/13/13 58/18/18
f 3/16/16 58/18/18 161/19/19 102/20/20
f 3/16/16 102/20/20 190/21/21 133/17/17
f 4/22/22 137/23/23 190/21/21 102/20/20
f 4/22/22 102/20/20 161/19/19 61/24/24
f 4/22/22 61/24/24 163/25/25 106/26/26
f 4/22/22 106/26/26 194/27/27 137/23/23
f 5/28/28 141/29/29 194/30/27 106/31/26
f 5/28/28 106/31/26 163/32/25 64/33/30
f 5/28/28 64/33/30 165/34/31 110/35/32
f 5/28/28 110/35/32 198/36/33 141/29/29
f 6/37/34 145/38/35 198/36/33 110/35/32
f 6/37/34 110/35/32 165/34/31 67/39/36
f 6/37/34 67/39/36 167/40/37 114/41/38
f 6/37/34 114/41/38 202/42/39 145/38/35
f 7/43/40 149/44/41 206/45/42 118/46/43
f 7/43/40 118/46/43 169/47/44 73/48/45
f 7/43/40 73/48/45 155/5/5 52/4/4
f 7/43/40 52/4/4 181/3/3 149/44/41
f 8/49/46 153/50/47 202/42/39 114/41/38
f 8/49/46 114/41/38 167/40/37 70/51/48
f 8/49/46 70/51/48 169/47/44 118/46/43
f 8/49/46 118/46/43 206/45/42 153/50/47
f 9/52/49 83/53/50 159/13/13 55/12/12
f 9/52/49 55/12/12 157/7/7 82/54/51
f 9/52/49 82/54/51 171/55/52 75/56/53
f 9/52/49 75/56/53 172/57/54 83/53/50
f 10/58/55 84/59/56 161/19/19 58/18/18
f 10/58/55 58/18/18 159/13/13 83/53/50
f 10/58/55 83/53/50 172/57/54 76/60/57
f 10/58/55 76/60/57 173/61/58 84/59/56
f 11/62/59 82/54/51 157/7/7 51/6/6
f 11/62/59 51/6/6 155/5/5 85/63/60
f 11/62/59 85/63/60 170/64/61 74/65/62
f 11/62/59 74/65/62 171/55/52 82/54/51
f 12/66/63 86/67/64 163/25/25 61/24/24
f 12/66/63 61/24/24 161/19/19 84/59/56
f 12/66/63 84/59/56 173/61/58 77/68/65
f 12/66/63 77/68/65 174/69/66 86/67/64
f 13/70/67 87/71/68 165/34/31 64/33/30
f 13/70/67 64/33/30 163/32/25 86/72/64
f 13/70/67 86/72/64 174/73/66 78/74/69
f 13/70/67 78/74/69 175/75/70 87/71/68
f 14/76/71 88/77/72 167/40/37 67/39/36
f 14/76/71 67/39/36 165/34/31 87/71/68
f 14/76/71 87/71/68 175/75/70 79/78/73
f 14/76/71 79/78/73 176/79/74 88/77/72
f 15/80/75 89/81/76 169/47/44 70/51/48
f 15/80/75 70/51/48 167/40/37 88/77/72
f 15/80/75 88/77/72 176/79/74 80/82/77
f 15/80/75 80/82/77 177/83/78 89/81/76
f 16/84/79 85/63/60 155/5/5 73/48/45
f 16/84/79 73/48/45 169/47/44 89/81/76
f 16/84/79 89/81/76 177/83/78 81/85/80
f 16/84/79 81/85/80 170/64/61 85/63/60
f 17/86/81 76/87/57 172/88/54 75/89/53
f 17/86/81 75/89/53 171/90/52 74/91/62
f 17/86/81 74/91/62 170/92/61 81/93/80
f 17/86/81 81/93/80 177/94/78 80/95/77
f 17/86/81 80/95/77 176/96/74 79/97/73
f 17/86/81 79/97/73 175/98/70 78/99/69
f 17/86/81 78/99/69 174/100/66 77/101/65
f 17/86/81 77/101/65 173/102/58 76/87/57
f 18/103/82 50/104/83 154/105/84 90/106/85
f 18/103/82 90/106/85 178/107/86 122/108/87
f 18/103/82 122/108/87 185/109/88 53/110/89
f 18/103/82 53/110/89 156/111/90 50/104/83
f 19/112/91 122/108/87 178/107/86 91/113/92
f 19/112/91 91/113/92 179/114/93 123/115/94
f 19/112/91 123/115/94 184/116/95 97/117/96
f 19/112/91 97/117/96 185/109/88 122/108/87
f 20/118/97 123/115/94 179/114/93 92/119/98
f 20/118/97 92/119/98 180/120/99 124/121/100
f 20/118/97 124/121/100 183/122/101 96/123/102
f 20/118/97 96/123/102 184/116/95 123/115/94
f 21/124/103 124/121/100 180/120/99 93/125/104
f 21/124/103 93/125/104 181/3/3 125/2/2
f 21/124/103 125/2/2 182/9/9 95/126/105
f 21/124/103 95/126/105 183/122/101 124/121/100
f 22/127/106 54/128/107 156/111/90 53/110/89
f 22/127/106 53/110/89 185/109/88 126/129/108
f 22/127/106 126/129/108 189/130/109 56/131/110
f 22/127/106 56/131/110 158/132/111 54/128/107
f 23/133/112 126/129/108 185/109/88 97/117/96
f 23/133/112 97/117/96 184/116/95 127/134/113
f 23/133/112 127/134/113 188/135/114 101/136/115
f 23/133/112 101/136/115 189/130/109 126/129/108
f 24/137/116 127/134/113 184/116/95 96/123/102
f 24/137/116 96/123/102 183/122/101 128/138/117
f 24/137/116 128/138/117 187/139/118 100/140/119
f 24/137/116 100/140/119 188/135/114 127/134/113
f 25/141/120 128/138/117 183/122/101 95/126/105
f 25/141/120 95/126/105 182/9/9 129/11/11
f 25/141/120 129/11/11 186/15/15 99/142/121
f 25/141/120 99/142/121 187/139/118 128/138/117
f 26/143/122 57/144/123 158/132/111 56/131/110
f 26/143/122 56/131/110 189/130/109 130/145/124
f 26/143/122 130/145/124 193/146/125 59/147/126
f 26/143/122 59/147/126 160/148/127 57/144/123
f 27/149/128 130/145/124 189/130/109 101/136/115
f 27/149/128 101/136/115 188/135/114 131/150/129
f 27/149/128 131/150/129 192/151/130 105/152/131
f 27/149/128 105/152/131 193/146/125 130/145/124
f 28/153/132 131/150/129 188/135/114 100/140/119
f 28/153/132 100/140/119 187/139/118 132/154/133
f 28/153/132 132/154/133 191/155/134 104/156/135
f 28/153/132 104/156/135 192/151/130 131/150/129
f 29/157/136 132/154/133 187/139/118 99/142/121
f 29/157/136 99/142/121 186/15/15 133/17/17
f 29/157/136 133/17/17 190/21/21 103/158/137
f 29/157/136 103/158/137 191/155/134 132/154/133
f 30/159/138 60/160/139 160/148/127 59/147/126
f 30/159/138 59/147/126 193/146/125 134/161/140
f 30/159/138 134/161/140 197/162/141 62/163/142
f 30/159/138 62/163/142 162/164/143 60/160/139
f 31/165/144 134/161/140 193/146/125 105/152/131
f 31/165/144 105/152/131 192/151/130 135/166/145
f 31/165/144 135/166/145 196/167/146 109/168/147
f 31/165/144 109/168/147 197/162/141 134/161/140
f 32/169/148 135/166/145 192/151/130 104/156/135
f 32/169/148 104/156/135 191/155/134 136/170/149
f 32/169/148 136/170/149 195/171/150 108/172/151
f 32/169/148 108/172/151 196/167/146 135/166/145
f 33/173/152 136/170/149 191/155/134 103/158/137
f 33/173/152 103/158/137 190/21/21 137/23/23
f 33/173/152 137/23/23 194/27/27 107/174/153
f 33/173/152 107/174/153 195/171/150 136/170/149
f 34/175/154 63/176/155 162/177/143 62/178/142
f 34/175/154 62/178/142 197/179/141 138/180/156
f 34/175/154 138/180/156 201/181/157 65/182/158
f 34/175/154 65/182/158 164/183/159 63/176/155
f 35/184/160 138/180/156 197/179/141 109/185/147
f 35/184/160 109/185/147 196/186/146 139/187/161
f 35/184/160 139/187/161 200/188/162 113/189/163
f 35/184/160 113/189/163 201/181/157 138/180/156
f 36/190/164 139/187/161 196/186/146 108/191/151
f 36/190/164 108/191/151 195/192/150 140/193/165
f 36/190/164 140/193/165 199/194/166 112/195/167
f 36/190/164 112/195/167 200/188/162 139/187/161
f 37/196/168 140/193/165 195/192/150 107/197/153
f 37/196/168 107/197/153 194/30/27 141/29/29
f 37/196/168 141/29/29 198/36/33 111/198/169
f 37/196/168 111/198/169 199/194/166 140/193/165
f 38/199/170 66/200/171 164/183/159 65/182/158
f 38/199/170 65/182/158 201/181/157 142/201/172
f 38/199/170 142/201/172 205/202/173 68/203/174
f 38/199/170 68/203/174 166/204/175 66/200/171
f 39/205/176 142/201/172 201/181/157 113/189/163
f 39/205/176 113/189/163 200/188/162 143/206/177
f 39/205/176 143/206/177 204/207/178 117/208/179
f 39/205/176 117/208/179 205/202/173 142/201/172
f 40/209/180 143/206/177 200/188/162 112/195/167
f 40/209/180 112/195/167 199/194/166 144/210/181
f 40/209/180 144/210/181 203/211/182 116/212/183
f 40/209/180 116/212/183 204/207/178 143/206/177
f 41/213/184 144/210/181 199/194/166 111/198/169
f 41/213/184 111/198/169 198/36/33 145/38/35
f 41/213/184 145/38/35 202/42/39 115/214/185
f 41/213/184 115/214/185 203/211/182 144/210/181
f 42/215/186 72/216/187 168/217/188 71/218/189
f 42/215/186 71/218/189 209/219/190 146/220/191
f 42/215/186 146/220/191 178/107/86 90/106/85
f 42/215/186 90/106/85 154/105/84 72/216/187
f 43/221/192 146/220/191 209/219/190 121/222/193
f 43/221/192 121/222/193 208/223/194 147/224/195
f 43/221/192 147/224/195 179/114/93 91/113/92
f 43/221/192 91/113/92 178/107/86 146/220/191
f 44/225/196 147/224/195 208/223/194 120/226/197
f 44/225/196 120/226/197 207/227/198 148/228/199
f 44/225/196 148/228/199 180/120/99 92/119/98
f 44/225/196 92/119/98 179/114/93 147/224/195
f 45/229/200 148/228/199 207/227/198 119/230/201
f 45/229/200 119/230/201 206/45/42 149/44/41
f 45/229/200 149/44/41 181/3/3 93/125/104
f 45/229/200 93/125/104 180/120/99 148/228/199
f 46/231/202 69/232/203 166/204/175 68/203/174
f 46/231/202 68/203/174 205/202/173 150/233/204
f 46/231/202 150/233/204 209/219/190 71/218/189
f 46/231/202 71/218/189 168/217/188 69/232/203
f 47/234/205 150/233/204 205/202/173 117/208/179
f 47/234/205 117/208/179 204/207/178 151/235/206
f 47/234/205 151/235/206 208/223/194 121/222/193
f 47/234/205 121/222/193 209/219/190 150/233/204
f 48/236/207 151/235/206 204/207/178 116/212/183
f 48/236/207 116/212/183 203/211/182 152/237/208
f 48/236/207 152/237/208 207/227/198 120/226/197
f 48/236/207 120/226/197 208/223/194 151/235/206
f 49/238/209 152/237/208 203/211/182 115/214/185
f 49/238/209 115/214/185 202/42/39 153/50/47
f 49/238/209 153/50/47 206/45/42 119/230/201
f 49/238/209 119/230/201 207/227/198 152/237/208
