# Blender v2.77 (sub 0) OBJ File: 'still_blendswap1.blend'
# www.blender.org
o Cylinder.041
v -1.202826 6.699512 5.958477
v -1.242319 6.718958 5.959375
v -1.259012 6.759276 5.948290
v -1.243128 6.796847 5.931715
v -1.203973 6.809662 5.919360
v -1.164485 6.790214 5.918462
v -1.163672 6.712327 5.946121
v -1.147791 6.749896 5.929547
v -1.198471 6.828693 6.274709
v -1.211923 6.861184 6.265776
v -1.166062 6.812862 6.272528
v -1.198540 6.891302 6.250961
v -1.166160 6.901404 6.238943
v -1.133752 6.885573 6.236762
v -1.120299 6.853083 6.245695
v -1.133682 6.822965 6.260509
v -1.162483 6.872048 6.304519
v -1.147517 6.135358 3.759147
v -1.204603 6.258803 4.310135
v -1.243787 6.389390 4.860137
v -1.245752 6.535747 5.411452
v -1.167354 6.150984 3.754128
v -1.229326 6.275000 4.305155
v -1.273451 6.406218 4.855499
v -1.280485 6.553591 5.408748
v -1.179196 6.179584 3.746264
v -1.242381 6.306530 4.296486
v -1.287718 6.440677 4.846025
v -1.295965 6.590980 5.398468
v -1.176105 6.204405 3.740163
v -1.236120 6.334922 4.289207
v -1.278232 6.472581 4.837265
v -1.283125 6.626010 5.386635
v -1.159881 6.210912 3.739396
v -1.214199 6.343551 4.287580
v -1.250546 6.483243 4.834349
v -1.249491 6.638162 5.380178
v -1.140024 6.195294 3.744414
v -1.189459 6.327361 4.292559
v -1.220867 6.466421 4.838985
v -1.214753 6.620319 5.382881
v -1.131292 6.141865 3.758380
v -1.182682 6.267432 4.308508
v -1.216101 6.400051 4.857222
v -1.212118 6.547898 5.404996
v -1.128183 6.166694 3.752278
v -1.176405 6.295832 4.301228
v -1.206599 6.431962 4.848459
v -1.199272 6.582931 5.393160
v -1.117874 6.074132 3.483802
v -1.177060 6.770737 6.172024
v -1.181520 6.701744 5.953447
v -1.157757 6.140601 3.757269
v -1.135273 6.089493 3.478846
v -1.215874 6.789735 6.174197
v -1.174953 6.164611 3.750275
v -1.146508 6.116629 3.471385
v -1.232060 6.828829 6.163448
v -1.179706 6.193612 3.742694
v -1.144998 6.139643 3.465790
v -1.216138 6.865117 6.146075
v -1.169221 6.210619 3.738965
v -1.131618 6.145058 3.465337
v -1.177434 6.877341 6.132254
v -1.149633 6.205673 3.741273
v -1.114202 6.129704 3.470292
v -1.138622 6.858342 6.130081
v -1.132420 6.181669 3.748267
v -1.102967 6.102569 3.477753
v -1.122435 6.819249 6.140830
v -1.127683 6.152662 3.755849
v -1.104494 6.079547 3.483349
v -1.138357 6.782962 6.158203
v -1.163360 6.841446 6.302516
v -1.183033 6.851056 6.303841
v -1.191198 6.870778 6.298418
v -1.183074 6.889060 6.289425
v -1.163420 6.895192 6.282130
v -1.143748 6.885583 6.280806
v -1.135582 6.865860 6.286229
v -1.143706 6.847579 6.295221
v -1.183652 6.817659 6.275152
v -1.208550 6.843893 6.271487
v -1.208587 6.877882 6.258595
v -1.148479 6.814549 6.267444
v -1.183743 6.899717 6.244027
v -1.148570 6.896607 6.236318
v -1.123672 6.870374 6.239984
v -1.123635 6.836384 6.252876
v -1.138180 6.135650 3.759578
v -1.192293 6.259852 4.310219
v -1.228468 6.391152 4.859661
v -1.227332 6.537951 5.409288
v -1.224217 6.705345 5.960642
v -1.264447 6.541042 5.411325
v -1.259601 6.394500 4.858725
v -1.217614 6.263961 4.308399
v -1.254721 6.737790 5.955112
v -1.291709 6.571026 5.404277
v -1.283451 6.422343 4.851064
v -1.238121 6.289872 4.300989
v -1.255159 6.780076 5.940095
v -1.293141 6.610343 5.392272
v -1.286046 6.458372 4.841164
v -1.241811 6.322403 4.292331
v -1.225279 6.807430 5.924389
v -1.267911 6.635958 5.382342
v -1.265868 6.481480 4.834826
v -1.226513 6.342501 4.287496
v -1.182584 6.803829 5.917194
v -1.230795 6.632867 5.380304
v -1.234726 6.478135 4.835760
v -1.201180 6.338397 4.289315
v -1.152084 6.771382 5.922725
v -1.203525 6.602885 5.387352
v -1.210860 6.450297 4.843420
v -1.180660 6.312491 4.296724
v -1.151642 6.729097 5.937741
v -1.202101 6.563566 5.399358
v -1.208280 6.414263 4.853321
v -1.176983 6.279955 4.305383
v -1.176610 6.196833 4.034566
v -1.228121 6.322559 4.585457
v -1.250149 6.460163 5.135145
v -1.230133 6.615684 5.686686
v -1.198888 6.212733 4.029525
v -1.255302 6.339067 4.580614
v -1.282326 6.477407 5.131111
v -1.267343 6.634274 5.685730
v -1.211336 6.242798 4.021259
v -1.268963 6.372061 4.571542
v -1.297200 6.513331 5.121233
v -1.283430 6.673127 5.675047
v -1.206662 6.269415 4.014610
v -1.261101 6.402215 4.563557
v -1.286058 6.546890 5.111300
v -1.268970 6.709483 5.660896
v -1.187592 6.276999 4.013472
v -1.236314 6.411867 4.561334
v -1.255428 6.558425 5.107129
v -1.232438 6.722043 5.651566
v -1.165295 6.261106 4.018512
v -1.209117 6.395365 4.566176
v -1.223236 6.541186 5.111161
v -1.195231 6.703452 5.652522
v -1.157539 6.204416 4.033428
v -1.203333 6.332211 4.583235
v -1.219519 6.471698 5.130974
v -1.193601 6.628244 5.677355
v -1.152846 6.231041 4.026778
v -1.195456 6.362370 4.575248
v -1.208362 6.505262 5.121038
v -1.179144 6.664598 5.663204
v -1.110022 6.074029 3.484348
v -1.156032 6.772801 6.166226
v -1.126731 6.079429 3.481904
v -1.198116 6.776478 6.174909
v -1.142275 6.102501 3.475163
v -1.227975 6.808016 6.170253
v -1.147556 6.129726 3.468075
v -1.228118 6.848940 6.154986
v -1.139473 6.145160 3.464791
v -1.198462 6.875277 6.138051
v -1.122755 6.139764 3.467235
v -1.156379 6.871600 6.129369
v -1.107194 6.116699 3.473975
v -1.126521 6.840062 6.134025
v -1.101930 6.089467 3.481064
v -1.126377 6.799138 6.149292
v -1.151106 6.834047 6.291463
v -1.177018 6.836338 6.297142
v -1.195361 6.855665 6.294442
v -1.195388 6.880705 6.284944
v -1.177085 6.896791 6.274212
v -1.151173 6.894500 6.268533
v -1.132830 6.875174 6.271233
v -1.132803 6.850133 6.280731
v -1.165787 6.197510 4.034853
v -1.214314 6.323968 4.585286
v -1.233294 6.462210 5.134083
v -1.210200 6.617940 5.683127
v -1.250235 6.621214 5.687674
v -1.267390 6.465310 5.134156
v -1.242526 6.327691 4.583862
v -1.188234 6.202026 4.032734
v -1.279171 6.652399 5.681355
v -1.292936 6.494174 5.126604
v -1.264699 6.354565 4.576308
v -1.207084 6.226981 4.025510
v -1.280053 6.693230 5.667873
v -1.294960 6.531897 5.115849
v -1.267848 6.388847 4.567048
v -1.211307 6.257753 4.017413
v -1.252369 6.719787 5.655125
v -1.272284 6.556377 5.108192
v -1.250124 6.410457 4.561506
v -1.198418 6.276320 4.013185
v -1.212338 6.716512 5.650578
v -1.238181 6.553279 5.108117
v -1.221901 6.406738 4.562928
v -1.175958 6.271809 4.015303
v -1.183404 6.685326 5.656897
v -1.212620 6.524422 5.115667
v -1.199717 6.379869 4.570482
v -1.157093 6.246860 4.022527
v -1.182520 6.644495 5.670379
v -1.210612 6.486693 5.126424
v -1.196580 6.345582 4.579743
v -1.152885 6.216082 4.030625
vt 0.5919 0.5625
vt 0.5592 0.5625
vt 0.5592 0.5000
vt 0.5919 0.5000
vt 0.6163 0.5000
vt 0.6163 0.5625
vt 0.6163 0.6250
vt 0.5919 0.6250
vt 0.5592 0.6250
vt 0.5919 0.6875
vt 0.5592 0.6875
vt 0.6163 0.6875
vt 0.6163 0.7500
vt 0.5919 0.7500
vt 0.5592 0.7500
vt 0.5919 0.8125
vt 0.5592 0.8125
vt 0.6163 0.8125
vt 0.6163 0.8750
vt 0.5919 0.8750
vt 0.5592 0.8750
vt 0.5919 0.9375
vt 0.5592 0.9375
vt 0.6163 0.9375
vt 0.6163 0.9999
vt 0.5919 0.9999
vt 0.5592 0.9999
vt 0.5919 0.0626
vt 0.5592 0.0626
vt 0.5592 0.0001
vt 0.5919 0.0001
vt 0.6163 0.0001
vt 0.6163 0.0626
vt 0.6163 0.1250
vt 0.5919 0.1250
vt 0.5592 0.1250
vt 0.5919 0.1875
vt 0.5592 0.1875
vt 0.6163 0.1875
vt 0.6163 0.2500
vt 0.5919 0.2500
vt 0.5592 0.2500
vt 0.5919 0.4375
vt 0.5592 0.4375
vt 0.5592 0.3750
vt 0.5919 0.3750
vt 0.6163 0.3750
vt 0.6163 0.4375
vt 0.5919 0.3125
vt 0.5592 0.3125
vt 0.6163 0.3125
vt 0.6245 0.6875
vt 0.6245 0.7500
vt 0.6245 0.6250
vt 0.6245 0.6250
vt 0.6245 0.6875
vt 0.6245 0.7500
vt 0.6245 0.8125
vt 0.6245 0.8750
vt 0.6245 0.8125
vt 0.6245 0.8750
vt 0.6245 0.5625
vt 0.6245 0.5000
vt 0.6245 0.5000
vt 0.6245 0.5625
vt 0.6245 0.9375
vt 0.6245 0.9999
vt 0.6245 0.9375
vt 0.6245 0.9999
vt 0.6245 0.0626
vt 0.6245 0.1250
vt 0.6245 0.0001
vt 0.6245 0.0001
vt 0.6245 0.0626
vt 0.6245 0.1250
vt 0.6245 0.1875
vt 0.6245 0.2500
vt 0.6245 0.1875
vt 0.6245 0.2500
vt 0.6245 0.3125
vt 0.6245 0.3750
vt 0.6245 0.3125
vt 0.6245 0.3750
vt 0.6245 0.4375
vt 0.6245 0.4375
vt 0.6245 0.4375
vt 0.6245 0.6875
vt 0.6245 0.6250
vt 0.6245 0.5625
vt 0.6245 0.5000
vt 0.6245 0.4375
vt 0.6245 0.3750
vt 0.6245 0.3125
vt 0.6245 0.2500
vt 0.6245 0.1875
vt 0.6245 0.1250
vt 0.6245 0.0626
vt 0.6245 0.0001
vt 0.6245 0.4375
vt 0.6245 0.8750
vt 0.6245 0.8125
vt 0.6245 0.7500
vt 0.3306 0.5625
vt 0.2979 0.5625
vt 0.2979 0.5000
vt 0.3306 0.5000
vt 0.3632 0.5000
vt 0.3632 0.5625
vt 0.3632 0.6250
vt 0.3306 0.6250
vt 0.2979 0.6250
vt 0.3959 0.5625
vt 0.3959 0.5000
vt 0.4286 0.5000
vt 0.4286 0.5625
vt 0.4286 0.6250
vt 0.3959 0.6250
vt 0.4612 0.5625
vt 0.4612 0.5000
vt 0.4939 0.5000
vt 0.4939 0.5625
vt 0.4939 0.6250
vt 0.4612 0.6250
vt 0.5265 0.5625
vt 0.5265 0.5000
vt 0.5265 0.6250
vt 0.3306 0.6875
vt 0.2979 0.6875
vt 0.3632 0.6875
vt 0.3632 0.7500
vt 0.3306 0.7500
vt 0.2979 0.7500
vt 0.3959 0.6875
vt 0.4286 0.6875
vt 0.4286 0.7500
vt 0.3959 0.7500
vt 0.4612 0.6875
vt 0.4939 0.6875
vt 0.4939 0.7500
vt 0.4612 0.7500
vt 0.5265 0.6875
vt 0.5265 0.7500
vt 0.3306 0.8125
vt 0.2979 0.8125
vt 0.3632 0.8125
vt 0.3632 0.8750
vt 0.3306 0.8750
vt 0.2979 0.8750
vt 0.3959 0.8125
vt 0.4285 0.8125
vt 0.4285 0.8750
vt 0.3959 0.8750
vt 0.4612 0.8125
vt 0.4939 0.8125
vt 0.4939 0.8750
vt 0.4612 0.8750
vt 0.5265 0.8125
vt 0.5265 0.8750
vt 0.3306 0.9375
vt 0.2979 0.9375
vt 0.3632 0.9375
vt 0.3632 0.9999
vt 0.3306 0.9999
vt 0.2979 0.9999
vt 0.3959 0.9375
vt 0.4286 0.9375
vt 0.4286 0.9999
vt 0.3959 0.9999
vt 0.4612 0.9375
vt 0.4939 0.9375
vt 0.4939 0.9999
vt 0.4612 0.9999
vt 0.5265 0.9375
vt 0.5265 0.9999
vt 0.3306 0.0626
vt 0.2979 0.0625
vt 0.2979 0.0001
vt 0.3306 0.0001
vt 0.3632 0.0001
vt 0.3632 0.0626
vt 0.3632 0.1250
vt 0.3306 0.1250
vt 0.2979 0.1250
vt 0.3959 0.0626
vt 0.3959 0.0001
vt 0.4286 0.0001
vt 0.4286 0.0626
vt 0.4286 0.1250
vt 0.3959 0.1250
vt 0.4612 0.0626
vt 0.4612 0.0001
vt 0.4939 0.0001
vt 0.4939 0.0626
vt 0.4939 0.1250
vt 0.4612 0.1250
vt 0.5265 0.0626
vt 0.5265 0.0001
vt 0.5265 0.1250
vt 0.3306 0.1875
vt 0.2979 0.1875
vt 0.3632 0.1875
vt 0.3632 0.2500
vt 0.3306 0.2500
vt 0.2979 0.2500
vt 0.3959 0.1875
vt 0.4286 0.1875
vt 0.4286 0.2500
vt 0.3959 0.2500
vt 0.4612 0.1875
vt 0.4939 0.1875
vt 0.4939 0.2500
vt 0.4612 0.2500
vt 0.5265 0.1875
vt 0.5265 0.2500
vt 0.3306 0.4375
vt 0.2979 0.4375
vt 0.2979 0.3750
vt 0.3306 0.3750
vt 0.3632 0.3750
vt 0.3632 0.4375
vt 0.3959 0.4375
vt 0.3959 0.3750
vt 0.4286 0.3750
vt 0.4286 0.4375
vt 0.4612 0.4375
vt 0.4612 0.3750
vt 0.4939 0.3750
vt 0.4939 0.4375
vt 0.5265 0.4375
vt 0.5265 0.3750
vt 0.3306 0.3125
vt 0.2979 0.3125
vt 0.3632 0.3125
vt 0.3959 0.3125
vt 0.4286 0.3125
vt 0.4612 0.3125
vt 0.4939 0.3125
vt 0.5265 0.3125
vn -0.0291 -0.9509 0.3081
vn -0.0461 -0.9561 0.2893
vn 0.3666 -0.8990 0.2392
vn 0.3695 -0.8960 0.2463
vn 0.3815 -0.8777 0.2897
vn -0.0090 -0.9357 0.3527
vn -0.3928 -0.8439 0.3655
vn -0.4131 -0.8534 0.3179
vn -0.4331 -0.8544 0.2872
vn -0.7229 -0.6318 0.2796
vn -0.7348 -0.6338 0.2416
vn -0.7098 -0.6231 0.3285
vn -0.9168 -0.3106 0.2509
vn -0.9231 -0.3263 0.2032
vn -0.9265 -0.3382 0.1651
vn -0.9948 0.0247 0.0991
vn -0.9977 0.0013 0.0670
vn -0.9884 0.0497 0.1435
vn -0.9119 0.4098 0.0208
vn -0.9243 0.3811 -0.0215
vn -0.9338 0.3549 -0.0453
vn -0.7088 0.6907 -0.1432
vn -0.7211 0.6743 -0.1589
vn -0.6923 0.7145 -0.1010
vn -0.3591 0.9111 -0.2021
vn -0.3720 0.8950 -0.2461
vn -0.3748 0.8918 -0.2532
vn 0.0268 0.9504 -0.3099
vn 0.0385 0.9512 -0.3060
vn 0.0309 0.9636 -0.2654
vn 0.4107 0.8675 -0.2804
vn 0.4110 0.8521 -0.3239
vn 0.4272 0.8498 -0.3088
vn 0.7213 0.6292 -0.2895
vn 0.7313 0.6275 -0.2673
vn 0.7223 0.6458 -0.2472
vn 0.9260 0.3362 -0.1716
vn 0.9219 0.3227 -0.2145
vn 0.9243 0.3298 -0.1922
vn 0.7071 -0.6927 0.1419
vn 0.7155 -0.6837 0.1435
vn 0.9304 -0.3656 0.0253
vn 0.9230 -0.3844 0.0160
vn 0.9251 -0.3748 0.0611
vn 0.7108 -0.6783 0.1861
vn 0.9937 -0.0286 -0.1086
vn 0.9957 -0.0111 -0.0917
vn 0.9977 -0.0193 -0.0643
vn -0.6591 -0.5524 0.5103
vn -0.8677 -0.2395 0.4355
vn -0.3360 -0.7650 0.5493
vn -0.2325 -0.5698 0.7881
vn -0.3413 -0.1918 0.9201
vn -0.7107 -0.1030 0.6958
vn -0.9379 0.1209 0.3252
vn -0.8520 0.4810 0.2067
vn -0.5429 0.2948 0.7863
vn -0.6909 0.5372 0.4838
vn 0.0389 -0.8451 0.5331
vn 0.4177 -0.7755 0.4733
vn 0.4279 -0.5695 0.7018
vn 0.1580 -0.3860 0.9088
vn -0.6303 0.7712 0.0887
vn -0.2985 0.9544 -0.0022
vn -0.3077 0.7388 0.5996
vn -0.1961 0.9375 0.2875
vn 0.0721 0.9956 -0.0598
vn 0.4341 0.8983 -0.0681
vn 0.1737 0.8606 0.4788
vn 0.4342 0.8728 0.2227
vn 0.7268 0.6858 -0.0367
vn 0.9195 0.3912 0.0380
vn 0.5990 0.6399 0.4813
vn 0.8451 0.4353 0.3105
vn 0.9891 0.0523 0.1375
vn 0.9237 -0.2842 0.2569
vn 0.7714 0.2236 0.5957
vn 0.8538 -0.1405 0.5013
vn 0.7244 -0.5796 0.3732
vn 0.6100 -0.1932 0.7685
vn 0.1881 0.3320 0.9243
vn -0.2350 -0.9538 0.1871
vn -0.2542 -0.9496 0.1835
vn 0.3801 -0.8937 0.2382
vn 0.3703 -0.8978 0.2381
vn 0.3702 -0.8979 0.2382
vn -0.1913 -0.9619 0.1953
vn -0.5811 -0.8053 0.1172
vn -0.6171 -0.7798 0.1048
vn -0.6349 -0.7662 0.0988
vn -0.1570 -0.9660 0.2053
vn 0.3691 -0.8983 0.2383
vn 0.3681 -0.8987 0.2383
vn -0.1290 -0.9669 0.2199
vn -0.5236 -0.8371 0.1585
vn -0.5503 -0.8242 0.1337
vn -0.1047 -0.9658 0.2371
vn 0.3678 -0.8987 0.2385
vn 0.3674 -0.8989 0.2388
vn -0.0833 -0.9633 0.2549
vn -0.4766 -0.8508 0.2212
vn -0.4994 -0.8455 0.1888
vn -0.0637 -0.9600 0.2725
vn 0.3671 -0.8989 0.2390
vn -0.4543 -0.8537 0.2544
vn -0.8140 -0.5797 0.0360
vn -0.8211 -0.5699 0.0319
vn -0.7999 -0.5984 0.0450
vn -0.9221 -0.3866 -0.0174
vn -0.9217 -0.3873 -0.0205
vn -0.9216 -0.3875 -0.0215
vn -0.7877 -0.6131 0.0602
vn -0.7773 -0.6231 0.0865
vn -0.9253 -0.3789 0.0154
vn -0.9232 -0.3842 -0.0071
vn -0.7676 -0.6294 0.1207
vn -0.7576 -0.6330 0.1591
vn -0.9286 -0.3615 0.0836
vn -0.9274 -0.3711 0.0469
vn -0.7466 -0.6345 0.1999
vn -0.9284 -0.3504 0.1234
vn -0.9817 -0.1746 -0.0754
vn -0.9796 -0.1870 -0.0733
vn -0.9856 -0.1500 -0.0782
vn -0.9775 0.1521 -0.1460
vn -0.9844 0.1073 -0.1391
vn -0.9872 0.0846 -0.1351
vn -0.9892 -0.1263 -0.0736
vn -0.9932 -0.1018 -0.0568
vn -0.9644 0.2277 -0.1342
vn -0.9707 0.1912 -0.1455
vn -0.9966 -0.0764 -0.0313
vn -0.9987 -0.0506 -0.0010
vn -0.9509 0.2948 -0.0937
vn -0.9580 0.2622 -0.1158
vn -0.9992 -0.0245 0.0321
vn -0.9428 0.3259 -0.0699
vn -0.8379 0.5024 -0.2133
vn -0.8484 0.4854 -0.2110
vn -0.8131 0.5399 -0.2175
vn -0.3713 0.8930 -0.2541
vn -0.3711 0.8931 -0.2542
vn -0.3614 0.8971 -0.2542
vn -0.7928 0.5695 -0.2168
vn -0.7757 0.5952 -0.2096
vn -0.3734 0.8922 -0.2540
vn -0.3724 0.8926 -0.2541
vn -0.7606 0.6182 -0.1984
vn -0.7467 0.6387 -0.1856
vn -0.3741 0.8920 -0.2536
vn -0.3737 0.8921 -0.2538
vn -0.7335 0.6576 -0.1722
vn -0.3744 0.8920 -0.2534
vn 0.2355 0.9500 -0.2049
vn 0.2652 0.9433 -0.1996
vn 0.1913 0.9581 -0.2131
vn 0.5824 0.8009 -0.1390
vn 0.6187 0.7754 -0.1266
vn 0.6393 0.7595 -0.1198
vn 0.1552 0.9623 -0.2233
vn 0.1253 0.9632 -0.2379
vn 0.5225 0.8332 -0.1808
vn 0.5505 0.8202 -0.1557
vn 0.1001 0.9618 -0.2549
vn 0.0777 0.9590 -0.2724
vn 0.4731 0.8466 -0.2437
vn 0.4971 0.8416 -0.2111
vn 0.0572 0.9554 -0.2897
vn 0.4498 0.8492 -0.2767
vn 0.8162 0.5744 -0.0613
vn 0.8239 0.5639 -0.0570
vn 0.8020 0.5931 -0.0703
vn 0.9247 0.3804 -0.0090
vn 0.9245 0.3811 -0.0059
vn 0.9244 0.3814 -0.0049
vn 0.7894 0.6079 -0.0855
vn 0.7782 0.6179 -0.1122
vn 0.9272 0.3723 -0.0422
vn 0.9256 0.3779 -0.0193
vn 0.7675 0.6240 -0.1467
vn 0.7563 0.6273 -0.1856
vn 0.9286 0.3539 -0.1113
vn 0.9284 0.3640 -0.0741
vn 0.7443 0.6283 -0.2264
vn 0.9273 0.3423 -0.1514
vn 0.8390 -0.5076 0.1958
vn 0.8551 -0.4815 0.1921
vn 0.9898 -0.0869 0.1129
vn 0.9866 -0.1131 0.1177
vn 0.9795 -0.1582 0.1246
vn 0.8138 -0.5455 0.2003
vn 0.7923 -0.5765 0.1998
vn 0.9722 -0.1983 0.1243
vn 0.9651 -0.2359 0.1132
vn 0.7739 -0.6033 0.1928
vn 0.7578 -0.6266 0.1818
vn 0.9579 -0.2711 0.0948
vn 0.9497 -0.3045 0.0728
vn 0.7429 -0.6476 0.1693
vn 0.7288 -0.6666 0.1563
vn 0.9405 -0.3361 0.0491
vn 0.9845 0.1681 0.0504
vn 0.9822 0.1815 0.0481
vn 0.9882 0.1434 0.0533
vn 0.9916 0.1194 0.0488
vn 0.9950 0.0942 0.0318
vn 0.9977 0.0681 0.0061
vn 0.9988 0.0416 -0.0246
vn 0.9982 0.0150 -0.0578
s 1
f 1/1/1 125/2/2 181/3/3 52/4/4
f 1/1/1 52/4/4 155/5/5 51/6/6
f 1/1/1 51/6/6 157/7/7 94/8/8
f 1/1/1 94/8/8 182/9/9 125/2/2
f 2/10/10 129/11/11 182/9/9 94/8/8
f 2/10/10 94/8/8 157/7/7 55/12/12
f 2/10/10 55/12/12 159/13/13 98/14/14
f 2/10/10 98/14/14 186/15/15 129/11/11
f 3/16/16 133/17/17 186/15/15 98/14/14
f 3/16/16 98/14/14 159/13/13 58/18/18
f 3/16/16 58/18/18 161/19/19 102/20/20
f 3/16/16 102/20/20 190/21/21 133/17/17
f 4/22/22 137/23/23 190/21/21 102/20/20
f 4/22/22 102/20/20 161/19/19 61/24/24
f 4/22/22 61/24/24 163/25/25 106/26/26
f 4/22/22 106/26/26 194/27/27 137/23/23
f 5/28/28 141/29/29 194/30/27 106/31/26
f 5/28/28 106/31/26 163/32/25 64/33/30
f 5/28/28 64/33/30 165/34/31 110/35/32
f 5/28/28 110/35/32 198/36/33 141/29/29
f 6/37/34 145/38/35 198/36/33 110/35/32
f 6/37/34 110/35/32 165/34/31 67/39/36
f 6/37/34 67/39/36 167/40/37 114/41/38
f 6/37/34 114/41/38 202/42/39 145/38/35
f 7/43/40 149/44/41 206/45/42 118/46/43
f 7/43/40 118/46/43 169/47/44 73/48/45
f 7/43/40 73/48/45 155/5/5 52/4/4
f 7/43/40 52/4/4 181/3/3 149/44/41
f 8/49/46 153/50/47 202/42/39 114/41/38
f 8/49/46 114/41/38 167/40/37 70/51/48
f 8/49/46 70/51/48 169/47/44 118/46/43
f 8/49/46 118/46/43 206/45/42 153/50/47
f 9/52/49 83/53/50 159/13/13 55/12/12
f 9/52/49 55/12/12 157/7/7 82/54/51
f 9/52/49 82/54/51 171/55/52 75/56/53
f 9/52/49 75/56/53 172/57/54 83/53/50
f 10/58/55 84/59/56 161/19/19 58/18/18
f 10/58/55 58/18/18 159/13/13 83/53/50
f 10/58/55 83/53/50 172/57/54 76/60/57
f 10/58/55 76/60/57 173/61/58 84/59/56
f 11/62/59 82/54/51 157/7/7 51/6/6
f 11/62/59 51/6/6 155/5/5 85/63/60
f 11/62/59 85/63/60 170/64/61 74/65/62
f 11/62/59 74/65/62 171/55/52 82/54/51
f 12/66/63 86/67/64 163/25/25 61/24/24
f 12/66/63 61/24/24 161/19/19 84/59/56
f 12/66/63 84/59/56 173/61/58 77/68/65
f 12/66/63 77/68/65 174/69/66 86/67/64
f 13/70/67 87/71/68 165/34/31 64/33/30
f 13/70/67 64/33/30 163/32/25 86/72/64
f 13/70/67 86/72/64 174/73/66 78/74/69
f 13/70/67 78/74/69 175/75/70 87/71/68
f 14/76/71 88/77/72 167/40/37 67/39/36
f 14/76/71 67/39/36 165/34/31 87/71/68
f 14/76/71 87/71/68 175/75/70 79/78/73
f 14/76/71 79/78/73 176/79/74 88/77/72
f 15/80/75 89/81/76 169/47/44 70/51/48
f 15/80/75 70/51/48 167/40/37 88/77/72
f 15/80/75 88/77/72 176/79/74 80/82/77
f 15/80/75 80/82/77 177/83/78 89/81/76
f 16/84/79 85/63/60 155/5/5 73/48/45
f 16/84/79 73/48/45 169/47/44 89/81/76
f 16/84/79 89/81/76 177/83/78 81/85/80
f 16/84/79 81/85/80 170/64/61 85/63/60
f 17/86/81 76/87/57 172/88/54 75/89/53
f 17/86/81 75/89/53 171/90/52 74/91/62
f 17/86/81 74/91/62 170/92/61 81/93/80
f 17/86/81 81/93/80 177/94/78 80/95/77
f 17/86/81 80/95/77 176/96/74 79/97/73
f 17/86/81 79/97/73 175/98/70 78/99/69
f 17/86/81 78/99/69 174/100/66 77/101/65
f 17/86/81 77/101/65 173/102/58 76/87/57
f 18/103/82 50/104/83 154/105/84 90/106/85
f 18/103/82 90/106/85 178/107/86 122/108/87
f 18/103/82 122/108/87 185/109/88 53/110/89
f 18/103/82 53/110/89 156/111/90 50/104/83
f 19/112/91 122/108/87 178/107/86 91/113/92
f 19/112/91 91/113/92 179/114/93 123/115/94
f 19/112/91 123/115/94 184/116/95 97/117/96
f 19/112/91 97/117/96 185/109/88 122/108/87
f 20/118/97 123/115/94 179/114/93 92/119/98
f 20/118/97 92/119/98 180/120/99 124/121/100
f 20/118/97 124/121/100 183/122/101 96/123/102
f 20/118/97 96/123/102 184/116/95 123/115/94
f 21/124/103 124/121/100 180/120/99 93/125/104
f 21/124/103 93/125/104 181/3/3 125/2/2
f 21/124/103 125/2/2 182/9/9 95/126/105
f 21/124/103 95/126/105 183/122/101 124/121/100
f 22/127/106 54/128/107 156/111/90 53/110/89
f 22/127/106 53/110/89 185/109/88 126/129/108
f 22/127/106 126/129/108 189/130/109 56/131/110
f 22/127/106 56/131/110 158/132/111 54/128/107
f 23/133/112 126/129/108 185/109/88 97/117/96
f 23/133/112 97/117/96 184/116/95 127/134/113
f 23/133/112 127/134/113 188/135/114 101/136/115
f 23/133/112 101/136/115 189/130/109 126/129/108
f 24/137/116 127/134/113 184/116/95 96/123/102
f 24/137/116 96/123/102 183/122/101 128/138/117
f 24/137/116 128/138/117 187/139/118 100/140/119
f 24/137/116 100/140/119 188/135/114 127/134/113
f 25/141/120 128/138/117 183/122/101 95/126/105
f 25/141/120 95/126/105 182/9/9 129/11/11
f 25/141/120 129/11/11 186/15/15 99/142/121
f 25/141/120 99/142/121 187/139/118 128/138/117
f 26/143/122 57/144/123 158/132/111 56/131/110
f 26/143/122 56/131/110 189/130/109 130/145/124
f 26/143/122 130/145/124 193/146/125 59/147/126
f 26/143/122 59/147/126 160/148/127 57/144/123
f 27/149/128 130/145/124 189/130/109 101/136/115
f 27/149/128 101/136/115 188/135/114 131/150/129
f 27/149/128 131/150/129 192/151/130 105/152/131
f 27/149/128 105/152/131 193/146/125 130/145/124
f 28/153/132 131/150/129 188/135/114 100/140/119
f 28/153/132 100/140/119 187/139/118 132/154/133
f 28/153/132 132/154/133 191/155/134 104/156/135
f 28/153/132 104/156/135 192/151/130 131/150/129
f 29/157/136 132/154/133 187/139/118 99/142/121
f 29/157/136 99/142/121 186/15/15 133/17/17
f 29/157/136 133/17/17 190/21/21 103/158/137
f 29/157/136 103/158/137 191/155/134 132/154/133
f 30/159/138 60/160/139 160/148/127 59/147/126
f 30/159/138 59/147/126 193/146/125 134/161/140
f 30/159/138 134/161/140 197/162/141 62/163/142
f 30/159/138 62/163/142 162/164/143 60/160/139
f 31/165/144 134/161/140 193/146/125 105/152/131
f 31/165/144 105/152/131 192/151/130 135/166/145
f 31/165/144 135/166/145 196/167/146 109/168/147
f 31/165/144 109/168/147 197/162/141 134/161/140
f 32/169/148 135/166/145 192/151/130 104/156/135
f 32/169/148 104/156/135 191/155/134 136/170/149
f 32/169/148 136/170/149 195/171/150 108/172/151
f 32/169/148 108/172/151 196/167/146 135/166/145
f 33/173/152 136/170/149 191/155/134 103/158/137
f 33/173/152 103/158/137 190/21/21 137/23/23
f 33/173/152 137/23/23 194/27/27 107/174/153
f 33/173/152 107/174/153 195/171/150 136/170/149
f 34/175/154 63/176/155 162/177/143 62/178/142
f 34/175/154 62/178/142 197/179/141 138/180/156
f 34/175/154 138/180/156 201/181/157 65/182/158
f 34/175/154 65/182/158 164/183/159 63/176/155
f 35/184/160 138/180/156 197/179/141 109/185/147
f 35/184/160 109/185/147 196/186/146 139/187/161
f 35/184/160 139/187/161 200/188/162 113/189/163
f 35/184/160 113/189/163 201/181/157 138/180/156
f 36/190/164 139/187/161 196/186/146 108/191/151
f 36/190/164 108/191/151 195/192/150 140/193/165
f 36/190/164 140/193/165 199/194/166 112/195/167
f 36/190/164 112/195/167 200/188/162 139/187/161
f 37/196/168 140/193/165 195/192/150 107/197/153
f 37/196/168 107/197/153 194/30/27 141/29/29
f 37/196/168 141/29/29 198/36/33 111/198/169
f 37/196/168 111/198/169 199/194/166 140/193/165
f 38/199/170 66/200/171 164/183/159 65/182/158
f 38/199/170 65/182/158 201/181/157 142/201/172
f 38/199/170 142/201/172 205/202/173 68/203/174
f 38/199/170 68/203/174 166/204/175 66/200/171
f 39/205/176 142/201/172 201/181/157 113/189/163
f 39/205/176 113/189/163 200/188/162 143/206/177
f 39/205/176 143/206/177 204/207/178 117/208/179
f 39/205/176 117/208/179 205/202/173 142/201/172
f 40/209/180 143/206/177 200/188/162 112/195/167
f 40/209/180 112/195/167 199/194/166 144/210/181
f 40/209/180 144/210/181 203/211/182 116/212/183
f 40/209/180 116/212/183 204/207/178 143/206/177
f 41/213/184 144/210/181 199/194/166 111/198/169
f 41/213/184 111/198/169 198/36/33 145/38/35
f 41/213/184 145/38/35 202/42/39 115/214/185
f 41/213/184 115/214/185 203/211/182 144/210/181
f 42/215/186 72/216/187 168/217/188 71/218/189
f 42/215/186 71/218/189 209/219/190 146/220/191
f 42/215/186 146/220/191 178/107/86 90/106/85
f 42/215/186 90/106/85 154/105/84 72/216/187
f 43/221/192 146/220/191 209/219/190 121/222/193
f 43/221/192 121/222/193 208/223/194 147/224/195
f 43/221/192 147/224/195 179/114/93 91/113/92
f 43/221/192 91/113/92 178/107/86 146/220/191
f 44/225/196 147/224/195 208/223/194 120/226/197
f 44/225/196 120/226/197 207/227/198 148/228/199
f 44/225/196 148/228/199 180/120/99 92/119/98
f 44/225/196 92/119/98 179/114/93 147/224/195
f 45/229/200 148/228/199 207/227/198 119/230/201
f 45/229/200 119/230/201 206/45/42 149/44/41
f 45/229/200 149/44/41 181/3/3 93/125/104
f 45/229/200 93/125/104 180/120/99 148/228/199
f 46/231/202 69/232/203 166/204/175 68/203/174
f 46/231/202 68/203/174 205/202/173 150/233/204
f 46/231/202 150/233/204 209/219/190 71/218/189
f 46/231/202 71/218/189 168/217/188 69/232/203
f 47/234/205 150/233/204 205/202/173 117/208/179
f 47/234/205 117/208/179 204/207/178 151/235/206
f 47/234/205 151/235/206 208/223/194 121/222/193
f 47/234/205 121/222/193 209/219/190 150/233/204
f 48/236/207 151/235/206 204/207/178 116/212/183
f 48/236/207 116/212/183 203/211/182 152/237/208
f 48/236/207 152/237/208 207/227/198 120/226/197
f 48/236/207 120/226/197 208/223/194 151/235/206
f 49/238/209 152/237/208 203/211/182 115/214/185
f 49/238/209 115/214/185 202/42/39 153/50/47
f 49/238/209 153/50/47 206/45/42 119/230/201
f 49/238/209 119/230/201 207/227/198 152/237/208
