# Blender v2.77 (sub 0) OBJ File: 'still_blendswap1.blend'
# www.blender.org
o Cylinder.025
v -0.091685 5.788646 7.522493
v -0.120838 5.761788 7.544969
v -0.163150 5.764121 7.561720
v -0.193824 5.794278 7.562969
v -0.194900 5.834590 7.547974
v -0.165757 5.861444 7.525481
v -0.092774 5.828957 7.507447
v -0.123459 5.859109 7.508679
v -0.048406 5.867781 7.908777
v -0.082131 5.869706 7.923766
v -0.025676 5.889761 7.887777
v -0.107095 5.894408 7.923964
v -0.108674 5.927417 7.909255
v -0.085943 5.949397 7.888255
v -0.052218 5.947473 7.873266
v -0.027255 5.922770 7.873068
v -0.058013 5.920987 7.946631
v -0.307850 5.453536 4.652348
v -0.322224 5.487959 5.286006
v -0.306692 5.544989 6.028251
v -0.221920 5.644019 6.816831
v -0.330223 5.442080 4.652616
v -0.347896 5.472280 5.285352
v -0.335254 5.525172 6.029968
v -0.251184 5.620373 6.828257
v -0.361139 5.443334 4.651384
v -0.383303 5.473634 5.283009
v -0.374528 5.526747 6.030541
v -0.292011 5.622345 6.837495
v -0.382536 5.456562 4.649293
v -0.407755 5.491226 5.280314
v -0.401489 5.548797 6.029779
v -0.320451 5.648783 6.839270
v -0.381925 5.474024 4.647495
v -0.406993 5.514760 5.278711
v -0.400372 5.578405 6.028025
v -0.319864 5.684193 6.832489
v -0.359617 5.485497 4.647122
v -0.381413 5.530450 5.279172
v -0.371853 5.598236 6.026163
v -0.290626 5.707842 6.820992
v -0.307173 5.471002 4.650661
v -0.321392 5.511494 5.284449
v -0.305605 5.574591 6.026294
v -0.221380 5.679424 6.809862
v -0.328635 5.484246 4.648465
v -0.345936 5.529098 5.281561
v -0.332607 5.596654 6.025387
v -0.249847 5.705865 6.811564
v -0.301195 5.438408 4.363918
v -0.040825 5.855591 7.770863
v -0.087847 5.808560 7.513235
v -0.316826 5.446437 4.652689
v -0.322269 5.429060 4.364293
v -0.068412 5.829248 7.795234
v -0.345757 5.440900 4.652167
v -0.351437 5.430259 4.363411
v -0.109106 5.831551 7.812807
v -0.374142 5.448761 4.650386
v -0.371612 5.441303 4.361789
v -0.139066 5.861149 7.813296
v -0.385427 5.465421 4.648273
v -0.370976 5.455731 4.360377
v -0.140745 5.900704 7.796412
v -0.372998 5.481130 4.647074
v -0.349901 5.465098 4.360000
v -0.113162 5.927045 7.772037
v -0.344067 5.486684 4.647600
v -0.320734 5.463899 4.360882
v -0.072471 5.924743 7.754451
v -0.315583 5.478810 4.649543
v -0.300560 5.452837 4.362505
v -0.042508 5.895146 7.753966
v -0.035113 5.906458 7.928084
v -0.048910 5.893116 7.940831
v -0.069382 5.894285 7.949929
v -0.084535 5.909279 7.950049
v -0.085493 5.929317 7.941121
v -0.071696 5.942658 7.928374
v -0.051224 5.941490 7.919275
v -0.036071 5.926496 7.919155
v -0.034456 5.876213 7.898256
v -0.065105 5.865325 7.917794
v -0.096967 5.879781 7.926039
v -0.022973 5.906066 7.878870
v -0.111377 5.911112 7.918161
v -0.099894 5.940965 7.898775
v -0.069244 5.951853 7.879237
v -0.037383 5.937397 7.870992
v -0.304298 5.462137 4.651651
v -0.318126 5.499585 5.285498
v -0.302078 5.559626 6.027220
v -0.217421 5.661517 6.812389
v -0.103083 5.772095 7.533609
v -0.233600 5.629460 6.822388
v -0.318175 5.532799 6.029221
v -0.332532 5.478297 5.285962
v -0.141884 5.758780 7.554898
v -0.271660 5.617691 6.833579
v -0.355011 5.522893 6.030429
v -0.365694 5.470521 5.284319
v -0.181507 5.776418 7.564667
v -0.309266 5.633116 6.839545
v -0.390967 5.535720 6.030320
v -0.398173 5.480806 5.281610
v -0.198742 5.814676 7.557211
v -0.324380 5.666693 6.836855
v -0.404991 5.563764 6.028990
v -0.411033 5.503131 5.279291
v -0.183504 5.851140 7.536862
v -0.308186 5.698753 6.826944
v -0.388903 5.590602 6.027032
v -0.396749 5.524427 5.278647
v -0.144722 5.864450 7.515523
v -0.270181 5.710524 6.815557
v -0.352121 5.600516 6.025565
v -0.363604 5.532213 5.280180
v -0.105100 5.846814 7.505729
v -0.232590 5.695089 6.809503
v -0.316155 5.587672 6.025630
v -0.331002 5.521920 5.283068
v -0.314770 5.469705 4.954977
v -0.322201 5.511864 5.644182
v -0.273873 5.588614 6.423903
v -0.158601 5.710823 7.189029
v -0.338619 5.456140 4.954961
v -0.349595 5.494093 5.643712
v -0.303056 5.566828 6.429641
v -0.187743 5.685472 7.206478
v -0.371532 5.457447 4.953277
v -0.387340 5.495524 5.641718
v -0.343281 5.568591 6.434220
v -0.229155 5.687643 7.220088
v -0.394302 5.472857 4.950800
v -0.413336 5.515321 5.639439
v -0.370949 5.592877 6.435126
v -0.258557 5.716065 7.221966
v -0.393666 5.493355 4.948858
v -0.412398 5.541892 5.638088
v -0.369875 5.625454 6.431749
v -0.258739 5.754085 7.210984
v -0.369924 5.506935 4.948696
v -0.385063 5.559674 5.638383
v -0.340726 5.647253 6.425901
v -0.229616 5.779429 7.193497
v -0.314034 5.490207 4.953186
v -0.321249 5.538432 5.642727
v -0.272852 5.621184 6.420291
v -0.158813 5.748838 7.177937
v -0.336911 5.505633 4.950531
v -0.347304 5.558239 5.640275
v -0.300552 5.645483 6.421087
v -0.188234 5.777256 7.179776
v -0.297857 5.445497 4.363303
v -0.037452 5.875130 7.760594
v -0.309643 5.432590 4.364274
v -0.051515 5.839355 7.783000
v -0.336919 5.428167 4.363998
v -0.088585 5.826303 7.805769
v -0.363706 5.434812 4.362639
v -0.126943 5.843622 7.815574
v -0.374314 5.448640 4.360992
v -0.144119 5.881165 7.806675
v -0.362528 5.461557 4.360021
v -0.130056 5.916940 7.784276
v -0.335252 5.465998 4.360294
v -0.092991 5.929990 7.761494
v -0.308465 5.459335 4.361655
v -0.054633 5.912672 7.751683
v -0.029521 5.913618 7.910774
v -0.037980 5.891625 7.925056
v -0.060560 5.883604 7.939449
v -0.084033 5.894253 7.945524
v -0.094649 5.917336 7.939720
v -0.086189 5.939329 7.925438
v -0.063609 5.947350 7.911044
v -0.040137 5.936700 7.904970
v -0.310975 5.479819 4.954287
v -0.317808 5.524999 5.643678
v -0.269196 5.604716 6.421625
v -0.154417 5.729606 7.182073
v -0.170123 5.695205 7.197575
v -0.285591 5.575208 6.426714
v -0.333204 5.500929 5.644205
v -0.324344 5.461325 4.955215
v -0.208432 5.682620 7.214421
v -0.323282 5.564334 6.432279
v -0.368573 5.492058 5.642838
v -0.355160 5.454672 4.954290
v -0.246876 5.699229 7.222822
v -0.360142 5.578479 6.435243
v -0.403169 5.503582 5.640526
v -0.385368 5.463747 4.952066
v -0.262932 5.735301 7.217896
v -0.374570 5.609348 6.433938
v -0.416769 5.528754 5.638584
v -0.397385 5.483240 4.949668
v -0.247220 5.769700 7.202446
v -0.358161 5.638866 6.428943
v -0.401427 5.552833 5.638003
v -0.384171 5.501741 4.948493
v -0.208948 5.782280 7.185489
v -0.320534 5.649748 6.423119
v -0.366093 5.561710 5.639163
v -0.353359 5.508409 4.949398
v -0.170510 5.765671 7.177033
v -0.283689 5.635585 6.420060
v -0.331442 5.550176 5.641527
v -0.322996 5.499326 4.951869
vt 0.5919 0.5625
vt 0.5592 0.5625
vt 0.5592 0.5000
vt 0.5919 0.5000
vt 0.6163 0.5000
vt 0.6163 0.5625
vt 0.6163 0.6250
vt 0.5919 0.6250
vt 0.5592 0.6250
vt 0.5919 0.6875
vt 0.5592 0.6875
vt 0.6163 0.6875
vt 0.6163 0.7500
vt 0.5919 0.7500
vt 0.5592 0.7500
vt 0.5919 0.8125
vt 0.5592 0.8125
vt 0.6163 0.8125
vt 0.6163 0.8750
vt 0.5919 0.8750
vt 0.5592 0.8750
vt 0.5919 0.9375
vt 0.5592 0.9375
vt 0.6163 0.9375
vt 0.6163 0.9999
vt 0.5919 0.9999
vt 0.5592 0.9999
vt 0.5919 0.0626
vt 0.5592 0.0626
vt 0.5592 0.0001
vt 0.5919 0.0001
vt 0.6163 0.0001
vt 0.6163 0.0626
vt 0.6163 0.1250
vt 0.5919 0.1250
vt 0.5592 0.1250
vt 0.5919 0.1875
vt 0.5592 0.1875
vt 0.6163 0.1875
vt 0.6163 0.2500
vt 0.5919 0.2500
vt 0.5592 0.2500
vt 0.5919 0.4375
vt 0.5592 0.4375
vt 0.5592 0.3750
vt 0.5919 0.3750
vt 0.6163 0.3750
vt 0.6163 0.4375
vt 0.5919 0.3125
vt 0.5592 0.3125
vt 0.6163 0.3125
vt 0.6245 0.6875
vt 0.6245 0.7500
vt 0.6245 0.6250
vt 0.6245 0.6250
vt 0.6245 0.6875
vt 0.6245 0.7500
vt 0.6245 0.8125
vt 0.6245 0.8750
vt 0.6245 0.8125
vt 0.6245 0.8750
vt 0.6245 0.5625
vt 0.6245 0.5000
vt 0.6245 0.5000
vt 0.6245 0.5625
vt 0.6245 0.9375
vt 0.6245 0.9999
vt 0.6245 0.9375
vt 0.6245 0.9999
vt 0.6245 0.0626
vt 0.6245 0.1250
vt 0.6245 0.0001
vt 0.6245 0.0001
vt 0.6245 0.0626
vt 0.6245 0.1250
vt 0.6245 0.1875
vt 0.6245 0.2500
vt 0.6245 0.1875
vt 0.6245 0.2500
vt 0.6245 0.3125
vt 0.6245 0.3750
vt 0.6245 0.3125
vt 0.6245 0.3750
vt 0.6245 0.4375
vt 0.6245 0.4375
vt 0.6245 0.4375
vt 0.6245 0.6875
vt 0.6245 0.6250
vt 0.6245 0.5625
vt 0.6245 0.5000
vt 0.6245 0.4375
vt 0.6245 0.3750
vt 0.6245 0.3125
vt 0.6245 0.2500
vt 0.6245 0.1875
vt 0.6245 0.1250
vt 0.6245 0.0626
vt 0.6245 0.0001
vt 0.6245 0.4375
vt 0.6245 0.8750
vt 0.6245 0.8125
vt 0.6245 0.7500
vt 0.3306 0.5625
vt 0.2979 0.5625
vt 0.2979 0.5000
vt 0.3306 0.5000
vt 0.3632 0.5000
vt 0.3632 0.5625
vt 0.3632 0.6250
vt 0.3306 0.6250
vt 0.2979 0.6250
vt 0.3959 0.5625
vt 0.3959 0.5000
vt 0.4286 0.5000
vt 0.4286 0.5625
vt 0.4286 0.6250
vt 0.3959 0.6250
vt 0.4612 0.5625
vt 0.4612 0.5000
vt 0.4939 0.5000
vt 0.4939 0.5625
vt 0.4939 0.6250
vt 0.4612 0.6250
vt 0.5265 0.5625
vt 0.5265 0.5000
vt 0.5265 0.6250
vt 0.3306 0.6875
vt 0.2979 0.6875
vt 0.3632 0.6875
vt 0.3632 0.7500
vt 0.3306 0.7500
vt 0.2979 0.7500
vt 0.3959 0.6875
vt 0.4286 0.6875
vt 0.4286 0.7500
vt 0.3959 0.7500
vt 0.4612 0.6875
vt 0.4939 0.6875
vt 0.4939 0.7500
vt 0.4612 0.7500
vt 0.5265 0.6875
vt 0.5265 0.7500
vt 0.3306 0.8125
vt 0.2979 0.8125
vt 0.3632 0.8125
vt 0.3632 0.8750
vt 0.3306 0.8750
vt 0.2979 0.8750
vt 0.3959 0.8125
vt 0.4285 0.8125
vt 0.4285 0.8750
vt 0.3959 0.8750
vt 0.4612 0.8125
vt 0.4939 0.8125
vt 0.4939 0.8750
vt 0.4612 0.8750
vt 0.5265 0.8125
vt 0.5265 0.8750
vt 0.3306 0.9375
vt 0.2979 0.9375
vt 0.3632 0.9375
vt 0.3632 0.9999
vt 0.3306 0.9999
vt 0.2979 0.9999
vt 0.3959 0.9375
vt 0.4286 0.9375
vt 0.4286 0.9999
vt 0.3959 0.9999
vt 0.4612 0.9375
vt 0.4939 0.9375
vt 0.4939 0.9999
vt 0.4612 0.9999
vt 0.5265 0.9375
vt 0.5265 0.9999
vt 0.3306 0.0626
vt 0.2979 0.0625
vt 0.2979 0.0001
vt 0.3306 0.0001
vt 0.3632 0.0001
vt 0.3632 0.0626
vt 0.3632 0.1250
vt 0.3306 0.1250
vt 0.2979 0.1250
vt 0.3959 0.0626
vt 0.3959 0.0001
vt 0.4286 0.0001
vt 0.4286 0.0626
vt 0.4286 0.1250
vt 0.3959 0.1250
vt 0.4612 0.0626
vt 0.4612 0.0001
vt 0.4939 0.0001
vt 0.4939 0.0626
vt 0.4939 0.1250
vt 0.4612 0.1250
vt 0.5265 0.0626
vt 0.5265 0.0001
vt 0.5265 0.1250
vt 0.3306 0.1875
vt 0.2979 0.1875
vt 0.3632 0.1875
vt 0.3632 0.2500
vt 0.3306 0.2500
vt 0.2979 0.2500
vt 0.3959 0.1875
vt 0.4286 0.1875
vt 0.4286 0.2500
vt 0.3959 0.2500
vt 0.4612 0.1875
vt 0.4939 0.1875
vt 0.4939 0.2500
vt 0.4612 0.2500
vt 0.5265 0.1875
vt 0.5265 0.2500
vt 0.3306 0.4375
vt 0.2979 0.4375
vt 0.2979 0.3750
vt 0.3306 0.3750
vt 0.3632 0.3750
vt 0.3632 0.4375
vt 0.3959 0.4375
vt 0.3959 0.3750
vt 0.4286 0.3750
vt 0.4286 0.4375
vt 0.4612 0.4375
vt 0.4612 0.3750
vt 0.4939 0.3750
vt 0.4939 0.4375
vt 0.5265 0.4375
vt 0.5265 0.3750
vt 0.3306 0.3125
vt 0.2979 0.3125
vt 0.3632 0.3125
vt 0.3959 0.3125
vt 0.4286 0.3125
vt 0.4612 0.3125
vt 0.4939 0.3125
vt 0.5265 0.3125
vn 0.9029 -0.4227 -0.0775
vn 0.8930 -0.4437 -0.0750
vn 0.9838 -0.0476 -0.1729
vn 0.9812 -0.0443 -0.1878
vn 0.9875 -0.0235 -0.1559
vn 0.9195 -0.3906 -0.0446
vn 0.7207 -0.6892 0.0749
vn 0.6910 -0.7218 0.0387
vn 0.6642 -0.7470 0.0273
vn 0.3887 -0.9097 0.1456
vn 0.3550 -0.9273 0.1187
vn 0.4240 -0.8859 0.1879
vn 0.0649 -0.9572 0.2821
vn 0.0354 -0.9720 0.2324
vn 0.0093 -0.9814 0.1917
vn -0.3306 -0.8984 0.2891
vn -0.3421 -0.9083 0.2407
vn -0.3132 -0.8854 0.3433
vn -0.6529 -0.6671 0.3587
vn -0.6617 -0.6850 0.3048
vn -0.6642 -0.7017 0.2577
vn -0.8957 -0.3527 0.2707
vn -0.8993 -0.3700 0.2331
vn -0.8875 -0.3318 0.3198
vn -0.9706 0.0571 0.2337
vn -0.9810 0.0408 0.1897
vn -0.9856 0.0374 0.1646
vn -0.9047 0.4188 0.0782
vn -0.8990 0.4330 0.0657
vn -0.8965 0.4270 0.1178
vn -0.6914 0.7224 -0.0060
vn -0.6951 0.7177 -0.0417
vn -0.6741 0.7375 -0.0406
vn -0.3937 0.9064 -0.1527
vn -0.3657 0.9206 -0.1367
vn -0.3916 0.9121 -0.1213
vn -0.0337 0.9763 -0.2139
vn -0.0400 0.9696 -0.2415
vn -0.0188 0.9770 -0.2123
vn 0.8965 0.3506 -0.2709
vn 0.8989 0.3636 -0.2444
vn 0.6619 0.6977 -0.2739
vn 0.6612 0.6835 -0.3091
vn 0.6716 0.6854 -0.2813
vn 0.9024 0.3576 -0.2404
vn 0.3279 0.8967 -0.2972
vn 0.3360 0.9050 -0.2607
vn 0.3388 0.9009 -0.2710
vn 0.5013 -0.7837 0.3669
vn 0.1559 -0.8663 0.4745
vn 0.7798 -0.5745 0.2486
vn 0.7895 -0.3745 0.4862
vn 0.5764 -0.3169 0.7532
vn 0.2683 -0.6354 0.7240
vn -0.2298 -0.8054 0.5463
vn -0.5753 -0.5859 0.5707
vn 0.0782 -0.3322 0.9399
vn -0.3829 -0.3880 0.8384
vn 0.9486 -0.2884 0.1304
vn 0.9978 0.0598 0.0271
vn 0.9475 0.1617 0.2757
vn 0.8350 0.0286 0.5495
vn -0.8146 -0.2470 0.5248
vn -0.8907 0.1444 0.4311
vn -0.3411 0.0714 0.9373
vn -0.6654 0.2649 0.6979
vn -0.8104 0.5010 0.3037
vn -0.5961 0.7833 0.1762
vn -0.3431 0.5887 0.7319
vn -0.4006 0.8056 0.4364
vn -0.3045 0.9506 0.0607
vn 0.0465 0.9985 -0.0266
vn 0.0139 0.8568 0.5154
vn 0.1499 0.9600 0.2364
vn 0.3916 0.9166 -0.0801
vn 0.7000 0.7088 -0.0869
vn 0.4603 0.7879 0.4091
vn 0.6917 0.7000 0.1774
vn 0.9125 0.4058 -0.0509
vn 0.7772 0.4636 0.4255
vn 0.3448 0.3585 0.8675
vn 0.7971 -0.6017 0.0499
vn 0.7857 -0.6165 0.0502
vn 0.9993 -0.0299 0.0233
vn 0.9990 -0.0380 0.0237
vn 0.9991 -0.0355 0.0234
vn 0.8208 -0.5690 0.0493
vn 0.5059 -0.8608 0.0558
vn 0.4704 -0.8807 0.0546
vn 0.4515 -0.8906 0.0541
vn 0.8361 -0.5470 0.0424
vn 0.9992 -0.0365 0.0122
vn 0.9991 -0.0392 -0.0183
vn 0.8488 -0.5282 0.0229
vn 0.5534 -0.8314 0.0503
vn 0.5308 -0.8457 0.0554
vn 0.8616 -0.5075 -0.0037
vn 0.9974 -0.0419 -0.0582
vn 0.9938 -0.0439 -0.1018
vn 0.8734 -0.4858 -0.0334
vn 0.6067 -0.7942 0.0316
vn 0.5790 -0.8142 0.0418
vn 0.8838 -0.4639 -0.0600
vn 0.9887 -0.0455 -0.1424
vn 0.6359 -0.7714 0.0241
vn 0.1920 -0.9801 0.0505
vn 0.1803 -0.9823 0.0496
vn 0.2138 -0.9754 0.0527
vn -0.0418 -0.9981 0.0457
vn -0.0421 -0.9981 0.0438
vn -0.0421 -0.9982 0.0432
vn 0.2297 -0.9716 0.0572
vn 0.2449 -0.9674 0.0645
vn -0.0430 -0.9966 0.0704
vn -0.0426 -0.9977 0.0533
vn 0.2648 -0.9615 0.0732
vn 0.2897 -0.9535 0.0829
vn -0.0313 -0.9922 0.1204
vn -0.0398 -0.9948 0.0934
vn 0.3205 -0.9423 0.0962
vn -0.0146 -0.9883 0.1520
vn -0.2736 -0.9612 0.0352
vn -0.2622 -0.9644 0.0352
vn -0.2941 -0.9551 0.0356
vn -0.5733 -0.8191 0.0198
vn -0.5412 -0.8406 0.0214
vn -0.5237 -0.8516 0.0224
vn -0.3110 -0.9493 0.0452
vn -0.3265 -0.9425 0.0705
vn -0.6206 -0.7816 0.0625
vn -0.5983 -0.8006 0.0305
vn -0.3399 -0.9345 0.1050
vn -0.3488 -0.9258 0.1455
vn -0.6554 -0.7392 0.1551
vn -0.6404 -0.7607 0.1059
vn -0.3495 -0.9173 0.1905
vn -0.6631 -0.7195 0.2065
vn -0.8413 -0.5405 -0.0037
vn -0.8325 -0.5540 -0.0025
vn -0.8604 -0.5096 -0.0066
vn -0.9987 0.0291 -0.0427
vn -0.9986 0.0321 -0.0416
vn -0.9981 0.0448 -0.0419
vn -0.8749 -0.4842 0.0049
vn -0.8873 -0.4592 0.0413
vn -0.9994 0.0342 0.0039
vn -0.9991 0.0302 -0.0310
vn -0.8967 -0.4336 0.0892
vn -0.9015 -0.4093 0.1406
vn -0.9948 0.0390 0.0941
vn -0.9981 0.0378 0.0484
vn -0.9018 -0.3881 0.1902
vn -0.9901 0.0385 0.1351
vn -0.7992 0.5971 -0.0692
vn -0.7802 0.6216 -0.0696
vn -0.8233 0.5633 -0.0692
vn -0.5075 0.8581 -0.0778
vn -0.4716 0.8784 -0.0772
vn -0.4483 0.8905 -0.0769
vn -0.8395 0.5399 -0.0612
vn -0.8525 0.5214 -0.0372
vn -0.5591 0.8264 -0.0668
vn -0.5347 0.8416 -0.0756
vn -0.8651 0.5015 -0.0064
vn -0.8776 0.4788 0.0251
vn -0.6146 0.7876 -0.0439
vn -0.5853 0.8089 -0.0554
vn -0.8886 0.4557 0.0517
vn -0.6442 0.7639 -0.0367
vn -0.1918 0.9785 -0.0758
vn -0.1787 0.9810 -0.0754
vn -0.2134 0.9739 -0.0764
vn 0.0428 0.9966 -0.0701
vn 0.0430 0.9966 -0.0701
vn 0.0433 0.9966 -0.0700
vn -0.2316 0.9696 -0.0788
vn -0.2495 0.9647 -0.0837
vn 0.0392 0.9951 -0.0910
vn 0.0414 0.9962 -0.0757
vn -0.2710 0.9583 -0.0906
vn -0.2983 0.9492 -0.0999
vn 0.0234 0.9899 -0.1400
vn 0.0344 0.9930 -0.1129
vn -0.3298 0.9372 -0.1136
vn 0.0060 0.9850 -0.1722
vn 0.8427 0.5381 -0.0151
vn 0.8282 0.5602 -0.0166
vn 0.5218 0.8519 -0.0446
vn 0.5419 0.8393 -0.0434
vn 0.5736 0.8180 -0.0416
vn 0.8618 0.5071 -0.0132
vn 0.8755 0.4826 -0.0244
vn 0.5973 0.8003 -0.0513
vn 0.6183 0.7817 -0.0811
vn 0.8868 0.4584 -0.0575
vn 0.8957 0.4327 -0.1018
vn 0.6378 0.7604 -0.1223
vn 0.6520 0.7387 -0.1708
vn 0.9004 0.4078 -0.1515
vn 0.9009 0.3847 -0.2008
vn 0.6600 0.7176 -0.2223
vn 0.2745 0.9597 -0.0601
vn 0.2626 0.9630 -0.0606
vn 0.2947 0.9537 -0.0593
vn 0.3099 0.9484 -0.0672
vn 0.3237 0.9418 -0.0907
vn 0.3362 0.9336 -0.1241
vn 0.3433 0.9247 -0.1646
vn 0.3436 0.9153 -0.2101
s 1
f 1/1/1 125/2/2 181/3/3 52/4/4
f 1/1/1 52/4/4 155/5/5 51/6/6
f 1/1/1 51/6/6 157/7/7 94/8/8
f 1/1/1 94/8/8 182/9/9 125/2/2
f 2/10/10 129/11/11 182/9/9 94/8/8
f 2/10/10 94/8/8 157/7/7 55/12/12
f 2/10/10 55/12/12 159/13/13 98/14/14
f 2/10/10 98/14/14 186/15/15 129/11/11
f 3/16/16 133/17/17 186/15/15 98/14/14
f 3/16/16 98/14/14 159/13/13 58/18/18
f 3/16/16 58/18/18 161/19/19 102/20/20
f 3/16/16 102/20/20 190/21/21 133/17/17
f 4/22/22 137/23/23 190/21/21 102/20/20
f 4/22/22 102/20/20 161/19/19 61/24/24
f 4/22/22 61/24/24 163/25/25 106/26/26
f 4/22/22 106/26/26 194/27/27 137/23/23
f 5/28/28 141/29/29 194/30/27 106/31/26
f 5/28/28 106/31/26 163/32/25 64/33/30
f 5/28/28 64/33/30 165/34/31 110/35/32
f 5/28/28 110/35/32 198/36/33 141/29/29
f 6/37/34 145/38/35 198/36/33 110/35/32
f 6/37/34 110/35/32 165/34/31 67/39/36
f 6/37/34 67/39/36 167/40/37 114/41/38
f 6/37/34 114/41/38 202/42/39 145/38/35
f 7/43/40 149/44/41 206/45/42 118/46/43
f 7/43/40 118/46/43 169/47/44 73/48/45
f 7/43/40 73/48/45 155/5/5 52/4/4
f 7/43/40 52/4/4 181/3/3 149/44/41
f 8/49/46 153/50/47 202/42/39 114/41/38
f 8/49/46 114/41/38 167/40/37 70/51/48
f 8/49/46 70/51/48 169/47/44 118/46/43
f 8/49/46 118/46/43 206/45/42 153/50/47
f 9/52/49 83/53/50 159/13/13 55/12/12
f 9/52/49 55/12/12 157/7/7 82/54/51
f 9/52/49 82/54/51 171/55/52 75/56/53
f 9/52/49 75/56/53 172/57/54 83/53/50
f 10/58/55 84/59/56 161/19/19 58/18/18
f 10/58/55 58/18/18 159/13/13 83/53/50
f 10/58/55 83/53/50 172/57/54 76/60/57
f 10/58/55 76/60/57 173/61/58 84/59/56
f 11/62/59 82/54/51 157/7/7 51/6/6
f 11/62/59 51/6/6 155/5/5 85/63/60
f 11/62/59 85/63/60 170/64/61 74/65/62
f 11/62/59 74/65/62 171/55/52 82/54/51
f 12/66/63 86/67/64 163/25/25 61/24/24
f 12/66/63 61/24/24 161/19/19 84/59/56
f 12/66/63 84/59/56 173/61/58 77/68/65
f 12/66/63 77/68/65 174/69/66 86/67/64
f 13/70/67 87/71/68 165/34/31 64/33/30
f 13/70/67 64/33/30 163/32/25 86/72/64
f 13/70/67 86/72/64 174/73/66 78/74/69
f 13/70/67 78/74/69 175/75/70 87/71/68
f 14/76/71 88/77/72 167/40/37 67/39/36
f 14/76/71 67/39/36 165/34/31 87/71/68
f 14/76/71 87/71/68 175/75/70 79/78/73
f 14/76/71 79/78/73 176/79/74 88/77/72
f 15/80/75 89/81/76 169/47/44 70/51/48
f 15/80/75 70/51/48 167/40/37 88/77/72
f 15/80/75 88/77/72 176/79/74 80/82/77
f 15/80/75 80/82/77 177/83/78 89/81/76
f 16/84/79 85/63/60 155/5/5 73/48/45
f 16/84/79 73/48/45 169/47/44 89/81/76
f 16/84/79 89/81/76 177/83/78 81/85/80
f 16/84/79 81/85/80 170/64/61 85/63/60
f 17/86/81 76/87/57 172/88/54 75/89/53
f 17/86/81 75/89/53 171/90/52 74/91/62
f 17/86/81 74/91/62 170/92/61 81/93/80
f 17/86/81 81/93/80 177/94/78 80/95/77
f 17/86/81 80/95/77 176/96/74 79/97/73
f 17/86/81 79/97/73 175/98/70 78/99/69
f 17/86/81 78/99/69 174/100/66 77/101/65
f 17/86/81 77/101/65 173/102/58 76/87/57
f 18/103/82 50/104/83 154/105/84 90/106/85
f 18/103/82 90/106/85 178/107/86 122/108/87
f 18/103/82 122/108/87 185/109/88 53/110/89
f 18/103/82 53/110/89 156/111/90 50/104/83
f 19/112/91 122/108/87 178/107/86 91/113/92
f 19/112/91 91/113/92 179/114/93 123/115/94
f 19/112/91 123/115/94 184/116/95 97/117/96
f 19/112/91 97/117/96 185/109/88 122/108/87
f 20/118/97 123/115/94 179/114/93 92/119/98
f 20/118/97 92/119/98 180/120/99 124/121/100
f 20/118/97 124/121/100 183/122/101 96/123/102
f 20/118/97 96/123/102 184/116/95 123/115/94
f 21/124/103 124/121/100 180/120/99 93/125/104
f 21/124/103 93/125/104 181/3/3 125/2/2
f 21/124/103 125/2/2 182/9/9 95/126/105
f 21/124/103 95/126/105 183/122/101 124/121/100
f 22/127/106 54/128/107 156/111/90 53/110/89
f 22/127/106 53/110/89 185/109/88 126/129/108
f 22/127/106 126/129/108 189/130/109 56/131/110
f 22/127/106 56/131/110 158/132/111 54/128/107
f 23/133/112 126/129/108 185/109/88 97/117/96
f 23/133/112 97/117/96 184/116/95 127/134/113
f 23/133/112 127/134/113 188/135/114 101/136/115
f 23/133/112 101/136/115 189/130/109 126/129/108
f 24/137/116 127/134/113 184/116/95 96/123/102
f 24/137/116 96/123/102 183/122/101 128/138/117
f 24/137/116 128/138/117 187/139/118 100/140/119
f 24/137/116 100/140/119 188/135/114 127/134/113
f 25/141/120 128/138/117 183/122/101 95/126/105
f 25/141/120 95/126/105 182/9/9 129/11/11
f 25/141/120 129/11/11 186/15/15 99/142/121
f 25/141/120 99/142/121 187/139/118 128/138/117
f 26/143/122 57/144/123 158/132/111 56/131/110
f 26/143/122 56/131/110 189/130/109 130/145/124
f 26/143/122 130/145/124 193/146/125 59/147/126
f 26/143/122 59/147/126 160/148/127 57/144/123
f 27/149/128 130/145/124 189/130/109 101/136/115
f 27/149/128 101/136/115 188/135/114 131/150/129
f 27/149/128 131/150/129 192/151/130 105/152/131
f 27/149/128 105/152/131 193/146/125 130/145/124
f 28/153/132 131/150/129 188/135/114 100/140/119
f 28/153/132 100/140/119 187/139/118 132/154/133
f 28/153/132 132/154/133 191/155/134 104/156/135
f 28/153/132 104/156/135 192/151/130 131/150/129
f 29/157/136 132/154/133 187/139/118 99/142/121
f 29/157/136 99/142/121 186/15/15 133/17/17
f 29/157/136 133/17/17 190/21/21 103/158/137
f 29/157/136 103/158/137 191/155/134 132/154/133
f 30/159/138 60/160/139 160/148/127 59/147/126
f 30/159/138 59/147/126 193/146/125 134/161/140
f 30/159/138 134/161/140 197/162/141 62/163/142
f 30/159/138 62/163/142 162/164/143 60/160/139
f 31/165/144 134/161/140 193/146/125 105/152/131
f 31/165/144 105/152/131 192/151/130 135/166/145
f 31/165/144 135/166/145 196/167/146 109/168/147
f 31/165/144 109/168/147 197/162/141 134/161/140
f 32/169/148 135/166/145 192/151/130 104/156/135
f 32/169/148 104/156/135 191/155/134 136/170/149
f 32/169/148 136/170/149 195/171/150 108/172/151
f 32/169/148 108/172/151 196/167/146 135/166/145
f 33/173/152 136/170/149 191/155/134 103/158/137
f 33/173/152 103/158/137 190/21/21 137/23/23
f 33/173/152 137/23/23 194/27/27 107/174/153
f 33/173/152 107/174/153 195/171/150 136/170/149
f 34/175/154 63/176/155 162/177/143 62/178/142
f 34/175/154 62/178/142 197/179/141 138/180/156
f 34/175/154 138/180/156 201/181/157 65/182/158
f 34/175/154 65/182/158 164/183/159 63/176/155
f 35/184/160 138/180/156 197/179/141 109/185/147
f 35/184/160 109/185/147 196/186/146 139/187/161
f 35/184/160 139/187/161 200/188/162 113/189/163
f 35/184/160 113/189/163 201/181/157 138/180/156
f 36/190/164 139/187/161 196/186/146 108/191/151
f 36/190/164 108/191/151 195/192/150 140/193/165
f 36/190/164 140/193/165 199/194/166 112/195/167
f 36/190/164 112/195/167 200/188/162 139/187/161
f 37/196/168 140/193/165 195/192/150 107/197/153
f 37/196/168 107/197/153 194/30/27 141/29/29
f 37/196/168 141/29/29 198/36/33 111/198/169
f 37/196/168 111/198/169 199/194/166 140/193/165
f 38/199/170 66/200/171 164/183/159 65/182/158
f 38/199/170 65/182/158 201/181/157 142/201/172
f 38/199/170 142/201/172 205/202/173 68/203/174
f 38/199/170 68/203/174 166/204/175 66/200/171
f 39/205/176 142/201/172 201/181/157 113/189/163
f 39/205/176 113/189/163 200/188/162 143/206/177
f 39/205/176 143/206/177 204/207/178 117/208/179
f 39/205/176 117/208/179 205/202/173 142/201/172
f 40/209/180 143/206/177 200/188/162 112/195/167
f 40/209/180 112/195/167 199/194/166 144/210/181
f 40/209/180 144/210/181 203/211/182 116/212/183
f 40/209/180 116/212/183 204/207/178 143/206/177
f 41/213/184 144/210/181 199/194/166 111/198/169
f 41/213/184 111/198/169 198/36/33 145/38/35
f 41/213/184 145/38/35 202/42/39 115/214/185
f 41/213/184 115/214/185 203/211/182 144/210/181
f 42/215/186 72/216/187 168/217/188 71/218/189
f 42/215/186 71/218/189 209/219/190 146/220/191
f 42/215/186 146/220/191 178/107/86 90/106/85
f 42/215/186 90/106/85 154/105/84 72/216/187
f 43/221/192 146/220/191 209/219/190 121/222/193
f 43/221/192 121/222/193 208/223/194 147/224/195
f 43/221/192 147/224/195 179/114/93 91/113/92
f 43/221/192 91/113/92 178/107/86 146/220/191
f 44/225/196 147/224/195 208/223/194 120/226/197
f 44/225/196 120/226/197 207/227/198 148/228/199
f 44/225/196 148/228/199 180/120/99 92/119/98
f 44/225/196 92/119/98 179/114/93 147/224/195
f 45/229/200 148/228/199 207/227/198 119/230/201
f 45/229/200 119/230/201 206/45/42 149/44/41
f 45/229/200 149/44/41 181/3/3 93/125/104
f 45/229/200 93/125/104 180/120/99 148/228/199
f 46/231/202 69/232/203 166/204/175 68/203/174
f 46/231/202 68/203/174 205/202/173 150/233/204
f 46/231/202 150/233/204 209/219/190 71/218/189
f 46/231/202 71/218/189 168/217/188 69/232/203
f 47/234/205 150/233/204 205/202/173 117/208/179
f 47/234/205 117/208/179 204/207/178 151/235/206
f 47/234/205 151/235/206 208/223/194 121/222/193
f 47/234/205 121/222/193 209/219/190 150/233/204
f 48/236/207 151/235/206 204/207/178 116/212/183
f 48/236/207 116/212/183 203/211/182 152/237/208
f 48/236/207 152/237/208 207/227/198 120/226/197
f 48/236/207 120/226/197 208/223/194 151/235/206
f 49/238/209 152/237/208 203/211/182 115/214/185
f 49/238/209 115/214/185 202/42/39 153/50/47
f 49/238/209 153/50/47 206/45/42 119/230/201
f 49/238/209 119/230/201 207/227/198 152/237/208
