# Blender v2.77 (sub 0) OBJ File: 'still_blendswap1.blend'
# www.blender.org
o Cylinder.018
v -0.288351 5.195272 4.837511
v -0.271342 5.231182 4.849166
v -0.232411 5.246833 4.851190
v -0.194364 5.233057 4.842398
v -0.179489 5.197927 4.827941
v -0.196500 5.162021 4.816287
v -0.273476 5.160142 4.823054
v -0.235431 5.146370 4.814262
v -0.236205 5.129047 5.047700
v -0.204832 5.141660 5.049332
v -0.249745 5.099828 5.037265
v -0.174004 5.130278 5.041203
v -0.161780 5.101569 5.028076
v -0.175320 5.072350 5.017640
v -0.206692 5.059737 5.016009
v -0.237520 5.071119 5.024138
v -0.202258 5.087955 5.063805
v -0.344122 5.559444 3.400260
v -0.347145 5.509588 3.767419
v -0.343169 5.442784 4.131001
v -0.324497 5.340105 4.489332
v -0.329081 5.578165 3.403507
v -0.331662 5.532853 3.771827
v -0.327253 5.470588 4.136775
v -0.308131 5.372268 4.497530
v -0.301465 5.589268 3.404943
v -0.301218 5.545093 3.773410
v -0.293980 5.483964 4.138505
v -0.272029 5.386782 4.499407
v -0.277451 5.586247 3.403727
v -0.273645 5.539137 3.771241
v -0.262840 5.475078 4.135178
v -0.237340 5.375144 4.493864
v -0.271102 5.570863 3.400567
v -0.265092 5.518464 3.766587
v -0.252075 5.449131 4.128741
v -0.224385 5.344177 4.484149
v -0.286136 5.552125 3.397316
v -0.280569 5.495183 3.762176
v -0.267984 5.421313 4.122962
v -0.240749 5.312009 4.475949
v -0.337773 5.544060 3.397100
v -0.338592 5.488915 3.762766
v -0.332403 5.416837 4.124564
v -0.311542 5.309137 4.479617
v -0.313752 5.541022 3.395880
v -0.311014 5.482944 3.760593
v -0.301258 5.407937 4.121233
v -0.276851 5.297495 4.474072
v -0.342171 5.583291 3.216597
v -0.267438 5.129937 4.972416
v -0.284945 5.176086 4.830073
v -0.339088 5.569118 3.402010
v -0.327349 5.599729 3.219319
v -0.251094 5.165007 4.984649
v -0.315929 5.585308 3.404552
v -0.301147 5.610262 3.220681
v -0.213346 5.180182 4.986612
v -0.287901 5.589697 3.404672
v -0.278915 5.608722 3.219886
v -0.176305 5.166574 4.977155
v -0.271417 5.579707 3.402296
v -0.273671 5.596001 3.217397
v -0.161670 5.132154 4.961818
v -0.276132 5.561182 3.398816
v -0.288487 5.579547 3.214672
v -0.178014 5.097085 4.949585
v -0.299285 5.544977 3.396270
v -0.314688 5.569013 3.213309
v -0.215762 5.081910 4.947623
v -0.327320 5.540603 3.396154
v -0.336928 5.570570 3.214108
v -0.252802 5.095517 4.957079
v -0.229832 5.090612 5.058810
v -0.221613 5.108349 5.065145
v -0.202569 5.116004 5.066135
v -0.183856 5.109096 5.061201
v -0.176436 5.091669 5.053233
v -0.184655 5.073933 5.046898
v -0.203698 5.066277 5.045907
v -0.222411 5.073185 5.050842
v -0.246167 5.115617 5.043324
v -0.221784 5.138327 5.049876
v -0.188016 5.138995 5.046348
v -0.246881 5.084167 5.030532
v -0.164643 5.117229 5.034809
v -0.165357 5.085780 5.022017
v -0.189740 5.063070 5.015465
v -0.223508 5.062402 5.018993
v -0.343808 5.550604 3.398532
v -0.346022 5.497986 3.764929
v -0.341232 5.428427 4.127604
v -0.321758 5.323118 4.484280
v -0.283786 5.214653 4.844249
v -0.319906 5.357390 4.494005
v -0.338435 5.457605 4.134233
v -0.342259 5.521838 3.769848
v -0.253417 5.242646 4.851675
v -0.291422 5.382733 4.499475
v -0.311731 5.479963 4.138307
v -0.317325 5.541111 3.773100
v -0.211626 5.243663 4.848001
v -0.252989 5.384293 4.497484
v -0.276762 5.482400 4.137439
v -0.285829 5.544525 3.772782
v -0.182895 5.217112 4.835379
v -0.227124 5.361164 4.489201
v -0.254012 5.463491 4.132139
v -0.266217 5.530070 3.769078
v -0.184055 5.178547 4.821203
v -0.228976 5.326890 4.479475
v -0.256806 5.434304 4.125507
v -0.269975 5.506206 3.764157
v -0.214425 5.150558 4.813778
v -0.257457 5.301541 4.474004
v -0.283504 5.411932 4.121430
v -0.294905 5.486921 3.760902
v -0.256215 5.149538 4.817451
v -0.295892 5.299988 4.475996
v -0.318479 5.409510 4.122301
v -0.326406 5.483520 3.761223
v -0.345853 5.535057 3.583881
v -0.346688 5.479883 3.950063
v -0.335977 5.396717 4.310627
v -0.308649 5.272954 4.665500
v -0.330592 5.556056 3.587682
v -0.330985 5.505412 3.955129
v -0.319843 5.426749 4.317372
v -0.292002 5.307095 4.675407
v -0.301562 5.567726 3.589191
v -0.299126 5.518220 3.956786
v -0.285155 5.440694 4.319176
v -0.254486 5.322177 4.677358
v -0.275768 5.563232 3.587525
v -0.269773 5.510804 3.954062
v -0.252233 5.430383 4.314981
v -0.218077 5.309367 4.670209
v -0.268315 5.545195 3.583657
v -0.260118 5.487500 3.948551
v -0.240363 5.401858 4.307244
v -0.204105 5.276172 4.658149
v -0.283569 5.524179 3.579853
v -0.275815 5.461957 3.943481
v -0.256491 5.371811 4.300494
v -0.220753 5.242035 4.648242
v -0.338400 5.517019 3.580013
v -0.337032 5.456578 3.944552
v -0.324106 5.368191 4.302890
v -0.294677 5.239760 4.653440
v -0.312599 5.512507 3.578344
v -0.307674 5.449148 3.941824
v -0.291179 5.357866 4.298691
v -0.258270 5.226953 4.646291
v -0.342263 5.575841 3.215212
v -0.264029 5.111156 4.964544
v -0.337063 5.591671 3.218040
v -0.263102 5.148881 4.979512
v -0.314791 5.606311 3.220258
v -0.233736 5.176159 4.987218
v -0.288497 5.611195 3.220566
v -0.193133 5.177010 4.983150
v -0.273580 5.603454 3.218783
v -0.165079 5.150936 4.969689
v -0.278777 5.587615 3.215952
v -0.166006 5.113211 4.954722
v -0.301043 5.572958 3.213732
v -0.195373 5.085934 4.947016
v -0.327343 5.568090 3.213427
v -0.235975 5.085082 4.951084
v -0.234108 5.081440 5.048392
v -0.233582 5.104609 5.057817
v -0.215619 5.121340 5.062643
v -0.190741 5.121832 5.060044
v -0.173522 5.105797 5.051543
v -0.174048 5.082628 5.042119
v -0.192012 5.065897 5.037292
v -0.216889 5.065405 5.039891
v -0.345134 5.524831 3.581791
v -0.345160 5.466906 3.947136
v -0.333634 5.381010 4.306572
v -0.305548 5.254795 4.659268
v -0.304096 5.291351 4.671194
v -0.331318 5.412799 4.314434
v -0.341876 5.493416 3.952878
v -0.340894 5.546022 3.585954
v -0.274692 5.318074 4.677632
v -0.303729 5.436677 4.319076
v -0.316055 5.514228 3.956528
v -0.316848 5.563756 3.588836
v -0.234558 5.319307 4.674810
v -0.267023 5.438648 4.317777
v -0.282824 5.517156 3.955949
v -0.287085 5.567655 3.588752
v -0.207206 5.294331 4.664381
v -0.242707 5.417565 4.311300
v -0.261647 5.500480 3.951478
v -0.269036 5.555424 3.585748
v -0.208659 5.257778 4.652455
v -0.245019 5.385770 4.303436
v -0.264927 5.473960 3.945734
v -0.273270 5.534221 3.581583
v -0.238064 5.231057 4.646018
v -0.272603 5.361878 4.298790
v -0.290743 5.453136 3.942081
v -0.297311 5.516472 3.578697
v -0.278198 5.229822 4.648840
v -0.309315 5.359921 4.300092
v -0.323979 5.450220 3.942663
v -0.327080 5.512588 3.578785
vt 0.5919 0.5625
vt 0.5592 0.5625
vt 0.5592 0.5000
vt 0.5919 0.5000
vt 0.6163 0.5000
vt 0.6163 0.5625
vt 0.6163 0.6250
vt 0.5919 0.6250
vt 0.5592 0.6250
vt 0.5919 0.6875
vt 0.5592 0.6875
vt 0.6163 0.6875
vt 0.6163 0.7500
vt 0.5919 0.7500
vt 0.5592 0.7500
vt 0.5919 0.8125
vt 0.5592 0.8125
vt 0.6163 0.8125
vt 0.6163 0.8750
vt 0.5919 0.8750
vt 0.5592 0.8750
vt 0.5919 0.9375
vt 0.5592 0.9375
vt 0.6163 0.9375
vt 0.6163 0.9999
vt 0.5919 0.9999
vt 0.5592 0.9999
vt 0.5919 0.0626
vt 0.5592 0.0626
vt 0.5592 0.0001
vt 0.5919 0.0001
vt 0.6163 0.0001
vt 0.6163 0.0626
vt 0.6163 0.1250
vt 0.5919 0.1250
vt 0.5592 0.1250
vt 0.5919 0.1875
vt 0.5592 0.1875
vt 0.6163 0.1875
vt 0.6163 0.2500
vt 0.5919 0.2500
vt 0.5592 0.2500
vt 0.5919 0.4375
vt 0.5592 0.4375
vt 0.5592 0.3750
vt 0.5919 0.3750
vt 0.6163 0.3750
vt 0.6163 0.4375
vt 0.5919 0.3125
vt 0.5592 0.3125
vt 0.6163 0.3125
vt 0.6245 0.6875
vt 0.6245 0.7500
vt 0.6245 0.6250
vt 0.6245 0.6250
vt 0.6245 0.6875
vt 0.6245 0.7500
vt 0.6245 0.8125
vt 0.6245 0.8750
vt 0.6245 0.8125
vt 0.6245 0.8750
vt 0.6245 0.5625
vt 0.6245 0.5000
vt 0.6245 0.5000
vt 0.6245 0.5625
vt 0.6245 0.9375
vt 0.6245 0.9999
vt 0.6245 0.9375
vt 0.6245 0.9999
vt 0.6245 0.0626
vt 0.6245 0.1250
vt 0.6245 0.0001
vt 0.6245 0.0001
vt 0.6245 0.0626
vt 0.6245 0.1250
vt 0.6245 0.1875
vt 0.6245 0.2500
vt 0.6245 0.1875
vt 0.6245 0.2500
vt 0.6245 0.3125
vt 0.6245 0.3750
vt 0.6245 0.3125
vt 0.6245 0.3750
vt 0.6245 0.4375
vt 0.6245 0.4375
vt 0.6245 0.4375
vt 0.6245 0.6875
vt 0.6245 0.6250
vt 0.6245 0.5625
vt 0.6245 0.5000
vt 0.6245 0.4375
vt 0.6245 0.3750
vt 0.6245 0.3125
vt 0.6245 0.2500
vt 0.6245 0.1875
vt 0.6245 0.1250
vt 0.6245 0.0626
vt 0.6245 0.0001
vt 0.6245 0.4375
vt 0.6245 0.8750
vt 0.6245 0.8125
vt 0.6245 0.7500
vt 0.3306 0.5625
vt 0.2979 0.5625
vt 0.2979 0.5000
vt 0.3306 0.5000
vt 0.3632 0.5000
vt 0.3632 0.5625
vt 0.3632 0.6250
vt 0.3306 0.6250
vt 0.2979 0.6250
vt 0.3959 0.5625
vt 0.3959 0.5000
vt 0.4286 0.5000
vt 0.4286 0.5625
vt 0.4286 0.6250
vt 0.3959 0.6250
vt 0.4612 0.5625
vt 0.4612 0.5000
vt 0.4939 0.5000
vt 0.4939 0.5625
vt 0.4939 0.6250
vt 0.4612 0.6250
vt 0.5265 0.5625
vt 0.5265 0.5000
vt 0.5265 0.6250
vt 0.3306 0.6875
vt 0.2979 0.6875
vt 0.3632 0.6875
vt 0.3632 0.7500
vt 0.3306 0.7500
vt 0.2979 0.7500
vt 0.3959 0.6875
vt 0.4286 0.6875
vt 0.4286 0.7500
vt 0.3959 0.7500
vt 0.4612 0.6875
vt 0.4939 0.6875
vt 0.4939 0.7500
vt 0.4612 0.7500
vt 0.5265 0.6875
vt 0.5265 0.7500
vt 0.3306 0.8125
vt 0.2979 0.8125
vt 0.3632 0.8125
vt 0.3632 0.8750
vt 0.3306 0.8750
vt 0.2979 0.8750
vt 0.3959 0.8125
vt 0.4285 0.8125
vt 0.4285 0.8750
vt 0.3959 0.8750
vt 0.4612 0.8125
vt 0.4939 0.8125
vt 0.4939 0.8750
vt 0.4612 0.8750
vt 0.5265 0.8125
vt 0.5265 0.8750
vt 0.3306 0.9375
vt 0.2979 0.9375
vt 0.3632 0.9375
vt 0.3632 0.9999
vt 0.3306 0.9999
vt 0.2979 0.9999
vt 0.3959 0.9375
vt 0.4286 0.9375
vt 0.4286 0.9999
vt 0.3959 0.9999
vt 0.4612 0.9375
vt 0.4939 0.9375
vt 0.4939 0.9999
vt 0.4612 0.9999
vt 0.5265 0.9375
vt 0.5265 0.9999
vt 0.3306 0.0626
vt 0.2979 0.0625
vt 0.2979 0.0001
vt 0.3306 0.0001
vt 0.3632 0.0001
vt 0.3632 0.0626
vt 0.3632 0.1250
vt 0.3306 0.1250
vt 0.2979 0.1250
vt 0.3959 0.0626
vt 0.3959 0.0001
vt 0.4286 0.0001
vt 0.4286 0.0626
vt 0.4286 0.1250
vt 0.3959 0.1250
vt 0.4612 0.0626
vt 0.4612 0.0001
vt 0.4939 0.0001
vt 0.4939 0.0626
vt 0.4939 0.1250
vt 0.4612 0.1250
vt 0.5265 0.0626
vt 0.5265 0.0001
vt 0.5265 0.1250
vt 0.3306 0.1875
vt 0.2979 0.1875
vt 0.3632 0.1875
vt 0.3632 0.2500
vt 0.3306 0.2500
vt 0.2979 0.2500
vt 0.3959 0.1875
vt 0.4286 0.1875
vt 0.4286 0.2500
vt 0.3959 0.2500
vt 0.4612 0.1875
vt 0.4939 0.1875
vt 0.4939 0.2500
vt 0.4612 0.2500
vt 0.5265 0.1875
vt 0.5265 0.2500
vt 0.3306 0.4375
vt 0.2979 0.4375
vt 0.2979 0.3750
vt 0.3306 0.3750
vt 0.3632 0.3750
vt 0.3632 0.4375
vt 0.3959 0.4375
vt 0.3959 0.3750
vt 0.4286 0.3750
vt 0.4286 0.4375
vt 0.4612 0.4375
vt 0.4612 0.3750
vt 0.4939 0.3750
vt 0.4939 0.4375
vt 0.5265 0.4375
vt 0.5265 0.3750
vt 0.3306 0.3125
vt 0.2979 0.3125
vt 0.3632 0.3125
vt 0.3959 0.3125
vt 0.4286 0.3125
vt 0.4612 0.3125
vt 0.4939 0.3125
vt 0.5265 0.3125
vn -0.9917 -0.0155 0.1277
vn -0.9943 0.0074 0.1060
vn -0.9290 -0.3656 -0.0567
vn -0.9272 -0.3713 -0.0475
vn -0.9174 -0.3978 0.0125
vn -0.9814 -0.0497 0.1851
vn -0.8930 0.2994 0.3359
vn -0.8994 0.3374 0.2779
vn -0.8975 0.3684 0.2424
vn -0.6744 0.6316 0.3824
vn -0.6725 0.6599 0.3351
vn -0.6694 0.5964 0.4430
vn -0.3465 0.7981 0.4929
vn -0.3558 0.8295 0.4305
vn -0.3622 0.8520 0.3781
vn 0.0137 0.9082 0.4182
vn -0.0030 0.9290 0.3699
vn 0.0290 0.8772 0.4793
vn 0.4041 0.8209 0.4034
vn 0.3877 0.8548 0.3449
vn 0.3681 0.8772 0.3083
vn 0.7110 0.6691 0.2163
vn 0.6991 0.6882 0.1941
vn 0.7222 0.6352 0.2737
vn 0.9320 0.3457 0.1086
vn 0.9262 0.3738 0.0489
vn 0.9243 0.3794 0.0397
vn 0.9915 0.0187 -0.1290
vn 0.9919 0.0068 -0.1265
vn 0.9978 -0.0013 -0.0662
vn 0.9101 -0.3501 -0.2218
vn 0.8990 -0.3321 -0.2853
vn 0.8957 -0.3526 -0.2706
vn 0.6731 -0.6247 -0.3958
vn 0.6695 -0.6437 -0.3706
vn 0.6858 -0.6466 -0.3341
vn 0.3613 -0.8488 -0.3858
vn 0.3536 -0.8220 -0.4464
vn 0.3576 -0.8358 -0.4165
vn -0.7130 -0.6665 -0.2176
vn -0.7053 -0.6755 -0.2147
vn -0.3752 -0.8636 -0.3367
vn -0.3904 -0.8505 -0.3524
vn -0.3916 -0.8734 -0.2895
vn -0.7093 -0.6876 -0.1550
vn -0.0163 -0.9019 -0.4317
vn -0.0029 -0.9141 -0.4055
vn -0.0158 -0.9286 -0.3706
vn -0.6073 0.4663 0.6432
vn -0.3001 0.6570 0.6916
vn -0.8159 0.1809 0.5492
vn -0.6108 0.0002 0.7918
vn -0.3076 0.0562 0.9499
vn -0.2006 0.3823 0.9020
vn 0.0564 0.7331 0.6777
vn 0.4116 0.6744 0.6130
vn 0.0971 0.2189 0.9709
vn 0.3675 0.3936 0.8426
vn -0.8984 -0.1493 0.4129
vn -0.8359 -0.4807 0.2649
vn -0.6228 -0.5288 0.5765
vn -0.4822 -0.3206 0.8152
vn 0.7111 0.4977 0.4966
vn 0.9082 0.2205 0.3556
vn 0.4947 0.0721 0.8661
vn 0.7607 0.0274 0.6485
vn 0.9737 -0.1075 0.2008
vn 0.8943 -0.4424 0.0672
vn 0.6524 -0.2982 0.6967
vn 0.7487 -0.5017 0.4333
vn 0.6848 -0.7279 -0.0356
vn 0.3754 -0.9234 -0.0797
vn 0.4777 -0.6751 0.5621
vn 0.3385 -0.8838 0.3231
vn 0.0143 -0.9974 -0.0705
vn -0.3423 -0.9396 0.0029
vn 0.0731 -0.8378 0.5411
vn -0.2296 -0.8950 0.3824
vn -0.6425 -0.7573 0.1168
vn -0.3245 -0.6910 0.6459
vn 0.1036 -0.3768 0.9205
vn -0.9755 0.2192 0.0185
vn -0.9714 0.2366 0.0200
vn -0.9221 -0.3819 -0.0615
vn -0.9274 -0.3693 -0.0597
vn -0.9275 -0.3691 -0.0595
vn -0.9843 0.1755 0.0152
vn -0.8216 0.5661 0.0658
vn -0.7943 0.6038 0.0668
vn -0.7803 0.6217 0.0678
vn -0.9899 0.1403 0.0183
vn -0.9281 -0.3676 -0.0592
vn -0.9286 -0.3664 -0.0588
vn -0.9935 0.1093 0.0302
vn -0.8609 0.4994 0.0970
vn -0.8433 0.5322 0.0740
vn -0.9956 0.0808 0.0475
vn -0.9287 -0.3662 -0.0584
vn -0.9289 -0.3659 -0.0577
vn -0.9962 0.0546 0.0669
vn -0.8855 0.4338 0.1661
vn -0.8750 0.4666 0.1293
vn -0.9958 0.0299 0.0866
vn -0.9289 -0.3659 -0.0572
vn -0.8931 0.4008 0.2043
vn -0.5819 0.8081 0.0911
vn -0.5713 0.8157 0.0906
vn -0.6026 0.7925 0.0937
vn -0.3757 0.9203 0.1095
vn -0.3756 0.9208 0.1048
vn -0.3756 0.9210 0.1032
vn -0.6206 0.7768 0.1068
vn -0.6364 0.7590 0.1376
vn -0.3753 0.9131 0.1593
vn -0.3757 0.9182 0.1251
vn -0.6497 0.7384 0.1805
vn -0.6602 0.7150 0.2299
vn -0.3717 0.8909 0.2609
vn -0.3742 0.9040 0.2065
vn -0.6680 0.6886 0.2821
vn -0.3677 0.8735 0.3189
vn -0.1485 0.9823 0.1137
vn -0.1613 0.9805 0.1119
vn -0.1232 0.9853 0.1186
vn 0.1929 0.9740 0.1185
vn 0.1471 0.9823 0.1158
vn 0.1247 0.9855 0.1149
vn -0.1006 0.9859 0.1339
vn -0.0797 0.9828 0.1665
vn 0.2644 0.9518 0.1555
vn 0.2311 0.9642 0.1299
vn -0.0597 0.9756 0.2112
vn -0.0404 0.9642 0.2621
vn 0.3211 0.9189 0.2288
vn 0.2942 0.9366 0.1901
vn -0.0213 0.9486 0.3157
vn 0.3460 0.8989 0.2687
vn 0.5470 0.8314 0.0977
vn 0.5320 0.8410 0.0981
vn 0.5839 0.8060 0.0968
vn 0.9259 0.3760 0.0368
vn 0.9260 0.3758 0.0367
vn 0.9311 0.3631 0.0349
vn 0.6120 0.7843 0.1015
vn 0.6349 0.7640 0.1149
vn 0.9248 0.3786 0.0375
vn 0.9253 0.3775 0.0371
vn 0.6545 0.7442 0.1333
vn 0.6713 0.7250 0.1537
vn 0.9245 0.3792 0.0386
vn 0.9246 0.3789 0.0380
vn 0.6863 0.7062 0.1741
vn 0.9245 0.3792 0.0391
vn 0.9759 -0.2138 -0.0443
vn 0.9682 -0.2454 -0.0477
vn 0.9847 -0.1693 -0.0408
vn 0.8225 -0.5603 -0.0980
vn 0.7950 -0.5984 -0.0992
vn 0.7777 -0.6204 -0.1007
vn 0.9904 -0.1315 -0.0433
vn 0.9937 -0.0981 -0.0547
vn 0.8623 -0.4897 -0.1285
vn 0.8446 -0.5247 -0.1059
vn 0.9951 -0.0685 -0.0712
vn 0.9951 -0.0414 -0.0897
vn 0.8856 -0.4205 -0.1969
vn 0.8758 -0.4551 -0.1606
vn 0.9940 -0.0163 -0.1084
vn 0.8922 -0.3862 -0.2343
vn 0.5826 -0.8025 -0.1290
vn 0.5708 -0.8109 -0.1286
vn 0.6032 -0.7866 -0.1315
vn 0.3755 -0.9147 -0.1495
vn 0.3755 -0.9154 -0.1449
vn 0.3756 -0.9156 -0.1433
vn 0.6213 -0.7701 -0.1445
vn 0.6370 -0.7506 -0.1754
vn 0.3744 -0.9055 -0.1996
vn 0.3753 -0.9121 -0.1652
vn 0.6497 -0.7281 -0.2185
vn 0.6594 -0.7024 -0.2680
vn 0.3691 -0.8789 -0.3020
vn 0.3724 -0.8945 -0.2473
vn 0.6660 -0.6740 -0.3197
vn 0.3641 -0.8591 -0.3596
vn -0.5488 -0.8267 -0.1236
vn -0.5212 -0.8442 -0.1252
vn -0.1208 -0.9817 -0.1475
vn -0.1485 -0.9777 -0.1482
vn -0.1946 -0.9692 -0.1509
vn -0.5862 -0.8008 -0.1224
vn -0.6161 -0.7773 -0.1268
vn -0.2344 -0.9585 -0.1620
vn -0.2693 -0.9446 -0.1874
vn -0.6406 -0.7551 -0.1397
vn -0.6605 -0.7341 -0.1573
vn -0.2999 -0.9278 -0.2218
vn -0.3276 -0.9083 -0.2600
vn -0.6776 -0.7139 -0.1766
vn -0.6925 -0.6943 -0.1961
vn -0.3527 -0.8867 -0.2990
vn 0.1476 -0.9773 -0.1516
vn 0.1617 -0.9754 -0.1499
vn 0.1220 -0.9801 -0.1565
vn 0.0988 -0.9802 -0.1717
vn 0.0768 -0.9758 -0.2045
vn 0.0560 -0.9668 -0.2494
vn 0.0357 -0.9531 -0.3004
vn 0.0160 -0.9353 -0.3534
s 1
f 1/1/1 125/2/2 181/3/3 52/4/4
f 1/1/1 52/4/4 155/5/5 51/6/6
f 1/1/1 51/6/6 157/7/7 94/8/8
f 1/1/1 94/8/8 182/9/9 125/2/2
f 2/10/10 129/11/11 182/9/9 94/8/8
f 2/10/10 94/8/8 157/7/7 55/12/12
f 2/10/10 55/12/12 159/13/13 98/14/14
f 2/10/10 98/14/14 186/15/15 129/11/11
f 3/16/16 133/17/17 186/15/15 98/14/14
f 3/16/16 98/14/14 159/13/13 58/18/18
f 3/16/16 58/18/18 161/19/19 102/20/20
f 3/16/16 102/20/20 190/21/21 133/17/17
f 4/22/22 137/23/23 190/21/21 102/20/20
f 4/22/22 102/20/20 161/19/19 61/24/24
f 4/22/22 61/24/24 163/25/25 106/26/26
f 4/22/22 106/26/26 194/27/27 137/23/23
f 5/28/28 141/29/29 194/30/27 106/31/26
f 5/28/28 106/31/26 163/32/25 64/33/30
f 5/28/28 64/33/30 165/34/31 110/35/32
f 5/28/28 110/35/32 198/36/33 141/29/29
f 6/37/34 145/38/35 198/36/33 110/35/32
f 6/37/34 110/35/32 165/34/31 67/39/36
f 6/37/34 67/39/36 167/40/37 114/41/38
f 6/37/34 114/41/38 202/42/39 145/38/35
f 7/43/40 149/44/41 206/45/42 118/46/43
f 7/43/40 118/46/43 169/47/44 73/48/45
f 7/43/40 73/48/45 155/5/5 52/4/4
f 7/43/40 52/4/4 181/3/3 149/44/41
f 8/49/46 153/50/47 202/42/39 114/41/38
f 8/49/46 114/41/38 167/40/37 70/51/48
f 8/49/46 70/51/48 169/47/44 118/46/43
f 8/49/46 118/46/43 206/45/42 153/50/47
f 9/52/49 83/53/50 159/13/13 55/12/12
f 9/52/49 55/12/12 157/7/7 82/54/51
f 9/52/49 82/54/51 171/55/52 75/56/53
f 9/52/49 75/56/53 172/57/54 83/53/50
f 10/58/55 84/59/56 161/19/19 58/18/18
f 10/58/55 58/18/18 159/13/13 83/53/50
f 10/58/55 83/53/50 172/57/54 76/60/57
f 10/58/55 76/60/57 173/61/58 84/59/56
f 11/62/59 82/54/51 157/7/7 51/6/6
f 11/62/59 51/6/6 155/5/5 85/63/60
f 11/62/59 85/63/60 170/64/61 74/65/62
f 11/62/59 74/65/62 171/55/52 82/54/51
f 12/66/63 86/67/64 163/25/25 61/24/24
f 12/66/63 61/24/24 161/19/19 84/59/56
f 12/66/63 84/59/56 173/61/58 77/68/65
f 12/66/63 77/68/65 174/69/66 86/67/64
f 13/70/67 87/71/68 165/34/31 64/33/30
f 13/70/67 64/33/30 163/32/25 86/72/64
f 13/70/67 86/72/64 174/73/66 78/74/69
f 13/70/67 78/74/69 175/75/70 87/71/68
f 14/76/71 88/77/72 167/40/37 67/39/36
f 14/76/71 67/39/36 165/34/31 87/71/68
f 14/76/71 87/71/68 175/75/70 79/78/73
f 14/76/71 79/78/73 176/79/74 88/77/72
f 15/80/75 89/81/76 169/47/44 70/51/48
f 15/80/75 70/51/48 167/40/37 88/77/72
f 15/80/75 88/77/72 176/79/74 80/82/77
f 15/80/75 80/82/77 177/83/78 89/81/76
f 16/84/79 85/63/60 155/5/5 73/48/45
f 16/84/79 73/48/45 169/47/44 89/81/76
f 16/84/79 89/81/76 177/83/78 81/85/80
f 16/84/79 81/85/80 170/64/61 85/63/60
f 17/86/81 76/87/57 172/88/54 75/89/53
f 17/86/81 75/89/53 171/90/52 74/91/62
f 17/86/81 74/91/62 170/92/61 81/93/80
f 17/86/81 81/93/80 177/94/78 80/95/77
f 17/86/81 80/95/77 176/96/74 79/97/73
f 17/86/81 79/97/73 175/98/70 78/99/69
f 17/86/81 78/99/69 174/100/66 77/101/65
f 17/86/81 77/101/65 173/102/58 76/87/57
f 18/103/82 50/104/83 154/105/84 90/106/85
f 18/103/82 90/106/85 178/107/86 122/108/87
f 18/103/82 122/108/87 185/109/88 53/110/89
f 18/103/82 53/110/89 156/111/90 50/104/83
f 19/112/91 122/108/87 178/107/86 91/113/92
f 19/112/91 91/113/92 179/114/93 123/115/94
f 19/112/91 123/115/94 184/116/95 97/117/96
f 19/112/91 97/117/96 185/109/88 122/108/87
f 20/118/97 123/115/94 179/114/93 92/119/98
f 20/118/97 92/119/98 180/120/99 124/121/100
f 20/118/97 124/121/100 183/122/101 96/123/102
f 20/118/97 96/123/102 184/116/95 123/115/94
f 21/124/103 124/121/100 180/120/99 93/125/104
f 21/124/103 93/125/104 181/3/3 125/2/2
f 21/124/103 125/2/2 182/9/9 95/126/105
f 21/124/103 95/126/105 183/122/101 124/121/100
f 22/127/106 54/128/107 156/111/90 53/110/89
f 22/127/106 53/110/89 185/109/88 126/129/108
f 22/127/106 126/129/108 189/130/109 56/131/110
f 22/127/106 56/131/110 158/132/111 54/128/107
f 23/133/112 126/129/108 185/109/88 97/117/96
f 23/133/112 97/117/96 184/116/95 127/134/113
f 23/133/112 127/134/113 188/135/114 101/136/115
f 23/133/112 101/136/115 189/130/109 126/129/108
f 24/137/116 127/134/113 184/116/95 96/123/102
f 24/137/116 96/123/102 183/122/101 128/138/117
f 24/137/116 128/138/117 187/139/118 100/140/119
f 24/137/116 100/140/119 188/135/114 127/134/113
f 25/141/120 128/138/117 183/122/101 95/126/105
f 25/141/120 95/126/105 182/9/9 129/11/11
f 25/141/120 129/11/11 186/15/15 99/142/121
f 25/141/120 99/142/121 187/139/118 128/138/117
f 26/143/122 57/144/123 158/132/111 56/131/110
f 26/143/122 56/131/110 189/130/109 130/145/124
f 26/143/122 130/145/124 193/146/125 59/147/126
f 26/143/122 59/147/126 160/148/127 57/144/123
f 27/149/128 130/145/124 189/130/109 101/136/115
f 27/149/128 101/136/115 188/135/114 131/150/129
f 27/149/128 131/150/129 192/151/130 105/152/131
f 27/149/128 105/152/131 193/146/125 130/145/124
f 28/153/132 131/150/129 188/135/114 100/140/119
f 28/153/132 100/140/119 187/139/118 132/154/133
f 28/153/132 132/154/133 191/155/134 104/156/135
f 28/153/132 104/156/135 192/151/130 131/150/129
f 29/157/136 132/154/133 187/139/118 99/142/121
f 29/157/136 99/142/121 186/15/15 133/17/17
f 29/157/136 133/17/17 190/21/21 103/158/137
f 29/157/136 103/158/137 191/155/134 132/154/133
f 30/159/138 60/160/139 160/148/127 59/147/126
f 30/159/138 59/147/126 193/146/125 134/161/140
f 30/159/138 134/161/140 197/162/141 62/163/142
f 30/159/138 62/163/142 162/164/143 60/160/139
f 31/165/144 134/161/140 193/146/125 105/152/131
f 31/165/144 105/152/131 192/151/130 135/166/145
f 31/165/144 135/166/145 196/167/146 109/168/147
f 31/165/144 109/168/147 197/162/141 134/161/140
f 32/169/148 135/166/145 192/151/130 104/156/135
f 32/169/148 104/156/135 191/155/134 136/170/149
f 32/169/148 136/170/149 195/171/150 108/172/151
f 32/169/148 108/172/151 196/167/146 135/166/145
f 33/173/152 136/170/149 191/155/134 103/158/137
f 33/173/152 103/158/137 190/21/21 137/23/23
f 33/173/152 137/23/23 194/27/27 107/174/153
f 33/173/152 107/174/153 195/171/150 136/170/149
f 34/175/154 63/176/155 162/177/143 62/178/142
f 34/175/154 62/178/142 197/179/141 138/180/156
f 34/175/154 138/180/156 201/181/157 65/182/158
f 34/175/154 65/182/158 164/183/159 63/176/155
f 35/184/160 138/180/156 197/179/141 109/185/147
f 35/184/160 109/185/147 196/186/146 139/187/161
f 35/184/160 139/187/161 200/188/162 113/189/163
f 35/184/160 113/189/163 201/181/157 138/180/156
f 36/190/164 139/187/161 196/186/146 108/191/151
f 36/190/164 108/191/151 195/192/150 140/193/165
f 36/190/164 140/193/165 199/194/166 112/195/167
f 36/190/164 112/195/167 200/188/162 139/187/161
f 37/196/168 140/193/165 195/192/150 107/197/153
f 37/196/168 107/197/153 194/30/27 141/29/29
f 37/196/168 141/29/29 198/36/33 111/198/169
f 37/196/168 111/198/169 199/194/166 140/193/165
f 38/199/170 66/200/171 164/183/159 65/182/158
f 38/199/170 65/182/158 201/181/157 142/201/172
f 38/199/170 142/201/172 205/202/173 68/203/174
f 38/199/170 68/203/174 166/204/175 66/200/171
f 39/205/176 142/201/172 201/181/157 113/189/163
f 39/205/176 113/189/163 200/188/162 143/206/177
f 39/205/176 143/206/177 204/207/178 117/208/179
f 39/205/176 117/208/179 205/202/173 142/201/172
f 40/209/180 143/206/177 200/188/162 112/195/167
f 40/209/180 112/195/167 199/194/166 144/210/181
f 40/209/180 144/210/181 203/211/182 116/212/183
f 40/209/180 116/212/183 204/207/178 143/206/177
f 41/213/184 144/210/181 199/194/166 111/198/169
f 41/213/184 111/198/169 198/36/33 145/38/35
f 41/213/184 145/38/35 202/42/39 115/214/185
f 41/213/184 115/214/185 203/211/182 144/210/181
f 42/215/186 72/216/187 168/217/188 71/218/189
f 42/215/186 71/218/189 209/219/190 146/220/191
f 42/215/186 146/220/191 178/107/86 90/106/85
f 42/215/186 90/106/85 154/105/84 72/216/187
f 43/221/192 146/220/191 209/219/190 121/222/193
f 43/221/192 121/222/193 208/223/194 147/224/195
f 43/221/192 147/224/195 179/114/93 91/113/92
f 43/221/192 91/113/92 178/107/86 146/220/191
f 44/225/196 147/224/195 208/223/194 120/226/197
f 44/225/196 120/226/197 207/227/198 148/228/199
f 44/225/196 148/228/199 180/120/99 92/119/98
f 44/225/196 92/119/98 179/114/93 147/224/195
f 45/229/200 148/228/199 207/227/198 119/230/201
f 45/229/200 119/230/201 206/45/42 149/44/41
f 45/229/200 149/44/41 181/3/3 93/125/104
f 45/229/200 93/125/104 180/120/99 148/228/199
f 46/231/202 69/232/203 166/204/175 68/203/174
f 46/231/202 68/203/174 205/202/173 150/233/204
f 46/231/202 150/233/204 209/219/190 71/218/189
f 46/231/202 71/218/189 168/217/188 69/232/203
f 47/234/205 150/233/204 205/202/173 117/208/179
f 47/234/205 117/208/179 204/207/178 151/235/206
f 47/234/205 151/235/206 208/223/194 121/222/193
f 47/234/205 121/222/193 209/219/190 150/233/204
f 48/236/207 151/235/206 204/207/178 116/212/183
f 48/236/207 116/212/183 203/211/182 152/237/208
f 48/236/207 152/237/208 207/227/198 120/226/197
f 48/236/207 120/226/197 208/223/194 151/235/206
f 49/238/209 152/237/208 203/211/182 115/214/185
f 49/238/209 115/214/185 202/42/39 153/50/47
f 49/238/209 153/50/47 206/45/42 119/230/201
f 49/238/209 119/230/201 207/227/198 152/237/208
