# Blender v2.77 (sub 0) OBJ File: 'still_blendswap1.blend'
# www.blender.org
o Cylinder.042
v -1.788730 6.357308 5.805984
v -1.750634 6.359429 5.825847
v -1.719413 6.330893 5.837724
v -1.713357 6.288416 5.834658
v -1.736010 6.256884 5.818444
v -1.774103 6.254766 5.798581
v -1.811383 6.325776 5.789770
v -1.805323 6.283302 5.786704
v -1.886396 6.325792 6.117672
v -1.861237 6.302796 6.127244
v -1.917000 6.323592 6.100232
v -1.856260 6.268074 6.123340
v -1.874381 6.241966 6.108246
v -1.904985 6.239766 6.090806
v -1.930145 6.262762 6.081234
v -1.935122 6.297484 6.085139
v -1.914770 6.280725 6.149457
v -1.073085 6.260203 3.748535
v -1.222720 6.319100 4.269119
v -1.384297 6.363661 4.786653
v -1.571848 6.378475 5.300992
v -1.049746 6.255068 3.756362
v -1.195221 6.315731 4.278604
v -1.352704 6.362107 4.798085
v -1.536614 6.378868 5.315878
v -1.027599 6.234826 3.764787
v -1.170805 6.293415 4.287892
v -1.326020 6.337718 4.808237
v -1.507662 6.352405 5.326893
v -1.019618 6.211333 3.768876
v -1.163776 6.265224 4.291543
v -1.319877 6.304780 4.811160
v -1.501952 6.314588 5.327583
v -1.030485 6.198343 3.766231
v -1.178257 6.247663 4.287416
v -1.337874 6.282584 4.805142
v -1.522825 6.287573 5.317545
v -1.053837 6.203462 3.758401
v -1.205767 6.251018 4.277928
v -1.369477 6.284125 4.793706
v -1.558062 6.287176 5.302657
v -1.083952 6.247212 3.745891
v -1.237201 6.301538 4.264992
v -1.402294 6.341465 4.780635
v -1.592721 6.351460 5.290955
v -1.075984 6.223705 3.749976
v -1.230182 6.273334 4.268641
v -1.396161 6.308514 4.783555
v -1.587014 6.313639 5.291643
v -0.999073 6.229877 3.488252
v -1.878440 6.338884 6.003488
v -1.803290 6.344497 5.796647
v -1.062242 6.260069 3.752026
v -0.977839 6.223865 3.495328
v -1.841587 6.341379 6.024028
v -1.037549 6.246291 3.760848
v -0.956826 6.204659 3.503322
v -1.811315 6.313709 6.035545
v -1.021191 6.222548 3.767642
v -0.948344 6.183510 3.507551
v -1.805356 6.272084 6.031291
v -1.022757 6.202743 3.768426
v -0.957367 6.172801 3.505538
v -1.827201 6.240887 6.013760
v -1.041334 6.198470 3.762740
v -0.978613 6.178800 3.498460
v -1.864054 6.238392 5.993220
v -1.066038 6.212235 3.753914
v -0.999625 6.198005 3.490466
v -1.894326 6.266062 5.981703
v -1.082385 6.235991 3.747123
v -1.008096 6.219168 3.486239
v -1.900285 6.307687 5.985956
v -1.922935 6.306013 6.135720
v -1.904358 6.307348 6.146307
v -1.889086 6.293389 6.152117
v -1.886065 6.272313 6.149746
v -1.897065 6.256465 6.140585
v -1.915642 6.255129 6.129998
v -1.930914 6.269088 6.124188
v -1.933935 6.290165 6.126558
v -1.902214 6.328288 6.109357
v -1.871940 6.316998 6.124022
v -1.855579 6.285663 6.127098
v -1.928666 6.312920 6.091694
v -1.862715 6.252639 6.116784
v -1.889168 6.237270 6.099122
v -1.919441 6.248560 6.084457
v -1.935802 6.279895 6.081381
v -1.080811 6.255805 3.746341
v -1.232487 6.312632 4.266094
v -1.396058 6.355090 4.782593
v -1.585283 6.367708 5.294833
v -1.770309 6.362767 5.816233
v -1.554823 6.382586 5.308364
v -1.369137 6.366294 4.792066
v -1.209698 6.320335 4.273483
v -1.732677 6.348426 5.833465
v -1.519976 6.368435 5.322425
v -1.337498 6.352211 4.803784
v -1.181515 6.306390 4.283675
v -1.712440 6.309874 5.838248
v -1.501159 6.333536 5.328779
v -1.319677 6.321087 4.810882
v -1.164443 6.278972 4.290700
v -1.721450 6.269694 5.827781
v -1.509390 6.298340 5.323705
v -1.326111 6.291157 4.809203
v -1.168487 6.254134 4.290442
v -1.754429 6.251427 5.808195
v -1.539850 6.283461 5.310173
v -1.353038 6.279945 4.799727
v -1.191285 6.246420 4.283050
v -1.792059 6.265769 5.790964
v -1.574702 6.297607 5.296110
v -1.384687 6.294017 4.788006
v -1.219476 6.260356 4.272857
v -1.812298 6.304320 5.786180
v -1.593515 6.332511 5.289757
v -1.402498 6.325152 4.780911
v -1.236540 6.287785 4.265834
v -1.147500 6.290090 4.008823
v -1.300925 6.344526 4.528653
v -1.474162 6.375359 5.043854
v -1.676867 6.372595 5.555793
v -1.122068 6.285836 4.017439
v -1.271375 6.342055 4.539078
v -1.440639 6.374756 5.056671
v -1.640116 6.373930 5.573130
v -1.098787 6.264556 4.026296
v -1.245826 6.318702 4.548798
v -1.412821 6.349330 5.067254
v -1.610030 6.346430 5.584576
v -1.091295 6.238717 4.030205
v -1.239243 6.288147 4.552118
v -1.407004 6.313975 5.069403
v -1.604232 6.306206 5.583426
v -1.103987 6.223444 4.026874
v -1.255488 6.268282 4.547093
v -1.426593 6.289403 5.061861
v -1.626114 6.276824 5.570354
v -1.129431 6.227683 4.018254
v -1.285048 6.270741 4.536665
v -1.460126 6.289994 5.049040
v -1.662862 6.275493 5.553018
v -1.160193 6.274817 4.005492
v -1.317170 6.324661 4.523628
v -1.493752 6.350787 5.036312
v -1.698750 6.343213 5.542721
v -1.152712 6.248962 4.009398
v -1.310597 6.294094 4.526946
v -1.487944 6.315421 5.038457
v -1.692949 6.302992 5.541572
v -1.005759 6.226512 3.486418
v -1.892498 6.326150 5.993530
v -0.989334 6.229062 3.491352
v -1.860631 6.344442 6.014199
v -0.966400 6.215369 3.499533
v -1.824189 6.330775 6.031602
v -0.950386 6.193463 3.506169
v -1.804519 6.293155 6.035545
v -0.950679 6.176168 3.507372
v -1.813144 6.253620 6.023718
v -0.967111 6.173611 3.502437
v -1.845011 6.235329 6.003049
v -0.990056 6.187290 3.494254
v -1.881452 6.248997 5.985646
v -1.006059 6.209210 3.487620
v -1.901122 6.286616 5.981703
v -1.930584 6.303843 6.120118
v -1.911096 6.315165 6.133130
v -1.888793 6.306847 6.143934
v -1.876740 6.283762 6.146200
v -1.881997 6.259433 6.138602
v -1.901484 6.248111 6.125590
v -1.923788 6.256429 6.114787
v -1.935841 6.279514 6.112520
v -1.156256 6.284658 4.006240
v -1.311692 6.337013 4.525134
v -1.486837 6.365706 5.038987
v -1.690924 6.360752 5.548072
v -1.659092 6.377428 5.564581
v -1.458004 6.378717 5.050040
v -1.286831 6.346455 4.533522
v -1.135559 6.290639 4.012727
v -1.622806 6.363223 5.580207
v -1.424701 6.364588 5.062744
v -1.256919 6.332435 4.544458
v -1.109115 6.276776 4.022212
v -1.603326 6.326456 5.585796
v -1.406442 6.331589 5.069655
v -1.239474 6.303169 4.551538
v -1.092407 6.251197 4.029143
v -1.612058 6.288667 5.578075
v -1.413918 6.299057 5.066728
v -1.244719 6.275798 4.550613
v -1.095229 6.228878 4.029457
v -1.643887 6.271994 5.561566
v -1.442755 6.286040 5.055673
v -1.269586 6.266348 4.542223
v -1.115934 6.222887 4.022969
v -1.680172 6.286200 5.545941
v -1.476068 6.300157 5.042966
v -1.299506 6.280358 4.531285
v -1.142388 6.236739 4.013480
v -1.699654 6.322965 5.540351
v -1.494317 6.333169 5.036057
v -1.316944 6.309633 4.524207
v -1.159086 6.262329 4.006552
vt 0.5919 0.5625
vt 0.5592 0.5625
vt 0.5592 0.5000
vt 0.5919 0.5000
vt 0.6163 0.5000
vt 0.6163 0.5625
vt 0.6163 0.6250
vt 0.5919 0.6250
vt 0.5592 0.6250
vt 0.5919 0.6875
vt 0.5592 0.6875
vt 0.6163 0.6875
vt 0.6163 0.7500
vt 0.5919 0.7500
vt 0.5592 0.7500
vt 0.5919 0.8125
vt 0.5592 0.8125
vt 0.6163 0.8125
vt 0.6163 0.8750
vt 0.5919 0.8750
vt 0.5592 0.8750
vt 0.5919 0.9375
vt 0.5592 0.9375
vt 0.6163 0.9375
vt 0.6163 0.9999
vt 0.5919 0.9999
vt 0.5592 0.9999
vt 0.5919 0.0626
vt 0.5592 0.0626
vt 0.5592 0.0001
vt 0.5919 0.0001
vt 0.6163 0.0001
vt 0.6163 0.0626
vt 0.6163 0.1250
vt 0.5919 0.1250
vt 0.5592 0.1250
vt 0.5919 0.1875
vt 0.5592 0.1875
vt 0.6163 0.1875
vt 0.6163 0.2500
vt 0.5919 0.2500
vt 0.5592 0.2500
vt 0.5919 0.4375
vt 0.5592 0.4375
vt 0.5592 0.3750
vt 0.5919 0.3750
vt 0.6163 0.3750
vt 0.6163 0.4375
vt 0.5919 0.3125
vt 0.5592 0.3125
vt 0.6163 0.3125
vt 0.6245 0.6875
vt 0.6245 0.7500
vt 0.6245 0.6250
vt 0.6245 0.6250
vt 0.6245 0.6875
vt 0.6245 0.7500
vt 0.6245 0.8125
vt 0.6245 0.8750
vt 0.6245 0.8125
vt 0.6245 0.8750
vt 0.6245 0.5625
vt 0.6245 0.5000
vt 0.6245 0.5000
vt 0.6245 0.5625
vt 0.6245 0.9375
vt 0.6245 0.9999
vt 0.6245 0.9375
vt 0.6245 0.9999
vt 0.6245 0.0626
vt 0.6245 0.1250
vt 0.6245 0.0001
vt 0.6245 0.0001
vt 0.6245 0.0626
vt 0.6245 0.1250
vt 0.6245 0.1875
vt 0.6245 0.2500
vt 0.6245 0.1875
vt 0.6245 0.2500
vt 0.6245 0.3125
vt 0.6245 0.3750
vt 0.6245 0.3125
vt 0.6245 0.3750
vt 0.6245 0.4375
vt 0.6245 0.4375
vt 0.6245 0.4375
vt 0.6245 0.6875
vt 0.6245 0.6250
vt 0.6245 0.5625
vt 0.6245 0.5000
vt 0.6245 0.4375
vt 0.6245 0.3750
vt 0.6245 0.3125
vt 0.6245 0.2500
vt 0.6245 0.1875
vt 0.6245 0.1250
vt 0.6245 0.0626
vt 0.6245 0.0001
vt 0.6245 0.4375
vt 0.6245 0.8750
vt 0.6245 0.8125
vt 0.6245 0.7500
vt 0.3306 0.5625
vt 0.2979 0.5625
vt 0.2979 0.5000
vt 0.3306 0.5000
vt 0.3632 0.5000
vt 0.3632 0.5625
vt 0.3632 0.6250
vt 0.3306 0.6250
vt 0.2979 0.6250
vt 0.3959 0.5625
vt 0.3959 0.5000
vt 0.4286 0.5000
vt 0.4286 0.5625
vt 0.4286 0.6250
vt 0.3959 0.6250
vt 0.4612 0.5625
vt 0.4612 0.5000
vt 0.4939 0.5000
vt 0.4939 0.5625
vt 0.4939 0.6250
vt 0.4612 0.6250
vt 0.5265 0.5625
vt 0.5265 0.5000
vt 0.5265 0.6250
vt 0.3306 0.6875
vt 0.2979 0.6875
vt 0.3632 0.6875
vt 0.3632 0.7500
vt 0.3306 0.7500
vt 0.2979 0.7500
vt 0.3959 0.6875
vt 0.4286 0.6875
vt 0.4286 0.7500
vt 0.3959 0.7500
vt 0.4612 0.6875
vt 0.4939 0.6875
vt 0.4939 0.7500
vt 0.4612 0.7500
vt 0.5265 0.6875
vt 0.5265 0.7500
vt 0.3306 0.8125
vt 0.2979 0.8125
vt 0.3632 0.8125
vt 0.3632 0.8750
vt 0.3306 0.8750
vt 0.2979 0.8750
vt 0.3959 0.8125
vt 0.4285 0.8125
vt 0.4285 0.8750
vt 0.3959 0.8750
vt 0.4612 0.8125
vt 0.4939 0.8125
vt 0.4939 0.8750
vt 0.4612 0.8750
vt 0.5265 0.8125
vt 0.5265 0.8750
vt 0.3306 0.9375
vt 0.2979 0.9375
vt 0.3632 0.9375
vt 0.3632 0.9999
vt 0.3306 0.9999
vt 0.2979 0.9999
vt 0.3959 0.9375
vt 0.4286 0.9375
vt 0.4286 0.9999
vt 0.3959 0.9999
vt 0.4612 0.9375
vt 0.4939 0.9375
vt 0.4939 0.9999
vt 0.4612 0.9999
vt 0.5265 0.9375
vt 0.5265 0.9999
vt 0.3306 0.0626
vt 0.2979 0.0625
vt 0.2979 0.0001
vt 0.3306 0.0001
vt 0.3632 0.0001
vt 0.3632 0.0626
vt 0.3632 0.1250
vt 0.3306 0.1250
vt 0.2979 0.1250
vt 0.3959 0.0626
vt 0.3959 0.0001
vt 0.4286 0.0001
vt 0.4286 0.0626
vt 0.4286 0.1250
vt 0.3959 0.1250
vt 0.4612 0.0626
vt 0.4612 0.0001
vt 0.4939 0.0001
vt 0.4939 0.0626
vt 0.4939 0.1250
vt 0.4612 0.1250
vt 0.5265 0.0626
vt 0.5265 0.0001
vt 0.5265 0.1250
vt 0.3306 0.1875
vt 0.2979 0.1875
vt 0.3632 0.1875
vt 0.3632 0.2500
vt 0.3306 0.2500
vt 0.2979 0.2500
vt 0.3959 0.1875
vt 0.4286 0.1875
vt 0.4286 0.2500
vt 0.3959 0.2500
vt 0.4612 0.1875
vt 0.4939 0.1875
vt 0.4939 0.2500
vt 0.4612 0.2500
vt 0.5265 0.1875
vt 0.5265 0.2500
vt 0.3306 0.4375
vt 0.2979 0.4375
vt 0.2979 0.3750
vt 0.3306 0.3750
vt 0.3632 0.3750
vt 0.3632 0.4375
vt 0.3959 0.4375
vt 0.3959 0.3750
vt 0.4286 0.3750
vt 0.4286 0.4375
vt 0.4612 0.4375
vt 0.4612 0.3750
vt 0.4939 0.3750
vt 0.4939 0.4375
vt 0.5265 0.4375
vt 0.5265 0.3750
vt 0.3306 0.3125
vt 0.2979 0.3125
vt 0.3632 0.3125
vt 0.3959 0.3125
vt 0.4286 0.3125
vt 0.4612 0.3125
vt 0.4939 0.3125
vt 0.5265 0.3125
vn -0.4236 0.8976 -0.1219
vn -0.4028 0.9052 -0.1355
vn -0.7052 0.6527 -0.2767
vn -0.7098 0.6505 -0.2701
vn -0.7333 0.6405 -0.2279
vn -0.4552 0.8865 -0.0824
vn -0.1115 0.9905 0.0804
vn -0.0764 0.9962 0.0408
vn -0.0463 0.9987 0.0192
vn 0.2717 0.9430 0.1920
vn 0.2981 0.9408 0.1613
vn 0.2416 0.9416 0.2346
vn 0.5513 0.7528 0.3594
vn 0.5732 0.7573 0.3129
vn 0.5893 0.7594 0.2756
vn 0.7941 0.4656 0.3907
vn 0.8035 0.4788 0.3536
vn 0.7767 0.4525 0.4382
vn 0.8846 0.0800 0.4593
vn 0.9048 0.0994 0.4140
vn 0.9151 0.1200 0.3850
vn 0.8797 -0.2937 0.3739
vn 0.8918 -0.2781 0.3569
vn 0.8546 -0.3108 0.4159
vn 0.6863 -0.6570 0.3121
vn 0.7114 -0.6485 0.2706
vn 0.7160 -0.6463 0.2639
vn 0.4262 -0.8965 0.1209
vn 0.4150 -0.9017 0.1212
vn 0.4071 -0.8985 0.1642
vn 0.0662 -0.9978 -0.0012
vn 0.0804 -0.9957 -0.0459
vn 0.0594 -0.9975 -0.0384
vn -0.2667 -0.9425 -0.2012
vn -0.2856 -0.9402 -0.1855
vn -0.2813 -0.9466 -0.1574
vn -0.5867 -0.7592 -0.2819
vn -0.5682 -0.7564 -0.3240
vn -0.5779 -0.7580 -0.3022
vn -0.8784 0.2959 -0.3754
vn -0.8832 0.2848 -0.3727
vn -0.9067 -0.1144 -0.4059
vn -0.9024 -0.0974 -0.4198
vn -0.9214 -0.0952 -0.3769
vn -0.8966 0.2931 -0.3318
vn -0.7901 -0.4641 -0.4003
vn -0.7938 -0.4757 -0.3789
vn -0.8106 -0.4628 -0.3587
vn 0.1407 0.9023 0.4075
vn 0.4499 0.7150 0.5351
vn -0.2147 0.9422 0.2571
vn -0.3427 0.7857 0.5149
vn -0.1866 0.5494 0.8144
vn 0.2460 0.5894 0.7695
vn 0.6750 0.4139 0.6107
vn 0.7732 0.0392 0.6329
vn 0.1961 0.1995 0.9601
vn 0.5309 -0.0128 0.8473
vn -0.5456 0.8322 0.0990
vn -0.8115 0.5833 -0.0350
vn -0.8524 0.4602 0.2480
vn -0.6578 0.4815 0.5792
vn 0.7356 -0.3389 0.5864
vn 0.5601 -0.6703 0.4867
vn 0.2286 -0.3286 0.9164
vn 0.3381 -0.6280 0.7009
vn 0.2910 -0.8922 0.3452
vn -0.0385 -0.9808 0.1910
vn -0.0768 -0.6850 0.7244
vn -0.1772 -0.8830 0.4346
vn -0.3666 -0.9294 0.0429
vn -0.6576 -0.7498 -0.0727
vn -0.5040 -0.6962 0.5112
vn -0.7018 -0.6816 0.2071
vn -0.8708 -0.4685 -0.1488
vn -0.9785 -0.1216 -0.1666
vn -0.8340 -0.3945 0.3856
vn -0.9804 -0.1489 0.1290
vn -0.9593 0.2505 -0.1304
vn -0.9100 0.0765 0.4074
vn -0.4569 -0.1339 0.8794
vn -0.1989 0.9654 -0.1687
vn -0.1799 0.9698 -0.1644
vn -0.7143 0.6416 -0.2794
vn -0.7074 0.6496 -0.2783
vn -0.7073 0.6498 -0.2781
vn -0.2416 0.9539 -0.1777
vn 0.1695 0.9833 -0.0656
vn 0.2135 0.9754 -0.0552
vn 0.2355 0.9706 -0.0494
vn -0.2760 0.9440 -0.1808
vn -0.7066 0.6507 -0.2780
vn -0.7059 0.6515 -0.2778
vn -0.3062 0.9354 -0.1766
vn 0.0926 0.9939 -0.0596
vn 0.1302 0.9891 -0.0681
vn -0.3337 0.9275 -0.1682
vn -0.7058 0.6518 -0.2775
vn -0.7056 0.6521 -0.2772
vn -0.3587 0.9200 -0.1578
vn 0.0208 0.9995 -0.0243
vn 0.0561 0.9974 -0.0438
vn -0.3818 0.9125 -0.1468
vn -0.7055 0.6523 -0.2770
vn -0.0136 0.9999 -0.0030
vn 0.4744 0.8798 0.0269
vn 0.4854 0.8738 0.0296
vn 0.4525 0.8914 0.0228
vn 0.6521 0.7523 0.0935
vn 0.6529 0.7520 0.0903
vn 0.6532 0.7519 0.0893
vn 0.4307 0.9021 0.0264
vn 0.4069 0.9124 0.0422
vn 0.6425 0.7557 0.1266
vn 0.6492 0.7535 0.1039
vn 0.3814 0.9220 0.0667
vn 0.3545 0.9301 0.0960
vn 0.6203 0.7598 0.1948
vn 0.6327 0.7580 0.1582
vn 0.3265 0.9365 0.1278
vn 0.6058 0.7603 0.2344
vn 0.7971 0.5849 0.1497
vn 0.7904 0.5950 0.1456
vn 0.8097 0.5650 0.1587
vn 0.9313 0.2870 0.2242
vn 0.9195 0.3301 0.2134
vn 0.9127 0.3516 0.2082
vn 0.8183 0.5478 0.1738
vn 0.8220 0.5330 0.2001
vn 0.9395 0.2198 0.2625
vn 0.9380 0.2508 0.2391
vn 0.8217 0.5195 0.2342
vn 0.8182 0.5063 0.2723
vn 0.9318 0.1668 0.3223
vn 0.9371 0.1922 0.2913
vn 0.8121 0.4927 0.3126
vn 0.9243 0.1426 0.3538
vn 0.9580 -0.0921 0.2714
vn 0.9603 -0.0724 0.2693
vn 0.9514 -0.1364 0.2761
vn 0.7139 -0.6492 0.2625
vn 0.7138 -0.6493 0.2624
vn 0.7068 -0.6574 0.2612
vn 0.9437 -0.1708 0.2832
vn 0.9345 -0.1986 0.2953
vn 0.7153 -0.6475 0.2629
vn 0.7146 -0.6483 0.2627
vn 0.9243 -0.2222 0.3103
vn 0.9136 -0.2428 0.3262
vn 0.7156 -0.6469 0.2634
vn 0.7154 -0.6472 0.2631
vn 0.9026 -0.2615 0.3418
vn 0.7158 -0.6467 0.2636
vn 0.2052 -0.9669 0.1513
vn 0.1758 -0.9738 0.1444
vn 0.2484 -0.9552 0.1605
vn -0.1622 -0.9857 0.0442
vn -0.2065 -0.9778 0.0337
vn -0.2319 -0.9724 0.0268
vn 0.2844 -0.9445 0.1640
vn 0.3161 -0.9350 0.1604
vn -0.0829 -0.9958 0.0389
vn -0.1219 -0.9914 0.0471
vn 0.3442 -0.9264 0.1523
vn 0.3699 -0.9181 0.1424
vn -0.0091 -0.9999 0.0038
vn -0.0454 -0.9987 0.0232
vn 0.3935 -0.9098 0.1317
vn 0.0260 -0.9995 -0.0172
vn -0.4667 -0.8829 -0.0520
vn -0.4785 -0.8763 -0.0550
vn -0.4447 -0.8944 -0.0479
vn -0.6445 -0.7551 -0.1201
vn -0.6454 -0.7548 -0.1170
vn -0.6457 -0.7547 -0.1160
vn -0.4225 -0.9049 -0.0513
vn -0.3978 -0.9150 -0.0672
vn -0.6342 -0.7577 -0.1534
vn -0.6414 -0.7560 -0.1305
vn -0.3713 -0.9239 -0.0918
vn -0.3434 -0.9313 -0.1213
vn -0.6103 -0.7603 -0.2224
vn -0.6236 -0.7594 -0.1853
vn -0.3146 -0.9368 -0.1531
vn -0.5949 -0.7599 -0.2620
vn -0.9528 0.0916 -0.2892
vn -0.9562 0.0609 -0.2863
vn -0.9056 -0.3566 -0.2294
vn -0.9136 -0.3316 -0.2353
vn -0.9254 -0.2882 -0.2461
vn -0.9460 0.1365 -0.2938
vn -0.9379 0.1727 -0.3009
vn -0.9321 -0.2508 -0.2611
vn -0.9334 -0.2184 -0.2846
vn -0.9280 0.2022 -0.3129
vn -0.9172 0.2266 -0.3276
vn -0.9304 -0.1897 -0.3135
vn -0.9245 -0.1632 -0.3444
vn -0.9060 0.2481 -0.3430
vn -0.8945 0.2674 -0.3582
vn -0.9164 -0.1381 -0.3757
vn -0.7904 -0.5870 -0.1752
vn -0.7831 -0.5979 -0.1708
vn -0.8028 -0.5670 -0.1841
vn -0.8115 -0.5494 -0.1993
vn -0.8149 -0.5338 -0.2258
vn -0.8140 -0.5193 -0.2602
vn -0.8097 -0.5051 -0.2987
vn -0.8028 -0.4905 -0.3388
s 1
f 1/1/1 125/2/2 181/3/3 52/4/4
f 1/1/1 52/4/4 155/5/5 51/6/6
f 1/1/1 51/6/6 157/7/7 94/8/8
f 1/1/1 94/8/8 182/9/9 125/2/2
f 2/10/10 129/11/11 182/9/9 94/8/8
f 2/10/10 94/8/8 157/7/7 55/12/12
f 2/10/10 55/12/12 159/13/13 98/14/14
f 2/10/10 98/14/14 186/15/15 129/11/11
f 3/16/16 133/17/17 186/15/15 98/14/14
f 3/16/16 98/14/14 159/13/13 58/18/18
f 3/16/16 58/18/18 161/19/19 102/20/20
f 3/16/16 102/20/20 190/21/21 133/17/17
f 4/22/22 137/23/23 190/21/21 102/20/20
f 4/22/22 102/20/20 161/19/19 61/24/24
f 4/22/22 61/24/24 163/25/25 106/26/26
f 4/22/22 106/26/26 194/27/27 137/23/23
f 5/28/28 141/29/29 194/30/27 106/31/26
f 5/28/28 106/31/26 163/32/25 64/33/30
f 5/28/28 64/33/30 165/34/31 110/35/32
f 5/28/28 110/35/32 198/36/33 141/29/29
f 6/37/34 145/38/35 198/36/33 110/35/32
f 6/37/34 110/35/32 165/34/31 67/39/36
f 6/37/34 67/39/36 167/40/37 114/41/38
f 6/37/34 114/41/38 202/42/39 145/38/35
f 7/43/40 149/44/41 206/45/42 118/46/43
f 7/43/40 118/46/43 169/47/44 73/48/45
f 7/43/40 73/48/45 155/5/5 52/4/4
f 7/43/40 52/4/4 181/3/3 149/44/41
f 8/49/46 153/50/47 202/42/39 114/41/38
f 8/49/46 114/41/38 167/40/37 70/51/48
f 8/49/46 70/51/48 169/47/44 118/46/43
f 8/49/46 118/46/43 206/45/42 153/50/47
f 9/52/49 83/53/50 159/13/13 55/12/12
f 9/52/49 55/12/12 157/7/7 82/54/51
f 9/52/49 82/54/51 171/55/52 75/56/53
f 9/52/49 75/56/53 172/57/54 83/53/50
f 10/58/55 84/59/56 161/19/19 58/18/18
f 10/58/55 58/18/18 159/13/13 83/53/50
f 10/58/55 83/53/50 172/57/54 76/60/57
f 10/58/55 76/60/57 173/61/58 84/59/56
f 11/62/59 82/54/51 157/7/7 51/6/6
f 11/62/59 51/6/6 155/5/5 85/63/60
f 11/62/59 85/63/60 170/64/61 74/65/62
f 11/62/59 74/65/62 171/55/52 82/54/51
f 12/66/63 86/67/64 163/25/25 61/24/24
f 12/66/63 61/24/24 161/19/19 84/59/56
f 12/66/63 84/59/56 173/61/58 77/68/65
f 12/66/63 77/68/65 174/69/66 86/67/64
f 13/70/67 87/71/68 165/34/31 64/33/30
f 13/70/67 64/33/30 163/32/25 86/72/64
f 13/70/67 86/72/64 174/73/66 78/74/69
f 13/70/67 78/74/69 175/75/70 87/71/68
f 14/76/71 88/77/72 167/40/37 67/39/36
f 14/76/71 67/39/36 165/34/31 87/71/68
f 14/76/71 87/71/68 175/75/70 79/78/73
f 14/76/71 79/78/73 176/79/74 88/77/72
f 15/80/75 89/81/76 169/47/44 70/51/48
f 15/80/75 70/51/48 167/40/37 88/77/72
f 15/80/75 88/77/72 176/79/74 80/82/77
f 15/80/75 80/82/77 177/83/78 89/81/76
f 16/84/79 85/63/60 155/5/5 73/48/45
f 16/84/79 73/48/45 169/47/44 89/81/76
f 16/84/79 89/81/76 177/83/78 81/85/80
f 16/84/79 81/85/80 170/64/61 85/63/60
f 17/86/81 76/87/57 172/88/54 75/89/53
f 17/86/81 75/89/53 171/90/52 74/91/62
f 17/86/81 74/91/62 170/92/61 81/93/80
f 17/86/81 81/93/80 177/94/78 80/95/77
f 17/86/81 80/95/77 176/96/74 79/97/73
f 17/86/81 79/97/73 175/98/70 78/99/69
f 17/86/81 78/99/69 174/100/66 77/101/65
f 17/86/81 77/101/65 173/102/58 76/87/57
f 18/103/82 50/104/83 154/105/84 90/106/85
f 18/103/82 90/106/85 178/107/86 122/108/87
f 18/103/82 122/108/87 185/109/88 53/110/89
f 18/103/82 53/110/89 156/111/90 50/104/83
f 19/112/91 122/108/87 178/107/86 91/113/92
f 19/112/91 91/113/92 179/114/93 123/115/94
f 19/112/91 123/115/94 184/116/95 97/117/96
f 19/112/91 97/117/96 185/109/88 122/108/87
f 20/118/97 123/115/94 179/114/93 92/119/98
f 20/118/97 92/119/98 180/120/99 124/121/100
f 20/118/97 124/121/100 183/122/101 96/123/102
f 20/118/97 96/123/102 184/116/95 123/115/94
f 21/124/103 124/121/100 180/120/99 93/125/104
f 21/124/103 93/125/104 181/3/3 125/2/2
f 21/124/103 125/2/2 182/9/9 95/126/105
f 21/124/103 95/126/105 183/122/101 124/121/100
f 22/127/106 54/128/107 156/111/90 53/110/89
f 22/127/106 53/110/89 185/109/88 126/129/108
f 22/127/106 126/129/108 189/130/109 56/131/110
f 22/127/106 56/131/110 158/132/111 54/128/107
f 23/133/112 126/129/108 185/109/88 97/117/96
f 23/133/112 97/117/96 184/116/95 127/134/113
f 23/133/112 127/134/113 188/135/114 101/136/115
f 23/133/112 101/136/115 189/130/109 126/129/108
f 24/137/116 127/134/113 184/116/95 96/123/102
f 24/137/116 96/123/102 183/122/101 128/138/117
f 24/137/116 128/138/117 187/139/118 100/140/119
f 24/137/116 100/140/119 188/135/114 127/134/113
f 25/141/120 128/138/117 183/122/101 95/126/105
f 25/141/120 95/126/105 182/9/9 129/11/11
f 25/141/120 129/11/11 186/15/15 99/142/121
f 25/141/120 99/142/121 187/139/118 128/138/117
f 26/143/122 57/144/123 158/132/111 56/131/110
f 26/143/122 56/131/110 189/130/109 130/145/124
f 26/143/122 130/145/124 193/146/125 59/147/126
f 26/143/122 59/147/126 160/148/127 57/144/123
f 27/149/128 130/145/124 189/130/109 101/136/115
f 27/149/128 101/136/115 188/135/114 131/150/129
f 27/149/128 131/150/129 192/151/130 105/152/131
f 27/149/128 105/152/131 193/146/125 130/145/124
f 28/153/132 131/150/129 188/135/114 100/140/119
f 28/153/132 100/140/119 187/139/118 132/154/133
f 28/153/132 132/154/133 191/155/134 104/156/135
f 28/153/132 104/156/135 192/151/130 131/150/129
f 29/157/136 132/154/133 187/139/118 99/142/121
f 29/157/136 99/142/121 186/15/15 133/17/17
f 29/157/136 133/17/17 190/21/21 103/158/137
f 29/157/136 103/158/137 191/155/134 132/154/133
f 30/159/138 60/160/139 160/148/127 59/147/126
f 30/159/138 59/147/126 193/146/125 134/161/140
f 30/159/138 134/161/140 197/162/141 62/163/142
f 30/159/138 62/163/142 162/164/143 60/160/139
f 31/165/144 134/161/140 193/146/125 105/152/131
f 31/165/144 105/152/131 192/151/130 135/166/145
f 31/165/144 135/166/145 196/167/146 109/168/147
f 31/165/144 109/168/147 197/162/141 134/161/140
f 32/169/148 135/166/145 192/151/130 104/156/135
f 32/169/148 104/156/135 191/155/134 136/170/149
f 32/169/148 136/170/149 195/171/150 108/172/151
f 32/169/148 108/172/151 196/167/146 135/166/145
f 33/173/152 136/170/149 191/155/134 103/158/137
f 33/173/152 103/158/137 190/21/21 137/23/23
f 33/173/152 137/23/23 194/27/27 107/174/153
f 33/173/152 107/174/153 195/171/150 136/170/149
f 34/175/154 63/176/155 162/177/143 62/178/142
f 34/175/154 62/178/142 197/179/141 138/180/156
f 34/175/154 138/180/156 201/181/157 65/182/158
f 34/175/154 65/182/158 164/183/159 63/176/155
f 35/184/160 138/180/156 197/179/141 109/185/147
f 35/184/160 109/185/147 196/186/146 139/187/161
f 35/184/160 139/187/161 200/188/162 113/189/163
f 35/184/160 113/189/163 201/181/157 138/180/156
f 36/190/164 139/187/161 196/186/146 108/191/151
f 36/190/164 108/191/151 195/192/150 140/193/165
f 36/190/164 140/193/165 199/194/166 112/195/167
f 36/190/164 112/195/167 200/188/162 139/187/161
f 37/196/168 140/193/165 195/192/150 107/197/153
f 37/196/168 107/197/153 194/30/27 141/29/29
f 37/196/168 141/29/29 198/36/33 111/198/169
f 37/196/168 111/198/169 199/194/166 140/193/165
f 38/199/170 66/200/171 164/183/159 65/182/158
f 38/199/170 65/182/158 201/181/157 142/201/172
f 38/199/170 142/201/172 205/202/173 68/203/174
f 38/199/170 68/203/174 166/204/175 66/200/171
f 39/205/176 142/201/172 201/181/157 113/189/163
f 39/205/176 113/189/163 200/188/162 143/206/177
f 39/205/176 143/206/177 204/207/178 117/208/179
f 39/205/176 117/208/179 205/202/173 142/201/172
f 40/209/180 143/206/177 200/188/162 112/195/167
f 40/209/180 112/195/167 199/194/166 144/210/181
f 40/209/180 144/210/181 203/211/182 116/212/183
f 40/209/180 116/212/183 204/207/178 143/206/177
f 41/213/184 144/210/181 199/194/166 111/198/169
f 41/213/184 111/198/169 198/36/33 145/38/35
f 41/213/184 145/38/35 202/42/39 115/214/185
f 41/213/184 115/214/185 203/211/182 144/210/181
f 42/215/186 72/216/187 168/217/188 71/218/189
f 42/215/186 71/218/189 209/219/190 146/220/191
f 42/215/186 146/220/191 178/107/86 90/106/85
f 42/215/186 90/106/85 154/105/84 72/216/187
f 43/221/192 146/220/191 209/219/190 121/222/193
f 43/221/192 121/222/193 208/223/194 147/224/195
f 43/221/192 147/224/195 179/114/93 91/113/92
f 43/221/192 91/113/92 178/107/86 146/220/191
f 44/225/196 147/224/195 208/223/194 120/226/197
f 44/225/196 120/226/197 207/227/198 148/228/199
f 44/225/196 148/228/199 180/120/99 92/119/98
f 44/225/196 92/119/98 179/114/93 147/224/195
f 45/229/200 148/228/199 207/227/198 119/230/201
f 45/229/200 119/230/201 206/45/42 149/44/41
f 45/229/200 149/44/41 181/3/3 93/125/104
f 45/229/200 93/125/104 180/120/99 148/228/199
f 46/231/202 69/232/203 166/204/175 68/203/174
f 46/231/202 68/203/174 205/202/173 150/233/204
f 46/231/202 150/233/204 209/219/190 71/218/189
f 46/231/202 71/218/189 168/217/188 69/232/203
f 47/234/205 150/233/204 205/202/173 117/208/179
f 47/234/205 117/208/179 204/207/178 151/235/206
f 47/234/205 151/235/206 208/223/194 121/222/193
f 47/234/205 121/222/193 209/219/190 150/233/204
f 48/236/207 151/235/206 204/207/178 116/212/183
f 48/236/207 116/212/183 203/211/182 152/237/208
f 48/236/207 152/237/208 207/227/198 120/226/197
f 48/236/207 120/226/197 208/223/194 151/235/206
f 49/238/209 152/237/208 203/211/182 115/214/185
f 49/238/209 115/214/185 202/42/39 153/50/47
f 49/238/209 153/50/47 206/45/42 119/230/201
f 49/238/209 119/230/201 207/227/198 152/237/208
