# Blender v2.79 (sub 0) OBJ File: 'test2.blend'
# www.blender.org
o Studio_C_Plane.005
v 2.524824 -1.149251 1.299857
v -2.417475 -1.149251 1.299857
v 2.524824 0.292314 1.299857
v -1.133761 1.794141 1.299857
v -2.417475 0.292315 1.299857
v 1.241110 1.794141 1.299857
v -1.133761 -0.796711 1.299857
v 1.241110 1.870591 2.980880
v 2.524824 -0.497116 1.299857
v 2.524824 0.368765 2.980880
v -2.417475 -0.497116 1.299857
v -2.417475 0.368765 2.980880
v 1.241110 -0.796711 1.299857
v 1.241110 0.418037 1.299857
v -1.133761 1.870591 2.980880
v -1.133761 0.418037 1.299857
v -1.133761 1.870591 1.801981
v -2.417475 0.368765 1.801981
v 2.524824 0.368765 1.801981
v -1.133761 1.870591 1.365351
v -2.417475 0.368765 1.365351
v 1.241110 1.870591 1.365351
v 2.524824 0.368765 1.365351
v 1.241110 1.870591 1.801981
v -1.133761 1.870591 2.544251
v -2.417475 0.368765 2.544251
v 2.524824 0.368765 2.544251
v 1.241110 1.870591 2.544251
v 1.241110 1.284473 1.299857
v 2.524824 -0.029054 1.299857
v -1.133761 1.284473 1.299857
v -2.417475 -0.029054 1.299857
v 1.241110 1.794141 3.046375
v -1.133761 1.794141 3.046375
v 2.524824 0.292314 3.046375
v -2.417475 0.292315 3.046375
v 2.524824 -0.771187 3.046375
v 1.241110 -0.255856 3.046375
v -1.133761 -0.255856 3.046375
v -2.417475 -0.771187 3.046375
v 2.524824 0.018229 3.046375
v 1.241110 1.284473 3.046375
v -1.133761 1.284473 3.046375
v -2.417475 0.018229 3.046375
v -2.513754 -1.133061 2.980880
v 2.621103 -1.133062 2.980880
v 2.524824 -1.578241 1.299857
v -2.417475 0.349652 3.030001
v -2.513754 -1.501791 1.299857
v 2.621103 -1.501791 1.299857
v 2.524824 0.349652 1.316230
v -2.417475 -1.578241 1.299857
v -1.133761 -1.578241 1.299857
v 1.241110 -1.578241 1.299857
v 2.524824 0.349652 3.030001
v 1.241110 1.851478 3.030001
v -1.133761 1.851478 3.030001
v -2.417475 0.349652 1.316230
v -1.133761 1.851478 1.316230
v 1.241110 1.851478 1.316230
v -2.048407 1.418684 1.299857
v 0.053675 1.794141 1.299857
v 2.155756 1.418684 1.299857
v -2.048407 1.495134 2.980880
v 0.053675 1.870591 2.980880
v 2.155756 1.495134 2.980880
v 2.621103 -1.209512 1.299857
v -2.513754 -1.209512 1.299857
v 2.524824 -0.771722 1.299857
v -2.417475 0.173747 1.299857
v -2.048407 -0.884846 1.299857
v -1.133761 1.628499 1.299857
v -2.417475 -0.771722 1.299857
v 0.053674 0.418037 1.299857
v 1.241110 1.628499 1.299857
v 2.524824 0.173747 1.299857
v 2.155756 -0.884846 1.299857
v 1.241110 -0.102258 1.299857
v 2.621103 -1.133062 1.365351
v -2.513754 -1.133061 1.365351
v -2.417475 0.368765 2.838975
v 2.524824 0.368765 2.838975
v 2.155756 1.495134 1.801981
v 0.053675 1.870591 1.365351
v -2.048407 1.495134 1.801981
v 1.241110 1.870591 2.838975
v -1.133761 1.870591 2.838975
v 0.053674 -0.796711 1.299857
v -2.513754 -1.342580 1.299857
v 2.621103 -1.342581 1.299857
v -1.133761 -0.102258 1.299857
v -2.048407 0.189249 1.299857
v -1.133761 1.870591 1.507256
v 2.155756 0.189249 1.299857
v 1.241110 1.870591 1.507256
v 2.155756 1.495134 1.365351
v 2.524824 0.368765 1.507256
v 0.053675 1.870591 1.801981
v -2.417475 0.368765 1.507256
v -2.048407 1.495134 1.365351
v 2.621103 -1.133062 1.801981
v -2.513754 -1.133061 1.801981
v 2.155756 1.495134 2.544251
v -2.048407 1.495134 2.544251
v 0.053675 1.870591 2.544251
v 2.621103 -1.133062 2.544251
v -2.513754 -1.133061 2.544251
v -1.133761 1.870591 2.173116
v -2.417475 0.368765 2.173116
v 2.524824 0.368765 2.173116
v 1.241110 1.870591 2.173116
v -1.133761 0.851255 1.299857
v -2.048407 0.956091 1.299857
v -2.513754 -1.412270 1.299857
v 0.053674 1.284473 1.299857
v 2.621103 -1.412270 1.299857
v 1.241110 0.851255 1.299857
v 2.524824 -0.268528 1.299857
v 2.155756 0.956091 1.299857
v -2.417475 -0.268528 1.299857
v -2.417475 0.185568 3.046375
v 2.524824 0.185568 3.046375
v 1.241110 1.628499 3.046375
v -1.133761 1.628499 3.046375
v 2.155756 1.418684 3.046375
v 0.053675 1.794141 3.046375
v -2.048407 1.418684 3.046375
v 2.621103 -1.209512 3.046375
v -2.513754 -1.209512 3.046375
v -2.417475 -1.362967 3.046375
v 2.524824 -1.362967 3.046375
v 1.241110 -1.362967 3.046375
v -1.133761 -1.362967 3.046375
v 2.621103 -1.286517 3.046375
v 2.155756 0.967912 3.046375
v 0.053674 1.284473 3.046375
v -2.048407 0.967912 3.046375
v -2.513754 -1.248014 3.046375
v 2.621103 -1.248015 3.046375
v 2.155756 -0.384689 3.046375
v 0.053674 -0.255856 3.046375
v -2.048407 -0.384689 3.046375
v -2.513754 -1.286517 3.046375
v 2.524824 -0.277942 3.046375
v 1.241110 0.682782 3.046375
v -1.133761 0.682782 3.046375
v -2.417475 -0.277942 3.046375
v -2.489684 -1.559129 1.299857
v -2.513754 -1.152174 3.030001
v 2.597033 -1.559129 1.299857
v 2.621103 -1.152174 3.030001
v -2.513754 -1.152174 1.316230
v 2.621103 -1.152174 1.316230
v -2.048407 -1.578241 1.299857
v 0.053674 -1.578241 1.299857
v 2.155756 -1.578241 1.299857
v 2.155756 1.476022 3.030001
v 0.053675 1.851479 3.030001
v -2.048407 1.476022 3.030001
v -2.048407 1.476022 1.316230
v 0.053675 1.851478 1.316230
v 2.155756 1.476022 1.316230
v 2.621103 -1.281004 1.299857
v -2.513754 -1.441185 1.299857
v -2.513754 -1.281004 1.299857
v -2.048407 1.495134 1.507256
v -2.048407 -0.269624 1.299857
v 2.621103 -1.441186 1.299857
v 0.053675 1.628499 1.299857
v 0.053674 -0.102258 1.299857
v -2.048407 1.264811 1.299857
v 2.155756 1.264811 1.299857
v 2.155756 -0.269624 1.299857
v 2.621103 -1.133062 2.838975
v 2.621103 -1.133062 1.507256
v -2.513754 -1.133061 2.838975
v -2.513754 -1.133061 1.507256
v 2.155756 1.495134 2.838976
v 2.155756 1.495134 1.507256
v 0.053675 1.870591 2.838976
v 0.053675 1.870591 1.507256
v -2.048407 1.495134 2.838976
v 2.155756 1.495134 2.173116
v -2.048407 1.495134 2.173116
v 0.053675 1.870591 2.173116
v 2.621103 -1.133062 2.173116
v -2.513754 -1.133061 2.173116
v -2.048407 0.571309 1.299857
v 2.621103 -1.388312 1.299857
v -2.513754 -1.388312 1.299857
v 0.053674 0.851255 1.299857
v 2.155756 0.571309 1.299857
v -2.513754 -1.257362 3.046375
v 2.621103 -1.257363 3.046375
v 2.155756 1.267766 3.046375
v 0.053675 1.628499 3.046375
v -2.048407 1.267766 3.046375
v -2.489684 -1.343855 3.046375
v 2.597033 -1.343855 3.046375
v 2.155756 -1.362967 3.046375
v 0.053674 -1.362967 3.046375
v -2.048407 -1.362967 3.046375
v 2.621103 -1.238667 3.046375
v 2.155756 0.442601 3.046375
v 0.053674 0.682782 3.046375
v -2.048407 0.442601 3.046375
v -2.513754 -1.238666 3.046375
vn 0.0000 0.0000 1.0000
vn -0.8974 -0.1916 0.3974
vn -0.3238 -0.1547 0.9333
vn -0.6229 -0.0544 0.7804
vn -0.0881 -0.0056 0.9961
vn -0.9848 -0.0631 0.1619
vn 0.0351 -0.1552 0.9872
vn 0.5959 -0.5213 0.6109
vn 0.3238 -0.1547 0.9333
vn 0.0000 -0.1386 0.9903
vn 0.1388 -0.6915 0.7089
vn 0.6229 -0.0544 0.7804
vn 0.9848 -0.0631 0.1619
vn 0.0881 -0.0056 0.9961
vn 0.8974 -0.1916 0.3974
vn -0.0351 -0.1552 0.9872
vn 0.0000 -0.6735 0.7392
vn -0.5959 -0.5213 0.6109
vn -0.1388 -0.6915 0.7089
vn -0.1388 -0.6915 -0.7089
vn 0.0000 -0.9828 -0.1845
vn -0.1867 -0.9662 -0.1777
vn 0.0000 -1.0000 0.0000
vn -0.1935 -0.9811 0.0000
vn -0.7048 -0.6969 -0.1328
vn -0.9782 -0.2031 -0.0421
vn -0.5959 -0.5213 -0.6109
vn -0.9819 -0.1892 0.0000
vn -0.9978 -0.0640 -0.0137
vn -0.8974 -0.1916 -0.3974
vn 0.8974 -0.1916 -0.3974
vn 0.9978 -0.0640 -0.0137
vn 0.9782 -0.2031 -0.0421
vn 0.9979 -0.0640 0.0000
vn 0.9819 -0.1892 0.0000
vn 0.7048 -0.6969 -0.1328
vn 0.5959 -0.5213 -0.6109
vn 0.1388 -0.6915 -0.7089
vn 0.1867 -0.9662 -0.1777
vn 0.7324 -0.6809 0.0000
vn 0.1935 -0.9811 0.0000
vn -0.7324 -0.6809 0.0000
vn -0.9979 -0.0640 0.0000
vn 0.7048 -0.6969 0.1328
vn 0.1867 -0.9662 0.1777
vn 0.0000 -0.9828 0.1845
vn 0.9978 -0.0640 0.0137
vn 0.9782 -0.2031 0.0421
vn -0.1867 -0.9662 0.1777
vn -0.7048 -0.6969 0.1328
vn -0.9782 -0.2031 0.0421
vn -0.9978 -0.0640 0.0137
vn 0.0000 -0.1386 -0.9903
vn -0.0351 -0.1552 -0.9872
vn -0.3238 -0.1547 -0.9333
vn 0.0000 0.0000 -1.0000
vn 0.0351 -0.1552 -0.9872
vn 0.3238 -0.1547 -0.9333
vn -0.6229 -0.0544 -0.7804
vn -0.9848 -0.0631 -0.1619
vn -0.0881 -0.0056 -0.9961
vn 0.6229 -0.0544 -0.7804
vn 0.9848 -0.0631 -0.1619
vn 0.0882 -0.0056 -0.9961
vn -1.0000 0.0000 0.0061
vn -1.0000 0.0000 -0.0008
vn 0.9951 0.0000 0.0985
vn 0.0004 0.0000 1.0000
vn 0.9791 0.0000 0.2032
vn 0.0001 0.0000 1.0000
vn 0.0000 -0.6735 -0.7392
s 1
f 69//1 77//1 1//1
f 1//1 156//1 47//1
f 47//1 50//1 1//1
f 1//1 168//1 69//1
f 2//1 164//1 49//1
f 49//1 52//1 2//1
f 2//1 154//1 71//1
f 71//1 73//1 2//1
f 51//2 63//3 3//4
f 3//4 172//1 76//1
f 76//1 67//5 3//4
f 3//4 153//6 51//2
f 4//7 160//8 61//9
f 61//9 72//1 4//7
f 72//1 62//10 4//7
f 62//10 59//11 4//7
f 5//12 152//13 68//14
f 68//14 70//1 5//12
f 5//12 171//1 61//9
f 61//9 58//15 5//12
f 6//16 161//17 62//10
f 62//10 75//1 6//16
f 75//1 63//3 6//16
f 6//16 162//18 60//19
f 7//1 167//1 71//1
f 71//1 53//1 7//1
f 53//1 88//1 7//1
f 88//1 91//1 7//1
f 56//20 65//21 8//22
f 8//22 180//23 86//24
f 86//24 66//25 8//22
f 66//25 56//20 8//22
f 118//1 94//1 9//1
f 9//1 173//1 69//1
f 69//1 116//1 9//1
f 9//1 189//1 118//1
f 10//26 157//27 66//25
f 66//25 82//28 10//26
f 82//28 46//29 10//26
f 46//29 55//30 10//26
f 11//1 190//1 114//1
f 114//1 73//1 11//1
f 11//1 167//1 92//1
f 92//1 120//1 11//1
f 48//31 45//32 12//33
f 12//33 176//34 81//35
f 81//35 64//36 12//33
f 12//33 159//37 48//31
f 13//1 170//1 88//1
f 88//1 54//1 13//1
f 54//1 77//1 13//1
f 13//1 173//1 78//1
f 117//1 74//1 14//1
f 74//1 78//1 14//1
f 78//1 94//1 14//1
f 14//1 192//1 117//1
f 57//38 64//36 15//39
f 15//39 182//40 87//41
f 87//41 65//21 15//39
f 65//21 57//38 15//39
f 16//1 188//1 92//1
f 92//1 91//1 16//1
f 91//1 74//1 16//1
f 16//1 191//1 112//1
f 108//41 85//40 17//41
f 85//40 93//41 17//41
f 93//41 98//23 17//41
f 98//23 108//41 17//41
f 109//35 102//34 18//35
f 102//34 99//35 18//35
f 99//35 85//40 18//35
f 85//40 109//35 18//35
f 110//28 83//42 19//28
f 83//42 97//28 19//28
f 97//28 101//43 19//28
f 101//43 110//28 19//28
f 93//41 100//44 20//45
f 100//44 59//11 20//45
f 59//11 84//46 20//45
f 84//46 93//41 20//45
f 99//35 80//47 21//48
f 80//47 58//15 21//48
f 21//48 160//8 100//44
f 100//44 99//35 21//48
f 22//49 181//23 84//46
f 22//49 161//17 60//19
f 60//19 96//50 22//49
f 96//50 95//24 22//49
f 97//28 96//50 23//51
f 23//51 162//18 51//2
f 51//2 79//52 23//51
f 79//52 97//28 23//51
f 24//24 185//23 98//23
f 24//24 181//23 95//24
f 95//24 83//42 24//24
f 83//42 111//24 24//24
f 87//41 104//40 25//41
f 104//40 108//41 25//41
f 108//41 105//23 25//41
f 105//23 87//41 25//41
f 81//35 107//34 26//35
f 107//34 109//35 26//35
f 109//35 104//40 26//35
f 104//40 81//35 26//35
f 82//28 103//42 27//28
f 103//42 110//28 27//28
f 110//28 106//43 27//28
f 106//43 82//28 27//28
f 86//24 105//23 28//24
f 105//23 111//24 28//24
f 111//24 103//42 28//24
f 103//42 86//24 28//24
f 75//1 115//1 29//1
f 115//1 117//1 29//1
f 117//1 119//1 29//1
f 29//1 172//1 75//1
f 76//1 119//1 30//1
f 30//1 192//1 118//1
f 118//1 90//1 30//1
f 30//1 163//1 76//1
f 31//1 171//1 113//1
f 113//1 112//1 31//1
f 112//1 115//1 31//1
f 115//1 72//1 31//1
f 32//1 165//1 89//1
f 89//1 120//1 32//1
f 32//1 188//1 113//1
f 113//1 70//1 32//1
f 126//53 56//20 33//54
f 33//54 157//27 125//55
f 125//55 123//56 33//54
f 123//56 126//53 33//54
f 34//57 159//37 57//38
f 57//38 126//53 34//57
f 126//53 124//56 34//57
f 124//56 127//58 34//57
f 125//55 55//30 35//59
f 35//59 151//60 128//61
f 128//61 122//56 35//59
f 35//59 195//56 125//55
f 36//62 149//63 48//31
f 48//31 127//58 36//62
f 36//62 197//56 121//56
f 121//56 129//64 36//62
f 140//56 144//56 37//56
f 37//56 203//65 134//56
f 134//56 131//56 37//56
f 37//56 200//56 140//56
f 141//56 145//56 38//56
f 38//56 204//56 140//56
f 140//56 132//56 38//56
f 132//56 141//56 38//56
f 39//56 206//56 146//56
f 146//56 141//56 39//56
f 141//56 133//56 39//56
f 133//56 142//56 39//56
f 40//56 207//66 147//56
f 147//56 142//56 40//56
f 40//56 202//56 130//56
f 130//56 143//56 40//56
f 135//56 122//56 41//56
f 41//56 194//67 139//68
f 41//56 203//65 144//56
f 41//56 204//56 135//56
f 136//56 123//56 42//56
f 42//56 195//56 135//56
f 135//56 145//56 42//56
f 145//56 136//56 42//56
f 43//56 197//56 124//56
f 124//56 136//56 43//56
f 136//56 146//56 43//56
f 146//56 137//56 43//56
f 44//56 193//69 121//56
f 121//56 137//56 44//56
f 44//56 206//56 147//56
f 44//56 207//66 138//70
f 69//1 173//1 77//1
f 1//1 77//1 156//1
f 47//1 150//1 50//1
f 1//1 50//1 168//1
f 2//1 73//1 164//1
f 49//1 148//1 52//1
f 2//1 52//1 154//1
f 71//1 167//1 73//1
f 51//2 162//18 63//3
f 3//4 63//3 172//1
f 76//1 163//1 67//5
f 3//4 67//5 153//6
f 4//7 59//11 160//8
f 61//9 171//1 72//1
f 72//1 169//1 62//10
f 62//10 161//17 59//11
f 5//12 58//15 152//13
f 68//14 165//1 70//1
f 5//12 70//1 171//1
f 61//9 160//8 58//15
f 6//16 60//19 161//17
f 62//10 169//1 75//1
f 75//1 172//1 63//3
f 6//16 63//3 162//18
f 7//1 91//1 167//1
f 71//1 154//1 53//1
f 53//1 155//1 88//1
f 88//1 170//1 91//1
f 56//20 158//71 65//21
f 8//22 65//21 180//23
f 86//24 178//42 66//25
f 66//25 157//27 56//20
f 118//1 192//1 94//1
f 9//1 94//1 173//1
f 69//1 168//1 116//1
f 9//1 116//1 189//1
f 10//26 55//30 157//27
f 66//25 178//42 82//28
f 82//28 174//43 46//29
f 46//29 151//60 55//30
f 11//1 120//1 190//1
f 114//1 164//1 73//1
f 11//1 73//1 167//1
f 92//1 188//1 120//1
f 48//31 149//63 45//32
f 12//33 45//32 176//34
f 81//35 182//40 64//36
f 12//33 64//36 159//37
f 13//1 78//1 170//1
f 88//1 155//1 54//1
f 54//1 156//1 77//1
f 13//1 77//1 173//1
f 117//1 191//1 74//1
f 74//1 170//1 78//1
f 78//1 173//1 94//1
f 14//1 94//1 192//1
f 57//38 159//37 64//36
f 15//39 64//36 182//40
f 87//41 180//23 65//21
f 65//21 158//71 57//38
f 16//1 112//1 188//1
f 92//1 167//1 91//1
f 91//1 170//1 74//1
f 16//1 74//1 191//1
f 108//41 184//40 85//40
f 85//40 166//40 93//41
f 93//41 181//23 98//23
f 98//23 185//23 108//41
f 109//35 187//34 102//34
f 102//34 177//34 99//35
f 99//35 166//40 85//40
f 85//40 184//40 109//35
f 110//28 183//42 83//42
f 83//42 179//42 97//28
f 97//28 175//43 101//43
f 101//43 186//43 110//28
f 93//41 166//40 100//44
f 100//44 160//8 59//11
f 59//11 161//17 84//46
f 84//46 181//23 93//41
f 99//35 177//34 80//47
f 80//47 152//13 58//15
f 21//48 58//15 160//8
f 100//44 166//40 99//35
f 22//49 95//24 181//23
f 22//49 84//46 161//17
f 60//19 162//18 96//50
f 96//50 179//42 95//24
f 97//28 179//42 96//50
f 23//51 96//50 162//18
f 51//2 153//6 79//52
f 79//52 175//43 97//28
f 24//24 111//24 185//23
f 24//24 98//23 181//23
f 95//24 179//42 83//42
f 83//42 183//42 111//24
f 87//41 182//40 104//40
f 104//40 184//40 108//41
f 108//41 185//23 105//23
f 105//23 180//23 87//41
f 81//35 176//34 107//34
f 107//34 187//34 109//35
f 109//35 184//40 104//40
f 104//40 182//40 81//35
f 82//28 178//42 103//42
f 103//42 183//42 110//28
f 110//28 186//43 106//43
f 106//43 174//43 82//28
f 86//24 180//23 105//23
f 105//23 185//23 111//24
f 111//24 183//42 103//42
f 103//42 178//42 86//24
f 75//1 169//1 115//1
f 115//1 191//1 117//1
f 117//1 192//1 119//1
f 29//1 119//1 172//1
f 76//1 172//1 119//1
f 30//1 119//1 192//1
f 118//1 189//1 90//1
f 30//1 90//1 163//1
f 31//1 72//1 171//1
f 113//1 188//1 112//1
f 112//1 191//1 115//1
f 115//1 169//1 72//1
f 32//1 70//1 165//1
f 89//1 190//1 120//1
f 32//1 120//1 188//1
f 113//1 171//1 70//1
f 126//53 158//71 56//20
f 33//54 56//20 157//27
f 125//55 195//56 123//56
f 123//56 196//56 126//53
f 34//57 127//58 159//37
f 57//38 158//71 126//53
f 126//53 196//56 124//56
f 124//56 197//56 127//58
f 125//55 157//27 55//30
f 35//59 55//30 151//60
f 128//61 194//67 122//56
f 35//59 122//56 195//56
f 36//62 129//64 149//63
f 48//31 159//37 127//58
f 36//62 127//58 197//56
f 121//56 193//69 129//64
f 140//56 204//56 144//56
f 37//56 144//56 203//65
f 134//56 199//56 131//56
f 37//56 131//56 200//56
f 141//56 205//56 145//56
f 38//56 145//56 204//56
f 140//56 200//56 132//56
f 132//56 201//56 141//56
f 39//56 142//56 206//56
f 146//56 205//56 141//56
f 141//56 201//56 133//56
f 133//56 202//56 142//56
f 40//56 143//56 207//66
f 147//56 206//56 142//56
f 40//56 142//56 202//56
f 130//56 198//56 143//56
f 135//56 195//56 122//56
f 41//56 122//56 194//67
f 41//56 139//68 203//65
f 41//56 144//56 204//56
f 136//56 196//56 123//56
f 42//56 123//56 195//56
f 135//56 204//56 145//56
f 145//56 205//56 136//56
f 43//56 137//56 197//56
f 124//56 196//56 136//56
f 136//56 205//56 146//56
f 146//56 206//56 137//56
f 44//56 138//70 193//69
f 121//56 197//56 137//56
f 44//56 137//56 206//56
f 44//56 147//56 207//66
