# Blender v2.79 (sub 0) OBJ File: 'testScene.blend'
# www.blender.org
o Studio_Corner.001_Plane.004
v 18.687487 -20.005854 0.000000
v -20.450388 0.325509 0.000000
v -10.284705 19.132021 0.000000
v -20.450388 19.132021 0.000000
v 9.284230 0.325509 0.000000
v 9.284230 9.728765 0.000000
v 18.687489 -9.840173 0.000000
v -20.450388 9.728765 0.000000
v 18.687487 0.325509 0.000000
v -0.119024 -20.005854 0.000000
v -10.284706 9.728764 0.000000
v -10.284705 19.894447 0.762426
v -20.450388 19.894447 0.762426
v 19.449913 0.325509 0.762426
v -0.119025 0.325509 0.000000
v -0.119024 -9.840172 0.000000
v 9.284230 -20.005854 0.000000
v 9.284231 -9.840172 0.000000
v 19.449913 -9.840173 0.762426
v 19.449913 -20.005854 0.762426
v 19.449913 9.728764 0.762426
v 19.449913 19.132021 0.762426
v 18.687485 19.132021 0.000000
v 9.284230 19.132021 0.000000
v -10.284706 0.325509 0.000000
v 9.284231 19.894447 0.762426
v 18.687485 19.894447 0.762426
v 18.687487 9.728764 0.000000
v -0.119025 19.894447 0.762426
v -0.119025 19.132021 0.000000
v -0.119024 9.728765 0.000000
v -20.450388 -9.840172 0.000000
v -20.450388 -20.005854 0.000000
v -10.284706 -20.005854 0.000000
v -10.284705 -9.840173 0.000000
v 19.449913 0.325509 11.139389
v -0.119025 19.894447 11.139389
v 19.449913 19.132021 11.139389
v -20.450388 19.894447 11.139389
v 19.449913 -9.840173 11.139389
v -10.284705 19.894447 11.139389
v 19.449913 -20.005854 11.139389
v 19.449913 9.728764 11.139389
v 9.284230 19.894447 11.139389
v 18.687485 19.894447 11.139389
v -21.212812 0.325509 0.000000
v -3.041656 -9.840172 0.000000
v 2.613002 9.728764 0.000000
v -20.450388 -2.597123 0.000000
v -3.041657 -20.005854 0.000000
v -20.450388 19.703840 0.190607
v -10.284705 19.703840 0.190607
v -0.119025 16.399996 0.000000
v -17.527754 19.132021 0.000000
v -3.041657 19.132021 0.000000
v -0.119025 19.894447 3.737880
v 18.687485 3.057535 0.000000
v -21.212812 19.132021 0.000000
v 19.259306 19.132021 0.190607
v -20.450388 16.399996 0.000000
v -17.527756 0.325509 0.000000
v -10.284705 16.399996 0.000000
v -20.450388 3.057536 0.000000
v -3.041657 9.728764 0.000000
v 9.284230 16.399994 0.000000
v -0.119025 -20.768282 0.000000
v 19.449913 3.057535 0.762426
v -21.212812 19.894447 0.762426
v -3.041657 19.894447 0.762426
v 15.955460 0.325509 0.000000
v -21.212812 9.728765 0.000000
v -10.284706 3.057536 0.000000
v -17.527756 9.728765 0.000000
v -10.284705 19.894447 3.737880
v 9.284230 19.894447 3.737880
v 19.449913 0.325509 3.737880
v -20.450388 19.894447 3.737880
v -17.527754 19.894447 0.762426
v 19.259306 9.728764 0.190607
v 19.259306 -20.005854 0.190607
v 19.259306 -9.840173 0.190607
v 19.259306 0.325509 0.190607
v 18.687489 -17.083221 0.000000
v 18.687487 -2.597124 0.000000
v 18.687487 19.703840 0.190607
v 18.687485 -20.768282 0.000000
v 15.955462 -20.005854 0.000000
v -0.119023 -17.083221 0.000000
v 15.955462 -9.840174 0.000000
v 2.613003 -20.005854 0.000000
v 9.284230 -2.597124 0.000000
v 2.613002 0.325509 0.000000
v -0.119024 3.057535 0.000000
v 19.259306 19.703840 0.762426
v 19.449913 -20.768282 0.762426
v 19.449913 -2.597124 0.762426
v -0.119025 -2.597124 0.000000
v 9.284230 -20.768282 0.000000
v 2.613002 -9.840172 0.000000
v 9.284231 -17.083221 0.000000
v 19.449913 -9.840173 3.737880
v 19.449913 9.728764 3.737880
v 19.449913 16.399994 0.762426
v 19.449913 19.132021 3.737880
v 19.449913 -20.005854 3.737880
v 19.449913 -17.083221 0.762426
v -10.284706 -2.597123 0.000000
v -0.119025 19.703840 0.190607
v 15.955458 19.132021 0.000000
v 18.687485 16.399996 0.000000
v -3.041657 0.325509 0.000000
v 15.955458 19.894447 0.762426
v 18.687485 19.894447 3.737880
v 15.955460 9.728764 0.000000
v 9.284230 3.057535 0.000000
v 2.613001 19.894447 0.762426
v 2.613001 19.132021 0.000000
v 9.284231 19.703840 0.190607
v -20.450388 -17.083221 0.000000
v -21.212812 -9.840172 0.000000
v -17.527756 -9.840172 0.000000
v -20.450388 -20.768282 0.000000
v -21.212812 -20.005854 0.000000
v -17.527756 -20.005854 0.000000
v -10.284705 -17.083221 0.000000
v -10.284707 -20.768282 0.000000
v -0.119025 19.894447 20.753925
v -10.284705 19.894447 20.753925
v 9.284230 19.894447 20.753925
v 19.449913 0.325509 20.753925
v -20.450388 19.894447 20.753925
v 19.449913 -9.840173 20.753925
v 19.449913 9.728764 20.753925
v 19.449913 19.132021 20.753925
v 19.449913 -20.005854 20.753925
v 18.687485 19.894447 20.753925
v 19.449913 3.057535 11.139389
v 19.449913 -2.597124 11.139389
v -3.041657 19.894447 11.139389
v 2.613001 19.894447 11.139389
v 19.259306 19.703840 11.139389
v 19.449913 16.399996 11.139389
v -21.212812 19.894447 11.139389
v -17.527756 19.894447 11.139389
v 19.449913 -17.083221 11.139389
v 19.449913 -20.768282 11.139389
v 15.955458 19.894447 11.139389
v -21.212812 -2.597124 0.000000
v 19.259306 -20.768282 0.190607
v -21.212812 19.703840 0.190607
v 2.613001 19.894447 3.737880
v -17.527756 -2.597124 0.000000
v 15.955458 3.057535 0.000000
v -17.527756 19.703840 0.190607
v -3.041657 19.703840 0.190607
v 19.449913 3.057535 3.737880
v -21.212812 3.057536 0.000000
v -21.212812 16.399996 0.000000
v -17.527756 19.894447 3.737880
v -17.527756 3.057536 0.000000
v -3.041657 16.399996 0.000000
v -3.041657 3.057535 0.000000
v -17.527756 16.399996 0.000000
v 15.955458 16.399996 0.000000
v -3.041658 -20.768282 0.000000
v 19.259306 3.057535 0.190607
v -21.212812 19.894447 3.737880
v 15.955458 19.894447 3.737880
v -3.041657 19.894447 3.737880
v 19.111057 19.555592 0.338856
v -3.041656 -17.083221 0.000000
v -3.041657 -2.597123 0.000000
v 19.259306 -17.083221 0.190607
v 19.259306 -2.597125 0.190607
v 19.259306 16.399996 0.190607
v 15.955460 19.703840 0.190607
v 2.613002 -20.768282 0.000000
v 15.955460 -20.768282 0.000000
v 19.449913 -17.083221 3.737880
v 2.613003 -17.083221 0.000000
v 15.955460 -2.597125 0.000000
v 2.613002 -2.597124 0.000000
v 15.955462 -17.083221 0.000000
v 2.613002 3.057535 0.000000
v 19.259306 19.703840 3.737880
v 19.449913 -20.768282 3.737880
v 19.449913 16.399996 3.737880
v 19.449913 -2.597124 3.737880
v 2.613001 16.399994 0.000000
v 2.613001 19.703840 0.190607
v -21.212812 -17.083221 0.000000
v -17.527754 -17.083221 0.000000
v -21.022207 -20.577673 0.000000
v -17.527756 -20.768282 0.000000
v 2.613001 19.894447 20.753925
v 19.449913 3.057535 20.753925
v -17.527756 19.894447 20.753925
v -21.022207 19.894447 18.350292
v 15.955458 19.894447 20.753925
v -3.041657 19.894447 20.753925
v 19.449913 -17.083221 20.753925
v 19.259306 19.703840 20.753925
v 19.449913 -20.577673 18.350292
v 19.449913 16.399996 20.753925
v 19.449913 -2.597125 20.753925
vn -0.1602 0.0000 0.9871
vn -0.7071 0.0000 0.7071
vn 0.0000 0.0000 1.0000
vn 0.0000 -0.1602 0.9871
vn 0.0000 -0.7071 0.7071
vn 0.0000 -0.9871 0.1602
vn 0.0000 -1.0000 0.0000
vn -0.9871 0.0000 0.1602
vn -1.0000 0.0000 0.0000
vn -0.9713 -0.1680 0.1680
vn -0.9871 -0.1602 0.0000
vn -0.7071 -0.7071 0.0000
vn -0.6953 -0.6953 0.1815
vn -0.5773 -0.5773 0.5773
vn -0.6953 -0.1815 0.6953
vn -0.1680 -0.1680 0.9713
vn -0.1815 -0.6953 0.6953
vn -0.1680 -0.9713 0.1680
vn -0.1602 -0.9871 0.0000
s 1
f 1//1 86//1 149//2 80//2
f 1//1 80//2 173//2 83//1
f 1//1 83//1 183//3 87//3
f 1//1 87//3 178//3 86//1
f 2//3 63//3 157//3 46//3
f 2//3 46//3 148//3 49//3
f 2//3 49//3 152//3 61//3
f 2//3 61//3 160//3 63//3
f 3//4 52//5 154//5 54//4
f 3//4 54//4 163//3 62//3
f 3//4 62//3 161//3 55//4
f 3//4 55//4 155//5 52//5
f 4//4 51//5 150//5 58//4
f 4//4 58//4 158//3 60//3
f 4//4 60//3 163//3 54//4
f 4//4 54//4 154//5 51//5
f 5//3 70//3 153//3 115//3
f 5//3 115//3 184//3 92//3
f 5//3 92//3 182//3 91//3
f 5//3 91//3 181//3 70//3
f 6//3 114//3 164//3 65//3
f 6//3 65//3 189//3 48//3
f 6//3 48//3 184//3 115//3
f 6//3 115//3 153//3 114//3
f 7//1 83//1 173//2 81//2
f 7//1 81//2 174//2 84//1
f 7//1 84//1 181//3 89//3
f 7//1 89//3 183//3 83//1
f 8//3 60//3 158//3 71//3
f 8//3 71//3 157//3 63//3
f 8//3 63//3 160//3 73//3
f 8//3 73//3 163//3 60//3
f 9//1 84//1 174//2 82//2
f 9//1 82//2 166//2 57//1
f 9//1 57//1 153//3 70//3
f 9//1 70//3 181//3 84//1
f 10//3 66//3 177//3 90//3
f 10//3 90//3 180//3 88//3
f 10//3 88//3 171//3 50//3
f 10//3 50//3 165//3 66//3
f 11//3 62//3 163//3 73//3
f 11//3 73//3 160//3 72//3
f 11//3 72//3 162//3 64//3
f 11//3 64//3 161//3 62//3
f 12//6 74//7 159//7 78//6
f 12//6 78//6 154//5 52//5
f 12//6 52//5 155//5 69//6
f 12//6 69//6 169//7 74//7
f 13//6 77//7 167//7 68//6
f 13//6 68//6 150//5 51//5
f 13//6 51//5 154//5 78//6
f 13//6 78//6 159//7 77//7
f 14//8 96//8 188//9 76//9
f 14//8 76//9 156//9 67//8
f 14//8 67//8 166//2 82//2
f 14//8 82//2 174//2 96//8
f 15//3 93//3 162//3 111//3
f 15//3 111//3 172//3 97//3
f 15//3 97//3 182//3 92//3
f 15//3 92//3 184//3 93//3
f 16//3 88//3 180//3 99//3
f 16//3 99//3 182//3 97//3
f 16//3 97//3 172//3 47//3
f 16//3 47//3 171//3 88//3
f 17//3 98//3 178//3 87//3
f 17//3 87//3 183//3 100//3
f 17//3 100//3 180//3 90//3
f 17//3 90//3 177//3 98//3
f 18//3 100//3 183//3 89//3
f 18//3 89//3 181//3 91//3
f 18//3 91//3 182//3 99//3
f 18//3 99//3 180//3 100//3
f 19//8 106//8 179//9 101//9
f 19//8 101//9 188//9 96//8
f 19//8 96//8 174//2 81//2
f 19//8 81//2 173//2 106//8
f 20//8 95//8 186//9 105//9
f 20//8 105//9 179//9 106//8
f 20//8 106//8 173//2 80//2
f 20//8 80//2 149//2 95//8
f 21//8 67//8 156//9 102//9
f 21//8 102//9 187//9 103//8
f 21//8 103//8 175//2 79//2
f 21//8 79//2 166//2 67//8
f 22//10 103//8 187//9 104//11
f 22//10 104//11 185//12 94//13
f 22//10 94//13 170//14 59//15
f 22//10 59//15 175//2 103//8
f 23//16 85//17 176//5 109//4
f 23//16 109//4 164//3 110//1
f 23//16 110//1 175//2 59//15
f 23//16 59//15 170//14 85//17
f 24//4 118//5 190//5 117//4
f 24//4 117//4 189//3 65//3
f 24//4 65//3 164//3 109//4
f 24//4 109//4 176//5 118//5
f 25//3 72//3 160//3 61//3
f 25//3 61//3 152//3 107//3
f 25//3 107//3 172//3 111//3
f 25//3 111//3 162//3 72//3
f 26//6 75//7 151//7 116//6
f 26//6 116//6 190//5 118//5
f 26//6 118//5 176//5 112//6
f 26//6 112//6 168//7 75//7
f 27//18 113//19 168//7 112//6
f 27//18 112//6 176//5 85//17
f 27//18 85//17 170//14 94//13
f 27//18 94//13 185//12 113//19
f 28//1 57//1 166//2 79//2
f 28//1 79//2 175//2 110//1
f 28//1 110//1 164//3 114//3
f 28//1 114//3 153//3 57//1
f 29//6 56//7 169//7 69//6
f 29//6 69//6 155//5 108//5
f 29//6 108//5 190//5 116//6
f 29//6 116//6 151//7 56//7
f 30//4 108//5 155//5 55//4
f 30//4 55//4 161//3 53//3
f 30//4 53//3 189//3 117//4
f 30//4 117//4 190//5 108//5
f 31//3 48//3 189//3 53//3
f 31//3 53//3 161//3 64//3
f 31//3 64//3 162//3 93//3
f 31//3 93//3 184//3 48//3
f 32//3 121//3 152//3 49//3
f 32//3 49//3 148//3 120//3
f 32//3 120//3 191//3 119//3
f 32//3 119//3 192//3 121//3
f 33//3 124//3 192//3 119//3
f 33//3 119//3 191//3 123//3
f 33//3 123//3 193//3 122//3
f 33//3 122//3 194//3 124//3
f 34//3 50//3 171//3 125//3
f 34//3 125//3 192//3 124//3
f 34//3 124//3 194//3 126//3
f 34//3 126//3 165//3 50//3
f 35//3 47//3 172//3 107//3
f 35//3 107//3 152//3 121//3
f 35//3 121//3 192//3 125//3
f 35//3 125//3 171//3 47//3
f 36//9 137//9 156//9 76//9
f 36//9 76//9 188//9 138//9
f 36//9 138//9 205//9 130//9
f 36//9 130//9 196//9 137//9
f 37//7 139//7 169//7 56//7
f 37//7 56//7 151//7 140//7
f 37//7 140//7 195//7 127//7
f 37//7 127//7 200//7 139//7
f 38//11 141//12 185//12 104//11
f 38//11 104//11 187//9 142//9
f 38//11 142//9 204//9 134//11
f 38//11 134//11 202//12 141//12
f 39//7 143//7 167//7 77//7
f 39//7 77//7 159//7 144//7
f 39//7 144//7 197//7 131//7
f 39//7 131//7 198//7 143//7
f 40//9 138//9 188//9 101//9
f 40//9 101//9 179//9 145//9
f 40//9 145//9 201//9 132//9
f 40//9 132//9 205//9 138//9
f 41//7 144//7 159//7 74//7
f 41//7 74//7 169//7 139//7
f 41//7 139//7 200//7 128//7
f 41//7 128//7 197//7 144//7
f 42//9 145//9 179//9 105//9
f 42//9 105//9 186//9 146//9
f 42//9 146//9 203//9 135//9
f 42//9 135//9 201//9 145//9
f 43//9 142//9 187//9 102//9
f 43//9 102//9 156//9 137//9
f 43//9 137//9 196//9 133//9
f 43//9 133//9 204//9 142//9
f 44//7 140//7 151//7 75//7
f 44//7 75//7 168//7 147//7
f 44//7 147//7 199//7 129//7
f 44//7 129//7 195//7 140//7
f 45//19 147//7 168//7 113//19
f 45//19 113//19 185//12 141//12
f 45//19 141//12 202//12 136//19
f 45//19 136//19 199//7 147//7
