# Blender v2.79 (sub 0) OBJ File: 'testScene.blend'
# www.blender.org
o TeapotHandle_cell.077_TeapotHandle_cell.113
v -0.139425 -1.448717 0.030037
v -0.135122 -1.427337 0.020886
v -0.129678 -1.424154 0.022180
v -0.135529 -1.447257 0.026565
v -0.130808 -1.445029 0.024297
v -0.124116 -1.441052 0.024527
v -0.118143 -1.437055 0.026616
v -0.136095 -1.426117 0.062325
v -0.136634 -1.421673 0.047490
v -0.104282 -1.449008 0.039858
v -0.116701 -1.430811 0.027572
v -0.129171 -1.443287 0.079992
v -0.136028 -1.437631 0.076927
v -0.104283 -1.446025 0.033078
v -0.125642 -1.421652 0.023867
v -0.141726 -1.429362 0.021387
v -0.143132 -1.438919 0.026974
v -0.142663 -1.434437 0.023865
v -0.143863 -1.445235 0.029931
v -0.104258 -1.451430 0.032788
v -0.108276 -1.453970 0.030834
v -0.114138 -1.457381 0.028770
v -0.121221 -1.460782 0.028354
v -0.126339 -1.462415 0.030438
v -0.144599 -1.450727 0.031379
v -0.130870 -1.463323 0.033832
v -0.139444 -1.455560 0.032483
v -0.143863 -1.445235 0.029931
v -0.144599 -1.450727 0.031379
v -0.141726 -1.429362 0.021387
v -0.142663 -1.434437 0.023865
v -0.114138 -1.457381 0.028770
v -0.108276 -1.453970 0.030834
v -0.104258 -1.451430 0.032788
v -0.121221 -1.460782 0.028354
v -0.126339 -1.462415 0.030438
v -0.135122 -1.427337 0.020886
v -0.129678 -1.424154 0.022180
v -0.116701 -1.430811 0.027572
v -0.104283 -1.446025 0.033078
v -0.125642 -1.421652 0.023867
v -0.143132 -1.438919 0.026974
v -0.130870 -1.463323 0.033832
v -0.139444 -1.455560 0.032483
vt 0.000000 0.000000
vt 0.362219 0.339455
vt 0.335484 0.335484
vt 1.000000 0.000000
vt 0.609704 0.334457
vt 0.000000 0.000000
vt 1.000000 0.084064
vt 1.000000 1.000000
vt 0.350179 0.245626
vt 0.334549 0.334549
vt 1.000000 0.000000
vt 0.396512 0.396512
vt 0.000000 0.000000
vt 0.123356 0.006450
vt 0.102382 0.102382
vt 0.925116 0.031312
vt 0.892293 0.000000
vt 0.003147 0.000000
vt 0.408541 0.168346
vt 0.416181 0.416181
vt 0.084064 0.084064
vt 1.000000 0.006066
vt 1.000000 0.043514
vt 0.405200 0.405200
vt 0.245010 0.013380
vt 0.789604 0.128279
vt 0.907765 0.249732
vt 0.418162 0.418162
vt 1.000000 0.000000
vt 0.744615 0.368539
vt 0.659786 0.313937
vt 0.941480 0.767887
vt 0.433486 0.433486
vt 1.000000 0.107707
vt 0.385996 0.064660
vt 0.865203 0.332991
vt 0.852115 0.414778
vt 0.687106 0.000000
vt 0.241166 0.000000
vt 0.003037 0.000000
vt 0.423115 0.009677
vt 0.820234 0.558589
vt 1.000000 0.876021
vt 1.656250 0.418750
vt 1.637639 0.437500
vt 1.656250 0.437500
vt 1.656250 0.400000
vt 1.626125 0.418750
vt 1.687500 0.350000
vt 1.656250 0.337500
vt 1.656250 0.350000
vt 1.687500 0.325000
vt 1.687500 0.312500
vt 1.656250 0.325000
vt 1.687500 0.300000
vt 1.656250 0.300000
vt 1.656250 0.312500
vt 1.687500 0.287500
vt 1.687500 0.275000
vt 1.656250 0.275000
vt 1.656250 0.287500
vt 1.664230 0.262500
vt 1.625000 0.350000
vt 1.625000 0.312500
vt 1.625000 0.287500
vt 1.656250 0.262500
vt 1.625000 0.262500
vt 1.625000 0.275000
vt 1.627175 0.255030
vt 1.671295 0.416169
vt 1.678345 0.387500
vt 1.682065 0.375000
vt 1.656250 0.387500
vt 1.670704 0.418750
vt 1.626194 0.420918
vt 1.625637 0.400000
vt 1.687500 0.337500
vt 1.680477 0.267167
vt 1.625000 0.337500
vt 1.625000 0.300000
vt 1.656250 0.260514
vt 1.674814 0.400000
vn -0.4507 0.8679 -0.2089
vn 0.6861 0.6660 0.2929
vn 0.7078 0.5563 0.4354
vn -0.9759 0.1744 0.1311
vn -0.9618 0.2507 0.1100
vn 0.4024 -0.8656 0.2979
vn 1.0000 0.0045 0.0019
vn -0.6633 -0.6772 0.3184
vn 0.5557 0.7987 0.2308
vn -0.6838 -0.6569 0.3176
vn -0.4559 0.8649 -0.2100
vn -0.9766 0.1666 0.1359
vn 0.3986 -0.8666 0.3001
vn 0.4975 0.8358 0.2323
vn 0.6373 0.7263 0.2575
vn -0.9740 0.1888 0.1255
vn -0.9645 0.2359 0.1187
vn -0.3012 0.9290 -0.2149
vn 0.3789 -0.8539 0.3567
vn 0.3985 -0.8666 0.3002
vn 0.3986 -0.8667 0.3000
vn 0.3986 -0.8666 0.3002
vn -0.3226 -0.4343 -0.8410
vn -0.1435 -0.3327 -0.9320
vn -0.1345 -0.2869 -0.9485
vn -0.3652 -0.4147 -0.8335
vn -0.4229 -0.4556 -0.7833
vn -0.3509 -0.3883 -0.8521
vn -0.0711 -0.2696 -0.9603
vn -0.1279 -0.2666 -0.9553
vn 0.1188 -0.1295 -0.9844
vn 0.2392 -0.0938 -0.9664
vn 0.3257 -0.0182 -0.9453
vn 0.3901 0.0090 -0.9207
vn 0.4140 0.0384 -0.9095
vn -0.3484 -0.4257 -0.8351
vn -0.0387 -0.2720 -0.9615
vn 0.2517 -0.0963 -0.9630
vn 0.4347 0.0334 -0.9000
vn 0.3886 -0.0031 -0.9214
vn 0.4475 0.0481 -0.8930
vn -0.3405 -0.3523 -0.8717
vn -0.4973 -0.4160 -0.7613
vn 0.3845 0.0020 -0.9231
s off
f 9/1/1 15/2/1 3/3/1
f 10/4/2 11/5/2 8/6/2
f 8/6/3 13/7/3 10/8/3
f 8/6/4 17/9/4 19/10/4
f 9/11/5 18/12/5 8/6/5
f 10/13/6 33/14/6 20/15/6
f 20/16/7 40/17/7 10/4/7
f 12/18/8 27/19/8 26/20/8
f 13/21/9 12/22/9 10/8/9
f 13/23/10 27/24/10 12/25/10
f 2/26/11 9/11/11 3/27/11
f 29/28/12 8/29/12 19/30/12
f 24/31/13 22/32/13 10/8/13
f 9/1/14 8/29/14 15/2/14
f 15/33/15 8/6/15 11/5/15
f 10/4/2 40/34/2 11/5/2
f 8/6/16 18/35/16 17/9/16
f 9/11/17 16/36/17 18/12/17
f 13/23/10 29/37/10 27/24/10
f 2/26/18 16/38/18 9/11/18
f 29/28/12 13/39/12 8/29/12
f 10/8/19 12/40/19 26/41/19
f 26/41/20 24/31/20 10/8/20
f 23/42/21 22/32/21 24/31/21
f 33/43/22 10/8/22 22/32/22
s 1
f 1/44/23 44/45/24 25/46/25
f 4/47/26 43/48/27 1/44/23
f 31/49/28 5/50/29 4/51/26
f 30/52/30 37/53/31 5/54/29
f 37/55/31 6/56/32 5/57/29
f 37/55/31 38/58/33 6/56/32
f 38/59/33 7/60/34 6/61/32
f 38/59/33 39/62/35 7/60/34
f 5/50/29 36/63/36 4/51/26
f 6/56/32 35/64/37 5/57/29
f 7/60/34 32/65/38 6/61/32
f 7/66/34 34/67/39 21/68/40
f 7/66/34 14/69/41 34/67/39
f 28/70/42 4/47/26 1/44/23
f 42/71/43 31/72/28 4/73/26
f 28/74/42 1/44/23 25/46/25
f 1/44/23 43/75/27 44/45/24
f 4/47/26 36/76/36 43/48/27
f 31/49/28 30/77/30 5/50/29
f 38/59/33 41/78/44 39/62/35
f 5/50/29 35/79/37 36/63/36
f 6/56/32 32/80/38 35/64/37
f 7/60/34 21/68/40 32/65/38
f 7/66/34 39/81/35 14/69/41
f 28/70/42 42/82/43 4/47/26
