# Blender v2.79 (sub 0) OBJ File: 'testScene.blend'
# www.blender.org
o TeapotHandle_cell.082_TeapotHandle_cell.118
v -0.206462 -1.224032 0.070926
v -0.207258 -1.221656 0.056916
v -0.284271 -1.224060 0.083050
v -0.219580 -1.225958 0.080964
v -0.224787 -1.225989 0.080645
v -0.231327 -1.226313 0.082141
v -0.238216 -1.226177 0.082876
v -0.247116 -1.225836 0.083096
v -0.252245 -1.225609 0.083086
v -0.257785 -1.225354 0.083034
v -0.263707 -1.225080 0.082970
v -0.270954 -1.224751 0.082923
v -0.276573 -1.224450 0.082935
v -0.215917 -1.215727 0.032416
v -0.223581 -1.216646 0.037958
v -0.229785 -1.216635 0.039115
v -0.238276 -1.216371 0.039595
v -0.243298 -1.216166 0.039660
v -0.248793 -1.215922 0.039648
v -0.254729 -1.215649 0.039593
v -0.261621 -1.215330 0.039520
v -0.267796 -1.214988 0.039488
v -0.274863 -1.214610 0.039503
v -0.285392 -1.214082 0.039685
vt 0.000000 0.000000
vt 1.000000 0.707171
vt 1.000000 1.000000
vt 0.527273 0.000000
vt 0.783364 0.051859
vt 1.000000 0.284907
vt 0.764640 0.327793
vt 1.000000 0.000000
vt 0.950723 0.707629
vt 0.630786 0.399658
vt 0.919304 0.592364
vt 0.612888 0.563276
vt 0.694565 0.315874
vt 0.790075 0.479132
vt 0.875256 0.495579
vt 1.000000 0.712661
vt 0.732725 0.505494
vt 0.918602 0.421428
vt 0.784132 0.277078
vt 0.829333 0.726026
vt 0.692204 0.000000
vt 0.707165 0.693350
vt 0.701398 0.627011
vt 0.674487 0.532468
vt 0.973500 0.778492
vt 1.000000 0.846353
vt 0.603575 0.320439
vt 0.824851 0.313322
vt 0.878515 0.468408
vt 0.573288 0.233496
vt 0.761104 0.131691
vt 0.504989 0.038892
vt 0.491372 0.000000
vt 0.715093 0.000000
vt 0.726324 0.032353
vt 0.794063 0.225538
vt 0.540302 0.139443
vt 1.000000 1.000000
vt 0.683604 0.679110
vt 0.865841 0.603240
vt 0.523745 0.410899
vt 0.472798 0.322591
vt 0.417889 0.227049
vt 0.581149 0.118892
vt 0.359229 0.124903
vt 0.287339 0.000000
vt 0.518299 0.009451
vt 0.639980 0.221259
vt 1.000000 0.775283
vt 0.938453 0.704118
vt 0.731833 0.731833
vt 0.584288 0.516238
vt 0.886658 0.720545
vt 1.000000 0.487138
vn 0.2346 0.9605 0.1495
vn 0.0527 0.9735 0.2226
vn 0.0161 -0.9856 -0.1681
vn 0.0428 0.9744 0.2207
vn -0.0428 -0.9744 -0.2207
vn -0.0527 -0.9735 -0.2226
vn 0.0093 -0.9849 -0.1729
vn 0.0300 0.9786 0.2037
vn 0.0388 0.9792 0.1993
vn -0.0161 0.9856 0.1681
vn 0.0527 0.9738 0.2210
vn 0.0427 0.9741 0.2220
vn 0.0116 0.9758 0.2184
vn 0.0425 0.9758 0.2146
vn 0.0036 0.9739 0.2270
s off
f 2/1/1 14/2/1 1/3/1
f 24/4/2 3/5/2 13/6/2
f 5/7/3 2/8/3 1/3/3
f 6/9/4 17/10/4 7/11/4
f 7/12/5 18/13/5 17/14/5
f 22/15/6 12/16/6 23/17/6
f 13/6/2 22/18/2 23/19/2
f 23/19/2 24/4/2 13/6/2
f 1/3/3 4/20/3 5/7/3
f 5/7/7 6/21/7 2/8/7
f 1/3/8 14/22/8 15/23/8
f 1/3/9 15/23/9 16/24/9
f 5/25/10 4/26/10 1/3/10
f 7/11/4 17/10/4 18/27/4
f 9/28/4 8/29/4 19/30/4
f 11/31/11 21/32/11 22/33/11
f 22/33/2 13/34/2 12/35/2
f 10/36/4 21/32/4 11/31/4
f 22/33/12 12/35/12 11/31/12
f 20/37/4 10/36/4 9/28/4
f 19/30/4 20/37/4 9/28/4
f 10/36/4 20/37/4 21/32/4
f 7/11/4 18/27/4 8/29/4
f 1/3/13 16/24/13 5/25/13
f 16/24/14 17/10/14 5/25/14
f 8/29/4 18/27/4 19/30/4
f 17/10/15 6/9/15 5/25/15
f 2/38/5 6/39/5 16/40/5
f 7/12/5 8/41/5 18/13/5
f 9/42/5 10/43/5 20/44/5
f 11/45/5 12/46/5 21/47/5
f 11/45/5 21/47/5 10/43/5
f 8/41/5 9/42/5 19/48/5
f 14/49/5 2/38/5 15/50/5
f 15/50/5 2/38/5 16/40/5
f 10/43/5 21/47/5 20/44/5
f 9/42/5 20/44/5 19/48/5
f 16/40/5 6/39/5 17/14/5
f 17/14/5 6/39/5 7/12/5
f 8/41/5 19/48/5 18/13/5
f 3/51/6 24/52/6 13/53/6
f 23/17/6 12/16/6 13/53/6
f 21/54/6 12/16/6 22/15/6
f 13/53/6 24/52/6 23/17/6
