# Blender v2.79 (sub 0) OBJ File: 'testScene.blend'
# www.blender.org
o TeapotHandle_cell.103_TeapotHandle_cell.139
v -0.238328 -1.279823 0.072085
v -0.229574 -1.278439 0.072246
v -0.222794 -1.277284 0.071799
v -0.235076 -1.298153 0.069698
v -0.226382 -1.296434 0.069903
v -0.219645 -1.295038 0.069486
v -0.236152 -1.317385 0.067678
v -0.231187 -1.316216 0.067955
v -0.216332 -1.276056 0.070502
v -0.211196 -1.275299 0.070978
v -0.204512 -1.274515 0.072979
v -0.213218 -1.293612 0.068216
v -0.208119 -1.292645 0.068719
v -0.201492 -1.291542 0.070761
v -0.239510 -1.273613 0.027934
v -0.234108 -1.272780 0.028183
v -0.224729 -1.271297 0.028356
v -0.217464 -1.270059 0.027877
v -0.212568 -1.269069 0.026479
v -0.235989 -1.293463 0.025349
v -0.230624 -1.292419 0.025626
v -0.225720 -1.291456 0.025802
v -0.217422 -1.289785 0.025722
v -0.211345 -1.288471 0.024843
v -0.208586 -1.267923 0.022987
v -0.203499 -1.266775 0.020713
v -0.205242 -1.286775 0.020532
v -0.200176 -1.285512 0.018273
v -0.197229 -1.262760 0.052018
v -0.242559 -1.323212 0.038936
v -0.198305 -1.300976 0.063825
v -0.239326 -1.325078 0.055305
v -0.199623 -1.267937 0.076454
v -0.198639 -1.273941 0.075538
v -0.205414 -1.268059 0.074036
v -0.198062 -1.287818 0.072863
v -0.197568 -1.280556 0.074629
v -0.199858 -1.303368 0.069325
v -0.198513 -1.265952 0.020566
v -0.212046 -1.269214 0.071974
v -0.217140 -1.270268 0.071450
v -0.191124 -1.276677 0.020154
v -0.192098 -1.270642 0.020962
v -0.191548 -1.282399 0.019076
v -0.194790 -1.287590 0.017822
v -0.200884 -1.291575 0.018256
v -0.205132 -1.306514 0.067381
v -0.209832 -1.309335 0.066699
v -0.204198 -1.261777 0.021532
v -0.209538 -1.261106 0.024103
v -0.230271 -1.273453 0.073063
v -0.223547 -1.271892 0.072681
v -0.204908 -1.294799 0.020919
v -0.209230 -1.298291 0.023895
v -0.214793 -1.301993 0.024544
v -0.215599 -1.263130 0.028358
v -0.221659 -1.264616 0.029202
v -0.229943 -1.266471 0.029241
v -0.234839 -1.267546 0.029040
v -0.245345 -1.280903 0.071747
v -0.236646 -1.274852 0.072911
v -0.244414 -1.299966 0.069184
v -0.245076 -1.288515 0.070720
v -0.222418 -1.306790 0.024322
v -0.226930 -1.309573 0.023970
v -0.231870 -1.312592 0.023503
v -0.244006 -1.307076 0.068454
v -0.243319 -1.319068 0.067221
v -0.245134 -1.269979 0.028386
v -0.243857 -1.294988 0.024881
v -0.242870 -1.312208 0.023109
v -0.244863 -1.277599 0.027217
v -0.215679 -1.313317 0.067749
v -0.221780 -1.317258 0.067999
v -0.229678 -1.322165 0.067583
v -0.234301 -1.324682 0.067223
v -0.237155 -1.315822 0.023007
v -0.242405 -1.319031 0.022518
v -0.242970 -1.325226 0.066779
v -0.204198 -1.261777 0.021532
v -0.203499 -1.266775 0.020713
v -0.198639 -1.273941 0.075538
v -0.199623 -1.267937 0.076454
v -0.197568 -1.280556 0.074629
v -0.198062 -1.287818 0.072863
v -0.191548 -1.282399 0.019076
v -0.191124 -1.276677 0.020154
v -0.192098 -1.270642 0.020962
v -0.245345 -1.280903 0.071747
v -0.245076 -1.288515 0.070720
v -0.244414 -1.299966 0.069184
v -0.222418 -1.306790 0.024322
v -0.226930 -1.309573 0.023970
v -0.244006 -1.307076 0.068454
v -0.243319 -1.319068 0.067221
v -0.243857 -1.294988 0.024881
v -0.242870 -1.312208 0.023109
v -0.244863 -1.277599 0.027217
v -0.237155 -1.315822 0.023007
v -0.242405 -1.319031 0.022518
v -0.242970 -1.325226 0.066779
v -0.236646 -1.274852 0.072911
v -0.238328 -1.279823 0.072085
v -0.221780 -1.317258 0.067999
v -0.215679 -1.313317 0.067749
v -0.205414 -1.268059 0.074036
v -0.201492 -1.291542 0.070761
v -0.205132 -1.306514 0.067381
v -0.199858 -1.303368 0.069325
v -0.198513 -1.265952 0.020566
v -0.212046 -1.269214 0.071974
v -0.217140 -1.270268 0.071450
v -0.194790 -1.287590 0.017822
v -0.200884 -1.291575 0.018256
v -0.209832 -1.309335 0.066699
v -0.204908 -1.294799 0.020919
v -0.209538 -1.261106 0.024103
v -0.223547 -1.271892 0.072681
v -0.215599 -1.263130 0.028358
v -0.230271 -1.273453 0.073063
v -0.209230 -1.298291 0.023895
v -0.214793 -1.301993 0.024544
v -0.221659 -1.264616 0.029202
v -0.229943 -1.266471 0.029241
v -0.234839 -1.267546 0.029040
v -0.231870 -1.312592 0.023503
v -0.239510 -1.273613 0.027934
v -0.245134 -1.269979 0.028386
v -0.229678 -1.322165 0.067583
v -0.234301 -1.324682 0.067223
vt 0.000000 0.000000
vt 1.000000 0.000000
vt 0.116537 0.116537
vt 1.000000 0.794632
vt 1.000000 1.000000
vt 0.696798 0.301601
vt 1.000000 0.475509
vt 0.000000 0.000000
vt 0.651351 0.298204
vt 0.496312 0.235804
vt 0.000000 0.000000
vt 0.155704 0.093463
vt 0.212340 0.212340
vt 0.000000 0.000000
vt 0.190210 0.006919
vt 0.064179 0.064179
vt 1.000000 0.000000
vt 1.000000 0.212340
vt 0.732729 0.320046
vt 0.665657 0.266978
vt 0.558521 0.404930
vt 0.403359 0.403359
vt 1.000000 0.623581
vt 0.675148 0.000000
vt 1.000000 0.000000
vt 0.694586 0.246311
vt 0.545204 0.123972
vt 0.702357 0.677197
vt 1.000000 0.718421
vt 1.000000 1.000000
vt 0.374075 0.000000
vt 1.000000 1.000000
vt 0.889216 0.889216
vt 0.735966 0.313682
vt 1.000000 0.273671
vt 1.000000 0.164812
vt 0.829426 0.000000
vt 0.888052 0.226042
vt 0.546004 0.246586
vt 0.430106 0.207177
vt 0.894621 0.658390
vt 0.804296 0.703323
vt 0.627064 0.419744
vt 0.251716 0.000000
vt 0.409045 0.409045
vt 0.270004 0.270004
vt 0.382877 0.382877
vt 0.456701 0.425117
vt 0.170574 0.000000
vt 0.905667 0.680573
vt 0.726328 0.000000
vt 1.000000 0.108798
vt 1.000000 0.439189
vt 0.061883 0.061883
vt 0.439189 0.439189
vt 0.108798 0.108798
vt 0.376419 0.000000
vt 0.305120 0.263587
vt 1.000000 0.270004
vt 0.895026 0.408096
vt 0.381598 0.381598
vt 0.251716 0.251716
vt 0.835188 0.000000
vt 1.000000 0.116537
vt 0.896540 0.159972
vt 0.574871 0.297483
vt 0.817608 0.689715
vt 1.000000 0.370026
vt 0.111551 0.111551
vt 0.276050 0.159338
vt 0.325315 0.017172
vt 0.394527 0.047066
vt 0.514406 0.097464
vt 0.671580 0.153062
vt 0.738640 0.315575
vt 1.000000 0.263162
vt 0.940683 0.383690
vt 0.733661 0.733661
vt 0.475509 0.475509
vt 0.488205 0.471010
vt 0.732528 0.375874
vt 1.000000 0.216466
vt 0.971961 0.632897
vt 0.865201 0.278273
vt 0.945790 0.235156
vt 0.817927 0.323125
vt 0.381598 0.000000
vt 1.968750 0.550000
vt 1.937500 0.531250
vt 1.968750 0.531250
vt 1.968750 0.512500
vt 1.937500 0.493750
vt 1.968750 0.493750
vt 1.968750 0.475000
vt 1.937500 0.456250
vt 1.968750 0.456250
vt 1.906250 0.550000
vt 1.937500 0.550000
vt 1.906250 0.512500
vt 1.937500 0.512500
vt 1.937500 0.475000
vt 1.906250 0.456250
vt 1.893718 0.565079
vt 1.906250 0.568750
vt 1.895790 0.531250
vt 1.906250 0.531250
vt 1.898343 0.512500
vt 1.906250 0.493750
vt 1.968750 0.337500
vt 1.937500 0.325000
vt 1.968750 0.325000
vt 1.968750 0.312500
vt 1.937500 0.300000
vt 1.968750 0.300000
vt 1.968750 0.287500
vt 1.937500 0.275000
vt 1.968750 0.275000
vt 1.937500 0.264941
vt 1.943284 0.262500
vt 1.968750 0.262500
vt 1.956408 0.257653
vt 1.968750 0.257375
vt 1.937500 0.337500
vt 1.909098 0.325000
vt 1.937500 0.312500
vt 1.912146 0.300000
vt 1.937500 0.287500
vt 1.918159 0.275000
vt 1.968750 0.550000
vt 1.937500 0.531250
vt 1.937500 0.550000
vt 1.968750 0.512500
vt 1.937500 0.512500
vt 1.968750 0.493750
vt 1.968750 0.475000
vt 1.937500 0.475000
vt 1.937500 0.493750
vt 1.968750 0.456250
vt 1.968750 0.437500
vt 1.937500 0.437500
vt 1.937500 0.456250
vt 1.968750 0.418750
vt 1.968750 0.400000
vt 1.937500 0.418750
vt 1.937500 0.568750
vt 1.906940 0.550000
vt 1.906250 0.568750
vt 1.909800 0.531250
vt 1.912497 0.512500
vt 1.917272 0.475000
vt 1.914996 0.493750
vt 1.921057 0.437500
vt 1.919300 0.456250
vt 1.968750 0.387500
vt 1.937500 0.387500
vt 1.937500 0.400000
vt 1.968750 0.350000
vt 1.937500 0.337500
vt 1.937500 0.350000
vt 1.964178 0.300000
vt 1.937500 0.312500
vt 1.968750 0.312500
vt 1.924660 0.387500
vt 1.923662 0.400000
vt 1.928015 0.350000
vt 1.926819 0.362500
vt 1.932304 0.312500
vt 1.930735 0.325000
vt 1.978855 0.456250
vt 1.979603 0.400000
vt 1.979744 0.387500
vt 1.925825 0.568750
vt 1.937500 0.565011
vt 1.979219 0.312500
vt 1.979568 0.300000
vt 1.977732 0.475000
vt 1.978113 0.456250
vt 1.976209 0.550000
vt 1.976969 0.531250
vt 1.968750 0.531250
vt 1.968750 0.567558
vt 1.975519 0.566096
vt 1.978025 0.493750
vt 1.978469 0.475000
vt 1.979177 0.437500
vt 1.911349 0.582937
vt 1.906250 0.584372
vt 1.979973 0.287500
vt 1.980441 0.275000
vt 1.979842 0.257772
vt 1.979900 0.375000
vt 1.980075 0.362500
vt 1.968750 0.375000
vt 1.976804 0.512500
vt 1.977293 0.493750
vt 1.949247 0.289959
vt 1.937500 0.300000
vt 1.977059 0.528862
vt 1.977530 0.512500
vt 1.978656 0.337500
vt 1.978917 0.325000
vt 1.979428 0.418750
vt 1.968750 0.556799
vt 1.956262 0.560424
vt 1.976976 0.337500
vt 1.968750 0.337500
vt 1.906250 0.475000
vt 1.893557 0.550000
vt 1.895006 0.536626
vt 1.907762 0.337500
vt 1.910552 0.312500
vt 1.914046 0.287500
vt 1.980381 0.262500
vt 1.939886 0.295251
vt 1.959522 0.289607
vn -0.1920 -0.9786 -0.0736
vn 0.5377 -0.8192 -0.1995
vn 0.5243 -0.8264 -0.2055
vn 0.1111 -0.5641 0.8182
vn -0.1026 0.9751 0.1965
vn 0.0622 -0.9980 0.0069
vn 0.9818 0.1417 0.1262
vn -0.9484 0.3094 0.0689
vn 0.5912 0.7996 -0.1053
vn -0.9983 -0.0553 -0.0188
vn 0.5769 0.8099 -0.1058
vn 0.5545 -0.8090 -0.1953
vn 0.8541 -0.5133 -0.0841
vn -0.9975 -0.0658 -0.0261
vn -0.2153 0.9646 0.1521
vn 0.5254 -0.8256 -0.2056
vn -0.9993 -0.0335 -0.0133
vn 0.4809 -0.8570 -0.1849
vn 0.9894 -0.0941 0.1103
vn 0.9468 0.0934 0.3080
vn -0.7964 0.6010 0.0673
vn 0.5425 0.8140 0.2077
vn -0.1572 0.9774 0.1417
vn -0.0545 0.1539 -0.9866
vn 0.5556 -0.8088 -0.1929
vn 0.1261 0.9920 0.0032
vn -0.2180 0.9640 0.1520
vn -0.2153 0.9647 0.1518
vn 0.5244 -0.8263 -0.2056
vn 0.5254 -0.8256 -0.2057
vn 0.5251 -0.8258 -0.2056
vn -0.0275 -0.1340 0.9906
vn -0.0163 -0.1157 0.9931
vn -0.0073 -0.1404 0.9901
vn 0.0392 -0.1040 0.9938
vn 0.0464 -0.1387 0.9892
vn 0.1446 -0.0829 0.9860
vn 0.1511 -0.1202 0.9812
vn -0.0388 -0.0882 0.9953
vn -0.0323 -0.1173 0.9926
vn -0.0237 -0.0854 0.9960
vn 0.1328 -0.0632 0.9891
vn -0.0463 -0.0740 0.9962
vn -0.0429 -0.0876 0.9952
vn -0.0276 -0.0692 0.9972
vn 0.0253 -0.0794 0.9965
vn 0.0696 -0.0989 0.9926
vn 0.0758 -0.1332 0.9882
vn -0.1689 -0.1442 0.9750
vn -0.1649 -0.1690 0.9717
vn -0.2880 -0.1668 0.9430
vn -0.3186 -0.1876 0.9291
vn -0.3663 -0.1855 0.9118
vn -0.3815 -0.1915 0.9043
vn -0.3760 -0.1926 0.9063
vn 0.0978 -0.0738 0.9925
vn -0.1503 -0.1270 0.9804
vn -0.2641 -0.1496 0.9528
vn 0.0244 0.1438 -0.9893
vn 0.0207 0.1166 -0.9930
vn 0.0320 0.1188 -0.9924
vn 0.0108 0.1479 -0.9889
vn -0.0081 0.1118 -0.9937
vn -0.0440 0.1384 -0.9894
vn -0.0948 0.0962 -0.9908
vn -0.1867 0.1160 -0.9755
vn -0.3733 0.0319 -0.9272
vn -0.5091 0.0235 -0.8603
vn -0.5286 0.0348 -0.8482
vn 0.0363 0.1179 -0.9923
vn 0.0327 0.1015 -0.9943
vn 0.0381 0.0971 -0.9945
vn 0.0254 0.1014 -0.9945
vn -0.0008 0.0959 -0.9954
vn -0.0774 0.0792 -0.9938
vn -0.3133 0.0241 -0.9493
vn -0.5036 -0.0013 -0.8639
vn -0.2216 0.0656 -0.9729
vn 0.0253 0.1325 -0.9908
vn -0.3024 0.0857 -0.9493
vn -0.5416 -0.0523 -0.8390
vn -0.3729 -0.0094 -0.9278
vn -0.0033 0.0933 -0.9956
vn -0.1024 0.1400 -0.9848
vn -0.3916 0.0732 -0.9172
vn -0.5135 0.0683 -0.8553
vn -0.0386 -0.1043 0.9938
vn 0.0698 -0.1517 0.9859
vn -0.1691 -0.1822 0.9686
vn 0.0530 -0.1541 0.9866
vn 0.1578 -0.1380 0.9778
vn 0.0098 0.1629 -0.9866
vn 0.0284 0.1402 -0.9897
vn 0.0190 0.1524 -0.9881
vn -0.0140 0.1599 -0.9870
vn 0.0454 0.1001 -0.9939
vn 0.0383 0.0888 -0.9953
vn -0.3186 -0.1963 0.9273
vn -0.3744 -0.2000 0.9054
vn -0.4230 0.0885 -0.9018
vn 0.0092 -0.1644 0.9863
vn 0.1619 0.1554 -0.9745
vn -0.0328 -0.1347 0.9903
vn -0.0426 -0.0730 0.9964
vn 0.0946 0.1775 -0.9796
vn 0.1757 0.1585 -0.9716
s off
f 30/1/1 32/2/1 79/3/1
f 30/1/2 76/4/2 32/5/2
f 99/6/3 66/7/3 30/1/3
f 31/8/4 36/9/4 14/10/4
f 29/11/5 35/12/5 83/13/5
f 32/14/6 76/15/6 79/16/6
f 29/17/7 83/18/7 82/19/7
f 15/20/8 1/21/8 102/22/8
f 88/23/9 39/24/9 29/17/9
f 30/25/10 67/26/10 70/27/10
f 39/28/11 80/29/11 29/30/11
f 47/31/12 31/32/12 109/33/12
f 45/34/13 86/35/13 31/32/13
f 97/36/14 100/37/14 30/25/14
f 58/38/15 52/39/15 41/40/15
f 48/41/16 73/42/16 64/43/16
f 98/44/17 60/45/17 69/46/17
f 76/47/18 30/1/18 75/48/18
f 100/49/3 99/6/3 30/1/3
f 66/7/3 74/50/3 30/1/3
f 75/48/3 30/1/3 74/50/3
f 31/8/19 86/51/19 87/52/19
f 87/52/19 37/53/19 36/9/19
f 14/10/20 109/54/20 31/8/20
f 87/52/19 36/9/19 31/8/19
f 37/55/7 87/56/7 29/17/7
f 88/57/7 29/17/7 87/56/7
f 82/19/7 37/55/7 29/17/7
f 102/22/21 59/58/21 15/20/21
f 15/20/22 69/59/22 60/60/22
f 60/60/23 1/21/23 15/20/23
f 63/61/10 98/62/10 70/27/10
f 70/27/10 97/63/10 30/25/10
f 30/25/10 79/64/10 68/65/10
f 68/65/10 67/26/10 30/25/10
f 91/66/10 63/61/10 70/27/10
f 70/27/10 67/26/10 91/66/10
f 39/28/24 26/67/24 80/29/24
f 47/31/25 45/68/25 31/32/25
f 35/69/15 29/11/15 40/70/15
f 80/71/26 50/72/26 29/11/26
f 29/11/15 50/72/15 56/73/15
f 40/70/15 29/11/15 41/40/15
f 29/11/15 56/73/15 57/74/15
f 51/75/15 52/39/15 58/38/15
f 41/40/15 29/11/15 57/74/15
f 58/38/27 59/76/27 51/75/27
f 41/40/15 57/74/15 58/38/15
f 102/77/28 51/75/28 59/76/28
f 74/78/29 66/79/29 65/80/29
f 74/78/16 65/80/16 64/43/16
f 48/41/16 64/43/16 55/81/16
f 45/82/16 47/83/16 53/84/16
f 53/84/30 46/85/30 45/82/30
f 54/86/16 53/84/16 47/83/16
f 47/83/16 48/41/16 54/86/16
f 74/78/31 64/43/31 73/42/31
f 54/86/16 48/41/16 55/81/16
f 98/44/17 63/87/17 60/45/17
s 1
f 89/88/32 4/89/33 103/90/34
f 103/91/34 5/92/35 2/93/36
f 2/94/36 6/95/37 3/96/38
f 7/97/39 4/89/33 62/98/40
f 8/99/41 5/92/35 4/100/33
f 5/101/35 105/102/42 6/95/37
f 101/103/43 7/97/39 95/104/44
f 7/97/39 129/105/45 8/106/41
f 8/99/41 129/107/45 104/108/46
f 3/109/38 12/110/47 9/111/48
f 9/112/48 13/113/49 10/114/50
f 10/115/50 107/116/51 11/117/52
f 11/117/52 107/118/51 85/119/53
f 11/120/52 84/121/54 34/122/55
f 6/123/37 115/124/56 12/110/47
f 12/125/47 108/126/57 13/113/49
f 13/127/49 38/128/58 107/116/51
f 127/129/59 21/130/60 20/131/61
f 16/132/62 22/133/63 21/130/60
f 16/132/62 17/134/64 22/133/63
f 17/135/64 23/136/65 22/137/63
f 17/135/64 18/138/66 23/136/65
f 18/139/66 24/140/67 23/141/65
f 18/139/66 19/142/68 24/140/67
f 19/142/68 25/143/69 24/144/67
f 96/145/70 126/146/71 77/147/72
f 20/131/61 93/148/73 126/146/71
f 21/130/60 92/149/74 93/148/73
f 22/137/63 122/150/75 92/151/74
f 23/141/65 121/152/76 122/153/75
f 25/154/69 27/155/77 24/156/67
f 25/157/69 28/158/78 27/159/77
f 110/160/79 28/161/78 81/162/80
f 24/156/67 116/163/81 121/164/76
f 27/159/77 114/165/82 116/166/81
f 27/159/77 28/158/78 114/165/82
f 28/161/78 113/167/83 114/168/82
f 123/169/84 18/138/66 17/135/64
f 119/170/85 117/171/86 25/143/69
f 94/172/87 7/97/39 62/173/40
f 112/174/88 10/114/50 111/175/89
f 120/176/90 3/96/38 118/177/91
f 127/178/59 125/179/92 16/180/62
f 72/181/93 128/182/94 127/129/59
f 124/183/95 123/184/84 17/134/64
f 123/169/84 119/185/85 18/138/66
f 71/186/96 77/147/72 78/187/97
f 111/188/89 11/117/52 106/189/98
f 33/190/99 11/120/52 34/122/55
f 117/191/86 49/192/100 25/193/69
f 61/194/101 2/93/36 120/195/90
f 124/183/95 17/134/64 16/132/62
f 42/196/102 113/197/83 110/160/79
f 72/181/93 20/131/61 96/145/70
f 119/170/85 25/143/69 19/142/68
f 125/198/92 124/199/95 16/180/62
f 118/200/91 9/111/48 112/201/88
f 119/202/85 19/142/68 18/139/66
f 89/203/32 90/204/103 62/98/40
f 25/157/69 49/205/100 81/206/80
f 89/88/32 62/98/40 4/89/33
f 103/91/34 4/100/33 5/92/35
f 2/94/36 5/101/35 6/95/37
f 7/97/39 8/106/41 4/89/33
f 8/99/41 104/108/46 5/92/35
f 5/101/35 104/207/46 105/102/42
f 101/103/43 130/208/104 7/97/39
f 7/97/39 130/209/104 129/105/45
f 3/109/38 6/123/37 12/110/47
f 9/112/48 12/125/47 13/113/49
f 10/115/50 13/127/49 107/116/51
f 11/120/52 85/119/53 84/121/54
f 6/123/37 105/210/42 115/124/56
f 12/125/47 115/211/56 108/126/57
f 13/127/49 108/212/57 38/128/58
f 127/129/59 16/180/62 21/130/60
f 96/145/70 20/131/61 126/146/71
f 20/131/61 21/130/60 93/148/73
f 21/130/60 22/133/63 92/149/74
f 22/137/63 23/136/65 122/150/75
f 23/141/65 24/140/67 121/152/76
f 25/157/69 81/206/80 28/158/78
f 110/160/79 113/197/83 28/161/78
f 24/156/67 27/155/77 116/163/81
f 94/172/87 95/104/44 7/97/39
f 112/174/88 9/112/48 10/114/50
f 120/176/90 2/94/36 3/96/38
f 71/186/96 96/145/70 77/147/72
f 111/188/89 10/115/50 11/117/52
f 33/190/99 106/213/98 11/120/52
f 61/194/101 103/91/34 2/93/36
f 113/197/83 42/196/102 44/214/105
f 43/215/106 42/196/102 110/160/79
f 72/181/93 127/129/59 20/131/61
f 118/200/91 3/109/38 9/111/48
