# Blender v2.79 (sub 0) OBJ File: 'testScene.blend'
# www.blender.org
o TeapotHandle_cell.044_TeapotHandle_cell.043
v -0.185650 -1.308316 0.072281
v -0.180705 -1.307325 0.075062
v -0.175196 -1.306242 0.078430
v -0.169087 -1.305059 0.082425
v -0.162340 -1.303771 0.087086
v -0.154918 -1.302372 0.092454
v -0.146782 -1.300855 0.098568
v -0.137895 -1.299214 0.105468
v -0.163538 -1.299525 0.025397
v -0.157682 -1.298373 0.028977
v -0.151188 -1.297116 0.033224
v -0.144015 -1.295746 0.038180
v -0.136124 -1.294259 0.043886
v -0.127476 -1.292646 0.050385
v -0.118029 -1.290902 0.057720
v -0.107744 -1.289021 0.065933
v -0.192506 -1.303986 0.065126
v -0.131394 -1.303868 0.109179
v -0.149315 -1.289202 0.099677
v -0.136243 -1.305676 0.105074
v -0.144740 -1.308842 0.098081
v -0.106172 -1.295166 0.065558
v -0.102065 -1.293633 0.069122
v -0.120690 -1.278661 0.058885
v -0.116001 -1.298830 0.057237
v -0.129842 -1.281763 0.051421
v -0.125034 -1.302196 0.049803
v -0.133307 -1.305276 0.043214
v -0.138223 -1.284607 0.044805
v -0.145872 -1.287205 0.038993
v -0.152828 -1.289570 0.033943
v -0.159129 -1.291716 0.029611
v -0.164813 -1.293657 0.025956
v -0.157200 -1.291876 0.093453
v -0.164395 -1.294320 0.087986
v -0.170938 -1.296546 0.083235
v -0.176866 -1.298564 0.079161
v -0.140860 -1.308085 0.037427
v -0.147730 -1.310638 0.032399
v -0.155747 -1.313613 0.026928
v -0.152522 -1.311739 0.091883
v -0.159627 -1.314382 0.086439
v -0.166089 -1.316783 0.081710
v -0.172026 -1.318987 0.077602
v -0.172983 -1.296526 0.021288
v -0.170450 -1.300917 0.021605
v -0.182206 -1.300421 0.075719
v -0.187001 -1.302103 0.072872
v -0.191290 -1.303611 0.070581
v -0.191469 -1.309513 0.069434
v -0.167353 -1.306219 0.022097
v -0.161917 -1.315456 0.023142
v -0.177319 -1.320567 0.074254
v -0.183881 -1.322530 0.070540
v -0.186845 -1.317562 0.070050
v -0.136243 -1.305676 0.105074
v -0.131394 -1.303868 0.109179
v -0.144740 -1.308842 0.098081
v -0.106172 -1.295166 0.065558
v -0.102065 -1.293633 0.069122
v -0.116001 -1.298830 0.057237
v -0.120690 -1.278661 0.058885
v -0.129842 -1.281763 0.051421
v -0.125034 -1.302196 0.049803
v -0.133307 -1.305276 0.043214
v -0.138223 -1.284607 0.044805
v -0.145872 -1.287205 0.038993
v -0.152828 -1.289570 0.033943
v -0.159129 -1.291716 0.029611
v -0.157200 -1.291876 0.093453
v -0.149315 -1.289202 0.099677
v -0.164395 -1.294320 0.087986
v -0.170938 -1.296546 0.083235
v -0.176866 -1.298564 0.079161
v -0.140860 -1.308085 0.037427
v -0.152522 -1.311739 0.091883
v -0.147730 -1.310638 0.032399
v -0.159627 -1.314382 0.086439
v -0.166089 -1.316783 0.081710
v -0.177319 -1.320567 0.074254
v -0.172026 -1.318987 0.077602
v -0.170450 -1.300917 0.021605
v -0.172983 -1.296526 0.021288
v -0.187001 -1.302103 0.072872
v -0.182206 -1.300421 0.075719
v -0.191290 -1.303611 0.070581
v -0.167353 -1.306219 0.022097
v -0.161917 -1.315456 0.023142
v -0.186845 -1.317562 0.070050
v -0.183881 -1.322530 0.070540
v -0.137895 -1.299214 0.105468
v -0.107744 -1.289021 0.065933
v -0.164813 -1.293657 0.025956
v -0.155747 -1.313613 0.026928
v -0.192506 -1.303986 0.065126
v -0.191469 -1.309513 0.069434
vt 1.000000 0.493209
vt 0.987525 0.725416
vt 0.038384 0.000000
vt 0.247496 0.000000
vt 0.608058 0.608058
vt 0.250564 0.250564
vt 0.575239 0.157666
vt 0.739121 0.393831
vt 0.563666 0.249274
vt 1.000000 0.000000
vt 0.743812 0.547472
vt 0.601623 0.601623
vt 0.686758 0.328046
vt 0.701431 0.447812
vt 0.481359 0.379621
vt 1.000000 0.250564
vt 0.922184 0.673763
vt 0.786853 0.786853
vt 0.629744 0.330248
vt 0.434329 0.434329
vt 0.702761 0.231834
vt 0.449273 0.449273
vt 0.432762 0.203715
vt 0.152603 0.059350
vt 0.603390 0.144246
vt 0.695711 0.695711
vt 0.525389 0.525389
vt 0.534648 0.461564
vt 0.703854 0.641360
vt 0.722619 0.511999
vt 0.550171 0.350405
vt 0.753468 0.286322
vt 0.584990 0.075080
vt 0.776136 0.101143
vt 0.765770 0.188937
vt 0.593121 0.000000
vt 0.784676 0.022403
vt 0.450268 0.170272
vt 0.716793 0.067990
vt 1.000000 0.449273
vt 0.731761 0.731761
vt 0.493209 0.493209
vt 0.723934 0.650349
vt 0.713780 0.555012
vt 0.490911 0.469302
vt 0.469743 0.278780
vt 0.649908 0.048005
vt 0.669627 0.195011
vt 0.455939 0.166118
vt 0.434329 0.000000
vt 0.593121 0.593121
vt 0.777206 0.439291
vt 1.000000 0.525389
vt 1.000000 0.695711
vt 0.643246 0.643246
vt 1.889799 0.259564
vt 1.906250 0.250000
vt 1.906250 0.262500
vt 1.880056 0.237500
vt 1.906250 0.237500
vt 1.880591 0.225000
vt 1.906250 0.225000
vt 1.882036 0.212500
vt 1.906250 0.212500
vt 1.883740 0.200000
vt 1.906250 0.200000
vt 1.885755 0.187500
vt 1.906250 0.187500
vt 1.888144 0.175000
vt 1.906250 0.175000
vt 1.890991 0.162500
vt 1.906250 0.162500
vt 1.892742 0.155944
vt 1.906250 0.237500
vt 1.895931 0.250000
vt 1.906250 0.250000
vt 1.878193 0.228988
vt 1.877873 0.237500
vt 1.906250 0.225000
vt 1.879979 0.212500
vt 1.878581 0.225000
vt 1.906250 0.212500
vt 1.881628 0.200000
vt 1.906250 0.200000
vt 1.883576 0.187500
vt 1.906250 0.187500
vt 1.885886 0.175000
vt 1.906250 0.175000
vt 1.888639 0.162500
vt 1.906250 0.162500
vt 1.891942 0.150000
vt 1.906250 0.148867
vt 1.893427 0.145185
vt 1.923551 0.212500
vt 1.925977 0.200000
vt 1.916828 0.262500
vt 1.912288 0.270323
vt 1.912110 0.162500
vt 1.932244 0.175000
vt 1.923022 0.200000
vt 1.916993 0.237500
vt 1.915487 0.250000
vt 1.921495 0.225000
vt 1.928844 0.187500
vt 1.918684 0.225000
vt 1.918138 0.250000
vt 1.919690 0.237500
vt 1.925797 0.187500
vt 1.934345 0.158789
vt 1.906250 0.150000
vt 1.920674 0.212500
vt 1.929086 0.175000
vt 1.917051 0.237090
vt 1.879618 0.250000
vt 1.877692 0.243049
vt 1.933006 0.162500
vn -0.3366 0.9416 0.0103
vn -0.7583 -0.4943 -0.4251
vn 0.3418 -0.9397 0.0102
vn -0.7652 -0.4861 -0.4221
vn -0.3300 0.9439 0.0123
vn 0.2908 -0.9568 -0.0080
vn 0.4083 0.7590 0.5071
vn -0.3366 0.9416 0.0104
vn -0.3365 0.9416 0.0105
vn 0.3418 -0.9397 0.0101
vn -0.7700 -0.4754 -0.4255
vn -0.7708 -0.4753 -0.4241
vn -0.7708 -0.4753 -0.4242
vn -0.3305 0.9437 0.0127
vn -0.3303 0.9438 0.0128
vn -0.3340 0.9425 0.0099
vn -0.3300 0.9439 0.0124
vn 0.2908 -0.9568 -0.0081
vn 0.3322 0.8265 0.4544
vn 0.3797 0.7956 0.4720
vn 0.3699 0.7916 0.4863
vn -0.4157 -0.1622 0.8949
vn -0.4326 -0.1705 0.8853
vn -0.5999 -0.1359 0.7884
vn -0.4685 -0.1708 0.8668
vn -0.4709 -0.1789 0.8638
vn -0.4996 -0.1793 0.8475
vn -0.4993 -0.1842 0.8466
vn -0.5227 -0.1843 0.8323
vn -0.5225 -0.1885 0.8315
vn -0.5421 -0.1885 0.8189
vn -0.5418 -0.1921 0.8183
vn -0.5582 -0.1920 0.8072
vn -0.5579 -0.1950 0.8066
vn -0.5718 -0.1948 0.7969
vn -0.5716 -0.1974 0.7964
vn -0.5834 -0.1972 0.7878
vn -0.5810 -0.1980 0.7895
vn -0.5891 -0.1984 0.7833
vn 0.4673 0.1793 -0.8657
vn 0.4527 0.1732 -0.8746
vn 0.4417 0.1829 -0.8783
vn 0.4924 0.1746 -0.8526
vn 0.4722 0.1704 -0.8648
vn 0.4994 0.1839 -0.8466
vn 0.5212 0.1827 -0.8336
vn 0.5225 0.1885 -0.8315
vn 0.5421 0.1885 -0.8189
vn 0.5418 0.1921 -0.8183
vn 0.5582 0.1920 -0.8072
vn 0.5579 0.1950 -0.8066
vn 0.5718 0.1948 -0.7969
vn 0.5716 0.1974 -0.7964
vn 0.5834 0.1972 -0.7878
vn 0.5832 0.1995 -0.7874
vn 0.5934 0.1993 -0.7798
vn 0.5912 0.1999 -0.7813
vn 0.5983 0.2003 -0.7758
vn -0.5227 -0.1927 0.8304
vn -0.5419 -0.1956 0.8173
vn -0.7071 -0.1189 0.6970
vn -0.9758 -0.0129 0.2184
vn -0.5692 -0.1997 0.7976
vn 0.5419 0.1956 -0.8173
vn 0.4659 0.1852 -0.8652
vn 0.4364 0.1884 -0.8798
vn -0.4995 -0.1891 0.8454
vn -0.5580 -0.1980 0.8058
vn 0.4995 0.1891 -0.8454
vn -0.4366 -0.1788 0.8816
vn -0.4713 -0.1845 0.8624
vn 0.5580 0.1980 -0.8058
vn 0.5813 0.2014 -0.7883
vn 0.5227 0.1927 -0.8304
vn 0.5716 0.2000 -0.7957
vn -0.4409 -0.1630 0.8826
s off
f 47/1/1 33/2/1 95/3/1
f 55/4/2 52/5/2 54/6/2
f 42/7/3 27/8/3 41/9/3
f 95/10/4 46/11/4 51/12/4
f 29/13/5 30/14/5 36/15/5
f 54/16/6 52/17/6 94/18/6
f 16/19/7 19/20/7 8/21/7
f 45/22/8 95/3/8 33/2/8
f 48/23/9 47/1/9 95/3/9
f 95/3/1 49/24/1 48/23/1
f 55/4/2 51/25/2 52/5/2
f 23/26/3 18/27/3 20/28/3
f 23/26/10 20/28/10 22/29/10
f 25/30/10 22/29/10 21/31/10
f 28/32/10 42/7/10 43/33/10
f 39/34/10 38/35/10 44/36/10
f 44/36/10 94/37/10 39/34/10
f 43/33/10 44/36/10 38/35/10
f 38/35/10 28/32/10 43/33/10
f 22/29/10 20/28/10 21/31/10
f 25/30/10 21/31/10 41/9/10
f 28/32/10 27/8/10 42/7/10
f 25/30/10 41/9/10 27/8/10
f 51/12/11 55/38/11 95/10/11
f 50/39/12 95/10/12 55/38/12
f 45/40/13 46/11/13 95/10/13
f 33/41/14 47/42/14 32/43/14
f 47/42/15 31/44/15 32/43/15
f 31/44/16 47/42/16 37/45/16
f 29/13/17 36/15/17 35/46/17
f 24/47/5 26/48/5 34/49/5
f 34/49/5 19/50/5 24/47/5
f 37/45/5 30/14/5 31/44/5
f 35/46/5 34/49/5 26/48/5
f 26/48/5 29/13/5 35/46/5
f 37/45/5 36/15/5 30/14/5
f 94/18/18 44/51/18 53/52/18
f 53/52/6 54/16/6 94/18/6
f 18/53/19 23/54/19 8/21/19
f 16/19/20 24/55/20 19/20/20
f 8/21/21 23/54/21 16/19/21
s 1
f 89/56/22 1/57/23 96/58/24
f 1/57/23 80/59/25 2/60/26
f 2/60/26 81/61/27 3/62/28
f 3/62/28 79/63/29 4/64/30
f 4/64/30 78/65/31 5/66/32
f 5/66/32 76/67/33 6/68/34
f 6/68/34 58/69/35 7/70/36
f 7/70/36 56/71/37 91/72/38
f 91/72/38 56/71/37 57/73/39
f 9/74/40 87/75/41 82/76/42
f 9/74/40 40/77/43 88/78/44
f 10/79/45 77/80/46 40/81/43
f 11/82/47 75/83/48 77/80/46
f 12/84/49 65/85/50 75/83/48
f 13/86/51 64/87/52 65/85/50
f 14/88/53 61/89/54 64/87/52
f 15/90/55 59/91/56 61/89/54
f 92/92/57 60/93/58 59/91/56
f 73/94/59 5/66/32 72/95/60
f 86/96/61 17/97/62 96/58/24
f 91/98/38 71/99/63 7/70/36
f 67/100/64 13/86/51 12/84/49
f 93/101/65 82/76/42 83/102/66
f 74/103/67 4/64/30 73/94/59
f 70/104/68 7/70/36 71/99/63
f 72/95/60 6/68/34 70/104/68
f 69/105/69 11/82/47 10/79/45
f 84/106/70 2/60/26 85/107/71
f 66/108/72 14/88/53 13/86/51
f 86/96/61 1/57/23 84/106/70
f 62/109/73 92/110/57 15/90/55
f 68/111/74 12/84/49 11/82/47
f 63/112/75 15/90/55 14/88/53
f 85/107/71 3/62/28 74/103/67
f 93/113/65 10/79/45 9/74/40
f 89/56/22 90/114/76 1/57/23
f 1/57/23 90/114/76 80/59/25
f 2/60/26 80/59/25 81/61/27
f 3/62/28 81/61/27 79/63/29
f 4/64/30 79/63/29 78/65/31
f 5/66/32 78/65/31 76/67/33
f 6/68/34 76/67/33 58/69/35
f 7/70/36 58/69/35 56/71/37
f 9/74/40 88/115/44 87/75/41
f 9/74/40 10/79/45 40/77/43
f 10/79/45 11/82/47 77/80/46
f 11/82/47 12/84/49 75/83/48
f 12/84/49 13/86/51 65/85/50
f 13/86/51 14/88/53 64/87/52
f 14/88/53 15/90/55 61/89/54
f 15/90/55 92/110/57 59/91/56
f 73/94/59 4/64/30 5/66/32
f 67/100/64 66/108/72 13/86/51
f 93/101/65 9/74/40 82/76/42
f 74/103/67 3/62/28 4/64/30
f 70/104/68 6/68/34 7/70/36
f 72/95/60 5/66/32 6/68/34
f 69/105/69 68/111/74 11/82/47
f 84/106/70 1/57/23 2/60/26
f 66/108/72 63/112/75 14/88/53
f 86/96/61 96/58/24 1/57/23
f 68/111/74 67/100/64 12/84/49
f 63/112/75 62/116/73 15/90/55
f 85/107/71 2/60/26 3/62/28
f 93/113/65 69/105/69 10/79/45
