# Blender v2.79 (sub 0) OBJ File: 'testScene.blend'
# www.blender.org
o TeapotHandle_cell.055_TeapotHandle_cell.054
v -0.191049 -1.344713 0.019752
v -0.187090 -1.343433 0.016280
v -0.182106 -1.341827 0.014054
v -0.174707 -1.339454 0.014419
v -0.167921 -1.337283 0.016669
v -0.173673 -1.347861 0.064853
v -0.161545 -1.335246 0.019738
v -0.156411 -1.343156 0.020998
v -0.165040 -1.345904 0.016748
v -0.182595 -1.341276 0.067990
v -0.171833 -1.348051 0.014498
v -0.179252 -1.350365 0.014132
v -0.184263 -1.351890 0.016357
v -0.188231 -1.353072 0.019811
v -0.193680 -1.349319 0.020925
v -0.199572 -1.345066 0.021434
v -0.191049 -1.344713 0.019752
v -0.187090 -1.343433 0.016280
v -0.199572 -1.345066 0.021434
v -0.193680 -1.349319 0.020925
v -0.182106 -1.341827 0.014054
v -0.174707 -1.339454 0.014419
v -0.167921 -1.337283 0.016669
v -0.161545 -1.335246 0.019738
v -0.156411 -1.343156 0.020998
v -0.165040 -1.345904 0.016748
v -0.171833 -1.348051 0.014498
v -0.179252 -1.350365 0.014132
v -0.184263 -1.351890 0.016357
v -0.188231 -1.353072 0.019811
vt 1.000000 0.000000
vt 0.499158 0.499158
vt 0.266656 0.000000
vt 0.388653 0.000000
vt 0.486177 0.292034
vt 0.477262 0.384267
vt 0.000000 0.000000
vt 1.000000 0.408734
vt 0.388653 0.388653
vt 0.515109 0.116142
vt 0.516531 0.195017
vt 0.411850 0.352063
vt 0.023966 0.000000
vt 0.439898 0.000000
vt 0.408734 0.408734
vt 1.000000 0.461002
vt 0.461326 0.461326
vt 0.458026 0.121783
vt 0.482374 0.214954
vt 1.000000 0.021095
vt 0.393586 0.393586
vt 0.018543 0.000000
vt 0.505311 0.037560
vt 0.499585 0.271274
vt 0.438600 0.325230
vt 1.843750 0.437500
vt 1.843750 0.418750
vt 1.833995 0.437500
vt 1.843750 0.400000
vt 1.828990 0.418750
vt 1.843750 0.337500
vt 1.828597 0.350000
vt 1.843750 0.350000
vt 1.843750 0.300000
vt 1.828289 0.312500
vt 1.843750 0.312500
vt 1.843750 0.275000
vt 1.827998 0.287500
vt 1.843750 0.287500
vt 1.843478 0.250000
vt 1.827612 0.262500
vt 1.843750 0.262500
vt 1.847235 0.456250
vt 1.846983 0.437500
vt 1.843750 0.456250
vt 1.828863 0.400000
vt 1.828508 0.337500
vt 1.828154 0.300000
vt 1.827819 0.275000
vt 1.827373 0.250000
vn 0.6326 0.6849 0.3616
vn 0.2970 -0.9548 0.0146
vn -0.5111 -0.8193 0.2600
vn -0.3055 0.9522 0.0027
vn -0.5493 -0.7926 0.2648
vn 0.7567 0.5479 0.3566
vn 0.2970 -0.9548 0.0145
vn 0.2970 -0.9548 0.0144
vn -0.5123 -0.8183 0.2605
vn -0.0534 0.9967 -0.0616
vn -0.2994 0.9541 -0.0114
vn -0.3075 0.9514 -0.0139
vn -0.2258 -0.1174 -0.9671
vn -0.4076 -0.1652 -0.8981
vn -0.5138 -0.1791 -0.8390
vn -0.4927 -0.1726 -0.8529
vn -0.1661 -0.0645 -0.9840
vn -0.4909 -0.1719 -0.8541
vn 0.1679 0.0471 -0.9846
vn -0.1619 -0.0631 -0.9848
vn 0.3430 0.1061 -0.9333
vn 0.1705 0.0480 -0.9842
vn 0.4028 0.1223 -0.9070
vn 0.3470 0.1053 -0.9319
vn -0.1860 -0.1415 -0.9723
vn 0.4076 0.1203 -0.9052
s off
f 6/1/1 7/2/1 10/3/1
f 30/4/2 11/5/2 9/6/2
f 6/7/3 15/8/3 30/9/3
f 5/10/4 4/11/4 1/12/4
f 10/13/5 19/14/5 15/15/5
f 6/1/6 25/16/6 7/2/6
f 25/17/7 6/7/7 9/6/7
f 30/4/8 13/18/8 11/5/8
f 12/19/8 11/5/8 13/18/8
f 9/6/7 6/7/7 30/4/7
f 6/7/9 10/20/9 15/8/9
f 19/21/10 10/22/10 1/12/10
f 7/23/11 5/10/11 10/22/11
f 4/11/4 3/24/4 2/25/4
f 1/12/12 10/22/12 5/10/12
f 4/11/4 2/25/4 1/12/4
s 1
f 20/26/13 17/27/14 14/28/15
f 18/29/16 14/30/15 17/27/14
f 21/31/17 29/32/18 18/33/16
f 22/34/19 28/35/20 21/36/17
f 23/37/21 27/38/22 22/39/19
f 24/40/23 26/41/24 23/42/21
f 16/43/25 17/44/14 20/45/13
f 18/29/16 29/46/18 14/30/15
f 21/31/17 28/47/20 29/32/18
f 22/34/19 27/48/22 28/35/20
f 23/37/21 26/49/24 27/38/22
f 24/40/23 8/50/26 26/41/24
