# Blender v2.79 (sub 0) OBJ File: 'testScene.blend'
# www.blender.org
o TeapotHandle_cell.003_TeapotHandle_cell.002
v -0.166662 -1.356471 0.068539
v -0.171718 -1.349770 0.063979
v -0.155052 -1.345072 0.020849
v -0.163661 -1.347872 0.016595
v -0.147625 -1.350301 0.023930
v -0.152621 -1.352231 0.020949
v -0.161078 -1.355481 0.016700
v -0.167738 -1.358018 0.014453
v -0.170440 -1.350062 0.014342
v -0.177842 -1.352424 0.013973
v -0.182843 -1.353984 0.016196
v -0.184182 -1.358869 0.018733
v -0.175015 -1.360745 0.014090
v -0.179935 -1.362537 0.016318
v -0.147625 -1.350301 0.023930
v -0.152621 -1.352231 0.020949
v -0.161078 -1.355481 0.016700
v -0.175015 -1.360745 0.014090
v -0.167738 -1.358018 0.014453
v -0.179935 -1.362537 0.016318
v -0.184182 -1.358869 0.018733
v -0.155052 -1.345072 0.020849
v -0.163661 -1.347872 0.016595
v -0.170440 -1.350062 0.014342
v -0.177842 -1.352424 0.013973
v -0.182843 -1.353984 0.016196
vt 0.000000 0.000000
vt 1.000000 0.467694
vt 0.453956 0.453956
vt 1.000000 0.572723
vt 1.000000 1.000000
vt 0.476585 0.090660
vt 0.493043 0.353593
vt 0.000000 0.000000
vt 0.760621 0.239830
vt 0.630982 0.057242
vt 0.610051 0.000000
vt 1.000000 0.000000
vt 0.400866 0.000000
vt 0.467418 0.467418
vt 0.482725 0.406500
vt 0.499680 0.183780
vt 0.502696 0.261014
vt 1.000000 0.000000
vt 0.966464 0.426989
vt 0.848159 0.325019
vt 0.675708 0.137450
vt 1.825032 0.287500
vt 1.812500 0.275000
vt 1.812500 0.287500
vt 1.825739 0.387500
vt 1.825692 0.375000
vt 1.812500 0.387500
vt 1.825303 0.312500
vt 1.812500 0.300000
vt 1.812500 0.312500
vt 1.825574 0.350000
vt 1.812500 0.337500
vt 1.812500 0.350000
vt 1.824302 0.244204
vt 1.812500 0.237534
vt 1.812500 0.250000
vt 1.824660 0.262500
vt 1.812500 0.262500
vt 1.824860 0.275000
vt 1.825178 0.300000
vt 1.825498 0.337500
vt 1.824425 0.250000
vn 0.4748 0.8362 0.2745
vn -0.8480 -0.4570 0.2686
vn 0.3500 -0.9365 0.0198
vn -0.0143 0.4639 0.8858
vn 0.6115 0.7053 0.3585
vn -0.5181 -0.7996 0.3035
vn 0.3500 -0.9365 0.0199
vn -0.3033 0.9528 -0.0134
vn -0.3997 0.8239 0.4017
vn -0.4755 0.8785 -0.0457
vn 0.1691 0.0437 -0.9846
vn 0.3475 0.1051 -0.9318
vn 0.1681 0.0434 -0.9848
vn -0.6194 -0.2213 -0.7532
vn -0.4520 -0.1660 -0.8764
vn -0.4472 -0.1646 -0.8791
vn -0.1652 -0.0699 -0.9838
vn -0.1666 -0.0705 -0.9835
vn 0.4244 0.1317 -0.8958
vn 0.4648 0.1457 -0.8733
vn 0.4353 0.1354 -0.8900
vn 0.3480 0.1052 -0.9315
s off
f 2/1/1 5/2/1 3/3/1
f 2/1/2 14/4/2 1/5/2
f 14/6/3 7/7/3 1/8/3
f 9/9/4 11/10/4 21/11/4
f 2/1/5 1/12/5 5/2/5
f 2/1/6 21/13/6 14/4/6
f 5/14/3 1/8/3 6/15/3
f 14/6/3 13/16/3 8/17/3
f 8/17/7 7/7/7 14/6/7
f 6/15/3 1/8/3 7/7/3
f 2/18/8 3/19/8 4/20/8
f 4/20/9 9/9/9 21/11/9
f 10/21/8 11/10/8 9/9/8
f 21/11/10 2/18/10 4/20/10
s 1
f 24/22/11 17/23/12 19/24/13
f 12/25/14 26/26/15 20/27/16
f 25/28/17 19/29/13 18/30/18
f 26/31/15 18/32/18 20/33/16
f 22/34/19 15/35/20 16/36/21
f 23/37/22 16/36/21 17/38/12
f 24/22/11 23/39/22 17/23/12
f 25/28/17 24/40/11 19/29/13
f 26/31/15 25/41/17 18/32/18
f 23/37/22 22/42/19 16/36/21
