# Blender v2.79 (sub 0) OBJ File: 'testScene.blend'
# www.blender.org
o TeapotHandle_cell.035_TeapotHandle_cell.034
v -0.205803 -1.224760 0.063785
v -0.204725 -1.228927 0.071689
v -0.218978 -1.231643 0.079622
v -0.212206 -1.231620 0.081468
v -0.208287 -1.229164 0.083627
v -0.204138 -1.231818 0.084830
v -0.224171 -1.231896 0.079251
v -0.230686 -1.232635 0.080651
v -0.230991 -1.227732 0.081786
v -0.237530 -1.233207 0.081220
v -0.237880 -1.227597 0.082520
v -0.246374 -1.233783 0.081227
v -0.246781 -1.227257 0.082738
v -0.251470 -1.234083 0.081093
v -0.251909 -1.227031 0.082726
v -0.256975 -1.234399 0.080908
v -0.257450 -1.226777 0.082674
v -0.262858 -1.234734 0.080702
v -0.263371 -1.226504 0.082608
v -0.269642 -1.226219 0.082560
v -0.270616 -1.235184 0.080468
v -0.275932 -1.230778 0.081435
v -0.281451 -1.226156 0.082511
v -0.216848 -1.220786 0.032277
v -0.220832 -1.221861 0.035789
v -0.225763 -1.222521 0.037257
v -0.229442 -1.218066 0.038757
v -0.233096 -1.223134 0.037868
v -0.237934 -1.217804 0.039236
v -0.242572 -1.223751 0.037874
v -0.242955 -1.217599 0.039299
v -0.248031 -1.224073 0.037731
v -0.248450 -1.217356 0.039287
v -0.253929 -1.224411 0.037534
v -0.254386 -1.217084 0.039230
v -0.260233 -1.224770 0.037313
v -0.260730 -1.216792 0.039161
v -0.267450 -1.216486 0.039109
v -0.271533 -1.225430 0.036989
v -0.274512 -1.216178 0.039106
v -0.280049 -1.218384 0.038602
v -0.246374 -1.233783 0.081227
v -0.251470 -1.234083 0.081093
v -0.246781 -1.227257 0.082738
v -0.251909 -1.227031 0.082726
v -0.256975 -1.234399 0.080908
v -0.257450 -1.226777 0.082674
v -0.262858 -1.234734 0.080702
v -0.263371 -1.226504 0.082608
v -0.269642 -1.226219 0.082560
v -0.270616 -1.235184 0.080468
v -0.275932 -1.230778 0.081435
v -0.242955 -1.217599 0.039299
v -0.237934 -1.217804 0.039236
v -0.248031 -1.224073 0.037731
v -0.242572 -1.223751 0.037874
v -0.248450 -1.217356 0.039287
v -0.253929 -1.224411 0.037534
v -0.254386 -1.217084 0.039230
v -0.260233 -1.224770 0.037313
v -0.260730 -1.216792 0.039161
v -0.267450 -1.216486 0.039109
v -0.274512 -1.216178 0.039106
v -0.208287 -1.229164 0.083627
v -0.212206 -1.231620 0.081468
v -0.204138 -1.231818 0.084830
v -0.224171 -1.231896 0.079251
v -0.230686 -1.232635 0.080651
v -0.230991 -1.227732 0.081786
v -0.237530 -1.233207 0.081220
v -0.237880 -1.227597 0.082520
v -0.233096 -1.223134 0.037868
v -0.225763 -1.222521 0.037257
v -0.229442 -1.218066 0.038757
v -0.271533 -1.225430 0.036989
v -0.280049 -1.218384 0.038602
vt 0.000000 0.000000
vt 1.000000 0.304873
vt 0.212684 0.212684
vt 0.521514 0.290717
vt 0.472551 0.202936
vt 0.642816 0.241413
vt 1.000000 0.212684
vt 0.949005 0.000000
vt 1.000000 0.000000
vt 0.840770 0.743519
vt 1.000000 0.794885
vt 1.000000 1.000000
vt 1.000000 0.279101
vt 0.407503 0.407503
vt 0.288448 0.288448
vt 0.698380 0.000000
vt 1.000000 0.000000
vt 1.000000 1.000000
vt 0.915956 0.872561
vt 1.000000 0.816604
vt 0.384454 0.384454
vt 0.288448 0.000000
vt 0.407503 0.000000
vt 0.643589 0.117335
vt 0.784166 0.170910
vt 0.676420 0.206307
vt 0.813169 0.728586
vt 0.739891 0.739891
vt 0.788734 0.781118
vt 0.770594 0.744303
vt 0.747416 0.699659
vt 0.981869 0.860618
vt 1.000000 0.889333
vt 0.853660 0.623096
vt 0.687302 0.588550
vt 0.651042 0.522918
vt 0.935430 0.782779
vt 0.903545 0.723190
vt 0.726429 0.391128
vt 0.797552 0.519393
vt 0.611098 0.451124
vt 0.686026 0.318757
vt 0.567810 0.373585
vt 0.597116 0.159484
vt 0.360115 0.000000
vt 0.508675 0.000000
vt 0.549243 0.073359
vt 0.421257 0.110660
vt 1.000000 0.399813
vt 1.000000 0.739891
vt 0.867607 0.703281
vt 0.929172 0.883657
vt 0.896037 0.781754
vt 0.959814 0.641278
vt 0.826539 0.604247
vt 0.911076 0.513506
vt 0.786000 0.500482
vt 0.735731 0.366637
vt 0.707163 0.289557
vt 0.852281 0.355432
vt 0.600187 0.000000
vt 0.746843 0.069935
vt 0.819343 0.266237
vt 1.000000 0.685868
vt 1.955872 0.512500
vt 1.946071 0.493750
vt 1.945422 0.512500
vt 1.956274 0.568750
vt 1.945637 0.550000
vt 1.956257 0.550000
vt 1.955909 0.550000
vt 1.944717 0.531250
vt 1.943962 0.550000
vt 1.955845 0.475000
vt 1.947169 0.456250
vt 1.946656 0.475000
vt 1.956199 0.456250
vt 1.956206 0.475000
vt 1.948394 0.475000
vt 1.952954 0.625000
vt 1.941272 0.643750
vt 1.942191 0.625000
vt 1.956291 0.587500
vt 1.944822 0.568750
vt 1.943093 0.606250
vt 1.956215 0.493750
vt 1.956227 0.512500
vt 1.947796 0.493750
vt 1.956241 0.531250
vt 1.946410 0.531250
vt 1.947132 0.512500
vt 1.955829 0.337500
vt 1.948262 0.325000
vt 1.947910 0.337500
vt 1.955951 0.587500
vt 1.943166 0.568750
vt 1.942336 0.587500
vt 1.941478 0.606250
vt 1.955974 0.606250
vt 1.948411 0.625000
vt 1.943972 0.587500
vt 1.955929 0.568750
vt 1.955718 0.261748
vt 1.955618 0.251629
vt 1.950971 0.262500
vt 1.955857 0.493750
vt 1.955889 0.531250
vt 1.955836 0.456250
vt 1.956309 0.606250
vn 0.4969 0.8519 0.1652
vn 0.0425 0.9745 0.2204
vn 0.0666 -0.9739 -0.2172
vn -0.1185 0.9791 0.1650
vn -0.6470 -0.7468 -0.1539
vn 0.8278 -0.4417 -0.3459
vn -0.5704 0.8141 0.1093
vn -0.6519 -0.7429 -0.1523
vn 0.0632 -0.9735 -0.2197
vn 0.0646 -0.9732 -0.2206
vn 0.7384 0.6329 0.2329
vn -0.0875 0.9850 0.1490
vn 0.6272 0.6583 -0.4164
vn -0.0933 0.9392 0.3306
vn 0.0426 0.9745 0.2204
vn -0.0704 0.9350 0.3477
vn -0.0855 0.9394 0.3320
vn 0.5637 0.8013 0.2003
vn 0.6519 0.7429 0.1523
vn -0.3769 0.8795 0.2907
vn -0.5974 0.7641 0.2435
vn 0.0632 -0.9735 -0.2198
vn 0.0670 -0.9728 -0.2216
vn 0.0015 -0.2255 0.9742
vn 0.0545 -0.2221 0.9735
vn 0.0007 -0.2256 0.9742
vn 0.0204 0.2268 -0.9737
vn 0.0161 0.2265 -0.9738
vn 0.0159 0.2265 -0.9738
vn -0.0159 -0.2265 0.9738
vn -0.0161 -0.2265 0.9738
vn 0.0572 -0.2218 0.9734
vn 0.1453 -0.2146 0.9658
vn -0.1006 0.2419 -0.9651
vn -0.0539 0.2250 -0.9729
vn -0.0780 0.2266 -0.9708
vn 0.0099 0.2246 -0.9744
vn 0.0000 0.2231 -0.9748
vn 0.0046 0.2245 -0.9745
vn 0.0186 0.2260 -0.9739
vn 0.0138 0.2256 -0.9741
vn 0.0010 0.2285 -0.9735
vn -0.0204 0.2248 -0.9742
vn 0.0050 0.2259 -0.9741
vn 0.1638 -0.2129 0.9633
vn 0.2279 -0.2062 0.9516
vn -0.0190 -0.2264 0.9738
vn -0.0204 -0.2268 0.9737
vn -0.0193 -0.2267 0.9738
vn -0.0148 -0.2261 0.9740
vn -0.0138 -0.2258 0.9741
vn -0.0102 -0.2262 0.9740
vn 0.0193 0.2267 -0.9738
vn -0.3818 -0.1866 0.9052
s off
f 2/1/1 64/2/1 66/3/1
f 61/4/2 62/5/2 49/6/2
f 66/7/3 65/8/3 2/9/3
f 24/10/4 25/11/4 1/12/4
f 75/13/5 52/14/5 76/15/5
f 24/16/6 1/17/6 2/18/6
f 65/19/7 64/20/7 1/12/7
f 23/21/8 76/22/8 52/23/8
f 18/24/9 36/25/9 16/26/9
f 25/27/10 2/18/10 73/28/10
f 2/1/11 1/17/11 64/2/11
f 1/12/12 25/29/12 73/30/12
f 1/12/13 73/30/13 74/31/13
f 3/32/14 65/33/14 1/12/14
f 11/34/15 54/35/15 53/36/15
f 67/37/16 3/32/16 1/12/16
f 1/12/17 74/31/17 67/37/17
f 74/31/18 9/38/18 67/37/18
f 9/38/2 54/35/2 11/34/2
f 45/39/2 44/40/2 57/41/2
f 49/6/2 47/42/2 61/4/2
f 47/42/2 45/39/2 59/43/2
f 74/31/2 54/35/2 9/38/2
f 11/34/2 53/36/2 44/40/2
f 50/44/2 49/6/2 62/5/2
f 76/45/19 23/46/19 52/47/19
f 44/40/15 53/36/15 57/41/15
f 76/45/20 52/47/20 63/48/20
f 62/5/2 63/48/2 50/44/2
f 59/43/2 61/4/2 47/42/2
f 45/39/2 57/41/2 59/43/2
f 63/48/21 52/47/21 50/44/21
f 75/13/5 51/49/5 52/14/5
f 73/50/9 2/18/9 67/51/9
f 2/18/22 65/52/22 3/53/22
f 28/54/9 73/50/9 67/51/9
f 67/51/9 8/55/9 28/54/9
f 2/18/9 3/53/9 67/51/9
f 30/56/9 28/54/9 10/57/9
f 8/55/9 10/57/9 28/54/9
f 12/58/9 14/59/9 32/60/9
f 18/24/9 51/61/9 75/62/9
f 14/59/9 16/26/9 34/63/9
f 30/56/9 10/57/9 12/58/9
f 32/60/9 30/56/9 12/58/9
f 16/26/9 36/25/9 34/63/9
f 75/62/9 36/25/9 18/24/9
f 34/63/9 32/60/9 14/59/9
f 25/27/23 24/64/23 2/18/23
s 1
f 42/65/24 71/66/25 13/67/26
f 58/68/27 33/69/28 55/70/29
f 43/71/30 13/72/26 15/73/31
f 70/74/32 69/75/33 71/76/25
f 26/77/34 72/78/35 27/79/36
f 39/80/37 41/81/38 40/82/39
f 60/83/40 35/84/27 58/68/27
f 39/80/37 40/82/39 38/85/41
f 72/86/35 56/87/42 29/88/43
f 56/89/42 31/90/44 29/91/43
f 72/86/35 29/88/43 27/79/36
f 68/92/45 7/93/46 69/94/33
f 55/70/29 31/90/44 56/89/42
f 48/95/47 17/96/48 19/97/49
f 48/95/47 20/98/50 21/99/51
f 22/100/52 21/99/51 20/98/50
f 60/83/40 38/85/41 37/101/53
f 46/102/48 15/73/31 17/96/48
f 4/103/54 6/104/54 5/105/54
f 42/65/24 70/106/32 71/66/25
f 58/68/27 35/84/27 33/69/28
f 43/71/30 42/107/24 13/72/26
f 70/74/32 68/108/45 69/75/33
f 60/83/40 37/101/53 35/84/27
f 55/70/29 33/69/28 31/90/44
f 48/95/47 46/102/48 17/96/48
f 48/95/47 19/97/49 20/98/50
f 60/83/40 39/109/37 38/85/41
f 46/102/48 43/71/30 15/73/31
