# Blender v2.79 (sub 0) OBJ File: 'testScene.blend'
# www.blender.org
o TeapotHandle_cell.052_TeapotHandle_cell.051
v -0.538387 -1.278798 0.072648
v -0.536743 -1.249335 0.022977
v -0.535506 -1.245021 0.025489
v -0.536574 -1.254067 0.020691
v -0.539255 -1.258488 0.018752
v -0.536743 -1.249335 0.022977
v -0.539255 -1.258488 0.018752
v -0.536574 -1.254067 0.020691
vt 0.843801 0.588394
vt 1.000000 1.000000
vt 0.767334 0.767334
vt 0.842174 0.685043
vt 1.000000 0.767334
vt 1.000000 0.235713
vt 0.522146 0.522146
vt 0.671350 0.597446
vt 0.437500 0.152628
vt 0.421875 0.149353
vt 0.437500 0.151006
vn -0.9703 0.2207 0.0988
vn 0.9703 -0.2207 -0.0988
vn 0.8742 -0.4496 -0.1835
vn 0.9990 0.0153 0.0422
vn -0.0626 0.4323 -0.8995
s off
f 6/1/1 1/2/1 3/3/1
f 6/4/2 3/5/2 1/2/2
f 6/1/1 7/6/1 1/2/1
f 1/2/3 7/7/3 4/8/3
f 4/8/4 6/4/4 1/2/4
s 1
f 5/9/5 2/10/5 8/11/5
