# Blender v2.79 (sub 0) OBJ File: 'testScene.blend'
# www.blender.org
o TeapotHandle_cell.099_TeapotHandle_cell.135
v -0.066156 -1.542718 0.113636
v -0.061428 -1.538502 0.112524
v -0.057495 -1.533938 0.113171
v -0.052774 -1.527595 0.115226
v -0.050072 -1.523655 0.116863
v -0.042125 -1.537273 0.122193
v -0.039577 -1.533194 0.123731
v -0.036803 -1.528525 0.125703
v -0.023411 -1.531855 0.135164
v -0.020373 -1.525684 0.137939
v -0.058135 -1.560535 0.074688
v -0.052753 -1.555557 0.073690
v -0.048844 -1.552568 0.072032
v -0.038618 -1.564692 0.080802
v -0.045045 -1.550941 0.068527
v -0.040767 -1.548116 0.066053
v -0.035280 -1.542596 0.065694
v -0.030699 -1.536842 0.067095
v -0.025204 -1.529025 0.070133
v -0.033110 -1.561787 0.076336
v -0.028905 -1.558896 0.073814
v -0.023607 -1.553205 0.073333
v -0.019240 -1.547257 0.074594
v -0.014047 -1.539164 0.077434
v -0.011097 -1.534202 0.079530
v -0.007890 -1.528568 0.082122
v -0.009642 -1.560354 0.081822
v -0.005142 -1.553160 0.083661
v -0.002601 -1.548684 0.085182
v 0.000154 -1.543560 0.087147
v 0.003139 -1.537741 0.089588
v 0.006368 -1.531181 0.092538
v 0.009116 -1.557563 0.093366
v 0.011673 -1.552289 0.095193
v 0.014430 -1.546298 0.097475
v 0.017400 -1.539542 0.100245
v 0.020597 -1.531973 0.103532
v 0.031570 -1.539508 0.111426
v 0.034673 -1.530850 0.115022
v 0.045521 -1.537550 0.123045
v 0.048462 -1.527723 0.126915
v 0.057440 -1.520658 0.156871
v -0.007427 -1.526097 0.147975
v -0.014013 -1.521106 0.143374
v -0.004774 -1.520999 0.150753
v -0.018222 -1.521154 0.140092
v -0.014869 -1.529856 0.141785
v -0.025719 -1.521238 0.134321
v -0.035849 -1.521351 0.126791
v -0.027874 -1.535951 0.131747
v -0.033441 -1.538297 0.127885
v -0.038519 -1.540272 0.124634
v -0.044594 -1.521445 0.120605
v -0.055824 -1.521560 0.113272
v -0.047315 -1.543190 0.119832
v -0.054439 -1.544853 0.117097
v -0.060336 -1.545591 0.115888
v -0.061036 -1.522077 0.110168
v -0.064660 -1.526847 0.108653
v -0.068629 -1.531374 0.107983
v -0.072916 -1.536026 0.109373
v -0.074274 -1.540408 0.111434
v -0.070160 -1.546148 0.114785
v -0.075154 -1.546353 0.113743
v 0.010981 -1.521391 0.097244
v 0.006974 -1.521437 0.094079
v -0.033676 -1.566105 0.082030
v -0.064828 -1.553909 0.070467
v -0.067399 -1.559718 0.071902
v -0.045301 -1.566872 0.080779
v -0.050450 -1.567519 0.079717
v -0.063229 -1.565217 0.075012
v -0.056910 -1.568355 0.078153
v -0.005119 -1.521573 0.084779
v -0.015462 -1.521687 0.077168
v 0.004870 -1.560747 0.090655
v -0.000170 -1.562577 0.087660
v -0.014227 -1.566384 0.081468
v -0.019121 -1.567033 0.080437
v -0.008911 -1.565227 0.083339
v -0.024540 -1.521784 0.070793
v -0.031460 -1.522832 0.066188
v -0.036981 -1.530624 0.063134
v -0.041598 -1.536343 0.061710
v -0.026858 -1.566987 0.080568
v -0.047152 -1.541795 0.062026
v -0.051510 -1.544541 0.064449
v -0.055397 -1.546082 0.067900
v -0.059372 -1.549005 0.069515
v -0.000193 -1.520946 0.154453
v 0.067884 -1.520759 0.144669
v 0.058786 -1.520850 0.136802
v 0.069819 -1.527627 0.145135
v 0.059056 -1.533828 0.134920
v 0.047701 -1.520959 0.127393
v 0.044110 -1.542077 0.121337
v 0.037732 -1.521078 0.118985
v 0.024950 -1.521229 0.108464
v 0.039622 -1.544481 0.117381
v 0.031190 -1.548837 0.110215
v 0.021039 -1.521274 0.105277
v 0.027315 -1.550756 0.107060
v 0.023581 -1.552581 0.104058
v 0.016732 -1.555763 0.098832
v 0.044110 -1.542077 0.121337
v 0.045521 -1.537550 0.123045
v -0.014013 -1.521106 0.143374
v -0.004774 -1.520999 0.150753
v -0.018222 -1.521154 0.140092
v -0.014869 -1.529856 0.141785
v -0.007427 -1.526097 0.147975
v -0.025719 -1.521238 0.134321
v -0.033441 -1.538297 0.127885
v -0.027874 -1.535951 0.131747
v -0.038519 -1.540272 0.124634
v -0.044594 -1.521445 0.120605
v -0.035849 -1.521351 0.126791
v 0.010981 -1.521391 0.097244
v 0.006974 -1.521437 0.094079
v -0.045301 -1.566872 0.080779
v -0.050450 -1.567519 0.079717
v -0.005119 -1.521573 0.084779
v -0.015462 -1.521687 0.077168
v 0.004870 -1.560747 0.090655
v -0.000170 -1.562577 0.087660
v -0.000193 -1.520946 0.154453
v 0.024950 -1.521229 0.108464
v 0.037732 -1.521078 0.118985
v 0.039622 -1.544481 0.117381
v 0.031190 -1.548837 0.110215
v 0.021039 -1.521274 0.105277
v 0.027315 -1.550756 0.107060
v 0.023581 -1.552581 0.104058
v 0.016732 -1.555763 0.098832
v -0.055824 -1.521560 0.113272
v -0.050072 -1.523655 0.116863
v -0.067399 -1.559718 0.071902
v -0.063229 -1.565217 0.075012
v -0.038618 -1.564692 0.080802
v -0.023411 -1.531855 0.135164
v 0.009116 -1.557563 0.093366
v -0.070160 -1.546148 0.114785
v -0.066156 -1.542718 0.113636
v -0.047315 -1.543190 0.119832
v -0.061036 -1.522077 0.110168
v -0.054439 -1.544853 0.117097
v -0.060336 -1.545591 0.115888
v -0.064660 -1.526847 0.108653
v -0.068629 -1.531374 0.107983
v -0.072916 -1.536026 0.109373
v -0.074274 -1.540408 0.111434
v -0.075154 -1.546353 0.113743
v -0.033676 -1.566105 0.082030
v -0.064828 -1.553909 0.070467
v -0.056910 -1.568355 0.078153
v -0.024540 -1.521784 0.070793
v -0.008911 -1.565227 0.083339
v -0.014227 -1.566384 0.081468
v -0.019121 -1.567033 0.080437
v -0.026858 -1.566987 0.080568
v -0.031460 -1.522832 0.066188
v -0.036981 -1.530624 0.063134
v -0.041598 -1.536343 0.061710
v -0.047152 -1.541795 0.062026
v -0.051510 -1.544541 0.064449
v -0.055397 -1.546082 0.067900
v -0.059372 -1.549005 0.069515
v 0.069819 -1.527627 0.145135
v 0.067884 -1.520759 0.144669
v 0.058786 -1.520850 0.136802
v 0.047701 -1.520959 0.127393
v 0.059056 -1.533828 0.134920
vt 0.703811 0.075919
vt 0.635307 0.092483
vt 0.781057 0.010967
vt 0.000000 0.000000
vt 0.154512 0.090263
vt 0.199387 0.199387
vt 0.585468 0.382390
vt 1.000000 0.287457
vt 0.802817 0.802817
vt 0.456622 0.149131
vt 0.721954 0.485880
vt 0.418663 0.184347
vt 0.005844 0.000000
vt 0.336211 0.000000
vt 0.327238 0.327238
vt 0.624658 0.273943
vt 1.000000 0.011420
vt 0.793840 0.793840
vt 0.975809 0.092832
vt 0.883404 0.000000
vt 1.000000 0.000000
vt 0.559270 0.230828
vt 1.000000 0.290464
vt 0.533127 0.533127
vt 0.975440 0.314972
vt 0.347899 0.000000
vt 1.000000 0.005683
vt 0.843980 0.373134
vt 0.901934 0.400726
vt 0.867088 0.762446
vt 0.619317 0.338552
vt 0.421923 0.000000
vt 1.000000 0.335072
vt 0.394896 0.107225
vt 0.284527 0.026247
vt 0.837218 0.086998
vt 0.117014 0.117014
vt 0.218711 0.117608
vt 0.772927 0.034667
vt 0.763049 0.045848
vt 0.728715 0.066516
vt 0.651174 0.089311
vt 0.589404 0.099413
vt 0.535994 0.105430
vt 0.505341 0.107945
vt 0.473122 0.110354
vt 0.399997 0.114098
vt 0.315504 0.116549
vt 0.359637 0.115377
vt 0.116596 0.000000
vt 0.595675 0.595675
vt 0.310995 0.275484
vt 0.615727 0.579815
vt 0.331039 0.259631
vt 0.665766 0.537007
vt 0.353677 0.241261
vt 0.786695 0.423383
vt 0.861087 0.348106
vt 0.807945 0.402108
vt 0.519170 0.088288
vt 0.948390 0.255930
vt 0.881594 0.326674
vt 0.605127 0.000000
vt 1.000000 0.199387
vt 0.567981 0.038686
vt 0.496741 0.110347
vt 0.780739 0.780739
vt 0.555534 0.149972
vt 0.408247 0.012987
vt 0.486395 0.086928
vt 0.813908 0.772714
vt 0.768750 0.324431
vt 0.618344 0.205210
vt 0.674345 0.252136
vt 0.894871 0.766783
vt 0.724080 0.291407
vt 1.000000 0.418676
vt 1.000000 0.793840
vt 0.965887 0.413866
vt 0.969874 0.784743
vt 0.947188 0.412739
vt 1.000000 0.178713
vt 0.983889 0.525141
vt 0.808620 0.433622
vt 0.679970 0.359798
vt 0.460713 0.164025
vt 0.557282 0.275812
vt 0.475004 0.182653
vt 0.958237 0.156443
vt 0.246926 0.000000
vt 0.752690 0.031435
vt 1.421703 0.325000
vt 1.437500 0.312500
vt 1.437500 0.325000
vt 1.413298 0.300000
vt 1.437500 0.287500
vt 1.437500 0.300000
vt 1.406250 0.275000
vt 1.437500 0.262500
vt 1.437500 0.275000
vt 1.406250 0.262500
vt 1.437500 0.250000
vt 1.406250 0.250000
vt 1.429847 0.237500
vt 1.402525 0.275000
vt 1.395935 0.262500
vt 1.388438 0.250000
vt 1.406250 0.237500
vt 1.375000 0.225000
vt 1.406250 0.225000
vt 1.391477 0.212500
vt 1.369968 0.225000
vt 1.358424 0.212500
vt 1.375000 0.212500
vt 1.365477 0.200000
vt 1.375000 0.204307
vt 1.437500 0.493750
vt 1.424663 0.512500
vt 1.437500 0.512500
vt 1.437500 0.475000
vt 1.411793 0.475000
vt 1.417824 0.493750
vt 1.437500 0.456250
vt 1.437500 0.437500
vt 1.406250 0.437500
vt 1.406473 0.456250
vt 1.437500 0.418750
vt 1.437500 0.400000
vt 1.406250 0.418750
vt 1.437500 0.387500
vt 1.406250 0.387500
vt 1.406250 0.400000
vt 1.437500 0.337500
vt 1.406250 0.350000
vt 1.437500 0.350000
vt 1.437500 0.300000
vt 1.406250 0.312500
vt 1.437500 0.312500
vt 1.437500 0.275000
vt 1.406250 0.287500
vt 1.437500 0.287500
vt 1.437500 0.250000
vt 1.406250 0.262500
vt 1.437500 0.262500
vt 1.406250 0.237500
vt 1.406250 0.250000
vt 1.428257 0.225000
vt 1.437500 0.231769
vt 1.395242 0.400000
vt 1.406250 0.375000
vt 1.390293 0.375000
vt 1.392848 0.387500
vt 1.406250 0.337500
vt 1.384490 0.350000
vt 1.375000 0.318108
vt 1.377345 0.325000
vt 1.406250 0.300000
vt 1.375000 0.312500
vt 1.375000 0.287500
vt 1.375000 0.300000
vt 1.406250 0.275000
vt 1.375000 0.262500
vt 1.375000 0.275000
vt 1.375000 0.250000
vt 1.406250 0.225000
vt 1.375000 0.237500
vt 1.375000 0.212500
vt 1.375000 0.225000
vt 1.406250 0.211345
vt 1.375000 0.200000
vt 1.368068 0.300000
vt 1.356009 0.275000
vt 1.362430 0.287500
vt 1.348681 0.262500
vt 1.343750 0.250000
vt 1.343750 0.237500
vt 1.343750 0.225000
vt 1.343750 0.200000
vt 1.343750 0.212500
vt 1.375000 0.196267
vt 1.330314 0.237500
vt 1.318956 0.225000
vt 1.312500 0.200000
vt 1.312500 0.212500
vt 1.312500 0.187500
vt 1.343750 0.184400
vt 1.343750 0.187500
vt 1.305649 0.212500
vt 1.281250 0.187500
vt 1.281250 0.193882
vt 1.290009 0.200000
vt 1.281250 0.175000
vt 1.312500 0.174785
vt 1.281250 0.167166
vt 1.250000 0.175298
vt 1.250000 0.162500
vt 1.250000 0.175000
vt 1.225222 0.163742
vt 1.250000 0.160749
vt 1.234490 0.158160
vt 1.227115 0.162500
vt 1.455292 0.262500
vt 1.458930 0.268176
vt 1.458384 0.325000
vt 1.458433 0.312500
vt 1.455151 0.475000
vt 1.406250 0.212500
vt 1.454831 0.312500
vt 1.453618 0.456250
vt 1.437500 0.437500
vt 1.456914 0.437500
vt 1.454798 0.337500
vt 1.454817 0.350000
vt 1.450508 0.256800
vt 1.451746 0.465185
vt 1.438294 0.475000
vt 1.437500 0.456250
vt 1.458516 0.300000
vt 1.458640 0.287500
vt 1.343750 0.191440
vt 1.343750 0.198871
vt 1.455049 0.400000
vt 1.455113 0.418750
vt 1.332628 0.187500
vt 1.412625 0.225000
vt 1.454984 0.287500
vt 1.455098 0.503824
vt 1.450956 0.243159
vt 1.437500 0.237500
vt 1.455150 0.437500
vt 1.417745 0.312500
vt 1.408285 0.287500
vt 1.379887 0.237500
vt 1.375000 0.231196
vt 1.345106 0.200000
vt 1.381124 0.337500
vt 1.312500 0.218762
vt 1.312500 0.175000
vt 1.455519 0.250000
vt 1.458809 0.275000
vt 1.455162 0.456250
vt 1.454890 0.300000
vt 1.455053 0.262500
vt 1.455116 0.275000
vt 1.455122 0.493750
vn -0.0817 -0.6790 0.7296
vn -0.0017 1.0000 -0.0097
vn -0.9516 0.1764 -0.2517
vn -0.0046 1.0000 -0.0087
vn -0.8067 -0.5897 0.0389
vn -0.0686 -0.8639 0.4989
vn 0.7366 0.2502 0.6283
vn -0.0632 0.9962 -0.0597
vn -0.5240 -0.8180 0.2371
vn 0.0177 -0.8741 0.4855
vn -0.9771 0.0661 -0.2022
vn -0.6411 0.6275 -0.4419
vn 0.0054 -0.8573 0.5147
vn 0.0037 -0.8537 0.5208
vn 0.0040 -0.8556 0.5176
vn -0.4810 -0.1005 0.8710
vn -0.5495 -0.1630 0.8194
vn -0.6014 -0.1322 0.7880
vn -0.1999 -0.8466 0.4932
vn -0.6292 -0.0950 0.7715
vn 0.1784 -0.9620 0.2068
vn 0.0042 -0.8563 0.5165
vn 0.4277 -0.8599 0.2787
vn 0.0054 -0.8573 0.5148
vn 0.0050 -0.8572 0.5149
vn -0.0016 1.0000 -0.0096
vn -0.0985 0.9921 -0.0777
vn 0.2405 0.9553 0.1721
vn -0.2601 0.9487 -0.1797
vn -0.0282 0.9993 0.0249
vn -0.0046 1.0000 -0.0086
vn 0.0006 -0.8551 0.5185
vn -0.0229 -0.7699 0.6378
vn -0.6141 0.0108 0.7892
vn -0.3417 -0.8532 0.3939
vn 0.2577 -0.7961 0.5475
vn 0.6267 -0.5450 0.5570
vn -0.5259 -0.7486 0.4038
vn -0.0140 -0.8567 0.5156
vn -0.6411 0.6275 -0.4418
vn -0.8909 0.3129 -0.3291
vn -0.7294 0.5512 -0.4050
vn -0.2031 0.3941 0.8964
vn -0.2787 0.3095 0.9091
vn -0.1401 0.4208 0.8962
vn -0.3507 0.2615 0.8992
vn -0.4357 0.1440 0.8885
vn -0.4658 0.1234 0.8762
vn -0.5096 0.0461 0.8592
vn -0.5190 0.0567 0.8528
vn -0.5395 0.0053 0.8419
vn -0.5520 0.0036 0.8338
vn -0.5631 -0.0248 0.8260
vn -0.5336 0.0458 0.8445
vn -0.5608 -0.0004 0.8279
vn -0.5720 -0.0298 0.8197
vn -0.5930 -0.0568 0.8032
vn -0.5829 -0.0501 0.8110
vn -0.5976 -0.0699 0.7987
vn -0.6098 -0.0775 0.7888
vn -0.6045 -0.0742 0.7931
vn -0.6136 -0.0863 0.7848
vn -0.6106 -0.0842 0.7874
vn 0.2305 -0.3700 -0.9000
vn 0.2651 -0.3555 -0.8962
vn 0.2562 -0.3413 -0.9044
vn 0.1785 -0.4322 -0.8839
vn 0.2408 -0.3785 -0.8937
vn 0.1264 -0.4659 -0.8757
vn -0.0598 -0.6716 -0.7385
vn -0.1308 -0.6374 -0.7593
vn -0.1719 -0.6620 -0.7295
vn -0.1035 -0.6904 -0.7160
vn 0.1057 -0.4788 -0.8715
vn 0.3579 -0.2348 -0.9037
vn 0.1268 -0.5020 -0.8555
vn 0.4804 -0.0848 -0.8729
vn 0.3732 -0.2467 -0.8943
vn 0.5379 -0.0047 -0.8430
vn 0.4906 -0.0940 -0.8662
vn 0.5712 0.0293 -0.8203
vn 0.5452 -0.0119 -0.8382
vn 0.5778 0.0513 -0.8145
vn 0.5593 0.0294 -0.8284
vn -0.1551 -0.7796 -0.6067
vn -0.0757 -0.6826 -0.7269
vn 0.3483 -0.2951 -0.8897
vn 0.1749 -0.4864 -0.8560
vn 0.4587 -0.1714 -0.8719
vn 0.5305 -0.0613 -0.8454
vn 0.5607 -0.0109 -0.8279
vn 0.5869 0.0563 -0.8077
vn 0.5788 0.0229 -0.8151
vn 0.6048 0.0748 -0.7928
vn 0.5931 0.0509 -0.8035
vn 0.5966 0.0725 -0.7992
vn 0.6104 0.0883 -0.7871
vn 0.4256 -0.2102 -0.8801
vn 0.5170 -0.1009 -0.8500
vn 0.5480 -0.0467 -0.8351
vn 0.5709 -0.0088 -0.8210
vn 0.5865 0.0170 -0.8098
vn 0.5996 0.0459 -0.7989
vn 0.6186 0.0906 -0.7804
vn 0.6105 0.0697 -0.7889
vn 0.6173 0.0970 -0.7807
vn 0.5941 0.0229 -0.8040
vn 0.6055 0.0496 -0.7943
vn 0.6225 0.0854 -0.7779
vn 0.6118 0.0673 -0.7881
vn 0.6296 0.1045 -0.7699
vn 0.6280 0.1096 -0.7704
vn 0.6229 0.1022 -0.7756
vn 0.6118 0.0772 -0.7872
vn 0.6333 0.1044 -0.7668
vn 0.6291 0.0949 -0.7714
vn 0.6275 0.0898 -0.7734
vn 0.6386 0.1174 -0.7605
vn 0.6337 0.1145 -0.7650
vn 0.6400 0.1255 -0.7580
vn 0.6425 0.1199 -0.7568
vn 0.6440 0.1246 -0.7548
vn 0.6463 0.1272 -0.7523
vn 0.6476 0.1316 -0.7505
vn 0.4754 -0.0780 -0.8763
vn -0.4865 0.0636 0.8713
vn -0.1405 0.4271 0.8932
vn -0.2748 0.3036 0.9123
vn 0.2123 -0.3634 -0.9071
vn 0.0940 -0.4657 -0.8799
vn -0.1349 0.4318 0.8918
vn -0.1874 -0.6555 -0.7316
vn -0.5168 0.0159 0.8560
vn -0.2039 0.3805 0.9020
vn -0.1531 0.4141 0.8972
vn -0.4265 0.1385 0.8938
vn -0.6233 -0.0984 0.7757
vn -0.6184 -0.0950 0.7801
vn -0.1325 -0.6243 -0.7698
vn -0.6247 -0.0972 0.7748
vn 0.3507 -0.2248 -0.9091
vn 0.2447 -0.3319 -0.9110
vn 0.5268 -0.0093 -0.8499
vn 0.1103 -0.4523 -0.8850
vn -0.5780 -0.0313 0.8154
s off
f 77/1/1 33/2/1 85/3/1
f 42/4/2 92/5/2 171/6/2
f 62/7/3 61/8/3 137/9/3
f 48/10/4 74/11/4 117/12/4
f 152/13/5 137/14/5 72/15/5
f 63/16/6 152/17/6 73/18/6
f 168/19/7 169/20/7 42/21/7
f 58/22/8 54/23/8 82/24/8
f 72/25/9 73/26/9 152/27/9
f 55/28/10 56/29/10 14/30/10
f 152/31/11 62/32/11 137/33/11
f 89/34/12 68/35/12 60/36/12
f 168/37/13 42/4/13 94/38/13
f 85/3/14 79/39/14 78/40/14
f 78/40/15 80/41/15 85/3/15
f 77/1/16 76/42/16 33/2/16
f 33/2/17 104/43/17 103/44/17
f 103/44/13 102/45/13 42/4/13
f 100/46/18 99/47/18 40/48/18
f 40/48/19 94/38/19 42/4/19
f 99/47/20 96/49/20 40/48/20
f 33/2/21 103/44/21 85/3/21
f 80/41/22 77/1/22 85/3/22
f 42/4/23 100/46/23 40/48/23
f 102/45/24 100/46/24 42/4/24
f 42/4/25 85/3/25 103/44/25
f 42/4/26 169/50/26 92/5/26
f 82/51/27 54/52/27 81/53/27
f 54/52/28 5/54/28 81/53/28
f 75/55/29 5/54/29 53/56/29
f 66/57/4 74/11/4 48/10/4
f 101/58/4 65/59/4 107/60/4
f 97/61/4 98/62/4 126/63/4
f 42/21/4 171/64/4 126/63/4
f 108/65/4 126/63/4 98/62/4
f 107/60/4 108/65/4 98/62/4
f 171/64/4 97/61/4 126/63/4
f 65/59/4 66/57/4 48/10/4
f 81/53/30 5/54/30 75/55/30
f 75/55/4 53/56/4 74/11/4
f 98/62/31 101/58/31 107/60/31
f 46/66/4 107/60/4 65/59/4
f 53/56/4 117/12/4 74/11/4
f 48/10/4 46/66/4 65/59/4
f 85/67/32 42/4/32 47/68/32
f 42/4/33 126/69/33 43/70/33
f 67/71/32 85/67/32 52/72/32
f 47/68/34 9/73/34 50/74/34
f 42/4/32 43/70/32 47/68/32
f 14/30/35 67/71/35 55/28/35
f 85/67/32 47/68/32 50/74/32
f 70/75/36 14/30/36 56/29/36
f 85/67/32 50/74/32 51/76/32
f 63/77/37 73/78/37 1/79/37
f 71/80/32 70/75/32 57/81/32
f 85/67/32 51/76/32 52/72/32
f 1/79/38 73/78/38 57/81/38
f 57/81/39 73/78/39 71/80/39
f 67/71/32 52/72/32 55/28/32
f 56/29/32 57/81/32 70/75/32
f 58/82/12 82/83/12 83/84/12
f 83/84/12 84/85/12 88/86/12
f 86/87/40 87/88/40 84/85/40
f 84/85/12 87/88/12 88/86/12
f 59/89/12 58/82/12 83/84/12
f 137/90/41 61/91/41 68/35/41
f 60/36/12 59/89/12 88/86/12
f 83/84/12 88/86/12 59/89/12
f 68/35/42 61/91/42 60/36/42
f 60/36/12 88/86/12 89/34/12
s 1
f 147/92/43 2/93/44 143/94/45
f 146/95/46 3/96/47 2/97/44
f 144/98/48 4/99/49 3/100/47
f 6/101/50 136/102/51 4/99/49
f 7/103/52 116/104/53 136/102/51
f 144/105/48 115/106/54 6/101/50
f 115/106/54 7/103/52 6/101/50
f 113/107/55 8/108/56 7/103/52
f 8/108/56 140/109/57 49/110/58
f 140/109/57 112/111/59 49/110/58
f 140/112/57 110/113/60 10/114/61
f 110/113/60 44/115/62 109/116/63
f 11/117/64 155/118/65 138/119/66
f 11/120/64 120/121/67 121/122/68
f 11/120/64 12/123/69 120/121/67
f 12/124/69 139/125/70 120/126/67
f 12/124/69 13/127/71 139/125/70
f 13/127/71 15/128/72 139/129/70
f 15/130/72 20/131/73 139/132/70
f 16/133/74 20/134/73 15/135/72
f 17/136/75 21/137/76 16/138/74
f 18/139/77 22/140/78 17/141/75
f 19/142/79 23/143/80 18/144/77
f 19/142/79 25/145/81 24/146/82
f 123/147/83 25/145/81 156/148/84
f 139/132/70 20/131/73 153/149/85
f 20/150/73 160/151/86 153/152/85
f 21/153/76 160/154/86 20/134/73
f 21/137/76 158/155/87 159/156/88
f 21/137/76 22/157/78 158/158/87
f 22/140/78 27/159/89 158/160/87
f 22/140/78 23/161/80 27/159/89
f 23/143/80 28/162/90 27/163/89
f 24/146/82 28/162/90 23/143/80
f 25/145/81 29/164/91 24/146/82
f 26/165/92 30/166/93 25/145/81
f 26/165/92 32/167/94 31/168/95
f 122/169/96 119/170/97 32/167/94
f 158/160/87 27/159/89 157/171/98
f 27/163/89 125/172/99 157/173/98
f 28/162/90 125/172/99 27/163/89
f 29/164/91 124/174/100 28/162/90
f 30/166/93 141/175/101 29/164/91
f 31/168/95 34/176/102 30/166/93
f 32/167/94 35/177/103 31/168/95
f 32/167/94 37/178/104 36/179/105
f 118/180/106 37/178/104 119/170/97
f 141/175/101 34/176/102 134/181/107
f 35/177/103 134/181/107 34/176/102
f 36/179/105 133/182/108 35/177/103
f 36/179/105 38/183/109 132/184/110
f 37/178/104 39/185/111 38/183/109
f 127/186/112 39/185/111 131/187/113
f 38/183/109 130/188/114 132/184/110
f 106/189/115 105/190/116 129/191/117
f 39/185/111 41/192/118 106/189/115
f 128/193/119 95/194/120 41/192/118
f 106/189/115 41/192/118 172/195/121
f 41/192/118 170/196/122 172/197/121
f 172/197/121 170/196/122 93/198/123
f 170/199/122 91/200/124 93/201/123
f 162/202/125 19/142/79 18/144/77
f 145/203/126 3/100/47 4/99/49
f 150/204/127 2/93/44 149/205/128
f 154/206/129 12/123/69 11/120/64
f 109/116/63 112/111/59 10/114/61
f 123/147/83 122/207/96 26/165/92
f 164/208/130 17/136/75 16/138/74
f 151/209/131 143/210/45 150/211/127
f 164/212/130 15/135/72 165/213/132
f 135/214/133 4/99/49 136/102/51
f 151/215/131 64/216/134 142/217/135
f 149/218/128 3/96/47 148/219/136
f 45/220/137 44/115/62 111/221/138
f 165/222/132 13/127/71 166/223/139
f 111/221/138 90/224/140 45/220/137
f 49/225/58 116/104/53 8/108/56
f 163/226/141 18/139/77 17/141/75
f 69/227/142 11/117/64 138/119/66
f 19/142/79 161/228/143 156/229/84
f 167/230/144 13/127/71 12/124/69
f 147/92/43 146/231/46 2/93/44
f 146/95/46 144/232/48 3/96/47
f 144/98/48 6/101/50 4/99/49
f 6/101/50 7/103/52 136/102/51
f 7/103/52 8/108/56 116/104/53
f 115/106/54 113/107/55 7/103/52
f 113/107/55 114/233/145 8/108/56
f 8/108/56 114/234/145 140/109/57
f 140/109/57 10/114/61 112/111/59
f 109/116/63 10/114/61 110/113/60
f 110/113/60 111/235/138 44/115/62
f 11/117/64 121/122/68 155/118/65
f 16/133/74 21/153/76 20/134/73
f 17/136/75 22/157/78 21/137/76
f 18/139/77 23/161/80 22/140/78
f 19/142/79 24/146/82 23/143/80
f 19/142/79 156/229/84 25/145/81
f 123/147/83 26/165/92 25/145/81
f 21/153/76 159/236/88 160/154/86
f 24/146/82 29/164/91 28/162/90
f 25/145/81 30/166/93 29/164/91
f 26/165/92 31/168/95 30/166/93
f 26/165/92 122/207/96 32/167/94
f 28/162/90 124/174/100 125/172/99
f 29/164/91 141/175/101 124/174/100
f 30/166/93 34/176/102 141/175/101
f 31/168/95 35/177/103 34/176/102
f 32/167/94 36/179/105 35/177/103
f 32/167/94 119/170/97 37/178/104
f 118/180/106 131/187/113 37/178/104
f 35/177/103 133/182/108 134/181/107
f 36/179/105 132/237/110 133/182/108
f 36/179/105 37/178/104 38/183/109
f 37/178/104 131/187/113 39/185/111
f 127/186/112 128/238/119 39/185/111
f 38/183/109 129/191/117 130/188/114
f 129/191/117 38/183/109 39/185/111
f 39/185/111 106/189/115 129/191/117
f 39/185/111 128/238/119 41/192/118
f 41/192/118 95/194/120 170/196/122
f 162/202/125 161/239/143 19/142/79
f 145/203/126 148/240/136 3/100/47
f 150/204/127 143/94/45 2/93/44
f 154/206/129 167/241/144 12/123/69
f 164/208/130 163/242/141 17/136/75
f 151/209/131 142/217/135 143/210/45
f 164/212/130 16/133/74 15/135/72
f 135/214/133 145/243/126 4/99/49
f 149/218/128 2/97/44 3/96/47
f 165/222/132 15/128/72 13/127/71
f 163/226/141 162/244/125 18/139/77
f 69/227/142 154/245/129 11/117/64
f 167/230/144 166/223/139 13/127/71
