# Blender v2.79 (sub 0) OBJ File: 'testScene.blend'
# www.blender.org
o TeapotHandle_cell.061_TeapotHandle_cell.060
v -0.607717 -1.279262 0.014203
v -0.608808 -1.274777 0.040009
v -0.600406 -1.293261 0.078279
v -0.608400 -1.273269 0.015859
v -0.610127 -1.286303 0.013087
v -0.617846 -1.267297 0.019239
v -0.621464 -1.271082 0.018378
v -0.611377 -1.267946 0.018021
v -0.619634 -1.290408 0.013575
v -0.623682 -1.281389 0.015803
v -0.624139 -1.275230 0.017480
v -0.605428 -1.292668 0.079501
v -0.612366 -1.296964 0.080787
v -0.606645 -1.300254 0.078750
v -0.624139 -1.275230 0.017480
v -0.623682 -1.281389 0.015803
v -0.607717 -1.279262 0.014203
v -0.608400 -1.273269 0.015859
v -0.619634 -1.290408 0.013575
v -0.605428 -1.292668 0.079501
v -0.600406 -1.293261 0.078279
v -0.610127 -1.286303 0.013087
v -0.611377 -1.267946 0.018021
v -0.621464 -1.271082 0.018378
v -0.617846 -1.267297 0.019239
v -0.606645 -1.300254 0.078750
v -0.612366 -1.296964 0.080787
vt 0.000000 0.000000
vt 0.857641 0.000000
vt 0.628790 0.628790
vt 1.000000 0.458041
vt 0.857641 0.857641
vt 0.554209 0.494715
vt 0.026251 0.000000
vt 1.000000 0.668926
vt 0.659860 0.598843
vt 0.978345 0.000000
vt 0.906754 0.906754
vt 0.764458 0.610408
vt 0.948058 0.948058
vt 0.458041 0.458041
vt 0.735186 0.000000
vt 0.979938 0.000000
vt 1.000000 0.021655
vt 0.869281 0.719012
vt 0.974702 0.974702
vt 0.751045 0.726437
vt 0.979938 0.979938
vt 1.000000 0.732764
vt 1.000000 0.000000
vt 0.662144 0.662144
vt 1.000000 0.655218
vt 0.909614 0.909614
vt 0.267236 0.000000
vt 0.709595 0.000000
vt 1.000000 0.728183
vt 0.971755 0.259945
vt 0.847841 0.124759
vt 1.000000 0.712508
vt 0.468750 0.250000
vt 0.484375 0.234375
vt 0.484375 0.250000
vt 0.453125 0.247150
vt 0.468750 0.234444
vt 0.500000 0.238274
vt 0.500000 0.250000
vt 0.449063 0.245095
vt 0.453125 0.237360
vt 0.000000 0.233474
vt 0.008685 0.226368
vt 0.011811 0.234375
vt 0.004494 0.246734
vt 0.000000 0.234375
vt 0.469098 0.234375
vt 0.453521 0.237274
vn -0.4265 0.8096 0.4033
vn -0.2989 0.8490 0.4358
vn -0.5061 -0.8620 -0.0293
vn 0.7281 -0.6617 -0.1792
vn -0.7149 0.6028 0.3542
vn 0.1934 0.9166 0.3499
vn -0.9832 -0.1122 0.1443
vn 0.9612 -0.2110 -0.1779
vn 0.3783 -0.9012 -0.2115
vn 0.1476 0.9493 0.2777
vn 0.9401 -0.2945 -0.1716
vn -0.8275 0.4657 0.3137
vn 0.9873 0.1354 -0.0831
vn 0.8788 0.4755 0.0397
vn -0.9055 -0.4205 0.0569
vn -0.1313 0.2659 -0.9550
vn -0.1273 0.2279 -0.9653
vn -0.1285 0.2230 -0.9663
vn -0.1344 0.3044 -0.9430
vn -0.1304 0.2737 -0.9529
vn -0.1254 0.1920 -0.9733
vn -0.1290 0.1829 -0.9746
vn -0.1401 0.3449 -0.9281
vn -0.1317 0.3168 -0.9393
vn 0.2479 -0.1347 0.9593
vn 0.2197 -0.1310 0.9667
vn 0.2349 -0.1330 0.9629
vn 0.2618 -0.1366 0.9554
s off
f 2/1/1 27/2/1 20/3/1
f 2/1/2 25/4/2 27/5/2
f 14/6/3 27/7/3 9/8/3
f 5/9/4 21/10/4 14/11/4
f 24/12/5 27/13/5 25/14/5
f 23/15/6 20/16/6 21/17/6
f 10/18/7 27/19/7 11/20/7
f 20/21/8 23/22/8 2/23/8
f 9/24/9 5/25/9 14/26/9
f 2/1/10 23/27/10 25/4/10
f 5/9/11 1/28/11 21/10/11
f 24/12/12 11/29/12 27/13/12
f 21/17/13 1/30/13 4/31/13
f 4/31/14 23/15/14 21/17/14
f 10/18/15 9/32/15 27/19/15
s 1
f 15/33/16 17/34/17 16/35/18
f 7/36/19 18/37/20 15/33/16
f 16/35/18 22/38/21 19/39/22
f 7/36/19 6/40/23 8/41/24
f 26/42/25 3/43/26 12/44/27
f 12/44/27 13/45/28 26/46/25
f 15/33/16 18/47/20 17/34/17
f 7/36/19 8/48/24 18/37/20
f 16/35/18 17/34/17 22/38/21
