# Blender v2.79 (sub 0) OBJ File: 'testScene.blend'
# www.blender.org
o TeapotHandle_cell.009_TeapotHandle_cell.008
v -0.538832 -1.271440 0.014714
v -0.538018 -1.278062 0.013326
v -0.534032 -1.281452 0.072345
v -0.544227 -1.289407 0.071336
v -0.533340 -1.288146 0.071282
v -0.537302 -1.284755 0.012274
v -0.544183 -1.276602 0.059705
v -0.554259 -1.286397 0.031471
v -0.546188 -1.282866 0.072442
v -0.540139 -1.281128 0.072479
v -0.533451 -1.294877 0.069909
v -0.549571 -1.293112 0.070930
v -0.527866 -1.283834 0.013162
v -0.528494 -1.290284 0.012389
v -0.526094 -1.263989 0.017613
v -0.526626 -1.270248 0.015863
v -0.527229 -1.277009 0.014345
v -0.548748 -1.272459 0.014055
v -0.544288 -1.265791 0.016043
v -0.540575 -1.291485 0.011368
v -0.540673 -1.260456 0.017937
v -0.553205 -1.279624 0.012332
v -0.552893 -1.284870 0.011506
v -0.533992 -1.301095 0.068331
v -0.543363 -1.296297 0.069882
v -0.531106 -1.296550 0.011823
v -0.534032 -1.281452 0.072345
v -0.533340 -1.288146 0.071282
v -0.526094 -1.263989 0.017613
v -0.526626 -1.270248 0.015863
v -0.527229 -1.277009 0.014345
v -0.527866 -1.283834 0.013162
v -0.528494 -1.290284 0.012389
v -0.544288 -1.265791 0.016043
v -0.548748 -1.272459 0.014055
v -0.540673 -1.260456 0.017937
v -0.533451 -1.294877 0.069909
v -0.533992 -1.301095 0.068331
v -0.543363 -1.296297 0.069882
v -0.540139 -1.281128 0.072479
v -0.546188 -1.282866 0.072442
v -0.549571 -1.293112 0.070930
v -0.553205 -1.279624 0.012332
v -0.552893 -1.284870 0.011506
v -0.540575 -1.291485 0.011368
v -0.531106 -1.296550 0.011823
vt 0.685893 0.339782
vt 1.000000 0.531716
vt 0.000000 0.000000
vt 0.729102 0.000000
vt 1.000000 0.000000
vt 0.981216 0.981216
vt 0.015126 0.000000
vt 0.494792 0.000000
vt 0.468546 0.468546
vt 0.708759 0.232894
vt 0.857178 0.000000
vt 1.000000 0.380021
vt 0.914626 0.753237
vt 0.826302 0.749003
vt 0.702907 0.534093
vt 1.000000 0.383045
vt 0.756311 0.756311
vt 0.551021 0.551021
vt 0.783110 0.575359
vt 1.000000 1.000000
vt 0.142822 0.000000
vt 0.375257 0.375257
vt 0.586434 0.499901
vt 0.125098 0.000000
vt 1.000000 0.743973
vt 1.000000 0.981216
vt 0.869074 0.646459
vt 0.619246 0.000000
vt 0.743973 0.743973
vt 0.546293 0.531564
vt 0.621424 0.532122
vt 0.790786 0.537550
vt 1.000000 0.756311
vt 1.000000 0.551021
vt 0.879393 0.542277
vt 1.000000 0.666581
vt 1.000000 0.886167
vt 0.484375 0.166932
vt 0.500000 0.156250
vt 0.492622 0.170090
vt 0.484375 0.156250
vt 0.500000 0.144923
vt 0.468750 0.141932
vt 0.484375 0.143425
vt 0.468750 0.156250
vt 0.456377 0.152174
vt 0.000000 0.140625
vt 0.015625 0.125000
vt 0.015625 0.140625
vt 0.486295 0.171875
vt 0.500000 0.171875
vt 0.484375 0.146335
vt 0.484375 0.156250
vt 0.468750 0.147578
vt 0.468750 0.156250
vt 0.453125 0.150770
vt 0.005438 0.125000
vt 0.015625 0.140625
vt 0.016313 0.140625
vt 0.031073 0.128440
vt 0.015625 0.126360
vt 0.015625 0.142460
vt 0.000000 0.150235
vt 0.015959 0.125000
vt 0.018141 0.133634
vt 0.468750 0.160404
vt 0.484375 0.170614
vt 0.008247 0.147954
vt 0.000000 0.125000
vn -0.4660 -0.8797 -0.0945
vn -0.8111 0.5653 0.1504
vn -0.2612 0.9018 0.3443
vn -0.9494 0.2995 0.0950
vn 0.9952 -0.0350 0.0911
vn 0.2295 0.9171 0.3259
vn -0.7118 0.6736 0.1992
vn -0.4670 -0.8792 -0.0942
vn -0.4716 -0.8762 -0.0992
vn -0.4660 -0.8797 -0.0946
vn -0.8416 0.5241 0.1303
vn -0.8547 0.4917 0.1662
vn 0.9224 -0.3860 0.0161
vn 0.9914 -0.1058 0.0770
vn 0.9890 0.0828 0.1223
vn 0.9877 -0.1138 0.1069
vn 0.9906 -0.1071 0.0853
vn 0.9879 -0.1122 0.1073
vn 0.0572 0.9337 0.3533
vn -0.9963 -0.0479 -0.0718
vn 0.0411 0.2242 -0.9737
vn 0.0597 0.1864 -0.9807
vn 0.0462 0.1764 -0.9832
vn 0.0542 0.2417 -0.9688
vn 0.0736 0.1912 -0.9788
vn 0.0598 0.2754 -0.9594
vn 0.0675 0.2414 -0.9680
vn 0.0467 0.2786 -0.9593
vn 0.0522 0.3025 -0.9517
vn 0.0349 -0.1755 0.9838
vn 0.0234 -0.1489 0.9886
vn 0.0278 -0.1526 0.9879
vn 0.0480 0.1472 -0.9879
vn 0.0793 0.1403 -0.9869
vn 0.0648 0.1322 -0.9891
vn 0.0790 0.0875 -0.9930
vn 0.0622 0.0961 -0.9934
vn 0.0784 0.0572 -0.9953
vn 0.0299 -0.2221 0.9745
vn 0.0390 -0.2109 0.9767
vn 0.0330 -0.2485 0.9680
vn 0.0524 -0.1831 0.9817
vn 0.0175 -0.0824 0.9964
vn 0.0253 -0.1764 0.9840
s off
f 20/1/1 26/2/1 8/3/1
f 9/4/2 7/5/2 21/6/2
f 21/7/3 9/8/3 40/9/3
f 18/10/4 42/11/4 9/12/4
f 5/13/5 37/14/5 13/15/5
f 21/16/6 3/17/6 15/18/6
f 22/19/7 8/20/7 42/21/7
f 42/22/8 8/3/8 39/23/8
f 44/24/9 20/1/9 8/3/9
f 26/2/10 38/25/10 8/3/10
f 39/23/10 8/3/10 38/25/10
f 9/12/11 21/26/11 19/27/11
f 19/27/11 18/10/11 9/12/11
f 22/28/12 42/11/12 18/10/12
f 38/29/13 26/30/13 14/31/13
f 14/31/14 37/14/14 38/29/14
f 17/32/15 3/33/15 5/13/15
f 15/34/16 3/33/16 16/35/16
f 5/13/17 13/15/17 17/32/17
f 14/31/14 13/15/14 37/14/14
f 16/35/18 3/33/18 17/32/18
f 21/16/19 40/36/19 3/17/19
f 22/19/20 44/37/20 8/20/20
s 1
f 35/38/21 2/39/22 43/40/23
f 1/41/24 31/42/25 2/39/22
f 1/41/24 29/43/26 30/44/27
f 34/45/28 36/46/29 29/43/26
f 4/47/30 27/48/31 41/49/32
f 2/39/22 23/50/33 43/51/23
f 2/39/22 32/52/34 6/53/35
f 6/53/35 33/54/36 45/55/37
f 45/55/37 33/54/36 46/56/38
f 11/57/39 4/47/30 25/58/40
f 35/38/21 34/45/28 1/41/24
f 25/59/40 24/60/41 11/61/39
f 41/62/32 12/63/42 4/47/30
f 27/64/31 10/65/43 41/49/32
f 45/66/37 23/67/33 6/53/35
f 4/47/30 12/68/42 25/58/40
f 35/38/21 1/41/24 2/39/22
f 1/41/24 30/44/27 31/42/25
f 1/41/24 34/45/28 29/43/26
f 4/47/30 28/69/44 27/48/31
f 2/39/22 6/53/35 23/50/33
f 2/39/22 31/42/25 32/52/34
f 6/53/35 32/52/34 33/54/36
f 11/57/39 28/69/44 4/47/30
