# Blender v2.79 (sub 0) OBJ File: 'testScene.blend'
# www.blender.org
o TeapotHandle_cell.088_TeapotHandle_cell.124
v -0.156811 -1.413113 0.020141
v -0.151989 -1.411085 0.017899
v -0.145021 -1.407626 0.018208
v -0.138729 -1.404220 0.020390
v -0.145220 -1.412308 0.056067
v -0.141695 -1.417048 0.046521
v -0.134506 -1.391690 0.023556
v -0.130487 -1.411009 0.023651
v -0.132294 -1.401371 0.023634
v -0.132006 -1.417503 0.022559
v -0.138475 -1.420558 0.020319
v -0.158080 -1.394528 0.070830
v -0.155373 -1.400396 0.071553
v -0.157770 -1.404808 0.070150
v -0.143300 -1.394310 0.019170
v -0.164728 -1.398241 0.067891
v -0.149583 -1.397737 0.016990
v -0.143561 -1.422746 0.019723
v -0.150322 -1.422561 0.020813
v -0.165888 -1.403243 0.067510
v -0.171609 -1.401844 0.066588
v -0.156532 -1.401236 0.016686
v -0.161331 -1.403313 0.018935
v -0.161372 -1.418088 0.024873
v -0.156227 -1.420019 0.023483
v -0.167229 -1.405653 0.023233
v -0.174493 -1.414251 0.024733
v -0.172851 -1.408330 0.024103
v -0.169474 -1.415650 0.025004
v -0.181171 -1.412464 0.024140
v -0.169474 -1.415650 0.025004
v -0.174493 -1.414251 0.024733
v -0.158080 -1.394528 0.070830
v -0.155373 -1.400396 0.071553
v -0.161372 -1.418088 0.024873
v -0.134506 -1.391690 0.023556
v -0.143300 -1.394310 0.019170
v -0.132294 -1.401371 0.023634
v -0.130487 -1.411009 0.023651
v -0.132006 -1.417503 0.022559
v -0.138475 -1.420558 0.020319
v -0.164728 -1.398241 0.067891
v -0.157770 -1.404808 0.070150
v -0.165888 -1.403243 0.067510
v -0.149583 -1.397737 0.016990
v -0.156532 -1.401236 0.016686
v -0.143561 -1.422746 0.019723
v -0.150322 -1.422561 0.020813
v -0.171609 -1.401844 0.066588
v -0.161331 -1.403313 0.018935
v -0.156227 -1.420019 0.023483
v -0.167229 -1.405653 0.023233
v -0.172851 -1.408330 0.024103
vt 0.000000 0.000000
vt 0.409822 0.000000
vt 0.408037 0.408037
vt 1.000000 0.000000
vt 0.409822 0.409822
vt 0.335192 0.120880
vt 0.339998 0.243998
vt 0.000000 0.000000
vt 0.401853 0.071432
vt 1.000000 0.000000
vt 0.173349 0.173349
vt 1.000000 0.408037
vt 0.594090 0.000000
vt 0.448995 0.000000
vt 1.000000 1.000000
vt 0.368271 0.087734
vt 0.310745 0.310745
vt 0.527601 0.179972
vt 0.815414 0.050780
vt 0.915287 0.120090
vt 0.247697 0.000000
vt 0.768942 0.190062
vt 0.915344 0.460464
vt 0.334290 0.334290
vt 0.316730 0.019656
vt 0.589057 0.589057
vt 0.560262 0.000000
vt 0.975549 0.416927
vt 1.000000 0.173349
vt 0.992875 0.584907
vt 0.849673 0.496042
vt 0.743501 0.422362
vt 0.573816 0.247814
vt 0.640084 0.334822
vt 0.330225 0.000000
vt 0.400159 0.060288
vt 0.451372 0.105962
vt 1.000000 0.606871
vt 1.000000 1.000000
vt 0.977681 0.570206
vt 0.327018 0.160087
vt 0.421546 0.378586
vt 0.684656 0.028858
vt 1.718750 0.418750
vt 1.718750 0.400000
vt 1.709786 0.418750
vt 1.718750 0.387500
vt 1.704530 0.387500
vt 1.706961 0.400000
vt 1.718750 0.350000
vt 1.718750 0.337500
vt 1.696197 0.350000
vt 1.718750 0.325000
vt 1.693853 0.325000
vt 1.694229 0.337500
vt 1.718750 0.300000
vt 1.693426 0.312500
vt 1.718750 0.312500
vt 1.718750 0.275000
vt 1.692381 0.287500
vt 1.718750 0.287500
vt 1.718750 0.262500
vt 1.717472 0.255390
vt 1.700451 0.262500
vt 1.737503 0.350000
vt 1.738152 0.287500
vt 1.737298 0.400000
vt 1.737335 0.387500
vt 1.737817 0.312500
vt 1.735079 0.250000
vt 1.738626 0.262500
vt 1.736709 0.493750
vt 1.736886 0.475000
vt 1.723179 0.475000
vt 1.738265 0.287500
vt 1.738081 0.300000
vt 1.726205 0.287500
vt 1.738483 0.275000
vt 1.726239 0.262500
vt 1.738742 0.262500
vt 1.721024 0.275000
vt 1.737157 0.437500
vt 1.718750 0.456250
vt 1.737037 0.456250
vt 1.691744 0.275000
vt 1.692938 0.300000
vt 1.737587 0.337500
vt 1.738369 0.275000
vt 1.737969 0.300000
vt 1.718750 0.254928
vt 1.718750 0.265138
vt 1.718750 0.437500
vn 0.8802 -0.2714 0.3892
vn 0.9245 -0.0680 0.3751
vn 0.3729 -0.9125 0.1681
vn 0.8702 0.4308 0.2391
vn 0.8948 0.1686 0.4134
vn -0.0622 -0.9029 0.4254
vn -0.2665 -0.9202 0.2867
vn -0.4421 0.8886 -0.1227
vn -0.2713 -0.9175 0.2907
vn 0.3728 -0.9125 0.1681
vn 0.0067 -0.9782 0.2075
vn 0.8596 0.2532 0.4438
vn 0.4994 -0.4970 0.7097
vn 0.8834 0.2052 0.4213
vn -0.2534 0.9649 -0.0684
vn -0.4420 0.8886 -0.1227
vn -0.4420 0.8886 -0.1228
vn 0.2713 0.9175 -0.2907
vn -0.9639 0.2660 -0.0124
vn -0.2676 -0.9197 0.2874
vn -0.2714 -0.9175 0.2907
vn -0.3409 -0.3278 -0.8811
vn -0.3948 -0.3210 -0.8609
vn -0.4611 -0.4177 -0.7828
vn -0.2772 -0.3069 -0.9105
vn -0.1152 -0.1859 -0.9758
vn 0.0318 -0.1502 -0.9881
vn 0.2067 -0.0347 -0.9778
vn 0.3689 0.0486 -0.9282
vn 0.2426 -0.0355 -0.9695
vn 0.4189 0.0833 -0.9042
vn 0.4118 0.0632 -0.9091
vn -0.3950 -0.2895 -0.8719
vn 0.2035 -0.0266 -0.9787
vn -0.2835 -0.2492 -0.9260
vn -0.1150 -0.1734 -0.9781
vn 0.4215 0.0860 -0.9027
vn 0.3672 0.0551 -0.9285
vn 0.0225 -0.1119 -0.9934
vn -0.0472 -0.1434 -0.9885
vn -0.0431 -0.1464 -0.9883
vn -0.2982 -0.0375 0.9538
vn -0.1677 -0.0362 0.9852
vn -0.2378 -0.0188 0.9711
vn -0.3783 -0.0747 0.9226
vn -0.3757 -0.0594 0.9248
vn -0.3606 -0.0620 0.9306
vn 0.3522 0.0255 -0.9355
s off
f 5/1/1 10/2/1 8/3/1
f 5/1/2 6/4/2 10/5/2
f 18/6/3 11/7/3 6/8/3
f 34/9/4 5/10/4 33/11/4
f 8/12/5 38/13/5 5/10/5
f 43/14/6 6/4/6 5/15/6
f 6/8/7 25/16/7 48/17/7
f 26/18/8 49/19/8 16/20/8
f 49/21/9 27/22/9 29/23/9
f 10/24/10 6/8/10 11/7/10
f 48/25/11 18/6/11 6/8/11
f 7/26/12 33/11/12 5/10/12
f 34/9/13 43/27/13 5/10/13
f 5/10/14 38/28/14 7/26/14
f 33/29/15 7/30/15 15/31/15
f 15/31/16 17/32/16 23/33/16
f 22/34/17 23/33/17 17/32/17
f 15/31/16 23/33/16 26/18/16
f 16/20/16 33/29/16 15/31/16
f 30/35/18 49/19/18 27/36/18
f 27/36/19 49/19/19 28/37/19
f 16/20/16 15/31/16 26/18/16
f 28/37/16 49/19/16 26/18/16
f 25/38/20 6/39/20 24/40/20
f 20/41/21 49/21/21 29/23/21
f 6/39/9 43/42/9 20/41/9
f 24/40/9 6/39/9 29/23/9
f 49/21/9 30/43/9 27/22/9
f 29/23/9 6/39/9 20/41/9
s 1
f 35/44/22 1/45/23 51/46/24
f 1/47/23 19/48/25 51/49/24
f 1/50/23 2/51/26 19/52/25
f 2/53/26 47/54/27 19/55/25
f 3/56/28 47/57/27 2/58/26
f 4/59/29 41/60/30 3/61/28
f 4/62/29 9/63/31 39/64/32
f 50/65/33 2/51/26 1/50/23
f 45/66/34 4/59/29 3/61/28
f 52/67/35 50/68/33 1/45/23
f 46/69/36 3/56/28 2/58/26
f 36/70/37 4/62/29 37/71/38
f 32/72/39 53/73/40 31/74/41
f 42/75/42 21/76/43 44/77/44
f 42/78/42 13/79/45 12/80/46
f 42/75/42 44/77/44 14/81/47
f 52/67/35 1/45/23 35/44/22
f 52/82/35 31/83/41 53/84/40
f 4/62/29 39/64/32 40/85/48
f 3/56/28 41/86/30 47/57/27
f 4/59/29 40/85/48 41/60/30
f 50/65/33 46/87/36 2/51/26
f 45/66/34 37/88/38 4/59/29
f 46/69/36 45/89/34 3/56/28
f 36/70/37 9/90/31 4/62/29
f 42/78/42 14/91/47 13/79/45
f 52/82/35 35/92/22 31/83/41
