# Blender v2.79 (sub 0) OBJ File: 'testScene.blend'
# www.blender.org
o TeapotHandle_cell.072_TeapotHandle_cell.108
v -0.554160 -1.266807 0.015395
v -0.569054 -1.262701 0.016775
v -0.554999 -1.261177 0.017269
v -0.569834 -1.257558 0.018887
v -0.555850 -1.256036 0.019351
v -0.570603 -1.252898 0.021191
v -0.556709 -1.251380 0.021619
v -0.567199 -1.273061 0.074461
v -0.566706 -1.279028 0.074210
v -0.556198 -1.277684 0.073461
v -0.555624 -1.284018 0.072808
v -0.544845 -1.271656 0.049561
v -0.555238 -1.287428 0.039970
v -0.548332 -1.283128 0.072525
v -0.554793 -1.291640 0.071561
v -0.576634 -1.268668 0.075243
v -0.577307 -1.274412 0.075497
v -0.575327 -1.281324 0.075015
v -0.565813 -1.287978 0.073162
v -0.561164 -1.291167 0.072266
v -0.572020 -1.245406 0.026010
v -0.581897 -1.247168 0.025631
v -0.580311 -1.242793 0.028992
v -0.546236 -1.265992 0.015914
v -0.551387 -1.274376 0.013525
v -0.547668 -1.255189 0.019861
v -0.542423 -1.259880 0.018077
v -0.555201 -1.280311 0.012182
v -0.563985 -1.274081 0.013351
v -0.564806 -1.247998 0.023849
v -0.578274 -1.258523 0.018863
v -0.576072 -1.265702 0.016002
v -0.571656 -1.268718 0.014857
v -0.579710 -1.253944 0.021189
v -0.542423 -1.259880 0.018077
v -0.546236 -1.265992 0.015914
v -0.579710 -1.253944 0.021189
v -0.578274 -1.258523 0.018863
v -0.576072 -1.265702 0.016002
v -0.571656 -1.268718 0.014857
v -0.561164 -1.291167 0.072266
v -0.554793 -1.291640 0.071561
v -0.563985 -1.274081 0.013351
v -0.548332 -1.283128 0.072525
v -0.556198 -1.277684 0.073461
v -0.567199 -1.273061 0.074461
v -0.577307 -1.274412 0.075497
v -0.576634 -1.268668 0.075243
v -0.575327 -1.281324 0.075015
v -0.565813 -1.287978 0.073162
v -0.572020 -1.245406 0.026010
v -0.564806 -1.247998 0.023849
v -0.581897 -1.247168 0.025631
v -0.580311 -1.242793 0.028992
v -0.551387 -1.274376 0.013525
v -0.555201 -1.280311 0.012182
v -0.556709 -1.251380 0.021619
v -0.547668 -1.255189 0.019861
vt 0.000000 0.000000
vt 1.000000 0.646582
vt 0.409866 0.409866
vt 0.000000 0.000000
vt 0.445752 0.137334
vt 0.387339 0.387339
vt 1.000000 0.521389
vt 1.000000 1.000000
vt 0.939056 0.845496
vt 1.000000 0.846133
vt 0.523998 0.215788
vt 0.804758 0.590335
vt 0.808987 0.660679
vt 0.971193 0.871568
vt 0.646582 0.646582
vt 0.834010 0.367607
vt 1.000000 0.000000
vt 0.880218 0.652000
vt 1.000000 0.638853
vt 0.876125 0.876125
vt 0.872915 0.704699
vt 0.320639 0.000000
vt 1.000000 0.647491
vt 0.647491 0.647491
vt 0.805644 0.111629
vt 0.824478 0.824478
vt 0.688242 0.000000
vt 0.802492 0.802492
vt 0.637537 0.637537
vt 0.162339 0.000000
vt 0.500629 0.079132
vt 0.509491 0.509491
vt 0.357748 0.307533
vt 0.127641 0.000000
vt 0.361147 0.000000
vt 1.000000 0.852468
vt 0.864208 0.864208
vt 1.000000 0.679361
vt 0.843262 0.747390
vt 0.826902 0.000000
vt 0.681806 0.681806
vt 0.801816 0.662398
vt 0.982911 0.873154
vt 0.126567 0.000000
vt 0.637537 0.000000
vt 0.875930 0.000000
vt 0.484375 0.171875
vt 0.468750 0.171875
vt 0.468750 0.163319
vt 0.453125 0.187500
vt 0.468750 0.187500
vt 0.453125 0.171875
vt 0.437500 0.171875
vt 0.437500 0.187500
vt 0.421875 0.171875
vt 0.421875 0.171531
vt 0.437500 0.162961
vt 0.406250 0.187500
vt 0.406250 0.180074
vt 0.392289 0.187500
vt 0.046875 0.171875
vt 0.031250 0.171875
vt 0.033377 0.156983
vt 0.015625 0.156250
vt 0.031250 0.156250
vt 0.024012 0.148312
vt 0.000000 0.164559
vt 0.009515 0.171875
vt 0.000000 0.152963
vt 0.015625 0.145594
vt 0.028476 0.185151
vt 0.015625 0.171875
vt 0.494664 0.178284
vt 0.484375 0.183641
vt 0.406250 0.198739
vt 0.437500 0.197180
vt 0.421875 0.187500
vt 0.468750 0.191351
vt 0.453125 0.196244
vt 0.476433 0.187500
vt 0.385471 0.197983
vt 0.375673 0.196405
vt 0.390625 0.188434
vt 0.046875 0.187161
vt 0.453125 0.158245
vt 0.062500 0.185471
vt 0.049688 0.171875
vt 0.000000 0.156250
vt 0.390625 0.198640
vt 0.421875 0.198010
vt 0.031250 0.185463
vn 0.1925 0.8659 0.4618
vn -0.0876 -0.9876 -0.1304
vn 0.8541 -0.5138 -0.0805
vn 0.8472 -0.5149 -0.1307
vn -0.5874 -0.7841 -0.2002
vn 0.4208 0.8106 0.4072
vn 0.8608 -0.4949 -0.1189
vn -0.9607 -0.2710 -0.0596
vn 0.4155 0.8071 0.4194
vn 0.4114 0.8086 0.4206
vn -0.9607 0.2026 0.1897
vn 0.6906 0.6583 0.2994
vn 0.7940 -0.5834 -0.1709
vn -0.5801 -0.7901 -0.1980
vn -0.5843 -0.7860 -0.2021
vn 0.5540 0.7325 0.3956
vn 0.4449 0.8004 0.4017
vn -0.9607 -0.2709 -0.0596
vn 0.3833 0.8204 0.4244
vn 0.4070 0.8106 0.4211
vn -0.9801 0.1217 0.1567
vn 0.0240 0.2359 -0.9714
vn 0.0188 0.2850 -0.9583
vn 0.0310 0.2992 -0.9537
vn -0.0205 0.3435 -0.9389
vn -0.0143 0.3014 -0.9534
vn 0.0099 0.3467 -0.9379
vn 0.0008 0.4071 -0.9133
vn -0.0294 0.4073 -0.9128
vn -0.0112 0.4494 -0.8932
vn 0.0183 0.3889 -0.9211
vn -0.0446 0.4828 -0.8746
vn -0.0413 0.5136 -0.8570
vn -0.0657 0.5505 -0.8322
vn 0.0942 -0.0222 0.9953
vn 0.0947 -0.0683 0.9931
vn 0.0720 -0.0852 0.9937
vn 0.0702 -0.1236 0.9898
vn 0.0540 -0.1281 0.9903
vn 0.0933 -0.1469 0.9847
vn 0.0927 -0.1185 0.9886
vn 0.0834 -0.1520 0.9848
vn 0.1092 -0.0622 0.9921
vn 0.0184 0.2094 -0.9776
vn 0.0077 0.2536 -0.9673
vn -0.0567 0.4917 -0.8689
vn -0.0478 0.4057 -0.9127
vn -0.0416 0.3393 -0.9397
vn -0.0711 0.5741 -0.8157
vn -0.0819 0.6256 -0.7758
vn 0.1012 -0.0035 0.9948
vn 0.0245 0.3463 -0.9378
vn 0.0975 0.0326 0.9947
s off
f 12/1/1 26/2/1 14/3/1
f 13/4/2 15/5/2 41/6/2
f 12/1/3 15/7/3 13/8/3
f 13/8/4 56/9/4 55/10/4
f 40/11/5 29/12/5 13/8/5
f 7/13/6 10/14/6 26/15/6
f 24/16/7 12/17/7 13/8/7
f 31/18/8 39/19/8 17/20/8
f 8/21/9 30/22/9 21/23/9
f 21/24/10 48/25/10 8/26/10
f 53/27/11 48/28/11 54/29/11
f 12/1/12 27/30/12 26/2/12
f 12/1/13 14/31/13 15/7/13
f 13/8/14 41/32/14 19/33/14
f 19/33/5 49/34/5 13/8/5
f 39/35/5 40/11/5 13/8/5
f 29/12/15 56/36/15 13/8/15
f 13/8/5 49/34/5 39/35/5
f 14/37/16 26/15/16 10/14/16
f 7/13/17 30/38/17 10/14/17
f 13/8/7 55/39/7 24/16/7
f 24/16/7 27/40/7 12/17/7
f 17/20/8 53/41/8 34/42/8
f 34/42/18 31/18/18 17/20/18
f 39/19/18 49/43/18 17/20/18
f 8/21/19 10/44/19 30/22/19
f 21/24/20 54/45/20 48/25/20
f 53/27/21 17/46/21 48/28/21
s 1
f 25/47/22 1/48/23 36/49/24
f 2/50/25 1/48/23 33/51/26
f 3/52/27 36/49/24 1/48/23
f 2/50/25 5/53/28 3/52/27
f 4/54/29 57/55/30 5/53/28
f 5/53/28 57/56/30 58/57/31
f 6/58/32 52/59/33 57/55/30
f 6/58/32 51/60/34 52/59/33
f 46/61/35 9/62/36 45/63/37
f 9/62/36 11/64/38 45/65/37
f 45/65/37 11/64/38 44/66/39
f 20/67/40 11/64/38 50/68/41
f 11/64/38 42/69/42 44/70/39
f 18/71/43 50/72/41 9/62/36
f 28/73/44 43/74/45 25/47/22
f 37/75/46 51/60/34 6/58/32
f 38/76/47 6/77/32 4/54/29
f 33/78/26 32/79/48 2/50/25
f 38/76/47 2/50/25 32/79/48
f 43/80/45 1/48/23 25/47/22
f 22/81/49 23/82/50 51/83/34
f 47/84/51 9/62/36 46/61/35
f 3/52/27 58/57/31 35/85/52
f 16/86/53 47/84/51 46/87/35
f 2/50/25 3/52/27 1/48/23
f 3/52/27 35/85/52 36/49/24
f 2/50/25 4/54/29 5/53/28
f 4/54/29 6/77/32 57/55/30
f 9/62/36 50/72/41 11/64/38
f 20/67/40 42/88/42 11/64/38
f 37/75/46 22/89/49 51/60/34
f 38/76/47 37/90/46 6/77/32
f 38/76/47 4/54/29 2/50/25
f 43/80/45 33/51/26 1/48/23
f 47/84/51 18/91/43 9/62/36
f 3/52/27 5/53/28 58/57/31
