# Blender v2.79 (sub 0) OBJ File: 'testScene.blend'
# www.blender.org
o TeapotHandle_cell.020_TeapotHandle_cell.019
v -0.580669 -1.288756 0.075080
v -0.579359 -1.293960 0.074153
v -0.584525 -1.294687 0.074883
v -0.585423 -1.277386 0.013044
v -0.581578 -1.282777 0.011746
v -0.587044 -1.283429 0.011878
v -0.580657 -1.289449 0.010703
v -0.585942 -1.290080 0.010833
v -0.577900 -1.304594 0.071634
v -0.583124 -1.303184 0.072902
v -0.581484 -1.309785 0.070794
v -0.579783 -1.295755 0.010087
v -0.584896 -1.296366 0.010217
v -0.583908 -1.302284 0.010006
v -0.578580 -1.304377 0.009953
v -0.582258 -1.309717 0.010359
v -0.587044 -1.283429 0.011878
v -0.585942 -1.290080 0.010833
v -0.581578 -1.282777 0.011746
v -0.580657 -1.289449 0.010703
v -0.584896 -1.296366 0.010217
v -0.579783 -1.295755 0.010087
v -0.583908 -1.302284 0.010006
v -0.583908 -1.302284 0.010006
v -0.583908 -1.302284 0.010006
v -0.580669 -1.288756 0.075080
v -0.579359 -1.293960 0.074153
v -0.584525 -1.294687 0.074883
v -0.585423 -1.277386 0.013044
v -0.577900 -1.304594 0.071634
v -0.583124 -1.303184 0.072902
v -0.581484 -1.309785 0.070794
v -0.582258 -1.309717 0.010359
v -0.578580 -1.304377 0.009953
vt 0.233380 0.000000
vt 1.000000 0.560526
vt 1.000000 0.780124
vt 0.613802 0.000000
vt 0.846206 0.000000
vt 0.792010 0.792010
vt 0.902843 0.569026
vt 0.954560 0.790134
vt 0.795338 0.564661
vt 1.000000 0.390470
vt 0.610884 0.000000
vt 1.000000 0.157259
vt 0.867590 0.598982
vt 0.958426 0.597286
vt 0.970779 0.836105
vt 0.687542 0.479639
vt 0.166207 0.000000
vt 1.000000 0.555225
vt 0.846206 0.846206
vt 0.609530 0.000000
vt 0.842741 0.000000
vt 0.447207 0.000000
vt 0.780124 0.780124
vt 0.560526 0.560526
vt 0.602007 0.560506
vt 0.695066 0.561849
vt 1.000000 0.574117
vt 0.843872 0.843872
vt 0.669535 0.607205
vt 0.771268 0.602258
vt 1.000000 0.597169
vt 0.015625 0.200967
vt 0.000000 0.193370
vt 0.000000 0.201444
vt 0.490888 0.210985
vt 0.485918 0.204546
vt 0.500000 0.204411
vt 0.445507 0.209300
vt 0.453125 0.203714
vt 0.445577 0.203570
vt 0.020542 0.200850
vt 0.031250 0.196057
vt 0.015625 0.193180
vt 0.453125 0.209517
vt 0.468750 0.209950
vt 0.468750 0.203980
vt 0.484375 0.204213
vt 0.484375 0.210369
vt 0.006603 0.193486
vt 0.012386 0.194494
vt 0.500000 0.210773
vn 0.8238 -0.5668 -0.0111
vn 0.9682 0.2487 -0.0286
vn 0.9903 0.1383 -0.0104
vn -0.9665 0.2433 0.0821
vn -0.9862 -0.1650 0.0099
vn -0.9695 -0.2448 0.0121
vn -0.8298 0.5342 0.1615
vn 0.8231 -0.5677 -0.0112
vn 0.3656 0.9308 -0.0008
vn 0.8416 -0.5305 -0.1019
vn 0.8202 0.5675 0.0725
vn -0.9763 -0.2164 0.0091
vn 0.1697 -0.2230 0.9599
vn 0.1634 -0.1690 0.9720
vn 0.1617 -0.1751 0.9712
vn -0.0443 0.1719 -0.9841
vn -0.0477 0.2016 -0.9783
vn -0.0441 0.1699 -0.9844
vn -0.0314 -0.0543 -0.9980
vn 0.1595 -0.2641 0.9512
vn 0.1686 -0.2357 0.9571
vn -0.0290 0.0307 -0.9991
vn -0.0326 0.0623 -0.9975
vn -0.0337 0.0698 -0.9970
vn -0.0388 0.1199 -0.9920
vn -0.0386 0.1210 -0.9919
vn 0.1570 -0.1346 0.9784
s off
f 32/1/1 34/2/1 30/3/1
f 4/4/2 26/5/2 2/6/2
f 19/7/3 2/8/3 20/9/3
f 4/10/4 6/11/4 3/12/4
f 13/13/5 25/14/5 10/15/5
f 32/16/6 10/17/6 33/18/6
f 26/19/7 4/20/7 3/21/7
f 32/1/8 33/22/8 34/2/8
f 30/23/9 34/24/9 14/25/9
f 14/25/10 12/26/10 30/23/10
f 20/9/3 2/8/3 30/23/3
f 4/27/11 2/8/11 19/7/11
f 30/23/3 12/26/3 20/9/3
f 3/28/5 6/29/5 8/30/5
f 8/30/5 13/13/5 10/15/5
f 25/14/12 33/31/12 10/15/12
f 10/15/5 3/28/5 8/30/5
s 1
f 31/32/13 27/33/14 28/34/15
f 17/35/16 29/36/17 5/37/18
f 16/38/19 24/39/19 15/40/19
f 31/41/13 11/42/20 9/43/21
f 23/44/22 21/45/23 22/46/24
f 21/45/23 7/47/25 22/46/24
f 18/48/26 5/37/18 7/47/25
f 27/49/14 1/50/27 28/34/15
f 31/32/13 9/43/21 27/33/14
f 21/45/23 18/48/26 7/47/25
f 18/48/26 17/51/16 5/37/18
