# Blender v2.79 (sub 0) OBJ File: 'testScene.blend'
# www.blender.org
o TeapotHandle_cell.121_TeapotHandle_cell.157
v -0.597881 -1.251854 0.024155
v -0.611017 -1.249754 0.027766
v -0.598862 -1.244892 0.029710
v -0.586012 -1.243317 0.029170
v -0.611658 -1.243713 0.033653
v -0.599663 -1.239789 0.035708
v -0.587092 -1.238226 0.035064
v -0.612080 -1.239511 0.039901
v -0.600280 -1.236509 0.041961
v -0.588018 -1.234961 0.041199
v -0.612290 -1.237114 0.046317
v -0.600707 -1.235018 0.048277
v -0.588777 -1.233485 0.047391
v -0.612292 -1.236487 0.052708
v -0.600941 -1.235281 0.054468
v -0.589354 -1.233764 0.053454
v -0.612095 -1.237596 0.058881
v -0.600978 -1.237262 0.060345
v -0.589734 -1.235760 0.059201
v -0.611702 -1.240405 0.064642
v -0.600813 -1.240925 0.065716
v -0.589901 -1.239439 0.064448
v -0.611122 -1.244881 0.069798
v -0.610360 -1.250988 0.074157
v -0.600179 -1.249498 0.072414
v -0.589720 -1.248033 0.070975
v -0.609422 -1.258691 0.077525
v -0.599491 -1.257214 0.075695
v -0.589291 -1.255761 0.074159
v -0.608314 -1.267956 0.079709
v -0.598587 -1.266490 0.077809
v -0.588596 -1.265046 0.076194
v -0.578350 -1.263629 0.074882
v -0.598052 -1.271702 0.078368
v -0.588144 -1.270262 0.076722
v -0.597462 -1.277290 0.078565
v -0.596815 -1.283251 0.078375
v -0.607937 -1.274516 0.042912
v -0.609317 -1.279109 0.081056
v -0.619900 -1.249115 0.073903
v -0.621444 -1.243925 0.069151
v -0.617701 -1.255840 0.077629
v -0.614843 -1.264059 0.080112
v -0.578567 -1.268929 0.075454
v -0.613166 -1.268718 0.080822
v -0.583438 -1.275667 0.076314
v -0.611324 -1.273736 0.081144
v -0.587318 -1.278877 0.076788
v -0.591561 -1.282481 0.077468
v -0.604598 -1.290878 0.079540
v -0.598864 -1.288496 0.078449
v -0.606663 -1.286081 0.080332
v -0.578754 -1.255999 0.073355
v -0.579266 -1.250311 0.071560
v -0.622338 -1.240311 0.063592
v -0.580246 -1.240628 0.065953
v -0.580786 -1.236224 0.061210
v -0.581224 -1.233496 0.055862
v -0.622584 -1.238314 0.057447
v -0.622184 -1.237973 0.050932
v -0.581551 -1.232475 0.050086
v -0.581755 -1.233192 0.044062
v -0.581826 -1.235682 0.037973
v -0.581755 -1.239975 0.032005
v -0.585306 -1.247237 0.025882
v -0.591784 -1.251115 0.023944
v -0.600448 -1.256439 0.021805
v -0.621142 -1.239328 0.044263
v -0.619459 -1.242419 0.037647
v -0.617134 -1.247281 0.031288
v -0.614173 -1.253951 0.025384
v -0.612454 -1.257976 0.022663
v -0.610413 -1.262867 0.019937
v -0.600448 -1.256439 0.021805
v -0.597881 -1.251854 0.024155
v -0.609317 -1.279109 0.081056
v -0.606663 -1.286081 0.080332
v -0.585306 -1.247237 0.025882
v -0.586012 -1.243317 0.029170
v -0.611324 -1.273736 0.081144
v -0.613166 -1.268718 0.080822
v -0.614843 -1.264059 0.080112
v -0.587318 -1.278877 0.076788
v -0.583438 -1.275667 0.076314
v -0.591561 -1.282481 0.077468
v -0.591784 -1.251115 0.023944
v -0.614173 -1.253951 0.025384
v -0.612454 -1.257976 0.022663
v -0.596815 -1.283251 0.078375
v -0.610413 -1.262867 0.019937
v -0.578754 -1.255999 0.073355
v -0.578350 -1.263629 0.074882
v -0.617701 -1.255840 0.077629
v -0.619900 -1.249115 0.073903
v -0.621444 -1.243925 0.069151
v -0.578567 -1.268929 0.075454
v -0.598864 -1.288496 0.078449
v -0.604598 -1.290878 0.079540
v -0.579266 -1.250311 0.071560
v -0.580246 -1.240628 0.065953
v -0.622338 -1.240311 0.063592
v -0.622584 -1.238314 0.057447
v -0.580786 -1.236224 0.061210
v -0.581224 -1.233496 0.055862
v -0.622184 -1.237973 0.050932
v -0.581551 -1.232475 0.050086
v -0.581755 -1.233192 0.044062
v -0.581826 -1.235682 0.037973
v -0.581755 -1.239975 0.032005
v -0.621142 -1.239328 0.044263
v -0.619459 -1.242419 0.037647
v -0.617134 -1.247281 0.031288
vt 0.931997 0.254459
vt 1.000000 0.126123
vt 1.000000 0.322112
vt 1.000000 0.000000
vt 0.968578 0.229405
vt 0.969079 0.223099
vt 0.000000 0.000000
vt 0.206430 0.033203
vt 0.048339 0.048339
vt 0.472099 0.276778
vt 0.322112 0.322112
vt 0.617912 0.617912
vt 1.000000 0.625449
vt 0.782468 0.782468
vt 0.493755 0.493755
vt 1.000000 0.232427
vt 1.000000 1.000000
vt 0.486994 0.486994
vt 1.000000 0.493755
vt 0.909582 0.700973
vt 0.132829 0.000000
vt 1.000000 0.617912
vt 0.802389 0.769101
vt 0.625449 0.625449
vt 0.657613 0.641778
vt 0.677450 0.000000
vt 0.987386 0.209083
vt 0.240029 0.191994
vt 0.410309 0.139237
vt 0.622193 0.076185
vt 0.743550 0.040925
vt 0.886540 0.000000
vt 0.967345 0.057140
vt 0.820545 0.096216
vt 0.685844 0.131566
vt 0.563172 0.163238
vt 0.353620 0.215750
vt 0.993499 0.241314
vt 0.985464 0.239488
vt 0.974000 0.234945
vt 0.975387 0.216250
vt 0.126123 0.126123
vt 0.290520 0.069025
vt 0.470982 0.005557
vt 0.486994 0.000000
vt 0.967778 0.123697
vt 0.780975 0.780975
vt 0.785809 0.780251
vt 0.694951 0.662981
vt 0.802251 0.757024
vt 0.728059 0.684233
vt 0.756130 0.704890
vt 0.778369 0.724319
vt 0.793996 0.741899
vt 0.797127 0.775208
vt 0.140625 0.234375
vt 0.125000 0.246833
vt 0.125000 0.234375
vt 0.406250 0.234375
vt 0.421875 0.222555
vt 0.421875 0.234375
vt 0.390625 0.234375
vt 0.406250 0.218750
vt 0.390625 0.218750
vt 0.393487 0.203125
vt 0.406250 0.211470
vt 0.375000 0.234375
vt 0.375000 0.218750
vt 0.390625 0.203125
vt 0.359375 0.234375
vt 0.343750 0.234375
vt 0.343750 0.218750
vt 0.359375 0.218750
vt 0.343750 0.203125
vt 0.359375 0.203125
vt 0.359375 0.197363
vt 0.328125 0.234375
vt 0.328125 0.203125
vt 0.328125 0.196081
vt 0.343750 0.196731
vt 0.312500 0.234375
vt 0.312500 0.218750
vt 0.328125 0.218750
vt 0.312500 0.203125
vt 0.296875 0.234375
vt 0.296875 0.203125
vt 0.296875 0.194740
vt 0.312500 0.195416
vt 0.281250 0.234375
vt 0.281250 0.218750
vt 0.296875 0.218750
vt 0.281250 0.203125
vt 0.265625 0.234375
vt 0.265625 0.203125
vt 0.265625 0.193365
vt 0.281250 0.194055
vt 0.250000 0.234375
vt 0.250000 0.218750
vt 0.265625 0.218750
vt 0.250000 0.203125
vt 0.234375 0.234375
vt 0.234375 0.203125
vt 0.234375 0.191994
vt 0.250000 0.192677
vt 0.218750 0.234375
vt 0.218750 0.218750
vt 0.234375 0.218750
vt 0.218750 0.203125
vt 0.203125 0.234375
vt 0.203125 0.203125
vt 0.203125 0.190672
vt 0.218750 0.191324
vt 0.187500 0.234375
vt 0.187500 0.218750
vt 0.203125 0.218750
vt 0.187500 0.203125
vt 0.171875 0.234375
vt 0.171875 0.203125
vt 0.171875 0.189453
vt 0.187500 0.190045
vt 0.156250 0.234375
vt 0.156250 0.218750
vt 0.171875 0.218750
vt 0.156250 0.203125
vt 0.140625 0.203125
vt 0.140625 0.188405
vt 0.156250 0.188903
vt 0.125000 0.218750
vt 0.140625 0.218750
vt 0.125000 0.203125
vt 0.109375 0.203125
vt 0.109375 0.187605
vt 0.125000 0.187969
vt 0.109375 0.234375
vt 0.093750 0.218750
vt 0.109375 0.218750
vt 0.093750 0.203125
vt 0.093750 0.187500
vt 0.078125 0.234375
vt 0.062500 0.218750
vt 0.078125 0.218750
vt 0.062500 0.203125
vt 0.078125 0.203125
vt 0.068086 0.187500
vt 0.078125 0.187500
vt 0.046875 0.234375
vt 0.062500 0.234375
vt 0.046875 0.218750
vt 0.053164 0.190674
vt 0.062500 0.188396
vt 0.031250 0.234375
vt 0.031250 0.210365
vt 0.046875 0.203125
vt 0.023277 0.218750
vt 0.031250 0.218750
vt 0.265625 0.248662
vt 0.359375 0.243101
vt 0.343750 0.244311
vt 0.328125 0.245413
vt 0.312500 0.246405
vt 0.390625 0.240379
vt 0.375000 0.241790
vt 0.171875 0.249165
vt 0.437483 0.234375
vt 0.250000 0.249150
vt 0.203125 0.249687
vt 0.187500 0.249522
vt 0.156250 0.248606
vt 0.234375 0.249490
vt 0.218750 0.249673
vt 0.109375 0.245598
vt 0.296875 0.247282
vt 0.093750 0.244120
vt 0.078125 0.242394
vt 0.093750 0.234375
vt 0.281250 0.248037
vt 0.375000 0.203125
vt 0.016904 0.226577
vt 0.140625 0.247832
vn 0.0936 -0.8957 -0.4348
vn -0.9345 -0.3477 -0.0756
vn -0.9202 -0.3818 -0.0867
vn 0.8862 -0.4568 -0.0767
vn 0.9768 0.2102 -0.0408
vn 0.2815 -0.8663 -0.4127
vn 0.8683 -0.3443 -0.3571
vn 0.7364 -0.5774 -0.3527
vn 0.6895 -0.6889 -0.2234
vn 0.5552 -0.7156 -0.4239
vn -0.9345 -0.3478 -0.0753
vn -0.9345 -0.3479 -0.0757
vn -0.9345 -0.3478 -0.0757
vn -0.9346 -0.3475 -0.0759
vn -0.9346 -0.3477 -0.0757
vn -0.9345 -0.3478 -0.0755
vn -0.9346 -0.3476 -0.0758
vn -0.9345 -0.3478 -0.0754
vn 0.6015 -0.6506 -0.4636
vn 0.5455 -0.7223 -0.4250
vn 0.0947 -0.9593 -0.2659
vn 0.9797 -0.0608 -0.1912
vn 0.9962 0.0761 -0.0428
vn 0.9962 0.0760 -0.0428
vn 0.9878 0.0414 -0.1504
vn 0.9875 0.0211 -0.1562
vn 0.0942 0.5004 0.8606
vn 0.1151 0.4215 0.8995
vn 0.1431 0.3289 0.9334
vn -0.1527 0.5539 -0.8184
vn -0.1275 0.4979 -0.8578
vn -0.1242 0.4879 -0.8640
vn -0.1557 0.6188 -0.7700
vn -0.1204 0.5787 -0.8066
vn -0.1102 0.6152 -0.7806
vn -0.0973 0.5702 -0.8157
vn -0.1259 0.6813 -0.7211
vn -0.1622 0.7509 -0.6402
vn -0.1378 0.8131 -0.5655
vn -0.1217 0.8085 -0.5757
vn -0.1195 0.6958 -0.7082
vn -0.1091 0.7689 -0.6300
vn -0.1659 0.8736 -0.4575
vn -0.1047 0.8721 -0.4780
vn -0.1424 0.9231 -0.3571
vn -0.1357 0.9199 -0.3677
vn -0.1573 0.9613 -0.2261
vn -0.1113 0.9635 -0.2435
vn -0.1328 0.9859 -0.1013
vn -0.1364 0.9846 -0.1091
vn -0.1315 0.9905 0.0404
vn -0.1055 0.9938 0.0334
vn -0.1054 0.9782 0.1787
vn -0.1195 0.9770 0.1768
vn -0.0879 0.9460 0.3118
vn -0.0837 0.9440 0.3191
vn -0.0617 0.8936 0.4446
vn -0.0851 0.8894 0.4490
vn -0.0313 0.8332 0.5521
vn -0.0478 0.8197 0.5707
vn 0.0003 0.7319 0.6814
vn -0.0394 0.7235 0.6892
vn 0.0390 0.6729 0.7387
vn -0.0038 0.6332 0.7740
vn 0.0669 0.5067 0.8595
vn 0.0309 0.4980 0.8666
vn 0.0610 0.4067 0.9115
vn 0.1115 0.3163 0.9421
vn 0.0809 0.3004 0.9503
vn 0.0793 0.2510 0.9647
vn 0.1468 0.1782 0.9730
vn 0.1176 0.1668 0.9789
vn 0.0981 0.1609 0.9821
vn 0.1806 0.1896 0.9651
vn 0.1686 0.0896 0.9816
vn 0.1370 0.0717 0.9880
vn 0.1175 0.0827 0.9896
vn 0.2018 0.0228 0.9791
vn 0.1931 0.1049 0.9755
vn 0.1838 0.0193 0.9828
vn 0.1159 0.0259 0.9929
vn 0.2094 -0.0417 0.9769
vn 0.1708 -0.0140 0.9852
vn 0.1531 0.0118 0.9881
vn 0.2138 -0.0694 0.9744
vn 0.1918 -0.0241 0.9811
vn -0.1623 0.9840 -0.0731
vn -0.1785 0.6894 -0.7020
vn -0.1888 0.8218 -0.5375
vn -0.1842 0.9276 -0.3249
vn -0.0052 0.7592 0.6508
vn -0.1203 0.4445 -0.8876
vn -0.1222 0.9734 0.1938
vn -0.0675 0.8934 0.4440
vn 0.0573 0.5944 0.8021
vn 0.1737 0.2673 0.9478
vn 0.1932 0.1789 0.9647
vn 0.2139 -0.0688 0.9744
s off
f 86/1/1 46/2/1 1/3/1
f 38/4/2 55/5/2 59/6/2
f 38/7/3 98/8/3 77/9/3
f 38/4/4 67/10/4 1/11/4
f 65/12/5 4/13/5 44/14/5
f 97/15/6 98/16/6 38/17/6
f 37/18/7 97/19/7 38/17/7
f 44/20/8 46/21/8 65/22/8
f 54/23/9 4/24/9 64/25/9
f 86/1/10 65/26/10 46/2/10
f 68/27/11 69/28/11 38/4/11
f 70/29/12 71/30/12 38/4/12
f 88/31/13 90/32/13 38/4/13
f 38/4/13 77/33/13 76/34/13
f 76/34/13 47/35/13 38/4/13
f 45/36/12 43/37/12 38/4/12
f 42/38/14 40/39/14 38/4/14
f 41/40/15 55/5/15 38/4/15
f 59/6/16 60/41/16 38/4/16
f 69/28/13 70/29/13 38/4/13
f 88/31/13 38/4/13 71/30/13
f 47/35/12 45/36/12 38/4/12
f 40/39/17 41/40/17 38/4/17
f 60/41/18 68/27/18 38/4/18
f 38/4/13 43/37/13 42/38/13
f 1/11/19 46/42/19 38/4/19
f 48/43/20 49/44/20 38/4/20
f 37/45/21 38/4/21 49/44/21
f 90/46/20 67/10/20 38/4/20
f 46/42/20 48/43/20 38/4/20
f 44/47/22 4/24/22 33/48/22
f 64/25/23 63/49/23 56/50/23
f 62/51/24 61/52/24 58/53/24
f 58/53/23 57/54/23 62/51/23
f 56/50/23 54/23/23 64/25/23
f 53/55/25 4/24/25 54/23/25
f 4/24/26 53/55/26 33/48/26
f 62/51/24 57/54/24 56/50/24
f 56/50/23 63/49/23 62/51/23
s 1
f 24/56/27 93/57/28 27/58/29
f 87/59/30 74/60/31 72/61/32
f 87/59/30 2/62/33 75/63/34
f 75/64/34 78/65/35 66/66/36
f 2/67/33 3/68/37 75/64/34
f 3/68/37 78/69/35 75/64/34
f 2/67/33 5/70/38 3/68/37
f 5/71/38 6/72/39 3/73/37
f 3/73/37 7/74/40 79/75/41
f 79/75/41 7/74/40 109/76/42
f 5/71/38 8/77/43 6/72/39
f 7/78/40 108/79/44 109/80/42
f 8/81/43 9/82/45 6/83/39
f 6/83/39 10/84/46 7/78/40
f 7/78/40 10/84/46 108/79/44
f 8/81/43 11/85/47 9/82/45
f 10/86/46 107/87/48 108/88/44
f 11/89/47 12/90/49 9/91/45
f 9/91/45 13/92/50 10/86/46
f 10/86/46 13/92/50 107/87/48
f 11/89/47 14/93/51 12/90/49
f 13/94/50 106/95/52 107/96/48
f 14/97/51 15/98/53 12/99/49
f 12/99/49 16/100/54 13/94/50
f 13/94/50 16/100/54 106/95/52
f 14/97/51 17/101/55 15/98/53
f 16/102/54 104/103/56 106/104/52
f 17/105/55 18/106/57 15/107/53
f 15/107/53 19/108/58 16/102/54
f 16/102/54 19/108/58 104/103/56
f 17/105/55 20/109/59 18/106/57
f 19/110/58 103/111/60 104/112/56
f 20/113/59 21/114/61 18/115/57
f 18/115/57 22/116/62 19/110/58
f 19/110/58 22/116/62 103/111/60
f 20/113/59 23/117/63 21/114/61
f 22/118/62 100/119/64 103/120/60
f 23/121/63 25/122/65 21/123/61
f 21/123/61 26/124/66 22/118/62
f 22/118/62 26/124/66 100/119/64
f 23/121/63 24/56/27 25/122/65
f 26/125/66 99/126/67 100/127/64
f 24/56/27 28/128/68 25/129/65
f 25/129/65 29/130/69 26/125/66
f 26/125/66 29/130/69 99/126/67
f 29/131/69 91/132/70 99/133/67
f 27/134/29 31/135/71 28/136/68
f 28/136/68 32/137/72 29/131/69
f 29/131/69 92/138/73 91/132/70
f 30/139/74 34/140/75 31/141/71
f 31/141/71 35/142/76 32/143/72
f 32/143/72 96/144/77 92/145/73
f 39/146/78 34/140/75 80/147/79
f 36/148/80 35/142/76 34/140/75
f 35/142/76 84/149/81 96/150/77
f 52/151/82 36/148/80 39/146/78
f 36/148/80 85/152/83 83/153/84
f 52/151/82 51/154/85 89/155/86
f 105/156/87 14/93/51 11/89/47
f 112/157/88 111/158/89 5/70/38
f 111/159/89 110/160/90 8/77/43
f 87/161/30 112/162/88 2/62/33
f 95/163/91 23/117/63 20/113/59
f 74/60/31 73/164/92 72/61/32
f 105/156/87 102/165/93 14/93/51
f 101/166/94 20/109/59 17/105/55
f 101/166/94 95/167/91 20/109/59
f 94/168/95 24/56/27 23/121/63
f 102/169/93 101/170/94 17/101/55
f 93/57/28 82/171/96 27/58/29
f 110/172/90 11/85/47 8/81/43
f 112/157/88 5/70/38 2/67/33
f 82/173/96 81/174/97 30/175/74
f 5/71/38 111/159/89 8/77/43
f 82/173/96 30/175/74 27/134/29
f 81/174/97 80/147/79 30/139/74
f 102/169/93 17/101/55 14/97/51
f 95/163/91 94/168/95 23/117/63
f 110/172/90 105/176/87 11/85/47
f 87/59/30 75/63/34 74/60/31
f 3/68/37 79/177/41 78/69/35
f 3/73/37 6/72/39 7/74/40
f 6/83/39 9/82/45 10/84/46
f 9/91/45 12/90/49 13/92/50
f 12/99/49 15/98/53 16/100/54
f 15/107/53 18/106/57 19/108/58
f 18/115/57 21/114/61 22/116/62
f 21/123/61 25/122/65 26/124/66
f 24/56/27 27/58/29 28/128/68
f 25/129/65 28/128/68 29/130/69
f 27/134/29 30/175/74 31/135/71
f 28/136/68 31/135/71 32/137/72
f 29/131/69 32/137/72 92/138/73
f 30/139/74 80/147/79 34/140/75
f 31/141/71 34/140/75 35/142/76
f 32/143/72 35/142/76 96/144/77
f 39/146/78 36/148/80 34/140/75
f 36/148/80 83/153/84 35/142/76
f 35/142/76 83/153/84 84/149/81
f 52/151/82 89/155/86 36/148/80
f 36/148/80 89/155/86 85/152/83
f 52/151/82 50/178/98 51/154/85
f 94/168/95 93/179/28 24/56/27
