# Blender v2.79 (sub 0) OBJ File: 'testScene.blend'
# www.blender.org
o TeapotHandle_cell.104_TeapotHandle_cell.140
v -0.195942 -1.224038 0.089224
v -0.190198 -1.224579 0.092314
v -0.183821 -1.225242 0.095994
v -0.176771 -1.226035 0.100301
v -0.196354 -1.208092 0.093449
v -0.190602 -1.208948 0.096456
v -0.184216 -1.209969 0.100041
v -0.177156 -1.211166 0.104240
v -0.185083 -1.210631 0.037666
v -0.179608 -1.211084 0.040364
v -0.173501 -1.211659 0.043649
v -0.166722 -1.212364 0.047561
v -0.159228 -1.213207 0.052139
v -0.150977 -1.214196 0.057423
v -0.185529 -1.193387 0.042234
v -0.180046 -1.194133 0.044855
v -0.173931 -1.195043 0.048052
v -0.167142 -1.196128 0.051863
v -0.159637 -1.197400 0.056327
v -0.151373 -1.198870 0.061484
v -0.201874 -1.196212 0.073550
v -0.203110 -1.201079 0.087130
v -0.204227 -1.201522 0.074098
v -0.206077 -1.207432 0.075195
v -0.204191 -1.215768 0.066515
v -0.201172 -1.222476 0.055726
v -0.198383 -1.231860 0.076667
v -0.190536 -1.203894 0.097970
v -0.196286 -1.202898 0.095005
v -0.170330 -1.212380 0.108499
v -0.184151 -1.205074 0.101507
v -0.171941 -1.220421 0.105143
v -0.176683 -1.234101 0.098163
v -0.183152 -1.235647 0.093593
v -0.192001 -1.237800 0.087769
v -0.201655 -1.202046 0.092486
v -0.204378 -1.207044 0.089762
v -0.205019 -1.212827 0.087867
v -0.202560 -1.223510 0.086040
v -0.200392 -1.229499 0.085493
v -0.196742 -1.236250 0.085590
v -0.142245 -1.195618 0.068849
v -0.151305 -1.193697 0.063034
v -0.142635 -1.204067 0.066148
v -0.146255 -1.217175 0.059912
v -0.150456 -1.222304 0.055552
v -0.173856 -1.189315 0.049768
v -0.167069 -1.190546 0.053535
v -0.159566 -1.192011 0.057942
v -0.165856 -1.225850 0.044448
v -0.158522 -1.224194 0.049603
v -0.191767 -1.188079 0.041006
v -0.185451 -1.187474 0.044006
v -0.179969 -1.188306 0.046601
v -0.184564 -1.221721 0.035017
v -0.178713 -1.225011 0.037150
v -0.174022 -1.227729 0.039066
v -0.193427 -1.194614 0.038466
v -0.193503 -1.201869 0.036440
v -0.193439 -1.216733 0.032503
v -0.193547 -1.210719 0.034000
v -0.184151 -1.205074 0.101507
v -0.190536 -1.203894 0.097970
v -0.196286 -1.202898 0.095005
v -0.171941 -1.220421 0.105143
v -0.170330 -1.212380 0.108499
v -0.176683 -1.234101 0.098163
v -0.183152 -1.235647 0.093593
v -0.151305 -1.193697 0.063034
v -0.142245 -1.195618 0.068849
v -0.159566 -1.192011 0.057942
v -0.167069 -1.190546 0.053535
v -0.165856 -1.225850 0.044448
v -0.158522 -1.224194 0.049603
v -0.185451 -1.187474 0.044006
v -0.179969 -1.188306 0.046601
v -0.173856 -1.189315 0.049768
v -0.178713 -1.225011 0.037150
v -0.174022 -1.227729 0.039066
v -0.193427 -1.194614 0.038466
v -0.193503 -1.201869 0.036440
v -0.193547 -1.210719 0.034000
v -0.193439 -1.216733 0.032503
v -0.177156 -1.211166 0.104240
v -0.176771 -1.226035 0.100301
v -0.200392 -1.229499 0.085493
v -0.202560 -1.223510 0.086040
v -0.201655 -1.202046 0.092486
v -0.192001 -1.237800 0.087769
v -0.196742 -1.236250 0.085590
v -0.203110 -1.201079 0.087130
v -0.204378 -1.207044 0.089762
v -0.205019 -1.212827 0.087867
v -0.142635 -1.204067 0.066148
v -0.146255 -1.217175 0.059912
v -0.150456 -1.222304 0.055552
v -0.191767 -1.188079 0.041006
v -0.184564 -1.221721 0.035017
vt 0.000000 0.000000
vt 1.000000 0.259972
vt 0.186806 0.186806
vt 0.000000 0.000000
vt 1.000000 0.000000
vt 0.593993 0.593993
vt 1.000000 0.618692
vt 1.000000 1.000000
vt 0.540499 0.362182
vt 0.358413 0.298660
vt 0.000000 0.000000
vt 0.336661 0.000000
vt 1.000000 1.000000
vt 1.000000 0.000000
vt 1.000000 1.000000
vt 0.000000 0.000000
vt 1.000000 0.319062
vt 0.254868 0.254868
vt 0.000000 0.000000
vt 0.299491 0.000000
vt 0.319062 0.319062
vt 0.000000 0.000000
vt 1.000000 1.000000
vt 0.067846 0.000000
vt 1.000000 0.768643
vt 1.000000 0.000000
vt 0.652669 0.129945
vt 0.000000 0.000000
vt 0.634133 0.514564
vt 1.000000 0.000000
vt 0.445952 0.445952
vt 0.168215 0.000000
vt 1.000000 0.206474
vt 0.529665 0.529665
vt 0.260800 0.260800
vt 0.546932 0.134870
vt 1.000000 0.391354
vt 0.495409 0.495409
vt 0.041134 0.000000
vt 0.417422 0.191689
vt 0.037129 0.037129
vt 0.756704 0.200162
vt 1.000000 0.041872
vt 0.991732 0.437669
vt 0.781485 0.074134
vt 0.701412 0.000000
vt 1.000000 0.000000
vt 0.529184 0.263965
vt 0.797523 0.509734
vt 0.518939 0.518939
vt 0.247829 0.247829
vt 0.525034 0.088196
vt 0.502915 0.502915
vt 0.681016 0.000000
vt 0.697132 0.697132
vt 1.000000 0.000000
vt 0.336661 0.336661
vt 0.154225 0.000000
vt 0.265794 0.265794
vt 0.236101 0.001809
vt 0.354042 0.045525
vt 0.488645 0.094252
vt 0.969706 0.508767
vt 0.743867 0.432100
vt 0.812313 0.208080
vt 1.000000 0.272606
vt 0.641031 0.148326
vt 1.000000 0.700509
vt 1.000000 0.167405
vt 0.709081 0.000000
vt 0.751141 0.341963
vt 1.000000 0.495409
vt 0.206474 0.206474
vt 1.000000 0.037129
vt 0.391354 0.391354
vt 0.436096 0.035516
vt 0.560073 0.000000
vt 0.954500 0.226856
vt 0.861697 0.145850
vt 1.000000 0.247829
vt 0.260800 0.000000
vt 1.937500 0.250000
vt 1.906250 0.237500
vt 1.906250 0.250000
vt 1.937500 0.237500
vt 1.906250 0.225000
vt 1.937500 0.225000
vt 1.906250 0.212500
vt 1.937500 0.212500
vt 1.906250 0.200000
vt 1.924184 0.191962
vt 1.937500 0.194913
vt 1.895814 0.250000
vt 1.895875 0.237500
vt 1.895950 0.225000
vt 1.896152 0.200000
vt 1.896041 0.212500
vt 1.906250 0.262500
vt 1.937500 0.250000
vt 1.937500 0.262500
vt 1.906250 0.237500
vt 1.937500 0.237500
vt 1.906250 0.225000
vt 1.937500 0.225000
vt 1.906250 0.212500
vt 1.937500 0.212500
vt 1.906250 0.200000
vt 1.937500 0.200000
vt 1.906250 0.187500
vt 1.937500 0.187500
vt 1.895353 0.262500
vt 1.906250 0.250000
vt 1.895329 0.250000
vt 1.895303 0.237500
vt 1.895257 0.219647
vt 1.895301 0.212500
vt 1.895391 0.200000
vt 1.895632 0.175000
vt 1.906250 0.175000
vt 1.958844 0.200000
vt 1.948606 0.249213
vt 1.958419 0.212500
vt 1.962211 0.225000
vt 1.964587 0.234361
vt 1.952688 0.262500
vt 1.957262 0.250498
vt 1.895812 0.250579
vt 1.896973 0.254108
vt 1.952294 0.200000
vt 1.942396 0.181191
vt 1.953744 0.187500
vt 1.962727 0.237500
vt 1.967319 0.228198
vt 1.957443 0.250000
vt 1.937500 0.272782
vt 1.922916 0.272060
vt 1.963006 0.212500
vt 1.913828 0.175577
vt 1.937500 0.180093
vt 1.906250 0.257782
vt 1.917445 0.259936
vt 1.937500 0.200000
vt 1.906250 0.189024
vt 1.895272 0.225000
vt 1.895500 0.187500
vt 1.963028 0.237500
vt 1.966537 0.225000
vn -0.9749 -0.2221 -0.0132
vn -0.6341 -0.7337 -0.2443
vn -0.8899 -0.4487 -0.0825
vn 0.0137 0.9556 0.2943
vn -0.9509 0.0923 -0.2953
vn -0.9481 0.3100 0.0707
vn -0.9514 0.0582 -0.3024
vn -0.9507 0.0868 -0.2977
vn -0.9099 0.4098 0.0640
vn -0.4243 0.8640 0.2711
vn -0.9622 0.2511 0.1056
vn -0.9404 -0.3356 -0.0545
vn -0.3839 -0.8588 -0.3392
vn 0.8045 -0.1439 0.5763
vn 0.2878 -0.9537 -0.0872
vn -0.1454 -0.9278 -0.3437
vn -0.3650 -0.8678 -0.3372
vn -0.1805 0.9660 0.1854
vn 0.8374 -0.2011 0.5082
vn 0.8006 -0.4230 0.4243
vn -0.9255 0.3162 -0.2084
vn -0.9390 0.2502 -0.2361
vn -0.9763 -0.2164 -0.0043
vn -0.8769 -0.4752 -0.0725
vn 0.0118 0.9566 0.2913
vn -0.0398 0.9287 0.3687
vn -0.0556 0.9332 0.3551
vn 0.4079 0.7202 0.5612
vn -0.9909 0.0726 0.1137
vn -0.3856 -0.8576 -0.3405
vn 0.6623 -0.7197 0.2083
vn 0.2888 -0.9535 -0.0862
vn 0.2889 -0.9534 -0.0865
vn 0.2814 -0.9550 -0.0936
vn 0.2562 -0.9653 -0.0517
vn -0.3651 -0.8678 -0.3372
vn 0.0089 0.9576 0.2881
vn 0.8127 -0.3555 0.4617
vn 0.5930 -0.7540 0.2827
vn -0.9033 0.3796 -0.2002
vn -0.4342 -0.2401 0.8682
vn -0.4561 -0.2431 0.8561
vn -0.5932 -0.1125 0.7971
vn -0.4580 -0.2342 0.8575
vn -0.4906 -0.2396 0.8378
vn -0.4910 -0.2297 0.8403
vn -0.5149 -0.2359 0.8241
vn -0.5151 -0.2280 0.8262
vn -0.5336 -0.2305 0.8137
vn -0.5443 -0.2279 0.8073
vn -0.5296 -0.2271 0.8172
vn -0.6742 -0.0410 0.7374
vn -0.4606 -0.2492 0.8519
vn -0.4908 -0.2441 0.8364
vn -0.5128 -0.2402 0.8242
vn 0.3855 0.2460 -0.8893
vn 0.4146 0.2361 -0.8788
vn 0.3842 0.2363 -0.8925
vn 0.4611 0.2437 -0.8532
vn 0.4612 0.2328 -0.8562
vn 0.4906 0.2395 -0.8378
vn 0.4909 0.2301 -0.8403
vn 0.5149 0.2359 -0.8241
vn 0.5151 0.2280 -0.8262
vn 0.5351 0.2326 -0.8121
vn 0.5352 0.2258 -0.8140
vn 0.5520 0.2297 -0.8015
vn 0.5523 0.2239 -0.8029
vn 0.3890 0.2521 -0.8860
vn 0.4165 0.2482 -0.8746
vn 0.4216 0.2551 -0.8701
vn 0.4614 0.2490 -0.8515
vn 0.4909 0.2441 -0.8363
vn 0.5151 0.2398 -0.8229
vn 0.5352 0.2360 -0.8111
vn 0.5604 0.2293 -0.7958
vn 0.5604 0.2267 -0.7966
vn 0.5340 0.2225 -0.8157
vn -0.4423 -0.2315 0.8664
vn -0.5111 -0.2224 0.8302
vn -0.4817 -0.2230 0.8475
vn -0.4608 -0.2253 0.8584
vn 0.3840 0.2305 -0.8940
vn 0.4230 0.2295 -0.8766
vn -0.8966 0.3238 0.3019
vn -0.5263 -0.2232 0.8205
vn 0.5607 0.2223 -0.7976
vn 0.5491 0.2213 -0.8059
vn 0.4660 0.2273 -0.8551
vn 0.4891 0.2246 -0.8428
vn 0.5244 0.2242 -0.8214
vn 0.5119 0.2232 -0.8295
vn -0.4049 -0.2439 0.8812
vn 0.5520 0.2326 -0.8007
s off
f 24/1/1 87/2/1 93/3/1
f 27/4/2 26/5/2 90/6/2
f 27/4/3 86/7/3 26/8/3
f 49/9/4 48/10/4 21/11/4
f 80/12/5 25/13/5 24/1/5
f 24/1/6 91/14/6 23/15/6
f 26/16/7 82/17/7 83/18/7
f 25/19/8 81/20/8 82/21/8
f 23/22/9 91/14/9 21/23/9
f 91/24/10 88/25/10 21/23/10
f 24/26/11 37/27/11 91/28/11
f 86/29/12 25/30/12 26/8/12
f 26/5/13 55/31/13 90/32/13
f 67/33/14 95/34/14 4/35/14
f 34/36/15 51/37/15 46/38/15
f 90/39/16 50/40/16 35/41/16
f 56/42/17 90/43/17 55/44/17
f 53/45/18 97/46/18 21/47/18
f 30/48/19 94/49/19 42/50/19
f 32/51/20 95/52/20 94/53/20
f 80/54/21 21/23/21 97/55/21
f 24/1/22 23/56/22 80/57/22
f 24/1/23 25/30/23 87/2/23
f 27/4/24 90/58/24 86/7/24
f 47/59/25 21/11/25 48/10/25
f 21/11/4 88/60/4 29/61/4
f 49/9/4 21/11/4 28/62/4
f 42/63/26 43/64/26 8/65/26
f 8/65/27 30/66/27 42/63/27
f 31/67/28 8/65/28 43/64/28
f 43/64/4 49/9/4 31/67/4
f 21/11/4 29/61/4 28/62/4
f 28/62/4 31/67/4 49/9/4
f 80/12/5 81/68/5 25/13/5
f 26/16/7 25/30/7 82/17/7
f 24/26/29 93/69/29 37/27/29
f 86/29/12 87/70/12 25/30/12
f 26/5/30 83/71/30 55/31/30
f 67/33/31 46/72/31 95/34/31
f 46/38/32 67/73/32 34/36/32
f 34/36/33 35/74/33 51/37/33
f 51/75/34 35/41/34 50/40/34
f 90/39/35 79/76/35 50/40/35
f 56/42/36 79/77/36 90/43/36
f 21/47/37 47/78/37 54/79/37
f 54/79/37 53/45/37 21/47/37
f 30/48/38 32/80/38 94/49/38
f 32/51/39 4/81/39 95/52/39
f 80/54/40 23/56/40 21/23/40
s 1
f 39/82/41 5/83/42 92/84/43
f 1/85/44 6/86/45 5/83/42
f 2/87/46 7/88/47 6/86/45
f 3/89/48 84/90/49 7/88/47
f 65/91/50 84/90/49 85/92/51
f 5/83/42 36/93/52 92/84/43
f 6/86/45 64/94/53 5/83/42
f 7/88/47 63/95/54 6/86/45
f 7/88/47 84/96/49 62/97/55
f 58/98/56 9/99/57 61/100/58
f 9/99/57 16/101/59 10/102/60
f 10/102/60 17/103/61 11/104/62
f 11/104/62 18/105/63 12/106/64
f 12/106/64 19/107/65 13/108/66
f 13/108/66 20/109/67 14/110/68
f 52/111/69 15/112/70 58/98/56
f 75/113/71 16/101/59 15/112/70
f 76/114/72 17/103/61 16/101/59
f 77/115/73 18/105/63 17/103/61
f 72/116/74 19/107/65 18/105/63
f 71/117/75 20/109/67 19/107/65
f 20/109/67 70/118/76 44/119/77
f 74/120/78 12/106/64 13/108/66
f 40/121/79 1/85/44 39/82/41
f 68/122/80 2/87/46 89/123/81
f 89/123/81 1/85/44 41/124/82
f 60/125/83 9/99/57 98/126/84
f 36/127/52 22/128/85 92/84/43
f 33/129/86 3/89/48 68/122/80
f 45/130/87 96/131/88 14/110/68
f 78/132/89 11/104/62 57/133/90
f 98/134/84 10/102/60 78/132/89
f 96/131/88 13/108/66 14/110/68
f 61/135/58 59/136/91 58/98/56
f 73/137/92 11/104/62 12/106/64
f 14/110/68 44/138/77 45/139/87
f 92/140/43 38/141/93 39/82/41
f 39/82/41 1/85/44 5/83/42
f 1/85/44 2/87/46 6/86/45
f 2/87/46 3/89/48 7/88/47
f 3/89/48 85/142/51 84/90/49
f 65/91/50 66/143/50 84/90/49
f 5/83/42 64/94/53 36/93/52
f 6/86/45 63/95/54 64/94/53
f 7/88/47 62/97/55 63/95/54
f 58/98/56 15/112/70 9/99/57
f 9/99/57 15/112/70 16/101/59
f 10/102/60 16/101/59 17/103/61
f 11/104/62 17/103/61 18/105/63
f 12/106/64 18/105/63 19/107/65
f 13/108/66 19/107/65 20/109/67
f 52/111/69 75/113/71 15/112/70
f 75/113/71 76/114/72 16/101/59
f 76/114/72 77/144/73 17/103/61
f 77/115/73 72/116/74 18/105/63
f 72/116/74 71/117/75 19/107/65
f 71/117/75 69/145/94 20/109/67
f 20/109/67 69/145/94 70/118/76
f 74/120/78 73/137/92 12/106/64
f 40/121/79 41/146/82 1/85/44
f 68/122/80 3/89/48 2/87/46
f 89/123/81 2/87/46 1/85/44
f 60/125/83 61/100/58 9/99/57
f 33/129/86 85/142/51 3/89/48
f 78/132/89 10/102/60 11/104/62
f 98/134/84 9/99/57 10/102/60
f 96/131/88 74/120/78 13/108/66
f 73/137/92 57/147/90 11/104/62
f 14/110/68 20/109/67 44/138/77
