# Blender v2.79 (sub 0) OBJ File: 'testScene.blend'
# www.blender.org
o TeapotHandle_cell.004_TeapotHandle_cell.003
v -0.134044 -1.415484 0.079905
v -0.129339 -1.412307 0.083198
v -0.124144 -1.408746 0.087107
v -0.118428 -1.404776 0.091671
v -0.112160 -1.400375 0.096929
v -0.105310 -1.395516 0.102920
v -0.103605 -1.407191 0.038302
v -0.097529 -1.402971 0.043153
v -0.090866 -1.398292 0.048743
v -0.083584 -1.393127 0.055112
v -0.075652 -1.387452 0.062302
v -0.135105 -1.424602 0.064398
v -0.139685 -1.416266 0.058826
v -0.136513 -1.420100 0.050066
v -0.071025 -1.386710 0.066053
v -0.070112 -1.382101 0.067783
v -0.100310 -1.391939 0.107452
v -0.073122 -1.395703 0.062482
v -0.101505 -1.397773 0.105324
v -0.102910 -1.403596 0.103084
v -0.108500 -1.406949 0.098316
v -0.079878 -1.399785 0.056517
v -0.087492 -1.404352 0.050022
v -0.115050 -1.410844 0.092951
v -0.094455 -1.408493 0.044319
v -0.100866 -1.412112 0.039340
v -0.101675 -1.400976 0.040701
v -0.111344 -1.406629 0.033412
v -0.116545 -1.409617 0.029846
v -0.121019 -1.414359 0.088291
v -0.126440 -1.417515 0.084297
v -0.106737 -1.415272 0.035053
v -0.131344 -1.420334 0.080928
v -0.112045 -1.418099 0.031436
v -0.116826 -1.420613 0.028446
v -0.142795 -1.415339 0.075157
v -0.140600 -1.419803 0.075869
v -0.124138 -1.413887 0.025267
v -0.137594 -1.423853 0.077115
v -0.124835 -1.420279 0.024458
v -0.112160 -1.400375 0.096929
v -0.105310 -1.395516 0.102920
v -0.118428 -1.404776 0.091671
v -0.129339 -1.412307 0.083198
v -0.124144 -1.408746 0.087107
v -0.134044 -1.415484 0.079905
v -0.090866 -1.398292 0.048743
v -0.083584 -1.393127 0.055112
v -0.075652 -1.387452 0.062302
v -0.101505 -1.397773 0.105324
v -0.100310 -1.391939 0.107452
v -0.079878 -1.399785 0.056517
v -0.073122 -1.395703 0.062482
v -0.108500 -1.406949 0.098316
v -0.102910 -1.403596 0.103084
v -0.115050 -1.410844 0.092951
v -0.087492 -1.404352 0.050022
v -0.094455 -1.408493 0.044319
v -0.111344 -1.406629 0.033412
v -0.116545 -1.409617 0.029846
v -0.121019 -1.414359 0.088291
v -0.126440 -1.417515 0.084297
v -0.131344 -1.420334 0.080928
v -0.100866 -1.412112 0.039340
v -0.106737 -1.415272 0.035053
v -0.112045 -1.418099 0.031436
v -0.116826 -1.420613 0.028446
v -0.140600 -1.419803 0.075869
v -0.137594 -1.423853 0.077115
v -0.142795 -1.415339 0.075157
v -0.124835 -1.420279 0.024458
v -0.071025 -1.386710 0.066053
v -0.070112 -1.382101 0.067783
v -0.101675 -1.400976 0.040701
v -0.103605 -1.407191 0.038302
v -0.124138 -1.413887 0.025267
vt 0.430136 0.061371
vt 0.414076 0.131120
vt 0.000000 0.000000
vt 0.000000 0.000000
vt 1.000000 0.415499
vt 0.350545 0.350545
vt 0.173013 0.000000
vt 1.000000 1.000000
vt 1.000000 0.000000
vt 0.202949 0.202949
vt 1.000000 0.000000
vt 0.441662 0.441662
vt 0.576343 0.243189
vt 0.518737 0.423090
vt 0.452979 0.179363
vt 0.810903 0.180345
vt 0.714818 0.105753
vt 1.000000 0.000000
vt 0.576970 0.447572
vt 0.779951 0.655037
vt 0.664877 0.664877
vt 0.958683 0.386548
vt 0.859717 0.471597
vt 0.675610 0.197517
vt 0.411026 0.411026
vt 0.645076 0.183540
vt 0.636180 0.636180
vt 0.350285 0.350285
vt 0.393151 0.209852
vt 0.441662 0.000000
vt 1.000000 0.881904
vt 1.000000 0.112923
vt 0.322355 0.322355
vt 0.000000 0.000000
vt 0.343258 0.121822
vt 0.161516 0.024119
vt 0.246373 0.070198
vt 0.681463 0.505490
vt 0.714156 0.313673
vt 1.000000 0.664877
vt 0.861268 0.595755
vt 0.867230 0.391186
vt 1.000000 0.457840
vt 1.000000 0.322355
vt 0.921678 0.264241
vt 0.584501 0.000000
vt 1.000000 0.411026
vt 0.648543 0.648543
vt 0.418628 0.418628
vt 0.499981 0.349960
vt 0.748898 0.565137
vt 0.593075 0.269956
vt 1.000000 0.350285
vt 0.887077 0.000000
vt 0.811370 0.073651
vt 0.748178 0.132223
vt 0.418628 0.000000
vt 1.677114 0.250000
vt 1.687500 0.237500
vt 1.687500 0.250000
vt 1.676201 0.237500
vt 1.687500 0.225000
vt 1.675122 0.225000
vt 1.687500 0.212500
vt 1.673847 0.212500
vt 1.687500 0.200000
vt 1.672341 0.200000
vt 1.687500 0.187500
vt 1.672911 0.175000
vt 1.687500 0.175000
vt 1.677889 0.171947
vt 1.687500 0.166624
vt 1.687500 0.225000
vt 1.687500 0.212500
vt 1.676239 0.212500
vt 1.687500 0.200000
vt 1.687500 0.187500
vt 1.674523 0.200000
vt 1.687500 0.175000
vt 1.672810 0.187500
vt 1.668814 0.164826
vt 1.670778 0.175000
vt 1.687500 0.162500
vt 1.682557 0.157283
vt 1.672709 0.162500
vt 1.694677 0.262500
vt 1.698127 0.250000
vt 1.687500 0.250000
vt 1.691379 0.162500
vt 1.690095 0.153730
vt 1.687500 0.154916
vt 1.695282 0.200000
vt 1.696942 0.225000
vt 1.687500 0.237500
vt 1.697584 0.237500
vt 1.696184 0.212500
vt 1.696393 0.237500
vt 1.696970 0.250000
vt 1.670559 0.187500
vn 0.4092 -0.9061 0.1075
vn -0.8992 0.1500 -0.4111
vn -0.8938 -0.4272 -0.1367
vn -0.7800 -0.6148 -0.1165
vn -0.4893 -0.8446 -0.2172
vn -0.4675 0.8677 -0.1691
vn -0.4238 0.8960 -0.1329
vn 0.7856 -0.3477 0.5118
vn 0.4221 -0.8964 0.1354
vn 0.7796 -0.3796 0.4981
vn 0.4092 -0.9061 0.1076
vn 0.0108 -0.9944 -0.1048
vn -0.8975 0.1785 -0.4032
vn -0.8792 -0.4549 -0.1416
vn -0.7800 -0.6148 -0.1164
vn -0.3705 0.9288 0.0064
vn 0.0428 0.9979 -0.0484
vn -0.5435 0.8053 -0.2369
vn -0.4806 0.8638 -0.1516
vn -0.6183 0.7739 0.1368
vn -0.5085 0.8549 -0.1030
vn -0.2642 0.9639 0.0335
vn -0.5248 0.4434 -0.7266
vn -0.0941 0.9611 0.2595
vn -0.4238 0.8960 -0.1328
vn 0.4162 -0.9014 0.1194
vn -0.4810 -0.0868 0.8724
vn -0.4970 -0.0975 0.8622
vn -0.4777 -0.0912 0.8737
vn -0.5023 -0.0983 0.8591
vn -0.5296 -0.1175 0.8401
vn -0.5303 -0.1180 0.8396
vn -0.5490 -0.1314 0.8254
vn -0.5495 -0.1318 0.8250
vn -0.5650 -0.1430 0.8126
vn -0.5655 -0.1434 0.8122
vn -0.5784 -0.1529 0.8013
vn -0.5868 -0.1581 0.7941
vn -0.5901 -0.1605 0.7912
vn -0.5940 -0.1625 0.7878
vn -0.5948 -0.1651 0.7867
vn 0.5281 0.1209 -0.8405
vn 0.5476 0.1331 -0.8261
vn 0.5497 0.1319 -0.8249
vn 0.5621 0.1526 -0.8129
vn 0.5769 0.1543 -0.8021
vn 0.5655 0.1434 -0.8122
vn 0.5896 0.1612 -0.7914
vn 0.5788 0.1532 -0.8010
vn 0.5974 0.1660 -0.7845
vn 0.5900 0.1615 -0.7911
vn 0.6004 0.1676 -0.7819
vn 0.6037 0.1712 -0.7785
vn 0.4470 0.0641 -0.8922
vn 0.4605 0.0829 -0.8838
vn 0.4732 0.0900 -0.8763
vn 0.6034 0.1728 -0.7784
vn 0.5561 0.1511 -0.8172
vn 0.5241 0.1196 -0.8432
vn 0.5042 0.1066 -0.8570
vn 0.4969 0.1065 -0.8612
vn -0.4759 -0.0945 0.8744
vn -0.5788 -0.1532 0.8010
s off
f 67/1/1 66/2/1 12/3/1
f 14/4/2 76/5/2 71/6/2
f 37/7/3 13/8/3 14/4/3
f 12/9/4 37/10/4 14/4/4
f 12/3/5 14/11/5 71/12/5
f 4/13/6 9/14/6 3/15/6
f 28/16/7 29/17/7 13/18/7
f 17/19/8 72/20/8 73/21/8
f 25/22/9 23/23/9 30/24/9
f 19/25/10 18/26/10 72/27/10
f 26/28/11 12/3/11 32/29/11
f 71/30/12 67/1/12 12/3/12
f 66/2/1 32/29/1 12/3/1
f 14/4/13 13/18/13 76/5/13
f 37/7/14 70/31/14 13/8/14
f 12/9/15 69/32/15 37/10/15
f 74/33/16 13/34/16 2/35/16
f 13/34/17 70/36/17 1/37/17
f 10/38/6 4/13/6 5/39/6
f 73/40/18 11/41/18 6/42/18
f 6/42/19 17/43/19 73/40/19
f 5/39/6 6/42/6 11/41/6
f 11/41/6 10/38/6 5/39/6
f 13/34/20 1/37/20 2/35/20
f 74/33/21 2/35/21 3/15/21
f 10/38/6 9/14/6 4/13/6
f 74/33/22 3/15/22 9/14/22
f 13/18/23 74/44/23 7/45/23
f 7/45/24 28/16/24 13/18/24
f 29/17/25 76/46/25 13/18/25
f 17/19/8 19/47/8 72/20/8
f 18/48/9 20/49/9 21/50/9
f 18/48/9 21/50/9 22/51/9
f 23/23/9 24/52/9 30/24/9
f 26/53/26 25/22/26 12/9/26
f 69/54/9 12/9/9 33/55/9
f 33/55/9 12/9/9 31/56/9
f 25/22/9 30/24/9 31/56/9
f 21/50/9 24/52/9 22/51/9
f 31/56/9 12/9/9 25/22/9
f 24/52/9 23/23/9 22/51/9
f 19/25/10 20/57/10 18/26/10
s 1
f 39/58/27 46/59/28 68/60/29
f 63/61/30 44/62/31 46/59/28
f 62/63/32 45/64/33 44/62/31
f 61/65/34 43/66/35 45/64/33
f 56/67/36 41/68/37 43/66/35
f 41/68/37 55/69/38 42/70/39
f 42/70/39 50/71/40 51/72/41
f 65/73/42 75/74/43 64/75/44
f 8/76/45 64/75/44 75/74/43
f 47/77/46 58/78/47 8/76/45
f 48/79/48 57/80/49 47/77/46
f 48/79/48 53/81/50 52/82/51
f 49/83/52 15/84/53 53/85/50
f 40/86/54 38/87/55 35/88/56
f 49/89/52 16/90/57 15/91/53
f 27/92/58 47/77/46 8/76/45
f 59/93/59 34/94/60 60/95/61
f 75/96/43 27/92/58 8/76/45
f 46/97/28 36/98/62 68/60/29
f 59/93/59 75/74/43 65/73/42
f 60/95/61 35/88/56 38/87/55
f 39/58/27 63/61/30 46/59/28
f 63/61/30 62/63/32 44/62/31
f 62/63/32 61/65/34 45/64/33
f 61/65/34 56/67/36 43/66/35
f 56/67/36 54/99/63 41/68/37
f 41/68/37 54/99/63 55/69/38
f 42/70/39 55/69/38 50/71/40
f 8/76/45 58/78/47 64/75/44
f 47/77/46 57/80/49 58/78/47
f 48/79/48 52/82/51 57/80/49
f 48/79/48 49/83/52 53/81/50
f 59/93/59 65/73/42 34/94/60
f 60/95/61 34/94/60 35/88/56
