# Blender v2.79 (sub 0) OBJ File: 'testScene.blend'
# www.blender.org
o TeapotHandle_cell.119_TeapotHandle_cell.155
v -0.594525 -1.401807 0.343962
v -0.597743 -1.400306 0.348472
v -0.600968 -1.397016 0.353035
v -0.589915 -1.389357 0.373368
v -0.604107 -1.391904 0.357520
v -0.607064 -1.384935 0.361796
v -0.623838 -1.380039 0.350326
v -0.620749 -1.387962 0.346432
v -0.635306 -1.387278 0.333571
v -0.617372 -1.394014 0.342315
v -0.631629 -1.393344 0.329724
v -0.645311 -1.392677 0.317510
v -0.613815 -1.398227 0.338096
v -0.627727 -1.397574 0.325814
v -0.641083 -1.396925 0.313899
v -0.653873 -1.396275 0.302336
v -0.666082 -1.395621 0.291115
v -0.610185 -1.400637 0.333893
v -0.623721 -1.400003 0.321949
v -0.636722 -1.399372 0.310359
v -0.649178 -1.398741 0.299110
v -0.661074 -1.398107 0.288193
v -0.669723 -1.398056 0.276357
v -0.606590 -1.401277 0.329827
v -0.619731 -1.400662 0.318238
v -0.632360 -1.400052 0.306988
v -0.644464 -1.399441 0.296070
v -0.656033 -1.398828 0.285471
v -0.664413 -1.397927 0.274077
v -0.674731 -1.397309 0.264239
v -0.603139 -1.400182 0.326016
v -0.615879 -1.399587 0.314786
v -0.628129 -1.398996 0.303885
v -0.639877 -1.398407 0.293301
v -0.651112 -1.397814 0.283026
v -0.659301 -1.396080 0.272112
v -0.669333 -1.395485 0.262578
v -0.599939 -1.397386 0.322579
v -0.612284 -1.396811 0.311704
v -0.624161 -1.396240 0.301144
v -0.635559 -1.395670 0.290890
v -0.646465 -1.395098 0.280934
v -0.676128 -1.393345 0.252771
v -0.654550 -1.392546 0.270528
v -0.664304 -1.391974 0.261288
v -0.597099 -1.392923 0.319636
v -0.609068 -1.392367 0.309099
v -0.620589 -1.391815 0.298864
v -0.631653 -1.391264 0.288924
v -0.642247 -1.390712 0.279272
v -0.650323 -1.387356 0.269392
v -0.659819 -1.386804 0.260428
v -0.594726 -1.386828 0.317307
v -0.606350 -1.386289 0.307078
v -0.617546 -1.385754 0.297142
v -0.628304 -1.385221 0.287490
v -0.638611 -1.384687 0.278116
v -0.646785 -1.380541 0.268772
v -0.656049 -1.380008 0.260054
v -0.592928 -1.379135 0.315709
v -0.604252 -1.378610 0.305751
v -0.615164 -1.378091 0.296074
v -0.625654 -1.377573 0.286673
v -0.635711 -1.377055 0.277542
v -0.591814 -1.369877 0.314963
v -0.602893 -1.369365 0.305224
v -0.613575 -1.368858 0.295759
v -0.623848 -1.368353 0.286562
v -0.633702 -1.367847 0.277628
v -0.602529 -1.364166 0.305295
v -0.613119 -1.363663 0.295913
v -0.623306 -1.363163 0.286798
v -0.586451 -1.387010 0.378672
v -0.608535 -1.380421 0.363947
v -0.599632 -1.382717 0.370260
v -0.595381 -1.383982 0.373125
v -0.588095 -1.399391 0.360566
v -0.587493 -1.395365 0.368414
v -0.615031 -1.378731 0.359178
v -0.630173 -1.379740 0.344728
v -0.588838 -1.402082 0.345346
v -0.588544 -1.401617 0.352805
v -0.638902 -1.383454 0.333759
v -0.588972 -1.400826 0.338408
v -0.648761 -1.387459 0.320626
v -0.588742 -1.393302 0.326944
v -0.588941 -1.397885 0.332199
v -0.587093 -1.370091 0.319088
v -0.587822 -1.379366 0.320171
v -0.597245 -1.365277 0.309980
v -0.588371 -1.387116 0.322862
v -0.607295 -1.362005 0.301140
v -0.629236 -1.362859 0.281425
v -0.654064 -1.389524 0.313220
v -0.660486 -1.391898 0.303746
v -0.671000 -1.395341 0.286504
v -0.678368 -1.397104 0.271879
v -0.675076 -1.396435 0.278876
v -0.680855 -1.397381 0.265696
v -0.682545 -1.397253 0.260257
v -0.638344 -1.367598 0.273355
v -0.646617 -1.371989 0.266371
v -0.683439 -1.396428 0.254421
v -0.660658 -1.379724 0.255617
v -0.666954 -1.383401 0.251611
v -0.671356 -1.386073 0.249208
v -0.678707 -1.391039 0.247161
v -0.682719 -1.394610 0.249411
v -0.587093 -1.370091 0.319088
v -0.591814 -1.369877 0.314963
v -0.613119 -1.363663 0.295913
v -0.623306 -1.363163 0.286798
v -0.595381 -1.383982 0.373125
v -0.599632 -1.382717 0.370260
v -0.608535 -1.380421 0.363947
v -0.615031 -1.378731 0.359178
v -0.654064 -1.389524 0.313220
v -0.648761 -1.387459 0.320626
v -0.675076 -1.396435 0.278876
v -0.678368 -1.397104 0.271879
v -0.680855 -1.397381 0.265696
v -0.682545 -1.397253 0.260257
v -0.671356 -1.386073 0.249208
v -0.666954 -1.383401 0.251611
v -0.656049 -1.380008 0.260054
v -0.660658 -1.379724 0.255617
v -0.633702 -1.367847 0.277628
v -0.638344 -1.367598 0.273355
v -0.666082 -1.395621 0.291115
v -0.671000 -1.395341 0.286504
v -0.629236 -1.362859 0.281425
v -0.623838 -1.380039 0.350326
v -0.630173 -1.379740 0.344728
v -0.683439 -1.396428 0.254421
v -0.683439 -1.396428 0.254421
v -0.682719 -1.394610 0.249411
v -0.682719 -1.394610 0.249411
v -0.587493 -1.395365 0.368414
v -0.589915 -1.389357 0.373368
v -0.588095 -1.399391 0.360566
v -0.588544 -1.401617 0.352805
v -0.588838 -1.402082 0.345346
v -0.588972 -1.400826 0.338408
v -0.638902 -1.383454 0.333759
v -0.588941 -1.397885 0.332199
v -0.588742 -1.393302 0.326944
v -0.587822 -1.379366 0.320171
v -0.602529 -1.364166 0.305295
v -0.597245 -1.365277 0.309980
v -0.588371 -1.387116 0.322862
v -0.607295 -1.362005 0.301140
v -0.660486 -1.391898 0.303746
v -0.646617 -1.371989 0.266371
v -0.678707 -1.391039 0.247161
vt 0.921938 0.178212
vt 0.806270 0.000000
vt 1.000000 0.253612
vt 0.640918 0.281442
vt 0.628682 0.283263
vt 0.546194 0.248344
vt 0.198034 0.198034
vt 0.262499 0.000000
vt 0.266852 0.266852
vt 0.586143 0.260478
vt 1.000000 0.371838
vt 0.241677 0.241677
vt 0.444377 0.206069
vt 1.000000 0.266852
vt 0.276160 0.276160
vt 1.000000 0.276160
vt 0.716976 0.000000
vt 1.000000 0.209452
vt 0.913814 0.182471
vt 0.974055 0.170647
vt 0.984238 0.242772
vt 1.000000 0.187334
vt 0.737501 0.000000
vt 0.253612 0.253612
vt 0.187334 0.187334
vt 0.320941 0.261415
vt 0.259168 0.198541
vt 0.296442 0.204414
vt 0.477185 0.277026
vt 0.390296 0.268885
vt 0.228269 0.193625
vt 0.442255 0.273955
vt 0.591254 0.283955
vt 0.562890 0.282930
vt 0.418863 0.224765
vt 0.528560 0.280963
vt 0.358539 0.214539
vt 0.464520 0.232768
vt 0.613799 0.283993
vt 0.512463 0.241713
vt 0.603554 0.261279
vt 0.644075 0.275603
vt 0.645496 0.278928
vt 0.193730 0.000000
vt 0.332057 0.332057
vt 0.614002 0.348955
vt 1.000000 0.283024
vt 1.000000 0.198034
vt 0.628162 0.000000
vt 1.000000 0.185827
vt 1.000000 0.255189
vt 0.944645 0.210080
vt 0.891868 0.160286
vt 0.878928 0.143849
vt 0.875114 0.133485
vt 0.906271 0.136240
vt 0.880539 0.129506
vt 0.935331 0.149676
vt 0.375000 0.968750
vt 0.375000 0.953125
vt 0.359375 0.953125
vt 0.390625 0.968750
vt 0.406250 0.968750
vt 0.406250 0.953125
vt 0.390625 0.953125
vt 0.421875 0.953125
vt 0.421875 0.937500
vt 0.406250 0.937500
vt 0.421875 0.930812
vt 0.406250 0.921875
vt 0.390625 0.937500
vt 0.406250 0.919792
vt 0.390625 0.908942
vt 0.375000 0.937500
vt 0.375000 0.921875
vt 0.390625 0.921875
vt 0.375000 0.906250
vt 0.359375 0.937500
vt 0.375000 0.898304
vt 0.359375 0.890625
vt 0.343750 0.937500
vt 0.343750 0.921875
vt 0.359375 0.921875
vt 0.343750 0.906250
vt 0.359375 0.906250
vt 0.343750 0.890625
vt 0.359375 0.888025
vt 0.343750 0.878025
vt 0.343750 0.953125
vt 0.328125 0.937500
vt 0.328125 0.953125
vt 0.312500 0.937500
vt 0.312500 0.921875
vt 0.328125 0.921875
vt 0.312500 0.906250
vt 0.328125 0.906250
vt 0.312500 0.890625
vt 0.328125 0.890625
vt 0.312500 0.875000
vt 0.328125 0.868386
vt 0.328125 0.875000
vt 0.312500 0.953125
vt 0.296875 0.937500
vt 0.296875 0.953125
vt 0.312500 0.859375
vt 0.296875 0.859375
vt 0.296875 0.850696
vt 0.281250 0.937500
vt 0.281250 0.921875
vt 0.296875 0.921875
vt 0.281250 0.906250
vt 0.296875 0.906250
vt 0.281250 0.890625
vt 0.296875 0.890625
vt 0.281250 0.875000
vt 0.296875 0.875000
vt 0.281250 0.859375
vt 0.281250 0.843750
vt 0.265625 0.906250
vt 0.250000 0.921875
vt 0.265625 0.921875
vt 0.265625 0.937500
vt 0.250000 0.890625
vt 0.234375 0.906250
vt 0.234375 0.875000
vt 0.234375 0.890625
vt 0.265625 0.875000
vt 0.265625 0.859375
vt 0.250000 0.859375
vt 0.250000 0.955917
vt 0.234375 0.921875
vt 0.234375 0.937500
vt 0.250000 0.843750
vt 0.265625 0.835802
vt 0.265625 0.843750
vt 0.234375 0.954208
vt 0.218750 0.937500
vt 0.218750 0.952542
vt 0.244279 0.828125
vt 0.234375 0.828125
vt 0.234375 0.859375
vt 0.218750 0.859375
vt 0.218750 0.843750
vt 0.234375 0.843750
vt 0.218750 0.828125
vt 0.203125 0.921875
vt 0.203125 0.937500
vt 0.218750 0.921875
vt 0.203125 0.906250
vt 0.218750 0.906250
vt 0.203125 0.890625
vt 0.218750 0.890625
vt 0.203125 0.875000
vt 0.218750 0.875000
vt 0.203125 0.859375
vt 0.203125 0.828125
vt 0.203125 0.819277
vt 0.187500 0.859375
vt 0.187500 0.843750
vt 0.203125 0.843750
vt 0.187500 0.828125
vt 0.187500 0.818874
vt 0.187500 0.937500
vt 0.171875 0.921875
vt 0.171875 0.937500
vt 0.187500 0.921875
vt 0.171875 0.906250
vt 0.187500 0.906250
vt 0.171875 0.890625
vt 0.187500 0.890625
vt 0.171875 0.875000
vt 0.187500 0.875000
vt 0.171875 0.859375
vt 0.171875 0.828125
vt 0.171875 0.820234
vt 0.156250 0.859375
vt 0.156250 0.843750
vt 0.171875 0.843750
vt 0.156250 0.828125
vt 0.156250 0.937500
vt 0.140625 0.921875
vt 0.140625 0.937500
vt 0.156250 0.921875
vt 0.140625 0.906250
vt 0.156250 0.906250
vt 0.140625 0.890625
vt 0.156250 0.890625
vt 0.140625 0.875000
vt 0.156250 0.875000
vt 0.140625 0.859375
vt 0.140625 0.828661
vt 0.125000 0.859375
vt 0.125000 0.843750
vt 0.140625 0.843750
vt 0.125000 0.835558
vt 0.125000 0.937500
vt 0.109375 0.921875
vt 0.109375 0.937500
vt 0.125000 0.921875
vt 0.109375 0.906250
vt 0.125000 0.906250
vt 0.109375 0.890625
vt 0.125000 0.890625
vt 0.109375 0.875000
vt 0.125000 0.875000
vt 0.109375 0.859375
vt 0.093750 0.859375
vt 0.109375 0.844490
vt 0.093750 0.937500
vt 0.078125 0.921875
vt 0.078125 0.937500
vt 0.093750 0.921875
vt 0.078125 0.906250
vt 0.093750 0.906250
vt 0.078125 0.890625
vt 0.093750 0.890625
vt 0.078125 0.875000
vt 0.093750 0.875000
vt 0.078125 0.867305
vt 0.065097 0.929467
vt 0.062500 0.906250
vt 0.062500 0.921875
vt 0.062500 0.890625
vt 0.062500 0.881145
vt 0.053025 0.906250
vt 0.057087 0.914757
vt 0.386505 0.906250
vt 0.415899 0.961256
vt 0.421875 0.954487
vt 0.187500 0.949409
vt 0.203125 0.950923
vt 0.281250 0.959455
vt 0.296875 0.961258
vt 0.281250 0.953125
vt 0.109375 0.944304
vt 0.078125 0.943933
vt 0.140625 0.945746
vt 0.343750 0.966666
vt 0.359375 0.968440
vt 0.312500 0.963067
vt 0.328125 0.964872
vt 0.427672 0.946945
vt 0.422950 0.953125
vt 0.409085 0.921875
vt 0.265625 0.957670
vt 0.250000 0.875000
vt 0.250000 0.829838
vt 0.088371 0.859375
vt 0.062500 0.925489
vt 0.069585 0.875000
vt 0.407415 0.968750
vt 0.411833 0.965100
vt 0.125000 0.944906
vt 0.093750 0.943970
vt 0.156250 0.946795
vn -0.1774 0.9515 0.2514
vn -0.5861 0.7850 0.2007
vn 0.0425 0.9585 0.2819
vn -0.1522 0.9626 0.2241
vn 0.0549 0.9608 0.2719
vn -0.0429 0.9602 0.2761
vn 0.9927 0.1051 0.0588
vn -0.1780 0.9514 0.2512
vn -0.3446 0.9155 0.2076
vn -0.5562 0.8141 0.1670
vn -0.3428 0.8395 0.4215
vn -0.5547 0.8149 0.1679
vn -0.6700 0.0355 0.7415
vn -0.5579 0.8113 0.1749
vn -0.5413 0.8232 0.1712
vn -0.6800 0.7280 0.0867
vn -0.5537 0.8154 0.1690
vn -0.6074 0.7559 0.2441
vn -0.3817 0.8083 0.4482
vn -0.5861 0.7850 0.2006
vn -0.2832 0.8905 0.3562
vn -0.5387 0.8205 0.1915
vn -0.5388 0.8241 0.1747
vn -0.6922 0.7094 0.1330
vn -0.4281 0.8820 0.1971
vn -0.7352 0.6499 0.1925
vn 0.4949 0.8370 0.2333
vn 0.6667 0.6908 0.2798
vn 0.1833 0.9424 0.2799
vn 0.0955 0.9552 0.2801
vn 0.7352 -0.6499 -0.1925
vn 0.7265 0.5872 -0.3569
vn 0.9960 -0.0823 -0.0341
vn 0.9960 -0.0825 -0.0341
vn 0.9968 -0.0755 0.0250
vn 0.9960 -0.0824 -0.0341
vn -0.4740 -0.7120 0.5181
vn -0.5091 -0.6632 0.5485
vn -0.4173 -0.7974 0.4358
vn -0.5322 -0.6132 0.5838
vn -0.5675 -0.5427 0.6192
vn -0.5781 -0.5241 0.6254
vn -0.5477 -0.5968 0.5863
vn -0.5723 -0.5329 0.6232
vn -0.5413 -0.6057 0.5831
vn -0.5616 -0.5581 0.6108
vn -0.5166 -0.6554 0.5510
vn -0.4725 -0.7303 0.4933
vn -0.4728 -0.7302 0.4932
vn -0.4718 -0.7334 0.4894
vn -0.5039 -0.6876 0.5227
vn -0.4418 -0.7825 0.4387
vn -0.3600 -0.8615 0.3579
vn -0.3594 -0.8615 0.3587
vn -0.3626 -0.8612 0.3561
vn -0.3667 -0.8607 0.3532
vn -0.3190 -0.9022 0.2900
vn -0.2836 -0.9187 0.2746
vn -0.2006 -0.9647 0.1706
vn -0.1988 -0.9648 0.1723
vn -0.2010 -0.9646 0.1708
vn -0.2035 -0.9644 0.1686
vn -0.2057 -0.9636 0.1709
vn -0.3021 -0.9094 0.2857
vn -0.1210 -0.9886 0.0895
vn -0.2257 -0.9544 0.1954
vn -0.1071 -0.9930 0.0498
vn -0.1733 -0.9766 0.1272
vn 0.0038 -0.9981 -0.0608
vn 0.0039 -0.9983 -0.0580
vn 0.0031 -0.9983 -0.0585
vn 0.0022 -0.9982 -0.0591
vn 0.0035 -0.9985 -0.0542
vn -0.0212 -0.9996 -0.0177
vn 0.2173 -0.9304 -0.2952
vn 0.2180 -0.9304 -0.2946
vn 0.2224 -0.9317 -0.2871
vn 0.2188 -0.9304 -0.2938
vn 0.1099 -0.9766 -0.1848
vn 0.1721 -0.9538 -0.2463
vn 0.6283 0.3645 -0.6872
vn 0.1153 -0.9778 -0.1748
vn 0.0523 -0.9918 -0.1168
vn 0.3678 -0.8068 -0.4624
vn 0.2097 -0.9396 -0.2703
vn -0.4341 -0.8868 0.1586
vn 0.3187 -0.8593 -0.4000
vn 0.3231 -0.8639 -0.3862
vn 0.8478 0.3754 -0.3745
vn 0.3981 -0.7747 -0.4913
vn 0.3965 -0.7748 -0.4924
vn 0.4000 -0.7746 -0.4898
vn 0.4024 -0.7747 -0.4878
vn 0.4079 -0.7765 -0.4803
vn 0.4192 -0.7747 -0.4734
vn 0.3575 -0.8531 -0.3799
vn 0.4781 -0.6771 -0.5593
vn 0.4860 -0.6794 -0.5497
vn 0.4887 -0.7048 -0.5143
vn 0.5240 -0.5801 -0.6236
vn 0.5219 -0.5802 -0.6252
vn 0.5267 -0.5799 -0.6214
vn 0.5301 -0.5799 -0.6186
vn 0.5370 -0.5817 -0.6110
vn 0.5533 -0.5813 -0.5967
vn 0.5805 -0.4802 -0.6576
vn 0.5910 -0.4838 -0.6454
vn 0.5998 -0.3883 -0.6995
vn 0.5974 -0.3885 -0.7015
vn 0.6030 -0.3881 -0.6969
vn 0.6068 -0.3880 -0.6936
vn 0.6144 -0.3895 -0.6861
vn 0.6251 -0.4100 -0.6641
vn 0.6376 -0.2999 -0.7096
vn 0.6324 -0.3550 -0.6884
vn 0.6372 -0.3800 -0.6704
vn 0.6402 -0.2177 -0.7366
vn 0.6377 -0.2178 -0.7388
vn 0.6435 -0.2175 -0.7338
vn 0.6476 -0.2175 -0.7302
vn 0.6552 -0.2170 -0.7236
vn 0.6614 -0.1955 -0.7241
vn 0.6569 -0.0873 -0.7489
vn 0.6509 -0.1238 -0.7489
vn 0.6602 -0.0872 -0.7460
vn 0.6644 -0.0872 -0.7423
vn 0.6657 -0.1187 -0.7367
vn 0.6742 -0.1338 -0.7262
vn 0.6588 -0.0360 -0.7514
vn 0.6636 -0.0315 -0.7474
vn 0.6607 -0.0305 -0.7500
vn 0.6677 -0.0360 -0.7436
vn 0.6701 -0.0360 -0.7413
vn 0.6636 0.0260 -0.7476
vn -0.5683 -0.5276 0.6314
vn -0.5895 -0.4959 0.6377
vn 0.5076 -0.6064 -0.6120
vn -0.0150 -0.9998 -0.0092
vn -0.2208 -0.9495 0.2228
vn 0.6356 -0.2239 -0.7389
vn 0.6481 -0.1384 -0.7489
vn 0.5916 -0.4039 -0.6977
vn -0.3728 -0.8380 0.3984
vn -0.5881 -0.4806 0.6505
vn -0.5722 -0.5546 0.6041
s off
f 7/1/1 71/2/1 80/3/1
f 100/4/2 99/5/2 106/6/2
f 92/7/3 116/8/3 115/9/3
f 65/10/4 76/11/4 88/12/4
f 70/13/5 115/14/5 75/15/5
f 75/16/6 149/17/6 70/18/6
f 77/19/7 89/20/7 4/21/7
f 72/22/8 80/3/8 71/2/8
f 7/1/9 116/23/9 71/2/9
f 80/24/10 72/25/10 83/26/10
f 69/27/11 101/28/11 95/29/11
f 72/25/12 85/30/12 83/26/12
f 72/25/13 93/31/13 69/27/13
f 95/29/14 94/32/14 69/27/14
f 98/33/15 96/34/15 59/35/15
f 17/36/16 95/29/16 101/28/16
f 72/25/17 94/32/17 85/30/17
f 101/28/18 102/37/18 17/36/18
f 59/35/19 104/38/19 97/39/19
f 105/40/20 106/6/20 99/5/20
f 107/41/20 108/42/20 103/43/20
f 103/43/20 100/4/20 106/6/20
f 99/5/2 97/39/2 105/40/2
f 96/34/21 17/36/21 59/35/21
f 72/25/22 69/27/22 94/32/22
f 104/38/2 105/40/2 97/39/2
f 107/41/2 103/43/2 106/6/2
f 97/39/23 98/33/23 59/35/23
f 102/37/24 59/35/24 17/36/24
f 92/7/25 71/44/25 116/8/25
f 73/45/26 88/12/26 4/46/26
f 65/10/27 149/47/27 76/11/27
f 4/46/28 88/12/28 76/11/28
f 70/13/29 92/48/29 115/14/29
f 75/16/30 76/49/30 149/17/30
f 88/50/31 73/51/31 4/21/31
f 4/21/32 78/52/32 77/19/32
f 77/19/33 82/53/33 89/20/33
f 81/54/33 84/55/33 86/56/33
f 87/57/34 86/56/34 84/55/34
f 91/58/33 89/20/33 82/53/33
f 88/50/35 4/21/35 89/20/35
f 82/53/36 81/54/36 91/58/36
f 86/56/36 91/58/36 81/54/36
s 1
f 138/59/37 5/60/38 3/61/39
f 139/62/40 5/60/38 138/59/37
f 139/63/40 6/64/41 5/65/38
f 6/66/41 132/67/42 8/68/43
f 133/69/44 9/70/45 8/68/43
f 6/64/41 8/71/43 5/65/38
f 9/70/45 144/72/46 118/73/47
f 5/65/38 8/71/43 10/74/48
f 8/71/43 11/75/49 10/74/48
f 9/76/45 12/77/50 11/75/49
f 5/60/38 10/78/48 3/61/39
f 12/77/50 117/79/51 152/80/52
f 3/61/39 10/78/48 13/81/53
f 10/78/48 14/82/54 13/81/53
f 11/83/49 15/84/55 14/82/54
f 12/85/50 16/86/56 15/84/55
f 152/87/52 129/88/57 16/86/56
f 3/89/39 13/90/53 2/91/58
f 2/91/58 13/90/53 18/92/59
f 13/90/53 19/93/60 18/92/59
f 14/94/54 20/95/61 19/93/60
f 15/96/55 21/97/62 20/95/61
f 16/98/56 22/99/63 21/97/62
f 130/100/64 22/99/63 129/101/57
f 2/102/58 18/103/59 1/104/65
f 22/99/63 119/105/66 23/106/67
f 119/105/66 120/107/68 23/106/67
f 1/104/65 18/103/59 24/108/69
f 18/103/59 25/109/70 24/108/69
f 19/110/60 26/111/71 25/109/70
f 20/112/61 27/113/72 26/111/71
f 21/114/62 28/115/73 27/113/72
f 22/116/63 23/117/67 28/115/73
f 23/106/67 120/107/68 121/118/74
f 26/119/71 32/120/75 25/121/70
f 24/122/69 25/121/70 32/120/75
f 27/123/72 33/124/76 32/120/75
f 35/125/77 34/126/78 27/123/72
f 28/127/73 23/128/67 29/129/79
f 143/130/80 32/131/75 31/132/81
f 23/128/67 30/133/82 29/129/79
f 122/134/83 30/133/82 121/135/74
f 143/136/80 31/137/81 145/138/84
f 30/133/82 135/139/85 137/140/86
f 35/125/77 29/141/79 36/142/87
f 29/141/79 37/143/88 36/142/87
f 30/144/82 134/145/89 37/143/88
f 31/137/81 39/146/90 38/147/91
f 32/148/75 40/149/92 39/146/90
f 33/150/76 41/151/93 40/149/92
f 34/152/78 42/153/94 41/151/93
f 35/154/77 36/155/87 42/153/94
f 37/143/88 134/145/89 43/156/95
f 134/145/89 136/157/96 43/156/95
f 42/153/94 36/155/87 44/158/97
f 36/155/87 45/159/98 44/158/97
f 37/160/88 43/161/95 45/159/98
f 43/156/95 136/157/96 154/162/99
f 38/163/91 47/164/100 46/165/101
f 39/166/90 48/167/102 47/164/100
f 40/168/92 49/169/103 48/167/102
f 41/170/93 50/171/104 49/169/103
f 42/172/94 44/173/97 50/171/104
f 45/159/98 43/161/95 123/174/105
f 43/161/95 154/175/99 123/174/105
f 50/171/104 44/173/97 51/176/106
f 44/173/97 52/177/107 51/176/106
f 45/178/98 123/179/105 52/177/107
f 46/180/101 54/181/108 53/182/109
f 47/183/100 55/184/110 54/181/108
f 48/185/102 56/186/111 55/184/110
f 49/187/103 57/188/112 56/186/111
f 50/189/104 51/190/106 57/188/112
f 52/177/107 123/179/105 124/191/113
f 57/188/112 51/190/106 58/192/114
f 51/190/106 125/193/115 58/192/114
f 52/194/107 126/195/116 125/193/115
f 53/196/109 61/197/117 60/198/118
f 54/199/108 62/200/119 61/197/117
f 55/201/110 63/202/120 62/200/119
f 56/203/111 64/204/121 63/202/120
f 57/205/112 58/206/114 64/204/121
f 64/204/121 58/206/114 153/207/122
f 58/206/114 125/208/115 153/207/122
f 60/209/118 66/210/123 110/211/124
f 61/212/117 67/213/125 66/210/123
f 62/214/119 68/215/126 67/213/125
f 63/216/120 127/217/127 68/215/126
f 64/218/121 128/219/128 127/217/127
f 66/210/123 90/220/129 110/211/124
f 66/210/123 111/221/130 148/222/131
f 67/213/125 112/223/132 111/221/130
f 68/215/126 131/224/133 112/223/132
f 148/222/131 111/225/130 151/226/134
f 118/227/47 117/79/51 12/77/50
f 114/228/135 74/229/136 6/64/41
f 146/230/137 145/231/84 38/163/91
f 142/232/138 141/233/139 1/234/65
f 147/235/140 53/196/109 60/198/118
f 109/236/141 60/209/118 110/211/124
f 150/237/142 46/180/101 53/182/109
f 140/238/143 138/239/37 3/89/39
f 145/138/84 31/137/81 38/147/91
f 142/232/138 1/234/65 24/122/69
f 141/240/139 140/241/143 2/102/58
f 140/238/143 3/89/39 2/91/58
f 146/230/137 38/163/91 46/165/101
f 79/242/144 6/66/41 74/243/136
f 141/240/139 2/102/58 1/104/65
f 8/68/43 132/67/42 133/69/44
f 133/69/44 144/244/46 9/70/45
f 8/71/43 9/76/45 11/75/49
f 9/76/45 118/227/47 12/77/50
f 10/78/48 11/83/49 14/82/54
f 11/83/49 12/85/50 15/84/55
f 12/85/50 152/80/52 16/86/56
f 13/90/53 14/94/54 19/93/60
f 14/94/54 15/96/55 20/95/61
f 15/96/55 16/98/56 21/97/62
f 16/98/56 129/101/57 22/99/63
f 130/100/64 119/105/66 22/99/63
f 18/103/59 19/110/60 25/109/70
f 19/110/60 20/112/61 26/111/71
f 20/112/61 21/114/62 27/113/72
f 21/114/62 22/116/63 28/115/73
f 26/119/71 27/123/72 32/120/75
f 32/120/75 143/130/80 24/122/69
f 142/245/138 24/122/69 143/130/80
f 27/123/72 34/126/78 33/124/76
f 27/123/72 28/246/73 35/125/77
f 29/141/79 35/125/77 28/246/73
f 23/128/67 121/135/74 30/133/82
f 122/134/83 135/247/85 30/133/82
f 29/141/79 30/144/82 37/143/88
f 30/144/82 137/140/86 134/145/89
f 31/137/81 32/148/75 39/146/90
f 32/148/75 33/150/76 40/149/92
f 33/150/76 34/152/78 41/151/93
f 34/152/78 35/154/77 42/153/94
f 36/155/87 37/160/88 45/159/98
f 38/163/91 39/166/90 47/164/100
f 39/166/90 40/168/92 48/167/102
f 40/168/92 41/170/93 49/169/103
f 41/170/93 42/172/94 50/171/104
f 44/173/97 45/178/98 52/177/107
f 46/180/101 47/183/100 54/181/108
f 47/183/100 48/185/102 55/184/110
f 48/185/102 49/187/103 56/186/111
f 49/187/103 50/189/104 57/188/112
f 51/190/106 52/194/107 125/193/115
f 52/194/107 124/191/113 126/195/116
f 53/196/109 54/199/108 61/197/117
f 54/199/108 55/201/110 62/200/119
f 55/201/110 56/203/111 63/202/120
f 56/203/111 57/205/112 64/204/121
f 60/209/118 61/212/117 66/210/123
f 61/212/117 62/214/119 67/213/125
f 62/214/119 63/216/120 68/215/126
f 63/216/120 64/218/121 127/217/127
f 64/218/121 153/248/122 128/219/128
f 66/210/123 148/249/131 90/220/129
f 66/210/123 67/213/125 111/221/130
f 67/213/125 68/215/126 112/223/132
f 68/215/126 127/250/127 131/224/133
f 6/64/41 139/251/40 114/228/135
f 113/252/145 114/228/135 139/251/40
f 147/235/140 150/253/142 53/196/109
f 109/236/141 147/254/140 60/209/118
f 150/237/142 146/255/137 46/180/101
f 79/242/144 132/67/42 6/66/41
