# Blender v2.79 (sub 0) OBJ File: 'testScene.blend'
# www.blender.org
o TeapotHandle_cell.070_TeapotHandle_cell.106
v -0.255895 -1.242326 0.079002
v -0.240651 -1.241208 0.079427
v -0.231999 -1.231105 0.035960
v -0.201845 -1.232067 0.078489
v -0.218292 -1.233289 0.079183
v -0.211522 -1.233243 0.081036
v -0.202856 -1.233496 0.084661
v -0.205340 -1.238983 0.082099
v -0.211111 -1.239471 0.079613
v -0.217813 -1.240225 0.077617
v -0.223484 -1.233569 0.078803
v -0.229996 -1.234339 0.080194
v -0.222955 -1.241018 0.077134
v -0.229411 -1.242365 0.078409
v -0.236839 -1.234945 0.080753
v -0.245680 -1.235566 0.080746
v -0.250774 -1.235893 0.080605
v -0.256277 -1.236238 0.080412
v -0.236193 -1.243593 0.078844
v -0.262158 -1.236604 0.080196
v -0.263043 -1.242835 0.078731
v -0.268337 -1.236993 0.079991
v -0.217264 -1.225899 0.032249
v -0.222271 -1.223996 0.036171
v -0.219588 -1.231242 0.033611
v -0.228435 -1.224636 0.037174
v -0.233857 -1.225053 0.037404
v -0.241858 -1.225611 0.037378
v -0.247316 -1.225961 0.037226
v -0.224470 -1.232407 0.034976
v -0.236174 -1.234529 0.035402
v -0.241117 -1.235325 0.035246
v -0.246526 -1.236179 0.034993
v -0.253212 -1.226330 0.037019
v -0.259513 -1.226722 0.036789
v -0.263748 -1.233450 0.035145
v -0.269286 -1.227343 0.036487
v -0.252369 -1.237092 0.034677
v -0.259444 -1.238196 0.034286
v -0.250004 -1.245822 0.078438
v -0.244955 -1.245025 0.078673
v -0.259039 -1.247233 0.077943
v -0.245680 -1.235566 0.080746
v -0.250774 -1.235893 0.080605
v -0.256277 -1.236238 0.080412
v -0.262158 -1.236604 0.080196
v -0.268337 -1.236993 0.079991
v -0.263043 -1.242835 0.078731
v -0.247316 -1.225961 0.037226
v -0.241858 -1.225611 0.037378
v -0.241117 -1.235325 0.035246
v -0.236174 -1.234529 0.035402
v -0.246526 -1.236179 0.034993
v -0.252369 -1.237092 0.034677
v -0.253212 -1.226330 0.037019
v -0.259513 -1.226722 0.036789
v -0.244955 -1.245025 0.078673
v -0.250004 -1.245822 0.078438
v -0.259039 -1.247233 0.077943
v -0.236193 -1.243593 0.078844
v -0.229411 -1.242365 0.078409
v -0.231999 -1.231105 0.035960
v -0.224470 -1.232407 0.034976
v -0.219588 -1.231242 0.033611
v -0.222955 -1.241018 0.077134
v -0.217813 -1.240225 0.077617
v -0.211111 -1.239471 0.079613
v -0.211522 -1.233243 0.081036
v -0.218292 -1.233289 0.079183
v -0.202856 -1.233496 0.084661
v -0.205340 -1.238983 0.082099
v -0.223484 -1.233569 0.078803
v -0.229996 -1.234339 0.080194
v -0.236839 -1.234945 0.080753
v -0.217264 -1.225899 0.032249
v -0.222271 -1.223996 0.036171
v -0.228435 -1.224636 0.037174
v -0.233857 -1.225053 0.037404
v -0.269286 -1.227343 0.036487
v -0.263748 -1.233450 0.035145
v -0.259444 -1.238196 0.034286
vt 1.000000 0.505386
vt 0.655149 0.508227
vt 0.000000 0.000000
vt 0.000000 0.000000
vt 1.000000 0.000000
vt 1.000000 0.479151
vt 1.000000 0.656991
vt 1.000000 1.000000
vt 0.961000 0.300446
vt 0.641835 0.000000
vt 1.000000 0.000000
vt 0.782277 0.522709
vt 0.890456 0.754441
vt 0.523726 0.506979
vt 0.656991 0.656991
vt 1.000000 0.651601
vt 0.395079 0.241641
vt 0.528708 0.264004
vt 0.437235 0.330268
vt 1.000000 0.268838
vt 1.000000 0.393674
vt 0.876258 0.395521
vt 0.662173 0.000000
vt 0.861832 0.287945
vt 0.752898 0.520737
vt 0.517668 0.257187
vt 0.479376 0.312278
vt 0.378687 0.139773
vt 0.144378 0.144378
vt 0.809499 0.360376
vt 0.755597 0.755597
vt 1.000000 0.532680
vt 0.755162 0.755162
vt 0.532680 0.532680
vt 0.733594 0.711510
vt 0.702350 0.643422
vt 0.652930 0.529108
vt 0.476153 0.412327
vt 0.349999 0.146922
vt 0.489362 0.181284
vt 0.598039 0.410603
vt 0.280231 0.000000
vt 0.403141 0.000000
vt 0.447287 0.092879
vt 0.403141 0.403141
vt 0.280231 0.280231
vt 0.775109 0.272194
vt 0.683373 0.683373
vt 0.507752 0.394799
vt 0.570683 0.238195
vt 0.956007 0.099800
vt 0.410640 0.410640
vt 0.286714 0.271371
vt 0.334242 0.203398
vt 0.419713 0.080748
vt 0.632680 0.084512
vt 0.583430 0.160838
vt 0.474964 0.000000
vt 0.677057 0.009197
vt 1.968750 0.568750
vt 1.958592 0.587500
vt 1.968750 0.587500
vt 1.958517 0.550000
vt 1.958554 0.568750
vt 1.968750 0.531250
vt 1.968750 0.550000
vt 1.968750 0.512500
vt 1.958483 0.531250
vt 1.968750 0.493750
vt 1.958423 0.493750
vt 1.958451 0.512500
vt 1.968750 0.475000
vt 1.968750 0.456250
vt 1.958399 0.475000
vt 1.968750 0.350000
vt 1.968750 0.337500
vt 1.958367 0.350000
vt 1.968750 0.325000
vt 1.958346 0.325000
vt 1.958358 0.337500
vt 1.968750 0.300000
vt 1.958328 0.312500
vt 1.968750 0.312500
vt 1.968750 0.275000
vt 1.958288 0.287500
vt 1.968750 0.287500
vt 1.968205 0.250000
vt 1.958266 0.262500
vt 1.968750 0.262500
vt 1.958876 0.587500
vt 1.968750 0.568750
vt 1.968750 0.587500
vt 1.958841 0.568750
vt 1.968750 0.550000
vt 1.958808 0.550000
vt 1.968750 0.531250
vt 1.958748 0.512500
vt 1.968750 0.512500
vt 1.958730 0.493750
vt 1.968750 0.493750
vt 1.958726 0.475000
vt 1.968750 0.475000
vt 1.958724 0.456250
vt 1.968750 0.456250
vt 1.958726 0.437500
vt 1.958727 0.433979
vt 1.968750 0.418750
vt 1.968750 0.437500
vt 1.975914 0.568750
vt 1.975552 0.568750
vt 1.976269 0.587500
vt 1.973981 0.512500
vt 1.973428 0.493750
vt 1.958631 0.606097
vt 1.964833 0.606250
vt 1.958912 0.606250
vt 1.958380 0.456250
vt 1.958305 0.300000
vt 1.958267 0.275000
vt 1.958263 0.250000
vt 1.958777 0.531250
vt 1.958744 0.418750
vn -0.0617 0.9745 0.2156
vn 0.9013 -0.4305 0.0479
vn 0.7707 -0.5539 -0.3149
vn 0.1728 -0.9635 -0.2046
vn -0.0658 0.9741 0.2165
vn 0.8293 -0.4463 -0.3361
vn -0.0686 0.9737 0.2175
vn -0.7447 -0.6549 -0.1286
vn 0.1690 -0.9644 -0.2032
vn 0.1619 -0.9660 -0.2015
vn 0.3586 0.9335 0.0049
vn -0.0659 0.9741 0.2165
vn -0.0685 0.9737 0.2175
vn -0.7485 -0.6507 -0.1280
vn -0.7461 -0.6533 -0.1286
vn 0.6274 -0.7144 -0.3098
vn -0.1913 -0.9630 -0.1898
vn 0.1678 -0.9647 -0.2031
vn -0.0248 -0.2121 0.9769
vn -0.0198 -0.2264 0.9738
vn -0.0208 -0.2176 0.9758
vn -0.0198 -0.2181 0.9757
vn -0.0208 -0.2267 0.9737
vn 0.0014 -0.2132 0.9770
vn -0.0211 -0.2107 0.9773
vn 0.0151 -0.2130 0.9769
vn 0.0011 -0.2147 0.9767
vn 0.0563 -0.2120 0.9756
vn 0.0545 -0.2105 0.9760
vn 0.1608 -0.2026 0.9659
vn 0.0950 -0.2106 0.9729
vn 0.1633 -0.2033 0.9654
vn 0.0853 -0.2125 0.9734
vn -0.1502 -0.2271 0.9622
vn -0.3084 -0.2308 0.9228
vn -0.1577 -0.2282 0.9607
vn -0.3757 -0.2388 0.8954
vn -0.3154 -0.2346 0.9195
vn 0.0231 0.2203 -0.9752
vn 0.0227 0.2128 -0.9768
vn 0.0230 0.2193 -0.9754
vn 0.0214 0.2145 -0.9765
vn 0.0160 0.2143 -0.9766
vn 0.0168 0.2149 -0.9765
vn 0.0047 0.2143 -0.9767
vn 0.0022 0.2130 -0.9770
vn -0.0170 0.2135 -0.9768
vn -0.0375 0.2131 -0.9763
vn -0.0623 0.2210 -0.9733
vn -0.1113 0.2080 -0.9718
vn -0.2028 0.2118 -0.9560
vn -0.3437 0.1558 -0.9261
vn -0.4344 0.1527 -0.8877
vn -0.0231 -0.1968 0.9802
vn 0.0232 0.1983 -0.9799
vn -0.0181 -0.2265 0.9738
vn 0.0156 0.2280 -0.9735
vn -0.3802 -0.2443 0.8920
vn -0.6017 0.0586 -0.7966
s off
f 24/1/1 6/2/1 4/3/1
f 71/4/2 4/5/2 70/6/2
f 71/4/3 25/7/3 4/8/3
f 30/9/4 25/10/4 71/11/4
f 26/12/5 5/13/5 24/14/5
f 25/15/6 23/16/6 4/8/6
f 34/17/7 17/18/7 29/19/7
f 81/20/8 59/21/8 21/22/8
f 30/23/9 9/24/9 10/25/9
f 41/26/10 40/27/10 33/28/10
f 70/29/1 4/3/1 6/2/1
f 23/30/11 24/1/11 4/3/11
f 6/31/12 24/14/12 5/13/12
f 26/12/5 27/32/5 5/13/5
f 5/33/13 27/34/13 11/35/13
f 27/34/7 12/36/7 11/35/7
f 15/37/7 27/34/7 28/38/7
f 27/34/7 15/37/7 12/36/7
f 34/17/7 35/39/7 18/40/7
f 28/38/7 16/41/7 15/37/7
f 16/41/7 29/19/7 17/18/7
f 18/40/13 17/18/13 34/17/13
f 79/42/7 47/43/7 20/44/7
f 20/44/7 18/40/7 35/39/7
f 28/38/7 29/19/7 16/41/7
f 35/39/13 79/42/13 20/44/13
f 47/45/14 79/46/14 36/47/14
f 36/47/15 81/20/15 21/22/15
f 21/22/14 47/45/14 36/47/14
f 13/48/16 31/49/16 3/50/16
f 3/50/17 30/23/17 13/48/17
f 30/23/9 71/51/9 9/24/9
f 10/25/18 13/48/18 30/23/18
f 59/52/10 81/53/10 38/54/10
f 59/52/10 38/54/10 40/27/10
f 41/26/10 33/28/10 32/55/10
f 14/56/10 19/57/10 31/58/10
f 31/58/10 13/59/10 14/56/10
f 38/54/10 33/28/10 40/27/10
f 32/55/10 31/58/10 19/57/10
f 19/57/10 41/26/10 32/55/10
s 1
f 1/60/19 46/61/20 48/62/21
f 1/60/19 44/63/22 45/64/23
f 57/65/24 44/63/22 58/66/25
f 57/65/24 2/67/26 43/68/27
f 2/69/26 74/70/28 43/71/27
f 2/69/26 60/72/29 74/70/28
f 61/73/30 74/74/28 60/72/29
f 61/75/30 65/76/31 73/77/32
f 65/78/31 72/79/33 73/80/32
f 66/81/34 72/82/33 65/83/31
f 67/84/35 69/85/36 66/86/34
f 8/87/37 68/88/38 67/89/35
f 56/90/39 54/91/40 80/92/41
f 55/93/42 53/94/43 54/91/40
f 49/95/44 51/96/45 53/94/43
f 51/96/45 50/97/46 52/98/47
f 52/98/47 78/99/48 62/100/49
f 62/100/49 78/99/48 77/101/50
f 62/102/49 77/103/50 63/104/51
f 63/104/51 77/103/50 76/105/52
f 76/106/52 64/107/53 63/108/51
f 42/109/54 58/66/25 1/60/19
f 54/110/40 39/111/55 80/92/41
f 57/112/24 60/113/29 2/67/26
f 46/61/20 22/114/56 48/62/21
f 80/115/41 37/116/57 56/90/39
f 42/109/54 1/60/19 48/62/21
f 1/60/19 45/64/23 46/61/20
f 1/60/19 58/66/25 44/63/22
f 57/65/24 43/68/27 44/63/22
f 61/73/30 73/117/32 74/74/28
f 66/81/34 69/118/36 72/82/33
f 67/84/35 68/119/38 69/85/36
f 8/87/37 7/120/58 68/88/38
f 56/90/39 55/93/42 54/91/40
f 55/93/42 49/95/44 53/94/43
f 49/95/44 50/121/46 51/96/45
f 52/98/47 50/97/46 78/99/48
f 76/106/52 75/122/59 64/107/53
