# Blender v2.79 (sub 0) OBJ File: 'testScene.blend'
# www.blender.org
o TeapotHandle_cell.097_TeapotHandle_cell.133
v -0.174655 -1.324036 0.073639
v -0.169232 -1.322634 0.077033
v -0.163221 -1.321089 0.081057
v -0.156584 -1.319393 0.085751
v -0.149285 -1.317537 0.091156
v -0.141287 -1.315512 0.097310
v -0.132553 -1.313309 0.104254
v -0.123046 -1.310920 0.112028
v -0.128711 -1.326307 0.103923
v -0.119380 -1.323321 0.111712
v -0.145017 -1.314103 0.031820
v -0.137962 -1.312300 0.036810
v -0.130202 -1.310327 0.042555
v -0.121700 -1.308175 0.049098
v -0.112415 -1.305833 0.056480
v -0.102309 -1.303292 0.064745
v -0.098412 -1.316476 0.064408
v -0.087650 -1.313032 0.073615
v -0.080082 -1.310610 0.080230
v -0.128329 -1.306162 0.109253
v -0.133872 -1.308171 0.104564
v -0.092609 -1.300861 0.072872
v -0.098945 -1.295981 0.069237
v -0.103740 -1.297719 0.065080
v -0.149627 -1.314329 0.028943
v -0.091938 -1.334693 0.130390
v -0.098808 -1.329019 0.126367
v -0.104610 -1.333693 0.120584
v -0.109956 -1.320305 0.119775
v -0.116198 -1.332814 0.111806
v -0.109734 -1.333304 0.116697
v -0.068768 -1.319481 0.086984
v -0.073971 -1.315384 0.083852
v -0.084006 -1.323905 0.073723
v -0.070593 -1.324962 0.084097
v -0.060825 -1.325756 0.091790
v -0.096232 -1.322979 0.064473
v -0.107488 -1.322162 0.056153
v -0.126787 -1.332046 0.103980
v -0.145364 -1.330801 0.090817
v -0.136506 -1.331375 0.096988
v -0.153353 -1.330323 0.085473
v -0.117774 -1.321454 0.048759
v -0.127091 -1.320853 0.042287
v -0.135583 -1.320345 0.036605
v -0.143296 -1.319925 0.031672
v -0.150272 -1.319588 0.027444
v -0.158980 -1.319202 0.022622
v -0.160608 -1.329928 0.080832
v -0.167177 -1.329588 0.076856
v -0.173107 -1.329273 0.073506
v -0.180276 -1.328970 0.069873
v -0.169232 -1.322634 0.077033
v -0.163221 -1.321089 0.081057
v -0.174655 -1.324036 0.073639
v -0.156584 -1.319393 0.085751
v -0.149285 -1.317537 0.091156
v -0.141287 -1.315512 0.097310
v -0.145017 -1.314103 0.031820
v -0.137962 -1.312300 0.036810
v -0.130202 -1.310327 0.042555
v -0.121700 -1.308175 0.049098
v -0.112415 -1.305833 0.056480
v -0.133872 -1.308171 0.104564
v -0.128329 -1.306162 0.109253
v -0.092609 -1.300861 0.072872
v -0.098945 -1.295981 0.069237
v -0.103740 -1.297719 0.065080
v -0.104610 -1.333693 0.120584
v -0.091938 -1.334693 0.130390
v -0.116198 -1.332814 0.111806
v -0.109734 -1.333304 0.116697
v -0.080082 -1.310610 0.080230
v -0.073971 -1.315384 0.083852
v -0.070593 -1.324962 0.084097
v -0.060825 -1.325756 0.091790
v -0.068768 -1.319481 0.086984
v -0.084006 -1.323905 0.073723
v -0.096232 -1.322979 0.064473
v -0.107488 -1.322162 0.056153
v -0.126787 -1.332046 0.103980
v -0.136506 -1.331375 0.096988
v -0.153353 -1.330323 0.085473
v -0.145364 -1.330801 0.090817
v -0.117774 -1.321454 0.048759
v -0.127091 -1.320853 0.042287
v -0.135583 -1.320345 0.036605
v -0.143296 -1.319925 0.031672
v -0.150272 -1.319588 0.027444
v -0.160608 -1.329928 0.080832
v -0.173107 -1.329273 0.073506
v -0.167177 -1.329588 0.076856
v -0.180276 -1.328970 0.069873
v -0.123046 -1.310920 0.112028
v -0.149627 -1.314329 0.028943
v -0.098808 -1.329019 0.126367
v -0.109956 -1.320305 0.119775
vt 0.463908 0.152278
vt 0.474149 0.000000
vt 0.623204 0.143249
vt 0.626451 0.366081
vt 0.658918 0.224471
vt 0.767902 0.490983
vt 0.603813 0.128175
vt 1.000000 0.070200
vt 0.903657 0.236471
vt 0.771905 0.523226
vt 0.749574 0.671536
vt 0.665773 0.665773
vt 0.607149 0.357211
vt 0.635327 0.279496
vt 0.787216 0.427421
vt 0.272494 0.154252
vt 0.767442 0.003482
vt 0.635892 0.150833
vt 1.000000 0.504634
vt 0.935232 0.603818
vt 0.780359 0.455505
vt 0.305244 0.000000
vt 1.000000 0.525851
vt 1.000000 0.694756
vt 0.912378 0.448824
vt 0.923488 0.627757
vt 0.498458 0.252483
vt 0.550541 0.127712
vt 0.383247 0.149622
vt 0.408845 0.000000
vt 0.453555 0.040521
vt 0.217327 0.000000
vt 0.280143 0.056932
vt 0.779316 0.331330
vt 0.244987 0.000000
vt 0.504634 0.504634
vt 1.000000 0.539010
vt 1.000000 0.688690
vt 0.688690 0.688690
vt 0.540143 0.536060
vt 0.716459 0.616419
vt 0.575514 0.442519
vt 0.744670 0.541812
vt 0.589523 0.404791
vt 0.817172 0.344806
vt 0.660471 0.208405
vt 0.866995 0.201707
vt 0.835664 0.292519
vt 0.701782 0.085911
vt 0.905001 0.084447
vt 0.887358 0.140108
vt 0.728483 0.000000
vt 0.929800 0.000000
vt 0.920076 0.034393
vt 0.718378 0.033552
vt 0.682627 0.143854
vt 0.408845 0.408845
vt 0.217327 0.217327
vt 0.408682 0.000000
vt 1.867614 0.250000
vt 1.864452 0.237500
vt 1.875000 0.237500
vt 1.875000 0.225000
vt 1.859464 0.221407
vt 1.875000 0.212500
vt 1.856414 0.212500
vt 1.875000 0.200000
vt 1.851393 0.200000
vt 1.875000 0.187500
vt 1.843750 0.184394
vt 1.875000 0.175000
vt 1.843750 0.162500
vt 1.875000 0.162500
vt 1.843750 0.150000
vt 1.875000 0.150000
vt 1.843750 0.138362
vt 1.838283 0.175000
vt 1.829685 0.162500
vt 1.812500 0.142974
vt 1.812500 0.137500
vt 1.806713 0.137500
vt 1.792176 0.125000
vt 1.812500 0.129816
vt 1.875000 0.225000
vt 1.875000 0.212500
vt 1.863485 0.212500
vt 1.875000 0.200000
vt 1.875000 0.187500
vt 1.858656 0.200000
vt 1.875000 0.175000
vt 1.852945 0.187500
vt 1.875000 0.162500
vt 1.846169 0.175000
vt 1.843750 0.150000
vt 1.843750 0.162500
vt 1.870794 0.137500
vt 1.875000 0.150000
vt 1.828034 0.150000
vt 1.843750 0.137500
vt 1.827242 0.125000
vt 1.812500 0.125000
vt 1.816011 0.137500
vt 1.812500 0.121558
vt 1.788642 0.116607
vt 1.840948 0.137500
vt 1.887136 0.162500
vt 1.888880 0.155017
vt 1.877242 0.150000
vt 1.889494 0.144387
vt 1.887978 0.150000
vt 1.820144 0.123319
vt 1.876264 0.225000
vt 1.876724 0.221065
vt 1.885102 0.162500
vt 1.843750 0.129374
vt 1.860712 0.225000
vt 1.845455 0.187500
vt 1.843750 0.175000
vt 1.819362 0.150000
vt 1.875000 0.138945
vn 0.4101 0.7544 0.5125
vn -0.2713 0.9618 0.0361
vn 0.0499 -0.9823 -0.1806
vn 0.3559 0.8093 0.4674
vn 0.0607 -0.9821 -0.1785
vn -0.5577 0.8011 -0.2172
vn 0.3556 0.8095 0.4671
vn 0.3475 0.8070 0.4774
vn 0.3556 0.8096 0.4671
vn 0.3280 0.8300 0.4512
vn -0.3356 0.9420 -0.0068
vn -0.1230 0.9851 0.1200
vn -0.2713 0.9618 0.0362
vn -0.5671 0.7930 -0.2229
vn -0.5552 0.8070 -0.2013
vn 0.3560 0.8091 0.4675
vn 0.3718 0.7927 0.4832
vn 0.3562 0.8090 0.4676
vn 0.0604 -0.9822 -0.1781
vn 0.0560 -0.9821 -0.1796
vn 0.0581 -0.9820 -0.1799
vn -0.2800 0.9586 0.0514
vn -0.0552 0.9824 0.1782
vn -0.8694 0.2311 -0.4367
vn -0.4517 -0.1559 0.8784
vn -0.4754 -0.1626 0.8646
vn -0.4746 -0.1623 0.8651
vn -0.5040 -0.1706 0.8467
vn -0.5063 -0.1712 0.8451
vn -0.5267 -0.1769 0.8314
vn -0.5286 -0.1774 0.8301
vn -0.5455 -0.1821 0.8181
vn -0.5470 -0.1825 0.8169
vn -0.5612 -0.1865 0.8064
vn -0.5629 -0.1866 0.8051
vn -0.5752 -0.1906 0.7955
vn -0.5864 -0.1911 0.7871
vn -0.5852 -0.1954 0.7870
vn -0.5961 -0.1941 0.7790
vn -0.5930 -0.1964 0.7808
vn -0.6025 -0.1952 0.7738
vn -0.5762 -0.1891 0.7951
vn -0.5883 -0.1894 0.7861
vn -0.6017 -0.1937 0.7749
vn -0.6063 -0.1949 0.7710
vn -0.6099 -0.1936 0.7684
vn -0.6093 -0.1946 0.7686
vn 0.5158 0.1749 -0.8386
vn 0.5259 0.1771 -0.8319
vn 0.5286 0.1774 -0.8301
vn 0.5455 0.1821 -0.8181
vn 0.5612 0.1864 -0.8064
vn 0.5470 0.1825 -0.8169
vn 0.5745 0.1901 -0.7961
vn 0.5625 0.1868 -0.8054
vn 0.5864 0.1936 -0.7865
vn 0.5759 0.1903 -0.7950
vn 0.5961 0.1941 -0.7791
vn 0.5872 0.1924 -0.7862
vn 0.6014 0.1987 -0.7738
vn 0.5950 0.1978 -0.7790
vn 0.5977 0.1926 -0.7782
vn 0.6045 0.1971 -0.7718
vn 0.6105 0.1962 -0.7673
vn 0.6134 0.1962 -0.7650
vn 0.6060 0.1952 -0.7711
vn 0.6157 0.1969 -0.7630
vn 0.6164 0.1964 -0.7625
vn -0.5858 -0.1978 0.7859
vn -0.5900 -0.1986 0.7826
vn 0.5992 0.2005 -0.7750
vn 0.5955 0.1998 -0.7781
vn 0.5150 0.1759 -0.8389
vn 0.6085 0.1976 -0.7685
vn -0.5977 -0.1926 0.7782
s off
f 66/1/1 20/2/1 8/3/1
f 14/4/2 5/5/2 15/6/2
f 51/7/3 48/8/3 50/9/3
f 27/10/4 32/11/4 33/12/4
f 30/13/5 39/14/5 37/15/5
f 47/16/6 93/17/6 1/18/6
f 29/19/7 33/20/7 19/21/7
f 19/21/8 66/1/8 8/3/8
f 67/22/9 20/2/9 66/1/9
f 8/3/10 29/19/10 19/21/10
f 20/23/11 67/24/11 21/25/11
f 24/26/11 21/25/11 67/24/11
f 14/4/2 13/27/2 4/28/2
f 12/29/2 2/30/2 3/31/2
f 25/32/12 2/30/12 11/33/12
f 2/30/13 12/29/13 11/33/13
f 13/27/2 3/31/2 4/28/2
f 24/26/14 6/34/14 21/25/14
f 24/26/15 15/6/15 6/34/15
f 12/29/2 3/31/2 13/27/2
f 14/4/13 4/28/13 5/5/13
f 6/34/2 15/6/2 5/5/2
f 51/7/3 93/35/3 48/8/3
f 33/12/16 29/36/16 27/10/16
f 27/10/17 26/37/17 36/38/17
f 36/38/18 32/11/18 27/10/18
f 36/39/5 26/40/5 35/41/5
f 26/40/5 28/42/5 35/41/5
f 34/43/5 35/41/5 31/44/5
f 38/45/5 37/15/5 41/46/5
f 44/47/5 43/48/5 42/49/5
f 46/50/19 45/51/19 50/52/19
f 48/53/20 47/54/20 50/52/20
f 49/55/21 50/52/21 45/51/21
f 42/49/5 49/55/5 44/47/5
f 47/54/19 46/50/19 50/52/19
f 43/48/5 38/45/5 40/56/5
f 35/41/5 28/42/5 31/44/5
f 34/43/5 31/44/5 30/13/5
f 45/51/5 44/47/5 49/55/5
f 40/56/5 42/49/5 43/48/5
f 41/46/5 40/56/5 38/45/5
f 37/15/5 34/43/5 30/13/5
f 39/14/5 41/46/5 37/15/5
f 2/57/22 25/58/22 1/18/22
f 47/16/23 48/59/23 93/17/23
f 1/18/24 25/58/24 47/16/24
s 1
f 52/60/25 91/61/26 55/62/27
f 91/61/26 53/63/28 55/62/27
f 92/64/29 54/65/30 53/63/28
f 90/66/31 56/67/32 54/65/30
f 83/68/33 57/69/34 56/67/32
f 84/70/35 58/71/36 57/69/34
f 58/71/36 9/72/37 7/73/38
f 7/73/38 10/74/39 94/75/40
f 94/75/40 10/74/39 97/76/41
f 82/77/42 81/78/43 9/72/37
f 81/78/43 10/74/39 9/72/37
f 72/79/44 69/80/45 97/76/41
f 69/81/45 70/82/46 96/83/47
f 89/84/48 59/85/49 88/86/50
f 60/87/51 88/86/50 59/85/49
f 61/88/52 87/89/53 60/87/51
f 62/90/54 86/91/55 61/88/52
f 63/92/56 85/93/57 62/90/54
f 63/92/56 17/94/58 80/95/59
f 22/96/60 17/94/58 16/97/61
f 80/95/59 17/94/58 79/98/62
f 18/99/63 79/98/62 17/94/58
f 74/100/64 75/101/65 78/102/66
f 75/101/65 77/103/67 76/104/68
f 96/83/47 97/105/41 69/80/45
f 64/106/69 58/71/36 7/73/38
f 65/107/70 7/73/38 94/108/40
f 23/109/71 16/97/61 68/110/72
f 74/111/64 77/103/67 75/101/65
f 89/112/48 95/113/73 59/85/49
f 63/114/56 68/110/72 16/97/61
f 22/96/60 73/115/74 18/99/63
f 91/61/26 92/116/29 53/63/28
f 92/64/29 90/66/31 54/65/30
f 90/66/31 83/68/33 56/67/32
f 83/68/33 84/117/35 57/69/34
f 84/70/35 82/118/42 58/71/36
f 58/71/36 82/118/42 9/72/37
f 7/73/38 9/72/37 10/74/39
f 81/78/43 71/119/75 10/74/39
f 97/76/41 10/74/39 72/79/44
f 71/119/75 72/79/44 10/74/39
f 60/87/51 87/89/53 88/86/50
f 61/88/52 86/91/55 87/89/53
f 62/90/54 85/93/57 86/91/55
f 63/92/56 80/95/59 85/93/57
f 63/92/56 16/97/61 17/94/58
f 22/96/60 18/99/63 17/94/58
f 18/99/63 78/102/66 79/98/62
f 78/102/66 18/99/63 73/115/74
f 73/115/74 74/100/64 78/102/66
f 65/107/70 64/106/69 7/73/38
f 23/109/71 22/120/60 16/97/61
