# Blender v2.79 (sub 0) OBJ File: 'testScene.blend'
# www.blender.org
o TeapotHandle_cell.014_TeapotHandle_cell.013
v -0.161851 -1.388584 0.070304
v -0.185213 -1.404078 0.023408
v -0.177469 -1.400633 0.023375
v -0.171747 -1.398176 0.022527
v -0.165784 -1.395985 0.018243
v -0.160917 -1.394060 0.016008
v -0.150804 -1.389424 0.017224
v -0.143560 -1.385854 0.020389
v -0.191213 -1.408720 0.029352
v -0.139239 -1.369833 0.024756
v -0.137726 -1.375815 0.024721
v -0.144046 -1.372236 0.021802
v -0.137658 -1.387179 0.023184
v -0.161831 -1.376918 0.071729
v -0.159418 -1.382699 0.072212
v -0.152201 -1.376243 0.017596
v -0.163711 -1.394168 0.069045
v -0.145562 -1.391737 0.019044
v -0.151829 -1.395201 0.016873
v -0.167857 -1.384629 0.068102
v -0.158648 -1.379314 0.015379
v -0.172532 -1.390846 0.066295
v -0.169607 -1.397426 0.067004
v -0.176071 -1.395808 0.066010
v -0.158758 -1.398746 0.016580
v -0.163539 -1.400860 0.018838
v -0.165738 -1.382510 0.015044
v -0.170585 -1.384482 0.017282
v -0.174485 -1.385923 0.020760
v -0.178905 -1.400094 0.067121
v -0.167413 -1.402350 0.022324
v -0.171953 -1.404460 0.023703
v -0.178566 -1.407746 0.024149
v -0.178491 -1.389334 0.022239
v -0.183494 -1.396509 0.022998
v -0.189983 -1.405633 0.023163
v -0.185943 -1.411502 0.023972
v -0.191148 -1.410519 0.023412
v -0.139239 -1.369833 0.024756
v -0.144046 -1.372236 0.021802
v -0.161831 -1.376918 0.071729
v -0.159418 -1.382699 0.072212
v -0.189983 -1.405633 0.023163
v -0.191148 -1.410519 0.023412
v -0.183494 -1.396509 0.022998
v -0.185213 -1.404078 0.023408
v -0.176071 -1.395808 0.066010
v -0.169607 -1.397426 0.067004
v -0.163711 -1.394168 0.069045
v -0.161851 -1.388584 0.070304
v -0.137726 -1.375815 0.024721
v -0.137658 -1.387179 0.023184
v -0.145562 -1.391737 0.019044
v -0.167857 -1.384629 0.068102
v -0.152201 -1.376243 0.017596
v -0.151829 -1.395201 0.016873
v -0.158758 -1.398746 0.016580
v -0.158648 -1.379314 0.015379
v -0.165738 -1.382510 0.015044
v -0.172532 -1.390846 0.066295
v -0.163539 -1.400860 0.018838
v -0.170585 -1.384482 0.017282
v -0.174485 -1.385923 0.020760
v -0.178491 -1.389334 0.022239
v -0.167413 -1.402350 0.022324
v -0.171953 -1.404460 0.023703
v -0.178566 -1.407746 0.024149
v -0.185943 -1.411502 0.023972
vt 0.579604 0.260402
vt 0.394669 0.192751
vt 0.000000 0.000000
vt 1.000000 0.000000
vt 0.484114 0.226646
vt 0.217146 0.089433
vt 0.609777 0.121912
vt 0.769151 0.547003
vt 0.003522 0.003522
vt 0.777331 0.374621
vt 0.407915 0.000000
vt 1.000000 0.199458
vt 1.000000 0.234338
vt 0.572172 0.572172
vt 0.738226 0.266620
vt 0.597898 0.034918
vt 0.816517 0.342235
vt 0.294235 0.051250
vt 0.727443 0.133491
vt 0.716860 0.204444
vt 0.078982 0.078982
vt 0.191274 0.119409
vt 1.000000 0.004476
vt 0.891111 0.378622
vt 0.898664 0.493389
vt 0.709338 0.361280
vt 0.019435 0.000000
vt 0.492672 0.492672
vt 1.000000 0.197482
vt 0.775769 0.167278
vt 1.000000 0.003522
vt 0.986914 0.482805
vt 0.922284 0.431945
vt 0.662224 0.174542
vt 0.607625 0.058645
vt 0.577352 0.000000
vt 0.600081 0.600081
vt 0.199458 0.199458
vt 0.240947 0.146444
vt 0.644626 0.548059
vt 0.699893 0.470498
vt 0.718150 0.231159
vt 0.746345 0.329653
vt 0.732062 0.406266
vt 0.306819 0.000000
vt 0.281569 0.080035
vt 0.752758 0.040697
vt 1.750000 0.287500
vt 1.741726 0.287500
vt 1.750000 0.275000
vt 1.750000 0.531250
vt 1.750000 0.512500
vt 1.739254 0.526626
vt 1.750000 0.493750
vt 1.739769 0.493750
vt 1.739488 0.512500
vt 1.750000 0.475000
vt 1.750000 0.456250
vt 1.740232 0.456250
vt 1.740019 0.475000
vt 1.750000 0.437500
vt 1.750000 0.418750
vt 1.740532 0.418750
vt 1.740404 0.437500
vt 1.750000 0.400000
vt 1.740611 0.400000
vt 1.750000 0.387500
vt 1.750000 0.350000
vt 1.741040 0.337500
vt 1.740919 0.350000
vt 1.750000 0.312500
vt 1.741577 0.300000
vt 1.741365 0.312500
vt 1.750000 0.275000
vt 1.742130 0.275000
vt 1.741830 0.287500
vt 1.750000 0.262500
vt 1.742898 0.250000
vt 1.742483 0.262500
vt 1.761800 0.275000
vt 1.764553 0.475000
vt 1.772709 0.250000
vt 1.761733 0.239617
vt 1.750000 0.250000
vt 1.750000 0.262500
vt 1.772056 0.287500
vt 1.750000 0.287500
vt 1.750000 0.300000
vt 1.771274 0.387500
vt 1.772241 0.275000
vt 1.771074 0.437500
vt 1.771164 0.418750
vt 1.768263 0.456250
vt 1.771897 0.300000
vt 1.771761 0.312500
vt 1.754940 0.300000
vt 1.750000 0.312500
vt 1.750000 0.300000
vt 1.771462 0.350000
vt 1.750000 0.337500
vt 1.750889 0.531250
vt 1.772457 0.262500
vt 1.765810 0.262500
vt 1.758106 0.250000
vt 1.770294 0.250000
vt 1.771226 0.400000
vt 1.773001 0.237500
vt 1.771546 0.337500
vt 1.750000 0.253901
vn -0.7479 0.1345 -0.6501
vn -0.8104 0.5704 0.1338
vn 0.8201 0.3782 0.4294
vn 0.8889 -0.0562 0.4547
vn -0.2072 -0.9369 0.2815
vn -0.4066 0.9102 -0.0788
vn 0.4459 -0.8674 0.2208
vn -0.9706 0.2274 -0.0795
vn -0.8072 0.5764 0.1271
vn -0.3046 0.8751 0.3760
vn 0.8666 0.2167 0.4495
vn 0.8359 -0.4483 0.3168
vn -0.4151 0.9076 -0.0627
vn -0.4141 0.9081 -0.0623
vn -0.4066 0.9102 -0.0787
vn -0.6429 0.7656 0.0244
vn -0.4049 0.9123 -0.0606
vn 0.8307 -0.3705 0.4155
vn 0.4482 -0.8859 0.1196
vn 0.4482 -0.8859 0.1197
vn 0.8418 -0.5303 0.1011
vn 0.4448 -0.8811 0.1604
vn -0.2637 -0.9498 0.1686
vn -0.2542 -0.0110 0.9670
vn -0.2478 -0.0058 0.9688
vn -0.3360 -0.0512 0.9404
vn 0.0851 -0.0789 -0.9932
vn 0.0566 -0.0830 -0.9949
vn 0.0806 -0.0833 -0.9933
vn 0.0341 -0.1021 -0.9942
vn -0.0233 -0.1121 -0.9934
vn -0.0990 -0.1534 -0.9832
vn -0.2874 -0.2292 -0.9300
vn -0.3896 -0.3633 -0.8463
vn -0.4026 -0.3220 -0.8568
vn -0.4069 -0.2681 -0.8732
vn -0.1238 -0.1762 -0.9765
vn -0.1265 -0.1554 -0.9797
vn 0.1878 -0.0318 -0.9817
vn 0.3095 0.0352 -0.9502
vn 0.3699 0.0566 -0.9273
vn 0.4150 0.0830 -0.9060
vn 0.4488 0.0942 -0.8886
vn -0.3735 -0.0804 0.9241
vn 0.0057 -0.0827 -0.9966
vn 0.4476 0.1159 -0.8867
vn 0.4723 0.1221 -0.8729
vn -0.3990 -0.0983 0.9116
vn 0.1863 -0.0010 -0.9825
vn -0.4497 -0.2374 -0.8610
vn 0.3602 0.0799 -0.9294
vn -0.1341 -0.1494 -0.9796
vn -0.4559 -0.2261 -0.8608
vn -0.1323 -0.1372 -0.9817
vn -0.1411 0.0438 0.9890
vn 0.0735 -0.0683 -0.9949
vn -0.4151 -0.1081 0.9033
vn -0.4173 -0.0987 0.9033
vn 0.4734 0.1248 -0.8719
s off
f 35/1/1 46/2/1 9/3/1
f 9/4/2 22/5/2 20/6/2
f 42/7/3 11/8/3 41/9/3
f 13/10/4 11/11/4 1/12/4
f 9/3/5 37/13/5 30/14/5
f 21/15/6 29/16/6 16/17/6
f 24/18/7 33/19/7 32/20/7
f 44/21/8 9/3/8 43/22/8
f 41/23/9 34/24/9 35/1/9
f 46/2/10 43/22/10 9/3/10
f 41/23/9 35/1/9 9/3/9
f 9/4/2 30/25/2 24/26/2
f 9/4/2 24/26/2 22/5/2
f 20/6/2 41/27/2 9/4/2
f 10/28/11 41/9/11 11/8/11
f 42/7/12 1/29/12 11/8/12
f 9/3/5 44/30/5 37/13/5
f 41/31/13 10/32/13 12/33/13
f 12/33/14 16/17/14 41/31/14
f 21/15/15 27/34/15 28/35/15
f 29/16/16 34/36/16 41/31/16
f 21/15/6 28/35/6 29/16/6
f 41/31/17 16/17/17 29/16/17
f 13/37/18 1/38/18 17/39/18
f 13/37/19 17/39/19 18/40/19
f 19/41/19 18/40/19 31/42/19
f 26/43/20 25/44/20 19/41/20
f 31/42/19 26/43/19 19/41/19
f 18/40/19 17/39/19 31/42/19
f 24/18/21 30/45/21 33/19/21
f 17/39/19 23/46/19 31/42/19
f 31/42/19 23/46/19 32/20/19
f 30/45/22 37/47/22 33/19/22
f 32/20/23 23/46/23 24/18/23
s 1
f 60/48/24 48/49/25 49/50/26
f 38/51/27 2/52/28 68/53/29
f 2/54/28 67/55/30 68/56/29
f 2/54/28 3/57/31 67/55/30
f 3/58/31 66/59/32 67/60/30
f 3/58/31 4/61/33 66/59/32
f 4/62/33 65/63/34 66/64/32
f 4/65/33 61/66/35 65/63/34
f 4/65/33 5/67/36 61/66/35
f 5/68/36 57/69/37 61/70/35
f 6/71/38 56/72/39 57/73/37
f 7/74/40 53/75/41 56/76/39
f 7/74/40 8/77/42 53/75/41
f 8/77/42 52/78/43 53/79/41
f 54/80/44 60/48/24 49/50/26
f 45/81/45 3/57/31 2/54/28
f 40/82/46 51/83/47 52/84/43
f 54/80/44 49/50/26 50/85/48
f 58/86/49 7/87/40 56/88/39
f 62/89/50 5/67/36 4/65/33
f 58/86/49 55/90/51 7/87/40
f 64/91/52 63/92/53 4/61/33
f 45/81/45 64/93/52 3/57/31
f 58/94/49 6/71/38 59/95/54
f 60/96/24 47/97/55 48/98/25
f 62/99/50 6/100/38 5/68/36
f 36/101/56 2/52/28 38/51/27
f 40/82/46 8/77/42 55/102/51
f 3/58/31 64/91/52 4/61/33
f 54/103/44 15/104/57 14/105/58
f 55/102/51 8/77/42 7/74/40
f 63/92/53 62/106/50 4/62/33
f 5/68/36 6/100/38 57/69/37
f 40/82/46 39/107/59 51/83/47
f 58/94/49 56/88/39 6/71/38
f 62/99/50 59/108/54 6/100/38
f 40/82/46 52/84/43 8/77/42
f 54/103/44 50/109/48 15/104/57
