# Blender v2.79 (sub 0) OBJ File: 'testScene.blend'
# www.blender.org
o TeapotHandle_cell.092_TeapotHandle_cell.128
v -0.094264 -1.473601 0.045131
v -0.097778 -1.472900 0.060784
v -0.109690 -1.465968 0.088216
v -0.106378 -1.473713 0.089752
v -0.114155 -1.469885 0.085859
v -0.119457 -1.474140 0.084020
v -0.112651 -1.480126 0.087082
v -0.116906 -1.484117 0.086450
v -0.124695 -1.477701 0.083756
v -0.103059 -1.483931 0.035953
v -0.107156 -1.487058 0.038518
v -0.110542 -1.489246 0.042240
v -0.116616 -1.489293 0.042810
v -0.116989 -1.494603 0.044444
v -0.121788 -1.492502 0.043294
v -0.114155 -1.469885 0.085859
v -0.109690 -1.465968 0.088216
v -0.106378 -1.473713 0.089752
v -0.112651 -1.480126 0.087082
v -0.119457 -1.474140 0.084020
v -0.116906 -1.484117 0.086450
v -0.124695 -1.477701 0.083756
v -0.116616 -1.489293 0.042810
v -0.116989 -1.494603 0.044444
v -0.121788 -1.492502 0.043294
vt 0.000000 0.000000
vt 1.000000 0.315676
vt 1.000000 1.000000
vt 0.346068 0.000000
vt 0.587765 0.587765
vt 0.545412 0.042711
vt 1.000000 0.000000
vt 0.502406 0.219694
vt 0.653932 0.000000
vt 1.000000 0.000000
vt 0.204215 0.204215
vt 1.000000 0.429031
vt 0.621337 0.621337
vt 1.000000 0.229606
vt 0.736907 0.492615
vt 0.000000 0.000000
vt 1.000000 0.204215
vt 0.639222 0.639222
vt 0.229606 0.229606
vt 0.784863 0.599112
vt 0.728288 0.728288
vt 0.460459 0.352796
vt 0.968058 0.322207
vt 0.862282 0.469715
vt 0.839813 0.497614
vt 0.554134 0.000000
vt 0.248626 0.248626
vt 0.442074 0.360586
vt 0.721780 0.028518
vt 0.920490 0.592399
vt 0.818867 0.535218
vt 1.000000 0.621337
vt 1.584112 0.300000
vt 1.566080 0.300000
vt 1.566510 0.287500
vt 1.583870 0.275000
vt 1.583985 0.287500
vt 1.566975 0.275000
vt 1.567443 0.262500
vt 1.584250 0.312500
vt 1.583770 0.262500
vt 1.567631 0.258573
vt 1.583735 0.257531
vt 1.580772 0.475000
vt 1.580520 0.456250
vt 1.572974 0.475000
vn 0.6967 -0.6925 0.1874
vn 0.8652 0.4233 0.2688
vn -0.5203 0.7893 -0.3261
vn 0.6984 0.7047 0.1252
vn -0.6641 -0.7162 0.2143
vn 0.6651 -0.7250 0.1787
vn 0.6584 -0.7306 0.1811
vn -0.5202 0.7893 -0.3261
vn -0.6651 0.7250 -0.1788
vn -0.0398 0.9369 -0.3472
vn -0.6043 0.6993 -0.3818
vn -0.6651 0.7250 -0.1787
vn 0.6651 -0.7250 0.1788
vn 0.9934 -0.0912 -0.0701
vn 0.0263 -0.9794 0.2004
vn -0.4348 -0.8735 0.2189
vn -0.2795 0.1285 0.9515
vn -0.2488 0.1687 0.9537
vn -0.3516 0.0991 0.9309
vn -0.4170 0.0276 0.9084
vn -0.4393 0.0209 0.8981
vn -0.1776 0.1898 0.9656
vn -0.4546 -0.0179 0.8905
vn 0.0966 -0.2989 -0.9494
s off
f 2/1/1 18/2/1 1/3/1
f 2/1/2 17/4/2 18/5/2
f 16/6/3 1/7/3 20/8/3
f 17/9/4 2/10/4 1/3/4
f 8/11/5 22/12/5 25/13/5
f 7/14/6 12/15/6 1/16/6
f 8/17/7 24/18/7 7/19/7
f 23/20/3 25/21/3 22/22/3
f 23/20/8 22/22/8 20/8/8
f 10/23/9 11/24/9 1/7/9
f 12/25/10 23/20/10 20/8/10
f 16/6/3 17/26/3 1/7/3
f 12/25/11 20/8/11 1/7/11
f 1/7/12 11/24/12 12/25/12
f 10/27/13 1/16/13 11/28/13
f 18/29/13 7/14/13 1/16/13
f 7/14/14 24/30/14 23/31/14
f 11/28/13 1/16/13 12/15/13
f 7/14/15 23/31/15 12/15/15
f 8/17/16 25/32/16 24/18/16
s 1
f 6/33/17 21/34/18 19/35/19
f 5/36/20 6/37/17 19/38/19
f 5/36/20 19/38/19 4/39/21
f 6/33/17 9/40/22 21/34/18
f 5/41/20 4/42/21 3/43/23
f 15/44/24 13/45/24 14/46/24
