# Blender v2.79 (sub 0) OBJ File: 'testScene.blend'
# www.blender.org
o TeapotHandle_cell.029_TeapotHandle_cell.028
v -0.079434 -1.502757 0.101782
v -0.078515 -1.524093 0.104817
v -0.074399 -1.519709 0.105562
v -0.071079 -1.540059 0.065267
v -0.067081 -1.537164 0.063655
v -0.074514 -1.523371 0.053443
v -0.070097 -1.520700 0.051044
v -0.064228 -1.515577 0.050900
v -0.059205 -1.510276 0.052551
v -0.053079 -1.503099 0.055947
v -0.063273 -1.535558 0.060149
v -0.058925 -1.532812 0.057709
v -0.053233 -1.527498 0.057459
v -0.048411 -1.521978 0.058990
v -0.042571 -1.514492 0.062216
v -0.079530 -1.495476 0.101826
v -0.071122 -1.511769 0.106741
v -0.068936 -1.516896 0.108212
v -0.085146 -1.512782 0.099900
v -0.079384 -1.528777 0.106446
v -0.082685 -1.498934 0.099930
v -0.082872 -1.519370 0.102218
v -0.083921 -1.503839 0.099412
v -0.073972 -1.549724 0.068639
v -0.044199 -1.505755 0.061531
v -0.044961 -1.525422 0.061136
v -0.049593 -1.531131 0.059722
v -0.052209 -1.495577 0.056875
v -0.059021 -1.496110 0.052562
v -0.068522 -1.496832 0.047169
v -0.055159 -1.536571 0.060050
v -0.059517 -1.539307 0.062484
v -0.065195 -1.542033 0.066853
v -0.069930 -1.545970 0.068120
v -0.075642 -1.545230 0.066545
v -0.073699 -1.500094 0.044932
v -0.075281 -1.507158 0.045566
v -0.076761 -1.512861 0.047246
v -0.078615 -1.518547 0.051106
v -0.080291 -1.522662 0.055826
v -0.081217 -1.529067 0.059219
v -0.078463 -1.537041 0.062935
v -0.052209 -1.495577 0.056875
v -0.059021 -1.496110 0.052562
v -0.081217 -1.529067 0.059219
v -0.078463 -1.537041 0.062935
v -0.079434 -1.502757 0.101782
v -0.071122 -1.511769 0.106741
v -0.078615 -1.518547 0.051106
v -0.080291 -1.522662 0.055826
v -0.075642 -1.545230 0.066545
v -0.079384 -1.528777 0.106446
v -0.078515 -1.524093 0.104817
v -0.074399 -1.519709 0.105562
v -0.075281 -1.507158 0.045566
v -0.073699 -1.500094 0.044932
v -0.085146 -1.512782 0.099900
v -0.083921 -1.503839 0.099412
v -0.068936 -1.516896 0.108212
v -0.079530 -1.495476 0.101826
v -0.082685 -1.498934 0.099930
v -0.082872 -1.519370 0.102218
v -0.069930 -1.545970 0.068120
v -0.073972 -1.549724 0.068639
v -0.044199 -1.505755 0.061531
v -0.042571 -1.514492 0.062216
v -0.044961 -1.525422 0.061136
v -0.049593 -1.531131 0.059722
v -0.068522 -1.496832 0.047169
v -0.055159 -1.536571 0.060050
v -0.059517 -1.539307 0.062484
v -0.065195 -1.542033 0.066853
v -0.076761 -1.512861 0.047246
vt 0.882961 0.354546
vt 0.522389 0.000000
vt 1.000000 0.065946
vt 0.503294 0.247064
vt 1.000000 0.671883
vt 0.669432 0.669432
vt 0.527590 0.085408
vt 0.919315 0.000000
vt 0.755117 0.276824
vt 0.477599 0.059789
vt 0.573232 0.363048
vt 0.246955 0.246955
vt 0.760973 0.140023
vt 0.785075 0.503567
vt 0.469318 0.469318
vt 0.919315 0.919315
vt 0.384261 0.000000
vt 0.818593 0.000000
vt 0.219585 0.073016
vt 0.645671 0.098935
vt 0.649014 0.175398
vt 0.181407 0.000000
vt 0.597836 0.119923
vt 0.488563 0.377989
vt 1.000000 0.246955
vt 1.000000 0.067102
vt 0.923474 0.415414
vt 0.428977 0.000000
vt 0.671883 0.671883
vt 0.163970 0.000000
vt 0.137526 0.073842
vt 0.183305 0.078794
vt 1.000000 0.164337
vt 0.526488 0.526488
vt 0.164337 0.164337
vt 0.568241 0.472573
vt 0.243705 0.000000
vt 0.202120 0.106039
vt 0.622871 0.389883
vt 0.669580 0.247416
vt 0.654870 0.323343
vt 0.664420 0.017131
vt 0.459203 0.459203
vt 0.171442 0.109338
vt 0.615739 0.000000
vt 0.574157 0.216061
vt 0.503912 0.352280
vt 1.500000 0.287500
vt 1.468750 0.275000
vt 1.500000 0.275000
vt 1.474101 0.262500
vt 1.500000 0.262500
vt 1.500000 0.437500
vt 1.468750 0.418750
vt 1.468750 0.437500
vt 1.500000 0.400000
vt 1.468750 0.400000
vt 1.468750 0.475000
vt 1.468750 0.456250
vt 1.458817 0.475000
vt 1.458868 0.437500
vt 1.458858 0.456250
vt 1.458842 0.418750
vt 1.531250 0.275000
vt 1.500000 0.275000
vt 1.500000 0.287500
vt 1.526716 0.262500
vt 1.500000 0.387500
vt 1.500000 0.375000
vt 1.468750 0.387500
vt 1.500000 0.337500
vt 1.468750 0.350000
vt 1.500000 0.350000
vt 1.500000 0.300000
vt 1.468750 0.312500
vt 1.500000 0.312500
vt 1.468750 0.287500
vt 1.500000 0.250000
vt 1.468750 0.262500
vt 1.500000 0.262500
vt 1.482244 0.239399
vt 1.468750 0.250000
vt 1.458696 0.387500
vt 1.458777 0.400000
vt 1.468750 0.337500
vt 1.458543 0.350000
vt 1.468750 0.300000
vt 1.458621 0.312500
vt 1.468750 0.275000
vt 1.458866 0.287500
vt 1.459649 0.250000
vt 1.459322 0.262500
vt 1.518276 0.250000
vt 1.500000 0.237500
vt 1.481873 0.475000
vt 1.531250 0.296710
vt 1.531250 0.287500
vt 1.510476 0.262500
vt 1.522418 0.325000
vt 1.525980 0.312500
vt 1.500000 0.325000
vt 1.511794 0.375000
vt 1.494701 0.300000
vt 1.481825 0.312500
vt 1.468750 0.300000
vt 1.468750 0.325000
vt 1.468750 0.312500
vt 1.516503 0.350000
vt 1.530038 0.300000
vt 1.510191 0.250000
vt 1.500000 0.250805
vt 1.465159 0.493750
vt 1.468750 0.287500
vt 1.468750 0.265340
vt 1.500000 0.418750
vt 1.458537 0.337500
vt 1.458720 0.300000
vt 1.459064 0.275000
vt 1.496680 0.456250
vt 1.519281 0.337500
vn 0.6327 0.6731 0.3830
vn -0.9433 -0.3286 0.0470
vn -0.0852 0.9962 0.0168
vn -0.9494 -0.3121 0.0339
vn 0.8309 0.1956 0.5209
vn -0.9528 0.2573 -0.1611
vn 0.6285 -0.5946 0.5015
vn -0.9652 0.2012 -0.1673
vn -0.5844 0.7288 -0.3568
vn -0.0878 0.9960 0.0155
vn -0.4993 0.8607 -0.0997
vn -0.9484 -0.3152 0.0346
vn 0.7526 0.0059 0.6584
vn 0.7614 0.4565 0.4603
vn 0.5408 0.7294 0.4190
vn 0.8490 -0.2325 0.4745
vn 0.9583 -0.0827 0.2735
vn 0.3071 -0.8967 0.3188
vn 0.6408 -0.6290 0.4402
vn 0.6407 -0.6290 0.4403
vn 0.6307 -0.5979 0.4948
vn 0.5847 -0.6348 0.5051
vn -0.9891 0.0762 -0.1260
vn -0.9824 0.1271 -0.1367
vn -0.3953 0.1268 0.9097
vn -0.4194 0.1128 0.9008
vn -0.4590 0.0561 0.8866
vn -0.4619 0.0592 0.8849
vn -0.4795 0.0348 0.8768
vn 0.0248 -0.4590 -0.8881
vn -0.1980 -0.5907 -0.7822
vn 0.0921 -0.4379 -0.8943
vn -0.2602 -0.6176 -0.7421
vn -0.2080 -0.6193 -0.7570
vn 0.1832 -0.3674 -0.9118
vn 0.1694 -0.3886 -0.9057
vn -0.0673 -0.5486 -0.8333
vn 0.3913 -0.1028 -0.9145
vn 0.4535 -0.0594 -0.8892
vn 0.3240 -0.1992 -0.9248
vn 0.4529 -0.0426 -0.8905
vn -0.2425 -0.6103 -0.7541
vn 0.0493 -0.4289 -0.9020
vn 0.0738 -0.4502 -0.8899
vn 0.3350 -0.2152 -0.9173
vn 0.5162 0.0144 -0.8563
vn 0.4638 -0.0714 -0.8831
vn 0.5396 0.0360 -0.8411
vn 0.5105 -0.0063 -0.8599
vn -0.1540 -0.6290 -0.7619
vn 0.0882 -0.4615 -0.8827
vn 0.3439 -0.2235 -0.9120
vn 0.4628 -0.0858 -0.8823
vn 0.5036 0.0076 -0.8639
vn 0.5355 0.0421 -0.8435
vn 0.1366 -0.3743 -0.9172
vn 0.2818 -0.2105 -0.9361
vn -0.4921 0.0033 0.8705
vn 0.0733 -0.3836 -0.9206
vn -0.2089 -0.5645 -0.7985
vn -0.3009 0.2315 0.9251
vn -0.2464 0.2876 0.9255
vn -0.1683 0.3515 0.9209
vn -0.5055 -0.0118 0.8627
vn 0.2069 -0.3490 -0.9140
vn -0.4598 0.0582 0.8861
s off
f 25/1/1 28/2/1 16/3/1
f 52/4/2 35/5/2 64/6/2
f 30/7/3 21/8/3 29/9/3
f 41/10/4 42/11/4 22/12/4
f 17/13/5 15/14/5 25/15/5
f 21/16/6 36/17/6 23/18/6
f 2/19/7 34/20/7 33/21/7
f 23/22/8 37/23/8 40/24/8
f 52/4/2 22/25/2 35/5/2
f 16/26/9 28/27/9 21/8/9
f 29/9/10 21/8/10 28/27/10
f 36/28/11 21/8/11 30/7/11
f 35/29/4 22/12/4 42/11/4
f 19/30/12 41/10/12 22/12/12
f 25/15/13 16/31/13 1/32/13
f 17/13/14 18/33/14 15/14/14
f 25/15/15 1/32/15 17/13/15
f 15/34/16 18/35/16 26/36/16
f 2/19/17 52/37/17 34/20/17
f 18/35/18 3/38/18 26/36/18
f 27/39/19 26/36/19 32/40/19
f 32/40/20 31/41/20 27/39/20
f 33/21/19 32/40/19 26/36/19
f 26/36/21 3/38/21 33/21/21
f 52/37/19 64/42/19 34/20/19
f 33/21/22 3/38/22 2/19/22
f 41/43/23 19/44/23 40/24/23
f 23/22/8 36/45/8 37/23/8
f 37/23/8 38/46/8 39/47/8
f 40/24/24 19/44/24 23/22/24
f 37/23/8 39/47/8 40/24/8
s 1
f 57/48/25 54/49/26 58/50/27
f 54/49/26 48/51/28 47/52/29
f 45/53/30 5/54/31 4/55/32
f 50/56/33 11/57/34 5/54/31
f 51/58/35 4/59/32 63/60/36
f 4/55/32 72/61/37 63/62/36
f 4/55/32 5/54/31 72/61/37
f 5/54/31 11/57/34 72/63/37
f 56/64/38 9/65/39 8/66/40
f 56/64/38 69/67/41 9/65/39
f 50/68/33 6/69/42 11/70/34
f 7/71/43 11/72/34 6/73/42
f 8/74/40 12/75/44 7/76/43
f 9/65/39 13/77/45 8/66/40
f 10/78/46 14/79/47 9/80/39
f 10/78/46 65/81/48 66/82/49
f 11/70/34 71/83/50 72/84/37
f 12/85/44 71/86/50 11/72/34
f 13/87/45 70/88/51 12/75/44
f 14/89/47 68/90/52 13/77/45
f 14/79/47 66/91/49 67/92/53
f 44/93/54 43/94/55 10/78/46
f 46/95/56 4/59/32 51/58/35
f 55/96/57 56/97/38 8/74/40
f 61/98/58 58/50/27 47/52/29
f 73/99/59 55/100/57 7/101/43
f 49/102/60 6/69/42 50/68/33
f 57/103/25 62/104/61 53/105/62
f 62/104/61 20/106/63 53/107/62
f 44/93/54 9/80/39 69/67/41
f 49/108/60 7/71/43 6/73/42
f 55/109/57 8/74/40 7/76/43
f 60/110/64 61/98/58 47/111/29
f 24/112/65 51/58/35 63/60/36
f 54/113/26 57/103/25 53/105/62
f 47/52/29 58/50/27 54/49/26
f 54/49/26 59/114/66 48/51/28
f 45/53/30 50/115/33 5/54/31
f 7/71/43 12/85/44 11/72/34
f 8/74/40 13/87/45 12/75/44
f 9/65/39 14/89/47 13/77/45
f 10/78/46 66/82/49 14/79/47
f 10/78/46 43/94/55 65/81/48
f 12/85/44 70/116/51 71/86/50
f 13/87/45 68/117/52 70/88/51
f 14/89/47 67/118/53 68/90/52
f 46/95/56 45/119/30 4/59/32
f 44/93/54 10/78/46 9/80/39
f 49/108/60 73/120/59 7/71/43
