# Blender v2.79 (sub 0) OBJ File: 'testScene.blend'
# www.blender.org
o TeapotHandle_cell.045_TeapotHandle_cell.044
v -0.253060 -1.186964 0.093937
v -0.247955 -1.187176 0.093931
v -0.239095 -1.187467 0.093686
v -0.232239 -1.187514 0.092946
v -0.225716 -1.187288 0.091405
v -0.249713 -1.173388 0.051532
v -0.244243 -1.173614 0.051525
v -0.239245 -1.173797 0.051445
v -0.211825 -1.204646 0.076364
v -0.218690 -1.190165 0.053603
v -0.239132 -1.171546 0.093296
v -0.210466 -1.199111 0.075006
v -0.247583 -1.180496 0.096173
v -0.242677 -1.176333 0.097554
v -0.253330 -1.204070 0.088798
v -0.258625 -1.189834 0.092971
v -0.259314 -1.203516 0.088851
v -0.264729 -1.202870 0.088934
v -0.264604 -1.194946 0.091314
v -0.272564 -1.201945 0.089091
v -0.217377 -1.190465 0.091477
v -0.213816 -1.194186 0.091503
v -0.210255 -1.205121 0.089686
v -0.208885 -1.199436 0.091958
v -0.220724 -1.206424 0.086042
v -0.214300 -1.207430 0.087498
v -0.229194 -1.179304 0.095029
v -0.225428 -1.182102 0.093146
v -0.234715 -1.175190 0.097535
v -0.225941 -1.205884 0.085879
v -0.232481 -1.205707 0.087520
v -0.248229 -1.204533 0.088716
v -0.239355 -1.205279 0.088354
v -0.222005 -1.190251 0.043313
v -0.224159 -1.184720 0.046260
v -0.227519 -1.181192 0.048302
v -0.224848 -1.194543 0.043675
v -0.250156 -1.168379 0.053199
v -0.245895 -1.164844 0.054443
v -0.230852 -1.177707 0.049831
v -0.255922 -1.192158 0.045781
v -0.231037 -1.194291 0.044916
v -0.239511 -1.193649 0.045522
v -0.244523 -1.193210 0.045663
v -0.250007 -1.192709 0.045737
v -0.255792 -1.173123 0.051497
v -0.275340 -1.189954 0.046142
v -0.268913 -1.190702 0.045976
v -0.268900 -1.184279 0.047905
v -0.262231 -1.191493 0.045851
v -0.262026 -1.178424 0.049778
v -0.242677 -1.176333 0.097554
v -0.247583 -1.180496 0.096173
v -0.248229 -1.204533 0.088716
v -0.253330 -1.204070 0.088798
v -0.259314 -1.203516 0.088851
v -0.264729 -1.202870 0.088934
v -0.230852 -1.177707 0.049831
v -0.227519 -1.181192 0.048302
v -0.244523 -1.193210 0.045663
v -0.239511 -1.193649 0.045522
v -0.250007 -1.192709 0.045737
v -0.268913 -1.190702 0.045976
v -0.275340 -1.189954 0.046142
v -0.268900 -1.184279 0.047905
v -0.262231 -1.191493 0.045851
v -0.262026 -1.178424 0.049778
v -0.255792 -1.173123 0.051497
v -0.225716 -1.187288 0.091405
v -0.225428 -1.182102 0.093146
v -0.239355 -1.205279 0.088354
v -0.232481 -1.205707 0.087520
v -0.231037 -1.194291 0.044916
v -0.224848 -1.194543 0.043675
v -0.255922 -1.192158 0.045781
v -0.217377 -1.190465 0.091477
v -0.258625 -1.189834 0.092971
v -0.253060 -1.186964 0.093937
v -0.225941 -1.205884 0.085879
v -0.220724 -1.206424 0.086042
v -0.214300 -1.207430 0.087498
v -0.234715 -1.175190 0.097535
v -0.264604 -1.194946 0.091314
v -0.272564 -1.201945 0.089091
v -0.213816 -1.194186 0.091503
v -0.208885 -1.199436 0.091958
v -0.210255 -1.205121 0.089686
v -0.229194 -1.179304 0.095029
v -0.222005 -1.190251 0.043313
v -0.224159 -1.184720 0.046260
v -0.250156 -1.168379 0.053199
v -0.245895 -1.164844 0.054443
v -0.239245 -1.173797 0.051445
vt 0.000000 0.000000
vt 0.029941 0.000000
vt 0.036696 0.036696
vt 0.662786 0.319025
vt 0.575745 0.279390
vt 0.477955 0.101853
vt 0.000000 0.000000
vt 0.989300 0.000000
vt 0.184382 0.184382
vt 1.000000 0.000000
vt 0.989300 0.989300
vt 0.000000 0.000000
vt 0.560360 0.212163
vt 0.995196 0.995196
vt 0.000000 0.000000
vt 0.792407 0.178827
vt 0.153760 0.153760
vt 1.000000 0.000000
vt 0.238958 0.238958
vt 0.340733 0.340733
vt 0.439449 0.085960
vt 0.473299 0.473299
vt 1.000000 0.000000
vt 0.776138 0.458169
vt 0.651297 0.651297
vt 0.805295 0.000000
vt 1.000000 1.000000
vt 1.000000 0.238958
vt 0.549925 0.000000
vt 1.000000 0.000000
vt 0.941452 0.899392
vt 1.000000 0.840498
vt 1.000000 1.000000
vt 0.745568 0.745568
vt 1.000000 0.745719
vt 1.000000 1.000000
vt 1.000000 0.297137
vt 1.000000 0.420570
vt 0.767861 0.425186
vt 0.562339 0.168325
vt 0.868564 0.599007
vt 0.702941 0.036752
vt 0.844473 0.141611
vt 0.029941 0.029941
vt 0.362471 0.182157
vt 0.254281 0.000000
vt 0.726167 0.215397
vt 1.000000 0.340733
vt 1.000000 0.473299
vt 0.311094 0.000000
vt 0.361049 0.315641
vt 0.548102 0.000000
vt 0.955111 0.177065
vt 0.431972 0.431972
vt 0.311094 0.311094
vt 0.586639 0.305419
vt 0.443960 0.443960
vt 0.558858 0.484029
vt 0.199285 0.017572
vt 0.365858 0.087846
vt 1.000000 0.344024
vt 1.000000 0.651297
vt 0.420570 0.420570
vt 0.297137 0.297137
vt 0.376996 0.246960
vt 0.497959 0.371927
vt 0.563829 0.330347
vt 0.416978 0.221867
vt 0.764454 0.199306
vt 0.677782 0.257394
vt 0.610080 0.098988
vt 0.487838 0.177209
vt 1.000000 0.051895
vt 0.912550 0.099796
vt 0.752209 0.000000
vt 1.906250 0.512500
vt 1.875000 0.493750
vt 1.875000 0.512500
vt 1.906250 0.475000
vt 1.875000 0.456250
vt 1.875000 0.475000
vt 1.875000 0.550000
vt 1.875000 0.531250
vt 1.862888 0.531250
vt 1.854832 0.512500
vt 1.856181 0.456250
vt 1.852044 0.475000
vt 1.906250 0.337500
vt 1.875000 0.325000
vt 1.875000 0.337500
vt 1.906250 0.312500
vt 1.875000 0.300000
vt 1.875000 0.312500
vt 1.906250 0.287500
vt 1.883713 0.279622
vt 1.879837 0.287500
vt 1.903733 0.262500
vt 1.886094 0.275000
vt 1.906250 0.275000
vt 1.862339 0.337500
vt 1.859749 0.350000
vt 1.906250 0.550000
vt 1.875000 0.531250
vt 1.906250 0.531250
vt 1.875000 0.512500
vt 1.906250 0.512500
vt 1.906250 0.493750
vt 1.881325 0.475000
vt 1.906250 0.475000
vt 1.887351 0.456250
vt 1.906250 0.456250
vt 1.892520 0.437500
vt 1.906250 0.437500
vt 1.893762 0.431990
vt 1.896804 0.418750
vt 1.874739 0.568750
vt 1.865565 0.550000
vt 1.875000 0.550000
vt 1.861661 0.531250
vt 1.905854 0.568750
vt 1.883927 0.587500
vt 1.875000 0.568750
vt 1.905063 0.550000
vt 1.903690 0.606250
vt 1.902586 0.623413
vt 1.893409 0.606250
vt 1.904862 0.587500
vt 1.904249 0.568750
vt 1.889558 0.587500
vt 1.903157 0.587500
vt 1.880403 0.568750
vt 1.902006 0.606250
vt 1.906250 0.493750
vt 1.906250 0.456250
vt 1.848766 0.495561
vt 1.906250 0.325000
vt 1.906250 0.300000
vt 1.893304 0.262500
vt 1.875000 0.492417
vt 1.905833 0.531250
vn -0.0989 0.7012 0.7060
vn -0.4779 0.8256 0.3000
vn 0.9757 -0.1973 -0.0948
vn 0.8062 0.5882 -0.0639
vn 0.7297 0.6835 -0.0213
vn 0.5310 -0.8423 -0.0926
vn 0.8448 -0.3136 -0.4335
vn -0.6780 0.6955 0.2380
vn 0.6099 0.7912 0.0446
vn 0.9425 0.1373 -0.3048
vn 0.7412 -0.5262 -0.4169
vn 0.8379 0.4722 -0.2739
vn -0.6604 0.7123 0.2378
vn -0.1183 -0.9584 -0.2599
vn 0.7018 0.7083 0.0765
vn -0.0914 -0.9611 -0.2606
vn -0.6665 0.7062 0.2390
vn -0.6664 0.6951 0.2696
vn -0.6665 0.7060 0.2395
vn -0.6684 0.7044 0.2387
vn -0.7807 0.5877 0.2124
vn 0.9566 -0.2647 -0.1221
vn 0.6093 0.7917 -0.0442
vn 0.7967 0.6034 -0.0346
vn 0.6099 0.7912 0.0447
vn 0.7224 0.6912 -0.0196
vn 0.7184 0.6954 -0.0194
vn 0.3560 0.9345 -0.0049
vn 0.4410 0.8850 0.1495
vn 0.9510 0.0495 -0.3052
vn -0.1041 -0.9596 -0.2612
vn 0.0031 -0.2874 0.9578
vn 0.0627 -0.3019 0.9513
vn 0.0016 -0.3039 0.9527
vn 0.0588 -0.2866 0.9562
vn 0.1581 -0.2903 0.9438
vn -0.0132 -0.2955 0.9552
vn 0.0002 -0.3183 0.9480
vn 0.0312 -0.3176 0.9477
vn 0.1759 -0.3244 0.9294
vn 0.1066 -0.3318 0.9373
vn 0.1663 -0.2834 0.9445
vn 0.1339 -0.2992 0.9447
vn 0.0676 -0.2950 0.9531
vn -0.1698 -0.2767 0.9458
vn -0.1534 -0.2924 0.9439
vn -0.2945 -0.2617 0.9191
vn -0.3464 -0.2625 0.9006
vn -0.2867 -0.2677 0.9198
vn 0.2263 -0.3188 0.9204
vn 0.0160 0.2867 -0.9579
vn 0.0033 0.3015 -0.9535
vn 0.0051 0.2862 -0.9581
vn -0.0184 0.2937 -0.9557
vn -0.0262 0.2854 -0.9580
vn -0.0739 0.2852 -0.9556
vn -0.1214 0.2800 -0.9523
vn -0.1717 0.2896 -0.9416
vn -0.2715 0.2886 -0.9181
vn -0.2695 0.2626 -0.9265
vn -0.4893 0.2538 -0.8343
vn 0.0188 0.2947 -0.9554
vn 0.0146 0.3174 -0.9481
vn 0.0149 0.3021 -0.9531
vn 0.0080 0.3170 -0.9484
vn 0.0194 0.2872 -0.9576
vn 0.0187 0.2874 -0.9576
vn -0.0142 -0.2875 0.9577
vn 0.0127 0.2876 -0.9577
vn 0.0086 0.2876 -0.9577
vn 0.0142 0.2875 -0.9576
vn 0.0180 0.2874 -0.9576
vn -0.0189 -0.2874 0.9576
vn -0.0183 -0.2874 0.9576
vn -0.0173 -0.2874 0.9576
vn -0.0185 -0.2874 0.9576
vn -0.0146 -0.2875 0.9577
vn -0.3670 -0.2676 0.8909
s off
f 11/1/1 14/2/1 82/3/1
f 77/4/2 1/5/2 68/6/2
f 12/7/3 86/8/3 87/9/3
f 12/7/4 10/10/4 86/11/4
f 10/12/5 22/13/5 86/14/5
f 9/15/6 87/16/6 81/17/6
f 12/7/7 9/18/7 37/19/7
f 65/20/8 84/21/8 19/22/8
f 11/23/9 27/24/9 28/25/9
f 89/26/10 10/10/10 12/27/10
f 37/28/11 89/29/11 12/30/11
f 89/31/12 90/32/12 10/33/12
f 92/34/13 91/35/13 11/36/13
f 50/37/14 17/38/14 18/39/14
f 40/40/15 5/41/15 10/12/15
f 42/42/16 9/18/16 30/43/16
f 14/44/17 11/1/17 13/45/17
f 91/46/18 68/6/18 1/5/18
f 67/47/19 65/48/19 19/49/19
f 67/47/20 19/49/20 77/4/20
f 11/1/17 91/46/17 13/45/17
f 1/5/21 13/45/21 91/46/21
f 67/47/17 77/4/17 68/6/17
f 9/15/22 12/30/22 87/16/22
f 65/20/8 47/50/8 84/21/8
f 28/25/23 8/51/23 11/23/23
f 92/52/24 11/23/24 8/51/24
f 82/53/25 27/24/25 11/23/25
f 84/54/14 47/55/14 48/56/14
f 48/56/14 50/37/14 18/39/14
f 18/39/14 84/54/14 48/56/14
f 22/57/26 10/12/26 21/58/26
f 10/12/27 90/59/27 36/60/27
f 21/58/28 10/12/28 5/41/28
f 40/40/29 8/61/29 5/41/29
f 10/12/27 36/60/27 40/40/27
f 8/61/30 28/62/30 5/41/30
f 17/63/31 50/64/31 41/65/31
f 17/63/16 41/65/16 15/66/16
f 32/67/16 15/66/16 45/68/16
f 31/69/16 33/70/16 43/71/16
f 30/43/16 31/69/16 43/71/16
f 15/66/16 41/65/16 45/68/16
f 32/67/16 45/68/16 44/72/16
f 33/70/16 32/67/16 44/72/16
f 33/70/16 44/72/16 43/71/16
f 9/18/16 81/73/16 25/74/16
f 25/74/16 30/43/16 9/18/16
f 42/42/16 37/75/16 9/18/16
f 30/43/16 43/71/16 42/42/16
s 1
f 54/76/32 3/77/33 2/78/34
f 71/79/35 4/80/36 3/81/33
f 78/82/37 2/83/34 53/84/38
f 2/78/34 52/85/39 53/84/38
f 3/77/33 52/85/39 2/78/34
f 3/81/33 88/86/40 29/87/41
f 72/88/42 69/89/43 4/90/36
f 79/91/44 76/92/45 69/93/43
f 80/94/46 85/95/47 76/96/45
f 23/97/48 85/98/47 26/99/49
f 4/90/36 70/100/50 88/101/40
f 4/90/36 69/89/43 70/100/50
f 62/102/51 7/103/52 60/104/53
f 60/104/53 93/105/54 61/106/55
f 61/107/55 58/108/56 73/109/57
f 73/109/57 58/108/56 59/110/58
f 73/111/57 35/112/59 74/113/60
f 74/113/60 35/114/59 34/115/61
f 46/116/62 38/117/63 6/118/64
f 38/117/63 7/103/52 6/118/64
f 7/103/52 39/119/65 93/105/54
f 75/120/66 51/121/67 46/122/62
f 75/120/66 6/118/64 62/102/51
f 55/123/68 2/83/34 78/82/37
f 63/124/69 64/125/70 49/126/71
f 66/127/72 49/126/71 51/121/67
f 56/128/73 83/129/74 57/130/75
f 55/123/68 16/131/76 56/128/73
f 20/132/77 57/130/75 83/129/74
f 54/76/32 71/133/35 3/77/33
f 71/79/35 72/134/42 4/80/36
f 3/77/33 29/135/41 52/85/39
f 3/81/33 4/80/36 88/86/40
f 72/88/42 79/136/44 69/89/43
f 79/91/44 80/137/46 76/92/45
f 80/94/46 26/99/49 85/95/47
f 23/97/48 24/138/78 85/98/47
f 62/102/51 6/118/64 7/103/52
f 60/104/53 7/103/52 93/105/54
f 61/107/55 93/139/54 58/108/56
f 73/111/57 59/110/58 35/112/59
f 38/117/63 39/119/65 7/103/52
f 75/120/66 66/127/72 51/121/67
f 75/120/66 46/122/62 6/118/64
f 55/123/68 54/140/32 2/83/34
f 66/127/72 63/124/69 49/126/71
f 56/128/73 16/131/76 83/129/74
f 55/123/68 78/82/37 16/131/76
