# Blender v2.79 (sub 0) OBJ File: 'testScene.blend'
# www.blender.org
o TeapotHandle_cell.059_TeapotHandle_cell.058
v -0.200795 -1.253655 0.075985
v -0.200250 -1.250538 0.080980
v -0.201178 -1.241377 0.082789
v -0.205614 -1.242752 0.080426
v -0.208411 -1.255309 0.076352
v -0.213038 -1.245198 0.077213
v -0.215085 -1.256322 0.074300
v -0.218785 -1.247297 0.075747
v -0.220208 -1.257293 0.073779
v -0.224910 -1.250075 0.076101
v -0.230461 -1.252640 0.076657
v -0.217396 -1.238396 0.031789
v -0.218836 -1.249107 0.030866
v -0.222517 -1.240572 0.033222
v -0.226164 -1.250795 0.031741
v -0.227299 -1.242581 0.033383
v -0.233941 -1.245459 0.033094
v -0.238757 -1.247507 0.032688
v -0.244027 -1.249731 0.032161
v -0.233371 -1.260337 0.075413
v -0.226636 -1.258860 0.075012
v -0.238063 -1.255942 0.076365
v -0.242071 -1.262109 0.075194
v -0.233229 -1.252272 0.031769
v -0.238136 -1.253261 0.031585
v -0.248301 -1.263345 0.074857
v -0.248057 -1.255225 0.031028
v -0.201178 -1.241377 0.082789
v -0.205614 -1.242752 0.080426
v -0.238757 -1.247507 0.032688
v -0.233941 -1.245459 0.033094
v -0.244027 -1.249731 0.032161
v -0.233229 -1.252272 0.031769
v -0.238136 -1.253261 0.031585
v -0.200250 -1.250538 0.080980
v -0.233371 -1.260337 0.075413
v -0.226636 -1.258860 0.075012
v -0.242071 -1.262109 0.075194
v -0.248057 -1.255225 0.031028
v -0.200795 -1.253655 0.075985
v -0.208411 -1.255309 0.076352
v -0.213038 -1.245198 0.077213
v -0.215085 -1.256322 0.074300
v -0.218785 -1.247297 0.075747
v -0.220208 -1.257293 0.073779
v -0.224910 -1.250075 0.076101
v -0.230461 -1.252640 0.076657
v -0.238063 -1.255942 0.076365
v -0.217396 -1.238396 0.031789
v -0.218836 -1.249107 0.030866
v -0.222517 -1.240572 0.033222
v -0.226164 -1.250795 0.031741
v -0.227299 -1.242581 0.033383
vt 0.351265 0.186080
vt 0.460861 0.109430
vt 0.535333 0.306681
vt 0.389531 0.016319
vt 0.855794 0.565610
vt 0.478752 0.312925
vt 0.950388 0.000000
vt 1.000000 0.610524
vt 1.000000 1.000000
vt 0.603334 0.046101
vt 0.656546 0.000000
vt 0.757166 0.166004
vt 0.664250 0.664250
vt 0.450803 0.450803
vt 0.641421 0.604262
vt 0.304809 0.064277
vt 0.393474 0.297371
vt 0.591124 0.459232
vt 0.280226 0.000000
vt 0.419124 0.000000
vt 1.000000 0.450803
vt 0.701045 0.240465
vt 0.257789 0.167348
vt 0.001145 0.000000
vt 0.652761 0.652761
vt 0.601275 0.000000
vt 0.419559 0.419559
vt 0.336838 0.241021
vt 0.496291 0.365129
vt 0.402956 0.194077
vt 0.602626 0.288332
vt 0.516885 0.111795
vt 0.683108 0.227099
vt 1.000000 0.018543
vt 0.908726 0.068962
vt 0.821050 0.122006
vt 2.000000 0.512500
vt 2.000000 0.493750
vt 1.992936 0.512500
vt 2.000000 0.475000
vt 1.988795 0.475000
vt 1.990752 0.493750
vt 2.000000 0.456250
vt 1.999929 0.437500
vt 1.985680 0.437500
vt 1.987093 0.456250
vt 1.995121 0.550000
vt 2.000000 0.531250
vt 2.000000 0.550000
vt 1.992538 0.531250
vt 2.000000 0.512500
vt 1.987919 0.493750
vt 2.000000 0.480961
vt 2.000000 0.493750
vt 1.998099 0.287500
vt 1.997545 0.275000
vt 1.979029 0.287500
vt 1.999831 0.475000
vt 1.986004 0.475000
vt 1.984427 0.456250
vt 1.980709 0.300000
vt 1.989252 0.250000
vt 1.972187 0.250000
vt 1.974813 0.262500
vt 1.998990 0.437500
vt 1.999372 0.456250
vt 1.983118 0.437500
vt 1.998993 0.312500
vt 1.982167 0.312500
vt 1.983516 0.325000
vt 1.996904 0.262500
vt 1.977077 0.275000
vt 1.999661 0.337500
vt 1.999351 0.325000
vt 1.984679 0.337500
vt 1.982102 0.418750
vt 1.998578 0.300000
vt 1.990128 0.512500
vt 1.996351 0.253592
vn -0.8427 0.5259 0.1150
vn -0.3764 0.9103 0.1724
vn 0.9720 0.1363 -0.1913
vn 0.2007 -0.9635 -0.1774
vn -0.3977 0.8997 0.1801
vn -0.3971 0.8770 0.2703
vn -0.8121 0.5746 0.1019
vn -0.2014 0.9389 0.2792
vn -0.3761 0.9095 0.1768
vn -0.3743 0.9112 0.1723
vn -0.3429 0.9227 0.1760
vn -0.3748 0.9110 0.1724
vn 0.9214 -0.0914 -0.3776
vn 0.9390 0.1886 -0.2876
vn 0.2007 -0.9635 -0.1773
vn 0.0153 -0.1960 0.9805
vn 0.0511 -0.1877 0.9809
vn 0.0254 -0.1856 0.9823
vn 0.1158 -0.1711 0.9784
vn 0.1631 -0.1740 0.9711
vn 0.1747 -0.1821 0.9676
vn 0.0177 0.1897 -0.9817
vn 0.0089 0.1890 -0.9819
vn 0.0176 0.1896 -0.9817
vn 0.0075 0.1900 -0.9817
vn -0.0200 0.1881 -0.9819
vn -0.0240 0.1897 -0.9815
vn -0.0909 0.1905 -0.9774
vn -0.1572 -0.1974 0.9676
vn -0.2363 -0.3398 0.9103
vn -0.2602 -0.2199 0.9402
vn -0.0802 0.1848 -0.9795
vn -0.2231 0.1576 -0.9619
vn -0.0439 -0.2141 0.9758
vn -0.2459 -0.4317 0.8678
vn -0.4059 -0.2165 0.8879
vn -0.3760 -0.2162 0.9010
vn -0.2064 0.1766 -0.9624
vn 0.0952 -0.1837 0.9783
vn -0.3157 0.1235 -0.9408
vn 0.2065 -0.8400 0.5018
s off
f 18/1/1 38/2/1 22/3/1
f 49/4/2 8/5/2 42/6/2
f 3/7/3 2/8/3 40/9/3
f 15/10/4 50/11/4 9/12/4
f 8/13/5 16/14/5 46/15/5
f 18/1/6 19/16/6 38/2/6
f 16/14/5 17/17/5 46/15/5
f 22/3/5 17/17/5 18/1/5
f 46/15/5 17/17/5 11/18/5
f 19/16/7 39/19/7 26/20/7
f 26/20/8 38/2/8 19/16/8
f 11/18/5 17/17/5 22/3/5
f 16/21/9 8/5/9 51/22/9
f 4/23/10 3/24/10 49/4/10
f 8/5/11 49/4/11 51/22/11
f 4/23/12 49/4/12 42/6/12
f 40/9/13 50/25/13 49/26/13
f 49/26/14 3/7/14 40/9/14
f 26/27/4 39/28/4 38/29/4
f 39/28/4 25/30/4 38/29/4
f 20/31/4 25/30/4 24/32/4
f 9/12/4 21/33/4 15/10/4
f 40/34/15 5/35/15 7/36/15
f 21/33/4 20/31/4 24/32/4
f 50/11/4 40/34/4 7/36/4
f 38/29/4 25/30/4 20/31/4
f 50/11/4 7/36/4 9/12/4
f 21/33/4 24/32/4 15/10/4
s 1
f 23/37/16 36/38/17 48/39/18
f 36/40/17 47/41/19 48/42/18
f 36/40/17 37/43/20 47/41/19
f 37/44/20 10/45/21 47/46/19
f 32/47/22 34/48/23 27/49/24
f 30/50/25 33/51/26 34/48/23
f 31/52/27 52/53/28 33/54/26
f 43/55/29 41/56/30 6/57/31
f 52/58/28 53/59/32 14/60/33
f 43/55/29 6/57/31 44/61/34
f 35/62/35 28/63/36 29/64/37
f 13/65/38 52/66/28 14/67/33
f 45/68/39 44/69/34 10/70/21
f 41/71/30 29/64/37 6/72/31
f 37/73/20 45/74/39 10/75/21
f 12/76/40 13/65/38 14/67/33
f 45/68/39 43/77/29 44/69/34
f 32/47/22 30/50/25 34/48/23
f 30/50/25 31/78/27 33/51/26
f 31/52/27 53/59/32 52/53/28
f 29/64/37 41/71/30 35/62/35
f 1/79/41 35/62/35 41/71/30
