# Blender v2.79 (sub 0) OBJ File: 'testScene.blend'
# www.blender.org
o TeapotHandle_cell.036_TeapotHandle_cell.035
v -0.190210 -1.291524 0.074066
v -0.185202 -1.290813 0.076817
v -0.179622 -1.290050 0.080151
v -0.173431 -1.289231 0.084108
v -0.182594 -1.284114 0.020155
v -0.173609 -1.282754 0.024314
v -0.168285 -1.281998 0.027239
v -0.162353 -1.281186 0.030783
v -0.155772 -1.280316 0.034989
v -0.148502 -1.279383 0.039899
v -0.193297 -1.300941 0.059763
v -0.151660 -1.281695 0.100715
v -0.150689 -1.286994 0.100050
v -0.123221 -1.270183 0.060043
v -0.129010 -1.260401 0.058377
v -0.125904 -1.265465 0.059314
v -0.122090 -1.276445 0.059242
v -0.131243 -1.279566 0.051781
v -0.134914 -1.262229 0.053608
v -0.157299 -1.272422 0.099115
v -0.142947 -1.264722 0.047321
v -0.161693 -1.272740 0.095944
v -0.150694 -1.267134 0.041483
v -0.157737 -1.269335 0.036409
v -0.164115 -1.271337 0.032057
v -0.168981 -1.275009 0.090452
v -0.175606 -1.277079 0.085680
v -0.181606 -1.278962 0.081585
v -0.139625 -1.282427 0.045167
v -0.147275 -1.285041 0.039358
v -0.154231 -1.287421 0.034310
v -0.160532 -1.289580 0.029981
v -0.158574 -1.289685 0.093829
v -0.165770 -1.292144 0.088364
v -0.172314 -1.294383 0.083616
v -0.178242 -1.296414 0.079543
v -0.169868 -1.273151 0.028383
v -0.175034 -1.274789 0.025344
v -0.179652 -1.276263 0.022897
v -0.187017 -1.280669 0.078129
v -0.193447 -1.282711 0.074438
v -0.166920 -1.291773 0.025912
v -0.171354 -1.293150 0.023321
v -0.175959 -1.294552 0.020907
v -0.181039 -1.291286 0.019470
v -0.183612 -1.298144 0.076117
v -0.188448 -1.299647 0.073290
v -0.194450 -1.301521 0.070250
v -0.194111 -1.294829 0.071605
v -0.187171 -1.280061 0.019441
v -0.187488 -1.287352 0.018178
v -0.123221 -1.270183 0.060043
v -0.125904 -1.265465 0.059314
v -0.122090 -1.276445 0.059242
v -0.131243 -1.279566 0.051781
v -0.139625 -1.282427 0.045167
v -0.134914 -1.262229 0.053608
v -0.142947 -1.264722 0.047321
v -0.150694 -1.267134 0.041483
v -0.157737 -1.269335 0.036409
v -0.164115 -1.271337 0.032057
v -0.168981 -1.275009 0.090452
v -0.161693 -1.272740 0.095944
v -0.175606 -1.277079 0.085680
v -0.181606 -1.278962 0.081585
v -0.158574 -1.289685 0.093829
v -0.150689 -1.286994 0.100050
v -0.147275 -1.285041 0.039358
v -0.154231 -1.287421 0.034310
v -0.160532 -1.289580 0.029981
v -0.165770 -1.292144 0.088364
v -0.172314 -1.294383 0.083616
v -0.178242 -1.296414 0.079543
v -0.169868 -1.273151 0.028383
v -0.175034 -1.274789 0.025344
v -0.179652 -1.276263 0.022897
v -0.187017 -1.280669 0.078129
v -0.171354 -1.293150 0.023321
v -0.166920 -1.291773 0.025912
v -0.188448 -1.299647 0.073290
v -0.183612 -1.298144 0.076117
v -0.175959 -1.294552 0.020907
v -0.181039 -1.291286 0.019470
v -0.187171 -1.280061 0.019441
v -0.187488 -1.287352 0.018178
v -0.151660 -1.281695 0.100715
v -0.129010 -1.260401 0.058377
v -0.157299 -1.272422 0.099115
v -0.193447 -1.282711 0.074438
v -0.194111 -1.294829 0.071605
v -0.194450 -1.301521 0.070250
vt 0.000000 0.000000
vt 0.507417 0.233795
vt 0.421296 0.421296
vt 0.552495 0.066117
vt 0.632551 0.122150
vt 0.548820 0.301640
vt 0.655216 0.291980
vt 0.707986 0.132453
vt 1.000000 0.636410
vt 0.736676 0.203765
vt 1.000000 0.000000
vt 0.589281 0.369285
vt 0.439601 0.376577
vt 0.716801 0.612856
vt 0.603165 0.603165
vt 0.539627 0.000000
vt 0.899582 0.073539
vt 1.000000 1.000000
vt 0.471829 0.106154
vt 0.695248 0.263289
vt 0.679818 0.367481
vt 0.578335 0.071049
vt 1.000000 0.370663
vt 1.000000 0.603165
vt 0.942718 0.332646
vt 0.905435 0.540912
vt 0.778232 0.456437
vt 0.825147 0.253786
vt 0.657180 0.375217
vt 0.723215 0.184574
vt 0.452441 0.235280
vt 0.482372 0.016072
vt 0.292789 0.122511
vt 0.228098 0.075251
vt 0.129487 0.000000
vt 0.367333 0.175713
vt 1.000000 0.424293
vt 0.363066 0.000000
vt 0.728498 0.728498
vt 0.914544 0.000000
vt 1.000000 0.421296
vt 0.863625 0.576754
vt 1.000000 0.424476
vt 0.895705 0.895705
vt 0.736452 0.493491
vt 1.000000 0.329066
vt 0.636410 0.636410
vt 0.428156 0.400719
vt 0.445071 0.292648
vt 0.661836 0.482367
vt 0.459586 0.194637
vt 0.708263 0.169227
vt 0.481927 0.026668
vt 0.727591 0.009229
vt 0.718998 0.084727
vt 0.484963 0.000000
vt 1.937500 0.250000
vt 1.923231 0.237500
vt 1.937500 0.237500
vt 1.924864 0.225000
vt 1.937500 0.225000
vt 1.927031 0.212500
vt 1.937500 0.212500
vt 1.937500 0.200000
vt 1.950402 0.162500
vt 1.937500 0.162500
vt 1.937500 0.175000
vt 1.937500 0.287500
vt 1.937500 0.275000
vt 1.924934 0.275000
vt 1.937500 0.262500
vt 1.917821 0.262500
vt 1.937500 0.250000
vt 1.919835 0.239220
vt 1.918788 0.250000
vt 1.937500 0.237500
vt 1.921822 0.225000
vt 1.920046 0.237500
vt 1.937500 0.225000
vt 1.923918 0.212500
vt 1.937500 0.212500
vt 1.926391 0.200000
vt 1.937500 0.200000
vt 1.929314 0.187500
vt 1.932516 0.262500
vt 1.921959 0.250000
vt 1.948775 0.275000
vt 1.937500 0.187500
vt 1.952719 0.176251
vt 1.968627 0.187500
vt 1.958183 0.212500
vt 1.964761 0.187500
vt 1.937500 0.187500
vt 1.964946 0.200000
vt 1.956954 0.237500
vt 1.959192 0.225000
vt 1.950076 0.262500
vt 1.953459 0.237500
vt 1.955060 0.250000
vt 1.954477 0.254519
vt 1.937500 0.260468
vt 1.961832 0.212500
vt 1.968985 0.175000
vt 1.971850 0.167730
vt 1.968750 0.166850
vt 1.961198 0.200000
vt 1.955627 0.225000
vt 1.951625 0.250000
vt 1.924166 0.229694
vt 1.968750 0.175000
vt 1.960855 0.164848
vt 1.920889 0.262500
vt 1.968750 0.180901
vt 1.937500 0.175000
vn -0.4412 -0.8330 -0.3339
vn -0.3197 0.9470 0.0329
vn 0.8079 0.0711 0.5850
vn 0.3066 -0.9516 -0.0189
vn 0.6358 0.4990 0.5888
vn -0.9908 0.0798 -0.1092
vn 0.3313 -0.9435 -0.0117
vn -0.4412 -0.8330 -0.3338
vn -0.1843 0.9700 0.1582
vn -0.3196 0.9470 0.0329
vn -0.4479 0.8940 -0.0080
vn 0.8075 0.0744 0.5852
vn 0.6580 0.4656 0.5919
vn 0.3066 -0.9516 -0.0188
vn 0.3018 -0.9531 -0.0221
vn 0.6401 0.4912 0.5908
vn -0.9919 0.0717 -0.1051
vn -0.9910 0.0634 -0.1177
vn 0.3303 -0.9438 -0.0100
vn 0.3179 -0.9479 -0.0197
vn 0.3302 -0.9438 -0.0100
vn -0.4313 -0.1878 0.8824
vn -0.4680 -0.1841 0.8643
vn -0.4667 -0.1908 0.8636
vn -0.4967 -0.1886 0.8472
vn -0.4967 -0.1934 0.8461
vn -0.5202 -0.1923 0.8321
vn -0.5207 -0.1966 0.8307
vn -0.5392 -0.1996 0.8181
vn 0.5754 0.2051 -0.7917
vn 0.5686 0.2041 -0.7969
vn 0.2822 0.1517 -0.9473
vn 0.3335 0.1715 -0.9270
vn 0.3439 0.1629 -0.9248
vn 0.3962 0.1763 -0.9011
vn 0.4253 0.1831 -0.8863
vn 0.4660 0.1825 -0.8657
vn 0.4328 0.1783 -0.8837
vn 0.4681 0.1893 -0.8631
vn 0.4958 0.1876 -0.8479
vn 0.4967 0.1934 -0.8461
vn 0.5202 0.1923 -0.8321
vn 0.5202 0.1964 -0.8311
vn 0.5398 0.1953 -0.8188
vn 0.5401 0.1989 -0.8177
vn 0.5556 0.2014 -0.8066
vn -0.4094 -0.1739 0.8956
vn -0.4299 -0.1741 0.8859
vn 0.3052 0.1798 -0.9351
vn -0.5545 -0.2026 0.8072
vn -0.5628 -0.2037 0.8011
vn -0.5561 -0.2031 0.8059
vn 0.5208 0.2005 -0.8298
vn 0.5569 0.2030 -0.8054
vn -0.5407 -0.2015 0.8167
vn -0.4648 -0.1949 0.8637
vn -0.4974 -0.1982 0.8445
vn 0.3839 0.1840 -0.9048
vn 0.4689 0.1953 -0.8614
vn -0.4358 -0.1936 0.8790
vn -0.5208 -0.2005 0.8298
vn 0.5699 0.2047 -0.7958
vn 0.5754 0.2065 -0.7914
vn 0.5753 0.2055 -0.7917
vn 0.5402 0.2023 -0.8168
vn 0.4974 0.1982 -0.8445
vn 0.4338 0.1915 -0.8804
vn -0.4053 -0.1617 0.8997
vn -0.5632 -0.2044 0.8006
vn -0.5626 -0.2037 0.8012
s off
f 11/1/1 45/2/1 44/3/1
f 40/4/2 28/5/2 24/6/2
f 14/7/3 12/8/3 17/9/3
f 47/10/4 11/11/4 46/12/4
f 20/13/5 16/14/5 87/15/5
f 41/16/6 50/17/6 11/18/6
f 35/19/7 30/20/7 29/21/7
f 11/1/8 85/22/8 45/2/8
f 20/23/9 87/24/9 63/25/9
f 57/26/2 58/27/2 62/28/2
f 23/29/2 28/5/2 27/30/2
f 25/31/10 41/32/10 40/4/10
f 38/33/10 76/34/10 41/32/10
f 50/35/11 41/32/11 76/34/11
f 41/32/2 37/36/2 38/33/2
f 25/31/2 40/4/2 24/6/2
f 58/27/2 23/29/2 27/30/2
f 63/25/2 87/24/2 57/26/2
f 62/28/2 63/25/2 57/26/2
f 24/6/2 28/5/2 23/29/2
f 25/31/2 37/36/2 41/32/2
f 27/30/2 62/28/2 58/27/2
f 13/37/12 17/9/12 12/8/12
f 14/7/13 16/38/13 12/8/13
f 42/39/14 46/12/14 11/11/14
f 47/10/14 91/40/14 11/11/14
f 11/11/15 44/41/15 43/42/15
f 43/42/14 42/39/14 11/11/14
f 20/13/16 12/43/16 16/14/16
f 11/18/17 91/44/17 49/45/17
f 49/45/6 41/16/6 11/18/6
f 50/17/18 85/46/18 11/18/18
f 17/47/7 13/48/7 33/49/7
f 17/47/7 33/49/7 18/50/7
f 29/21/7 34/51/7 35/19/7
f 31/52/7 30/20/7 36/53/7
f 42/54/19 32/55/19 46/56/19
f 36/53/20 46/56/20 31/52/20
f 33/49/7 34/51/7 18/50/7
f 35/19/7 36/53/7 30/20/7
f 32/55/21 31/52/21 46/56/21
f 18/50/7 34/51/7 29/21/7
s 1
f 1/57/22 81/58/23 2/59/24
f 2/59/24 73/60/25 3/61/26
f 3/61/26 72/62/27 4/63/28
f 4/63/28 72/62/27 71/64/29
f 52/65/30 54/66/30 55/67/31
f 51/68/32 5/69/33 83/70/34
f 5/71/33 82/72/35 83/70/34
f 6/73/36 82/72/35 5/71/33
f 6/73/36 79/74/37 78/75/38
f 7/76/39 70/77/40 79/78/37
f 8/79/41 69/80/42 70/77/40
f 9/81/43 68/82/44 69/80/42
f 10/83/45 56/84/46 68/82/44
f 90/85/47 80/86/48 1/57/22
f 51/68/32 84/87/49 5/69/33
f 66/88/50 86/89/51 22/90/52
f 60/91/53 10/83/45 9/81/43
f 21/92/54 55/67/31 56/93/46
f 26/94/55 66/88/50 22/90/52
f 77/95/56 3/61/26 65/96/57
f 84/87/49 39/97/58 5/69/33
f 74/98/59 8/79/41 7/76/39
f 89/99/60 2/59/24 77/95/56
f 39/97/58 6/73/36 5/71/33
f 26/94/55 4/63/28 71/64/29
f 89/100/60 90/101/47 1/57/22
f 65/96/57 4/63/28 64/102/61
f 19/103/62 15/104/63 53/105/64
f 21/92/54 10/83/45 59/106/65
f 61/107/66 9/81/43 8/79/41
f 75/108/67 7/76/39 6/73/36
f 1/57/22 80/86/48 81/58/23
f 2/59/24 81/109/23 73/60/25
f 3/61/26 73/60/25 72/62/27
f 55/67/31 19/110/62 53/111/64
f 53/111/64 52/65/30 55/67/31
f 6/73/36 78/75/38 82/72/35
f 6/73/36 7/76/39 79/74/37
f 7/76/39 8/79/41 70/77/40
f 8/79/41 9/81/43 69/80/42
f 9/81/43 10/83/45 68/82/44
f 90/85/47 48/112/68 80/86/48
f 88/113/69 22/90/52 86/89/51
f 66/88/50 67/114/70 86/89/51
f 60/91/53 59/106/65 10/83/45
f 21/92/54 19/110/62 55/67/31
f 26/94/55 71/64/29 66/88/50
f 77/95/56 2/59/24 3/61/26
f 74/98/59 61/107/66 8/79/41
f 89/99/60 1/57/22 2/59/24
f 39/97/58 75/108/67 6/73/36
f 26/94/55 64/102/61 4/63/28
f 65/96/57 3/61/26 4/63/28
f 21/92/54 56/93/46 10/83/45
f 61/107/66 60/91/53 9/81/43
f 75/108/67 74/98/59 7/76/39
