# Blender v2.79 (sub 0) OBJ File: 'testScene.blend'
# www.blender.org
o TeapotHandle_cell.011_TeapotHandle_cell.010
v -0.102006 -1.464562 0.055959
v -0.132930 -1.482497 0.048454
v -0.105673 -1.450805 0.050397
v -0.118813 -1.448809 0.084451
v -0.115251 -1.455228 0.086048
v -0.123833 -1.449510 0.081694
v -0.121778 -1.460001 0.082532
v -0.127194 -1.458334 0.080201
v -0.128832 -1.464376 0.080264
v -0.097688 -1.459020 0.035183
v -0.100618 -1.454584 0.033825
v -0.098143 -1.466177 0.034851
v -0.107653 -1.458722 0.030633
v -0.103804 -1.470664 0.032890
v -0.112654 -1.461315 0.029341
v -0.117735 -1.463702 0.029290
v -0.110120 -1.475230 0.032818
v -0.122838 -1.465365 0.031373
v -0.114546 -1.477919 0.035215
v -0.120252 -1.480589 0.039582
v -0.127372 -1.466319 0.034744
v -0.129567 -1.471574 0.036982
v -0.126097 -1.483002 0.040307
v -0.131593 -1.477634 0.038473
v -0.133476 -1.485128 0.039955
v -0.100618 -1.454584 0.033825
v -0.097688 -1.459020 0.035183
v -0.115251 -1.455228 0.086048
v -0.118813 -1.448809 0.084451
v -0.123833 -1.449510 0.081694
v -0.121778 -1.460001 0.082532
v -0.127194 -1.458334 0.080201
v -0.128832 -1.464376 0.080264
v -0.098143 -1.466177 0.034851
v -0.107653 -1.458722 0.030633
v -0.103804 -1.470664 0.032890
v -0.112654 -1.461315 0.029341
v -0.117735 -1.463702 0.029290
v -0.110120 -1.475230 0.032818
v -0.122838 -1.465365 0.031373
v -0.114546 -1.477919 0.035215
v -0.120252 -1.480589 0.039582
v -0.127372 -1.466319 0.034744
v -0.129567 -1.471574 0.036982
v -0.126097 -1.483002 0.040307
v -0.131593 -1.477634 0.038473
v -0.133476 -1.485128 0.039955
vt 1.000000 0.000000
vt 0.615034 0.258549
vt 0.000000 0.000000
vt 0.582351 0.133753
vt 0.508527 0.203066
vt 0.000000 0.000000
vt 1.000000 0.000000
vt 0.717402 0.493716
vt 0.587386 0.587386
vt 1.000000 0.000000
vt 0.571550 0.571550
vt 0.925742 0.065671
vt 0.599110 0.599110
vt 0.000000 0.000000
vt 1.000000 0.491416
vt 0.102935 0.102935
vt 0.257224 0.161732
vt 0.253913 0.253913
vt 0.199456 0.199456
vt 0.506719 0.067091
vt 0.491416 0.491416
vt 0.464754 0.139853
vt 1.000000 0.420694
vt 0.509795 0.509795
vt 0.571550 0.000000
vt 0.774303 0.235903
vt 0.497396 0.403739
vt 0.420694 0.420694
vt 0.239404 0.239404
vt 1.000000 0.277078
vt 0.277078 0.277078
vt 0.406138 0.245158
vt 0.584283 0.034312
vt 0.930377 0.404673
vt 1.000000 0.599110
vt 1.000000 0.199456
vt 0.243449 0.023123
vt 0.200257 0.000000
vt 1.000000 0.013204
vt 1.000000 1.000000
vt 1.000000 0.471144
vt 0.033696 0.000000
vt 1.000000 0.253913
vt 0.822309 0.325670
vt 1.605762 0.493750
vt 1.611858 0.475000
vt 1.596307 0.475000
vt 1.618325 0.300000
vt 1.617433 0.287500
vt 1.595553 0.300000
vt 1.595510 0.312500
vt 1.619101 0.312500
vt 1.616768 0.456250
vt 1.622147 0.387500
vt 1.594432 0.387500
vt 1.594167 0.400000
vt 1.620257 0.337500
vt 1.595112 0.350000
vt 1.620772 0.350000
vt 1.595317 0.456250
vt 1.620525 0.437500
vt 1.594427 0.437500
vt 1.616448 0.275000
vt 1.605286 0.262500
vt 1.595467 0.275000
vt 1.595541 0.287500
vt 1.623041 0.418750
vt 1.622567 0.400000
vt 1.593912 0.418750
vt 1.624662 0.262500
vt 1.619590 0.275000
vt 1.605033 0.262500
vt 1.605645 0.275000
vt 1.614896 0.287500
vt 1.606271 0.287500
vt 1.619316 0.250000
vt 1.595284 0.337500
vt 1.615357 0.262500
vt 1.608971 0.250000
vn 0.8936 0.3512 0.2794
vn 0.5764 -0.8000 0.1667
vn 0.3928 -0.8368 0.3813
vn 0.8919 0.3523 0.2834
vn -0.0880 0.9918 -0.0921
vn -0.9704 0.2413 -0.0124
vn -0.3722 0.8739 -0.3128
vn -0.9504 0.3091 -0.0353
vn -0.9299 0.3629 -0.0601
vn 0.3762 -0.8251 0.4216
vn -0.4036 0.8651 -0.2980
vn 0.8118 0.5721 0.1172
vn 0.9802 -0.0710 0.1848
vn 0.5376 -0.8186 0.2022
vn 0.2546 -0.9283 0.2711
vn 0.8078 0.5181 0.2813
vn -0.9649 0.2614 -0.0271
vn -0.9294 0.3642 -0.0603
vn 0.3762 -0.8251 0.4215
vn -0.4177 0.8649 -0.2782
vn -0.4036 0.8651 -0.2978
vn 0.1093 -0.2193 -0.9695
vn 0.0816 -0.2463 -0.9657
vn 0.0482 -0.2558 -0.9655
vn 0.1943 -0.1665 -0.9667
vn 0.3501 -0.0482 -0.9355
vn 0.2656 -0.1323 -0.9550
vn -0.0439 -0.3268 -0.9441
vn -0.0721 -0.3351 -0.9394
vn -0.0442 -0.3279 -0.9437
vn -0.3417 -0.4571 -0.8211
vn -0.3027 -0.4561 -0.8368
vn -0.2063 -0.3994 -0.8932
vn 0.4154 0.0082 -0.9095
vn 0.3891 -0.0246 -0.9209
vn -0.3361 -0.4484 -0.8282
vn -0.4554 -0.0180 0.8901
vn -0.3808 0.0538 0.9231
vn -0.4161 0.0160 0.9092
vn -0.3647 0.1086 0.9248
vn -0.4690 -0.0270 0.8827
vn 0.4152 -0.0042 -0.9097
vn -0.4559 -0.0317 0.8894
s off
f 1/1/1 27/2/1 3/3/1
f 19/4/2 17/5/2 1/6/2
f 2/7/3 45/8/3 42/9/3
f 3/10/4 28/11/4 1/6/4
f 3/3/5 30/12/5 29/13/5
f 2/14/6 46/15/6 47/16/6
f 3/3/7 35/17/7 37/18/7
f 33/19/8 44/20/8 46/21/8
f 32/22/9 21/23/9 44/24/9
f 28/25/10 31/26/10 1/6/10
f 3/10/11 18/27/11 21/28/11
f 26/29/12 3/3/12 27/2/12
f 1/1/13 34/30/13 27/2/13
f 34/31/2 1/6/2 36/32/2
f 42/33/14 19/4/14 1/6/14
f 17/5/2 36/32/2 1/6/2
f 42/9/3 1/6/3 2/7/3
f 2/7/15 47/34/15 45/8/15
f 3/10/16 29/35/16 28/11/16
f 2/14/6 33/36/6 46/15/6
f 3/3/7 26/37/7 35/17/7
f 33/19/17 32/38/17 44/20/17
f 32/22/18 30/39/18 21/23/18
f 2/40/19 1/6/19 33/41/19
f 31/26/19 33/41/19 1/6/19
f 21/28/20 30/42/20 3/10/20
f 3/10/11 37/43/11 18/27/11
f 16/44/21 18/27/21 37/43/21
s 1
f 25/45/22 24/46/23 23/47/24
f 15/48/25 13/49/26 14/50/27
f 15/48/25 39/51/28 38/52/29
f 24/46/23 22/53/30 23/47/24
f 40/54/31 41/55/32 20/56/33
f 38/57/29 41/58/32 40/59/31
f 23/60/24 22/61/30 20/62/33
f 13/63/26 10/64/34 12/65/35
f 13/63/26 12/65/35 14/66/27
f 43/67/36 40/68/31 20/69/33
f 6/70/37 8/71/38 7/72/39
f 7/73/39 8/74/38 9/75/40
f 7/72/39 4/76/41 6/70/37
f 22/61/30 43/67/36 20/62/33
f 15/48/25 14/50/27 39/51/28
f 38/57/29 39/77/28 41/58/32
f 13/63/26 11/78/42 10/64/34
f 7/72/39 5/79/43 4/76/41
