# Blender v2.79 (sub 0) OBJ File: 'testScene.blend'
# www.blender.org
o TeapotHandle_cell.094_TeapotHandle_cell.130
v -0.212169 -1.192476 0.057453
v -0.200709 -1.190327 0.058243
v -0.207524 -1.198728 0.072401
v -0.203557 -1.188744 0.037782
v -0.200120 -1.184808 0.039728
v -0.196421 -1.188894 0.039696
v -0.195355 -1.184322 0.041455
v -0.211338 -1.189139 0.037673
v -0.216465 -1.190069 0.039976
v -0.203557 -1.188744 0.037782
v -0.200120 -1.184808 0.039728
v -0.196421 -1.188894 0.039696
vt 0.000000 0.000000
vt 1.000000 0.000000
vt 1.000000 1.000000
vt 0.000000 0.000000
vt 0.186988 0.186988
vt 0.000000 0.000000
vt 1.000000 0.000000
vt 0.695965 0.695965
vt 0.187306 0.128036
vt 0.170829 0.170829
vt 1.000000 0.000000
vt 0.911620 0.184799
vt 0.546143 0.196194
vt 1.000000 0.186988
vt 0.818588 0.000000
vt 0.654663 0.081274
vt 0.398314 0.261340
vt 0.200771 0.047559
vt 0.203555 0.203555
vt 1.000000 0.181412
vt 0.307896 0.307896
vt 0.537827 0.178859
vt 1.901339 0.275290
vt 1.901733 0.287500
vt 1.894674 0.287500
vn -0.1950 0.8818 0.4294
vn 0.8865 -0.4297 0.1717
vn -0.9537 -0.2208 0.2040
vn -0.1057 0.9813 0.1611
vn 0.7244 0.6540 0.2180
vn 0.9363 -0.2929 0.1938
vn 0.0526 -0.9611 -0.2712
vn -0.0523 0.9851 0.1640
vn -0.1901 0.9764 0.1020
vn -0.9363 0.2929 -0.1938
vn -0.7809 0.6050 0.1555
vn 0.0526 -0.9611 -0.2710
vn 0.2562 0.2394 -0.9365
s off
f 1/1/1 3/2/1 2/3/1
f 2/4/2 3/2/2 12/5/2
f 3/6/3 1/7/3 9/8/3
f 1/1/4 8/9/4 9/10/4
f 2/11/5 12/12/5 11/13/5
f 12/14/6 7/15/6 2/11/6
f 9/16/7 10/17/7 3/6/7
f 1/1/8 10/18/8 8/9/8
f 10/19/9 1/1/9 2/11/9
f 2/11/10 7/20/10 12/12/10
f 11/13/11 10/19/11 2/11/11
f 12/21/7 3/6/7 10/17/7
f 9/16/12 8/22/12 10/17/12
s 1
f 6/23/13 4/24/13 5/25/13
