# Blender v2.77 (sub 0) OBJ File: 'still_blendswap1.blend'
# www.blender.org
o Cylinder.004_Cylinder.052
v -4.663374 -0.490584 0.019020
v -4.680839 -0.452145 0.026723
v -4.689106 -0.428747 0.061073
v -4.683335 -0.434097 0.101948
v -4.666904 -0.465059 0.125403
v -4.649441 -0.503495 0.117698
v -4.646945 -0.521546 0.042475
v -4.641173 -0.526892 0.083348
v -4.995571 -0.555127 0.057315
v -5.002234 -0.536272 0.084996
v -4.979970 -0.586298 0.051456
v -4.996056 -0.540777 0.118285
v -4.980656 -0.566004 0.137681
v -4.965055 -0.597175 0.131823
v -4.958392 -0.616030 0.104142
v -4.964570 -0.611525 0.070853
v -5.029059 -0.589481 0.096745
v -2.449654 -0.074807 0.067578
v -3.008657 -0.141927 0.029524
v -3.564842 -0.224179 0.002195
v -4.118556 -0.338599 -0.002838
v -2.455514 -0.053361 0.077940
v -3.015965 -0.115955 0.039238
v -3.573909 -0.193698 0.011228
v -4.130997 -0.303831 0.005437
v -2.461379 -0.036763 0.102307
v -3.022431 -0.097657 0.066101
v -3.580975 -0.173700 0.040586
v -4.138664 -0.282133 0.037291
v -2.463813 -0.034737 0.126404
v -3.024266 -0.097752 0.094376
v -3.581902 -0.175901 0.073072
v -4.137065 -0.286216 0.074064
v -2.461388 -0.048478 0.136123
v -3.020394 -0.116194 0.107507
v -3.576145 -0.199013 0.089657
v -4.127137 -0.313683 0.094213
v -2.455524 -0.069940 0.125772
v -3.013083 -0.142180 0.097803
v -3.567074 -0.229508 0.080633
v -4.114693 -0.348455 0.085940
v -2.447228 -0.088548 0.077297
v -3.004784 -0.160369 0.042656
v -3.559085 -0.247292 0.018780
v -4.108627 -0.366066 0.017310
v -2.449659 -0.086538 0.101405
v -3.006617 -0.160478 0.070941
v -3.560008 -0.249505 0.051275
v -4.107026 -0.370153 0.054086
v -2.170190 -0.042220 0.087263
v -4.876399 -0.557156 0.036094
v -4.654303 -0.508488 0.027191
v -2.452332 -0.064293 0.070263
v -2.175411 -0.023051 0.097947
v -4.894697 -0.519710 0.043251
v -2.458698 -0.043641 0.089118
v -2.180976 -0.007303 0.121065
v -4.902714 -0.497023 0.076558
v -2.463203 -0.033528 0.115428
v -2.183624 -0.004203 0.143077
v -4.895753 -0.502384 0.116504
v -2.463208 -0.039887 0.133786
v -2.181805 -0.015572 0.151092
v -4.877894 -0.532652 0.139688
v -2.458708 -0.058999 0.133443
v -2.176582 -0.034757 0.140419
v -4.859596 -0.570096 0.132531
v -2.452340 -0.079665 0.114597
v -2.171017 -0.050504 0.117300
v -4.851580 -0.592783 0.099224
v -2.447837 -0.089764 0.088278
v -2.168371 -0.053590 0.095278
v -4.858540 -0.587423 0.059279
v -5.016665 -0.592308 0.070031
v -5.026134 -0.573387 0.073587
v -5.030179 -0.561941 0.090390
v -5.026429 -0.564676 0.110597
v -5.017081 -0.579989 0.122371
v -5.007611 -0.598910 0.118815
v -5.003567 -0.610355 0.102012
v -5.007317 -0.607621 0.081805
v -4.988410 -0.570246 0.050938
v -5.000497 -0.543087 0.069147
v -5.000760 -0.535296 0.102247
v -4.971581 -0.600864 0.058288
v -4.989046 -0.551438 0.130850
v -4.972216 -0.582056 0.138199
v -4.960129 -0.609215 0.119991
v -4.959866 -0.617005 0.086890
v -2.447834 -0.083395 0.069913
v -3.006051 -0.153041 0.033307
v -3.561232 -0.237805 0.007446
v -4.112798 -0.354579 0.003937
v -4.672705 -0.470811 0.018639
v -4.124942 -0.320793 -0.002508
v -3.569279 -0.208711 0.003348
v -3.012121 -0.128930 0.031453
v -4.686674 -0.437240 0.041469
v -4.135859 -0.290137 0.019277
v -3.578038 -0.181306 0.024190
v -3.019598 -0.104898 0.051311
v -4.688029 -0.427442 0.082308
v -4.139153 -0.280575 0.056535
v -3.582377 -0.171645 0.057765
v -3.024105 -0.095015 0.081244
v -4.675976 -0.447156 0.117233
v -4.132895 -0.297703 0.087437
v -3.579755 -0.185385 0.084404
v -3.023000 -0.105077 0.103722
v -4.657575 -0.484831 0.125783
v -4.120750 -0.331490 0.093883
v -3.571706 -0.214487 0.088508
v -3.016928 -0.129198 0.105584
v -4.643606 -0.518399 0.102951
v -4.109831 -0.362152 0.072102
v -3.562944 -0.241905 0.067675
v -3.009449 -0.153241 0.085733
v -4.642250 -0.528199 0.062114
v -4.106539 -0.371708 0.034840
v -3.558608 -0.251553 0.034091
v -3.004944 -0.163113 0.055793
v -2.729136 -0.107880 0.048222
v -3.287473 -0.179757 0.013508
v -3.841593 -0.276644 -0.003544
v -4.393294 -0.409945 0.004590
v -2.735679 -0.084164 0.058261
v -3.295624 -0.151533 0.022889
v -3.851979 -0.243961 0.005123
v -4.408204 -0.373247 0.012521
v -2.741844 -0.066717 0.083876
v -3.302391 -0.132385 0.050999
v -3.859346 -0.223113 0.035729
v -4.416171 -0.350699 0.045623
v -2.744020 -0.065758 0.110061
v -3.303807 -0.133530 0.081372
v -3.859378 -0.226313 0.070346
v -4.412529 -0.355510 0.084506
v -2.740931 -0.081860 0.121485
v -3.299043 -0.154304 0.096221
v -3.852057 -0.251685 0.088694
v -4.399412 -0.384858 0.106390
v -2.734385 -0.105592 0.111457
v -3.290889 -0.182540 0.086849
v -3.841666 -0.284380 0.080036
v -4.384502 -0.421553 0.098457
v -2.726046 -0.123982 0.059646
v -3.282708 -0.200531 0.028357
v -3.834272 -0.302015 0.014804
v -4.380177 -0.439293 0.026474
v -2.728220 -0.123039 0.085842
v -3.284122 -0.201688 0.058739
v -3.834300 -0.305228 0.049430
v -4.376535 -0.444101 0.065355
v -2.168705 -0.049535 0.088876
v -4.866639 -0.574639 0.044238
v -2.172526 -0.032956 0.090325
v -4.886269 -0.537878 0.035536
v -2.178381 -0.014001 0.108677
v -4.900555 -0.505232 0.057504
v -2.182841 -0.003767 0.133177
v -4.901128 -0.495826 0.097272
v -2.183291 -0.008256 0.149478
v -4.887654 -0.515169 0.131545
v -2.179468 -0.024842 0.148034
v -4.868024 -0.551929 0.140246
v -2.173610 -0.043812 0.129692
v -4.853739 -0.584574 0.118278
v -2.169153 -0.054031 0.105182
v -4.853165 -0.593981 0.078510
v -5.000961 -0.601763 0.069049
v -5.013360 -0.579206 0.063635
v -5.022264 -0.559198 0.077049
v -5.022458 -0.553458 0.101435
v -5.013828 -0.565350 0.122507
v -5.001429 -0.587907 0.127921
v -4.992524 -0.607915 0.114507
v -4.992331 -0.613654 0.090121
v -2.726953 -0.117736 0.051280
v -3.284390 -0.192125 0.018020
v -3.837170 -0.291488 0.002460
v -4.385910 -0.426955 0.012105
v -4.401126 -0.391098 0.004529
v -3.846783 -0.259972 -0.002795
v -3.291402 -0.165526 0.015053
v -2.732182 -0.096121 0.050529
v -4.413546 -0.358933 0.026805
v -3.856421 -0.230908 0.018525
v -3.299500 -0.139809 0.035407
v -2.739081 -0.073775 0.069887
v -4.415894 -0.349305 0.065886
v -3.860437 -0.221330 0.053936
v -3.303943 -0.130035 0.067157
v -2.743610 -0.063781 0.098007
v -4.406796 -0.367850 0.098876
v -3.856481 -0.236840 0.082689
v -3.302126 -0.141933 0.091707
v -2.743114 -0.072000 0.118424
v -4.391580 -0.403703 0.106449
v -3.846865 -0.268361 0.087948
v -3.295112 -0.168541 0.094681
v -2.737883 -0.093627 0.119183
v -4.379160 -0.435867 0.084172
v -3.837224 -0.297437 0.066638
v -3.287012 -0.194268 0.074334
v -2.730982 -0.115985 0.099834
v -4.376812 -0.445497 0.045093
v -3.833211 -0.307003 0.031218
v -3.282571 -0.204032 0.042577
v -2.726455 -0.125967 0.071705
vt 0.5140 0.8581
vt 0.3812 0.7635
vt 0.4268 0.7620
vt 0.5448 0.8554
vt 0.6610 0.9306
vt 0.6432 0.9339
vt 0.6325 0.9373
vt 0.4910 0.8610
vt 0.3434 0.7654
vt 0.5262 0.8639
vt 0.3705 0.7682
vt 0.6657 0.9397
vt 0.7064 0.9414
vt 0.5745 0.8664
vt 0.4166 0.7711
vt 0.6494 0.8684
vt 0.5008 0.7742
vt 0.7623 0.9420
vt 0.8201 0.9413
vt 0.7315 0.8693
vt 0.6020 0.7768
vt 0.8016 0.8687
vt 0.6988 0.7782
vt 0.8669 0.9393
vt 0.9231 0.9576
vt 0.8491 0.8668
vt 0.7715 0.7780
vt 0.8636 0.8636
vt 0.8007 0.7759
vt 0.9254 0.9512
vt 0.9189 0.9471
vt 0.8615 0.8599
vt 0.8080 0.7729
vt 0.8156 0.8566
vt 0.7559 0.7690
vt 0.9062 0.9263
vt 0.8623 0.9267
vt 0.8232 0.9249
vt 0.7658 0.8539
vt 0.6985 0.7656
vt 0.5915 0.8534
vt 0.4878 0.7614
vt 0.5578 0.7617
vt 0.6479 0.8523
vt 0.7337 0.9255
vt 0.6928 0.9276
vt 0.7079 0.8525
vt 0.6302 0.7631
vt 0.7788 0.9246
vt 0.7311 0.9732
vt 0.7627 0.9744
vt 0.7039 0.9713
vt 0.7403 0.9842
vt 0.7594 0.9855
vt 0.7810 0.9864
vt 0.8030 0.9745
vt 0.8435 0.9734
vt 0.8077 0.9864
vt 0.8344 0.9856
vt 0.7086 0.9683
vt 0.7191 0.9653
vt 0.7438 0.9736
vt 0.7501 0.9783
vt 0.7360 0.9813
vt 0.8756 0.9714
vt 0.9034 0.9688
vt 0.8559 0.9842
vt 0.8749 0.9823
vt 0.8991 0.9656
vt 0.8891 0.9628
vt 0.9319 0.9552
vt 0.8772 0.9794
vt 0.8631 0.9767
vt 0.8681 0.9717
vt 0.8674 0.9607
vt 0.8379 0.9594
vt 0.8446 0.9737
vt 0.8308 0.9692
vt 0.8044 0.9594
vt 0.7708 0.9605
vt 0.8066 0.9729
vt 0.7813 0.9700
vt 0.7411 0.9626
vt 0.7687 0.9749
vt 0.8075 0.9810
vt 0.7785 0.9868
vt 0.8369 0.9860
vt 0.5866 0.1450
vt 0.6845 0.0369
vt 0.7000 0.0372
vt 0.6213 0.1458
vt 0.5517 0.2477
vt 0.5005 0.2465
vt 0.4380 0.2447
vt 0.5411 0.1437
vt 0.6603 0.0362
vt 0.4379 0.3346
vt 0.5004 0.3361
vt 0.4522 0.4183
vt 0.3836 0.4167
vt 0.3125 0.4150
vt 0.3673 0.3327
vt 0.3223 0.5001
vt 0.3921 0.5015
vt 0.3517 0.5862
vt 0.2857 0.5853
vt 0.2004 0.6057
vt 0.2571 0.4988
vt 0.3052 0.6728
vt 0.3628 0.6727
vt 0.2535 0.6734
vt 0.4879 0.1421
vt 0.6299 0.0352
vt 0.3680 0.2426
vt 0.2963 0.2401
vt 0.4320 0.1401
vt 0.5966 0.0341
vt 0.2919 0.3305
vt 0.2421 0.4130
vt 0.1465 0.4308
vt 0.2181 0.3280
vt 0.2007 0.4975
vt 0.1636 0.5830
vt 0.1349 0.5829
vt 0.1487 0.4963
vt 0.2566 0.6750
vt 0.1923 0.5831
vt 0.2823 0.6770
vt 0.1455 0.5613
vt 0.3781 0.1380
vt 0.5638 0.0328
vt 0.2289 0.2375
vt 0.1081 0.2605
vt 0.3349 0.1361
vt 0.5363 0.0316
vt 0.1523 0.3254
vt 0.1120 0.4075
vt 0.0615 0.4053
vt 0.0904 0.3227
vt 0.1589 0.4965
vt 0.1625 0.4098
vt 0.2309 0.5869
vt 0.3135 0.5896
vt 0.1948 0.4976
vt 0.0814 0.3852
vt 0.3531 0.6799
vt 0.4560 0.6831
vt 0.3110 0.1348
vt 0.5187 0.0307
vt 0.1033 0.2388
vt 0.0873 0.2374
vt 0.2967 0.1337
vt 0.5062 0.0300
vt 0.1099 0.3227
vt 0.1193 0.2402
vt 0.1563 0.4090
vt 0.2403 0.4114
vt 0.1593 0.3238
vt 0.1436 0.2118
vt 0.2820 0.5002
vt 0.4386 0.5935
vt 0.5638 0.5971
vt 0.3957 0.5036
vt 0.5777 0.6863
vt 0.6828 0.6883
vt 0.3569 0.1355
vt 0.5290 0.0306
vt 0.2487 0.2359
vt 0.3495 0.2392
vt 0.4234 0.1377
vt 0.5576 0.0315
vt 0.2686 0.3272
vt 0.3712 0.4156
vt 0.5005 0.4197
vt 0.3961 0.3315
vt 0.5111 0.5069
vt 0.6466 0.5987
vt 0.7200 0.6211
vt 0.5999 0.5092
vt 0.7357 0.6880
vt 0.7626 0.6864
vt 0.5030 0.1404
vt 0.5977 0.0328
vt 0.4549 0.2428
vt 0.5424 0.2460
vt 0.5758 0.1431
vt 0.6397 0.0344
vt 0.5002 0.3349
vt 0.5796 0.4220
vt 0.6401 0.4445
vt 0.5700 0.3373
vt 0.6337 0.5096
vt 0.6753 0.5973
vt 0.6294 0.5944
vt 0.6401 0.5089
vt 0.7117 0.6828
vt 0.7212 0.6002
vt 0.6544 0.6795
vt 0.6435 0.5737
vt 0.6419 0.1461
vt 0.7046 0.0371
vt 0.7037 0.0369
vt 0.6555 0.1462
vt 0.6166 0.2489
vt 0.5879 0.2484
vt 0.5513 0.3373
vt 0.5965 0.3383
vt 0.5966 0.4006
vt 0.5151 0.4198
vt 0.4620 0.5031
vt 0.5281 0.5049
vt 0.4979 0.5893
vt 0.4239 0.5875
vt 0.4322 0.6732
vt 0.5078 0.6745
vt 0.6222 0.1449
vt 0.6736 0.0357
vt 0.5896 0.2478
vt 0.5946 0.3381
vt 0.6184 0.4222
vt 0.5858 0.4210
vt 0.5861 0.5069
vt 0.6509 0.4234
vt 0.5695 0.5916
vt 0.5842 0.6766
vn 0.0021 -0.2188 -0.9757
vn 0.0167 -0.1983 -0.9800
vn 0.1231 -0.5552 -0.8225
vn 0.1166 -0.5593 -0.8207
vn 0.0760 -0.5790 -0.8117
vn -0.0368 -0.2480 -0.9680
vn -0.1498 0.1169 -0.9818
vn -0.1095 0.1492 -0.9827
vn -0.0861 0.1775 -0.9803
vn -0.2039 0.4924 -0.8461
vn -0.1718 0.5155 -0.8394
vn -0.2476 0.4659 -0.8495
vn -0.3166 0.7474 -0.5840
vn -0.2693 0.7650 -0.5850
vn -0.2318 0.7774 -0.5847
vn -0.2959 0.9264 -0.2327
vn -0.2599 0.9339 -0.2454
vn -0.3435 0.9126 -0.2216
vn -0.3227 0.9294 0.1789
vn -0.2775 0.9471 0.1614
vn -0.2498 0.9579 0.1415
vn -0.2146 0.8184 0.5331
vn -0.1982 0.8313 0.5193
vn -0.2567 0.7960 0.5481
vn -0.1582 0.5401 0.8265
vn -0.1169 0.5615 0.8191
vn -0.1102 0.5655 0.8173
vn -0.0008 0.2217 0.9751
vn -0.0020 0.2099 0.9777
vn -0.0429 0.2064 0.9775
vn 0.0719 -0.1566 0.9850
vn 0.1149 -0.1453 0.9827
vn 0.1057 -0.1657 0.9805
vn 0.2133 -0.4883 0.8462
vn 0.1961 -0.5052 0.8404
vn 0.1708 -0.5000 0.8490
vn 0.2384 -0.7755 0.5846
vn 0.2804 -0.7612 0.5847
vn 0.2584 -0.7689 0.5848
vn 0.2161 -0.8168 -0.5349
vn 0.2135 -0.8238 -0.5251
vn 0.2702 -0.9516 -0.1462
vn 0.2831 -0.9451 -0.1630
vn 0.2400 -0.9564 -0.1665
vn 0.1735 -0.8287 -0.5321
vn 0.3055 -0.9236 0.2318
vn 0.2849 -0.9271 0.2434
vn 0.2632 -0.9375 0.2275
vn -0.4215 0.3732 -0.8264
vn -0.4999 0.6565 -0.5648
vn -0.3207 0.0204 -0.9469
vn -0.5675 -0.1175 -0.8149
vn -0.8419 0.0004 -0.5395
vn -0.7523 0.4505 -0.4807
vn -0.5282 0.8255 -0.1989
vn -0.5099 0.8353 0.2056
vn -0.9423 0.3238 -0.0843
vn -0.7620 0.6101 0.2168
vn -0.2073 -0.3292 -0.9212
vn -0.1028 -0.6459 -0.7564
vn -0.3544 -0.6893 -0.6319
vn -0.6470 -0.4861 -0.5874
vn -0.4391 0.6967 0.5672
vn -0.3420 0.4339 0.8335
vn -0.8538 0.2308 0.4665
vn -0.5904 0.2472 0.7683
vn -0.2288 0.1105 0.9672
vn -0.1214 -0.2435 0.9622
vn -0.6642 -0.1805 0.7254
vn -0.3772 -0.3407 0.8611
vn -0.0285 -0.5638 0.8254
vn 0.0329 -0.8226 0.5677
vn -0.5076 -0.6215 0.5967
vn -0.2358 -0.8272 0.5100
vn 0.0594 -0.9713 0.2303
vn 0.0401 -0.9895 -0.1387
vn -0.4463 -0.8719 0.2012
vn -0.2261 -0.9696 -0.0930
vn -0.0147 -0.8727 -0.4881
vn -0.4953 -0.8262 -0.2684
vn -0.9079 -0.4103 0.0861
vn 0.0689 0.0094 -0.9976
vn 0.0685 0.0171 -0.9975
vn 0.1252 -0.5720 -0.8106
vn 0.1241 -0.5577 -0.8207
vn 0.1240 -0.5576 -0.8208
vn 0.0724 -0.0353 -0.9967
vn 0.0202 0.3799 -0.9248
vn 0.0167 0.4223 -0.9063
vn 0.0156 0.4354 -0.9001
vn 0.0715 -0.0710 -0.9949
vn 0.1239 -0.5567 -0.8214
vn 0.1238 -0.5560 -0.8219
vn 0.0645 -0.1019 -0.9927
vn 0.0042 0.3069 -0.9517
vn 0.0172 0.3423 -0.9394
vn 0.0538 -0.1296 -0.9901
vn 0.1237 -0.5559 -0.8220
vn 0.1234 -0.5557 -0.8222
vn 0.0416 -0.1545 -0.9871
vn -0.0378 0.2401 -0.9700
vn -0.0152 0.2729 -0.9619
vn 0.0291 -0.1775 -0.9837
vn 0.1233 -0.5555 -0.8223
vn -0.0617 0.2081 -0.9761
vn -0.0201 0.6662 -0.7455
vn -0.0201 0.6718 -0.7404
vn -0.0198 0.6467 -0.7625
vn -0.0514 0.8194 -0.5708
vn -0.0483 0.8199 -0.5705
vn -0.0467 0.8171 -0.5745
vn -0.0266 0.6277 -0.7780
vn -0.0451 0.6076 -0.7929
vn -0.0839 0.8140 -0.5748
vn -0.0616 0.8178 -0.5721
vn -0.0718 0.5863 -0.8069
vn -0.1030 0.5638 -0.8195
vn -0.1513 0.7997 -0.5810
vn -0.1151 0.8079 -0.5780
vn -0.1367 0.5401 -0.8304
vn -0.1906 0.7895 -0.5833
vn -0.0745 0.9285 -0.3637
vn -0.0717 0.9221 -0.3802
vn -0.0800 0.9369 -0.3401
vn -0.1072 0.9938 -0.0297
vn -0.1015 0.9919 -0.0758
vn -0.0985 0.9896 -0.1051
vn -0.0920 0.9429 -0.3200
vn -0.1153 0.9460 -0.3028
vn -0.1377 0.9896 0.0410
vn -0.1180 0.9930 0.0086
vn -0.1466 0.9464 -0.2876
vn -0.1823 0.9445 -0.2733
vn -0.1914 0.9769 0.0952
vn -0.1632 0.9841 0.0695
vn -0.2205 0.9403 -0.2592
vn -0.2205 0.9680 0.1194
vn -0.1223 0.9292 0.3487
vn -0.1213 0.9377 0.3256
vn -0.1245 0.9123 0.3901
vn -0.1089 0.5626 0.8195
vn -0.1088 0.5625 0.8195
vn -0.1077 0.5487 0.8290
vn -0.1299 0.8973 0.4219
vn -0.1405 0.8832 0.4474
vn -0.1091 0.5642 0.8184
vn -0.1090 0.5634 0.8189
vn -0.1541 0.8696 0.4690
vn -0.1689 0.8565 0.4877
vn -0.1096 0.5649 0.8178
vn -0.1093 0.5645 0.8181
vn -0.1837 0.8436 0.5045
vn -0.1099 0.5652 0.8176
vn -0.0521 -0.0040 0.9986
vn -0.0476 -0.0463 0.9978
vn -0.0558 0.0410 0.9976
vn 0.0008 -0.3749 0.9270
vn 0.0044 -0.4178 0.9085
vn 0.0083 -0.4500 0.8929
vn -0.0549 0.0784 0.9954
vn -0.0481 0.1108 0.9927
vn 0.0165 -0.2993 0.9540
vn 0.0037 -0.3361 0.9418
vn -0.0377 0.1391 0.9895
vn -0.0258 0.1648 0.9860
vn 0.0585 -0.2301 0.9714
vn 0.0360 -0.2641 0.9638
vn -0.0137 0.1884 0.9820
vn 0.0822 -0.1971 0.9769
vn 0.0448 -0.6617 0.7484
vn 0.0464 -0.6763 0.7351
vn 0.0445 -0.6420 0.7654
vn 0.0776 -0.8154 0.5736
vn 0.0746 -0.8160 0.5732
vn 0.0741 -0.8191 0.5688
vn 0.0512 -0.6225 0.7809
vn 0.0698 -0.6015 0.7958
vn 0.1103 -0.8091 0.5771
vn 0.0877 -0.8136 0.5748
vn 0.0967 -0.5791 0.8095
vn 0.1283 -0.5554 0.8216
vn 0.1786 -0.7930 0.5824
vn 0.1419 -0.8022 0.5799
vn 0.1620 -0.5305 0.8320
vn 0.2181 -0.7818 0.5841
vn 0.1395 -0.9271 -0.3478
vn 0.1385 -0.9361 -0.3233
vn 0.1205 -0.9878 0.0981
vn 0.1229 -0.9894 0.0774
vn 0.1285 -0.9912 0.0310
vn 0.1416 -0.9099 -0.3899
vn 0.1469 -0.8939 -0.4234
vn 0.1392 -0.9902 -0.0084
vn 0.1588 -0.9864 -0.0421
vn 0.1573 -0.8788 -0.4505
vn 0.1707 -0.8645 -0.4728
vn 0.1844 -0.9802 -0.0714
vn 0.2126 -0.9722 -0.0982
vn 0.1851 -0.8505 -0.4922
vn 0.1996 -0.8369 -0.5096
vn 0.2416 -0.9625 -0.1231
vn 0.0995 -0.9254 0.3658
vn 0.0976 -0.9222 0.3742
vn 0.1049 -0.9337 0.3422
vn 0.1169 -0.9396 0.3216
vn 0.1404 -0.9423 0.3038
vn 0.1719 -0.9421 0.2879
vn 0.2080 -0.9393 0.2728
vn 0.2463 -0.9342 0.2580
s 1
f 1/1/1 125/2/2 181/3/3 52/4/4
f 1/1/1 52/4/4 155/5/5 51/6/6
f 1/1/1 51/6/6 157/7/7 94/8/8
f 1/1/1 94/8/8 182/9/9 125/2/2
f 2/10/10 129/11/11 182/9/9 94/8/8
f 2/10/10 94/8/8 157/7/7 55/12/12
f 2/10/10 55/12/12 159/13/13 98/14/14
f 2/10/10 98/14/14 186/15/15 129/11/11
f 3/16/16 133/17/17 186/15/15 98/14/14
f 3/16/16 98/14/14 159/13/13 58/18/18
f 3/16/16 58/18/18 161/19/19 102/20/20
f 3/16/16 102/20/20 190/21/21 133/17/17
f 4/22/22 137/23/23 190/21/21 102/20/20
f 4/22/22 102/20/20 161/19/19 61/24/24
f 4/22/22 61/24/24 163/25/25 106/26/26
f 4/22/22 106/26/26 194/27/27 137/23/23
f 5/28/28 141/29/29 194/27/27 106/26/26
f 5/28/28 106/26/26 163/25/25 64/30/30
f 5/28/28 64/30/30 165/31/31 110/32/32
f 5/28/28 110/32/32 198/33/33 141/29/29
f 6/34/34 145/35/35 198/33/33 110/32/32
f 6/34/34 110/32/32 165/36/31 67/37/36
f 6/34/34 67/37/36 167/38/37 114/39/38
f 6/34/34 114/39/38 202/40/39 145/35/35
f 7/41/40 149/42/41 206/43/42 118/44/43
f 7/41/40 118/44/43 169/45/44 73/46/45
f 7/41/40 73/46/45 155/5/5 52/4/4
f 7/41/40 52/4/4 181/3/3 149/42/41
f 8/47/46 153/48/47 202/40/39 114/39/38
f 8/47/46 114/39/38 167/38/37 70/49/48
f 8/47/46 70/49/48 169/45/44 118/44/43
f 8/47/46 118/44/43 206/43/42 153/48/47
f 9/50/49 83/51/50 159/13/13 55/12/12
f 9/50/49 55/12/12 157/7/7 82/52/51
f 9/50/49 82/52/51 171/53/52 75/54/53
f 9/50/49 75/54/53 172/55/54 83/51/50
f 10/56/55 84/57/56 161/19/19 58/18/18
f 10/56/55 58/18/18 159/13/13 83/51/50
f 10/56/55 83/51/50 172/55/54 76/58/57
f 10/56/55 76/58/57 173/59/58 84/57/56
f 11/60/59 82/52/51 157/7/7 51/6/6
f 11/60/59 51/6/6 155/5/5 85/61/60
f 11/60/59 85/61/60 170/62/61 74/63/62
f 11/60/59 74/63/62 171/64/52 82/52/51
f 12/65/63 86/66/64 163/25/25 61/24/24
f 12/65/63 61/24/24 161/19/19 84/57/56
f 12/65/63 84/57/56 173/59/58 77/67/65
f 12/65/63 77/67/65 174/68/66 86/66/64
f 13/69/67 87/70/68 165/36/31 64/30/30
f 13/69/67 64/30/30 163/71/25 86/66/64
f 13/69/67 86/66/64 174/72/66 78/73/69
f 13/69/67 78/73/69 175/74/70 87/70/68
f 14/75/71 88/76/72 167/38/37 67/37/36
f 14/75/71 67/37/36 165/36/31 87/70/68
f 14/75/71 87/70/68 175/74/70 79/77/73
f 14/75/71 79/77/73 176/78/74 88/76/72
f 15/79/75 89/80/76 169/45/44 70/49/48
f 15/79/75 70/49/48 167/38/37 88/76/72
f 15/79/75 88/76/72 176/78/74 80/81/77
f 15/79/75 80/81/77 177/82/78 89/80/76
f 16/83/79 85/61/60 155/5/5 73/46/45
f 16/83/79 73/46/45 169/45/44 89/80/76
f 16/83/79 89/80/76 177/82/78 81/84/80
f 16/83/79 81/84/80 170/62/61 85/61/60
f 17/85/81 76/58/57 172/86/54 75/54/53
f 17/85/81 75/54/53 171/64/52 74/63/62
f 17/85/81 74/63/62 170/62/61 81/84/80
f 17/85/81 81/84/80 177/82/78 80/81/77
f 17/85/81 80/81/77 176/78/74 79/77/73
f 17/85/81 79/77/73 175/74/70 78/73/69
f 17/85/81 78/73/69 174/72/66 77/67/65
f 17/85/81 77/67/65 173/87/58 76/58/57
f 18/88/82 50/89/83 154/90/84 90/91/85
f 18/88/82 90/91/85 178/92/86 122/93/87
f 18/88/82 122/93/87 185/94/88 53/95/89
f 18/88/82 53/95/89 156/96/90 50/89/83
f 19/97/91 122/93/87 178/92/86 91/98/92
f 19/97/91 91/98/92 179/99/93 123/100/94
f 19/97/91 123/100/94 184/101/95 97/102/96
f 19/97/91 97/102/96 185/94/88 122/93/87
f 20/103/97 123/100/94 179/99/93 92/104/98
f 20/103/97 92/104/98 180/105/99 124/106/100
f 20/103/97 124/106/100 183/107/101 96/108/102
f 20/103/97 96/108/102 184/101/95 123/100/94
f 21/109/103 124/106/100 180/105/99 93/110/104
f 21/109/103 93/110/104 181/3/3 125/2/2
f 21/109/103 125/2/2 182/9/9 95/111/105
f 21/109/103 95/111/105 183/107/101 124/106/100
f 22/112/106 54/113/107 156/96/90 53/95/89
f 22/112/106 53/95/89 185/94/88 126/114/108
f 22/112/106 126/114/108 189/115/109 56/116/110
f 22/112/106 56/116/110 158/117/111 54/113/107
f 23/118/112 126/114/108 185/94/88 97/102/96
f 23/118/112 97/102/96 184/101/95 127/119/113
f 23/118/112 127/119/113 188/120/114 101/121/115
f 23/118/112 101/121/115 189/115/109 126/114/108
f 24/122/116 127/119/113 184/101/95 96/108/102
f 24/122/116 96/108/102 183/107/101 128/123/117
f 24/122/116 128/123/117 187/124/118 100/125/119
f 24/122/116 100/125/119 188/120/114 127/119/113
f 25/126/120 128/123/117 183/127/101 95/111/105
f 25/126/120 95/111/105 182/9/9 129/11/11
f 25/126/120 129/11/11 186/15/15 99/128/121
f 25/126/120 99/128/121 187/129/118 128/123/117
f 26/130/122 57/131/123 158/117/111 56/116/110
f 26/130/122 56/116/110 189/115/109 130/132/124
f 26/130/122 130/132/124 193/133/125 59/134/126
f 26/130/122 59/134/126 160/135/127 57/131/123
f 27/136/128 130/132/124 189/115/109 101/121/115
f 27/136/128 101/121/115 188/120/114 131/137/129
f 27/136/128 131/137/129 192/138/130 105/139/131
f 27/136/128 105/139/131 193/133/125 130/132/124
f 28/140/132 131/137/129 188/141/114 100/125/119
f 28/140/132 100/125/119 187/129/118 132/142/133
f 28/140/132 132/142/133 191/143/134 104/144/135
f 28/140/132 104/144/135 192/145/130 131/137/129
f 29/146/136 132/142/133 187/129/118 99/128/121
f 29/146/136 99/128/121 186/15/15 133/17/17
f 29/146/136 133/17/17 190/21/21 103/147/137
f 29/146/136 103/147/137 191/143/134 132/142/133
f 30/148/138 60/149/139 160/135/127 59/134/126
f 30/148/138 59/134/126 193/133/125 134/150/140
f 30/148/138 134/150/140 197/151/141 62/152/142
f 30/148/138 62/152/142 162/153/143 60/149/139
f 31/154/144 134/150/140 193/155/125 105/139/131
f 31/154/144 105/139/131 192/145/130 135/156/145
f 31/154/144 135/156/145 196/157/146 109/158/147
f 31/154/144 109/158/147 197/159/141 134/150/140
f 32/160/148 135/156/145 192/145/130 104/144/135
f 32/160/148 104/144/135 191/143/134 136/161/149
f 32/160/148 136/161/149 195/162/150 108/163/151
f 32/160/148 108/163/151 196/157/146 135/156/145
f 33/164/152 136/161/149 191/143/134 103/147/137
f 33/164/152 103/147/137 190/21/21 137/23/23
f 33/164/152 137/23/23 194/27/27 107/165/153
f 33/164/152 107/165/153 195/162/150 136/161/149
f 34/166/154 63/167/155 162/153/143 62/152/142
f 34/166/154 62/152/142 197/159/141 138/168/156
f 34/166/154 138/168/156 201/169/157 65/170/158
f 34/166/154 65/170/158 164/171/159 63/167/155
f 35/172/160 138/168/156 197/159/141 109/158/147
f 35/172/160 109/158/147 196/157/146 139/173/161
f 35/172/160 139/173/161 200/174/162 113/175/163
f 35/172/160 113/175/163 201/169/157 138/168/156
f 36/176/164 139/173/161 196/157/146 108/163/151
f 36/176/164 108/163/151 195/162/150 140/177/165
f 36/176/164 140/177/165 199/178/166 112/179/167
f 36/176/164 112/179/167 200/174/162 139/173/161
f 37/180/168 140/177/165 195/162/150 107/165/153
f 37/180/168 107/165/153 194/27/27 141/29/29
f 37/180/168 141/29/29 198/33/33 111/181/169
f 37/180/168 111/181/169 199/178/166 140/177/165
f 38/182/170 66/183/171 164/171/159 65/170/158
f 38/182/170 65/170/158 201/169/157 142/184/172
f 38/182/170 142/184/172 205/185/173 68/186/174
f 38/182/170 68/186/174 166/187/175 66/183/171
f 39/188/176 142/184/172 201/169/157 113/175/163
f 39/188/176 113/175/163 200/174/162 143/189/177
f 39/188/176 143/189/177 204/190/178 117/191/179
f 39/188/176 117/191/179 205/185/173 142/184/172
f 40/192/180 143/189/177 200/174/162 112/179/167
f 40/192/180 112/179/167 199/178/166 144/193/181
f 40/192/180 144/193/181 203/194/182 116/195/183
f 40/192/180 116/195/183 204/190/178 143/189/177
f 41/196/184 144/193/181 199/197/166 111/181/169
f 41/196/184 111/181/169 198/33/33 145/35/35
f 41/196/184 145/35/35 202/40/39 115/198/185
f 41/196/184 115/198/185 203/199/182 144/193/181
f 42/200/186 72/201/187 168/202/188 71/203/189
f 42/200/186 71/203/189 209/204/190 146/205/191
f 42/200/186 146/205/191 178/92/86 90/91/85
f 42/200/186 90/91/85 154/90/84 72/201/187
f 43/206/192 146/205/191 209/204/190 121/207/193
f 43/206/192 121/207/193 208/208/194 147/209/195
f 43/206/192 147/209/195 179/99/93 91/98/92
f 43/206/192 91/98/92 178/92/86 146/205/191
f 44/210/196 147/209/195 208/208/194 120/211/197
f 44/210/196 120/211/197 207/212/198 148/213/199
f 44/210/196 148/213/199 180/105/99 92/104/98
f 44/210/196 92/104/98 179/99/93 147/209/195
f 45/214/200 148/213/199 207/212/198 119/215/201
f 45/214/200 119/215/201 206/43/42 149/42/41
f 45/214/200 149/42/41 181/3/3 93/110/104
f 45/214/200 93/110/104 180/105/99 148/213/199
f 46/216/202 69/217/203 166/187/175 68/186/174
f 46/216/202 68/186/174 205/185/173 150/218/204
f 46/216/202 150/218/204 209/204/190 71/203/189
f 46/216/202 71/203/189 168/202/188 69/217/203
f 47/219/205 150/218/204 205/185/173 117/191/179
f 47/219/205 117/191/179 204/190/178 151/220/206
f 47/219/205 151/220/206 208/221/194 121/207/193
f 47/219/205 121/207/193 209/204/190 150/218/204
f 48/222/207 151/220/206 204/223/178 116/195/183
f 48/222/207 116/195/183 203/199/182 152/224/208
f 48/222/207 152/224/208 207/212/198 120/211/197
f 48/222/207 120/211/197 208/208/194 151/220/206
f 49/225/209 152/224/208 203/199/182 115/198/185
f 49/225/209 115/198/185 202/40/39 153/48/47
f 49/225/209 153/48/47 206/43/42 119/215/201
f 49/225/209 119/215/201 207/212/198 152/224/208
