# Blender v2.77 (sub 0) OBJ File: 'still_blendswap1.blend'
# www.blender.org
o Cylinder.005_Cylinder.053
v -4.984813 -0.375522 0.126345
v -5.003076 -0.338148 0.112761
v -5.012532 -0.300523 0.130257
v -5.007643 -0.284688 0.168585
v -4.991271 -0.299917 0.205289
v -4.973009 -0.337290 0.218869
v -4.968441 -0.390751 0.163049
v -4.963552 -0.374914 0.201372
v -5.375863 -0.408770 0.172695
v -5.383484 -0.378450 0.186794
v -5.359397 -0.438897 0.184127
v -5.377795 -0.365698 0.218167
v -5.362129 -0.377983 0.248435
v -5.345662 -0.408111 0.259868
v -5.338041 -0.438431 0.245769
v -5.343731 -0.451183 0.214396
v -5.418250 -0.418394 0.222039
v -2.390851 -0.013797 0.087103
v -3.042662 -0.085265 0.055772
v -3.692499 -0.164494 0.041443
v -4.342206 -0.260433 0.062620
v -2.396752 0.010061 0.084987
v -3.049951 -0.057794 0.050749
v -3.701535 -0.133438 0.033473
v -4.354876 -0.226007 0.051657
v -2.403460 0.036751 0.097399
v -3.057346 -0.028371 0.064431
v -3.709617 -0.101281 0.048427
v -4.363646 -0.191116 0.067882
v -2.407045 0.050638 0.117067
v -3.060516 -0.014230 0.088805
v -3.712012 -0.086860 0.077545
v -4.363377 -0.176199 0.101791
v -2.405406 0.043583 0.132481
v -3.057602 -0.023661 0.109604
v -3.707315 -0.098624 0.103773
v -4.354227 -0.189992 0.133517
v -2.399503 0.019717 0.134615
v -3.050312 -0.051139 0.114643
v -3.698276 -0.129687 0.111758
v -4.341554 -0.224421 0.144485
v -2.389212 -0.020852 0.102518
v -3.039749 -0.094696 0.076571
v -3.687803 -0.176258 0.067671
v -4.333055 -0.274226 0.094346
v -2.392795 -0.006973 0.122203
v -3.042917 -0.080563 0.100960
v -3.690194 -0.161844 0.096804
v -4.332784 -0.259312 0.128260
v -2.065072 0.021425 0.103823
v -5.236812 -0.422432 0.162205
v -4.975648 -0.387033 0.142885
v -2.393430 -0.003305 0.084008
v -2.070377 0.043464 0.103161
v -5.256082 -0.386185 0.148600
v -2.400276 0.024136 0.089599
v -2.076742 0.068787 0.114936
v -5.265251 -0.349703 0.165565
v -2.405864 0.046165 0.107013
v -2.080437 0.082560 0.132252
v -5.258948 -0.334357 0.203162
v -2.406921 0.049875 0.126057
v -2.079297 0.076711 0.144972
v -5.240866 -0.349135 0.239368
v -2.402826 0.033088 0.135585
v -2.073989 0.054664 0.145651
v -5.221596 -0.385382 0.252972
v -2.395979 0.005640 0.130009
v -2.067625 0.029341 0.133875
v -5.212426 -0.421864 0.236007
v -2.390392 -0.016383 0.112580
v -2.063931 0.015576 0.116543
v -5.218729 -0.437211 0.198410
v -5.403049 -0.434393 0.201082
v -5.413045 -0.416106 0.194142
v -5.417670 -0.397701 0.202701
v -5.414217 -0.389960 0.221744
v -5.404707 -0.397418 0.240117
v -5.394712 -0.415705 0.247057
v -5.390087 -0.434110 0.238499
v -5.393540 -0.441851 0.219455
v -5.368219 -0.425154 0.175162
v -5.381296 -0.392338 0.176610
v -5.382344 -0.368954 0.201297
v -5.350775 -0.448180 0.197801
v -5.370751 -0.368701 0.234761
v -5.353306 -0.391726 0.257401
v -5.340229 -0.424543 0.255953
v -5.339181 -0.447927 0.231266
v -2.389337 -0.020087 0.093523
v -3.040440 -0.093026 0.064753
v -3.689314 -0.173706 0.053008
v -4.336722 -0.270943 0.076803
v -4.994451 -0.358475 0.115584
v -4.348568 -0.244765 0.053628
v -3.696769 -0.150459 0.034444
v -3.045978 -0.072993 0.050736
v -5.009499 -0.317758 0.117708
v -4.360209 -0.207132 0.056483
v -3.706062 -0.116141 0.038234
v -3.053949 -0.042107 0.055438
v -5.011978 -0.288736 0.148015
v -4.364823 -0.180093 0.083702
v -3.711750 -0.090854 0.062161
v -3.059686 -0.018456 0.076097
v -5.000436 -0.288407 0.188749
v -4.359710 -0.179483 0.119334
v -3.710501 -0.089411 0.092207
v -3.059825 -0.015898 0.100619
v -4.981634 -0.316964 0.216048
v -4.347862 -0.205661 0.142510
v -3.703044 -0.112661 0.110779
v -3.054286 -0.035937 0.114648
v -4.966586 -0.357679 0.213921
v -4.336221 -0.243296 0.139662
v -3.693748 -0.146986 0.107002
v -3.046313 -0.066829 0.109957
v -4.964106 -0.386703 0.183617
v -4.331608 -0.270333 0.112436
v -3.688063 -0.172266 0.083061
v -3.040578 -0.090474 0.089287
v -2.716693 -0.049274 0.070911
v -3.368138 -0.123196 0.044885
v -4.016829 -0.209970 0.046879
v -4.665808 -0.315684 0.088999
v -2.723239 -0.023604 0.067341
v -3.376258 -0.093931 0.038397
v -4.027250 -0.177176 0.037414
v -4.681216 -0.279731 0.076630
v -2.730291 0.004453 0.080388
v -3.383997 -0.063141 0.052715
v -4.035676 -0.143651 0.053004
v -4.690329 -0.243473 0.093490
v -2.733717 0.018460 0.102409
v -3.386821 -0.048861 0.079452
v -4.037170 -0.129036 0.084515
v -4.687809 -0.228150 0.129704
v -2.731510 0.010208 0.120516
v -3.383074 -0.059460 0.102953
v -4.030856 -0.141889 0.113487
v -4.675130 -0.242735 0.164054
v -2.724962 -0.015471 0.124104
v -3.374951 -0.088731 0.109454
v -4.020430 -0.174690 0.122965
v -4.659721 -0.278686 0.176420
v -2.714486 -0.057527 0.089018
v -3.364391 -0.133795 0.068385
v -4.010514 -0.222823 0.075851
v -4.653130 -0.330269 0.123348
v -2.717911 -0.043527 0.111057
v -3.367212 -0.119521 0.095136
v -4.012004 -0.208214 0.107376
v -4.650609 -0.314944 0.159559
v -2.063843 0.015879 0.108962
v -5.226821 -0.433599 0.178551
v -2.067342 0.031019 0.101698
v -5.247099 -0.405898 0.151509
v -2.073678 0.056730 0.107733
v -5.262539 -0.366414 0.153333
v -2.079139 0.077956 0.123525
v -5.264095 -0.338276 0.182955
v -2.080526 0.082258 0.139830
v -5.250856 -0.337968 0.223022
v -2.077026 0.067114 0.147103
v -5.230578 -0.365669 0.250063
v -2.070689 0.041395 0.141084
v -5.215138 -0.405153 0.248239
v -2.065229 0.020177 0.125277
v -5.213582 -0.433291 0.218618
v -5.385342 -0.443247 0.205866
v -5.398193 -0.426284 0.189187
v -5.407827 -0.402107 0.190254
v -5.408600 -0.384880 0.208441
v -5.400059 -0.384693 0.233095
v -5.387207 -0.401657 0.249773
v -5.377573 -0.425833 0.248707
v -5.376801 -0.443060 0.230519
v -2.714860 -0.056305 0.078611
v -3.365463 -0.131683 0.055151
v -4.012799 -0.219868 0.059750
v -4.658525 -0.326731 0.104428
v -4.673773 -0.299295 0.079065
v -4.021884 -0.195087 0.038885
v -3.371906 -0.110042 0.038872
v -2.719611 -0.037889 0.066845
v -4.687085 -0.260092 0.081502
v -4.032117 -0.159082 0.042208
v -3.380516 -0.077439 0.043124
v -2.726993 -0.008722 0.071992
v -4.690664 -0.232089 0.110317
v -4.037502 -0.132948 0.067781
v -3.386250 -0.052970 0.065411
v -2.732682 0.014115 0.091028
v -4.682413 -0.231688 0.148626
v -4.034886 -0.131991 0.100615
v -3.385749 -0.050972 0.092683
v -2.733344 0.017240 0.112811
v -4.667165 -0.259123 0.173986
v -4.025798 -0.156774 0.121486
v -3.379305 -0.072617 0.108972
v -2.728591 -0.001181 0.124591
v -4.653852 -0.298325 0.171547
v -4.015562 -0.192786 0.118178
v -3.370693 -0.105225 0.104731
v -2.721208 -0.030355 0.119458
v -4.650274 -0.326329 0.142734
v -4.010180 -0.218913 0.092590
v -3.364960 -0.129688 0.082432
v -2.715520 -0.053186 0.100408
vt 0.5140 0.8581
vt 0.3812 0.7635
vt 0.4268 0.7620
vt 0.5448 0.8554
vt 0.6610 0.9306
vt 0.6432 0.9339
vt 0.6325 0.9373
vt 0.4910 0.8610
vt 0.3434 0.7654
vt 0.5262 0.8639
vt 0.3705 0.7682
vt 0.6657 0.9397
vt 0.7064 0.9414
vt 0.5745 0.8664
vt 0.4166 0.7711
vt 0.6494 0.8684
vt 0.5008 0.7742
vt 0.7623 0.9420
vt 0.8201 0.9413
vt 0.7315 0.8693
vt 0.6020 0.7768
vt 0.8016 0.8687
vt 0.6988 0.7782
vt 0.8669 0.9393
vt 0.9231 0.9576
vt 0.8491 0.8668
vt 0.7715 0.7780
vt 0.8636 0.8636
vt 0.8007 0.7759
vt 0.9254 0.9512
vt 0.9189 0.9471
vt 0.8615 0.8599
vt 0.8080 0.7729
vt 0.8156 0.8566
vt 0.7559 0.7690
vt 0.9062 0.9263
vt 0.8623 0.9267
vt 0.8232 0.9249
vt 0.7658 0.8539
vt 0.6985 0.7656
vt 0.5915 0.8534
vt 0.4878 0.7614
vt 0.5578 0.7617
vt 0.6479 0.8523
vt 0.7337 0.9255
vt 0.6928 0.9276
vt 0.7079 0.8525
vt 0.6302 0.7631
vt 0.7788 0.9246
vt 0.7311 0.9732
vt 0.7627 0.9744
vt 0.7039 0.9713
vt 0.7403 0.9842
vt 0.7594 0.9855
vt 0.7810 0.9864
vt 0.8030 0.9745
vt 0.8435 0.9734
vt 0.8077 0.9864
vt 0.8344 0.9856
vt 0.7086 0.9683
vt 0.7191 0.9653
vt 0.7438 0.9736
vt 0.7501 0.9783
vt 0.7360 0.9813
vt 0.8756 0.9714
vt 0.9034 0.9688
vt 0.8559 0.9842
vt 0.8749 0.9823
vt 0.8991 0.9656
vt 0.8891 0.9628
vt 0.9319 0.9552
vt 0.8772 0.9794
vt 0.8631 0.9767
vt 0.8681 0.9717
vt 0.8674 0.9607
vt 0.8379 0.9594
vt 0.8446 0.9737
vt 0.8308 0.9692
vt 0.8044 0.9594
vt 0.7708 0.9605
vt 0.8066 0.9729
vt 0.7813 0.9700
vt 0.7411 0.9626
vt 0.7687 0.9749
vt 0.8075 0.9810
vt 0.7785 0.9868
vt 0.8369 0.9860
vt 0.5866 0.1450
vt 0.6845 0.0369
vt 0.7000 0.0372
vt 0.6213 0.1458
vt 0.5517 0.2477
vt 0.5005 0.2465
vt 0.4380 0.2447
vt 0.5411 0.1437
vt 0.6603 0.0362
vt 0.4379 0.3346
vt 0.5004 0.3361
vt 0.4522 0.4183
vt 0.3836 0.4167
vt 0.3125 0.4150
vt 0.3673 0.3327
vt 0.3223 0.5001
vt 0.3921 0.5015
vt 0.3517 0.5862
vt 0.2857 0.5853
vt 0.2004 0.6057
vt 0.2571 0.4988
vt 0.3052 0.6728
vt 0.3628 0.6727
vt 0.2535 0.6734
vt 0.4879 0.1421
vt 0.6299 0.0352
vt 0.3680 0.2426
vt 0.2963 0.2401
vt 0.4320 0.1401
vt 0.5966 0.0341
vt 0.2919 0.3305
vt 0.2421 0.4130
vt 0.1465 0.4308
vt 0.2181 0.3280
vt 0.2007 0.4975
vt 0.1636 0.5830
vt 0.1349 0.5829
vt 0.1487 0.4963
vt 0.2566 0.6750
vt 0.1923 0.5831
vt 0.2823 0.6770
vt 0.1455 0.5613
vt 0.3781 0.1380
vt 0.5638 0.0328
vt 0.2289 0.2375
vt 0.1081 0.2605
vt 0.3349 0.1361
vt 0.5363 0.0316
vt 0.1523 0.3254
vt 0.1120 0.4075
vt 0.0615 0.4053
vt 0.0904 0.3227
vt 0.1589 0.4965
vt 0.1625 0.4098
vt 0.2309 0.5869
vt 0.3135 0.5896
vt 0.1948 0.4976
vt 0.0814 0.3852
vt 0.3531 0.6799
vt 0.4560 0.6831
vt 0.3110 0.1348
vt 0.5187 0.0307
vt 0.1033 0.2388
vt 0.0873 0.2374
vt 0.2967 0.1337
vt 0.5062 0.0300
vt 0.1099 0.3227
vt 0.1193 0.2402
vt 0.1563 0.4090
vt 0.2403 0.4114
vt 0.1593 0.3238
vt 0.1436 0.2118
vt 0.2820 0.5002
vt 0.4386 0.5935
vt 0.5638 0.5971
vt 0.3957 0.5036
vt 0.5777 0.6863
vt 0.6828 0.6883
vt 0.3569 0.1355
vt 0.5290 0.0306
vt 0.2487 0.2359
vt 0.3495 0.2392
vt 0.4234 0.1377
vt 0.5576 0.0315
vt 0.2686 0.3272
vt 0.3712 0.4156
vt 0.5005 0.4197
vt 0.3961 0.3315
vt 0.5111 0.5069
vt 0.6466 0.5987
vt 0.7200 0.6211
vt 0.5999 0.5092
vt 0.7357 0.6880
vt 0.7626 0.6864
vt 0.5030 0.1404
vt 0.5977 0.0328
vt 0.4549 0.2428
vt 0.5424 0.2460
vt 0.5758 0.1431
vt 0.6397 0.0344
vt 0.5002 0.3349
vt 0.5796 0.4220
vt 0.6401 0.4445
vt 0.5700 0.3373
vt 0.6337 0.5096
vt 0.6753 0.5973
vt 0.6294 0.5944
vt 0.6401 0.5089
vt 0.7117 0.6828
vt 0.7212 0.6002
vt 0.6544 0.6795
vt 0.6435 0.5737
vt 0.6419 0.1461
vt 0.7046 0.0371
vt 0.7037 0.0369
vt 0.6555 0.1462
vt 0.6166 0.2489
vt 0.5879 0.2484
vt 0.5513 0.3373
vt 0.5965 0.3383
vt 0.5966 0.4006
vt 0.5151 0.4198
vt 0.4620 0.5031
vt 0.5281 0.5049
vt 0.4979 0.5893
vt 0.4239 0.5875
vt 0.4322 0.6732
vt 0.5078 0.6745
vt 0.6222 0.1449
vt 0.6736 0.0357
vt 0.5896 0.2478
vt 0.5946 0.3381
vt 0.6184 0.4222
vt 0.5858 0.4210
vt 0.5861 0.5069
vt 0.6509 0.4234
vt 0.5695 0.5916
vt 0.5842 0.6766
vn 0.0320 -0.6785 -0.7339
vn 0.0455 -0.6634 -0.7469
vn 0.1194 -0.8964 -0.4268
vn 0.1135 -0.8986 -0.4237
vn 0.0774 -0.9095 -0.4083
vn -0.0029 -0.6988 -0.7152
vn -0.0878 -0.3882 -0.9174
vn -0.0517 -0.3615 -0.9309
vn -0.0307 -0.3365 -0.9412
vn -0.1273 0.0063 -0.9918
vn -0.0990 0.0286 -0.9947
vn -0.1662 -0.0170 -0.9859
vn -0.2275 0.3641 -0.9031
vn -0.1853 0.3765 -0.9077
vn -0.1522 0.3855 -0.9100
vn -0.2167 0.6958 -0.6847
vn -0.1845 0.6936 -0.6963
vn -0.2597 0.6927 -0.6727
vn -0.2562 0.9084 -0.3303
vn -0.2150 0.9113 -0.3510
vn -0.1897 0.9088 -0.3715
vn -0.1787 0.9831 0.0401
vn -0.1633 0.9863 0.0227
vn -0.2169 0.9742 0.0620
vn -0.1504 0.8871 0.4363
vn -0.1135 0.8998 0.4212
vn -0.1073 0.9020 0.4181
vn -0.0306 0.6806 0.7320
vn -0.0320 0.6716 0.7402
vn -0.0675 0.6699 0.7393
vn 0.0192 0.3571 0.9338
vn 0.0566 0.3645 0.9295
vn 0.0481 0.3458 0.9370
vn 0.1356 -0.0033 0.9908
vn 0.1203 -0.0204 0.9925
vn 0.0985 -0.0104 0.9951
vn 0.1584 -0.3843 0.9095
vn 0.1950 -0.3741 0.9066
vn 0.1753 -0.3797 0.9083
vn 0.1801 -0.9827 -0.0421
vn 0.1773 -0.9837 -0.0301
vn 0.2077 -0.9069 0.3665
vn 0.2199 -0.9108 0.3494
vn 0.1825 -0.9193 0.3486
vn 0.1428 -0.9891 -0.0363
vn 0.2250 -0.6943 0.6836
vn 0.2063 -0.6901 0.6937
vn 0.1883 -0.7058 0.6829
vn -0.3283 -0.0823 -0.9409
vn -0.4012 0.3037 -0.8642
vn -0.2444 -0.4554 -0.8561
vn -0.4842 -0.5147 -0.7075
vn -0.7912 -0.2735 -0.5470
vn -0.6624 0.1809 -0.7270
vn -0.4358 0.6437 -0.6290
vn -0.4340 0.8586 -0.2728
vn -0.9096 0.2810 -0.3061
vn -0.6930 0.7006 -0.1698
vn -0.1568 -0.7453 -0.6480
vn -0.0817 -0.9379 -0.3370
vn -0.3083 -0.9233 -0.2287
vn -0.6001 -0.7380 -0.3085
vn -0.3869 0.9142 0.1203
vn -0.3176 0.8107 0.4917
vn -0.8324 0.4859 0.2665
vn -0.5534 0.6435 0.5288
vn -0.2331 0.5911 0.7722
vn -0.1500 0.2762 0.9493
vn -0.6549 0.2308 0.7195
vn -0.3740 0.1553 0.9143
vn -0.0746 -0.0704 0.9947
vn -0.0193 -0.4261 0.9044
vn -0.5124 -0.2358 0.8257
vn -0.2474 -0.4561 0.8548
vn 0.0115 -0.7250 0.6886
vn 0.0081 -0.9259 0.3776
vn -0.4493 -0.6584 0.6038
vn -0.2206 -0.8908 0.3973
vn -0.0228 -0.9996 0.0125
vn -0.4758 -0.8638 0.1657
vn -0.9202 -0.3063 0.2438
vn 0.0975 -0.4945 -0.8637
vn 0.0977 -0.4915 -0.8654
vn 0.1200 -0.9058 -0.4064
vn 0.1199 -0.8975 -0.4243
vn 0.1198 -0.8975 -0.4244
vn 0.0991 -0.5328 -0.8404
vn 0.0650 -0.1368 -0.9884
vn 0.0626 -0.0909 -0.9939
vn 0.0621 -0.0797 -0.9949
vn 0.0971 -0.5628 -0.8209
vn 0.1198 -0.8971 -0.4252
vn 0.1198 -0.8968 -0.4259
vn 0.0900 -0.5881 -0.8038
vn 0.0500 -0.2129 -0.9758
vn 0.0617 -0.1765 -0.9823
vn 0.0799 -0.6103 -0.7881
vn 0.1197 -0.8968 -0.4260
vn 0.1196 -0.8966 -0.4263
vn 0.0685 -0.6299 -0.7736
vn 0.0124 -0.2785 -0.9604
vn 0.0326 -0.2468 -0.9685
vn 0.0569 -0.6477 -0.7598
vn 0.1195 -0.8965 -0.4265
vn -0.0089 -0.3086 -0.9511
vn 0.0328 0.2013 -0.9790
vn 0.0330 0.2066 -0.9778
vn 0.0331 0.1759 -0.9838
vn 0.0042 0.4222 -0.9065
vn 0.0069 0.4227 -0.9062
vn 0.0086 0.4164 -0.9091
vn 0.0272 0.1519 -0.9880
vn 0.0113 0.1276 -0.9917
vn -0.0237 0.4164 -0.9088
vn -0.0045 0.4204 -0.9073
vn -0.0118 0.1030 -0.9946
vn -0.0389 0.0782 -0.9962
vn -0.0819 0.4033 -0.9114
vn -0.0506 0.4106 -0.9104
vn -0.0682 0.0532 -0.9962
vn -0.1161 0.3949 -0.9113
vn -0.0200 0.6212 -0.7834
vn -0.0169 0.6057 -0.7955
vn -0.0253 0.6405 -0.7675
vn -0.0587 0.8466 -0.5289
vn -0.0521 0.8216 -0.5676
vn -0.0482 0.8032 -0.5938
vn -0.0362 0.6562 -0.7537
vn -0.0569 0.6682 -0.7418
vn -0.0878 0.8797 -0.4673
vn -0.0695 0.8655 -0.4960
vn -0.0844 0.6774 -0.7307
vn -0.1158 0.6845 -0.7197
vn -0.1366 0.8985 -0.4172
vn -0.1111 0.8904 -0.4414
vn -0.1495 0.6900 -0.7082
vn -0.1631 0.9046 -0.3938
vn -0.0883 0.9815 -0.1700
vn -0.0861 0.9767 -0.1963
vn -0.0923 0.9877 -0.1258
vn -0.1066 0.9006 0.4214
vn -0.1065 0.9006 0.4214
vn -0.1064 0.8926 0.4381
vn -0.0987 0.9909 -0.0910
vn -0.1092 0.9920 -0.0623
vn -0.1066 0.9013 0.4198
vn -0.1066 0.9009 0.4206
vn -0.1222 0.9918 -0.0375
vn -0.1361 0.9906 -0.0156
vn -0.1070 0.9016 0.4190
vn -0.1068 0.9015 0.4195
vn -0.1499 0.9887 0.0045
vn -0.1072 0.9018 0.4186
vn -0.0830 0.4992 0.8625
vn -0.0801 0.4585 0.8850
vn -0.0846 0.5377 0.8389
vn -0.0468 0.1414 0.9888
vn -0.0444 0.0950 0.9945
vn -0.0411 0.0561 0.9976
vn -0.0826 0.5687 0.8183
vn -0.0755 0.5950 0.8001
vn -0.0318 0.2196 0.9750
vn -0.0436 0.1822 0.9823
vn -0.0655 0.6175 0.7838
vn -0.0543 0.6375 0.7685
vn 0.0058 0.2868 0.9579
vn -0.0144 0.2543 0.9670
vn -0.0430 0.6555 0.7539
vn 0.0270 0.3174 0.9479
vn -0.0115 -0.1969 0.9803
vn -0.0099 -0.2183 0.9758
vn -0.0118 -0.1714 0.9851
vn 0.0183 -0.4183 0.9081
vn 0.0157 -0.4189 0.9079
vn 0.0156 -0.4256 0.9048
vn -0.0060 -0.1469 0.9891
vn 0.0101 -0.1220 0.9925
vn 0.0464 -0.4122 0.9099
vn 0.0270 -0.4164 0.9087
vn 0.0334 -0.0966 0.9948
vn 0.0608 -0.0710 0.9956
vn 0.1055 -0.3981 0.9112
vn 0.0737 -0.4059 0.9109
vn 0.0903 -0.0454 0.9949
vn 0.1400 -0.3893 0.9104
vn 0.1031 -0.9799 0.1710
vn 0.1011 -0.9757 0.1943
vn 0.0680 -0.8090 0.5838
vn 0.0705 -0.8193 0.5690
vn 0.0771 -0.8444 0.5301
vn 0.1071 -0.9862 0.1259
vn 0.1133 -0.9895 0.0893
vn 0.0877 -0.8637 0.4962
vn 0.1061 -0.8781 0.4664
vn 0.1239 -0.9905 0.0590
vn 0.1368 -0.9900 0.0333
vn 0.1294 -0.8888 0.4396
vn 0.1551 -0.8968 0.4143
vn 0.1505 -0.9886 0.0103
vn 0.1642 -0.9864 -0.0108
vn 0.1816 -0.9028 0.3899
vn 0.0415 -0.6183 0.7848
vn 0.0398 -0.6129 0.7891
vn 0.0468 -0.6375 0.7690
vn 0.0576 -0.6533 0.7548
vn 0.0784 -0.6655 0.7423
vn 0.1062 -0.6746 0.7305
vn 0.1380 -0.6814 0.7187
vn 0.1719 -0.6865 0.7064
s 1
f 1/1/1 125/2/2 181/3/3 52/4/4
f 1/1/1 52/4/4 155/5/5 51/6/6
f 1/1/1 51/6/6 157/7/7 94/8/8
f 1/1/1 94/8/8 182/9/9 125/2/2
f 2/10/10 129/11/11 182/9/9 94/8/8
f 2/10/10 94/8/8 157/7/7 55/12/12
f 2/10/10 55/12/12 159/13/13 98/14/14
f 2/10/10 98/14/14 186/15/15 129/11/11
f 3/16/16 133/17/17 186/15/15 98/14/14
f 3/16/16 98/14/14 159/13/13 58/18/18
f 3/16/16 58/18/18 161/19/19 102/20/20
f 3/16/16 102/20/20 190/21/21 133/17/17
f 4/22/22 137/23/23 190/21/21 102/20/20
f 4/22/22 102/20/20 161/19/19 61/24/24
f 4/22/22 61/24/24 163/25/25 106/26/26
f 4/22/22 106/26/26 194/27/27 137/23/23
f 5/28/28 141/29/29 194/27/27 106/26/26
f 5/28/28 106/26/26 163/25/25 64/30/30
f 5/28/28 64/30/30 165/31/31 110/32/32
f 5/28/28 110/32/32 198/33/33 141/29/29
f 6/34/34 145/35/35 198/33/33 110/32/32
f 6/34/34 110/32/32 165/36/31 67/37/36
f 6/34/34 67/37/36 167/38/37 114/39/38
f 6/34/34 114/39/38 202/40/39 145/35/35
f 7/41/40 149/42/41 206/43/42 118/44/43
f 7/41/40 118/44/43 169/45/44 73/46/45
f 7/41/40 73/46/45 155/5/5 52/4/4
f 7/41/40 52/4/4 181/3/3 149/42/41
f 8/47/46 153/48/47 202/40/39 114/39/38
f 8/47/46 114/39/38 167/38/37 70/49/48
f 8/47/46 70/49/48 169/45/44 118/44/43
f 8/47/46 118/44/43 206/43/42 153/48/47
f 9/50/49 83/51/50 159/13/13 55/12/12
f 9/50/49 55/12/12 157/7/7 82/52/51
f 9/50/49 82/52/51 171/53/52 75/54/53
f 9/50/49 75/54/53 172/55/54 83/51/50
f 10/56/55 84/57/56 161/19/19 58/18/18
f 10/56/55 58/18/18 159/13/13 83/51/50
f 10/56/55 83/51/50 172/55/54 76/58/57
f 10/56/55 76/58/57 173/59/58 84/57/56
f 11/60/59 82/52/51 157/7/7 51/6/6
f 11/60/59 51/6/6 155/5/5 85/61/60
f 11/60/59 85/61/60 170/62/61 74/63/62
f 11/60/59 74/63/62 171/64/52 82/52/51
f 12/65/63 86/66/64 163/25/25 61/24/24
f 12/65/63 61/24/24 161/19/19 84/57/56
f 12/65/63 84/57/56 173/59/58 77/67/65
f 12/65/63 77/67/65 174/68/66 86/66/64
f 13/69/67 87/70/68 165/36/31 64/30/30
f 13/69/67 64/30/30 163/71/25 86/66/64
f 13/69/67 86/66/64 174/72/66 78/73/69
f 13/69/67 78/73/69 175/74/70 87/70/68
f 14/75/71 88/76/72 167/38/37 67/37/36
f 14/75/71 67/37/36 165/36/31 87/70/68
f 14/75/71 87/70/68 175/74/70 79/77/73
f 14/75/71 79/77/73 176/78/74 88/76/72
f 15/79/75 89/80/76 169/45/44 70/49/48
f 15/79/75 70/49/48 167/38/37 88/76/72
f 15/79/75 88/76/72 176/78/74 80/81/77
f 15/79/75 80/81/77 177/82/78 89/80/76
f 16/83/79 85/61/60 155/5/5 73/46/45
f 16/83/79 73/46/45 169/45/44 89/80/76
f 16/83/79 89/80/76 177/82/78 81/84/80
f 16/83/79 81/84/80 170/62/61 85/61/60
f 17/85/81 76/58/57 172/86/54 75/54/53
f 17/85/81 75/54/53 171/64/52 74/63/62
f 17/85/81 74/63/62 170/62/61 81/84/80
f 17/85/81 81/84/80 177/82/78 80/81/77
f 17/85/81 80/81/77 176/78/74 79/77/73
f 17/85/81 79/77/73 175/74/70 78/73/69
f 17/85/81 78/73/69 174/72/66 77/67/65
f 17/85/81 77/67/65 173/87/58 76/58/57
f 18/88/82 50/89/83 154/90/84 90/91/85
f 18/88/82 90/91/85 178/92/86 122/93/87
f 18/88/82 122/93/87 185/94/88 53/95/89
f 18/88/82 53/95/89 156/96/90 50/89/83
f 19/97/91 122/93/87 178/92/86 91/98/92
f 19/97/91 91/98/92 179/99/93 123/100/94
f 19/97/91 123/100/94 184/101/95 97/102/96
f 19/97/91 97/102/96 185/94/88 122/93/87
f 20/103/97 123/100/94 179/99/93 92/104/98
f 20/103/97 92/104/98 180/105/99 124/106/100
f 20/103/97 124/106/100 183/107/101 96/108/102
f 20/103/97 96/108/102 184/101/95 123/100/94
f 21/109/103 124/106/100 180/105/99 93/110/104
f 21/109/103 93/110/104 181/3/3 125/2/2
f 21/109/103 125/2/2 182/9/9 95/111/105
f 21/109/103 95/111/105 183/107/101 124/106/100
f 22/112/106 54/113/107 156/96/90 53/95/89
f 22/112/106 53/95/89 185/94/88 126/114/108
f 22/112/106 126/114/108 189/115/109 56/116/110
f 22/112/106 56/116/110 158/117/111 54/113/107
f 23/118/112 126/114/108 185/94/88 97/102/96
f 23/118/112 97/102/96 184/101/95 127/119/113
f 23/118/112 127/119/113 188/120/114 101/121/115
f 23/118/112 101/121/115 189/115/109 126/114/108
f 24/122/116 127/119/113 184/101/95 96/108/102
f 24/122/116 96/108/102 183/107/101 128/123/117
f 24/122/116 128/123/117 187/124/118 100/125/119
f 24/122/116 100/125/119 188/120/114 127/119/113
f 25/126/120 128/123/117 183/127/101 95/111/105
f 25/126/120 95/111/105 182/9/9 129/11/11
f 25/126/120 129/11/11 186/15/15 99/128/121
f 25/126/120 99/128/121 187/129/118 128/123/117
f 26/130/122 57/131/123 158/117/111 56/116/110
f 26/130/122 56/116/110 189/115/109 130/132/124
f 26/130/122 130/132/124 193/133/125 59/134/126
f 26/130/122 59/134/126 160/135/127 57/131/123
f 27/136/128 130/132/124 189/115/109 101/121/115
f 27/136/128 101/121/115 188/120/114 131/137/129
f 27/136/128 131/137/129 192/138/130 105/139/131
f 27/136/128 105/139/131 193/133/125 130/132/124
f 28/140/132 131/137/129 188/141/114 100/125/119
f 28/140/132 100/125/119 187/129/118 132/142/133
f 28/140/132 132/142/133 191/143/134 104/144/135
f 28/140/132 104/144/135 192/145/130 131/137/129
f 29/146/136 132/142/133 187/129/118 99/128/121
f 29/146/136 99/128/121 186/15/15 133/17/17
f 29/146/136 133/17/17 190/21/21 103/147/137
f 29/146/136 103/147/137 191/143/134 132/142/133
f 30/148/138 60/149/139 160/135/127 59/134/126
f 30/148/138 59/134/126 193/133/125 134/150/140
f 30/148/138 134/150/140 197/151/141 62/152/142
f 30/148/138 62/152/142 162/153/143 60/149/139
f 31/154/144 134/150/140 193/155/125 105/139/131
f 31/154/144 105/139/131 192/145/130 135/156/145
f 31/154/144 135/156/145 196/157/146 109/158/147
f 31/154/144 109/158/147 197/159/141 134/150/140
f 32/160/148 135/156/145 192/145/130 104/144/135
f 32/160/148 104/144/135 191/143/134 136/161/149
f 32/160/148 136/161/149 195/162/150 108/163/151
f 32/160/148 108/163/151 196/157/146 135/156/145
f 33/164/152 136/161/149 191/143/134 103/147/137
f 33/164/152 103/147/137 190/21/21 137/23/23
f 33/164/152 137/23/23 194/27/27 107/165/153
f 33/164/152 107/165/153 195/162/150 136/161/149
f 34/166/154 63/167/155 162/153/143 62/152/142
f 34/166/154 62/152/142 197/159/141 138/168/156
f 34/166/154 138/168/156 201/169/157 65/170/158
f 34/166/154 65/170/158 164/171/159 63/167/155
f 35/172/160 138/168/156 197/159/141 109/158/147
f 35/172/160 109/158/147 196/157/146 139/173/161
f 35/172/160 139/173/161 200/174/162 113/175/163
f 35/172/160 113/175/163 201/169/157 138/168/156
f 36/176/164 139/173/161 196/157/146 108/163/151
f 36/176/164 108/163/151 195/162/150 140/177/165
f 36/176/164 140/177/165 199/178/166 112/179/167
f 36/176/164 112/179/167 200/174/162 139/173/161
f 37/180/168 140/177/165 195/162/150 107/165/153
f 37/180/168 107/165/153 194/27/27 141/29/29
f 37/180/168 141/29/29 198/33/33 111/181/169
f 37/180/168 111/181/169 199/178/166 140/177/165
f 38/182/170 66/183/171 164/171/159 65/170/158
f 38/182/170 65/170/158 201/169/157 142/184/172
f 38/182/170 142/184/172 205/185/173 68/186/174
f 38/182/170 68/186/174 166/187/175 66/183/171
f 39/188/176 142/184/172 201/169/157 113/175/163
f 39/188/176 113/175/163 200/174/162 143/189/177
f 39/188/176 143/189/177 204/190/178 117/191/179
f 39/188/176 117/191/179 205/185/173 142/184/172
f 40/192/180 143/189/177 200/174/162 112/179/167
f 40/192/180 112/179/167 199/178/166 144/193/181
f 40/192/180 144/193/181 203/194/182 116/195/183
f 40/192/180 116/195/183 204/190/178 143/189/177
f 41/196/184 144/193/181 199/197/166 111/181/169
f 41/196/184 111/181/169 198/33/33 145/35/35
f 41/196/184 145/35/35 202/40/39 115/198/185
f 41/196/184 115/198/185 203/199/182 144/193/181
f 42/200/186 72/201/187 168/202/188 71/203/189
f 42/200/186 71/203/189 209/204/190 146/205/191
f 42/200/186 146/205/191 178/92/86 90/91/85
f 42/200/186 90/91/85 154/90/84 72/201/187
f 43/206/192 146/205/191 209/204/190 121/207/193
f 43/206/192 121/207/193 208/208/194 147/209/195
f 43/206/192 147/209/195 179/99/93 91/98/92
f 43/206/192 91/98/92 178/92/86 146/205/191
f 44/210/196 147/209/195 208/208/194 120/211/197
f 44/210/196 120/211/197 207/212/198 148/213/199
f 44/210/196 148/213/199 180/105/99 92/104/98
f 44/210/196 92/104/98 179/99/93 147/209/195
f 45/214/200 148/213/199 207/212/198 119/215/201
f 45/214/200 119/215/201 206/43/42 149/42/41
f 45/214/200 149/42/41 181/3/3 93/110/104
f 45/214/200 93/110/104 180/105/99 148/213/199
f 46/216/202 69/217/203 166/187/175 68/186/174
f 46/216/202 68/186/174 205/185/173 150/218/204
f 46/216/202 150/218/204 209/204/190 71/203/189
f 46/216/202 71/203/189 168/202/188 69/217/203
f 47/219/205 150/218/204 205/185/173 117/191/179
f 47/219/205 117/191/179 204/190/178 151/220/206
f 47/219/205 151/220/206 208/221/194 121/207/193
f 47/219/205 121/207/193 209/204/190 150/218/204
f 48/222/207 151/220/206 204/223/178 116/195/183
f 48/222/207 116/195/183 203/199/182 152/224/208
f 48/222/207 152/224/208 207/212/198 120/211/197
f 48/222/207 120/211/197 208/208/194 151/220/206
f 49/225/209 152/224/208 203/199/182 115/198/185
f 49/225/209 115/198/185 202/40/39 153/48/47
f 49/225/209 153/48/47 206/43/42 119/215/201
f 49/225/209 119/215/201 207/212/198 152/224/208
