# Blender v2.77 (sub 0) OBJ File: 'still_blendswap1.blend'
# www.blender.org
o Cylinder.007_Cylinder.055
v -4.971587 0.030168 0.184542
v -4.978027 -0.007285 0.204487
v -4.977518 -0.048191 0.193436
v -4.970359 -0.068590 0.157864
v -4.960742 -0.056532 0.118611
v -4.954301 -0.019081 0.098671
v -4.961970 0.042226 0.145289
v -4.954810 0.021826 0.109721
v -5.305556 -0.027137 0.150374
v -5.305146 -0.060102 0.141469
v -5.298919 0.003339 0.133746
v -5.297929 -0.076246 0.112247
v -5.288132 -0.066112 0.079826
v -5.281494 -0.035636 0.063198
v -5.281904 -0.002670 0.072104
v -5.289122 0.013474 0.101325
v -5.343769 -0.034780 0.102023
v -2.727687 0.231268 0.168408
v -3.286490 0.168800 0.216091
v -3.845673 0.111423 0.245722
v -4.409086 0.064329 0.237745
v -2.727097 0.207497 0.174428
v -3.286185 0.141746 0.225596
v -3.845958 0.081045 0.258760
v -4.411582 0.030446 0.254411
v -2.726736 0.178479 0.166589
v -3.285787 0.109756 0.216954
v -3.845523 0.046083 0.249315
v -4.411110 -0.007488 0.244164
v -2.726816 0.161213 0.149484
v -3.285530 0.091569 0.195228
v -3.844623 0.027017 0.222920
v -4.407947 -0.027253 0.213005
v -2.727289 0.165816 0.133120
v -3.285564 0.097842 0.173133
v -3.843784 0.035017 0.195033
v -4.403943 -0.017270 0.179193
v -2.727880 0.189593 0.127082
v -3.285870 0.124900 0.163612
v -3.843498 0.065400 0.181979
v -4.401445 0.016615 0.162521
v -2.728160 0.235871 0.152045
v -3.286524 0.175073 0.193996
v -3.844834 0.119424 0.217835
v -4.405082 0.074312 0.203933
v -2.728240 0.218610 0.134921
v -3.286267 0.156890 0.172254
v -3.843933 0.100363 0.191424
v -4.401917 0.054549 0.172769
v -2.448523 0.262796 0.143453
v -5.192735 0.016709 0.152682
v -4.966831 0.040433 0.166060
v -2.727384 0.221170 0.173191
v -2.447875 0.240657 0.147733
v -5.200273 -0.019869 0.172516
v -2.726868 0.192512 0.172201
v -2.447533 0.213125 0.140296
v -5.199779 -0.059534 0.161801
v -2.726715 0.167384 0.158661
v -2.447696 0.196329 0.125498
v -5.191544 -0.079050 0.126813
v -2.727015 0.160509 0.140492
v -2.448270 0.200109 0.112000
v -5.180391 -0.066985 0.088049
v -2.727592 0.175916 0.128330
v -2.448919 0.222252 0.107702
v -5.172854 -0.030408 0.068215
v -2.728109 0.204579 0.129304
v -2.449261 0.249784 0.115140
v -5.173347 0.009257 0.078930
v -2.728261 0.229702 0.142860
v -2.449097 0.266576 0.129955
v -5.181582 0.028773 0.113917
v -5.334482 -0.012853 0.119579
v -5.338511 -0.031352 0.129672
v -5.338262 -0.051362 0.124267
v -5.333881 -0.061162 0.106529
v -5.327934 -0.055010 0.086849
v -5.323905 -0.036511 0.076756
v -5.324154 -0.016501 0.082162
v -5.328535 -0.006701 0.099899
v -5.302985 -0.010227 0.145086
v -5.306366 -0.044669 0.149279
v -5.302225 -0.071330 0.128580
v -5.294063 0.011820 0.118458
v -5.292988 -0.074592 0.095114
v -5.284066 -0.052545 0.068486
v -5.280684 -0.018103 0.064294
v -5.284825 0.008558 0.084993
v -2.727961 0.236574 0.161040
v -3.286549 0.175248 0.205941
v -3.845299 0.119044 0.232758
v -4.407133 0.073249 0.221900
v -4.975549 0.013554 0.198198
v -4.410662 0.049435 0.249304
v -3.845908 0.098209 0.254974
v -3.286365 0.157156 0.223094
v -4.978768 -0.028987 0.203027
v -4.411761 0.010445 0.252791
v -3.845827 0.062735 0.256926
v -3.285982 0.125102 0.223561
v -4.974606 -0.062269 0.177715
v -4.409787 -0.020879 0.230309
v -3.845102 0.033404 0.237467
v -3.285627 0.097861 0.207076
v -4.965497 -0.066797 0.137093
v -4.405896 -0.026189 0.195038
v -3.844159 0.027396 0.208000
v -3.285506 0.091392 0.183288
v -4.956780 -0.039918 0.104958
v -4.402367 -0.002375 0.167633
v -3.843548 0.048234 0.185775
v -3.285690 0.109488 0.166122
v -4.953560 0.002621 0.100132
v -4.401267 0.036617 0.164139
v -3.843629 0.083712 0.183808
v -3.286072 0.141545 0.165643
v -4.957723 0.035904 0.125440
v -4.403241 0.067939 0.186627
v -3.844354 0.113038 0.203281
v -3.286427 0.168783 0.182140
v -3.006970 0.199887 0.192807
v -3.566106 0.138986 0.234863
v -4.126297 0.086432 0.247179
v -4.691647 0.045460 0.217005
v -3.006480 0.174479 0.200567
v -3.566061 0.110276 0.246123
v -4.127317 0.054340 0.262019
v -4.696053 0.009770 0.235410
v -3.006100 0.143975 0.192327
v -3.565645 0.076800 0.237080
v -4.126863 0.017891 0.252173
v -4.695562 -0.029651 0.224761
v -3.006054 0.126244 0.172913
v -3.565101 0.058167 0.213030
v -4.125203 -0.001562 0.223408
v -4.690463 -0.049710 0.191296
v -3.006367 0.131676 0.153684
v -3.564747 0.065295 0.188054
v -4.123306 0.007374 0.192578
v -4.683740 -0.038658 0.154622
v -3.006857 0.157090 0.145904
v -3.564791 0.094009 0.176779
v -4.122285 0.039471 0.177723
v -4.679333 -0.002968 0.136221
v -3.007283 0.205319 0.173578
v -3.565752 0.146113 0.209886
v -4.124401 0.095368 0.216348
v -4.684924 0.056512 0.180332
v -3.007237 0.187594 0.154145
v -3.565208 0.127485 0.185822
v -4.122738 0.075919 0.187569
v -4.679823 0.036452 0.146870
v -2.448845 0.267537 0.137476
v -5.187210 0.026848 0.134409
v -2.448182 0.253466 0.147126
v -5.197357 0.000441 0.166222
v -2.447645 0.226500 0.145410
v -5.201181 -0.040951 0.171173
v -2.447548 0.202434 0.133341
v -5.196442 -0.073079 0.146361
v -2.447948 0.195367 0.117980
v -5.185917 -0.077125 0.106321
v -2.448611 0.209441 0.108320
v -5.175770 -0.050717 0.074509
v -2.449150 0.236411 0.110019
v -5.171946 -0.009326 0.069559
v -2.449246 0.260472 0.122105
v -5.176684 0.022803 0.094370
v -5.321835 -0.001441 0.112739
v -5.328408 -0.017683 0.132356
v -5.330898 -0.043057 0.135445
v -5.327847 -0.062699 0.120196
v -5.321043 -0.065102 0.095541
v -5.314469 -0.048860 0.075924
v -5.311979 -0.023486 0.072836
v -5.315029 -0.003845 0.088085
v -3.007165 0.205761 0.184048
v -3.565972 0.146016 0.223313
v -4.125396 0.094674 0.232784
v -4.688336 0.055068 0.199770
v -4.694378 0.029692 0.229672
v -4.126979 0.072401 0.257576
v -3.566140 0.126560 0.242984
v -3.006730 0.189019 0.198698
v -4.696504 -0.011085 0.233884
v -4.127286 0.035190 0.260290
v -3.565890 0.092800 0.244187
v -3.006258 0.158665 0.198436
v -4.693469 -0.043376 0.209934
v -4.126139 0.004842 0.239326
v -3.565368 0.064510 0.226222
v -3.006027 0.132478 0.183425
v -4.687051 -0.048266 0.171856
v -4.124207 -0.000869 0.206974
v -3.564881 0.058264 0.199607
v -3.006171 0.125801 0.162447
v -4.681008 -0.022891 0.141957
v -4.122623 0.021407 0.182175
v -3.564713 0.077722 0.179926
v -3.006608 0.142547 0.147783
v -4.678882 0.017886 0.137747
v -4.122315 0.058622 0.179446
v -3.564963 0.111486 0.178711
v -3.007080 0.172905 0.148031
v -4.681917 0.050178 0.161696
v -4.123464 0.088966 0.200426
v -3.565484 0.139772 0.196688
v -3.007310 0.199088 0.163057
vt 0.5140 0.8581
vt 0.3812 0.7635
vt 0.4268 0.7620
vt 0.5448 0.8554
vt 0.6610 0.9306
vt 0.6432 0.9339
vt 0.6325 0.9373
vt 0.4910 0.8610
vt 0.3434 0.7654
vt 0.5262 0.8639
vt 0.3705 0.7682
vt 0.6657 0.9397
vt 0.7064 0.9414
vt 0.5745 0.8664
vt 0.4166 0.7711
vt 0.6494 0.8684
vt 0.5008 0.7742
vt 0.7623 0.9420
vt 0.8201 0.9413
vt 0.7315 0.8693
vt 0.6020 0.7768
vt 0.8016 0.8687
vt 0.6988 0.7782
vt 0.8669 0.9393
vt 0.9231 0.9576
vt 0.8491 0.8668
vt 0.7715 0.7780
vt 0.8636 0.8636
vt 0.8007 0.7759
vt 0.9254 0.9512
vt 0.9189 0.9471
vt 0.8615 0.8599
vt 0.8080 0.7729
vt 0.8156 0.8566
vt 0.7559 0.7690
vt 0.9062 0.9263
vt 0.8623 0.9267
vt 0.8232 0.9249
vt 0.7658 0.8539
vt 0.6985 0.7656
vt 0.5915 0.8534
vt 0.4878 0.7614
vt 0.5578 0.7617
vt 0.6479 0.8523
vt 0.7337 0.9255
vt 0.6928 0.9276
vt 0.7079 0.8525
vt 0.6302 0.7631
vt 0.7788 0.9246
vt 0.7311 0.9732
vt 0.7627 0.9744
vt 0.7039 0.9713
vt 0.7403 0.9842
vt 0.7594 0.9855
vt 0.7810 0.9864
vt 0.8030 0.9745
vt 0.8435 0.9734
vt 0.8077 0.9864
vt 0.8344 0.9856
vt 0.7086 0.9683
vt 0.7191 0.9653
vt 0.7438 0.9736
vt 0.7501 0.9783
vt 0.7360 0.9813
vt 0.8756 0.9714
vt 0.9034 0.9688
vt 0.8559 0.9842
vt 0.8749 0.9823
vt 0.8991 0.9656
vt 0.8891 0.9628
vt 0.9319 0.9552
vt 0.8772 0.9794
vt 0.8631 0.9767
vt 0.8681 0.9717
vt 0.8674 0.9607
vt 0.8379 0.9594
vt 0.8446 0.9737
vt 0.8308 0.9692
vt 0.8044 0.9594
vt 0.7708 0.9605
vt 0.8066 0.9729
vt 0.7813 0.9700
vt 0.7411 0.9626
vt 0.7687 0.9749
vt 0.8075 0.9810
vt 0.7785 0.9868
vt 0.8369 0.9860
vt 0.5866 0.1450
vt 0.6845 0.0369
vt 0.7000 0.0372
vt 0.6213 0.1458
vt 0.5517 0.2477
vt 0.5005 0.2465
vt 0.4380 0.2447
vt 0.5411 0.1437
vt 0.6603 0.0362
vt 0.4379 0.3346
vt 0.5004 0.3361
vt 0.4522 0.4183
vt 0.3836 0.4167
vt 0.3125 0.4150
vt 0.3673 0.3327
vt 0.3223 0.5001
vt 0.3921 0.5015
vt 0.3517 0.5862
vt 0.2857 0.5853
vt 0.2004 0.6057
vt 0.2571 0.4988
vt 0.3052 0.6728
vt 0.3628 0.6727
vt 0.2535 0.6734
vt 0.4879 0.1421
vt 0.6299 0.0352
vt 0.3680 0.2426
vt 0.2963 0.2401
vt 0.4320 0.1401
vt 0.5966 0.0341
vt 0.2919 0.3305
vt 0.2421 0.4130
vt 0.1465 0.4308
vt 0.2181 0.3280
vt 0.2007 0.4975
vt 0.1636 0.5830
vt 0.1349 0.5829
vt 0.1487 0.4963
vt 0.2566 0.6750
vt 0.1923 0.5831
vt 0.2823 0.6770
vt 0.1455 0.5613
vt 0.3781 0.1380
vt 0.5638 0.0328
vt 0.2289 0.2375
vt 0.1081 0.2605
vt 0.3349 0.1361
vt 0.5363 0.0316
vt 0.1523 0.3254
vt 0.1120 0.4075
vt 0.0615 0.4053
vt 0.0904 0.3227
vt 0.1589 0.4965
vt 0.1625 0.4098
vt 0.2309 0.5869
vt 0.3135 0.5896
vt 0.1948 0.4976
vt 0.0814 0.3852
vt 0.3531 0.6799
vt 0.4560 0.6831
vt 0.3110 0.1348
vt 0.5187 0.0307
vt 0.1033 0.2388
vt 0.0873 0.2374
vt 0.2967 0.1337
vt 0.5062 0.0300
vt 0.1099 0.3227
vt 0.1193 0.2402
vt 0.1563 0.4090
vt 0.2403 0.4114
vt 0.1593 0.3238
vt 0.1436 0.2118
vt 0.2820 0.5002
vt 0.4386 0.5935
vt 0.5638 0.5971
vt 0.3957 0.5036
vt 0.5777 0.6863
vt 0.6828 0.6883
vt 0.3569 0.1355
vt 0.5290 0.0306
vt 0.2487 0.2359
vt 0.3495 0.2392
vt 0.4234 0.1377
vt 0.5576 0.0315
vt 0.2686 0.3272
vt 0.3712 0.4156
vt 0.5005 0.4197
vt 0.3961 0.3315
vt 0.5111 0.5069
vt 0.6466 0.5987
vt 0.7200 0.6211
vt 0.5999 0.5092
vt 0.7357 0.6880
vt 0.7626 0.6864
vt 0.5030 0.1404
vt 0.5977 0.0328
vt 0.4549 0.2428
vt 0.5424 0.2460
vt 0.5758 0.1431
vt 0.6397 0.0344
vt 0.5002 0.3349
vt 0.5796 0.4220
vt 0.6401 0.4445
vt 0.5700 0.3373
vt 0.6337 0.5096
vt 0.6753 0.5973
vt 0.6294 0.5944
vt 0.6401 0.5089
vt 0.7117 0.6828
vt 0.7212 0.6002
vt 0.6544 0.6795
vt 0.6435 0.5737
vt 0.6419 0.1461
vt 0.7046 0.0371
vt 0.7037 0.0369
vt 0.6555 0.1462
vt 0.6166 0.2489
vt 0.5879 0.2484
vt 0.5513 0.3373
vt 0.5965 0.3383
vt 0.5966 0.4006
vt 0.5151 0.4198
vt 0.4620 0.5031
vt 0.5281 0.5049
vt 0.4979 0.5893
vt 0.4239 0.5875
vt 0.4322 0.6732
vt 0.5078 0.6745
vt 0.6222 0.1449
vt 0.6736 0.0357
vt 0.5896 0.2478
vt 0.5946 0.3381
vt 0.6184 0.4222
vt 0.5858 0.4210
vt 0.5861 0.5069
vt 0.6509 0.4234
vt 0.5695 0.5916
vt 0.5842 0.6766
vn -0.1247 0.7766 0.6175
vn -0.1057 0.7677 0.6320
vn -0.0830 0.9576 0.2758
vn -0.0902 0.9579 0.2725
vn -0.1338 0.9569 0.2577
vn -0.1692 0.7837 0.5976
vn -0.1857 0.4958 0.8483
vn -0.1387 0.4823 0.8649
vn -0.1087 0.4656 0.8783
vn -0.1320 0.1202 0.9839
vn -0.0945 0.1067 0.9898
vn -0.1811 0.1312 0.9747
vn -0.1563 -0.2604 0.9528
vn -0.1063 -0.2612 0.9594
vn -0.0669 -0.2615 0.9629
vn -0.0651 -0.6087 0.7907
vn -0.0294 -0.5975 0.8013
vn -0.1137 -0.6171 0.7786
vn -0.0602 -0.8767 0.4771
vn -0.0135 -0.8677 0.4969
vn 0.0145 -0.8564 0.5160
vn 0.0412 -0.9916 0.1222
vn 0.0594 -0.9885 0.1392
vn -0.0040 -0.9948 0.1012
vn 0.0456 -0.9575 -0.2846
vn 0.0904 -0.9586 -0.2699
vn 0.0978 -0.9588 -0.2667
vn 0.1267 -0.7779 -0.6154
vn 0.1227 -0.7712 -0.6247
vn 0.0823 -0.7784 -0.6223
vn 0.1007 -0.4874 -0.8673
vn 0.1448 -0.4839 -0.8631
vn 0.1306 -0.4697 -0.8731
vn 0.1420 -0.1210 -0.9824
vn 0.1207 -0.1090 -0.9867
vn 0.0982 -0.1244 -0.9873
vn 0.0738 0.2618 -0.9623
vn 0.1180 0.2613 -0.9580
vn 0.0947 0.2616 -0.9605
vn -0.0395 0.9920 -0.1200
vn -0.0431 0.9903 -0.1317
vn 0.0063 0.8597 -0.5107
vn 0.0192 0.8686 -0.4950
vn -0.0255 0.8686 -0.4947
vn -0.0834 0.9886 -0.1251
vn 0.0749 0.6095 -0.7892
vn 0.0550 0.5998 -0.7982
vn 0.0303 0.6123 -0.7901
vn -0.3708 0.1428 0.9177
vn -0.3549 -0.2500 0.9008
vn -0.3727 0.5034 0.7795
vn -0.6362 0.4620 0.6178
vn -0.8507 0.1348 0.5081
vn -0.6448 -0.2124 0.7342
vn -0.3123 -0.6120 0.7265
vn -0.2629 -0.8696 0.4179
vn -0.8316 -0.4149 0.3690
vn -0.5627 -0.7719 0.2956
vn -0.3509 0.7727 0.5289
vn -0.3192 0.9279 0.1924
vn -0.5638 0.8202 0.0961
vn -0.7907 0.5712 0.2201
vn -0.2039 -0.9780 0.0441
vn -0.1582 -0.9283 -0.3366
vn -0.7302 -0.6717 -0.1245
vn -0.4501 -0.8099 -0.3760
vn -0.1221 -0.7464 -0.6542
vn -0.1095 -0.4560 -0.8832
vn -0.6339 -0.4853 -0.6022
vn -0.3884 -0.3829 -0.8382
vn -0.1119 -0.1110 -0.9875
vn -0.1376 0.2571 -0.9565
vn -0.6051 -0.0409 -0.7951
vn -0.4020 0.2315 -0.8859
vn -0.1746 0.5858 -0.7914
vn -0.2246 0.8270 -0.5154
vn -0.6387 0.4079 -0.6524
vn -0.4728 0.7188 -0.5096
vn -0.2729 0.9475 -0.1663
vn -0.7084 0.6580 -0.2553
vn -0.9739 0.0276 -0.2252
vn -0.0035 0.6382 0.7698
vn -0.0019 0.6324 0.7747
vn -0.0844 0.9630 0.2559
vn -0.0826 0.9585 0.2727
vn -0.0826 0.9585 0.2729
vn -0.0115 0.6715 0.7409
vn 0.0496 0.3073 0.9503
vn 0.0584 0.2635 0.9629
vn 0.0611 0.2496 0.9664
vn -0.0214 0.6965 0.7172
vn -0.0825 0.9582 0.2739
vn -0.0825 0.9579 0.2748
vn -0.0359 0.7161 0.6970
vn 0.0136 0.3742 0.9272
vn 0.0360 0.3435 0.9384
vn -0.0531 0.7323 0.6789
vn -0.0826 0.9579 0.2749
vn -0.0828 0.9578 0.2752
vn -0.0710 0.7459 0.6623
vn -0.0454 0.4247 0.9042
vn -0.0146 0.4009 0.9160
vn -0.0887 0.7577 0.6466
vn -0.0829 0.9577 0.2754
vn -0.0771 0.4464 0.8915
vn 0.0970 -0.0266 0.9949
vn 0.0988 -0.0340 0.9945
vn 0.0910 -0.0015 0.9958
vn 0.1187 -0.2573 0.9590
vn 0.1218 -0.2571 0.9586
vn 0.1224 -0.2521 0.9599
vn 0.0785 0.0206 0.9967
vn 0.0545 0.0403 0.9977
vn 0.0857 -0.2587 0.9621
vn 0.1084 -0.2578 0.9601
vn 0.0223 0.0584 0.9980
vn -0.0145 0.0753 0.9970
vn 0.0166 -0.2607 0.9653
vn 0.0539 -0.2598 0.9641
vn -0.0538 0.0915 0.9943
vn -0.0240 -0.2613 0.9649
vn 0.1393 -0.4739 0.8695
vn 0.1392 -0.4581 0.8779
vn 0.1379 -0.4963 0.8571
vn 0.1488 -0.7404 0.6555
vn 0.1505 -0.7086 0.6894
vn 0.1506 -0.6876 0.7103
vn 0.1293 -0.5163 0.8465
vn 0.1089 -0.5351 0.8377
vn 0.1235 -0.7892 0.6015
vn 0.1410 -0.7665 0.6265
vn 0.0799 -0.5526 0.8296
vn 0.0461 -0.5688 0.8212
vn 0.0724 -0.8271 0.5574
vn 0.0996 -0.8093 0.5788
vn 0.0092 -0.5839 0.8117
vn 0.0438 -0.8429 0.5363
vn 0.1451 -0.9348 0.3242
vn 0.1466 -0.9262 0.3472
vn 0.1416 -0.9489 0.2818
vn 0.0984 -0.9577 -0.2704
vn 0.0985 -0.9576 -0.2705
vn 0.0967 -0.9532 -0.2866
vn 0.1350 -0.9592 0.2485
vn 0.1230 -0.9675 0.2210
vn 0.0985 -0.9582 -0.2685
vn 0.0985 -0.9579 -0.2694
vn 0.1079 -0.9744 0.1973
vn 0.0917 -0.9800 0.1762
vn 0.0982 -0.9585 -0.2676
vn 0.0984 -0.9583 -0.2681
vn 0.0754 -0.9847 0.1568
vn 0.0980 -0.9586 -0.2672
vn 0.0211 -0.6388 -0.7691
vn 0.0146 -0.6059 -0.7954
vn 0.0291 -0.6722 -0.7398
vn -0.0279 -0.3072 -0.9512
vn -0.0368 -0.2630 -0.9640
vn -0.0423 -0.2285 -0.9726
vn 0.0393 -0.6982 -0.7148
vn 0.0540 -0.7187 -0.6932
vn 0.0086 -0.3761 -0.9265
vn -0.0142 -0.3444 -0.9387
vn 0.0710 -0.7351 -0.6742
vn 0.0887 -0.7489 -0.6566
vn 0.0679 -0.4279 -0.9012
vn 0.0370 -0.4035 -0.9142
vn 0.1062 -0.7609 -0.6401
vn 0.0996 -0.4500 -0.8874
vn -0.0718 0.0275 -0.9970
vn -0.0750 0.0470 -0.9961
vn -0.0659 0.0022 -0.9978
vn -0.0923 0.2590 -0.9615
vn -0.0953 0.2589 -0.9612
vn -0.0968 0.2638 -0.9597
vn -0.0532 -0.0203 -0.9984
vn -0.0288 -0.0407 -0.9987
vn -0.0588 0.2601 -0.9638
vn -0.0819 0.2593 -0.9623
vn 0.0038 -0.0592 -0.9982
vn 0.0411 -0.0767 -0.9962
vn 0.0115 0.2615 -0.9651
vn -0.0265 0.2609 -0.9650
vn 0.0808 -0.0934 -0.9923
vn 0.0526 0.2618 -0.9637
vn -0.1280 0.9369 -0.3254
vn -0.1295 0.9278 -0.3499
vn -0.1294 0.6961 -0.7061
vn -0.1291 0.7109 -0.6913
vn -0.1274 0.7429 -0.6572
vn -0.1245 0.9512 -0.2823
vn -0.1179 0.9618 -0.2470
vn -0.1198 0.7695 -0.6272
vn -0.1023 0.7927 -0.6009
vn -0.1059 0.9702 -0.2177
vn -0.0909 0.9770 -0.1929
vn -0.0782 0.8129 -0.5771
vn -0.0509 0.8307 -0.5544
vn -0.0749 0.9825 -0.1708
vn -0.0587 0.9869 -0.1504
vn -0.0222 0.8462 -0.5323
vn -0.1143 0.4763 -0.8718
vn -0.1148 0.4682 -0.8761
vn -0.1129 0.4987 -0.8594
vn -0.1044 0.5189 -0.8484
vn -0.0838 0.5378 -0.8389
vn -0.0544 0.5553 -0.8298
vn -0.0200 0.5716 -0.8203
vn 0.0171 0.5864 -0.8098
s 1
f 1/1/1 125/2/2 181/3/3 52/4/4
f 1/1/1 52/4/4 155/5/5 51/6/6
f 1/1/1 51/6/6 157/7/7 94/8/8
f 1/1/1 94/8/8 182/9/9 125/2/2
f 2/10/10 129/11/11 182/9/9 94/8/8
f 2/10/10 94/8/8 157/7/7 55/12/12
f 2/10/10 55/12/12 159/13/13 98/14/14
f 2/10/10 98/14/14 186/15/15 129/11/11
f 3/16/16 133/17/17 186/15/15 98/14/14
f 3/16/16 98/14/14 159/13/13 58/18/18
f 3/16/16 58/18/18 161/19/19 102/20/20
f 3/16/16 102/20/20 190/21/21 133/17/17
f 4/22/22 137/23/23 190/21/21 102/20/20
f 4/22/22 102/20/20 161/19/19 61/24/24
f 4/22/22 61/24/24 163/25/25 106/26/26
f 4/22/22 106/26/26 194/27/27 137/23/23
f 5/28/28 141/29/29 194/27/27 106/26/26
f 5/28/28 106/26/26 163/25/25 64/30/30
f 5/28/28 64/30/30 165/31/31 110/32/32
f 5/28/28 110/32/32 198/33/33 141/29/29
f 6/34/34 145/35/35 198/33/33 110/32/32
f 6/34/34 110/32/32 165/36/31 67/37/36
f 6/34/34 67/37/36 167/38/37 114/39/38
f 6/34/34 114/39/38 202/40/39 145/35/35
f 7/41/40 149/42/41 206/43/42 118/44/43
f 7/41/40 118/44/43 169/45/44 73/46/45
f 7/41/40 73/46/45 155/5/5 52/4/4
f 7/41/40 52/4/4 181/3/3 149/42/41
f 8/47/46 153/48/47 202/40/39 114/39/38
f 8/47/46 114/39/38 167/38/37 70/49/48
f 8/47/46 70/49/48 169/45/44 118/44/43
f 8/47/46 118/44/43 206/43/42 153/48/47
f 9/50/49 83/51/50 159/13/13 55/12/12
f 9/50/49 55/12/12 157/7/7 82/52/51
f 9/50/49 82/52/51 171/53/52 75/54/53
f 9/50/49 75/54/53 172/55/54 83/51/50
f 10/56/55 84/57/56 161/19/19 58/18/18
f 10/56/55 58/18/18 159/13/13 83/51/50
f 10/56/55 83/51/50 172/55/54 76/58/57
f 10/56/55 76/58/57 173/59/58 84/57/56
f 11/60/59 82/52/51 157/7/7 51/6/6
f 11/60/59 51/6/6 155/5/5 85/61/60
f 11/60/59 85/61/60 170/62/61 74/63/62
f 11/60/59 74/63/62 171/64/52 82/52/51
f 12/65/63 86/66/64 163/25/25 61/24/24
f 12/65/63 61/24/24 161/19/19 84/57/56
f 12/65/63 84/57/56 173/59/58 77/67/65
f 12/65/63 77/67/65 174/68/66 86/66/64
f 13/69/67 87/70/68 165/36/31 64/30/30
f 13/69/67 64/30/30 163/71/25 86/66/64
f 13/69/67 86/66/64 174/72/66 78/73/69
f 13/69/67 78/73/69 175/74/70 87/70/68
f 14/75/71 88/76/72 167/38/37 67/37/36
f 14/75/71 67/37/36 165/36/31 87/70/68
f 14/75/71 87/70/68 175/74/70 79/77/73
f 14/75/71 79/77/73 176/78/74 88/76/72
f 15/79/75 89/80/76 169/45/44 70/49/48
f 15/79/75 70/49/48 167/38/37 88/76/72
f 15/79/75 88/76/72 176/78/74 80/81/77
f 15/79/75 80/81/77 177/82/78 89/80/76
f 16/83/79 85/61/60 155/5/5 73/46/45
f 16/83/79 73/46/45 169/45/44 89/80/76
f 16/83/79 89/80/76 177/82/78 81/84/80
f 16/83/79 81/84/80 170/62/61 85/61/60
f 17/85/81 76/58/57 172/86/54 75/54/53
f 17/85/81 75/54/53 171/64/52 74/63/62
f 17/85/81 74/63/62 170/62/61 81/84/80
f 17/85/81 81/84/80 177/82/78 80/81/77
f 17/85/81 80/81/77 176/78/74 79/77/73
f 17/85/81 79/77/73 175/74/70 78/73/69
f 17/85/81 78/73/69 174/72/66 77/67/65
f 17/85/81 77/67/65 173/87/58 76/58/57
f 18/88/82 50/89/83 154/90/84 90/91/85
f 18/88/82 90/91/85 178/92/86 122/93/87
f 18/88/82 122/93/87 185/94/88 53/95/89
f 18/88/82 53/95/89 156/96/90 50/89/83
f 19/97/91 122/93/87 178/92/86 91/98/92
f 19/97/91 91/98/92 179/99/93 123/100/94
f 19/97/91 123/100/94 184/101/95 97/102/96
f 19/97/91 97/102/96 185/94/88 122/93/87
f 20/103/97 123/100/94 179/99/93 92/104/98
f 20/103/97 92/104/98 180/105/99 124/106/100
f 20/103/97 124/106/100 183/107/101 96/108/102
f 20/103/97 96/108/102 184/101/95 123/100/94
f 21/109/103 124/106/100 180/105/99 93/110/104
f 21/109/103 93/110/104 181/3/3 125/2/2
f 21/109/103 125/2/2 182/9/9 95/111/105
f 21/109/103 95/111/105 183/107/101 124/106/100
f 22/112/106 54/113/107 156/96/90 53/95/89
f 22/112/106 53/95/89 185/94/88 126/114/108
f 22/112/106 126/114/108 189/115/109 56/116/110
f 22/112/106 56/116/110 158/117/111 54/113/107
f 23/118/112 126/114/108 185/94/88 97/102/96
f 23/118/112 97/102/96 184/101/95 127/119/113
f 23/118/112 127/119/113 188/120/114 101/121/115
f 23/118/112 101/121/115 189/115/109 126/114/108
f 24/122/116 127/119/113 184/101/95 96/108/102
f 24/122/116 96/108/102 183/107/101 128/123/117
f 24/122/116 128/123/117 187/124/118 100/125/119
f 24/122/116 100/125/119 188/120/114 127/119/113
f 25/126/120 128/123/117 183/127/101 95/111/105
f 25/126/120 95/111/105 182/9/9 129/11/11
f 25/126/120 129/11/11 186/15/15 99/128/121
f 25/126/120 99/128/121 187/129/118 128/123/117
f 26/130/122 57/131/123 158/117/111 56/116/110
f 26/130/122 56/116/110 189/115/109 130/132/124
f 26/130/122 130/132/124 193/133/125 59/134/126
f 26/130/122 59/134/126 160/135/127 57/131/123
f 27/136/128 130/132/124 189/115/109 101/121/115
f 27/136/128 101/121/115 188/120/114 131/137/129
f 27/136/128 131/137/129 192/138/130 105/139/131
f 27/136/128 105/139/131 193/133/125 130/132/124
f 28/140/132 131/137/129 188/141/114 100/125/119
f 28/140/132 100/125/119 187/129/118 132/142/133
f 28/140/132 132/142/133 191/143/134 104/144/135
f 28/140/132 104/144/135 192/145/130 131/137/129
f 29/146/136 132/142/133 187/129/118 99/128/121
f 29/146/136 99/128/121 186/15/15 133/17/17
f 29/146/136 133/17/17 190/21/21 103/147/137
f 29/146/136 103/147/137 191/143/134 132/142/133
f 30/148/138 60/149/139 160/135/127 59/134/126
f 30/148/138 59/134/126 193/133/125 134/150/140
f 30/148/138 134/150/140 197/151/141 62/152/142
f 30/148/138 62/152/142 162/153/143 60/149/139
f 31/154/144 134/150/140 193/155/125 105/139/131
f 31/154/144 105/139/131 192/145/130 135/156/145
f 31/154/144 135/156/145 196/157/146 109/158/147
f 31/154/144 109/158/147 197/159/141 134/150/140
f 32/160/148 135/156/145 192/145/130 104/144/135
f 32/160/148 104/144/135 191/143/134 136/161/149
f 32/160/148 136/161/149 195/162/150 108/163/151
f 32/160/148 108/163/151 196/157/146 135/156/145
f 33/164/152 136/161/149 191/143/134 103/147/137
f 33/164/152 103/147/137 190/21/21 137/23/23
f 33/164/152 137/23/23 194/27/27 107/165/153
f 33/164/152 107/165/153 195/162/150 136/161/149
f 34/166/154 63/167/155 162/153/143 62/152/142
f 34/166/154 62/152/142 197/159/141 138/168/156
f 34/166/154 138/168/156 201/169/157 65/170/158
f 34/166/154 65/170/158 164/171/159 63/167/155
f 35/172/160 138/168/156 197/159/141 109/158/147
f 35/172/160 109/158/147 196/157/146 139/173/161
f 35/172/160 139/173/161 200/174/162 113/175/163
f 35/172/160 113/175/163 201/169/157 138/168/156
f 36/176/164 139/173/161 196/157/146 108/163/151
f 36/176/164 108/163/151 195/162/150 140/177/165
f 36/176/164 140/177/165 199/178/166 112/179/167
f 36/176/164 112/179/167 200/174/162 139/173/161
f 37/180/168 140/177/165 195/162/150 107/165/153
f 37/180/168 107/165/153 194/27/27 141/29/29
f 37/180/168 141/29/29 198/33/33 111/181/169
f 37/180/168 111/181/169 199/178/166 140/177/165
f 38/182/170 66/183/171 164/171/159 65/170/158
f 38/182/170 65/170/158 201/169/157 142/184/172
f 38/182/170 142/184/172 205/185/173 68/186/174
f 38/182/170 68/186/174 166/187/175 66/183/171
f 39/188/176 142/184/172 201/169/157 113/175/163
f 39/188/176 113/175/163 200/174/162 143/189/177
f 39/188/176 143/189/177 204/190/178 117/191/179
f 39/188/176 117/191/179 205/185/173 142/184/172
f 40/192/180 143/189/177 200/174/162 112/179/167
f 40/192/180 112/179/167 199/178/166 144/193/181
f 40/192/180 144/193/181 203/194/182 116/195/183
f 40/192/180 116/195/183 204/190/178 143/189/177
f 41/196/184 144/193/181 199/197/166 111/181/169
f 41/196/184 111/181/169 198/33/33 145/35/35
f 41/196/184 145/35/35 202/40/39 115/198/185
f 41/196/184 115/198/185 203/199/182 144/193/181
f 42/200/186 72/201/187 168/202/188 71/203/189
f 42/200/186 71/203/189 209/204/190 146/205/191
f 42/200/186 146/205/191 178/92/86 90/91/85
f 42/200/186 90/91/85 154/90/84 72/201/187
f 43/206/192 146/205/191 209/204/190 121/207/193
f 43/206/192 121/207/193 208/208/194 147/209/195
f 43/206/192 147/209/195 179/99/93 91/98/92
f 43/206/192 91/98/92 178/92/86 146/205/191
f 44/210/196 147/209/195 208/208/194 120/211/197
f 44/210/196 120/211/197 207/212/198 148/213/199
f 44/210/196 148/213/199 180/105/99 92/104/98
f 44/210/196 92/104/98 179/99/93 147/209/195
f 45/214/200 148/213/199 207/212/198 119/215/201
f 45/214/200 119/215/201 206/43/42 149/42/41
f 45/214/200 149/42/41 181/3/3 93/110/104
f 45/214/200 93/110/104 180/105/99 148/213/199
f 46/216/202 69/217/203 166/187/175 68/186/174
f 46/216/202 68/186/174 205/185/173 150/218/204
f 46/216/202 150/218/204 209/204/190 71/203/189
f 46/216/202 71/203/189 168/202/188 69/217/203
f 47/219/205 150/218/204 205/185/173 117/191/179
f 47/219/205 117/191/179 204/190/178 151/220/206
f 47/219/205 151/220/206 208/221/194 121/207/193
f 47/219/205 121/207/193 209/204/190 150/218/204
f 48/222/207 151/220/206 204/223/178 116/195/183
f 48/222/207 116/195/183 203/199/182 152/224/208
f 48/222/207 152/224/208 207/212/198 120/211/197
f 48/222/207 120/211/197 208/208/194 151/220/206
f 49/225/209 152/224/208 203/199/182 115/198/185
f 49/225/209 115/198/185 202/40/39 153/48/47
f 49/225/209 153/48/47 206/43/42 119/215/201
f 49/225/209 119/215/201 207/212/198 152/224/208
