# Blender v2.77 (sub 0) OBJ File: 'still_blendswap1.blend'
# www.blender.org
o Cylinder.010_Cylinder.006
v -3.209913 -0.709128 1.107466
v -3.251158 -0.698269 1.097678
v -3.282482 -0.676611 1.116675
v -3.285536 -0.656842 1.153329
v -3.258533 -0.650540 1.186165
v -3.217289 -0.661399 1.195949
v -3.182909 -0.702827 1.140302
v -3.185965 -0.683057 1.176952
v -3.443963 -1.003567 1.228713
v -3.469206 -0.986113 1.244022
v -3.409472 -1.011011 1.236738
v -3.470414 -0.968876 1.273697
v -3.446879 -0.961952 1.300356
v -3.412387 -0.969396 1.308382
v -3.387144 -0.986850 1.293073
v -3.385936 -1.004087 1.263397
v -3.459052 -1.033405 1.285335
v -1.723892 1.378917 0.566325
v -2.116878 0.861832 0.661893
v -2.500635 0.343192 0.773757
v -2.867453 -0.181882 0.920429
v -1.745454 1.390862 0.565393
v -2.142385 0.874873 0.658376
v -2.530315 0.357047 0.767689
v -2.902432 -0.168710 0.912128
v -1.767674 1.406226 0.578869
v -2.166881 0.891810 0.673232
v -2.557087 0.375558 0.783925
v -2.931480 -0.148626 0.929745
v -1.777537 1.416007 0.598859
v -2.176018 0.902722 0.697759
v -2.565270 0.387881 0.812955
v -2.937582 -0.133395 0.962959
v -1.769258 1.414476 0.613664
v -2.164436 0.901216 0.717598
v -2.550067 0.386798 0.837776
v -2.917164 -0.131937 0.992311
v -1.747686 1.402529 0.614613
v -2.138921 0.888174 0.721130
v -2.520379 0.372943 0.843858
v -2.882182 -0.145108 1.000616
v -1.715613 1.377386 0.581130
v -2.105297 0.860327 0.681732
v -2.485433 0.342109 0.798577
v -2.847035 -0.180425 0.949780
v -1.725465 1.387166 0.601137
v -2.114425 0.871237 0.706273
v -2.493606 0.354432 0.827622
v -2.853133 -0.165192 0.982999
v -1.526972 1.637164 0.519601
v -3.341469 -0.915586 1.191477
v -3.193167 -0.708220 1.121917
v -1.733652 1.383877 0.563788
v -1.546619 1.648484 0.519979
v -3.382581 -0.906223 1.181864
v -1.757421 1.398702 0.570600
v -1.567702 1.663060 0.532765
v -3.412954 -0.885223 1.200284
v -1.774839 1.412353 0.588767
v -1.577869 1.672355 0.550468
v -3.414796 -0.864888 1.235948
v -1.775699 1.416833 0.607655
v -1.571162 1.670921 0.562726
v -3.387028 -0.857129 1.267963
v -1.759493 1.409515 0.616208
v -1.551505 1.659600 0.562364
v -3.345917 -0.866492 1.277575
v -1.735716 1.394688 0.609411
v -1.530423 1.645023 0.549578
v -3.315544 -0.887492 1.259155
v -1.718306 1.381039 0.591230
v -1.520264 1.635731 0.531859
v -3.313701 -0.907828 1.223492
v -3.439980 -1.036564 1.261830
v -3.460917 -1.032045 1.256958
v -3.476239 -1.021451 1.266251
v -3.476972 -1.010987 1.284265
v -3.462686 -1.006784 1.300447
v -3.441750 -1.011303 1.305318
v -3.426427 -1.021898 1.296026
v -3.425694 -1.032361 1.278012
v -3.426592 -1.009074 1.229652
v -3.459022 -0.995557 1.233607
v -3.473382 -0.976723 1.258029
v -3.395090 -1.009357 1.248482
v -3.461261 -0.963606 1.288612
v -3.429758 -0.963889 1.307442
v -3.397329 -0.977406 1.303488
v -3.382968 -0.996239 1.279066
v -1.717452 1.376561 0.572330
v -2.108552 0.859326 0.670272
v -2.490263 0.340734 0.784485
v -2.854236 -0.183233 0.933280
v -3.230219 -0.705746 1.098777
v -2.884310 -0.176873 0.912840
v -2.514628 0.348844 0.767717
v -2.128686 0.867223 0.657594
v -3.269617 -0.688093 1.103776
v -2.919071 -0.158819 0.917896
v -2.545275 0.366415 0.773237
v -2.155831 0.883497 0.663752
v -3.288280 -0.665602 1.133989
v -2.938153 -0.139646 0.945494
v -2.564252 0.383154 0.797812
v -2.174091 0.898616 0.685131
v -3.275278 -0.651448 1.171715
v -2.930381 -0.130586 0.979459
v -2.560441 0.389256 0.827046
v -2.172765 0.903723 0.709215
v -3.238227 -0.653922 1.194852
v -2.900306 -0.136945 0.999900
v -2.536071 0.381146 0.843821
v -2.152625 0.895825 0.721905
v -3.198831 -0.671575 1.189850
v -2.865541 -0.155000 0.994851
v -2.505415 0.363575 0.838315
v -2.125473 0.879549 0.715758
v -3.180166 -0.694066 1.159640
v -2.846463 -0.174172 0.967247
v -2.486447 0.346836 0.813726
v -2.107219 0.864432 0.694368
v -1.920598 1.120522 0.613580
v -2.310851 0.602754 0.714280
v -2.686185 0.082022 0.841936
v -3.042631 -0.446329 1.009013
v -1.944104 1.133054 0.611346
v -2.338415 0.616233 0.709489
v -2.718261 0.095879 0.834670
v -3.080755 -0.434250 0.999864
v -1.967462 1.149204 0.625512
v -2.364050 0.633956 0.725035
v -2.746172 0.115176 0.851597
v -3.110941 -0.413379 1.018171
v -1.976991 1.159512 0.647780
v -2.372738 0.645543 0.751812
v -2.753567 0.128610 0.882800
v -3.115508 -0.395942 1.053210
v -1.967100 1.157938 0.665116
v -2.359385 0.644204 0.774141
v -2.736115 0.128312 0.910000
v -3.091781 -0.392154 1.084451
v -1.943585 1.145405 0.667367
v -2.331813 0.630724 0.778946
v -2.704030 0.114456 0.917278
v -3.053659 -0.404232 1.093597
v -1.910708 1.118948 0.630916
v -2.297499 0.601415 0.736609
v -2.668734 0.081724 0.869135
v -3.018905 -0.442540 1.040254
v -1.920226 1.129255 0.653201
v -2.306179 0.613001 0.763399
v -2.676120 0.095159 0.900351
v -3.023473 -0.425103 1.075290
v -1.521435 1.634938 0.524404
v -3.324440 -0.913882 1.205577
v -1.535743 1.641861 0.517956
v -3.361834 -0.913011 1.182978
v -1.557854 1.655920 0.525104
v -3.400643 -0.896527 1.187759
v -1.574821 1.668880 0.541655
v -3.418132 -0.874086 1.217120
v -1.576699 1.673147 0.557920
v -3.404057 -0.858834 1.253863
v -1.562387 1.666223 0.564377
v -3.366663 -0.859705 1.276462
v -1.540267 1.652163 0.557244
v -3.327855 -0.876189 1.271680
v -1.523309 1.639205 0.540678
v -3.310365 -0.898629 1.242319
v -3.420955 -1.029403 1.263092
v -3.444163 -1.029194 1.249220
v -3.468054 -1.019236 1.252133
v -3.478634 -1.005361 1.270125
v -3.469704 -0.995698 1.292656
v -3.446496 -0.995906 1.306528
v -3.422604 -1.005864 1.303615
v -3.412025 -1.019739 1.285623
v -1.913235 1.118063 0.620779
v -2.301521 0.600249 0.723833
v -2.674570 0.079875 0.853782
v -3.027642 -0.446596 1.022738
v -3.061220 -0.442095 1.000810
v -2.701457 0.087560 0.835073
v -2.323734 0.608293 0.709111
v -1.931365 1.125721 0.610156
v -3.098305 -0.424206 1.005781
v -2.734025 0.105559 0.840316
v -2.352614 0.625233 0.714951
v -1.956806 1.141292 0.616636
v -3.117172 -0.403410 1.034743
v -2.753190 0.123328 0.866447
v -2.371248 0.641145 0.737927
v -1.974661 1.155656 0.636414
v -3.106770 -0.391887 1.070727
v -2.747732 0.130459 0.898152
v -2.368717 0.646709 0.764585
v -1.974465 1.160398 0.657913
v -3.073194 -0.396387 1.092652
v -2.720840 0.122775 0.916867
v -2.346499 0.638664 0.779316
v -1.956329 1.152739 0.668548
v -3.036109 -0.414276 1.087679
v -2.688264 0.104776 0.911638
v -2.317612 0.621724 0.773487
v -1.930880 1.137166 0.662081
v -3.017241 -0.435072 1.058719
v -2.669107 0.087007 0.885492
v -2.298984 0.605812 0.750500
v -1.913033 1.122804 0.642290
vt 0.5140 0.8581
vt 0.3812 0.7635
vt 0.4268 0.7620
vt 0.5448 0.8554
vt 0.6610 0.9306
vt 0.6432 0.9339
vt 0.6325 0.9373
vt 0.4910 0.8610
vt 0.3434 0.7654
vt 0.5262 0.8639
vt 0.3705 0.7682
vt 0.6657 0.9397
vt 0.7064 0.9414
vt 0.5745 0.8664
vt 0.4166 0.7711
vt 0.6494 0.8684
vt 0.5008 0.7742
vt 0.7623 0.9420
vt 0.8201 0.9413
vt 0.7315 0.8693
vt 0.6020 0.7768
vt 0.8016 0.8687
vt 0.6988 0.7782
vt 0.8669 0.9393
vt 0.9231 0.9576
vt 0.8491 0.8668
vt 0.7715 0.7780
vt 0.8636 0.8636
vt 0.8007 0.7759
vt 0.9254 0.9512
vt 0.9189 0.9471
vt 0.8615 0.8599
vt 0.8080 0.7729
vt 0.8156 0.8566
vt 0.7559 0.7690
vt 0.9062 0.9263
vt 0.8623 0.9267
vt 0.8232 0.9249
vt 0.7658 0.8539
vt 0.6985 0.7656
vt 0.5915 0.8534
vt 0.4878 0.7614
vt 0.5578 0.7617
vt 0.6479 0.8523
vt 0.7337 0.9255
vt 0.6928 0.9276
vt 0.7079 0.8525
vt 0.6302 0.7631
vt 0.7788 0.9246
vt 0.7311 0.9732
vt 0.7627 0.9744
vt 0.7039 0.9713
vt 0.7403 0.9842
vt 0.7594 0.9855
vt 0.7810 0.9864
vt 0.8030 0.9745
vt 0.8435 0.9734
vt 0.8077 0.9864
vt 0.8344 0.9856
vt 0.7086 0.9683
vt 0.7191 0.9653
vt 0.7438 0.9736
vt 0.7501 0.9783
vt 0.7360 0.9813
vt 0.8756 0.9714
vt 0.9034 0.9688
vt 0.8559 0.9842
vt 0.8749 0.9823
vt 0.8991 0.9656
vt 0.8891 0.9628
vt 0.9319 0.9552
vt 0.8772 0.9794
vt 0.8631 0.9767
vt 0.8681 0.9717
vt 0.8674 0.9607
vt 0.8379 0.9594
vt 0.8446 0.9737
vt 0.8308 0.9692
vt 0.8044 0.9594
vt 0.7708 0.9605
vt 0.8066 0.9729
vt 0.7813 0.9700
vt 0.7411 0.9626
vt 0.7687 0.9749
vt 0.8075 0.9810
vt 0.7785 0.9868
vt 0.8369 0.9860
vt 0.5866 0.1450
vt 0.6845 0.0369
vt 0.7000 0.0372
vt 0.6213 0.1458
vt 0.5517 0.2477
vt 0.5005 0.2465
vt 0.4380 0.2447
vt 0.5411 0.1437
vt 0.6603 0.0362
vt 0.4379 0.3346
vt 0.5004 0.3361
vt 0.4522 0.4183
vt 0.3836 0.4167
vt 0.3125 0.4150
vt 0.3673 0.3327
vt 0.3223 0.5001
vt 0.3921 0.5015
vt 0.3517 0.5862
vt 0.2857 0.5853
vt 0.2004 0.6057
vt 0.2571 0.4988
vt 0.3052 0.6728
vt 0.3628 0.6727
vt 0.2535 0.6734
vt 0.4879 0.1421
vt 0.6299 0.0352
vt 0.3680 0.2426
vt 0.2963 0.2401
vt 0.4320 0.1401
vt 0.5966 0.0341
vt 0.2919 0.3305
vt 0.2421 0.4130
vt 0.1465 0.4308
vt 0.2181 0.3280
vt 0.2007 0.4975
vt 0.1636 0.5830
vt 0.1349 0.5829
vt 0.1487 0.4963
vt 0.2566 0.6750
vt 0.1923 0.5831
vt 0.2823 0.6770
vt 0.1455 0.5613
vt 0.3781 0.1380
vt 0.5638 0.0328
vt 0.2289 0.2375
vt 0.1081 0.2605
vt 0.3349 0.1361
vt 0.5363 0.0316
vt 0.1523 0.3254
vt 0.1120 0.4075
vt 0.0615 0.4053
vt 0.0904 0.3227
vt 0.1589 0.4965
vt 0.1625 0.4098
vt 0.2309 0.5869
vt 0.3135 0.5896
vt 0.1948 0.4976
vt 0.0814 0.3852
vt 0.3531 0.6799
vt 0.4560 0.6831
vt 0.3110 0.1348
vt 0.5187 0.0307
vt 0.1033 0.2388
vt 0.0873 0.2374
vt 0.2967 0.1337
vt 0.5062 0.0300
vt 0.1099 0.3227
vt 0.1193 0.2402
vt 0.1563 0.4090
vt 0.2403 0.4114
vt 0.1593 0.3238
vt 0.1436 0.2118
vt 0.2820 0.5002
vt 0.4386 0.5935
vt 0.5638 0.5971
vt 0.3957 0.5036
vt 0.5777 0.6863
vt 0.6828 0.6883
vt 0.3569 0.1355
vt 0.5290 0.0306
vt 0.2487 0.2359
vt 0.3495 0.2392
vt 0.4234 0.1377
vt 0.5576 0.0315
vt 0.2686 0.3272
vt 0.3712 0.4156
vt 0.5005 0.4197
vt 0.3961 0.3315
vt 0.5111 0.5069
vt 0.6466 0.5987
vt 0.7200 0.6211
vt 0.5999 0.5092
vt 0.7357 0.6880
vt 0.7626 0.6864
vt 0.5030 0.1404
vt 0.5977 0.0328
vt 0.4549 0.2428
vt 0.5424 0.2460
vt 0.5758 0.1431
vt 0.6397 0.0344
vt 0.5002 0.3349
vt 0.5796 0.4220
vt 0.6401 0.4445
vt 0.5700 0.3373
vt 0.6337 0.5096
vt 0.6753 0.5973
vt 0.6294 0.5944
vt 0.6401 0.5089
vt 0.7117 0.6828
vt 0.7212 0.6002
vt 0.6544 0.6795
vt 0.6435 0.5737
vt 0.6419 0.1461
vt 0.7046 0.0371
vt 0.7037 0.0369
vt 0.6555 0.1462
vt 0.6166 0.2489
vt 0.5879 0.2484
vt 0.5513 0.3373
vt 0.5965 0.3383
vt 0.5966 0.4006
vt 0.5151 0.4198
vt 0.4620 0.5031
vt 0.5281 0.5049
vt 0.4979 0.5893
vt 0.4239 0.5875
vt 0.4322 0.6732
vt 0.5078 0.6745
vt 0.6222 0.1449
vt 0.6736 0.0357
vt 0.5896 0.2478
vt 0.5946 0.3381
vt 0.6184 0.4222
vt 0.5858 0.4210
vt 0.5861 0.5069
vt 0.6509 0.4234
vt 0.5695 0.5916
vt 0.5842 0.6766
vn 0.4154 -0.5477 -0.7262
vn 0.4118 -0.5296 -0.7415
vn 0.6734 -0.5927 -0.4419
vn 0.6714 -0.5980 -0.4377
vn 0.6570 -0.6290 -0.4156
vn 0.4090 -0.5840 -0.7011
vn 0.0995 -0.4587 -0.8830
vn 0.1027 -0.4166 -0.9033
vn 0.0974 -0.3858 -0.9174
vn -0.2231 -0.2255 -0.9484
vn -0.2204 -0.1903 -0.9566
vn -0.2317 -0.2684 -0.9350
vn -0.5383 -0.0377 -0.8419
vn -0.5193 0.0002 -0.8546
vn -0.5038 0.0296 -0.8633
vn -0.7422 0.2292 -0.6297
vn -0.7204 0.2489 -0.6473
vn -0.7674 0.1982 -0.6097
vn -0.8757 0.3973 -0.2744
vn -0.8527 0.4258 -0.3027
vn -0.8365 0.4391 -0.3277
vn -0.8279 0.5560 0.0739
vn -0.8222 0.5666 0.0539
vn -0.8444 0.5257 0.1028
vn -0.6863 0.5655 0.4572
vn -0.6726 0.5984 0.4352
vn -0.6705 0.6039 0.4310
vn -0.4162 0.5499 0.7241
vn -0.4096 0.5439 0.7324
vn -0.4324 0.5174 0.7384
vn -0.1212 0.3909 0.9124
vn -0.1018 0.4219 0.9009
vn -0.0930 0.4041 0.9099
vn 0.2263 0.2332 0.9457
vn 0.2286 0.2109 0.9504
vn 0.2070 0.2026 0.9571
vn 0.5070 -0.0244 0.8616
vn 0.5239 0.0082 0.8517
vn 0.5149 -0.0093 0.8571
vn 0.8284 -0.5549 -0.0762
vn 0.8288 -0.5559 -0.0638
vn 0.8466 -0.4257 0.3193
vn 0.8554 -0.4221 0.3002
vn 0.8361 -0.4547 0.3066
vn 0.8085 -0.5850 -0.0633
vn 0.7466 -0.2224 0.6270
vn 0.7322 -0.2314 0.6405
vn 0.7300 -0.2565 0.6334
vn -0.2879 -0.4223 -0.8595
vn -0.6067 -0.1973 -0.7700
vn 0.0505 -0.6078 -0.7925
vn -0.0487 -0.7983 -0.6003
vn -0.4096 -0.8278 -0.3833
vn -0.6759 -0.4484 -0.5848
vn -0.8451 0.0454 -0.5326
vn -0.9521 0.2447 -0.1835
vn -0.8593 -0.4961 -0.1241
vn -0.9989 -0.0338 -0.0323
vn 0.3477 -0.7160 -0.6053
vn 0.5795 -0.7517 -0.3148
vn 0.4302 -0.8876 -0.1646
vn 0.0880 -0.9785 -0.1863
vn -0.9080 0.3717 0.1930
vn -0.7366 0.4018 0.5440
vn -0.8792 -0.2196 0.4228
vn -0.7698 0.1241 0.6260
vn -0.4828 0.3500 0.8027
vn -0.1748 0.2170 0.9604
vn -0.5139 -0.2056 0.8328
vn -0.2434 -0.0305 0.9695
vn 0.1334 0.0381 0.9903
vn 0.4165 -0.1803 0.8910
vn -0.0652 -0.4108 0.9094
vn 0.2774 -0.3702 0.8865
vn 0.6252 -0.3947 0.6733
vn 0.7270 -0.5791 0.3689
vn 0.2541 -0.6883 0.6794
vn 0.5495 -0.7148 0.4325
vn 0.7107 -0.7033 0.0167
vn 0.3265 -0.9102 0.2547
vn -0.3675 -0.8310 0.4174
vn 0.3090 -0.3926 -0.8662
vn 0.3067 -0.3907 -0.8679
vn 0.6833 -0.5958 -0.4219
vn 0.6749 -0.5928 -0.4394
vn 0.6748 -0.5928 -0.4396
vn 0.3409 -0.4146 -0.8437
vn 0.0111 -0.1869 -0.9823
vn -0.0245 -0.1577 -0.9872
vn -0.0331 -0.1504 -0.9881
vn 0.3639 -0.4340 -0.8241
vn 0.6744 -0.5926 -0.4404
vn 0.6741 -0.5925 -0.4410
vn 0.3797 -0.4541 -0.8060
vn 0.0578 -0.2482 -0.9670
vn 0.0385 -0.2157 -0.9757
vn 0.3911 -0.4744 -0.7887
vn 0.6740 -0.5925 -0.4411
vn 0.6738 -0.5926 -0.4414
vn 0.3995 -0.4939 -0.7722
vn 0.0820 -0.3179 -0.9445
vn 0.0715 -0.2829 -0.9565
vn 0.4064 -0.5125 -0.7564
vn 0.6736 -0.5926 -0.4416
vn 0.0906 -0.3525 -0.9314
vn -0.2544 0.0245 -0.9668
vn -0.2580 0.0285 -0.9657
vn -0.2365 0.0065 -0.9716
vn -0.4241 0.1666 -0.8901
vn -0.4227 0.1689 -0.8904
vn -0.4174 0.1653 -0.8936
vn -0.2236 -0.0147 -0.9745
vn -0.2173 -0.0433 -0.9751
vn -0.4392 0.1424 -0.8870
vn -0.4289 0.1591 -0.8892
vn -0.2154 -0.0771 -0.9734
vn -0.2159 -0.1137 -0.9698
vn -0.4694 0.0916 -0.8782
vn -0.4533 0.1191 -0.8834
vn -0.2177 -0.1518 -0.9641
vn -0.4864 0.0616 -0.8715
vn -0.5683 0.3038 -0.7647
vn -0.5566 0.2936 -0.7771
vn -0.5838 0.3155 -0.7481
vn -0.7239 0.4673 -0.5076
vn -0.7065 0.4493 -0.5468
vn -0.6940 0.4357 -0.5732
vn -0.6007 0.3205 -0.7324
vn -0.6218 0.3158 -0.7167
vn -0.7593 0.4780 -0.4414
vn -0.7405 0.4773 -0.4731
vn -0.6456 0.3041 -0.7005
vn -0.6705 0.2882 -0.6836
vn -0.7992 0.4633 -0.3828
vn -0.7793 0.4725 -0.4115
vn -0.6956 0.2696 -0.6658
vn -0.8184 0.4520 -0.3547
vn -0.7937 0.5896 -0.1496
vn -0.7923 0.5842 -0.1759
vn -0.7951 0.5972 -0.1055
vn -0.6685 0.6039 0.4341
vn -0.6684 0.6040 0.4340
vn -0.6603 0.6009 0.4504
vn -0.7970 0.5998 -0.0701
vn -0.8011 0.5971 -0.0399
vn -0.6692 0.6041 0.4325
vn -0.6688 0.6041 0.4333
vn -0.8064 0.5911 -0.0131
vn -0.8120 0.5835 0.0111
vn -0.6698 0.6040 0.4318
vn -0.6695 0.6041 0.4322
vn -0.8173 0.5752 0.0335
vn -0.6701 0.6040 0.4314
vn -0.3027 0.4061 0.8622
vn -0.2683 0.3832 0.8838
vn -0.3349 0.4281 0.8394
vn -0.0021 0.2030 0.9792
vn 0.0338 0.1736 0.9842
vn 0.0647 0.1494 0.9866
vn -0.3587 0.4481 0.8188
vn -0.3754 0.4686 0.7996
vn -0.0505 0.2656 0.9627
vn -0.0304 0.2324 0.9721
vn -0.3871 0.4890 0.7817
vn -0.3961 0.5085 0.7645
vn -0.0760 0.3363 0.9387
vn -0.0649 0.3008 0.9515
vn -0.4035 0.5270 0.7480
vn -0.0852 0.3710 0.9247
vn 0.2658 -0.0061 0.9640
vn 0.2818 -0.0204 0.9592
vn 0.2477 0.0118 0.9687
vn 0.4368 -0.1477 0.8873
vn 0.4354 -0.1500 0.8876
vn 0.4398 -0.1551 0.8846
vn 0.2345 0.0334 0.9715
vn 0.2277 0.0625 0.9717
vn 0.4516 -0.1231 0.8837
vn 0.4414 -0.1401 0.8863
vn 0.2254 0.0969 0.9694
vn 0.2255 0.1341 0.9649
vn 0.4816 -0.0713 0.8735
vn 0.4656 -0.0993 0.8794
vn 0.2268 0.1726 0.9585
vn 0.4983 -0.0408 0.8660
vn 0.8026 -0.5778 0.1477
vn 0.8014 -0.5730 0.1711
vn 0.7103 -0.4271 0.5596
vn 0.7174 -0.4345 0.5445
vn 0.7349 -0.4525 0.5051
vn 0.8040 -0.5857 0.1028
vn 0.8057 -0.5886 0.0657
vn 0.7515 -0.4630 0.4698
vn 0.7704 -0.4641 0.4370
vn 0.8095 -0.5861 0.0338
vn 0.8144 -0.5802 0.0061
vn 0.7903 -0.4587 0.4061
vn 0.8101 -0.4494 0.3764
vn 0.8195 -0.5727 -0.0191
vn 0.8244 -0.5644 -0.0424
vn 0.8291 -0.4381 0.3473
vn 0.5809 -0.2863 0.7619
vn 0.5764 -0.2831 0.7665
vn 0.5963 -0.2980 0.7453
vn 0.6132 -0.3032 0.7294
vn 0.6344 -0.2985 0.7130
vn 0.6582 -0.2867 0.6961
vn 0.6831 -0.2705 0.6784
vn 0.7081 -0.2516 0.6597
s 1
f 1/1/1 125/2/2 181/3/3 52/4/4
f 1/1/1 52/4/4 155/5/5 51/6/6
f 1/1/1 51/6/6 157/7/7 94/8/8
f 1/1/1 94/8/8 182/9/9 125/2/2
f 2/10/10 129/11/11 182/9/9 94/8/8
f 2/10/10 94/8/8 157/7/7 55/12/12
f 2/10/10 55/12/12 159/13/13 98/14/14
f 2/10/10 98/14/14 186/15/15 129/11/11
f 3/16/16 133/17/17 186/15/15 98/14/14
f 3/16/16 98/14/14 159/13/13 58/18/18
f 3/16/16 58/18/18 161/19/19 102/20/20
f 3/16/16 102/20/20 190/21/21 133/17/17
f 4/22/22 137/23/23 190/21/21 102/20/20
f 4/22/22 102/20/20 161/19/19 61/24/24
f 4/22/22 61/24/24 163/25/25 106/26/26
f 4/22/22 106/26/26 194/27/27 137/23/23
f 5/28/28 141/29/29 194/27/27 106/26/26
f 5/28/28 106/26/26 163/25/25 64/30/30
f 5/28/28 64/30/30 165/31/31 110/32/32
f 5/28/28 110/32/32 198/33/33 141/29/29
f 6/34/34 145/35/35 198/33/33 110/32/32
f 6/34/34 110/32/32 165/36/31 67/37/36
f 6/34/34 67/37/36 167/38/37 114/39/38
f 6/34/34 114/39/38 202/40/39 145/35/35
f 7/41/40 149/42/41 206/43/42 118/44/43
f 7/41/40 118/44/43 169/45/44 73/46/45
f 7/41/40 73/46/45 155/5/5 52/4/4
f 7/41/40 52/4/4 181/3/3 149/42/41
f 8/47/46 153/48/47 202/40/39 114/39/38
f 8/47/46 114/39/38 167/38/37 70/49/48
f 8/47/46 70/49/48 169/45/44 118/44/43
f 8/47/46 118/44/43 206/43/42 153/48/47
f 9/50/49 83/51/50 159/13/13 55/12/12
f 9/50/49 55/12/12 157/7/7 82/52/51
f 9/50/49 82/52/51 171/53/52 75/54/53
f 9/50/49 75/54/53 172/55/54 83/51/50
f 10/56/55 84/57/56 161/19/19 58/18/18
f 10/56/55 58/18/18 159/13/13 83/51/50
f 10/56/55 83/51/50 172/55/54 76/58/57
f 10/56/55 76/58/57 173/59/58 84/57/56
f 11/60/59 82/52/51 157/7/7 51/6/6
f 11/60/59 51/6/6 155/5/5 85/61/60
f 11/60/59 85/61/60 170/62/61 74/63/62
f 11/60/59 74/63/62 171/64/52 82/52/51
f 12/65/63 86/66/64 163/25/25 61/24/24
f 12/65/63 61/24/24 161/19/19 84/57/56
f 12/65/63 84/57/56 173/59/58 77/67/65
f 12/65/63 77/67/65 174/68/66 86/66/64
f 13/69/67 87/70/68 165/36/31 64/30/30
f 13/69/67 64/30/30 163/71/25 86/66/64
f 13/69/67 86/66/64 174/72/66 78/73/69
f 13/69/67 78/73/69 175/74/70 87/70/68
f 14/75/71 88/76/72 167/38/37 67/37/36
f 14/75/71 67/37/36 165/36/31 87/70/68
f 14/75/71 87/70/68 175/74/70 79/77/73
f 14/75/71 79/77/73 176/78/74 88/76/72
f 15/79/75 89/80/76 169/45/44 70/49/48
f 15/79/75 70/49/48 167/38/37 88/76/72
f 15/79/75 88/76/72 176/78/74 80/81/77
f 15/79/75 80/81/77 177/82/78 89/80/76
f 16/83/79 85/61/60 155/5/5 73/46/45
f 16/83/79 73/46/45 169/45/44 89/80/76
f 16/83/79 89/80/76 177/82/78 81/84/80
f 16/83/79 81/84/80 170/62/61 85/61/60
f 17/85/81 76/58/57 172/86/54 75/54/53
f 17/85/81 75/54/53 171/64/52 74/63/62
f 17/85/81 74/63/62 170/62/61 81/84/80
f 17/85/81 81/84/80 177/82/78 80/81/77
f 17/85/81 80/81/77 176/78/74 79/77/73
f 17/85/81 79/77/73 175/74/70 78/73/69
f 17/85/81 78/73/69 174/72/66 77/67/65
f 17/85/81 77/67/65 173/87/58 76/58/57
f 18/88/82 50/89/83 154/90/84 90/91/85
f 18/88/82 90/91/85 178/92/86 122/93/87
f 18/88/82 122/93/87 185/94/88 53/95/89
f 18/88/82 53/95/89 156/96/90 50/89/83
f 19/97/91 122/93/87 178/92/86 91/98/92
f 19/97/91 91/98/92 179/99/93 123/100/94
f 19/97/91 123/100/94 184/101/95 97/102/96
f 19/97/91 97/102/96 185/94/88 122/93/87
f 20/103/97 123/100/94 179/99/93 92/104/98
f 20/103/97 92/104/98 180/105/99 124/106/100
f 20/103/97 124/106/100 183/107/101 96/108/102
f 20/103/97 96/108/102 184/101/95 123/100/94
f 21/109/103 124/106/100 180/105/99 93/110/104
f 21/109/103 93/110/104 181/3/3 125/2/2
f 21/109/103 125/2/2 182/9/9 95/111/105
f 21/109/103 95/111/105 183/107/101 124/106/100
f 22/112/106 54/113/107 156/96/90 53/95/89
f 22/112/106 53/95/89 185/94/88 126/114/108
f 22/112/106 126/114/108 189/115/109 56/116/110
f 22/112/106 56/116/110 158/117/111 54/113/107
f 23/118/112 126/114/108 185/94/88 97/102/96
f 23/118/112 97/102/96 184/101/95 127/119/113
f 23/118/112 127/119/113 188/120/114 101/121/115
f 23/118/112 101/121/115 189/115/109 126/114/108
f 24/122/116 127/119/113 184/101/95 96/108/102
f 24/122/116 96/108/102 183/107/101 128/123/117
f 24/122/116 128/123/117 187/124/118 100/125/119
f 24/122/116 100/125/119 188/120/114 127/119/113
f 25/126/120 128/123/117 183/127/101 95/111/105
f 25/126/120 95/111/105 182/9/9 129/11/11
f 25/126/120 129/11/11 186/15/15 99/128/121
f 25/126/120 99/128/121 187/129/118 128/123/117
f 26/130/122 57/131/123 158/117/111 56/116/110
f 26/130/122 56/116/110 189/115/109 130/132/124
f 26/130/122 130/132/124 193/133/125 59/134/126
f 26/130/122 59/134/126 160/135/127 57/131/123
f 27/136/128 130/132/124 189/115/109 101/121/115
f 27/136/128 101/121/115 188/120/114 131/137/129
f 27/136/128 131/137/129 192/138/130 105/139/131
f 27/136/128 105/139/131 193/133/125 130/132/124
f 28/140/132 131/137/129 188/141/114 100/125/119
f 28/140/132 100/125/119 187/129/118 132/142/133
f 28/140/132 132/142/133 191/143/134 104/144/135
f 28/140/132 104/144/135 192/145/130 131/137/129
f 29/146/136 132/142/133 187/129/118 99/128/121
f 29/146/136 99/128/121 186/15/15 133/17/17
f 29/146/136 133/17/17 190/21/21 103/147/137
f 29/146/136 103/147/137 191/143/134 132/142/133
f 30/148/138 60/149/139 160/135/127 59/134/126
f 30/148/138 59/134/126 193/133/125 134/150/140
f 30/148/138 134/150/140 197/151/141 62/152/142
f 30/148/138 62/152/142 162/153/143 60/149/139
f 31/154/144 134/150/140 193/155/125 105/139/131
f 31/154/144 105/139/131 192/145/130 135/156/145
f 31/154/144 135/156/145 196/157/146 109/158/147
f 31/154/144 109/158/147 197/159/141 134/150/140
f 32/160/148 135/156/145 192/145/130 104/144/135
f 32/160/148 104/144/135 191/143/134 136/161/149
f 32/160/148 136/161/149 195/162/150 108/163/151
f 32/160/148 108/163/151 196/157/146 135/156/145
f 33/164/152 136/161/149 191/143/134 103/147/137
f 33/164/152 103/147/137 190/21/21 137/23/23
f 33/164/152 137/23/23 194/27/27 107/165/153
f 33/164/152 107/165/153 195/162/150 136/161/149
f 34/166/154 63/167/155 162/153/143 62/152/142
f 34/166/154 62/152/142 197/159/141 138/168/156
f 34/166/154 138/168/156 201/169/157 65/170/158
f 34/166/154 65/170/158 164/171/159 63/167/155
f 35/172/160 138/168/156 197/159/141 109/158/147
f 35/172/160 109/158/147 196/157/146 139/173/161
f 35/172/160 139/173/161 200/174/162 113/175/163
f 35/172/160 113/175/163 201/169/157 138/168/156
f 36/176/164 139/173/161 196/157/146 108/163/151
f 36/176/164 108/163/151 195/162/150 140/177/165
f 36/176/164 140/177/165 199/178/166 112/179/167
f 36/176/164 112/179/167 200/174/162 139/173/161
f 37/180/168 140/177/165 195/162/150 107/165/153
f 37/180/168 107/165/153 194/27/27 141/29/29
f 37/180/168 141/29/29 198/33/33 111/181/169
f 37/180/168 111/181/169 199/178/166 140/177/165
f 38/182/170 66/183/171 164/171/159 65/170/158
f 38/182/170 65/170/158 201/169/157 142/184/172
f 38/182/170 142/184/172 205/185/173 68/186/174
f 38/182/170 68/186/174 166/187/175 66/183/171
f 39/188/176 142/184/172 201/169/157 113/175/163
f 39/188/176 113/175/163 200/174/162 143/189/177
f 39/188/176 143/189/177 204/190/178 117/191/179
f 39/188/176 117/191/179 205/185/173 142/184/172
f 40/192/180 143/189/177 200/174/162 112/179/167
f 40/192/180 112/179/167 199/178/166 144/193/181
f 40/192/180 144/193/181 203/194/182 116/195/183
f 40/192/180 116/195/183 204/190/178 143/189/177
f 41/196/184 144/193/181 199/197/166 111/181/169
f 41/196/184 111/181/169 198/33/33 145/35/35
f 41/196/184 145/35/35 202/40/39 115/198/185
f 41/196/184 115/198/185 203/199/182 144/193/181
f 42/200/186 72/201/187 168/202/188 71/203/189
f 42/200/186 71/203/189 209/204/190 146/205/191
f 42/200/186 146/205/191 178/92/86 90/91/85
f 42/200/186 90/91/85 154/90/84 72/201/187
f 43/206/192 146/205/191 209/204/190 121/207/193
f 43/206/192 121/207/193 208/208/194 147/209/195
f 43/206/192 147/209/195 179/99/93 91/98/92
f 43/206/192 91/98/92 178/92/86 146/205/191
f 44/210/196 147/209/195 208/208/194 120/211/197
f 44/210/196 120/211/197 207/212/198 148/213/199
f 44/210/196 148/213/199 180/105/99 92/104/98
f 44/210/196 92/104/98 179/99/93 147/209/195
f 45/214/200 148/213/199 207/212/198 119/215/201
f 45/214/200 119/215/201 206/43/42 149/42/41
f 45/214/200 149/42/41 181/3/3 93/110/104
f 45/214/200 93/110/104 180/105/99 148/213/199
f 46/216/202 69/217/203 166/187/175 68/186/174
f 46/216/202 68/186/174 205/185/173 150/218/204
f 46/216/202 150/218/204 209/204/190 71/203/189
f 46/216/202 71/203/189 168/202/188 69/217/203
f 47/219/205 150/218/204 205/185/173 117/191/179
f 47/219/205 117/191/179 204/190/178 151/220/206
f 47/219/205 151/220/206 208/221/194 121/207/193
f 47/219/205 121/207/193 209/204/190 150/218/204
f 48/222/207 151/220/206 204/223/178 116/195/183
f 48/222/207 116/195/183 203/199/182 152/224/208
f 48/222/207 152/224/208 207/212/198 120/211/197
f 48/222/207 120/211/197 208/208/194 151/220/206
f 49/225/209 152/224/208 203/199/182 115/198/185
f 49/225/209 115/198/185 202/40/39 153/48/47
f 49/225/209 153/48/47 206/43/42 119/215/201
f 49/225/209 119/215/201 207/212/198 152/224/208
