# Blender v2.77 (sub 0) OBJ File: ''
# www.blender.org
mtllib 1X1X1.mtl
o Object.1
v 25.400000 -25.299999 0.241418
v 25.299999 -25.400000 0.099996
v 25.158577 -25.299999 -0.000004
v 25.299999 -25.158577 -0.000004
v 25.400000 -25.158577 0.099996
v 25.299999 -25.400007 50.558575
v 25.400000 -25.300007 50.699997
v 25.299999 -25.300007 50.799995
v 25.158581 -25.400007 50.699997
v -25.400000 -25.158577 0.099996
v -25.299999 -25.299999 -0.000004
v -25.158577 -25.400000 0.099996
v -25.299999 -25.400000 0.241418
v -25.400000 -25.299999 0.241418
v -25.400000 25.299999 0.100004
v -25.299999 25.400000 0.241426
v -25.158577 25.400000 0.100004
v -25.158577 25.299999 0.000004
v -25.299999 25.158577 0.000004
v 25.400000 25.299999 0.100029
v 25.299999 25.299999 0.000029
v 25.299999 25.400000 0.100029
v 25.299974 25.399992 50.558609
v 25.158556 25.399992 50.700031
v 25.158552 25.299992 50.800030
v 25.299974 25.158569 50.800030
v 25.399975 25.158573 50.700031
v 25.399975 25.299992 50.558609
v -25.299999 25.399992 50.700005
v -25.400000 25.299992 50.558582
v -25.400000 25.158573 50.700005
v -25.299999 25.299992 50.800003
v -25.400000 -25.300007 50.699997
v -25.299999 -25.400007 50.699997
v -25.158577 -25.300007 50.799995
v -25.299999 -25.158585 50.799995
vn 0.0000 -0.0000 1.0000
vn 0.0000 -1.0000 -0.0000
vn 0.0000 0.0000 -1.0000
vn -0.0000 1.0000 0.0000
vn -1.0000 0.0000 0.0000
vn 1.0000 0.0000 0.0000
vn 0.6624 -0.3501 -0.6623
vn 0.3574 -0.8629 0.3574
vn -0.6624 -0.6623 -0.3501
vn -0.3501 0.6623 -0.6624
vn 0.5773 0.5774 -0.5774
vn 0.5774 0.5774 0.5774
vn -0.8629 0.3574 0.3574
vn -0.3574 -0.3574 0.8629
vn -0.7071 0.7071 0.0000
vn -0.7071 -0.7071 -0.0000
vn 0.7071 0.0000 -0.7071
vn -0.7071 0.0000 -0.7071
vn 0.0000 0.7071 -0.7071
vn -0.0000 0.7071 0.7071
vn 0.0000 -0.7071 -0.7071
vn 0.7071 0.7071 0.0000
vn 0.7071 -0.0000 0.7071
vn 0.0000 -0.7071 0.7071
vn 0.7071 -0.7071 -0.0000
vn -0.7071 -0.0000 0.7071
usemtl White
s off
f 8//1 26//1 35//1
f 2//2 6//2 12//2
f 3//3 11//3 19//3
f 36//1 25//1 32//1
f 22//4 17//4 23//4
f 16//4 29//4 24//4
f 9//2 34//2 13//2
f 21//3 4//3 18//3
f 33//5 31//5 14//5
f 30//5 15//5 10//5
f 20//6 28//6 5//6
f 1//7 2//7 3//7 4//7 5//7
f 6//8 7//8 8//8 9//8
f 10//9 11//9 12//9 13//9 14//9
f 15//10 16//10 17//10 18//10 19//10
f 20//11 21//11 22//11
f 23//12 24//12 25//12 26//12 27//12 28//12
f 29//13 30//13 31//13 32//13
f 33//14 34//14 35//14 36//14
f 15//15 30//15 29//15 16//15
f 16//4 24//4 23//4 17//4
f 5//6 28//6 27//6 1//6
f 14//5 31//5 30//5 10//5
f 13//16 34//16 33//16 14//16
f 4//17 21//17 20//17 5//17
f 10//18 15//18 19//18 11//18
f 17//19 22//19 21//19 18//19
f 25//1 36//1 35//1 26//1
f 24//20 29//20 32//20 25//20
f 3//3 19//3 18//3 4//3
f 9//2 13//2 12//2 6//2
f 2//21 12//21 11//21 3//21
f 22//22 23//22 28//22 20//22
f 7//23 27//23 26//23 8//23
f 8//24 35//24 34//24 9//24
f 1//25 7//25 6//25 2//25
f 31//26 33//26 36//26 32//26
f 27//6 7//6 1//6
